<?xml version="1.0" encoding="utf-8"?>
<!-- Generator: Adobe Illustrator 20.0.0, SVG Export Plug-In . SVG Version: 6.00 Build 0)  -->
<svg version="1.1" id="Layer_1" xmlns="http://www.w3.org/2000/svg" xmlns:xlink="http://www.w3.org/1999/xlink" x="0px" y="0px"
	 viewBox="0 0 64 64" style="enable-background:new 0 0 64 64;" xml:space="preserve">
<style type="text/css">
	.st0{fill:#2C2B30;}
</style>
<title>Asset 14</title>
<g id="Layer_2">
	<g id="Layer_1-2">
		<path class="st0" d="M49.8,14c0-0.4-0.2-0.7-0.6-0.8l0,0C45.8,8.8,39.4,8,35,11.4c-0.7,0.5-1.3,1.2-1.9,1.9
			c-3.1-4.2-8.9-5.1-13.1-2c-0.8,0.6-1.5,1.3-2,2.1c-0.4,0.1-0.6,0.4-0.6,0.8l-0.2,24.8c0,0.1,0,0.2,0.1,0.3
			c-0.1,0.4,0.2,0.8,0.7,0.9c0,0,0.1,0,0.1,0l14.4-0.2c0.3,0.4,0.8,0.5,1.2,0.2c0.1-0.1,0.2-0.1,0.2-0.2l14.5-0.2
			c0.3,0,0.5-0.1,0.7-0.4c0.4,0,0.7-0.4,0.6-0.8C49.3,30.4,49.4,22.2,49.8,14z M34.4,14.4c2.7-3.8,8-4.6,11.7-1.9
			c0.7,0.5,1.3,1.1,1.9,1.8l0.1,0.1c-0.3,7.4-0.4,14.8-0.1,22.2C44,33,37.8,33.1,34,37l0.3-22.3C34.4,14.6,34.4,14.5,34.4,14.4
			L34.4,14.4z M46.9,38l-11.8,0.2C38.3,34.9,43.6,34.8,46.9,38C46.9,38,46.9,38,46.9,38z M19,14.7l0.1-0.1c2.3-3.6,7.1-4.6,10.7-2.3
			c1,0.7,1.9,1.6,2.5,2.6V15c0.1,0.2,0.2,0.3,0.4,0.4l-0.3,21.7c-3.5-3.7-9.4-3.9-13.2-0.3c-0.1,0.1-0.2,0.2-0.3,0.3L19,14.7z
			 M31.2,38.3l-11.4,0.2c2.8-3.2,7.6-3.5,10.8-0.7C30.8,37.9,31,38.1,31.2,38.3z"/>
		<path class="st0" d="M57,8.7C54.6,4.6,50.2,2.2,45.7,1c-9.8-2.6-20.5,0-28.5,6.1C8.8,13.6,2.8,24.9,6.7,35.5
			c4.2,11.5,18.4,17,29.7,16.3c0.2,0,0.4-0.1,0.5-0.3c0.5,1.4,1.7,2.4,3.1,2.7c2.2,0.4,4.4-0.9,5-3.1c0.1-0.3,0.1-0.7,0.1-1.1
			C55.5,46.9,59.9,36,60,26C60.1,20.5,59.8,13.7,57,8.7z M43.1,51.5c-0.7,1.1-2.1,1.5-3.3,0.9c-1.2-0.6-1.8-2.1-1.2-3.3
			c0.5-1,1.6-1.5,2.7-1.3c0.2,0.4,0.6,0.6,1,0.5C43.9,47.9,43.6,50.7,43.1,51.5z M44.9,48.4c-0.3-1-1.2-1.6-2.2-1.8
			c-0.1-0.1-0.2-0.2-0.3-0.3c-2.1-0.8-4.5,0.2-5.3,2.3c0,0.1-0.1,0.1-0.1,0.2c-0.1,0.4-0.2,0.8-0.2,1.3c-0.1,0-0.2,0-0.3,0
			c-9.6,0.6-20.3-3.2-26-11.2c-6.5-9-2.3-20.9,4.9-28c6.5-6.4,15.4-9.7,24.5-9.3C44.4,2,49.5,3.3,53,6.5c4.1,3.6,4.8,9.4,5.2,14.5
			C59,31.6,56.3,44.8,44.9,48.4L44.9,48.4z"/>
		<path class="st0" d="M27.1,53.2c-0.1-0.1-0.2-0.2-0.4-0.3c-2.1-0.8-4.5,0.2-5.3,2.3c0,0.1-0.1,0.1-0.1,0.2
			c-0.7,2.2,0.5,4.6,2.8,5.3c0.1,0,0.2,0.1,0.4,0.1c2.2,0.4,4.4-0.9,5-3.1C30.1,55.8,29.1,53.4,27.1,53.2z M27.6,58.1
			c-0.7,1.1-2.1,1.5-3.3,0.9c-1.2-0.6-1.8-2.1-1.2-3.3c0.5-1,1.6-1.5,2.7-1.3c0.2,0.4,0.6,0.6,1,0.5C28.5,54.5,28.1,57.3,27.6,58.1z
			"/>
		<path class="st0" d="M9.9,56.3c-0.1-0.1-0.2-0.2-0.4-0.3c-2.1-0.8-4.5,0.2-5.3,2.3c0,0.1-0.1,0.2-0.1,0.2
			c-0.7,2.2,0.5,4.6,2.8,5.3c0.1,0,0.2,0.1,0.4,0.1c2.2,0.4,4.4-0.9,5-3.1C12.8,58.9,11.9,56.5,9.9,56.3z M10.4,61.2
			c-0.7,1.1-2.1,1.5-3.3,0.9c-1.3-0.6-1.8-2.1-1.2-3.3c0,0,0,0,0,0c0.5-1,1.6-1.5,2.7-1.3c0.2,0.4,0.6,0.6,1,0.5
			C11.2,57.6,10.9,60.4,10.4,61.2L10.4,61.2z"/>
	</g>
</g>
</svg>
