<?xml version="1.0" encoding="utf-8"?>
<!-- Generator: Adobe Illustrator 20.0.0, SVG Export Plug-In . SVG Version: 6.00 Build 0)  -->
<svg version="1.1" id="Layer_1" xmlns="http://www.w3.org/2000/svg" xmlns:xlink="http://www.w3.org/1999/xlink" x="0px" y="0px"
	 viewBox="0 0 64 64" style="enable-background:new 0 0 64 64;" xml:space="preserve">
<style type="text/css">
	.st0{fill:#2C2B30;}
</style>
<title>Asset 66</title>
<g id="Layer_2">
	<g id="Layer_1-2">
		<path class="st0" d="M63.3,51.1c-7.7-7.7-15.7-15.1-24.1-22c6-6.8,12.2-13.5,18.2-20.3c0.1-0.2,0.2-0.4,0.2-0.6
			C57.9,8,58,7.5,57.8,7.1c-1.4-2.8-4.2-4.5-7.3-4.7c-0.4,0-0.7,0.2-0.8,0.6c-0.1,0-0.1,0.1-0.2,0.1c-6.4,5.7-12.7,11.6-18.9,17.4
			c0-0.2-0.1-0.3-0.3-0.5L10,0.2C9.8,0,9.4-0.1,9,0.1c-0.1,0-0.3,0.1-0.4,0.1L1.2,5.4C0.7,5.4,0.4,5.9,0.5,6.4
			c0,0.2,0.1,0.3,0.2,0.4l19.5,23.6l0.1,0.1c-5,4.9-10,9.8-15,14.8C5.1,45.5,5,45.8,5,46c-0.1,0.1-0.1,0.2-0.2,0.3L0.8,57.9
			c-0.1,0.3,0,0.6,0.2,0.8c0.2,0.4,0.6,0.6,1,0.5l14.2-3.7c0.3,0.2,0.7,0.2,0.9-0.1c0,0,0,0,0,0c4-5,8.1-10,12.2-14.9l0,0
			c5.7,8.2,12,16,18.9,23.3c0.3,0.3,0.9,0.3,1.2,0c0.2-0.2,0.3-0.4,0.3-0.6c4.9-3,9.4-6.5,13.4-10.5c0.1-0.1,0.1-0.1,0.2-0.2
			c0.4-0.2,0.5-0.8,0.2-1.1C63.4,51.2,63.3,51.1,63.3,51.1z M50.8,4.3c0.1,0,0.1-0.1,0.1-0.2c2.2,0.3,4.1,1.5,5.2,3.5l-3.8,4.2
			c-1.1-2-2.7-3.6-4.7-4.6L50.8,4.3z M46.3,8.5L46.3,8.5c2.1,0.9,3.9,2.6,4.8,4.7L50.5,14c-1.4-1.9-3.3-3.4-5.4-4.4L46.3,8.5z
			 M12.3,45.3c0.1,0,0.2-0.1,0.3-0.2c12.1-9.8,22.5-21.5,33.3-32.7c0.1-0.1,0.2-0.2,0.2-0.3c0.6,0.4,1.1,0.8,1.6,1.3l-0.1,0.1
			C36.4,24.6,24.6,35.5,14.8,48c-1,0-2,0.2-3,0.5l0.4-2.8C12.3,45.6,12.3,45.5,12.3,45.3L12.3,45.3z M20.1,27.6L20.1,27.6l2.5-2.4
			c0.6-0.6,0-1.7-0.8-1.4l-0.2,0.1c-0.2,0.1-0.4,0.3-0.5,0.5L19,26.3l-1.8-2.1l4-3.1c0.9-0.7-0.4-1.9-1.2-1.2l-3.9,3L14.6,21
			l1.9-1.8c0.8-0.8-0.4-2-1.2-1.2l-1.8,1.7l-1.8-2.2l0,0l4.3-3.7c0.8-0.7-0.4-1.9-1.2-1.2l-4.2,3.7l-8-9.8l6.7-4.6l20,19.4
			c0.1,0.1,0.3,0.2,0.4,0.2c-2.8,2.6-5.5,5.2-8.3,7.9c0-0.1-0.1-0.1-0.1-0.2L20.1,27.6z M43.6,10.9l0.2,0.1c0.3,0.1,0.5,0.2,0.8,0.3
			C33.9,22.5,23.5,34.2,11.4,44c-0.2,0.1-0.3,0.4-0.3,0.7l-3.2,0.6C19.5,33.5,31.5,22.1,43.6,10.9z M7.7,55.9c-0.3-1.7-1.4-3.2-3-4
			l1.7-4.8c0.1,0,0.2,0,0.3,0l3.8-0.7L10,49.5c0,0.1,0,0.3,0,0.4c0,0.5,0.4,0.9,0.9,0.8c0.1,0,0.3,0,0.4-0.1c0.9-0.5,2-0.8,3-0.9
			l0.6,4.2L7.7,55.9z M16.5,53.3l-0.5-4c9.8-12.6,21.6-23.5,32.8-34.7c0.1,0.2,0.3,0.3,0.4,0.5c0,0.1,0.1,0.1,0.1,0.1
			C38.1,27.7,26.8,40.2,16.5,53.3z M48.7,61.7L48.7,61.7c-0.7-0.8-1.4-1.5-2.1-2.3l0.1-0.1l2.9-2.7c0.8-0.7-0.4-2-1.2-1.2l-2.9,2.7
			l0,0L44,56.5c1.4-1.6,2.9-3.1,4.4-4.7c0.8-0.8-0.5-2-1.2-1.2c-1.4,1.5-2.9,3.1-4.3,4.6L41.1,53l2.6-1.8c0.9-0.6,0-2.1-0.9-1.5
			L40,51.7c-0.5-0.6-1-1.2-1.5-1.8l5.6-5c0.8-0.7-0.4-1.9-1.2-1.2l-5.5,4.9c-0.4-0.5-0.8-1-1.2-1.5l0.1-0.1l2.2-2.1
			c0.3-0.3,0.3-0.9,0-1.2c-0.3-0.2-0.6-0.3-1-0.1l-0.3,0.2c-0.2,0.1-0.3,0.2-0.3,0.4l-1.7,1.6c-0.6-0.8-1.2-1.5-1.7-2.3l4.5-3.8
			c0.8-0.7-0.4-1.9-1.2-1.2L32.5,42c-0.6-0.8-1.2-1.6-1.7-2.4c-0.1-0.2-0.3-0.3-0.5-0.3c2.6-3,5.1-5.9,7.8-8.9
			c8.2,6.7,15.9,13.8,23.4,21.3C57.6,55.5,53.3,58.9,48.7,61.7L48.7,61.7z"/>
		<path class="st0" d="M10,5C9.3,4.6,8.4,4.6,7.7,5c-0.4-0.2-0.8,0-1,0.3c0,0,0,0,0,0c-0.8,1.4-0.4,3.1,0.9,4
			c1.2,0.8,3.1,0.8,3.8-0.6S11.1,5.6,10,5z M9.9,8C9.6,8.4,8.7,8.1,8.4,7.8C8.2,7.7,8.1,7.4,8.1,7.2c0.1-0.1,0.2-0.3,0.3-0.5
			C8.4,6.3,9,6.3,9.3,6.5S10.1,7.6,9.9,8z"/>
	</g>
</g>
</svg>
