<?xml version="1.0" encoding="utf-8"?>
<!-- Generator: Adobe Illustrator 20.0.0, SVG Export Plug-In . SVG Version: 6.00 Build 0)  -->
<svg version="1.1" id="Layer_1" xmlns="http://www.w3.org/2000/svg" xmlns:xlink="http://www.w3.org/1999/xlink" x="0px" y="0px"
	 viewBox="0 0 64 64" style="enable-background:new 0 0 64 64;" xml:space="preserve">
<style type="text/css">
	.st0{fill:#2C2B30;}
</style>
<title>Asset 9</title>
<g id="Layer_2">
	<g id="Layer_1-2">
		<path class="st0" d="M55.1,33.8c-1.1-5-3-9.8-5.6-14.2c-0.2-0.4-0.6-0.5-1-0.3c-0.3,0-0.5,0.2-0.6,0.4c-2.2,4.4-3.9,9-5.1,13.8
			c-0.1,0.4,0.2,0.9,0.6,1c0.4,0.1,0.8-0.1,0.9-0.5c0.5-1.9,1-3.7,1.7-5.6l5.7-0.3c0.7,2,1.3,4.1,1.8,6.2
			C53.8,35.3,55.3,34.8,55.1,33.8z M46.7,26.7c0.6-1.7,1.3-3.4,2.1-5c0.9,1.5,1.6,3.1,2.3,4.8L46.7,26.7z"/>
		<path class="st0" d="M61.5,37.3c2-3.6,2.9-7.9,2.3-12c-0.2-1.5-0.6-3.1-1.3-4.5l0.2-11.6c0-0.5-0.4-0.8-0.8-0.8
			c-0.3,0-0.5,0.1-0.6,0.3l-2.9-0.1V5.4c0-0.3-0.2-0.7-0.6-0.8c-0.1-0.1-0.3-0.2-0.4-0.2C49.2,3,36.5,2,31.1,9.8
			c-4.5-7.9-17.7-6-25.1-4C5.7,5.9,5.4,6.1,5.4,6.5c0,0.1-0.1,0.2-0.1,0.3v2.9L1.5,9.5c-0.2,0-0.4,0-0.6,0.2
			c-0.4,0.1-0.6,0.4-0.6,0.8C0.5,25.3,0.6,40.2,0.8,55c-1,0-1,1.6,0,1.6c15,0.5,30-0.2,45-0.4l0.2,2.5c-0.3,0.4-0.3,0.9,0.1,1.2
			c0.1,0.1,0.2,0.1,0.3,0.2c1.3,0.5,2.6,0.5,3.9,0.2c0.4,0.3,0.9,0.2,1.2-0.2c0.1-0.1,0.2-0.3,0.2-0.4l0.2-3.6h0.1
			c3.1-0.3,6.2-0.4,9.3-0.2c0.2,0,0.4,0,0.5-0.1c0.3-0.1,0.5-0.4,0.5-0.7c0-5.6,0-11.3,0-16.9C62,37.7,61.8,37.4,61.5,37.3z
			 M61.1,10.4L61,18c-0.7-1-1.6-1.9-2.5-2.7c0,0,0-0.1,0-0.1l-0.1-5L61.1,10.4z M32,11.8c0-0.1-0.1-0.2-0.1-0.3
			C36.4,3.6,49,4.7,56.7,6l0.1,8.1c-2.1-1.3-4.6-2-7.1-2.1c-0.1,0-0.3,0-0.4,0.1c-6.3-1.2-11.7,2.7-14,8.5c-2.3,5.9-1.8,15.6,3.4,20
			c1.8,1.5,3.9,2.6,6.2,3.2l0.2,3.2c-4.8,0.3-9.5,1.5-12.6,4.6c-0.6-13-1.1-26-0.8-39C31.9,12.5,32.1,12.1,32,11.8z M7,7.2
			c6.9-1.7,19.6-3.7,23.1,4.3c-0.4,13.9,0.2,27.8,0.9,41.7c-4.4-7.3-16.5-6-23.9-4.1C7,35.1,7,21.2,7,7.2z M2.4,55.1L2,11.1l3.4,0.2
			c0,12.8,0,25.6,0,38.4c0,0.1,0,0.2,0.1,0.3c0,0.4,0.3,0.8,0.8,0.8c0.1,0,0.2,0,0.2,0c6.7-1.8,20.1-4,23.6,4.1
			C20.8,55.2,11.6,55.3,2.4,55.1z M32,54.9c2.6-4.4,7.8-6,13.2-6.3l0.4,6C41.1,54.7,36.5,54.8,32,54.9z M50,58.7
			c-0.8,0.2-1.6,0.3-2.4,0.1l-0.1-1.2c0.8,0.2,1.7,0.1,2.5-0.1V58.7z M50.1,55.8c-0.1,0-0.3,0-0.4,0.1c-0.7,0.3-1.6,0.4-2.3,0.1
			l-0.6-8.7c1.2,0.5,2.5,0.6,3.8,0.3L50.1,55.8z M50.6,45.8h-0.2c-1.3,0.4-2.7,0.2-3.8-0.6l-0.1-1c1.4,0.3,2.7,0.3,4.1,0.3
			L50.6,45.8z M51.8,54.4L51.8,54.4l0.3-5.5c1.8,0.2,3.4,0.4,4.9,0.7c0.3,0.1,0.6,0,0.8-0.3c0.3-0.1,0.6-0.4,0.5-0.8l-0.2-7.1
			c0.9-0.7,1.6-1.6,2.3-2.5c0,5.1,0,10.1,0,15.2C57.5,54,54.7,54.1,51.8,54.4L51.8,54.4z M52.2,47.3l0.1-2.9
			c1.5-0.3,2.9-0.8,4.2-1.6l0.1,5.2C55.2,47.6,53.7,47.4,52.2,47.3L52.2,47.3z M49.8,43c-3.6,0-7.1-1.3-9.9-3.5c-3-2.6-3.9-7.2-4-11
			C35.6,21,40.3,12.2,49,13.8c0.2,0,0.4,0,0.6-0.1c0.1,0,0.2,0,0.3,0C66.7,14,66.1,42.9,49.8,43L49.8,43z"/>
		<path class="st0" d="M26.1,19.8c-5-2.5-10.8-2.7-15.9-0.4c-1,0.4-0.1,1.8,0.8,1.4c4.6-2,9.8-1.8,14.3,0.4
			C26.2,21.7,27,20.3,26.1,19.8z"/>
		<path class="st0" d="M26.1,26.9c-5-2.5-10.8-2.7-15.9-0.5c-1,0.4-0.1,1.8,0.8,1.4c4.6-2,9.8-1.8,14.3,0.4
			C26.2,28.8,27,27.4,26.1,26.9z"/>
		<path class="st0" d="M26.1,34c-5-2.5-10.8-2.7-15.9-0.4c-1,0.4-0.1,1.8,0.8,1.4c4.6-2,9.8-1.8,14.3,0.4C26.2,35.9,27,34.5,26.1,34
			z"/>
		<path class="st0" d="M26.1,41.1c-5-2.5-10.8-2.7-15.9-0.4c-1,0.4-0.1,1.8,0.8,1.4c4.6-2,9.8-1.8,14.3,0.4
			C26.2,43,27,41.6,26.1,41.1z"/>
	</g>
</g>
</svg>
