<?xml version="1.0" encoding="utf-8"?>
<!-- Generator: Adobe Illustrator 20.0.0, SVG Export Plug-In . SVG Version: 6.00 Build 0)  -->
<svg version="1.1" id="Layer_1" xmlns="http://www.w3.org/2000/svg" xmlns:xlink="http://www.w3.org/1999/xlink" x="0px" y="0px"
	 viewBox="0 0 64 64" style="enable-background:new 0 0 64 64;" xml:space="preserve">
<style type="text/css">
	.st0{fill:#2C2B30;}
</style>
<title>Asset 21</title>
<g id="Layer_2">
	<g id="Layer_1-2">
		<path class="st0" d="M38.5,9.4L17.2,9.1c-0.1,0-0.2,0-0.3,0c-0.4,0-0.7,0.4-0.7,0.8v10c0,0.1,0,0.3,0.1,0.4
			c0.1,0.3,0.4,0.4,0.7,0.4l21.6-0.1l0,0c0.4,0.2,0.9,0.1,1.1-0.3c0.1-0.1,0.1-0.3,0.1-0.4V10c0-0.5-0.4-0.8-0.9-0.8
			C38.8,9.2,38.7,9.3,38.5,9.4z M17.9,19.1v-8.4L38.3,11v8L17.9,19.1z"/>
		<path class="st0" d="M38.4,24.3l-21.1-0.2c-0.4-0.2-0.9,0-1.1,0.4c0,0.1-0.1,0.2-0.1,0.3v20.5c-0.2,0.3-0.2,0.6,0,0.9l0,0
			c0,0.5,0.4,0.8,0.9,0.8c0.3,0,0.5-0.2,0.7-0.4l20.9,0.3l0,0c0.4,0.2,0.9,0.1,1.1-0.3c0.1-0.1,0.1-0.3,0.1-0.4V24.9
			c0-0.5-0.4-0.8-0.9-0.8C38.7,24.1,38.5,24.2,38.4,24.3z M31,38h-5.7c0.1-1.9,0.2-3.7,0.2-5.6l5.4,0.1L31,38z M30.9,30.8l-5.3-0.1
			c0-1.6,0-3.2-0.1-4.9h5.4L30.9,30.8z M17.7,25.8h6.1c0.1,1.6,0.1,3.2,0.1,4.8l-6.2-0.1L17.7,25.8z M17.7,32.2l6.2,0.1
			c0,1.9-0.1,3.8-0.2,5.7h-6L17.7,32.2z M17.7,39.6h5.9c-0.1,1.8-0.3,3.7-0.5,5.5L17.7,45L17.7,39.6z M24.7,45.2
			c0.2-1.8,0.4-3.7,0.5-5.5h5.8l0.1,5.6L24.7,45.2z M38.2,45.3l-5.4-0.1l-0.2-5.7h5.5L38.2,45.3z M38.2,38l-5.6,0l-0.1-5.5l5.6,0.1
			L38.2,38z M38.2,31l-5.7-0.1c0-1.7,0-3.3-0.1-5h5.7V31z"/>
		<path class="st0" d="M62.9,61.3l-0.8-41.3c0-0.5-0.4-0.8-0.9-0.8c-0.2,0-0.4,0.1-0.6,0.3c-0.4-0.2-0.8,0-1,0.3
			c-3.3,6-9.8,9.1-14.1,14.3c0.1-9.5-0.1-19-0.8-28.4c0-0.2-0.1-0.3-0.2-0.5c0.1-0.4-0.2-0.8-0.6-0.9c-0.1,0-0.1,0-0.2,0l-33-0.1
			l0,0l-3-3.9c0-0.1-0.1-0.1-0.1-0.2C7.4-0.1,6.9-0.1,6.6,0.2c0,0-0.1,0.1-0.1,0.1l0,0l0,0l0,0v0C4.9,2.7,3,4.9,0.9,6.8
			C0.6,7.1,0.5,7.6,0.8,7.9l0.8,51.9c0,0.5,0.4,0.8,0.9,0.8c0.1,0,0.2,0,0.3-0.1c1.8,0.8,3.8,0.8,5.5-0.1c0.1,0,0.1-0.1,0.2-0.1
			C8.7,60.3,9,60,9,59.7l0.7-8.3c0.1,0.2,0.4,0.3,0.6,0.3l19-0.4L18.1,62.1c-0.3,0.3-0.3,0.7-0.1,1c-0.1,0.4,0.2,0.8,0.6,0.9
			c0.1,0,0.1,0,0.2,0l43.8-1.1c0.5,0,0.8-0.4,0.8-0.9C63.3,61.7,63.2,61.5,62.9,61.3z M44.6,50.9c0.5,0,0.8-0.4,0.8-0.9
			c0-0.3-0.2-0.5-0.4-0.7c0,0,0-0.1,0-0.1c0.1-1.2,0.1-2.5,0.2-3.7l0.1-0.1L55.4,35c-0.1,6.9-0.1,13.8-0.2,20.7l-21.9,0.8l5.3-5.1
			c0.1-0.1,0.2-0.2,0.2-0.3L44.6,50.9z M4.8,5.1c1.3,1,3.1,1,4.4-0.1l0,0l1.4,1.8L9,8.9L7.8,7.4C7.6,7.1,7.1,7,6.8,7.3
			c0,0-0.1,0.1-0.1,0.1C6.5,7.5,6.4,7.6,6.3,7.7L4.5,9.8L2.7,7.3C3.4,6.6,4.1,5.9,4.8,5.1z M6.1,51.6c0,0.1,0,0.1,0,0.2
			c-0.2,0-0.4,0-0.6,0c0.1-13.5,0.3-27.1,0.2-40.6c0-0.1,0-0.1,0-0.2l1.5-1.8l1.1,1.5l0.1,0.1C6.7,24.3,5.9,38,6.1,51.6z M2.4,9.7
			l1.2,1.7c0.1,0.2,0.3,0.3,0.5,0.3C4.3,24.8,4.1,38,4,51.1c-0.2-0.1-0.3-0.3-0.5-0.4c-0.1-0.1-0.3-0.2-0.4-0.3
			C2.8,36.8,2.6,23.3,2.4,9.7z M7.4,59c-1.4,0.7-3,0.7-4.3,0c0-1.1,0-2.2,0-3.3c1.4,0.6,3,0.7,4.5,0.2L7.4,59z M7.8,54.1L7.8,54.1
			c-1.6,0.7-3.3,0.6-4.7-0.3v-1.4c1.4,1,3.2,1.2,4.8,0.6L7.8,54.1z M8,51.1c-0.1,0-0.1,0.1-0.2,0.1l0,0c-0.2-13.6,0.6-27.1,2.3-40.6
			c0-0.1,0-0.2,0-0.3l0,0l1.1-1.6L8,51.1z M10.2,50c-0.2,0-0.4,0.1-0.5,0.2l3.1-42.5c0,0,0-0.1,0-0.1c0.1-0.2,0-0.5-0.2-0.7L12,6
			l31.2,0.1c1,14.4,1.1,28.8,0.3,43.2c0,0,0,0,0,0l-11.8,0.2c-0.2-0.1-0.4-0.1-0.6,0L10.2,50z M57,61.4l0.1-1.2
			c0-0.4-0.4-0.8-0.8-0.8c-0.4,0-0.8,0.4-0.8,0.8l-0.1,1.3l-4.9,0.1l0.2-1.4c0-0.4-0.4-0.8-0.8-0.8c-0.4,0-0.8,0.4-0.8,0.8l-0.1,1.4
			l-3.6,0.1c0.1-0.1,0.1-0.2,0.1-0.4v-1.3c0-0.4-0.4-0.8-0.8-0.8s-0.8,0.4-0.8,0.8c0,0,0,0,0,0v1.3c0,0.1,0,0.3,0.1,0.4l-4.9,0.1
			v-1.5c0-0.4-0.4-0.8-0.8-0.8c-0.4,0-0.8,0.4-0.8,0.8v1.6L32.4,62v-1.2c0-0.4-0.4-0.8-0.8-0.8s-0.8,0.4-0.8,0.8l0,0v1.3l-4.2,0.1
			l0.1-1.6c0-0.4-0.4-0.8-0.8-0.8c-0.4,0-0.8,0.4-0.8,0.8l-0.1,1.6l0,0l-4.8,0.1l11.5-11.1l5-0.1l-5.4,5.3c-0.3,0.3-0.3,0.8,0,1
			c0,0,0,0,0,0c0,0.4,0.3,0.8,0.7,0.8c0,0,0.1,0,0.1,0l23.2-0.8c0.1,0.4,0.6,0.7,1,0.6c0.3-0.1,0.6-0.4,0.6-0.7l0.2-23.6
			c0-0.1,0-0.2-0.1-0.3c0.1-0.4-0.1-0.9-0.6-1c-0.3-0.1-0.6,0-0.8,0.2L45.3,43.1c0.1-2.1,0.1-4.1,0.2-6.2c0.1-0.1,0.2-0.1,0.2-0.2
			c4-5.9,10.9-9,14.8-15l0.1,6.1l-1.7-0.1c-0.4,0-0.8,0.4-0.8,0.8c0,0.4,0.4,0.8,0.8,0.8l1.8,0.1l0.1,5.2c-0.1-0.1-0.3-0.1-0.4-0.2
			l-1.4-0.1c-0.4,0-0.8,0.4-0.8,0.8c0,0.4,0.4,0.8,0.8,0.8l1.4,0.1c0.2,0,0.3,0,0.5-0.2c0,1.7,0.1,3.5,0.1,5.2h-2
			c-0.4,0-0.8,0.4-0.8,0.8c0,0.4,0.4,0.8,0.8,0.8h2l0.1,5.4l-2.1,0.3c-0.4,0.1-0.7,0.6-0.6,1c0.1,0.4,0.6,0.7,1,0.6l1.7-0.3l0.1,4.3
			l-1.4,0.1c-0.4,0-0.8,0.4-0.8,0.8c0,0.4,0.4,0.8,0.8,0.8l1.4-0.1l0.1,5.5L57,61.4z"/>
	</g>
</g>
</svg>
