<?xml version="1.0" encoding="utf-8"?>
<!-- Generator: Adobe Illustrator 20.0.0, SVG Export Plug-In . SVG Version: 6.00 Build 0)  -->
<svg version="1.1" id="Layer_1" xmlns="http://www.w3.org/2000/svg" xmlns:xlink="http://www.w3.org/1999/xlink" x="0px" y="0px"
	 viewBox="0 0 64 64" style="enable-background:new 0 0 64 64;" xml:space="preserve">
<style type="text/css">
	.st0{fill:#2C2B30;}
</style>
<title>Asset 53</title>
<g id="Layer_2">
	<g id="Layer_1-2">
		<path class="st0" d="M52.9,42.6c-0.4,0-0.7,0.2-0.7,0.6c-0.3,0.1-0.6,0.2-0.8,0.4l0,0c-1.7-2-3.5-3.9-5.4-5.7l0,0
			c4-5.1,5.6-11.8,4.3-18.2c-1.9-8.1-9-13.8-17.3-14.1c-0.1-0.1-0.3-0.2-0.4-0.2c-0.3-0.2-0.6-0.2-0.9,0c-4.5,0.4-8.8,2.3-12,5.4
			c-2.1-1.6-4-3.4-5.7-5.4c0.3-0.6,0.5-1.2,0.4-1.9c-0.2-2.1-2-3.7-4.1-3.6C9.9,0,9.6,0.2,9.5,0.6C8,1.1,7,2.5,7,4.1
			c0.2,2,2,3.5,4,3.4c0.7-0.1,1.4-0.4,1.9-0.8l1.5,1.5c-3.9,5.4-7,11.2-6.9,18c0.1,6.4,2.8,12.5,7.4,16.9c4.1,3.8,9.5,6,15.1,6.3
			l0.1,7.5c0,0.1,0,0.1,0,0.2c-4.8,0.3-9.5,1.1-14.3,0.9c-0.2,0-0.5,0.1-0.6,0.3l0,0l0,0c-0.1,0.1-0.1,0.2-0.1,0.3
			c0,0.1,0,0.2,0,0.3l0.2,3.7c-0.4,0.2-0.5,0.7-0.3,1.1c0.2,0.3,0.5,0.4,0.8,0.4c5.4,0.2,10.8-0.8,16.3-1c5.4-0.2,10.9,0.1,16.3,0.7
			c0.4,0.1,0.7-0.2,0.8-0.6c0,0,0-0.1,0-0.1c0.1-0.1,0.1-0.3,0.1-0.5L49.1,59c0-0.5-0.3-1-0.8-1.3c-4.9-0.6-9.8-0.8-14.7-0.7
			c0-0.1,0-0.2,0-0.3l0.1-7.4l0,0c5.4-0.6,10.5-3.1,14.3-7c0.7,0.8,1.5,1.6,2.2,2.5c-0.4,0.6-0.6,1.3-0.6,2.1c0.2,2,2,3.5,4,3.4
			c2-0.2,3.5-2,3.4-4C56.8,44.2,55,42.6,52.9,42.6z M11.1,6C9.9,6.2,8.8,5.4,8.6,4.3C8.5,3.1,9.3,2.1,10.5,2c0,0,0.1,0,0.1,0
			c0.2,0,0.4-0.1,0.5-0.2C13,2.4,13.5,5.4,11.1,6z M46.8,33.7L42,33.8c1.1-2.5,1.7-5.1,1.8-7.8h5.3C48.8,28.7,48,31.3,46.8,33.7z
			 M46,35.3c-2.6,4.3-6.8,7.7-11.9,7.9c2.9-2,5.4-4.7,7.1-7.8L46,35.3z M47.9,17.5c0.8,1.9,1.3,3.9,1.3,5.9c0,0.3,0,0.6,0,1h-5.4
			c-0.1-2.3-0.6-4.6-1.5-6.8h5C47.5,17.7,47.7,17.6,47.9,17.5L47.9,17.5z M47.2,16.1h-5.6c-1.8-3.6-4.5-6.6-7.8-8.8
			C39.5,7.8,44.5,11.1,47.2,16.1L47.2,16.1z M32.8,8.5c2.9,1.9,5.3,4.5,7,7.6h-7.1L32.8,8.5z M32.7,17.6h7.9
			c0.9,2.1,1.5,4.4,1.6,6.8l-9.6,0.1L32.7,17.6z M32.5,26.1l9.6-0.1c-0.1,2.7-0.8,5.4-2,7.8l-7.8,0.2L32.5,26.1z M32.4,35.7l6.9-0.2
			c-1.7,2.9-4.1,5.3-7,7C32.3,40.2,32.3,37.9,32.4,35.7z M21.6,26.2c0,2.8,0.6,5.6,1.6,8.2l-7.4,0.2c-1-2.7-1.4-5.5-1.2-8.4
			L21.6,26.2z M14.7,24.7c0.3-2.5,1-4.9,2.1-7.1h0.1h6.2c-0.8,2.3-1.3,4.6-1.4,7L14.7,24.7z M23.9,35.9c1.2,2.5,2.8,4.8,4.8,6.8
			c-3.2-0.6-6.2-1.7-9-3.3c-1.3-0.8-2.4-1.9-3.1-3.3L23.9,35.9z M25.6,35.9l5.2-0.2c0,2.3-0.1,4.5-0.1,6.8
			C28.6,40.6,26.9,38.4,25.6,35.9L25.6,35.9z M24.9,34.3c-1.1-2.6-1.7-5.4-1.7-8.2l7.8-0.1l-0.1,8L24.9,34.3z M23.2,24.6
			c0.1-2.4,0.6-4.8,1.5-7h6.4L31,24.5L23.2,24.6z M25.4,16c1.4-2.9,3.4-5.5,5.9-7.5L31.1,16L25.4,16z M30.4,7.2
			c-2.9,2.4-5.2,5.4-6.7,8.8h-6.1C20.3,11.3,25,8,30.4,7.2z M47.6,59.1l0.1,2.9c-5.2-0.6-10.4-0.8-15.6-0.6c-5.1,0.2-10.1,1-15.2,1
			l-0.2-2.9c5.1,0,10.3-0.9,15.4-1C37.3,58.4,42.4,58.6,47.6,59.1z M32.2,56.9h-0.1h-0.4c0,0,0-0.1,0-0.1l-0.1-7.4h0.6l-0.1,7.3
			C32.1,56.8,32.1,56.9,32.2,56.9z M15.4,41.5c-4.2-4.3-6.5-10-6.4-16c0.1-6.1,3-11.3,6.4-16.1c0.9,1,1.9,1.8,3,2.6
			c-1.7,1.9-3.1,4.1-4,6.6c-2.6,6.8-2.7,17.9,4.3,22.2c3.7,2.1,7.8,3.4,12.1,3.9c0.3,0.2,0.7,0.3,1,0.1c3.9,0.4,7.9-0.9,10.9-3.5
			c0.8-0.7,1.5-1.4,2.2-2.1c0.7,0.7,1.4,1.3,2,2C38.4,49.9,24.3,50.1,15.4,41.5C15.5,41.5,15.4,41.5,15.4,41.5z M53.8,48.6
			c-1.2,0.2-2.3-0.5-2.5-1.7c-0.1-1.1,0.7-2.2,1.8-2.3c0.1,0,0.1,0,0.2,0c0.2,0,0.4-0.1,0.5-0.2C55.7,45.1,56.2,48,53.8,48.6z"/>
	</g>
</g>
</svg>
