<?xml version="1.0" encoding="utf-8"?>
<!-- Generator: Adobe Illustrator 20.0.0, SVG Export Plug-In . SVG Version: 6.00 Build 0)  -->
<svg version="1.1" id="Layer_1" xmlns="http://www.w3.org/2000/svg" xmlns:xlink="http://www.w3.org/1999/xlink" x="0px" y="0px"
	 viewBox="0 0 64 64" style="enable-background:new 0 0 64 64;" xml:space="preserve">
<style type="text/css">
	.st0{fill:#2C2B30;}
</style>
<title>Asset 30</title>
<g id="Layer_2">
	<g id="Layer_1-2">
		<path class="st0" d="M60,53.3c0-0.5-0.4-0.8-0.9-0.8c0,0-0.1,0-0.1,0h-0.2c0-0.1,0.1-0.2,0.1-0.3c0-16.7,0-33.4-0.1-50.1
			c0-0.2-0.1-0.4-0.2-0.6c0-0.2-0.1-0.3-0.2-0.4c-0.8-0.9-2.1-1-3-0.4c-0.3,0.2-0.5,0.6-0.4,0.9c0,0.1,0,0.2,0,0.3v5.4l-4.8,0.2
			C50.1,7.4,50,7.2,49.9,7c-0.8-2.3-3.4-3.5-5.7-2.6c-0.1,0-0.1,0.1-0.2,0.1c-0.4,0.1-0.6,0.5-0.6,0.9c-0.6,0.5-1.1,1.1-1.4,1.9
			l-3.3,0c-0.1,0-0.2,0-0.2,0c0-0.1-0.1-0.2-0.1-0.3c-0.8-2.3-3.4-3.5-5.7-2.6c-0.1,0-0.1,0.1-0.2,0.1c-0.4,0.1-0.6,0.5-0.6,0.9
			c-0.7,0.5-1.2,1.2-1.5,2l0,0l-9.3,0.2C21.1,7.3,21,7.2,20.9,7c-0.8-2.3-3.4-3.5-5.7-2.6c-0.1,0-0.1,0.1-0.2,0.1
			c-0.4,0.1-0.6,0.5-0.6,0.9c-0.7,0.5-1.2,1.2-1.5,2c-1.4-0.1-2.8-0.1-4.1,0.2l0,0c-0.2,0-0.3,0-0.5,0.1L8.2,1.7
			c0.1-0.1,0.2-0.3,0.2-0.5c0-0.5-0.4-0.8-0.8-0.9L5.2,0C5.1,0,5,0,4.9,0C4.5,0,4.1,0.3,4.1,0.7c0,0.1,0,0.1,0,0.2l0.8,52
			c0,0,0,0,0,0.1c-0.4-0.2-0.9,0-1.1,0.4c-0.1,0.1-0.1,0.2-0.1,0.3c0,2.9,0,5.7,0,8.5c0,0.3,0.1,0.6,0.4,0.7
			c0.1,0.4,0.4,0.6,0.8,0.6C23,64,41.1,64.4,59.1,63.1c0.2,0,0.4-0.1,0.5-0.2c0.4-0.1,0.7-0.4,0.6-0.8L60,53.3z M57.1,2.3
			c0,16.7,0,33.3,0.1,49.9c0,0.2,0,0.3,0.1,0.5h-0.7c0-14.7,0-29.3,0-43.9c0.4-0.3,0.4-0.9,0-1.3c0,0,0,0,0,0V2
			C56.8,2,57,2.1,57.1,2.3z M21.5,29.3c1.4-0.4,2.5-1.6,2.9-3l1.8,0.1c0.6,2.2,2.9,3.5,5.1,2.9c1.5-0.4,2.6-1.6,3-3.1h0.2
			c2.4-0.4,4.9-0.5,7.3-0.3h0.1c0,0.1,0,0.1,0,0.2c0.4,2.3,2.6,3.8,4.8,3.4c1.6-0.3,2.9-1.5,3.3-3.1c0.1,0,0.2,0,0.3,0l4.2-0.3
			c0.1,0,0.3-0.1,0.4-0.1c0,5.1,0,10.1,0,15.2l-4.8,0.3c-0.3-2.4-2.5-4-4.8-3.7c-0.4,0.1-0.8,0.2-1.2,0.4c-0.4,0.1-0.6,0.5-0.6,0.9
			c-0.8,0.6-1.4,1.4-1.6,2.4h-0.2h-9.8c0-0.3-0.1-0.5-0.2-0.8c-0.8-2.3-3.4-3.5-5.7-2.6c-0.1,0-0.1,0.1-0.2,0.1
			c-0.4,0.1-0.6,0.5-0.6,0.9c-0.7,0.5-1.2,1.2-1.5,2L21,41c0-0.1-0.1-0.3-0.1-0.4c-0.8-2.3-3.4-3.5-5.7-2.6c-0.1,0-0.1,0.1-0.2,0.1
			c-0.4,0.1-0.6,0.5-0.6,0.9c-0.8,0.6-1.3,1.4-1.6,2.3h-4L8.7,26.8l7.8,0.2h0.1C17.4,28.9,19.5,29.9,21.5,29.3z M20.1,23
			c0.2,0,0.5-0.1,0.6-0.3c0.7,0.1,1.3,0.5,1.7,1.1c0.8,1.2,0.4,2.8-0.8,3.6c0,0-0.1,0-0.1,0.1c-1.2,0.6-2.7,0.2-3.3-1
			c0-0.1-0.1-0.1-0.1-0.2c-0.5-1.2,0.1-2.6,1.3-3.1C19.6,23.1,19.8,23,20.1,23z M30,23c0.2,0,0.5-0.1,0.6-0.3
			c0.7,0.1,1.3,0.5,1.7,1.1c0.8,1.2,0.4,2.8-0.8,3.6c0,0-0.1,0-0.1,0.1c-1.2,0.6-2.7,0.2-3.3-1c0-0.1-0.1-0.1-0.1-0.2
			c-0.5-1.2,0.1-2.6,1.3-3.1C29.4,23.1,29.7,23,30,23z M45.7,23c0.2,0,0.5-0.1,0.6-0.3c0.7,0.1,1.3,0.5,1.7,1.1
			c0.8,1.2,0.4,2.8-0.8,3.6c0,0-0.1,0-0.1,0.1c-1.2,0.7-2.7,0.2-3.3-0.9c0-0.1-0.1-0.2-0.1-0.2c-0.5-1.2,0.1-2.6,1.3-3.1
			C45.2,23.1,45.5,23,45.7,23z M47.1,44.3c-1.2,0.7-2.7,0.3-3.3-0.9c0-0.1-0.1-0.2-0.1-0.3c-0.5-1.2,0.1-2.6,1.3-3.1
			c0.2-0.1,0.5-0.2,0.7-0.2c0.2,0,0.5-0.1,0.6-0.3c0.7,0.1,1.3,0.5,1.7,1.2C48.8,41.8,48.4,43.4,47.1,44.3
			C47.2,44.2,47.2,44.2,47.1,44.3L47.1,44.3z M28.9,44.3c-1.2,0.6-2.7,0.2-3.3-1c0-0.1-0.1-0.1-0.1-0.2c-0.5-1.2,0.1-2.6,1.3-3.1
			c0.2-0.1,0.5-0.2,0.7-0.2c0.2,0,0.5-0.1,0.6-0.3c0.7,0.1,1.3,0.5,1.7,1.2C30.5,41.9,30.2,43.5,28.9,44.3
			C28.9,44.2,28.9,44.2,28.9,44.3L28.9,44.3z M18.1,44.3c-1.2,0.6-2.7,0.2-3.3-1c0-0.1-0.1-0.1-0.1-0.2c-0.5-1.2,0.1-2.6,1.3-3.1
			c0.2-0.1,0.5-0.2,0.7-0.2c0.2,0,0.5-0.1,0.6-0.3c0.7,0.1,1.3,0.5,1.7,1.2C19.8,41.9,19.4,43.5,18.1,44.3
			C18.2,44.2,18.2,44.2,18.1,44.3L18.1,44.3z M12.9,43c0.5,2.2,2.7,3.7,5,3.2c0.1,0,0.2,0,0.3-0.1c1.5-0.5,2.7-1.8,2.9-3.4l2.5,0
			c0,0.1,0,0.1,0,0.2c0.4,2.3,2.6,3.8,4.9,3.4c1.6-0.3,2.9-1.5,3.3-3.1l9.9,0c0.1,0,0.1,0,0.2,0c0.5,2.2,2.7,3.7,5,3.1
			c1.5-0.3,2.8-1.5,3.1-3.1h0.1l4.8-0.3v10c-15.2,0.9-30.5,0.7-45.8,0.3L9,42.9L12.9,43z M45.7,6.2c0.2,0,0.5-0.1,0.6-0.3
			C47.1,6,47.7,6.4,48.1,7c0.8,1.2,0.4,2.8-0.8,3.6c0,0-0.1,0-0.1,0.1c-1.2,0.7-2.6,0.3-3.3-0.9c0-0.1-0.1-0.2-0.1-0.3
			c-0.5-1.2,0.1-2.6,1.3-3.1C45.2,6.3,45.5,6.2,45.7,6.2z M34.1,6.2c0.2,0,0.5-0.1,0.6-0.3C35.5,6,36.1,6.4,36.5,7
			c0.8,1.2,0.4,2.8-0.8,3.6c0,0-0.1,0-0.1,0.1c-1.2,0.6-2.7,0.2-3.3-1c0-0.1-0.1-0.1-0.1-0.2c-0.5-1.2,0.1-2.6,1.3-3.1
			C33.6,6.3,33.9,6.2,34.1,6.2z M16.8,6.2c0.2,0,0.5-0.1,0.6-0.3C18.1,6,18.7,6.4,19.1,7c0.8,1.2,0.4,2.8-0.8,3.6c0,0-0.1,0-0.1,0.1
			c-1.2,0.6-2.7,0.2-3.3-1c0-0.1-0.1-0.1-0.1-0.2c-0.5-1.2,0.1-2.6,1.3-3.1C16.3,6.3,16.5,6.2,16.8,6.2z M9,9.3
			c1.2-0.3,2.5-0.4,3.8-0.2c0,0,0,0.1,0,0.1c0.4,2.3,2.6,3.8,4.9,3.4c1.7-0.3,3-1.6,3.3-3.3l9.2-0.2c0,0,0,0.1,0,0.1
			c0.4,2.3,2.6,3.8,4.8,3.4c0.2,0,0.3-0.1,0.5-0.1c1.6-0.5,2.8-1.8,3-3.5h0.2h3.2c0,0.1,0,0.2,0,0.3c0.4,2.3,2.6,3.8,4.9,3.3
			c1.7-0.3,3-1.6,3.3-3.3L54.9,9c0,5.1,0,10.2,0,15.3c-0.1-0.1-0.3-0.1-0.4-0.1l-4.1,0.3c-0.1,0-0.1,0-0.2,0
			c-0.3-2.4-2.4-4.1-4.8-3.8c-0.4,0.1-0.9,0.2-1.3,0.4c-0.4,0.1-0.6,0.5-0.6,0.9c-0.7,0.5-1.2,1.2-1.5,2h-0.2c-2.5-0.2-5,0-7.5,0.3
			c-0.4-2.3-2.6-3.9-4.9-3.6c-0.4,0.1-0.8,0.2-1.1,0.4c-0.4,0.1-0.6,0.5-0.6,0.9c-0.8,0.6-1.4,1.5-1.6,2.5l-1.6-0.1
			c-0.3-2.4-2.5-4-4.8-3.7c-0.4,0.1-0.8,0.2-1.2,0.4c-0.4,0.1-0.6,0.5-0.6,0.9c-1,0.7-1.6,1.9-1.6,3.1l-7.5-0.1L8.4,9.2
			C8.6,9.3,8.8,9.4,9,9.3z M6.5,1.9L7.4,53H6.6c0-0.1,0-0.1,0-0.2L5.8,1.8L6.5,1.9z M5.4,61.8c0-2.4,0-4.8,0-7.1
			c17.6,0.5,35.3,0.9,52.9-0.4l0.3,7.1C40.9,62.7,23.1,62.3,5.4,61.8z"/>
		<path class="st0" d="M55.4,58.2l-4.2,0.1c-0.5,0.1-0.8,0.5-0.8,0.9c0,0.4,0.4,0.7,0.8,0.8l4.2,0c0.5,0,0.9-0.4,0.9-0.9
			S55.9,58.2,55.4,58.2z"/>
		<path class="st0" d="M9.3,56.4l-1.6-0.2c-0.5-0.1-0.9,0.2-1.1,0.6c-0.1,0.5,0.1,0.9,0.6,1L8.8,58c0.5,0.1,0.9-0.2,1.1-0.6
			C10,57,9.7,56.5,9.3,56.4z"/>
		<path class="st0" d="M14.2,56.9l-2.1-0.2c-0.5,0-0.9,0.4-0.9,0.9l0,0c0,0.5,0.4,0.9,0.9,0.9l2.1,0.2c0.5,0,0.9-0.4,0.9-0.9l0,0
			C15,57.2,14.6,56.9,14.2,56.9z"/>
	</g>
</g>
</svg>
