<?xml version="1.0" encoding="utf-8"?>
<!-- Generator: Adobe Illustrator 20.0.0, SVG Export Plug-In . SVG Version: 6.00 Build 0)  -->
<svg version="1.1" id="Layer_1" xmlns="http://www.w3.org/2000/svg" xmlns:xlink="http://www.w3.org/1999/xlink" x="0px" y="0px"
	 viewBox="0 0 64 64" style="enable-background:new 0 0 64 64;" xml:space="preserve">
<style type="text/css">
	.st0{fill:#2C2B30;}
</style>
<title>Asset 41</title>
<g id="Layer_2">
	<g id="Layer_1-2">
		<path class="st0" d="M63.9,11.8c0-0.4-0.2-0.7-0.6-0.8c-0.1-0.1-0.3-0.1-0.4-0.1h-9.6c0-3.1,0-6.2,0-9.3c0-0.4-0.2-0.7-0.6-0.8
			c-0.2-0.1-0.4-0.2-0.5-0.2L41.9,0.4c-0.5,0-0.9,0.3-0.9,0.8c0,0.1,0,0.1,0,0.2c0,0.1,0,0.2,0,0.2v8l-3.8-7.9
			c-0.2-0.4-0.6-0.6-1-0.4c0,0,0,0,0,0C29.9,0.8,23.7,0.7,17.4,1c-0.1,0-0.3,0.1-0.4,0.1c-0.4,0-0.8,0.2-0.9,0.6
			C9.3,21.2,2.7,40.8,0.3,61.3c-0.4,0.4-0.4,1,0,1.4c0.1,0.1,0.3,0.2,0.5,0.3c5.9,0.6,11.8,0.7,17.7,0.3h0.1
			c0.4,0.6,1.4,0.6,1.6-0.2l2.2-16.1l10.9-0.1L37,61.4c-0.8,0.4-0.3,1.8,0.7,1.7c5.6-0.9,11.5,0.1,17.1,0.5c0.3,0,0.6-0.1,0.7-0.3
			c0.5-0.1,0.8-0.6,0.7-1.1l-5.8-27.7l1.8,0.1c0.3,0,0.7-0.2,0.8-0.5c0.1-0.2,0.2-0.3,0.2-0.5c0-3.1,0-6.2,0-9.4h9.5
			c0.3,0,0.6-0.2,0.8-0.5c0.3-0.2,0.4-0.4,0.4-0.7C64,19.2,63.9,15.5,63.9,11.8z M54.4,61.7c-5.1-0.4-10.4-1.1-15.5-0.6l-4.3-16.3
			c-0.2-0.5-0.7-0.7-1.2-0.6c-0.3,0.1-0.6,0.4-0.6,0.8l-11.3,0.1c-0.5,0-0.9,0.4-0.9,0.9c0,0,0,0.1,0,0.1l0,0l-2.1,15.3l0,0
			c-5.5,0.4-10.9,0.3-16.4-0.1C4.4,41.1,11,21.9,17.6,2.8C23.7,2.5,29.8,2.6,35.8,3l3.8,7.8h-8.4c-0.4-0.3-1-0.1-1.3,0.3
			c-0.1,0.1-0.1,0.3-0.1,0.4l-0.2,11.5c0,0.5,0.4,0.9,0.8,0.9c0.1,0,0.1,0,0.2,0c0.1,0,0.2,0.1,0.4,0.1h10c0,3.1,0,6.2,0,9.3
			c0,0.5,0.4,0.9,0.9,0.9c0.2,0,0.4-0.1,0.5-0.2l6.3,0.2L54.4,61.7z M52.5,22.2L52.5,22.2c-0.5-0.1-1,0.2-1,0.7c0,0.1,0,0.1,0,0.2
			c0,3.2,0,6.3,0,9.5l-8.7-0.3c0-3.1,0-6.1,0-9.2c0-0.5-0.4-0.9-0.9-0.9c-0.1,0-0.3,0-0.4,0.1c-0.1,0-0.2,0-0.3,0h-9.8l0.2-9.6h9.7
			c0.1,0,0.2,0,0.3,0c0.5,0.2,1-0.1,1.1-0.5c0-0.1,0.1-0.2,0.1-0.3c0-3.2,0-6.4,0-9.7l8.8,0.1c0,3.2,0,6.3,0,9.5
			c0,0.5,0.4,0.9,0.9,0.9c0.1,0,0.2,0,0.3,0h9.4l0.1,9.6L52.5,22.2z"/>
	</g>
</g>
</svg>
