<?xml version="1.0" encoding="utf-8"?>
<!-- Generator: Adobe Illustrator 20.0.0, SVG Export Plug-In . SVG Version: 6.00 Build 0)  -->
<svg version="1.1" id="Layer_1" xmlns="http://www.w3.org/2000/svg" xmlns:xlink="http://www.w3.org/1999/xlink" x="0px" y="0px"
	 viewBox="0 0 64 64" style="enable-background:new 0 0 64 64;" xml:space="preserve">
<style type="text/css">
	.st0{fill:#2C2B30;}
</style>
<title>Asset 28</title>
<g id="Layer_2">
	<g id="Layer_1-2">
		<path class="st0" d="M34.5,39.7c-2,0.4-4.1-0.2-5.5-1.7c-1.5-1.6-2.3-4.4-0.8-6.3c0.6-0.8-0.5-2-1.2-1.2c-1.8,2.3-1.4,5.6,0.3,7.9
			c1.8,2.4,4.8,3.5,7.7,2.8C36,41.1,35.5,39.5,34.5,39.7z"/>
		<path class="st0" d="M40.1,38c-0.2-0.4-0.7-0.5-1.1-0.3l-1.5,1.2c-0.4,0.2-0.5,0.7-0.3,1.1c0.2,0.4,0.7,0.5,1.1,0.3l1.5-1.1
			C40.2,38.9,40.3,38.4,40.1,38z"/>
		<path class="st0" d="M57.1,46.3c-0.4-0.1-0.7,0.1-0.9,0.4c-1.2,0.2-2.4,0.7-3.3,1.4l-9.4-8c1.3-1.7,2.1-3.8,2.2-6
			c0.2-6.6-5.3-11.3-11.5-11.7c-0.2,0-0.4,0-0.6,0.2c-0.4-0.1-0.7-0.1-1.1-0.1c0-0.1,0-0.2,0-0.3c-0.8-2.8-1.4-5.5-1.9-8.3
			c2.7-0.8,4.7-3.1,5-6c0.4-4-2.9-7.3-6.6-8c-0.4-0.1-0.7,0.1-0.9,0.4c-3.3,0.5-5.9,3.3-6,6.6c-0.1,3.7,2.8,6.9,6.5,7.1h0.4
			c0.5,2.8,1.2,5.6,2,8.4c-3.1,0.5-5.5,2.9-7,5.8l-10.3-3.5c0.2-0.5,0.3-1,0.4-1.6c0.4-4-2.9-7.3-6.6-8c-0.4-0.1-0.7,0.1-0.9,0.4
			c-3.3,0.5-5.9,3.3-6,6.6c-0.1,3.7,2.8,6.9,6.5,7.1c2.4,0.1,4.7-1.1,6-3.1L23,29.8c-0.6,1.4-0.9,2.9-1,4.4
			c-0.2,3.4,1.1,6.8,3.6,9.1l-8.1,8.1c-1-0.8-2.3-1.3-3.5-1.5c-0.4-0.1-0.7,0.1-0.9,0.4c-3.3,0.5-5.9,3.3-6,6.6
			c-0.1,3.8,2.9,6.9,6.7,6.9c3.5,0.1,6.5-2.5,6.9-6c0.2-2-0.5-3.9-1.9-5.3l8.2-8.1c1.8,1.1,3.9,1.6,6,1.4c3.5-0.4,6.8-1.9,9.4-4.4
			l9.3,8c-0.9,1.1-1.5,2.5-1.5,4c-0.1,3.8,2.9,6.9,6.7,6.9c3.5,0.1,6.5-2.5,6.9-6C64.1,50.2,60.8,47,57.1,46.3z M29,2
			c0.1,0,0.3,0,0.4-0.1c2.1,0.6,3.8,2.2,4.4,4.3c0.6,2.8-1.1,5.6-3.9,6.2c-0.2,0-0.4,0.1-0.6,0.1C22.2,13.1,21.8,2.3,29,2z
			 M7.7,27.6c-7.2,0.7-7.5-10.2-0.4-10.5c0.2,0,0.3,0,0.4-0.1c2.1,0.6,3.8,2.2,4.4,4.3c0.7,2.8-1.1,5.6-3.8,6.2
			C8,27.6,7.9,27.6,7.7,27.6z M18.9,56c0.7,2.8-1.1,5.6-3.9,6.2c-0.2,0-0.4,0.1-0.6,0.1C7.3,63,6.9,52.1,14.1,51.8
			c0.1,0,0.3,0,0.4-0.1c0.8,0.2,1.5,0.6,2.1,1c0.1,0.4,0.4,0.7,0.9,0.8C18.2,54.1,18.6,55,18.9,56z M34.8,43.6
			c-5.7,1.7-10.8-2.1-11.1-8c-0.3-5.3,3.7-13,10-11.3c0.3,0.1,0.6,0,0.8-0.2c4.8,0.5,9.2,4.1,9.4,9.2C44.3,38.8,39.7,42.2,34.8,43.6
			z M57.5,58.7c-7.2,0.7-7.5-10.2-0.4-10.5c0.1,0,0.3,0,0.4-0.1c2.1,0.6,3.8,2.2,4.4,4.3c0.7,2.8-1.1,5.6-3.8,6.2
			C57.9,58.7,57.7,58.7,57.5,58.7z"/>
		<path class="st0" d="M27.7,8.8c-1-0.8-1.2-2.2-0.6-3.3c0.2-0.4,0-0.9-0.4-1.1c-0.3-0.1-0.7,0-1,0.3c-1,1.7-0.7,4,0.8,5.3
			C27.3,10.7,28.5,9.5,27.7,8.8z"/>
		<path class="st0" d="M14.4,59.3c-1.3,0.1-2.4-0.8-2.5-2c0-0.2,0-0.5,0-0.7c0.2-1-1.4-1.5-1.6-0.4c-0.5,2.2,0.9,4.3,3,4.8
			c0.3,0.1,0.7,0.1,1,0.1C15.5,60.9,15.5,59.3,14.4,59.3z"/>
		<path class="st0" d="M57.5,56c-1.3-0.1-2.3-1.3-2.1-2.6c0.1-0.6,0.3-1.1,0.7-1.5c0.7-0.8-0.4-1.9-1.2-1.2c-1.6,1.6-1.6,4.2,0,5.7
			c0.7,0.7,1.6,1.1,2.6,1.2C58.5,57.8,58.5,56.2,57.5,56z"/>
	</g>
</g>
</svg>
