<?xml version="1.0" encoding="utf-8"?>
<!-- Generator: Adobe Illustrator 20.0.0, SVG Export Plug-In . SVG Version: 6.00 Build 0)  -->
<svg version="1.1" id="Layer_1" xmlns="http://www.w3.org/2000/svg" xmlns:xlink="http://www.w3.org/1999/xlink" x="0px" y="0px"
	 viewBox="0 0 64 64" style="enable-background:new 0 0 64 64;" xml:space="preserve">
<style type="text/css">
	.st0{fill:#2C2B30;}
</style>
<title>Asset 19</title>
<g id="Layer_2">
	<g id="Layer_1-2">
		<path class="st0" d="M20.7,22.9c-0.1-0.3-0.4-0.5-0.8-0.4L7.3,22.6H7.3c-0.4-0.3-1-0.1-1.3,0.3c-0.1,0.1-0.1,0.3-0.1,0.5L5.6,38.8
			c0,0.5,0.4,0.9,0.9,0.9c0.2,0,0.4-0.1,0.6-0.3l12,0.1c0.4,0.3,1,0.2,1.3-0.2c0.1-0.1,0.1-0.3,0.2-0.5l0.2-15.4
			C20.8,23.2,20.8,23,20.7,22.9z M7.4,37.6l0.2-13.1L19,24.2c-0.1,4.5-0.1,9-0.2,13.4L7.4,37.6z"/>
		<path class="st0" d="M38.4,22.9c-0.1-0.3-0.4-0.5-0.8-0.4l-12.6,0.2H25c-0.4-0.3-1-0.1-1.3,0.3c-0.1,0.1-0.1,0.3-0.1,0.5
			l-0.2,15.4c0,0.5,0.4,0.9,0.9,0.9c0.2,0,0.5-0.1,0.6-0.3l12,0.1c0.4,0.3,1,0.2,1.3-0.2c0.1-0.1,0.1-0.3,0.2-0.5l0.2-15.4
			C38.6,23.2,38.5,23,38.4,22.9z M25.2,37.6l0.2-13.1l11.4-0.2c-0.1,4.5-0.1,9-0.2,13.4L25.2,37.6z"/>
		<path class="st0" d="M20.7,42.8c-0.1-0.3-0.4-0.5-0.8-0.4L7.3,42.6H7.3c-0.4-0.3-1-0.1-1.3,0.3c-0.1,0.1-0.1,0.3-0.1,0.5L5.6,58.7
			c0,0.5,0.4,0.9,0.9,0.9c0.2,0,0.4-0.1,0.6-0.3l12,0.1c0.4,0.3,1,0.2,1.3-0.2c0.1-0.1,0.1-0.3,0.2-0.5l0.2-15.4
			C20.8,43.2,20.8,43,20.7,42.8z M7.4,57.5l0.2-13.1L19,44.2c-0.1,4.5-0.1,9-0.2,13.5L7.4,57.5z"/>
		<path class="st0" d="M38.4,42.8c-0.1-0.3-0.4-0.5-0.8-0.4l-12.6,0.2H25c-0.4-0.3-1-0.1-1.3,0.3c-0.1,0.1-0.1,0.3-0.1,0.5
			l-0.2,15.4c0,0.5,0.4,0.9,0.9,0.9c0.2,0,0.5-0.1,0.6-0.3l12,0.1c0.4,0.3,1,0.2,1.3-0.2c0.1-0.1,0.1-0.3,0.2-0.5l0.2-15.4
			C38.6,43.2,38.5,43,38.4,42.8z M25.2,57.5l0.2-13.1l11.4-0.2c-0.1,4.5-0.1,9-0.2,13.5L25.2,57.5z"/>
		<path class="st0" d="M56.2,24.1c0.3-0.4,0.2-1-0.2-1.3c-0.1-0.1-0.3-0.2-0.5-0.2l-13.3,0c-0.5,0-0.9,0.4-0.9,0.9
			c0,0.2,0.1,0.3,0.1,0.5c0,0,0,0.1,0,0.1L41.6,58c-0.4,0.4-0.4,0.9,0,1.3c0.2,0.2,0.4,0.3,0.6,0.3h13.3c0.5,0,0.9-0.4,0.9-0.9
			c0-0.2-0.1-0.4-0.2-0.5C56.2,46.8,56.2,35.4,56.2,24.1z M43.2,24.4h11.2c0,11.1,0,22.2,0,33.3h-11C43.3,46.6,43.3,35.5,43.2,24.4
			L43.2,24.4z"/>
		<path class="st0" d="M50,37.9h-2.4c-0.5,0.1-0.9,0.5-0.8,1c0,0.4,0.4,0.8,0.8,0.8H50c0.5-0.1,0.9-0.5,0.8-1
			C50.8,38.2,50.4,37.9,50,37.9z"/>
		<path class="st0" d="M50,41.4h-2.4c-0.5,0.1-0.9,0.5-0.8,1c0,0.4,0.4,0.8,0.8,0.8H50c0.5-0.1,0.9-0.5,0.8-1
			C50.8,41.8,50.4,41.4,50,41.4z"/>
		<path class="st0" d="M16,29.6l-2,0.1l0.1-1.9c0-1.1-1.7-1.1-1.8,0l-0.1,2l-1.3,0.1c-1.1,0.1-1.1,1.9,0,1.8l1.3-0.1l-0.1,2
			c0,1.2,1.7,1.2,1.8,0l0.1-2.1l2-0.1C17.2,31.3,17.2,29.5,16,29.6z"/>
		<path class="st0" d="M33.3,29.9l-5-0.1c-0.5,0.1-0.9,0.5-0.8,1c0,0.4,0.4,0.8,0.8,0.8l5,0.1c0.5-0.1,0.9-0.5,0.8-1
			C34,30.3,33.7,29.9,33.3,29.9z"/>
		<path class="st0" d="M15,48.7l-2,1.9l-1.7-1.9c-0.8-0.9-2,0.4-1.3,1.3l1.6,1.9l-1.8,1.6c-0.9,0.8,0.4,2,1.3,1.3l1.7-1.6l1.6,1.8
			c0.8,0.9,2-0.4,1.3-1.3l-1.6-1.8l2.1-1.9C17.2,49.1,15.9,47.9,15,48.7z"/>
		<path class="st0" d="M34.2,49.7l-5.5-0.1c-0.5,0.1-0.9,0.5-0.8,1c0,0.4,0.4,0.8,0.8,0.8l5.5,0.1c0.5-0.1,0.9-0.5,0.8-1
			C34.9,50,34.6,49.7,34.2,49.7z"/>
		<path class="st0" d="M31.2,46.7c-0.5,0-0.9,0.4-0.9,0.9v0.2c-0.1,0.5,0.3,0.9,0.8,1c0.5,0.1,0.9-0.3,1-0.8c0-0.1,0-0.1,0-0.2v-0.2
			C32.1,47.1,31.7,46.7,31.2,46.7z"/>
		<path class="st0" d="M32,53c-0.4-0.3-0.9-0.3-1.3,0l-0.1,0.1c-0.3,0.4-0.3,0.9,0.1,1.3c0.3,0.3,0.8,0.3,1.2,0l0.1-0.1
			C32.4,53.9,32.4,53.4,32,53z"/>
		<path class="st0" d="M56.5,17.8L56.3,6c0,0,0-0.1,0-0.1c0.3-0.4,0.2-1-0.2-1.3c-0.1-0.1-0.3-0.2-0.5-0.2L7.2,4.8
			C6.7,4.6,6.2,4.9,6,5.4c0,0.1-0.1,0.2-0.1,0.3l-0.4,13c0,0.4,0.3,0.8,0.8,0.9c0,0,0,0,0.1,0c0.1,0.1,0.3,0.1,0.5,0.1l48.7-0.3
			c0.5,0,0.9-0.4,0.9-0.9c0-0.1,0-0.1,0-0.2C56.5,18.1,56.5,17.9,56.5,17.8z M7.7,6.6l46.8-0.3l0.2,11.2L7.4,17.8L7.7,6.6z"/>
		<path class="st0" d="M63,0L1.4,0.4c-0.5,0-0.9,0.4-0.9,0.8c0,0.1,0,0.1,0,0.2C0.3,1.5,0.2,1.8,0.2,2.1c0.2,19.7,0.5,39.5,0.9,59.2
			c0,0.2,0,0.3,0.1,0.5c-0.3,0.4-0.3,1,0.1,1.3c0.2,0.1,0.4,0.2,0.6,0.2l30.4,0.4c9.5,0.1,19.6,1.2,28.9-1.1c0.5-0.3,0.8-0.8,1-1.3
			c0.3-19.7,0.8-39.5,1.3-59.2c0-0.2,0-0.3-0.1-0.5c0.4-0.3,0.5-0.9,0.2-1.3C63.5,0.2,63.2,0,63,0z M61.8,2
			c-0.6,19.6-1,39.2-1.3,58.9c-9.4,2.2-19.7,1-29.3,0.9L2.9,61.5c0-0.1,0-0.1,0-0.2C2.4,41.6,2.1,21.9,2,2.2l59.9-0.4
			C61.8,1.9,61.8,1.9,61.8,2z"/>
	</g>
</g>
</svg>
