<?xml version="1.0" encoding="utf-8"?>
<!-- Generator: Adobe Illustrator 20.0.0, SVG Export Plug-In . SVG Version: 6.00 Build 0)  -->
<svg version="1.1" id="Layer_1" xmlns="http://www.w3.org/2000/svg" xmlns:xlink="http://www.w3.org/1999/xlink" x="0px" y="0px"
	 viewBox="0 0 64 64" style="enable-background:new 0 0 64 64;" xml:space="preserve">
<style type="text/css">
	.st0{fill:#2C2B30;}
</style>
<title>Asset 6</title>
<g id="Layer_2">
	<g id="Layer_1-2">
		<path class="st0" d="M63.4,3.8c0-0.5-0.4-0.8-0.9-0.8c-0.1,0-0.1,0-0.2,0c-0.1-0.1-0.3-0.1-0.5-0.1L50.4,2.6
			c-0.4-0.3-0.9-0.2-1.2,0.2c-0.1,0.1-0.1,0.3-0.1,0.5c0,4.5,0,9.1,0.1,13.6C47.1,10,38.2,8,31.5,9.7c-6.4,1.6-16.1,6.5-16.2,14
			l-1-1.7C10.8,16.4,7,10.9,2.2,6.3C1.9,6,1.4,6.1,1.1,6.4c0,0,0,0-0.1,0.1C0.6,6.3,0.1,6.6,0,7c0,0.1,0,0.1,0,0.2v50.5
			c0,0.4,0.3,0.8,0.8,0.8c0,0,0,0,0.1,0c0.1,0.3,0.4,0.5,0.7,0.5c6-0.5,12-0.6,18-0.4c0,0.7,0,1.4,0.1,2.1c0,0.5,0.5,0.8,1,0.8
			c0.2,0,0.4-0.1,0.6-0.3c12.5-1.9,25.2-2.4,37.9-1.5c0.4,0,0.8-0.3,0.8-0.7c0-0.1,0-0.1,0-0.2c0.5-1.6,0.9-3.3,0.9-5H62
			c0.3,0.1,0.6,0.1,0.8,0c0.5-0.1,0.8-0.5,0.7-1c0-0.2-0.1-0.3-0.2-0.4C64.2,36.2,64.2,20,63.4,3.8z M18.2,19.8l2.2,2.1
			c0.8,0.7,2-0.4,1.2-1.2l-2.2-2.1c-0.1-0.1-0.1-0.1-0.2-0.1c0.9-1,1.9-2,3-2.7c0,0.1,0,0.3,0.1,0.4l1.1,2.1c0.5,1,1.9,0.1,1.4-0.8
			l-1.1-2.1c-0.1-0.2-0.2-0.3-0.3-0.4c1.3-0.8,2.6-1.4,4-2l1.3,2.6c0.5,1,1.9,0.1,1.4-0.8l-1.2-2.4c0.7-0.3,1.4-0.5,2.1-0.7
			c1-0.3,2-0.5,3.1-0.6L34,13.7c-0.1,1.1,1.6,1.1,1.7,0l0.2-2.9c1.1,0,2.2,0,3.3,0.2c0,0.1,0,0.3,0,0.4c0.3,0.8,0.1,1.8-0.5,2.4
			c-0.7,0.8,0.4,2,1.2,1.2c0.9-1,1.3-2.3,1.1-3.6c2.2,0.5,4.1,1.7,5.5,3.4h-0.1l-1.9,1.7c-0.3,0.3-0.3,0.9,0,1.2s0.9,0.3,1.2,0l0,0
			l1.7-1.5c0.6,1.2,0.9,2.6,0.8,4c0,0.5,0.4,0.8,0.8,0.8c0.1,0,0.3,0,0.4-0.1l0.1,15.2c-2.5-1.1-5.1-1.6-7.8-1.6
			c-5.8,0.1-11.3,2.5-15.2,6.7c-2.9-4.6-5.7-9.2-8.5-13.8c0.1-0.2,0.1-0.3,0-0.5C16.7,24.7,16.9,21.9,18.2,19.8L18.2,19.8z
			 M20.1,53.1c-0.1,0.2-0.1,0.3-0.1,0.5c-0.2,1.1-0.3,2.2-0.4,3.3c-6-0.2-12-0.1-18,0.4v-5.2h2.4c0.5,0,0.8-0.4,0.8-0.8
			c0-0.5-0.4-0.8-0.8-0.8H1.7v-6.1l2.4-0.2c1.1-0.1,1.1-1.7,0-1.7l-2.4,0.2V38l2.6,0.3c0.5,0,0.8-0.4,0.8-0.8c0,0,0,0,0,0
			c0-0.5-0.4-0.8-0.8-0.8l-2.6-0.3v-5.4h0.1l2.5-0.2c1.1-0.1,1.1-1.7,0-1.7l-2.5,0.2H1.7v-4.4l4,0.1c1.1,0,1.1-1.6,0-1.7l-4-0.1
			v-3.7c0.1,0.1,0.3,0.1,0.4,0.1h3.2c0.5,0,0.8-0.4,0.8-0.8c0-0.5-0.4-0.8-0.8-0.8H2.1c-0.2,0-0.3,0-0.4,0.1V8.2
			c4.6,4.6,8.3,10,11.7,15.5c3.9,6.2,7.7,12.5,11.6,18.7c0,0.1,0.1,0.1,0.2,0.2C22.7,45.6,20.9,49.3,20.1,53.1L20.1,53.1z M58.4,58
			c-12.4-0.8-24.8-0.3-37.1,1.6c-0.1-1.6,0-3.2,0.3-4.8l1.9,0.7c1,0.4,1.4-1.2,0.4-1.6l-2.1-0.8c0.3-1.4,0.8-2.7,1.3-4
			c0.1,0.1,0.2,0.2,0.3,0.3l2.3,1.1c0.4,0.2,0.9,0.1,1.1-0.3c0.2-0.4,0.1-0.9-0.3-1.1l-2.3-1.1c-0.2-0.1-0.4-0.1-0.5-0.1
			c0.7-1.5,1.6-2.9,2.7-4.2c0,0.1,0.1,0.1,0.1,0.2l2.3,2.5c0.7,0.8,1.9-0.4,1.2-1.2l-2.3-2.5c-0.1-0.1-0.2-0.1-0.3-0.2
			c3-3.3,7.1-5.4,11.5-6l0.2,3c0.1,1,1.8,1,1.7,0l-0.2-3.2h0.1c1.9-0.1,3.9,0.1,5.8,0.6l-0.5,3.5c-0.1,1,1.5,1.5,1.6,0.4l0.5-3.5
			c1.7,0.7,3.3,1.6,4.7,2.7l-1.8,2.5c-0.2,0.4-0.1,0.9,0.3,1.1c0.4,0.2,0.9,0.1,1.1-0.3l1.7-2.2c1.1,1.1,2.1,2.3,2.9,3.7L56.8,45
			l-2.6,1.5c-0.3,0.3-0.4,0.8-0.1,1.2c0.2,0.3,0.6,0.4,0.9,0.3l2.6-1.4l0.1,0c0.5,1.1,0.9,2.3,1.2,3.5h-0.1l-2.3,0.4
			c-0.4,0.1-0.7,0.6-0.6,1c0.1,0.4,0.6,0.7,1,0.6l2.3-0.4C59.3,53.7,59.1,55.9,58.4,58L58.4,58z M61.6,52.1h-0.8
			c-0.5-6.4-4.2-12.1-9.9-15.2c0-0.9,0-1.7,0-2.6c0.2,0.2,0.4,0.3,0.6,0.3l2.7-0.2c1.1-0.1,1.1-1.7,0-1.7L51.6,33
			c-0.3,0-0.5,0.1-0.6,0.3c0-1,0-2.1,0-3.1h2.6c0.5,0,0.8-0.4,0.8-0.8c0-0.5-0.4-0.8-0.8-0.8h-2.6c0-1.4,0-2.8,0-4.3H51l2.9-0.2
			c1.1-0.1,1.1-1.7,0-1.7L51,22.6h-0.1c0-1.6,0-3.2,0-4.7l2.5,0.3c0.5,0,0.8-0.4,0.8-0.8c0-0.5-0.4-0.8-0.8-0.8l-2.5-0.3
			c0-1.8,0-3.6,0-5.4c0.2,0.3,0.6,0.3,0.9,0.1c0.6-0.4,1.3-0.4,1.9,0c0.9,0.6,1.8-0.9,0.8-1.4c-1.1-0.7-2.5-0.7-3.6,0l-0.1,0.1
			c0-1.8,0-3.6,0-5.3l11,0.3C62.6,20.4,62.5,36.3,61.6,52.1L61.6,52.1z"/>
		<path class="st0" d="M41,45.7c-5,0.1-8.3,4.5-9.8,8.8c-0.2,0.4,0,0.8,0.4,1c0.1,0,0.1,0,0.2,0c0.1,0.1,0.3,0.2,0.5,0.2l15.5-0.4
			c0.1,0,0.2,0,0.3-0.1c0.4,0.1,0.9-0.1,1-0.6c0-0.1,0-0.1,0-0.2c0.3-4.5-3.2-8.4-7.7-8.6C41.4,45.7,41.2,45.7,41,45.7z M39.6,47.5
			c4.1-1,7.5,2.1,7.8,6l-14.3,0.4C34.4,51,36.4,48.3,39.6,47.5L39.6,47.5z"/>
		<path class="st0" d="M20,50.4c-4.2-4.9-8.1-10.2-11.5-15.6c-0.6-0.9-2-0.1-1.4,0.8l0.1,0.2l0,0l0.6,14.5c-0.4,0.2-0.6,0.7-0.4,1.1
			c0.1,0.3,0.4,0.4,0.7,0.5l11,0.3c0.3,0,0.5-0.1,0.7-0.3c0.5-0.2,0.7-0.7,0.5-1.2C20.1,50.6,20.1,50.5,20,50.4z M8.9,38.4
			c2.8,4.2,5.8,8.2,9,12l-8.5-0.2L8.9,38.4z"/>
		<path class="st0" d="M38.2,24.4c-0.4-1.3-1.4-2.3-2.6-2.9c-0.1-0.1-0.2-0.2-0.4-0.3c-2.6-0.9-5.5,0.5-6.3,3.1
			c-0.1,0.2-0.1,0.5-0.2,0.7c-0.3,2.8,1.7,5.3,4.4,5.6c0.2,0,0.5,0,0.7,0c2.7-0.2,4.8-2.5,4.6-5.2C38.4,25.2,38.3,24.8,38.2,24.4z
			 M32.3,28.9c-1.6-0.7-2.4-2.5-1.8-4.2c0.3-0.6,0.7-1.2,1.3-1.5c0.2,0.5,0.8,0.6,1.2,0.4c0.1-0.1,0.2-0.1,0.3-0.2
			c0.8-1.1,2.3,0,2.9,0.7c0.5,0.7,0.7,1.5,0.6,2.3c-0.3,1.8-1.9,3-3.7,2.8C32.8,29.1,32.5,29,32.3,28.9z"/>
		<path class="st0" d="M34.4,42l-1.1-2.7c-0.1-0.4-0.6-0.7-1-0.6c-0.4,0.1-0.7,0.6-0.6,1l1,2.7c0.1,0.4,0.6,0.7,1,0.6
			C34.3,42.9,34.5,42.5,34.4,42z"/>
	</g>
</g>
</svg>
