<?xml version="1.0" encoding="utf-8"?>
<!-- Generator: Adobe Illustrator 20.0.0, SVG Export Plug-In . SVG Version: 6.00 Build 0)  -->
<svg version="1.1" id="Layer_1" xmlns="http://www.w3.org/2000/svg" xmlns:xlink="http://www.w3.org/1999/xlink" x="0px" y="0px"
	 viewBox="0 0 64 64" style="enable-background:new 0 0 64 64;" xml:space="preserve">
<style type="text/css">
	.st0{fill:#2C2B30;}
</style>
<title>Asset 2</title>
<g id="Layer_2">
	<g id="Layer_1-2">
		<path class="st0" d="M33.8,20.1c-0.4-0.1-0.9,0.1-1,0.6c0,0.1,0,0.1,0,0.2C29,21,26.1,24.2,26.2,28c0.1,3.4,2.7,6.1,6,6.6
			c3.7,0.1,6.9-2.5,7.4-6.2C40.1,24.5,37.6,21,33.8,20.1z M33,33c-7.3,0.3-7.1-10.7,0.2-10.6c0.4,0,0.7-0.2,0.8-0.6
			c2.5,0.8,4.2,3.1,4.2,5.8C38,30.4,35.8,32.7,33,33z"/>
		<path class="st0" d="M34.1,24.5c-0.1-0.4-0.6-0.7-1-0.6c-0.4,0.1-0.7,0.6-0.6,1c0.2,0.7,0.2,1.5,0,2.3h-2.6
			c-0.5,0-0.8,0.4-0.8,0.8c0,0.5,0.4,0.8,0.8,0.8l3.4,0c0.4,0,0.8-0.4,0.8-0.8c0-0.1,0-0.2-0.1-0.3C34.3,26.7,34.4,25.6,34.1,24.5z"
			/>
		<path class="st0" d="M63.2,60.6l-2,0.1l0.6-28c0,0,0-0.1,0-0.1c0.1-0.4-0.2-0.9-0.6-1c-0.1,0-0.1,0-0.2,0h-0.3l0,0
			c-4.4-3.3-9.2-6.2-14.3-8.6c0-2.1,0-4.1-0.1-6.2c1.9,0.1,3.8,0.2,5.6,0.3c0.3,0,0.6-0.1,0.7-0.4c0.4-0.3,0.4-0.8,0.1-1.2
			c0,0,0,0,0,0C47.4,9.2,40.3,4.9,33.1,0.7c-0.1-0.1-0.2-0.1-0.3-0.1c-0.2-0.1-0.5-0.1-0.7,0.1l-18.8,14c-0.2,0.1-0.3,0.4-0.3,0.6
			c-0.8,0.3-0.3,1.6,0.6,1.5c1.8-0.3,3.7-0.4,5.6-0.6c-0.1,2.3-0.1,4.5-0.1,6.8L4.1,31.5c-0.3,0.2-0.5,0.6-0.3,0.9c0,0,0,0.1,0,0.1
			c0,0.1,0,0.2,0,0.3c0,9.6,0.1,19.2,0.1,28.8c-1,0-2.1-0.1-3.1-0.2s-1,1.6,0,1.6c10.4,0.7,20.8,0.3,31.2,0.3
			c4.3,0,8.6-0.1,12.8-0.2H45c4.9-0.1,9.8-0.3,14.7-0.6c0.2,0.4,0.7,0.5,1.1,0.3c0.2-0.1,0.3-0.2,0.4-0.4l2-0.1
			C64.3,62.2,64.3,60.6,63.2,60.6z M58,31.6l-4-0.1c0-0.3-0.2-0.5-0.4-0.7l-6.8-3.7c-0.1,0-0.1-0.1-0.2-0.1c0-0.7,0-1.4,0-2.1
			C50.5,26.8,54.3,29,58,31.6z M51.3,31.4l-4.7-0.1c0-0.8,0-1.6,0-2.4L51.3,31.4z M46.6,32.9l13.7,0.4l-0.5,19.6l-13.6,0.3
			C46.4,46.4,46.6,39.6,46.6,32.9z M50.5,15.4l-4.3-0.2C46.1,15.1,46.1,15,46,15l2.1-1.9C48.9,13.8,49.7,14.6,50.5,15.4L50.5,15.4z
			 M45,10.4c0.6,0.5,1.3,1,1.9,1.5l-2.7,2.5c-0.2,0.1-0.3,0.4-0.3,0.6l-5.2-0.3l6-4C44.9,10.7,44.9,10.6,45,10.4z M41,7.6
			c0.9,0.6,1.8,1.3,2.7,1.9l-7.6,5.1L36,14.6c-1.8-0.1-3.7-0.1-5.5-0.2c3.6-2,7.1-4.2,10.3-6.7C40.9,7.7,40.9,7.6,41,7.6z M39.6,6.6
			c-3.7,2.8-7.7,5.3-11.8,7.4c-0.2,0.1-0.3,0.2-0.4,0.4c-1.4,0-2.9,0-4.3,0.1l14-9.4C37.9,5.5,38.8,6.1,39.6,6.6z M19,24.9
			c0,0.7,0,1.3,0,2l-7.5,4.4c-0.2,0.1-0.3,0.2-0.4,0.4H7L19,24.9z M19,28.8c0,1,0,1.9,0,2.9h-4.9L19,28.8z M5.4,33.4L19,33.3
			c0,6.4,0.1,12.8,0.4,19.2L5.5,52.8C5.5,46.4,5.4,39.9,5.4,33.4z M5.5,54.5l13.9-0.3c0,0.5,0,1,0,1.5H5.5L5.5,54.5z M5.6,61.6v-4.4
			h14c0.1,1.5,0.1,3,0.2,4.5C15,61.8,10.3,61.8,5.6,61.6L5.6,61.6z M20,14.6c-1.4,0.1-2.9,0.2-4.3,0.4L32.6,2.4l2.9,1.7L20.2,14.4
			C20.1,14.5,20.1,14.5,20,14.6z M28.2,61.6c0.1-0.1,0.1-0.3,0.1-0.4c0.2-4.3,0.1-8.6-0.3-12.9h3.5l0.2,13.3c0,0,0,0.1,0,0.1
			L28.2,61.6z M37.2,61.6h-3.8c0,0,0,0,0-0.1c0-4.4-0.1-8.8-0.1-13.3h4.3c0.2,4.3,0,8.7-0.5,13C37,61.3,37,61.5,37.2,61.6L37.2,61.6
			z M38.6,61.6c0-0.1,0.1-0.2,0.1-0.3c0.5-4.5,0.6-9,0.4-13.6c0-0.1,0-0.1,0-0.2c0-0.4-0.3-0.8-0.7-0.8c0,0-0.1,0-0.1,0H27.3
			c-0.3,0-0.6,0.1-0.7,0.4c-0.2,0.2-0.2,0.4-0.2,0.6c0.5,4.5,0.6,9.1,0.4,13.6c0,0.2,0,0.3,0.1,0.5l-5.4,0.1
			c-0.1-2.6-0.3-5.1-0.4-7.7c0.4-0.2,0.6-0.7,0.3-1.1c-0.1-0.2-0.3-0.3-0.5-0.4c-0.2-6.6-0.4-13.2-0.4-19.7c0-0.2,0-0.3,0-0.5
			c0-2.9,0-5.7,0-8.6c0,0,0-0.1,0-0.1c0-2.5,0-4.9,0.1-7.4c8-0.3,16-0.1,24,0.6c0.4,14.9,0.2,29.9-0.6,44.8L38.6,61.6z M59.6,60.9
			c-4.6,0.3-9.2,0.5-13.8,0.6c0.1-1.3,0.1-2.7,0.2-4l13.7-0.3L59.6,60.9z M59.7,55.5l-13.6,0.3c0-0.3,0-0.7,0-1l13.7-0.3L59.7,55.5
			L59.7,55.5z"/>
		<path class="st0" d="M16.1,40c0-0.4-0.3-0.7-0.7-0.8c-0.1-0.1-0.3-0.2-0.6-0.2l-5.4,0.2c-0.1,0-0.2,0-0.3,0.1
			c-0.4-0.1-0.8,0.2-0.9,0.6c0,0.1,0,0.1,0,0.2l0.2,7c0,0.5,0.4,0.8,0.9,0.8c0.2,0,0.3-0.1,0.4-0.2l5.1,0.1c0.1,0,0.3,0,0.4-0.1
			c0.4,0.1,0.8-0.1,1-0.5c0-0.1,0-0.2,0-0.3L16.1,40z M14.5,40.7l0.1,5.5l-4.5-0.1l-0.1-5.2L14.5,40.7z"/>
		<path class="st0" d="M56.8,40c0-0.4-0.3-0.7-0.7-0.8c-0.1-0.1-0.3-0.2-0.5-0.2l-5.4,0.2c-0.1,0-0.2,0-0.3,0.1
			c-0.4-0.1-0.8,0.2-0.9,0.6c0,0.1,0,0.1,0,0.2l0.2,7c0,0.5,0.4,0.8,0.9,0.8c0.2,0,0.3-0.1,0.4-0.2l5.2,0.1c0.1,0,0.3,0,0.4-0.1
			c0.4,0.1,0.8-0.1,1-0.5c0-0.1,0-0.2,0-0.3L56.8,40z M55.1,40.7l0.1,5.5l-4.5-0.1l-0.1-5.2L55.1,40.7z"/>
	</g>
</g>
</svg>
