<?xml version="1.0" encoding="utf-8"?>
<!-- Generator: Adobe Illustrator 20.0.0, SVG Export Plug-In . SVG Version: 6.00 Build 0)  -->
<svg version="1.1" id="Layer_1" xmlns="http://www.w3.org/2000/svg" xmlns:xlink="http://www.w3.org/1999/xlink" x="0px" y="0px"
	 viewBox="0 0 64 64" style="enable-background:new 0 0 64 64;" xml:space="preserve">
<style type="text/css">
	.st0{fill:#2C2B30;}
</style>
<title>Asset 80</title>
<g id="Layer_2">
	<g id="Layer_1-2">
		<path class="st0" d="M50.5,55.6c-0.2,0-0.5,0.1-0.6,0.3c-0.9,0.1-1.6,0.7-1.8,1.5c-0.4,1.3,0.3,2.6,1.6,3c0.1,0,0.2,0,0.2,0.1
			c1.4,0.3,2.7-0.6,3-2c0.3-1.2-0.4-2.5-1.7-2.8C51,55.6,50.8,55.6,50.5,55.6z M50.3,58.9c-1-0.1-0.7-1.7,0.2-1.3
			c0.2,0.1,0.5,0.1,0.7,0c0.2,0.4,0,1-0.4,1.2C50.6,58.9,50.5,58.9,50.3,58.9L50.3,58.9z"/>
		<path class="st0" d="M55.2,52.6c0-0.4-0.4-0.7-0.8-0.6c0,0,0,0,0,0h-0.2c1.9-4.2,2.6-8.9,2-13.5c-0.3-2-1.3-3.9-2.9-5.2
			c0.1-0.1,0.1-0.3,0.2-0.4C54.3,22.6,54,12.3,52.6,2c0-0.3-0.2-0.5-0.5-0.6c-0.1-0.2-0.4-0.3-0.6-0.4C37.3-0.3,22.9-0.3,8.6,1
			C8.2,1.1,7.8,1.5,7.9,2c0,0.2,0.1,0.3,0.2,0.5c0,0,0,0,0,0.1c-0.5,18.8-1,37.6-0.1,56.4c0,0.3,0.2,0.5,0.4,0.7
			c0.1,0.3,0.4,0.6,0.8,0.6c6.6,0.6,13.3,0.7,19.9,0.2c0,0.5,0.1,1.1,0.2,1.7c-0.1,0.3,0.1,0.7,0.4,0.8h0.1c0.3,0.2,0.6,0.2,0.9,0
			c7.8,1.2,15.7,1.4,23.6,0.6c0.3,0,0.6-0.2,0.7-0.5c0.4,0,0.7-0.4,0.7-0.8l0.1-8.8C55.8,53.1,55.6,52.7,55.2,52.6z M52.4,51.8
			c0,0.1-0.1,0.2-0.1,0.3c-6.3,0.5-12.6,0.8-19,0.9c0-0.3-0.1-0.5-0.3-0.7c-2.6-1.8-4.7-4.2-6.4-6.9c-1.9-3.5-1.6-9.3,3.4-9.8h0
			L30,39.4c0,0.5,0.4,0.8,0.8,0.8s0.8-0.4,0.8-0.8l0.2-9.8l0.1-5.5c0-1.3-0.5-3.6,0-4.8c0.2-0.8,0.6-1.5,1.3-1.9
			c0.9-0.2,1.9,0,2.6,0.7c0.7,1,0.5,2.7,0.5,3.8c0.1,1.6,0,3.3,0,4.9l0.1,10.4c0,0.5,0.4,0.8,0.8,0.8s0.8-0.4,0.8-0.8
			c0-3.3,0-6.6,0-9.9c1.5,0,3,0.1,3.7,1.8c0.2,0.9,0.3,1.7,0.3,2.6c0.1,2,0.2,4.1,0.4,6.1c0.1,1.1,1.8,1.1,1.7,0l-0.3-5.7
			c0-0.5,0-1-0.1-1.5c0.8-0.2,1.7-0.2,2.5,0.1c1.5,0.5,1.5,1.8,1.5,3.1c-0.1,1.7-0.2,3.4-0.2,5.1c0,1.1,1.6,1.1,1.7,0
			c0.1-1.6,0.2-3.2,0.2-4.8v-0.4C57.8,33,54.3,47.8,52.4,51.8z M29.9,53.4c-0.1,0-0.3,0-0.4,0c-4.9,0.7-9.9,0.5-14.7-0.5
			c-0.5-14.5-0.6-29-0.4-43.5l32.4-1.2l0.3,21.1c-1.2-0.4-2.4-0.5-3.7-0.3c-0.1-0.3-0.2-0.6-0.3-0.9c-1-2.1-3.1-2.5-5.1-2.5
			c0-1.6-0.1-3.1-0.1-4.7c-0.1-2.6-1.3-6.2-4.6-5.9c-3.5,0.3-3,4.9-3.1,7.4L30.1,34H30c-4.4,0.4-6.7,4.4-6.1,8.5
			c0.6,4.3,4,7.8,7.3,10.5h-0.6C30.3,53,30.1,53.2,29.9,53.4L29.9,53.4z M29,58.7c-6.4,0.5-12.9,0.4-19.3-0.2
			c-0.9-18.7-0.4-37.3,0.1-56l0,0C23.5,1.4,37.3,1.5,51,2.8c1.3,9.9,1.6,19.8,0.8,29.7c-0.8-0.3-1.6-0.4-2.4-0.3
			c-0.1-0.5-0.3-1-0.6-1.5c-0.1-0.2-0.2-0.3-0.4-0.5c0.2-0.1,0.4-0.4,0.3-0.7L48.5,7.1c0-0.5-0.4-0.8-0.9-0.8
			c-0.2,0-0.5,0.1-0.6,0.3L14.2,7.8c-0.4-0.3-0.9-0.3-1.2,0.1c-0.1,0.1-0.2,0.3-0.2,0.5c-0.2,15.1-0.1,30.2,0.4,45.3
			c0,0.4,0.4,0.8,0.8,0.8H14c5,1,10.2,1.2,15.3,0.5C29.1,56.3,29,57.5,29,58.7L29,58.7z M30.9,61.3c-0.3-2.2-0.3-4.4,0.2-6.5
			c7.6-0.1,15.3-0.4,22.9-1L54,61.8C46.3,62.7,38.5,62.5,30.9,61.3L30.9,61.3z"/>
		<path class="st0" d="M31.9,3.1L27,3.3C26,3.3,26,5,27,5l4.8-0.2C33,4.8,33,3.1,31.9,3.1z"/>
	</g>
</g>
</svg>
