<?xml version="1.0" encoding="utf-8"?>
<!-- Generator: Adobe Illustrator 20.0.0, SVG Export Plug-In . SVG Version: 6.00 Build 0)  -->
<svg version="1.1" id="Layer_1" xmlns="http://www.w3.org/2000/svg" xmlns:xlink="http://www.w3.org/1999/xlink" x="0px" y="0px"
	 viewBox="0 0 64 64" style="enable-background:new 0 0 64 64;" xml:space="preserve">
<style type="text/css">
	.st0{fill:#2C2B30;}
</style>
<title>Asset 24</title>
<g id="Layer_2">
	<g id="Layer_1-2">
		<path class="st0" d="M37.8,31c0-0.1,0-0.1,0-0.2c4.8-0.4,9.5-2.2,11.5-6.8c0.5-1.2,0.8-2.5,0.9-3.8c0.1,0,0.2-0.1,0.3-0.2
			c4.4-3.9,13.3-7,12.2-14.4c-0.3-2.4-1.9-4.4-4.2-5c-3-0.7-5.7,1-8,2.8c0-0.8-0.1-1.5-0.1-2.3c-0.1-0.5-0.7-0.9-1.2-0.8
			c-0.2,0-0.3,0.1-0.4,0.2L14.7,0c-0.5,0-0.9,0.4-0.9,0.8c0,0.1,0,0.2,0,0.2v3C11.7,2.4,9.2,0.7,6.2,1C3.7,1.1,1.6,2.9,1.3,5.4
			C1,8.6,3.6,11.8,5.5,14.1c2.5,2.9,5.4,5.3,8.8,7.2l0.2,0.1c0.2,1.2,0.6,2.3,1.2,3.3c2.4,3.7,6.7,5.1,11.1,5.7c0,0.1,0,0.1,0,0.2
			L27.5,42c-1.5,1.2-3,2.4-4.4,3.7c-0.1,0.1-0.1,0.1-0.1,0.2h-4.3c-0.2,0-0.3,0.1-0.5,0.2c-0.2,0-0.4,0-0.5,0.2L12,50.5
			c-0.1,0.1-0.2,0.2-0.3,0.3c-0.2,0.2-0.3,0.4-0.3,0.7c0.4,3.1,0.4,6.3,0,9.4c-0.1,0.4,0.2,0.8,0.6,0.8c0,0,0,0,0,0
			c-2.4-0.2-4.8-0.4-7.2-0.8c-1.1-0.2-1.1,1.6,0,1.8c17.7,2.4,36,0.6,53.7,0.1c0.5,0,0.9-0.4,0.9-0.9c0-0.5-0.4-0.9-0.9-0.9
			c-2.2,0.1-4.4,0.1-6.6,0.2c0.5-2.8,0.6-5.6,0.2-8.3c0.2-0.3,0.1-0.7-0.1-1l-5.3-6.1c-0.3-0.3-0.7-0.4-1.1-0.1c0,0,0,0,0,0h-5.8
			c0-0.2-0.1-0.4-0.2-0.5c-1-1.3-2.2-2.4-3.5-3.5c0.4-1.7,0.7-3.3,0.9-5C37.3,34.8,37.6,32.9,37.8,31z M50.3,13.9
			c0.1-2.8,0.2-5.6,0.2-8.4c0.1,0,0.2-0.1,0.3-0.2c2.3-2,6.5-5.1,9.2-1.7c1.8,2.3,0.8,5.4-0.9,7.4c-2.4,2.9-5.9,4.5-8.9,6.7
			C50.3,16.5,50.3,15.2,50.3,13.9z M5.3,10.8C3.8,8.7,1.6,5,4.7,3.2c3-1.7,6.2,0.9,8.4,2.6C13.4,6,13.7,6.1,13.9,6l0.1,8.7
			c0,1.5,0,3,0.1,4.5C10.6,17.1,7.6,14.2,5.3,10.8z M38.6,2.2l6.3,0.1l-0.3,13.9l-1.7-1.7c0-0.7-0.9-1.4-1.5-0.7L38.5,17
			C38.9,12.1,39,7.1,38.6,2.2L38.6,2.2z M16.6,22.3c-1.1-3.2-0.7-7.2-0.7-10.6l-0.2-9.9l21.1,0.3c0.5,5.7,0.4,11.5-0.2,17.1
			c-0.1,0.7,0.5,1,1,0.8c0.3,0.1,0.7,0,0.9-0.2l3.4-4l2.6,2.8c0.1,0.3,0.3,0.5,0.6,0.6c0.8,0.8,2-0.5,1.2-1.3l0,0l0.3-15.7h2
			c0.3,5.7,0.2,11.4-0.3,17.1c-0.6,8.3-8.4,10.1-15.4,9.7C27.4,28.7,18.8,28.5,16.6,22.3L16.6,22.3z M45.8,47.5l4.5,5.3
			c0,0.1,0,0.2,0,0.3c0.4,2.6,0.4,5.3-0.2,8c0,0.1,0,0.2,0,0.3c-12.6,0.5-25.3,1.3-37.8,0.3c0.5,0,0.8-0.4,0.9-0.8
			c0.3-3,0.3-6.1,0-9.2l5.4-4.1l0,0l0,0L45.8,47.5z M37.7,45.8l-12,0c1.9-1.7,4-3.2,6.1-4.6C34.1,42.3,36.1,43.9,37.7,45.8z
			 M32.7,39.6c-0.2-0.4-0.6-0.6-1-0.5c-0.1,0-0.1,0.1-0.2,0.1c-0.8,0.5-1.5,1-2.3,1.5l-0.7-10.2l0,0c1.5,0.1,3,0.2,4.4,0.3
			c1,0.1,2,0.1,3,0c0,0,0,0,0,0.1c-0.2,2-0.5,4-0.8,6c-0.2,1.2-0.3,2.5-0.6,3.7C34,40.3,33.3,40,32.7,39.6L32.7,39.6z"/>
		<path class="st0" d="M43,51.6c0-0.1,0-0.1,0-0.2c0-0.5-0.3-0.9-0.8-0.9c0,0,0,0-0.1,0L21,50.2c-0.5,0-0.9,0.4-0.9,0.9
			c0,0.1,0,0.2,0.1,0.3c-0.1,0.1-0.1,0.3-0.1,0.4l0.5,6.1c-0.3,0.4-0.2,1,0.2,1.3c0.1,0.1,0.2,0.1,0.4,0.2c0.3,0.1,0.6,0.1,0.9,0
			l19.9,0.1c0.5-0.1,0.9-0.5,0.8-1c0-0.1-0.1-0.2-0.1-0.4C43.1,55.9,43.2,53.8,43,51.6z M41.3,52.3c0.1,1.8,0,3.6-0.4,5.3l-18.6-0.1
			L21.8,52L41.3,52.3z"/>
	</g>
</g>
</svg>
