<?xml version="1.0" encoding="utf-8"?>
<!-- Generator: Adobe Illustrator 20.0.0, SVG Export Plug-In . SVG Version: 6.00 Build 0)  -->
<svg version="1.1" id="Layer_1" xmlns="http://www.w3.org/2000/svg" xmlns:xlink="http://www.w3.org/1999/xlink" x="0px" y="0px"
	 viewBox="0 0 64 64" style="enable-background:new 0 0 64 64;" xml:space="preserve">
<style type="text/css">
	.st0{fill:#2C2B30;}
</style>
<title>Asset 63</title>
<g id="Layer_2">
	<g id="Layer_1-2">
		<path class="st0" d="M60.8,13.1c0-0.3-0.2-0.6-0.5-0.7c-0.1-0.3-0.4-0.4-0.7-0.4c-7.4,0.4-14.8,0.5-22.3,0.6c0-0.1,0-0.2,0-0.3
			c0-1.4,0-2.9,0-4.3c0-0.3-0.2-0.6-0.4-0.7c0-0.3-0.3-0.6-0.6-0.6c-0.5-0.1-1.1-0.1-1.6-0.2l0,0l-0.1-5.5c0-0.1,0-0.2,0-0.3
			c0-0.4-0.4-0.7-0.8-0.7L29.6,0c-0.2,0-0.4,0-0.5,0.2c-0.3,0.1-0.5,0.4-0.5,0.7c-0.1,2-0.2,4-0.2,6h-1c-0.3,0-0.5,0.1-0.6,0.3
			c-0.2,0.1-0.3,0.4-0.3,0.6l-0.2,4.8c-7.2-0.1-14.3-0.4-21.6-0.5c-0.4,0-0.8,0.3-0.8,0.8c0,0.2,0,0.3,0.1,0.4l0,0
			C3.4,24.5,2.2,36,3.5,47.2C3.5,47.7,4,48,4.5,48c0.1,0,0.2-0.1,0.3-0.1l9.5,0.3c-0.1,0.1-0.2,0.2-0.3,0.4L8.7,61.7
			c-0.2,0.6,0.2,0.9,0.7,1c0.1,0.1,0.2,0.1,0.3,0.2l2.4,0.8c0.2,0.4,0.7,0.5,1.1,0.2c0.4-0.1,0.6-0.6,0.5-1l6.2-13.9
			c0.1-0.3,0.1-0.6-0.1-0.8c3.3,0.1,6.6,0.1,9.9,0.2c0,0,0,0.1,0,0.1l-0.3,9.3c0,0.4,0.3,0.8,0.7,0.8c0,0,0,0,0.1,0
			c0.1,0.2,0.4,0.3,0.6,0.3h3.3c0.5,0,0.8-0.4,0.8-0.9c0-0.2-0.1-0.4-0.3-0.6l0.3-9c0,0,0,0,0-0.1c2.6,0,5.3,0,7.9,0
			c0,0.2,0,0.4,0.2,0.5c3,3.9,5.3,8.2,6.8,12.9c0.1,0.3,0.3,0.5,0.6,0.5c0.3,0.2,0.6,0.2,0.8,0l2.9-1.8c0.1-0.1,0.2-0.1,0.2-0.2
			c0.3-0.2,0.4-0.5,0.3-0.8c0,0,0,0,0,0L50,48.3c3.2-0.1,6.4-0.2,9.6-0.4c0.2,0,0.4-0.1,0.6-0.3c0.3-0.1,0.5-0.4,0.5-0.7
			C61.2,35.6,61.2,24.4,60.8,13.1z M30.2,1.6l2.9,0.1l0.1,4.8l0,0c-0.3,0-0.5,0-0.8,0.1c-0.8,0.1-1.6,0.2-2.3,0.2
			C30,5.1,30,3.4,30.2,1.6z M28.1,8.5c1.1,0.1,2.1,0.1,3.2,0c1.5-0.3,3-0.3,4.5-0.2V9L28,9.6L28.1,8.5z M28,11.3l7.8-0.6v1.7
			c0,0.1,0,0.2,0,0.3c-2.6,0-5.3,0-7.9-0.1L28,11.3z M18.4,48.3L12.3,62l-1.8-0.6l5.1-12.5c0.1-0.3,0.1-0.6-0.2-0.8L18.4,48.3
			L18.4,48.3z M33.3,48.5L33,57.3h-2l0.3-8.8c0,0,0-0.1,0-0.1L33.3,48.5C33.2,48.4,33.3,48.5,33.3,48.5L33.3,48.5z M52.9,59.5
			l-1.8,1.1c-1.5-4.4-3.7-8.5-6.5-12.2l3.7-0.1L52.9,59.5z M59.1,46.3c-18,0.9-36.1,0.5-54.1-0.1C3.9,35.4,5,24.4,5.6,13.6
			c17.9,0.5,35.7,1,53.6,0.1C59.6,24.6,59.6,35.4,59.1,46.3L59.1,46.3z"/>
		<path class="st0" d="M15.9,37.2H14l0.9-13.3c0-0.4-0.4-0.8-0.8-0.8c-0.1,0-0.3,0-0.4,0.1L11,25c-0.9,0.6-0.1,2,0.8,1.4l1.4-0.9
			l-0.8,11.6h-1.5c-0.4,0-0.8,0.4-0.8,0.8c0,0.4,0.4,0.8,0.8,0.8l5.1,0.1c0.5,0,0.8-0.4,0.8-0.8C16.7,37.5,16.4,37.2,15.9,37.2z"/>
		<path class="st0" d="M34.5,37.2h-1.9l0.9-13.3c0-0.4-0.4-0.8-0.8-0.8c-0.1,0-0.3,0-0.4,0.1L29.6,25c-0.9,0.6-0.1,2,0.8,1.4
			l1.4-0.9L31,37.1h-1.5c-0.4,0-0.8,0.4-0.8,0.8c0,0.4,0.4,0.8,0.8,0.8l5.1,0.1c0.5,0,0.8-0.4,0.8-0.8C35.4,37.6,35,37.2,34.5,37.2z
			"/>
		<path class="st0" d="M54.2,36l-4.2-0.3c1.3-2.2,2.5-4.5,3.6-6.8c0.7-1.9,0.8-4-0.8-5.5c-2.8-2.5-6.7-0.2-6.7,3.3
			c0,0.4,0.4,0.8,0.8,0.8c0.4,0,0.8-0.4,0.8-0.8c0-2.7,2.8-3.4,4.4-1.6c1.2,1.3-0.4,3.9-1.1,5.1c-1,1.9-2.1,3.8-3.1,5.7
			c-0.2,0.4-0.1,0.9,0.3,1.1c0.1,0.1,0.2,0.1,0.4,0.1l5.5,0.4C55.3,37.7,55.3,36.1,54.2,36z"/>
		<path class="st0" d="M40.6,29.1h-2.4c-0.4,0-0.8,0.4-0.8,0.8c0,0.4,0.4,0.8,0.8,0.8l0,0h2.4c0.5,0,0.8-0.3,0.8-0.8
			C41.5,29.4,41.1,29,40.6,29.1z"/>
		<path class="st0" d="M41.7,31.5L38,31.9c-1,0.1-1,1.7,0,1.6l3.7-0.4C42.7,33,42.7,31.4,41.7,31.5z"/>
		<path class="st0" d="M24,29.8h-0.9l0.1-1.6c0-1-1.6-1-1.6,0l-0.1,1.6h-1.1c-0.4,0-0.8,0.4-0.8,0.8c0,0.4,0.4,0.8,0.8,0.8l0,0h1
			l-0.1,2c0,1,1.6,1,1.6,0l0.1-2H24c0.4,0,0.8-0.4,0.8-0.8C24.9,30.1,24.5,29.8,24,29.8z"/>
	</g>
</g>
</svg>
