<?xml version="1.0" encoding="utf-8"?>
<!-- Generator: Adobe Illustrator 20.0.0, SVG Export Plug-In . SVG Version: 6.00 Build 0)  -->
<svg version="1.1" id="Layer_1" xmlns="http://www.w3.org/2000/svg" xmlns:xlink="http://www.w3.org/1999/xlink" x="0px" y="0px"
	 viewBox="0 0 64 64" style="enable-background:new 0 0 64 64;" xml:space="preserve">
<style type="text/css">
	.st0{fill:#2C2B30;}
</style>
<title>Asset 51</title>
<g id="Layer_2">
	<g id="Layer_1-2">
		<path class="st0" d="M63.3,30.5c0-0.1-0.1-0.2-0.1-0.2c-4-6.4-7.6-13.5-13.2-18.7c-5.1-4.8-11.4-8-17.6-11.1
			c-0.2-0.4-0.6-0.5-1-0.4l-0.2,0.1h-0.1C17.2,5,6.2,15.7,0.9,29.4c-0.2,0.2-0.4,0.4-0.4,0.7c-0.1,0.1-0.1,0.3-0.1,0.4
			C0.6,41,0.8,51.5,1,62c0,0.5,0.4,0.9,0.8,0.9c0,0,0,0,0,0C2,63,2.2,63.1,2.4,63.1c19.5,1.2,39,1.2,58.5-0.2c0.3,0,0.6-0.2,0.7-0.5
			c0.4-0.1,0.7-0.4,0.7-0.8l1.2-30.5C63.6,30.9,63.5,30.6,63.3,30.5z M31.4,1.9c6.1,3,12.3,6.2,17.3,10.9
			c5.2,4.9,8.7,11.5,12.5,17.6c-4.8,2.5-9.7,4.9-14.6,7c-1.4-4.9-3.3-9.7-5.5-14.3c-0.1-0.4-0.5-0.5-0.9-0.4c-0.2-0.1-0.4-0.1-0.5,0
			l-3.1,1.1L34,20.8c0-0.5-0.5-0.9-1-0.9c-0.1,0-0.3,0-0.4,0.1L8,33.3c-1.8-1-3.6-2.1-5.4-3.3C7.6,16.9,18.2,6.6,31.4,1.9z
			 M39.8,24.5c2.1,4.4,3.8,8.9,5.2,13.5C41,39.8,37,41.3,33,42.7c-0.1,0-0.2,0.1-0.3,0.2c-7.8-1.7-15.3-4.5-22.3-8.2L39.8,24.5z
			 M17,30.5l15.7-8.4l2,2.3L17,30.5z M2.2,31.9c4.9,3.2,10.1,6,15.5,8.2c-0.1,0.1-0.2,0.2-0.3,0.3C13,47.1,8.1,53.6,2.7,59.7
			C2.6,50.4,2.4,41.1,2.2,31.9z M3.6,61.4C9.2,55,14.3,48.3,19,41.2c0.1-0.2,0.2-0.4,0.1-0.6c4.3,1.7,8.7,3,13.2,4
			c0.3,0.1,0.5,0,0.7-0.2c0.1,0,0.3,0,0.4,0c4.3-1.5,8.5-3.2,12.7-5v0.1l12.5,21.8C40.4,62.5,22,62.5,3.6,61.4z M60.6,61L47.8,38.8
			c4.7-2.1,9.4-4.3,13.9-6.7L60.6,61z"/>
		<path class="st0" d="M38.1,32.6c-0.7-1.9-2.7-3-4.7-2.6c0-0.4-0.4-0.8-0.8-0.7c-0.1,0-0.2,0-0.3,0.1c-2.6,0.9-4,3.7-3.1,6.2
			c0,0,0,0,0,0c0.9,2.5,3.7,3.8,6.1,2.9C37.7,37.6,38.9,35,38.1,32.6z M34.5,36.9c-3.2,0.9-4.9-3.2-2.9-5.2c0.3,0.4,0.7,0.5,1.1,0.3
			C36.3,30.2,38.2,35.9,34.5,36.9L34.5,36.9z"/>
		<path class="st0" d="M34.8,33.4c0-0.1,0-0.1,0-0.2c-0.1-0.5-0.6-0.8-1.1-0.7c-0.1,0-0.2,0.1-0.3,0.1l-0.1,0.1
			c-0.2,0-0.5,0.2-0.6,0.4c-0.1,0.1-0.1,0.2-0.1,0.2c0,0-0.1,0.1-0.1,0.2c-0.2,0.4-0.1,1,0.3,1.2l0.1,0c0.1,0.2,0.3,0.3,0.5,0.3
			l0.7,0.2c0.5,0.1,1-0.2,1.1-0.6c0-0.1,0-0.1,0-0.2C35.2,34.1,35,33.7,34.8,33.4z"/>
	</g>
</g>
</svg>
