<?xml version="1.0" encoding="utf-8"?>
<!-- Generator: Adobe Illustrator 20.0.0, SVG Export Plug-In . SVG Version: 6.00 Build 0)  -->
<svg version="1.1" id="Layer_1" xmlns="http://www.w3.org/2000/svg" xmlns:xlink="http://www.w3.org/1999/xlink" x="0px" y="0px"
	 viewBox="0 0 64 64" style="enable-background:new 0 0 64 64;" xml:space="preserve">
<style type="text/css">
	.st0{fill:#2C2B30;}
</style>
<title>Asset 4</title>
<g id="Layer_2">
	<g id="Layer_1-2">
		<path class="st0" d="M48.7,30.2h-6.3l4.7-22c1.3,0.2,0.3,3.5,0.2,3.8l-0.6,2.3l-1.4,5.1c-0.1,0.4,0.2,0.9,0.6,1
			c0.4,0.1,0.9-0.1,1-0.6l1.6-6c0.4-1.4,1.1-3.1,1-4.7c0-1.4-1.1-2.6-2.5-2.7l-0.2-0.1c-0.1-0.1-0.1-0.1-0.2-0.1
			c0.2-0.9,0.4-1.8,0.7-2.6c0.3-0.7,0.3-1.5,0.2-2.2c-0.4-1.1-1.6-1.7-2.8-1.4c-0.3,0.1-0.5,0.3-0.6,0.6l-1.3,4.6
			C42.5,5,42.1,4.9,41.8,5c-0.5,0-0.9,0.3-0.9,0.8c0,0.2,0.1,0.5,0.2,0.6c-0.6,6.3-1.8,12.5-3.4,18.7c0.4-7.7,0.3-15.4-0.4-23.1
			c-0.1-0.4-0.3-0.7-0.7-0.7C36.6,1,36.3,0.8,36,0.8l-4.8,0.3c-0.1,0-0.3,0-0.4,0l0,0c-0.5,0-0.8,0.5-0.8,1c0,0.2,0.1,0.4,0.2,0.5
			l-0.5,23L24.4,2c-0.1-0.4-0.6-0.7-1-0.6c-0.2,0.1-0.4,0.2-0.5,0.4L14.7,4c-0.2,0-0.3,0.2-0.4,0.3c-0.4,0.1-0.7,0.6-0.6,1l5,25
			L15,30.3c-0.5,0-0.8,0.4-0.8,0.9c0,0.2,0.1,0.4,0.3,0.6c2.7,10.3,4.6,20.7,5.7,31.2c0,0.2,0.1,0.5,0.3,0.6
			c0.1,0.2,0.4,0.3,0.6,0.3l21-0.2h0.1c0.3,0.3,0.8,0.4,1.1,0.1c0.1-0.1,0.2-0.3,0.3-0.4l6.6-32.8C50.5,29.6,48.9,29.1,48.7,30.2z
			 M45.5,1.7c0.6,0.2,0.2,1.5,0,2l-0.5,2.2l-0.6-0.2L45.5,1.7z M42.8,7l2.7,0.7c0,0,0,0.1,0,0.1l-4.8,22.3h-2.6
			C40.4,22.6,42,14.8,42.8,7z M35.8,29.8c0,0.1,0,0.2,0,0.3h-0.8c0-0.1,0.1-0.2,0-0.3l-0.2-18.6l1.3,0.1
			C36.4,17.5,36.3,23.7,35.8,29.8z M31.8,2.7l4-0.3c0.1,1.5,0.2,3,0.3,4.4L31.7,7L31.8,2.7z M31.7,8.7l4.5-0.1c0,0.4,0,0.8,0,1.1
			l-4.5-0.4V8.7z M31.7,10.9l1.6,0.2l0.2,18.8c0,0.1,0,0.2,0.1,0.3h-2.3L31.7,10.9z M18.4,20.2l3.2-0.7c1-0.2,0.6-1.8-0.4-1.6
			L18,18.5l-0.3-1.7l3-0.3c1.1-0.1,1.1-1.8,0-1.7l-3.2,0.4h-0.1l-1.9-9.7l7.5-2L29,30c0,0,0,0.1,0,0.1c-2.9,0-5.8,0-8.6,0.1
			l-0.5-2.6l0,0l3.5-0.8c1-0.2,0.6-1.8-0.4-1.6l-3.5,0.8l-0.4-2l2.8-0.1c1.1,0,1.1-1.7,0-1.7L19,22.4c-0.1,0-0.1,0-0.2,0L18.4,20.2z
			 M42.3,62.1L42.3,62.1l-20.4,0.2c0-0.3-0.1-0.7-0.1-1l17.2-0.5c0.5,0,0.8-0.4,0.8-0.8c0-0.5-0.4-0.8-0.8-0.8l-17.4,0.5
			c-1.2-9.3-2.9-18.5-5.3-27.6l3.1,0c0.2,0.1,0.4,0.1,0.6,0c5.6-0.1,11.1-0.1,16.7-0.1c0.2,0.1,0.5,0.1,0.7,0h11L42.3,62.1z"/>
	</g>
</g>
</svg>
