<?xml version="1.0" encoding="utf-8"?>
<!-- Generator: Adobe Illustrator 20.0.0, SVG Export Plug-In . SVG Version: 6.00 Build 0)  -->
<svg version="1.1" id="Layer_1" xmlns="http://www.w3.org/2000/svg" xmlns:xlink="http://www.w3.org/1999/xlink" x="0px" y="0px"
	 viewBox="0 0 64 64" style="enable-background:new 0 0 64 64;" xml:space="preserve">
<style type="text/css">
	.st0{fill:#2C2B30;}
</style>
<title>Asset 75</title>
<g id="Layer_2">
	<g id="Layer_1-2">
		<path class="st0" d="M62.4,47c0-0.3-0.2-0.6-0.5-0.7c0-0.4-0.4-0.6-0.7-0.6c0,0,0,0,0,0H61c1.8-4,2.5-8.4,1.9-12.7
			c-0.3-1.9-1.2-3.6-2.7-4.9c-0.3-0.2-0.6-0.3-0.8-0.5c-0.2-0.1-0.4-0.2-0.6-0.3c-0.7-0.2-1.5-0.3-2.2-0.2c0-0.3-0.1-0.7-0.3-1V26
			c-0.5-0.6-1.2-1.2-1.8-1.6c-0.2-0.1-0.4-0.1-0.7-0.2c-0.2-7.5,0.1-15,0.8-22.5c0.1-0.4-0.2-0.7-0.5-0.8c-0.1-0.4-0.4-0.7-0.8-0.6
			l-28-0.2c-4.8,0-9.6-0.2-14.3-0.1c-2.9,0-6,0.4-8,2.6s-2.1,5.2-2.1,7.9c0,4.5,0.3,9,0.4,13.5l0.8,28c0,0,0,0,0,0.1
			c-0.1,0.3-0.1,0.7-0.1,1c-0.4,6,6.5,6.9,10.9,6.9c8.1,0.1,16.2,0.2,24.4,0.3c0.2,0,0.4,0,0.5-0.2c0,0.3,0.1,0.6,0.2,0.9
			c0.1,0.4,0.5,0.7,1,0.6c0.4-0.1,0.7-0.5,0.6-1c-0.3-1.5-0.4-3.1-0.1-4.7c0,0,0,0,0-0.1c7.1,1.1,14.2,1.3,21.4,0.5
			c0.2,2.2,0.2,4.3-0.2,6.5c-0.2,1,1.3,1.5,1.5,0.5c0.5-2.5,0.6-5.2,0.2-7.7c0.1-0.1,0.1-0.3,0.1-0.4C62.4,52.5,62.4,49.8,62.4,47z
			 M53.6,25.8c1.4,0.5,1.4,1.7,1.4,3c-0.1,1.6-0.2,3.2-0.2,4.8c0,1,1.5,1,1.6,0c0.1-1.5,0.2-3,0.2-4.5v-0.4
			c7.8-0.8,4.5,13.1,2.7,16.9c0,0.1-0.1,0.2-0.1,0.3c-5.9,0.4-11.9,0.7-17.9,0.8c0-0.3-0.1-0.5-0.3-0.7c-2.4-1.7-4.5-4-6-6.5
			c-1.8-3.3-1.4-8.7,3.2-9.2l0,0l-0.1,3.6c0,0.4,0.4,0.8,0.8,0.8c0.4,0,0.8-0.4,0.8-0.8l0.2-9.2l0.1-5.1c0-1.2-0.5-3.4,0-4.5
			c0.2-0.7,0.6-1.4,1.2-1.8c0.9-0.2,1.8,0,2.4,0.7c0.7,0.9,0.4,2.5,0.5,3.6c0,1.5,0,3.1,0,4.6c0,3.3,0,6.5,0,9.8
			c0,0.4,0.4,0.8,0.8,0.8c0.4,0,0.8-0.4,0.8-0.8c0-3.1,0-6.2,0-9.3c1.4,0,2.9,0.1,3.5,1.7c0.2,0.8,0.3,1.6,0.3,2.5
			c0.1,1.9,0.2,3.8,0.3,5.8c0.1,1,1.6,1,1.6,0l-0.3-5.3c0-0.5,0-1-0.1-1.4C51.9,25.6,52.8,25.6,53.6,25.8L53.6,25.8z M11.5,1.6
			c1.5,0,2.9,0.1,4.2,0.1h1.4c-0.8,8.7-1,17.5-0.7,26.3l-1.6-2.1c-0.1-0.2-0.4-0.3-0.6-0.4c-0.3-0.2-0.7-0.2-1,0.1l-2,1.8L11.5,1.6z
			 M13.5,56.5l24.1,0.3c-0.1,0.7-0.1,1.3-0.1,2c-0.1-0.1-0.2-0.1-0.4-0.1l-17.3-0.2c-4.2-0.1-18.5,1.5-16-6.4c2-6.3,11-4.7,16-4.5
			l17.6,0.9v0.1l0,0c-0.1,0.7-0.2,1.4-0.3,2.1l-15.4-0.2c-0.5,0.1-0.8,0.5-0.8,0.9c0,0.4,0.4,0.7,0.8,0.8l15.4,0.2
			c0,0.2,0.1,0.3,0.1,0.5c0,0.4,0,0.8,0,1.2l0,0c0.1,0.3,0.1,0.7,0.2,1l-24.2-0.3c-0.5,0-0.9,0.4-0.8,0.9
			C12.6,56.2,13.1,56.5,13.5,56.5L13.5,56.5z M38.2,46.9h-0.2c-8-0.4-16-1-24-1.2c-3.5-0.1-8,0.7-10.4,3.3L3.1,27.8L2.7,15.7
			C2.6,12.2,1.6,7.1,4,4.1c1.4-1.7,3.6-2.3,5.9-2.4c-0.1,9.3-0.2,18.6-0.3,27.9c0,0.5,0.4,0.8,0.9,0.8c0.3,0,0.6-0.2,0.8-0.5
			l2.6-2.5l2.8,3.8c0.6,0.8,1.9,0.1,1.5-0.7c-0.4-9.6-0.2-19.2,0.6-28.8l9.2,0.1L52.8,2c-0.7,7.4-1,14.7-0.8,22.1
			c-0.3,0-0.7,0-1,0.1c-0.1-0.3-0.2-0.6-0.3-0.9c-0.3-0.6-0.7-1.1-1.2-1.5l0,0c-0.3-0.1-0.5-0.2-0.8-0.4c-0.2-0.1-0.3-0.1-0.5-0.2
			c-0.1,0-0.3-0.1-0.4-0.1c-0.6-0.1-1.3-0.2-1.9-0.2c0-1.4,0-2.8-0.1-4.3c-0.1-0.2-0.1-0.4-0.1-0.5c-0.1-0.7-0.2-1.3-0.3-2
			c-0.6-1.8-1.7-3.4-3.9-3.2c-3.3,0.3-2.9,4.6-2.9,7c-0.1,3.6-0.1,7.2-0.2,10.8h-0.1c-4.1,0.4-6.3,4.1-5.8,8
			c0.4,2.4,1.5,4.6,3.2,6.4c0.1,0,0.2,0.1,0.3,0.2c0.1,0.3,0.5,0.5,0.8,0.8c0.1,0.1,0.3,0.3,0.4,0.5c0.7,0.7,1.5,1.4,2.3,2h-0.6
			C38.6,46.6,38.4,46.7,38.2,46.9z M60.7,55c-7.2,0.8-14.5,0.6-21.7-0.6c-0.3-2-0.2-4.1,0.2-6.2c7.2,0,14.4-0.3,21.6-0.9L60.7,55z"
			/>
	</g>
</g>
</svg>
