<?xml version="1.0" encoding="utf-8"?>
<!-- Generator: Adobe Illustrator 20.0.0, SVG Export Plug-In . SVG Version: 6.00 Build 0)  -->
<svg version="1.1" id="Layer_1" xmlns="http://www.w3.org/2000/svg" xmlns:xlink="http://www.w3.org/1999/xlink" x="0px" y="0px"
	 viewBox="0 0 64 64" style="enable-background:new 0 0 64 64;" xml:space="preserve">
<style type="text/css">
	.st0{fill:#2C2B30;}
</style>
<title>Asset 76</title>
<g id="Layer_2">
	<g id="Layer_1-2">
		<path class="st0" d="M63.1,50c-1.9-4.4-4.2-8.6-7.1-12.5c-0.1-0.1-0.1-0.1-0.2-0.2l2.1-31.5c0-0.3-0.2-0.6-0.5-0.7
			c-0.1-0.1-0.3-0.2-0.5-0.2H6.8c-0.4-0.1-0.9,0.2-1,0.6c0,0.1,0,0.1,0,0.2C5.5,16.4,6.2,27.1,7.9,37.7c0,0,0,0,0,0.1l0,0
			C5.5,42,2.6,46.2,0.7,50.7c-1.2,2.8-1.1,5.9,2,7.2c1.8,0.8,4.1,0.7,6,0.8c2.5,0.1,5,0.2,7.5,0.3c5.5,0.1,11.1,0.2,16.6,0.2
			c5.3,0,10.7-0.1,16-0.3c2.7-0.1,5.3-0.2,8-0.3c1.6,0.1,3.3-0.2,4.8-0.8C64.8,56.1,64.2,52.8,63.1,50z M7.3,6.5h48.9l-2,30.3h-0.2
			c-14.8,1.2-29.7,1.4-44.6,0.5c0,0,0-0.1,0-0.1C7.8,27.1,7.1,16.8,7.3,6.5z M61.8,55.6c-1.1,1.3-3.5,1.1-5,1.2
			c-8,0.4-16,0.6-24,0.7c-7.9,0-15.7-0.1-23.5-0.4c-1.8,0.1-3.6-0.1-5.4-0.5c-3.6-1.2-1.8-5-0.6-7.3c1.9-3.4,3.9-6.8,5.8-10.2
			c15,0.9,30,0.7,45-0.5c0.2,0,0.3-0.1,0.4-0.2c0.1,0.1,0.2,0.1,0.3,0.1c2.1,2.8,3.9,5.9,5.5,9C61.1,49.4,63.7,53.6,61.8,55.6z"/>
		<path class="st0" d="M51.4,33.7c0.1-0.1,0.1-0.2,0.2-0.3c1.4-7.1,1.6-14.3,0.6-21.5c0.3-0.3,0.4-0.9,0.1-1.2
			c-0.1-0.2-0.3-0.3-0.6-0.3C38,9.5,24.2,9.4,10.5,10c-0.4,0-0.8,0.4-0.8,0.8c0,0,0,0,0,0c-0.1,0.1-0.1,0.3-0.1,0.4L11,34.4
			c0,0.5,0.4,0.8,0.9,0.8c0.1,0,0.3-0.1,0.4-0.1c12.8,0.7,25.7,0.8,38.5,0.1c0.5,0,0.8-0.4,0.8-0.9C51.6,34,51.5,33.8,51.4,33.7z
			 M12.6,33.4l-1.3-21.8C24.4,11,37.5,11.1,50.6,12c1,7,0.8,14-0.6,20.9c-0.1,0.2,0,0.5,0.2,0.7C37.6,34.2,25.1,34.2,12.6,33.4
			L12.6,33.4z"/>
		<path class="st0" d="M32.3,22.7l-0.6,0.1c-0.6-2.3-1.6-4.6-3.6-4.8c-1.6-0.1-2.6,1.3-3.2,2.5c-0.5,0.9-0.9,1.7-1.3,2.6L22.7,23
			c-1-0.1-1.5,1.4-0.4,1.6l0.6,0.1c-0.5,1-1,2-1.5,3s0.9,1.7,1.4,0.8c0.6-1.2,1.2-2.4,1.8-3.7c2,0.1,4,0.1,5.9-0.2
			c0.1,0.7,0.2,1.4,0.3,2.2c-0.1,0.2-0.1,0.3,0,0.5l0.1,0.2c0.3,0.8,1.6,0.7,1.6-0.2c0-1-0.1-1.9-0.3-2.9l0.7-0.1
			C33.8,24,33.3,22.5,32.3,22.7z M25.2,23.2c0.4-0.8,0.9-1.6,1.3-2.4c1.6-2.6,3,0.6,3.4,2c0,0.1,0,0.1,0.1,0.2
			C28.4,23.3,26.8,23.3,25.2,23.2z"/>
		<path class="st0" d="M41.1,22.2l-1.8-0.1v-1.6c0-0.4-0.4-0.8-0.8-0.8c-0.4,0-0.8,0.4-0.8,0.8V22l-1.5-0.1c-1-0.1-1,1.5,0,1.6
			l1.5,0.1v1.3c0,0.4,0.4,0.8,0.8,0.8c0.4,0,0.8-0.4,0.8-0.8v-1.2l1.8,0.1C42.1,23.9,42.1,22.3,41.1,22.2z"/>
		<path class="st0" d="M58.9,52.6c0-0.1,0-0.2,0-0.2c-1-3.6-4.1-6.2-4.9-9.9c0-0.2-0.1-0.3-0.3-0.4c-0.1-0.2-0.4-0.3-0.7-0.3
			c-14,0.6-28,0.7-41.9,0.3c-0.4,0-0.8,0.3-0.8,0.7c0,0.1,0,0.1,0,0.2C8,45.8,6,49,4.4,52.5c-0.2,0.5,0,1,0.5,1.2c0,0,0,0,0.1,0
			c0.1,0.3,0.4,0.5,0.7,0.5c17.5,1,35.1,0.9,52.7-0.2c0.5,0,0.8-0.4,0.8-0.9C59.1,52.9,59.1,52.7,58.9,52.6z M54.6,47.5
			c-1.4,0.1-2.9,0.1-4.3,0.2c-1.4-1.3-2.7-2.7-4-4.1c2.1-0.1,4.2-0.1,6.3-0.2C53,44.8,53.7,46.2,54.6,47.5L54.6,47.5z M45,43.6
			c-0.2,0.3-0.2,0.7,0.1,1c1,1.1,2,2.1,3,3.1c-1.5,0-3,0.1-4.5,0.1c-1.2-1.3-2.3-2.7-3.3-4.1L45,43.6z M28.5,44c0-0.1,0-0.1,0-0.2h4
			c0,0,0,0.1,0,0.1l1.3,4c-2,0-4,0-6-0.1L28.5,44z M11.9,43.6l2.9,0.1l-2.2,3.5L9.3,47C10.1,45.9,11,44.7,11.9,43.6L11.9,43.6z
			 M6.2,52.6c0.6-1.4,1.3-2.7,2.1-4l3.3,0.2l-2.5,4L6.2,52.6z M17.3,53.1c-2.1-0.1-4.2-0.1-6.3-0.2l2.4-4c1.6,0.1,3.2,0.2,4.8,0.2
			L17.3,53.1z M14.5,47.3l2.2-3.5c0,0,0.1-0.1,0.1-0.1h2.9l-0.9,3.8L14.5,47.3z M25,53.2c-2,0-4.1,0-6.1-0.1l1-3.9
			c2,0.1,4,0.1,5.9,0.2L25,53.2z M20.2,47.6l0.9-3.5c0-0.1,0-0.2,0-0.3c1.9,0,3.9,0,5.8,0l-0.8,4C24.2,47.8,22.2,47.7,20.2,47.6
			L20.2,47.6z M26.6,53.2l0.8-3.8c2.3,0,4.6,0.1,6.9,0.1l1.2,3.7C32.5,53.3,29.6,53.3,26.6,53.2L26.6,53.2z M34.2,43.8l4.3-0.1
			c-0.1,0.2,0,0.4,0.1,0.6c0.9,1.2,1.8,2.4,2.8,3.5c-2,0-4,0-6,0L34.2,43.8z M37.1,53.2c0,0,0-0.1,0-0.1L36,49.5
			c2.3,0,4.5,0,6.8-0.1l3,3.4l0.1,0.1C42.9,53.1,40,53.2,37.1,53.2L37.1,53.2z M46.9,51.8l-2-2.3c1.6,0,3.2-0.1,4.8-0.1l3.5,3.4
			c-2.1,0.1-4.3,0.2-6.4,0.3C47.2,52.7,47.2,52.1,46.9,51.8C46.9,51.8,46.9,51.8,46.9,51.8L46.9,51.8z M54.7,52.6
			c0.2-0.3,0.1-0.7-0.2-0.9l-2.6-2.5l3-0.1c0.2,0,0.4-0.1,0.6-0.3c0.8,1.1,1.4,2.4,1.8,3.7L54.7,52.6z"/>
	</g>
</g>
</svg>
