<?xml version="1.0" encoding="utf-8"?>
<!-- Generator: Adobe Illustrator 20.0.0, SVG Export Plug-In . SVG Version: 6.00 Build 0)  -->
<svg version="1.1" id="Layer_1" xmlns="http://www.w3.org/2000/svg" xmlns:xlink="http://www.w3.org/1999/xlink" x="0px" y="0px"
	 viewBox="0 0 64 64" style="enable-background:new 0 0 64 64;" xml:space="preserve">
<style type="text/css">
	.st0{fill:#2C2B30;}
</style>
<title>Asset 68</title>
<g id="Layer_2">
	<g id="Layer_1-2">
		<path class="st0" d="M63.4,10.4c0.1-0.3,0.1-0.6,0-0.9l-0.1-7.4c0.3-0.4,0.3-1-0.1-1.3c-0.2-0.1-0.4-0.2-0.6-0.2L1.4,1.2
			c-0.5,0-0.9,0.4-0.9,0.9c0,0.2,0.1,0.4,0.2,0.6C-0.6,22.4,0.3,42.3,0.4,62c0,0.1,0,0.2,0.1,0.3c0,0.5,0.3,0.9,0.8,0.9
			c0,0,0.1,0,0.1,0l61.3-0.5h0.1c0.4,0.2,1,0.1,1.2-0.4C64,62.3,64,62.2,64,62L63.4,10.4z M2.5,3l59-0.5l0.1,6.6L2.1,9.6
			C2.2,7.4,2.3,5.2,2.5,3z M2.1,11.4l59.5-0.5C61.8,27.6,62,44.3,62.2,61L2.2,61.5C2.1,44.8,1.5,28.1,2.1,11.4L2.1,11.4z"/>
		<path class="st0" d="M12.6,5.5c-2.1-0.4-4.3-0.4-6.5,0C5,5.6,5.5,7.4,6.7,7.2c1.8-0.3,3.7-0.3,5.5,0C13.3,7.4,13.8,5.7,12.6,5.5z"
			/>
		<path class="st0" d="M23.1,5.5c-2.1-0.4-4.3-0.4-6.5,0c-1.1,0.2-0.7,1.9,0.5,1.8c1.8-0.3,3.7-0.3,5.5,0
			C23.7,7.4,24.2,5.7,23.1,5.5z"/>
		<path class="st0" d="M48.9,30.1c-0.4-1.4-0.9-2.8-1.7-4.1c-0.1-0.1-0.1-0.2-0.2-0.3c-3.7-5.8-10.8-8.5-17.8-8.4
			c-0.2-0.2-0.5-0.3-0.8-0.2C14,21,9.3,40.4,21.7,49.7c2.9,2.2,6.5,3.4,10.1,3.3c0.3,0.2,0.7,0.1,1-0.1C43,52.1,51.8,41.3,48.9,30.1
			z M45.8,27.2c1.1,1.9,1.7,4,1.8,6.1c0,0,0,0,0,0.1l-4.7,0.2c-0.3-2.2-1-4.3-2.1-6.3L45.8,27.2z M39.6,42.7l-6.5,0v-6.9l8.1-0.3
			C41.4,38,40.9,40.5,39.6,42.7z M33.1,27.4l5.7-0.1c1.1,2,1.9,4.1,2.3,6.3l-8,0.3L33.1,27.4z M44.6,25.4l-4.8,0.1
			c-1.4-2.1-3-4-4.8-5.8C38.7,20.5,42.1,22.5,44.6,25.4L44.6,25.4z M37.7,25.5l-4.5,0.1v-5.1C34.8,22,36.3,23.7,37.7,25.5L37.7,25.5
			z M31.3,42.6h-5.7c-0.9-2.1-1.4-4.3-1.5-6.5l7.1-0.2C31.3,38.1,31.3,40.3,31.3,42.6z M31.3,34l-7.1,0.2c0.1-2.3,0.6-4.6,1.5-6.7
			l5.6-0.1C31.3,29.6,31.3,31.8,31.3,34L31.3,34z M31.3,20c0,1.9,0,3.7,0,5.6l-4.8,0C27.8,23.5,29.4,21.6,31.3,20L31.3,20z M28.3,19
			c0.1,0.1,0.3,0.1,0.4,0.1h0.9c-2.1,1.9-3.9,4.1-5.1,6.6l-5.5,0.1C21.3,22.5,24.6,20.1,28.3,19z M18,27.7l5.8-0.1
			c-0.8,2.1-1.3,4.4-1.4,6.7l-6.2,0.2C16.3,32.1,16.9,29.8,18,27.7z M16.3,36.3l6.1-0.2c0.1,2.2,0.6,4.4,1.3,6.5H18l0,0
			C17,40.6,16.5,38.5,16.3,36.3L16.3,36.3z M19.1,44.4h5.4c1.2,2.5,3,4.8,5.1,6.7C25.3,50.4,21.5,47.9,19.1,44.4L19.1,44.4z
			 M26.5,44.4h4.8c0,1.9,0,3.8,0,5.7C29.4,48.6,27.7,46.6,26.5,44.4L26.5,44.4z M33.2,44.5h5.3c-1.5,2-3.3,3.7-5.3,5.2L33.2,44.5z
			 M34.5,50.9c2.4-1.8,4.5-4,6.2-6.4h3.7C42,47.8,38.5,50.1,34.5,50.9L34.5,50.9z M45.5,42.7h-3.8c1-2,1.5-4.2,1.4-6.4
			c0-0.3,0-0.6,0-0.8l4.5-0.1C47.5,37.9,46.7,40.4,45.5,42.7L45.5,42.7z"/>
		<path class="st0" d="M13,13.9L5.9,14C5.4,14,5,14.4,5,14.9c0,0.5,0.4,0.9,0.9,0.9l7.1-0.1c0.5,0,0.9-0.4,0.9-0.9
			C13.9,14.3,13.5,13.9,13,13.9z"/>
		<path class="st0" d="M18.6,17.8L5.5,18.1c-0.5,0-0.9,0.4-0.9,0.9c0,0.5,0.4,0.9,0.9,0.9l13.2-0.3c0.5,0,0.9-0.4,0.9-0.9
			S19.1,17.8,18.6,17.8z"/>
		<path class="st0" d="M54.4,51.3L46,51.7c-1.2,0-1.2,1.9,0,1.8l8.4-0.3C55.6,53.1,55.6,51.3,54.4,51.3z"/>
		<path class="st0" d="M59.5,56.2l-14.3,0.3c-0.5,0-0.9,0.4-0.9,0.9c0,0.5,0.4,0.9,0.9,0.9L59.5,58c0.5,0,0.9-0.4,0.9-0.9
			C60.4,56.6,60,56.2,59.5,56.2z"/>
	</g>
</g>
</svg>
