<?xml version="1.0" encoding="utf-8"?>
<!-- Generator: Adobe Illustrator 20.0.0, SVG Export Plug-In . SVG Version: 6.00 Build 0)  -->
<svg version="1.1" id="Layer_1" xmlns="http://www.w3.org/2000/svg" xmlns:xlink="http://www.w3.org/1999/xlink" x="0px" y="0px"
	 viewBox="0 0 64 64" style="enable-background:new 0 0 64 64;" xml:space="preserve">
<style type="text/css">
	.st0{fill:#2C2B30;}
</style>
<title>Asset 3</title>
<g id="Layer_2">
	<g id="Layer_1-2">
		<path class="st0" d="M23.5,21.5c-0.1-2.1-0.8-4.9-3.4-4.8s-3.2,2.9-3.2,5c-0.3,0.4-0.1,1,0.3,1.3c0.1,0.1,0.3,0.1,0.4,0.1l5.5,0.1
			c0.5,0,0.9-0.5,0.8-1C24,22,23.8,21.7,23.5,21.5z M20.2,18.6c1.4-0.2,1.5,1.8,1.6,2.9h-2.9C18.8,20.3,19,18.7,20.2,18.6z"/>
		<path class="st0" d="M39.3,25c-0.4,0.1-0.7,0.6-0.6,1c0,1.3,0,2.7-0.1,4l0,0c-1.2-0.2-1.7,1.6-0.5,1.8l0.7,0.1
			c0.4,0.4,1,0.4,1.4,0.1c2.1,0,4.4-0.8,4.7-3.2C45.3,25.6,41.9,24.1,39.3,25z M43,28.8c-0.5,1-1.5,1.5-2.5,1.4l0.1-3.6
			c0.6-0.1,1.2,0,1.7,0.2C42.9,27.2,43.2,28,43,28.8L43,28.8z"/>
		<path class="st0" d="M41.6,49.7c-0.4,0.2-0.7,0.6-0.6,1c0,1.3,0,2.7-0.1,4l0,0c-1.2-0.2-1.7,1.6-0.5,1.8l0.7,0.1
			c0.4,0.4,1,0.4,1.4,0.1c2.1,0,4.4-0.8,4.7-3.2C47.6,50.3,44.2,48.8,41.6,49.7z M45.3,53.5c-0.5,1-1.5,1.5-2.5,1.4l0.1-3.6
			c0.6-0.1,1.2,0,1.7,0.2C45.2,51.9,45.5,52.7,45.3,53.5z"/>
		<path class="st0" d="M40.6,9C40.2,9.2,39.9,9.6,40,10c0,1.3,0,2.7-0.1,4l0,0c-1.2-0.2-1.7,1.6-0.5,1.8l0.7,0.1
			c0.4,0.4,1,0.4,1.4,0.1c2.1,0,4.4-0.8,4.7-3.2C46.6,9.6,43.2,8.1,40.6,9z M44.3,12.8c-0.5,1-1.5,1.5-2.5,1.4l0.1-3.6
			c0.6-0.1,1.2,0,1.7,0.2C44.2,11.2,44.5,12,44.3,12.8L44.3,12.8z"/>
		<path class="st0" d="M53.8,33c1.4-1.2,2.5-2.7,3.3-4.3c2.4-5.5-1.3-12.1-6.6-12.4c2.9-3.1,3.2-7.9,0.8-11.4
			C47-1.5,38.3-0.2,32,1.6c-0.3,0.1-0.6,0.4-0.6,0.7c-0.1,0.2-0.2,0.3-0.2,0.5L31,20.7c-0.4-2.2-0.9-4.4-1.5-6.6
			C28.3,9.1,27.3,2.6,22,0.1c-0.3-0.1-0.6-0.1-0.9,0c-0.2-0.1-0.5,0-0.7,0.1c-5,2.8-6.5,8.2-8.2,13.3L6,33.1c-0.1,0.4,0,0.8,0.4,1
			c0.2,0.3,0.4,0.4,0.7,0.4l8.5,0.1c0.1,0,0.2,0,0.3,0c0.4,0.1,0.8-0.1,1-0.5c0,0,0-0.1,0-0.1l1-5.8l4.9-0.2l0.7,5.6
			c0,0.1,0,0.2,0.1,0.3c-8.8,0.1-18.3,7.7-18.7,16.4c-0.2,5.3,3.4,9.7,7.9,11.9c6.4,3.1,13.6,1.6,20.1-0.2c0.5-0.2,0.8-0.7,0.6-1.2
			c0-0.1-0.1-0.3-0.2-0.4l-0.2-6.3c0-0.2-0.1-0.4-0.2-0.5c0-0.5-0.5-0.8-0.9-0.8c-0.1,0-0.1,0-0.2,0c-4,1.3-11.8,3.2-13.1-2.9
			c-0.4-2.5,0.8-5,3-6.1c2.7-1.4,5.8-0.7,8.1,1.2c0.2,0.5,0.7,0.7,1.2,0.5c0.3-0.1,0.5-0.3,0.5-0.6c0.7-2.7,0.8-5.4,0.4-8.1
			c0-0.4-0.3-0.7-0.7-0.7c-0.9-0.6-1.8-1.1-2.8-1.5l3-0.1c0.5,0.3,1.1,0.2,1.4-0.3c0.1-0.1,0.1-0.2,0.1-0.3l1.3,0.4
			c0,0.1-0.1,0.2-0.1,0.3c0,9,0,18.1,0,27.1c0,0.5,0.5,0.9,1,0.9c0.3,0,0.6-0.2,0.8-0.5c8.4,0.1,16.9-1.1,21.2-9.3
			C60.7,46.2,59.2,38.1,53.8,33z M30.3,37.7c0.2,1.8,0.2,3.6-0.1,5.4c-4.9-2.9-12.4-1.8-13.3,4.9c-0.4,3,1.2,5.9,3.9,7.2
			c3.4,1.7,7.1,0.9,10.6-0.2l0.2,5.5c-5.1,1.5-10.8,2.6-16,0.9c-4.4-1.5-8.5-5.1-8.8-10C6.2,40.7,21.5,31.6,30.3,37.7z M30.7,32.8
			L25.2,33l-0.7-5.1c0-0.2-0.1-0.3-0.2-0.4c0.2-0.4,0-1-0.4-1.2c-0.1-0.1-0.2-0.1-0.4-0.1l-6.6,0.2c-0.5,0.1-0.9,0.6-0.9,1.1
			c0,0.1,0,0.2,0.1,0.3l-0.9,5L8,32.7L13,17.3c1.8-5.4,3-12.4,8.4-15.5c5,2.6,5.8,10.1,7,15c1.2,5,2,10.1,2.7,15.3
			C30.8,32.3,30.7,32.5,30.7,32.8z M33.1,32.2c-0.1,0-0.2,0-0.3,0c-0.2-1.3-0.3-2.7-0.5-4c0.3-0.1,0.5-0.5,0.5-0.8
			c0.1-8.1,0.2-16.1,0.3-24.1c4.7-1.3,10.1-2.4,14.4,0.5C51,6,52,10.8,49.7,14.3c-0.9,1.4-2.3,2.5-3.9,3.1c-1,0.4-0.7,1.8,0.2,1.8
			c0.3,0.2,0.7,0.2,0.9,0c2.7-1.8,6.3-1.1,8,1.6c0.3,0.5,0.6,1,0.7,1.5c1.2,3.6-0.6,7.2-3.4,9.3C46.6,35.9,39.2,34.1,33.1,32.2z
			 M55.3,52.8c-4.2,7-11.7,7.8-19.2,7.6c0-8.5,0-17,0-25.5c5.4,1.3,11.6,1.7,16.1-0.9l0,0C57.6,38.8,58.8,46.6,55.3,52.8L55.3,52.8z
			"/>
	</g>
</g>
</svg>
