<?xml version="1.0" encoding="utf-8"?>
<!-- Generator: Adobe Illustrator 20.0.0, SVG Export Plug-In . SVG Version: 6.00 Build 0)  -->
<svg version="1.1" id="Layer_1" xmlns="http://www.w3.org/2000/svg" xmlns:xlink="http://www.w3.org/1999/xlink" x="0px" y="0px"
	 viewBox="0 0 64 64" style="enable-background:new 0 0 64 64;" xml:space="preserve">
<style type="text/css">
	.st0{fill:#2C2B30;}
</style>
<title>Asset 35</title>
<g id="Layer_2">
	<g id="Layer_1-2">
		<path class="st0" d="M59.1,45c1.5-1.2,1.5-3,0.9-4.6c-0.1-0.2-0.1-0.3-0.2-0.4l-0.1-0.1c0-0.1-0.1-0.2-0.2-0.3
			c-0.2-0.2-0.3-0.5-0.4-0.8l0,0l0-0.1c-0.3-0.4-0.8-0.5-1.2-0.2c-0.1,0-0.1,0.1-0.1,0.1c-0.6-0.1-1.3-0.1-1.9-0.2
			c0.3-12,1.3-24.3,0.4-36.3c0-0.5-0.5-0.8-0.9-0.8c-0.1,0-0.1,0-0.2,0C46.7,0,38-0.4,29.5,0.4c-3.8,0.3-8,0.6-11.7,1.8
			c-2.4,0.8-4.8,2.4-5.2,5c0,0.3-0.1,0.6-0.1,0.9c-0.1,0.1-0.2,0.3-0.1,0.5c0,10.7,0.1,21.3,0.1,32h-0.1l-2.7,0.2
			c-1.6,0.1-3.3,0.1-4.9-0.1c-1-0.1-1,1.5,0,1.6c3.9,0.4,8.1-0.1,12.2-0.4c0.2,0.1,0.4,0.1,0.6,0l1.7-0.1l0,0
			c-0.5,5.9-0.6,11.8-0.3,17.7c-2.4,0-4.8,0-7.2,0c-1,0-2.1,0-3.1,0.1c-1.2,0.2-2.6,0.9-3.7,0.3c-1-0.5-1.8,1-0.8,1.4
			c2,1,4.1-0.1,6.2-0.2c2.9-0.2,5.9,0,8.8,0c0,0.1,0,0.1,0,0.2l0,0c0,0.1,0,0.2,0,0.3c0,0.5,0.5,0.8,0.9,0.8c0.1,0,0.1,0,0.2,0
			l9.5,0.9c0.1,0,0.2,0,0.4,0c0.4,0,0.8-0.3,0.9-0.7c0,0,0,0,0-0.1v-0.5H31l3.2-0.1c0.1,0.1,0.2,0.2,0.4,0.3c4,1.9,8.4,2.5,12.7,1.6
			c3.2-0.6,7.7-2.2,7.2-6.2c0,0,0,0,0-0.1c0.5-0.2,0.9-0.5,1.3-0.8l0.1-0.1c0.2-0.2,0.4-0.4,0.5-0.6c0.1-0.2,0.3-0.4,0.4-0.5
			c0.7-1.3,0.6-2.9-0.2-4.2c0.4-0.1,0.9-0.3,1.2-0.6c1.6-1,2-3.1,0.9-4.7c-0.1-0.2-0.2-0.3-0.4-0.5C58.7,45.3,58.9,45.1,59.1,45z
			 M16.4,40.2l-2.3,0.2c0-9.6,0-19.3-0.1-28.9c0.9,0.7,1.9,1.2,3,1.4L16.4,40.2z M14.1,7.9c0-4.1,5.9-4.7,8.8-5.1
			c3.6-0.6,7.1-0.9,10.7-1.1c7-0.3,14.1,0.1,21,1.3c0,0.4,0,0.8,0.1,1.3c-0.1,0-0.2-0.1-0.3-0.1L25.8,4.9c-0.5,0-0.8,0.4-0.8,0.8
			c0,0.5,0.4,0.8,0.8,0.8l28.6-0.7c0.2,0,0.3,0,0.4-0.1c0,0.5,0,1.1,0.1,1.6l-19.7,1c-1,0.1-1.1,1.7,0,1.6L55,9c0,0.6,0,1.3,0,1.9
			h-0.1l-20.2,0.7c-3.4,0.1-6.8,0.3-10.3,0.2C21.5,11.9,14.1,12.5,14.1,7.9z M29.3,61.5l-8.6-0.8c-0.5-6.9-0.3-13.7,0.4-20.6h8.8
			L29.3,61.5z M30.6,38.5h-5.9l0,0c-0.1,0-0.2,0-0.3,0c-0.3,0-0.5,0-0.8,0c-0.3,0.1-0.5,0.1-0.8,0h-1.9c-0.4-0.2-1-0.1-1.2,0.3
			c-0.1,0.2-0.2,0.4-0.1,0.6c0,0.2,0,0.4-0.1,0.6L18,40.1l0.6-26.8c2.8,0.3,5.7,0.4,8.5,0.3c9.3-0.1,18.5-0.6,27.8-1h0.2
			c0,8.6-0.5,17.3-0.7,25.8c-2.3-0.1-4.6,0-6.9,0.2c1.8-5.3,1.8-16.5-6.5-14.6c-0.4,0.1-0.7,0.5-0.6,0.9c0,0.1,0,0.1,0.1,0.2
			c-0.1,0.1-0.1,0.3,0,0.5c0.9,5.6-2,10.3-5.3,14.5l-3.4-0.2v-0.1c0-0.2,0-0.3-0.1-0.4C31.5,38.8,31.1,38.5,30.6,38.5
			C30.7,38.4,30.7,38.4,30.6,38.5L30.6,38.5z M54.9,44.3l-5.7,0.3c-1,0-1.1,1.7,0,1.6l6-0.3c0.5,0,0.9,0,1.4-0.1
			c0,0.2,0.1,0.3,0.3,0.4c1.4,1.2,0.8,2.8-0.8,3.3c-0.8,0.2-1.6,0.3-2.4,0.3l-5.3,0.3c-1,0-1.1,1.7,0,1.6c1.9-0.1,3.8-0.2,5.6-0.3
			l0.8-0.1c0,0.1,0.1,0.3,0.2,0.4c1.7,1.8-0.3,3.9-2.1,4.4s-3.7,0.1-5.5-0.1c-1-0.1-1,1.5,0,1.6c1.8,0.3,3.6,0.4,5.5,0.2
			c0,3.5-5.9,4.4-8.5,4.5c-3.1,0.2-6.2-0.4-9-1.8c-0.1,0-0.2-0.1-0.3-0.1c-0.1-0.3-0.4-0.5-0.7-0.4L31,60.2h0l0.5-18.7l2.2,0.1
			L33.3,42c-0.7,0.8,0.5,2,1.2,1.2c4.2-5.2,8.4-10.7,7.4-17.7c6.5-0.9,5.1,9.7,3.7,13.3c-1,0.1-2,0.1-3,0.2s-1.1,1.7,0,1.6
			c5.1-0.3,10.5-1,15.6-0.2h0.1c0.5,0.7,0.6,1.6,0.4,2.4C58.2,44.4,56.2,44.2,54.9,44.3L54.9,44.3z"/>
	</g>
</g>
</svg>
