<?xml version="1.0" encoding="utf-8"?>
<!-- Generator: Adobe Illustrator 20.0.0, SVG Export Plug-In . SVG Version: 6.00 Build 0)  -->
<svg version="1.1" id="Layer_1" xmlns="http://www.w3.org/2000/svg" xmlns:xlink="http://www.w3.org/1999/xlink" x="0px" y="0px"
	 viewBox="0 0 64 64" style="enable-background:new 0 0 64 64;" xml:space="preserve">
<style type="text/css">
	.st0{fill:#2C2B30;}
</style>
<title>Asset 58</title>
<g id="Layer_2">
	<g id="Layer_1-2">
		<path class="st0" d="M63.2,24C60,9.8,47-0.1,32.4,0.6C32.4,0.2,32,0,31.7,0C19.4,0.2,7.6,7.7,2.7,19.2c-2,4.7-2.8,9.7-2.4,14.7
			c0,0.3,0,0.5,0.1,0.8c0.6,7.5,3.9,14.5,9.3,19.8c3,2.7,6.4,4.8,10.2,6.2c0.1,0.1,0.3,0.1,0.5,0.2c2.9,1.1,5.9,2,8.8,2.9
			s6.6-0.4,9.5-1c3.7-0.7,7.3-2,10.7-3.7c6-3.3,9.4-8.4,11.7-14.7C63.3,37.6,64.7,30.9,63.2,24z M31.7,21.2l0.5-11l7.8-2.5l0.2-0.1
			c0.2,0,0.5-0.1,0.6-0.3c0.8-1.1,1.1-2.5,0.9-3.8c0-0.1,0-0.2-0.1-0.2C47.8,5,53.4,8.8,57.2,14.2h-0.1l-2.1,0.7
			c-0.4-0.2-0.9,0-1.1,0.4c0,0,0,0.1-0.1,0.2c-0.7,2.8-1.1,5.6-1.3,8.5c0,0.1,0,0.2,0,0.3l-11.9,5.5c-2-3.4-5.9-5.9-8.9-8.3v-0.1
			C31.7,21.3,31.7,21.2,31.7,21.2z M22,3.4l0.2,2.1c-0.3,0.4-0.2,0.9,0.1,1.2c0,0,0.1,0.1,0.1,0.1c2.5,1.3,5.1,2.5,7.8,3.5
			c0.1,0,0.2,0,0.3,0l-0.5,10.8c0,0.1,0,0.2,0,0.2c-2.4,3-5.1,5.8-8.1,8.3l-0.1,0.1l-0.2,0.1h-0.2c-3.6,0.2-7.3,0-10.8-0.7L9,20.7
			c0-0.1,0-0.1-0.1-0.2c0-0.2-0.1-0.5-0.3-0.6c-1-0.9-2.3-1.3-3.7-1.3c-0.1,0-0.2,0-0.2,0C8.3,11.5,14.5,6,22,3.4z M2.5,38
			c0.1,0,0.2,0,0.2,0l2.2,0.1c0.3,0.3,0.9,0.4,1.2,0c0,0,0.1-0.1,0.1-0.1c1.6-2.3,3-4.7,4.2-7.2c3.6,0.7,7.4,1,11.1,0.8l0,0
			c1.4,2.9,2.6,6,3.5,9.1c0,0,0,0.1,0,0.1l0,0L20.6,50c-0.1-0.1-0.2-0.2-0.4-0.2l-8.8-1.9h-0.2c-0.2-0.1-0.5-0.1-0.7,0
			c-1.1,0.5-2,1.4-2.5,2.5C5.3,46.8,3.4,42.5,2.5,38z M46,48.1l-4.9,7.5c0,0.1-0.1,0.1-0.1,0.2c-0.2,0.1-0.3,0.4-0.3,0.6
			c0.1,1.3,0.7,2.6,1.7,3.5l0,0c-2.9,0.9-5.9,1.5-8.9,2c-3.2,0.5-5.9-0.3-8.8-1.3l0.9-1.9c0.5-0.2,0.7-0.6,0.5-1.1
			c0-0.1,0-0.1-0.1-0.2c-1.3-2.2-2.8-4.2-4.4-6.2l0.1-0.1l4.6-9.5c0-0.1,0.1-0.1,0.1-0.2h10.2c0.1,0,0.3,0,0.4-0.1
			c0.1,0,0.2,0,0.3,0l0,0c2.6,2.2,5.4,5.3,8.7,6.7L46,48.1z M60.9,39.1c-0.8,3-1.8,5.8-3.2,8.6l-1.4-1.5c0-0.5-0.4-0.9-0.9-0.9
			c0,0-0.1,0-0.1,0c-2.4,0.4-4.7,1-7,1.8C48.2,47,48.1,47,48,47c-3.6-0.9-6.6-4.4-9.4-6.7c-0.1-0.1-0.1-0.1-0.2-0.1
			c1.2-2.8,2-5.7,2.6-8.7l12.3-5.7l4.4,6.9c0,0.1,0.1,0.1,0.1,0.1c0.1,0.2,0.2,0.4,0.5,0.5c1.2,0.4,2.6,0.4,3.8-0.1
			C61.8,35.2,61.4,37.2,60.9,39.1L60.9,39.1z"/>
	</g>
</g>
</svg>
