<?xml version="1.0" encoding="utf-8"?>
<!-- Generator: Adobe Illustrator 20.0.0, SVG Export Plug-In . SVG Version: 6.00 Build 0)  -->
<svg version="1.1" id="Layer_1" xmlns="http://www.w3.org/2000/svg" xmlns:xlink="http://www.w3.org/1999/xlink" x="0px" y="0px"
	 viewBox="0 0 64 64" style="enable-background:new 0 0 64 64;" xml:space="preserve">
<style type="text/css">
	.st0{fill:#2C2B30;}
</style>
<title>Asset 16</title>
<g id="Layer_2">
	<g id="Layer_1-2">
		<path class="st0" d="M61.6,46.1h-0.7l0.1-1.7c4.4-2.6,2.7-11.1,2.5-15.3c-0.1-2.6,0.4-6.4-2-8.1c-0.9-0.7-2-0.8-3-0.3
			c-0.1-1.2-0.2-2.4-0.3-3.5c-0.4-3-2.3-3.9-5-3.5c-0.2-2.2-0.9-4.3-3.6-4.1c-2.9,0.1-4.1,3-4.3,5.5C41-3.1,16.1-3.9,5.3,8.7
			C0,14.9-1.4,23.4,1.5,31c3,7.3,10.2,12,18.1,11.9c2.2,4.8,7.5,7.2,12.6,5.8c0.4-0.1,0.7-0.6,0.5-1c-0.1-0.4-0.5-0.6-0.9-0.5
			l-0.3,0.1C31.4,47.1,31.2,47,31,47c-2.4-0.1-4.2-2.2-4-4.5c0-0.1,0-0.2,0-0.3c3.6-0.2,7.1-1.7,9.6-4.3c0.5,0.9,1.1,1.8,1.7,2.7
			c0.9,1.7,2.5,3,4.3,3.6v2.4h-0.5c-0.4,0-0.8,0.4-0.8,0.8c0,0.1,0,0.1,0,0.2l-0.2,11.1c0,0.3,0.2,0.6,0.5,0.7l-0.3,3.7
			c-0.1,1,1.5,1,1.6,0l0.3-3.6l16.6,0.1c0,0,0,0,0,0.1v3.4c0,0.4,0.5,0.8,0.9,0.7c0.4,0,0.7-0.3,0.7-0.7v-3.4c0,0,0-0.1,0-0.1
			c0.1,0,0.2-0.1,0.3-0.2c0.2-0.1,0.3-0.4,0.3-0.6L62,52.7c-0.2-1.7-0.1-3.5,0.2-5.3c0.3-0.3,0.3-0.8,0-1.1
			C62,46.2,61.8,46.1,61.6,46.1z M26.6,40.6c-0.4-0.2-0.8,0-1,0.3c0,0.1,0,0.1-0.1,0.2c-0.6,2.3,0.2,4.6,2,6.1
			c-2.9-0.6-5.3-2.6-6.5-5.3c0-0.1-0.1-0.1-0.1-0.2c-0.1-0.4-0.4-0.6-0.8-0.6c-7.8,0.4-15-4.4-17.5-11.8C0.4,22.4,2,14.7,7,9.3
			C17.1-2,39.6-1.1,43.7,15.2c-4.1,0.3-4.2,8.5-3.9,14.1c-1.1-1.4-2.7-2.3-4.4-2.5c-2-0.2-4.5,0.4-4.9,2.6c0,0.1,0,0.1,0,0.2
			c-0.2,0.4-0.1,0.9,0.2,1.1c2,1.6,3.8,3.5,5.1,5.7C33.4,39,30.1,40.5,26.6,40.6L26.6,40.6z M42.8,57.8c0.1-3.2,0.1-6.5,0.2-9.7
			l17.5-0.4c-0.1,1.4-0.2,2.7-0.1,4.1c0,2,0,4,0.1,6.1L42.8,57.8z M58.8,43.5c-1,0.2-0.6,1.7,0.4,1.6h0.2l-0.1,1.1l0,0l-1.3,0
			l-11.4,0.3l-2.5,0.1v-2.1h0.5c1,0,1-1.7,0-1.6c-4.4,0.2-5.7-4.9-7.7-7.8c-1.4-2-3-3.7-4.9-5.2c0.5-1.9,3.6-1.5,4.8-0.8
			c1.1,0.7,2,1.7,2.8,2.8c0.1,0.1,0.2,0.2,0.3,0.2c0.1,0.9,0.1,1.6,0.1,2c0,1,1.7,1,1.6,0l-0.3-8.4c-0.1-2-0.7-10.5,3.8-8.5
			c0,4.4,0.5,8.9,0.8,13.3c0,1,1.7,1,1.6,0l-0.5-9c-0.1-1.6-0.2-3.3-0.3-4.9c0-0.8,0-1.7,0.2-2.5l0.4-1.2c0.5-1.5,1.9-2,3-1.3
			c0.9,0.6,1.4,1.5,1.3,2.6c0,0.8,0,1.6,0,2.4c0,1.5,0,3.1,0,4.6c0,3.2,0,6.5,0,9.7c0,0.4,0.5,0.8,0.9,0.7c0.4,0,0.7-0.3,0.7-0.7
			c0-5.1,0.1-10.2,0.1-15.3c0-0.1,0-0.1,0-0.2l0,0c1.2-0.3,2.5,0.2,3.2,1.3c0.3,0.5,0.1,1.9,0.2,2.6c0,1.6,0.1,3.1,0.1,4.7l0.2,8.9
			c0,0.4,0.5,0.8,0.9,0.7c0.4,0,0.7-0.3,0.7-0.7c-0.1-3.3,0.1-6.7,0-10.1l0,0c1.9-0.6,2.8-0.1,2.8,1.4c0.2,0.6,0.3,1.3,0.3,2
			c0.1,0.7,0,1.4,0.1,2l0.2,5.6C62.2,37,63.2,42.7,58.8,43.5L58.8,43.5z"/>
		<path class="st0" d="M24.1,32.6l-1.7-1.4c0.7-1.3,0.9-2.8,0.8-4.3c-0.5-4.1-3.1-9.5-8-8.3c-0.3,0-0.5,0.2-0.5,0.5
			c-4.4,0.6-7.5,4.6-7,9s4.6,7.5,9,7c1.9-0.2,3.7-1.1,4.9-2.5l1.5,1.2C23.8,34.3,24.9,33.2,24.1,32.6z M14.5,33.4
			C7.2,32,8.1,22,15,20.7c0.3,0,0.5-0.2,0.6-0.5c3.9-0.9,5.7,4,6,7.1c0.1,1-0.1,2-0.5,2.9l-2.5-2c-0.8-0.6-2,0.5-1.1,1.1l2.8,2.2
			C18.7,33.1,16.6,33.8,14.5,33.4z"/>
		<path class="st0" d="M31.6,6.3c-0.1-0.1-0.2-0.2-0.3-0.3c-0.2-0.3-0.7-0.4-1.1-0.2c0,0-0.1,0.1-0.1,0.1c-3.7,3.8-5.7,8.8-5.7,14.1
			c0,0.4,0.5,0.8,0.9,0.7c0.4,0,0.7-0.3,0.7-0.7c0-0.9,0.1-1.8,0.2-2.7l7.9,0.2c0.1,0.7,0.1,1.5,0.1,2.2c0,0.4,0.5,0.8,0.9,0.7
			c0.4,0,0.7-0.3,0.7-0.7C35.9,14.9,34.4,10.2,31.6,6.3z M26.5,15.7c0.7-3,2.1-5.7,4.1-8c1.6,2.4,2.8,5.2,3.2,8.1L26.5,15.7z"/>
	</g>
</g>
</svg>
