<?xml version="1.0" encoding="utf-8"?>
<!-- Generator: Adobe Illustrator 20.0.0, SVG Export Plug-In . SVG Version: 6.00 Build 0)  -->
<svg version="1.1" id="Layer_1" xmlns="http://www.w3.org/2000/svg" xmlns:xlink="http://www.w3.org/1999/xlink" x="0px" y="0px"
	 viewBox="0 0 64 64" style="enable-background:new 0 0 64 64;" xml:space="preserve">
<style type="text/css">
	.st0{fill:#2C2B30;}
</style>
<title>Asset 77</title>
<g id="Layer_2">
	<g id="Layer_1-2">
		<path class="st0" d="M30.7,11.1c-0.3,0.4-0.9,0.4-1.2,0.1c-0.1-0.1-0.2-0.2-0.2-0.3c-0.5-0.9-1.9-0.1-1.4,0.8
			c0.7,1.2,2.2,1.7,3.4,1c0.2-0.1,0.4-0.3,0.6-0.5c0.3-0.3,0.3-0.8,0-1.1S31,10.8,30.7,11.1z"/>
		<path class="st0" d="M54.2,56.6c0.1-0.3,0.1-0.6,0-0.8c-0.1-12.8-0.7-25.5-1.7-38.3c0-0.5-0.5-0.8-1-0.8c-0.1,0-0.2,0-0.3,0.1
			c-1.9-0.7-4-1.1-6-1c0.1-1.1,0.2-2.2,0.1-3.3c-0.3-3.5-2.3-7-5.9-7.9c-1.3-0.3-2.6-0.3-3.9,0c0.5-1.1,0.3-2.4-0.5-3.4
			c-0.8-1.1-2.2-1.5-3.5-1c-0.9,0.4-1.5,1.1-1.9,2c-0.1-0.3-0.3-0.6-0.6-0.9c-1.1-1-2.7-1.1-3.9-0.2c-1.3,1.1-1.6,2.9-0.9,4.4
			c0.1,0.3,0.3,0.5,0.4,0.8c-1.9-0.5-4-0.2-5.7,0.9c-3,2-3.7,5.9-3.2,9.3c0,0.2,0.1,0.4,0.1,0.6C14,17.4,12,18,11,20
			c-1.5,3.1-1.3,7.4-1.3,10.8c-0.1,8.9,0.4,17.9,0.6,26.8c0,0.2,0.1,0.4,0.3,0.6c0.3,7,10.6,5.7,15.2,5.6L53.4,63
			c0.4,0,0.8-0.4,0.8-0.8c0-0.1,0-0.1,0-0.2c0-0.1,0-0.1,0-0.2C54.2,60.1,54.2,58.3,54.2,56.6z M51,18.4c0.9,11.2,1.4,22.4,1.5,33.6
			c-9-0.4-17.9-0.7-26.9-0.7c-2.5,0-6.5-0.2-9.7,0.7c-0.8-10.4-1.4-20.9,1.5-31c3.1,5.3,9.7,8.2,15,3.5c2.9,1.7,6.5,1.5,9.1-0.7
			c1.8-1.7,3-3.9,3.5-6.4C47,17.3,49.1,17.6,51,18.4z M30.7,4.4c0.1-0.8,0.5-1.6,1-2.3c1.2-1.1,2.6,0,2.4,1.5C34,5,32.7,6,31.4,6.7
			L33,4.8c0.7-0.8-0.5-1.9-1.1-1.2l-1.4,1.6l-0.1-0.4C30.5,4.8,30.7,4.6,30.7,4.4z M26.2,2.5C26.6,2,27.5,2,28,2.5
			c0.1,0.1,0.1,0.1,0.1,0.2c0.3,0.6,0.5,1.3,0.5,1.9l0.1,0.6l-0.5-0.7C28,4.1,27.5,4,27.2,4.2c-0.4,0.2-0.5,0.7-0.3,1.1l1.4,1.9
			c-0.5-0.3-1-0.6-1.4-1C25.9,5.4,25,3.6,26.2,2.5z M19.5,9c3.2-2.8,7.1-0.6,10.1,1.3c0.2,0.1,0.5,0.2,0.7,0.1
			c0.3,0,0.5-0.1,0.7-0.4c1.9-2.7,5.1-4.9,8.5-3.7s4.5,4.9,4.3,8.1c-0.3,5.7-4.9,12.8-11.2,8.3c-0.3-0.2-0.8-0.1-1,0.2
			c-0.1,0.1-0.1,0.3-0.1,0.4C26.2,28,19.6,23.7,17.8,18c0.1-0.3,0-0.6-0.2-0.8c0-0.1,0-0.2-0.1-0.3C17,14.3,17.3,10.9,19.5,9z
			 M11.8,54.3c-0.1-5.8-0.3-11.6-0.4-17.4c-0.1-3.2-0.1-6.5,0.1-9.7c0-1.8,0.2-3.6,0.6-5.3c0.7-2.2,2.2-3,4.3-3.2l0.1,0.2
			c-0.1,0.1-0.1,0.2-0.1,0.3c-3.5,10.9-2.8,22.2-1.9,33.4C13.4,52.9,12.5,53.5,11.8,54.3z M32.1,62c-3.3,0.1-6.7,0.2-10,0.3
			s-9.8,0.5-9.8-4.2s5.7-5,9.1-5.1s7.1,0,10.6,0c6.8,0.1,13.7,0.3,20.5,0.6c0,0.5,0,1.1,0,1.6l-24.2-0.9c-1,0-1,1.6,0,1.6l24.2,0.9
			c0,0.4,0,0.9,0,1.3l-18.8,0.6c-1,0-1,1.7,0,1.6l18.8-0.6c0,0.5,0,1.1,0,1.6L32.1,62z"/>
		<path class="st0" d="M38.2,30.9c-3.4-0.3-6.8-0.3-10.1,0.1c-1,0.1-1,1.8,0,1.6c3.4-0.4,6.7-0.5,10.1-0.2
			C39.2,32.7,39.2,31,38.2,30.9z"/>
		<path class="st0" d="M43.7,36.8H24.3c-0.4,0-0.8,0.4-0.8,0.8c0,0.4,0.4,0.8,0.8,0.8h19.5c0.4,0,0.8-0.4,0.8-0.8
			C44.5,37.1,44.2,36.8,43.7,36.8z"/>
		<path class="st0" d="M43.7,43.6H24.3c-0.4,0-0.8,0.4-0.8,0.8c0,0.4,0.4,0.8,0.8,0.8h19.5c0.4,0,0.8-0.4,0.8-0.8
			C44.5,44,44.2,43.6,43.7,43.6z"/>
	</g>
</g>
</svg>
