<?xml version="1.0" encoding="utf-8"?>
<!-- Generator: Adobe Illustrator 20.0.0, SVG Export Plug-In . SVG Version: 6.00 Build 0)  -->
<svg version="1.1" id="Layer_1" xmlns="http://www.w3.org/2000/svg" xmlns:xlink="http://www.w3.org/1999/xlink" x="0px" y="0px"
	 viewBox="0 0 64 64" style="enable-background:new 0 0 64 64;" xml:space="preserve">
<style type="text/css">
	.st0{fill:#2C2B30;}
</style>
<title>Asset 32</title>
<g id="Layer_2">
	<g id="Layer_1-2">
		<path class="st0" d="M42.7,46.9c0-0.4-0.3-0.8-0.8-0.9l-5.6-0.7l-1.9-4.2c0-0.2-0.1-0.5-0.3-0.6c-0.2-0.2-0.4-0.2-0.6-0.2
			c-0.1,0-0.3,0.1-0.4,0.2c-0.2,0.1-0.3,0.4-0.4,0.6c-0.7,1.5-1.4,2.9-2.2,4.3l-5.1,0.8c-0.4,0.1-0.6,0.4-0.6,0.8
			c0,0.1,0.1,0.3,0.2,0.4c0.1,0.2,0.2,0.3,0.3,0.4c1.3,0.9,2.6,1.9,3.7,3.1l-1.4,5.2c-0.1,0.3,0,0.5,0.2,0.7
			c0.1,0.4,0.5,0.7,0.9,0.7c0.1,0,0.2,0,0.3-0.1l4.6-2.7l0.1,0.1c1.5,0.6,2.9,1.4,4.1,2.3c0.2,0.4,0.7,0.5,1.1,0.2
			c0.2-0.1,0.4-0.4,0.4-0.7c0-1.7-0.1-3.5-0.4-5.2c1.4-1.1,2.6-2.3,3.7-3.7C42.9,47.5,42.9,47.2,42.7,46.9z M37.7,50.5
			c-0.2,0.1-0.3,0.3-0.3,0.5c0,0.1,0,0.2,0,0.3c0.2,1.3,0.3,2.5,0.3,3.8c-1.1-0.7-2.3-1.3-3.6-1.8c-0.1,0-0.2-0.1-0.2-0.1
			c-0.2-0.2-0.6-0.2-0.8,0l-3.6,2.1l1.1-4c0.1-0.2,0-0.5-0.1-0.7c0-0.2,0-0.5-0.2-0.7c-0.8-0.8-1.7-1.6-2.6-2.3l3.5-0.6
			c0.2,0,0.4-0.2,0.5-0.4c0.1-0.1,0.2-0.2,0.2-0.3c0.6-1.1,1.1-2.1,1.6-3.2l1.6,3.5c0.1,0.3,0.5,0.5,0.9,0.4c0,0,0.1,0,0.1-0.1h0.1
			l4.6,0.6C39.9,48.6,38.9,49.6,37.7,50.5z"/>
		<path class="st0" d="M60.2,9.7c-1.6-3.2-3.6-6.3-5.9-9.1C54.2,0.2,53.9,0,53.6,0C40,0.3,26.5,0.7,12.9,0.6c-0.3,0-0.5,0.1-0.6,0.3
			L12.2,1C9,4.1,6,7.5,3.4,11.1c-0.5,0.7,0.3,1.3,1,1.1c2.5,3.3,5.1,6.4,8.5,8.8c3.7,2.8,7.1,6,10.1,9.6c-0.1,0.2,0,0.5,0.1,0.7
			l0.3,6.5c0,0.2,0.1,0.4,0.3,0.6c-2.3,1.7-4,4-5,6.7c-2.3,5.8-0.3,12.3,4.8,15.8c5.4,3.7,12.9,4.2,18.4,0.5c5.2-3.6,7.6-10,6-16.1
			c-0.8-3-2.8-5.1-5.1-6.9c0.3-0.1,0.5-0.4,0.5-0.7l0.2-7c0-0.1,0-0.1,0-0.2c5.9-6.3,11.5-12.8,16.9-19.6c0.3-0.4,0.2-0.9-0.2-1.2
			C60.3,9.7,60.3,9.7,60.2,9.7z M51.6,1.7c-2.4,2.9-4.8,5.9-7.3,8.8l-22.4,0.5C19.5,8,17.2,5,14.6,2.2C27,2.3,39.3,1.9,51.6,1.7
			L51.6,1.7z M42.9,12.1c-1.4,1.6-2.9,3.2-4.5,4.7c-1.8,1.7-3.7,3.3-5.7,4.9c-1.6-1.5-3.4-2.7-5-4.2c-1.6-1.5-3.2-3.2-4.6-4.9
			L42.9,12.1z M15.1,20.6c-3.7-2.7-6.9-5.9-9.6-9.6c2.2-3,4.7-5.8,7.4-8.5c2.7,2.8,5.2,6,7.6,9c-0.1,0.4,0.2,0.8,0.6,0.9
			c0,0,0.1,0,0.1,0l0.7,0.9c1.5,1.8,3,3.6,4.8,5.2c1.6,1.4,3.3,2.6,4.9,4.1c-2.7,2-5.2,4.3-7.5,6.7C21.2,26.3,18.5,23,15.1,20.6z
			 M24.9,32.8L24.9,32.8l-0.1-1.2l17.3-0.2v0.8L24.9,32.8z M42,33.8l-0.1,3.8l-0.5-0.3c-2.6-1.9-5.4-3.5-8.6-2.5c-0.1,0-0.3,0-0.4,0
			c-2.6,0.4-5.1,1.4-7.3,2.8l-0.2-3.2L42,33.8z M43.3,40.7c2.9,2.6,4.2,6.5,3.6,10.3c-1.2,7.4-8.1,12.4-15.5,11.3
			c-0.1,0-0.3,0-0.4-0.1c-6.6-1.1-12.2-6.3-11.4-13.4C20.3,42,26,37.7,32.3,36.4c0.2,0.1,0.5,0.1,0.7,0
			C36.6,34.9,40.7,38.5,43.3,40.7z M42.3,29.7L42.3,29.7L25.5,30c2.3-2.4,4.8-4.6,7.5-6.6c0.1,0,0.1-0.1,0.2-0.2
			c2.2-1.7,4.3-3.4,6.3-5.4C44.6,13,48.9,7.4,53.4,2c2.1,2.7,4,5.5,5.5,8.6C53.6,17.2,48.1,23.6,42.3,29.7L42.3,29.7z"/>
	</g>
</g>
</svg>
