<?xml version="1.0" encoding="utf-8"?>
<!-- Generator: Adobe Illustrator 20.0.0, SVG Export Plug-In . SVG Version: 6.00 Build 0)  -->
<svg version="1.1" id="Layer_1" xmlns="http://www.w3.org/2000/svg" xmlns:xlink="http://www.w3.org/1999/xlink" x="0px" y="0px"
	 viewBox="0 0 64 64" style="enable-background:new 0 0 64 64;" xml:space="preserve">
<style type="text/css">
	.st0{fill:#2C2B30;}
</style>
<title>Asset 34</title>
<g id="Layer_2">
	<g id="Layer_1-2">
		<path class="st0" d="M62.6,47.5c-1.4-1.5-3.4-2.1-5.4-1.6c-0.5,0.1-0.9,0.2-1.4,0.3c-0.1,0-0.2,0.1-0.3,0.1h-0.1
			c-0.1,0.1-0.3,0.1-0.4,0.2c-2.7,0.8-5.4,2-8.1,3.1l0.1-0.1c3.5-6.4-10.8-4.6-13.6-4.4l0,0c-2.9-1.9-6.2-3.1-9.7-3.4l0,0l-0.6-0.1
			c-0.6,0-1.2,0-1.8,0h-0.1c-1.3,0-2.7,0.2-4,0.5l0-2.2c0-0.4-0.4-0.8-0.8-0.8c-0.1,0-0.1,0-0.2,0L5.3,38.8c-0.3,0-0.6,0.2-0.7,0.5
			L1.1,39c-1-0.1-1,1.5,0,1.6l3.5,0.3L4.6,57.1H4.5H1.2c-0.4,0-0.7,0.4-0.7,0.9c0,0.4,0.3,0.7,0.7,0.7h3.3h0.1
			c0,0.1,0.1,0.2,0.2,0.3c0.1,0.2,0.4,0.3,0.6,0.3l5.7-0.1c1.7-0.2,3.4-0.1,5.1,0.1c0.3,0.3,0.8,0.3,1.1,0c0.1-0.1,0.2-0.3,0.2-0.5
			v-1.5c2.4,1.7,5.6,2.5,8.3,3.6c2.5,1.1,5.3,2.7,8,3.1c3.4,0.4,6.9-1.7,9.9-2.9L55,56.5C58,55.3,66.7,52.4,62.6,47.5z M12.1,57.5
			l-5.9,0.1l0.1-17.2l9.4,0.2L16,57.6C14.7,57.5,13.4,57.5,12.1,57.5L12.1,57.5z M54.1,55.2l-7.3,2.9c-4.5,1.8-10,5.4-14.9,3.6
			c-2.4-0.9-4.7-2-7.1-3s-5.2-1.7-7-3.3c-0.1-0.1-0.2-0.1-0.3-0.2l-0.2-11.7c5.3-1.3,10.8-0.3,15.3,2.8l0.1,0.1
			c0.1,0.1,0.3,0.2,0.5,0.2l7.3-0.2c1,0,3.1-0.4,4,0.1c2.3,0.8,0.5,3.9-1.4,3.6c-0.6,0.1-1.2,0.2-1.7,0.2c-4.8,0.4-9.6,0.5-14.3,0.2
			c-1-0.1-1,1.5,0,1.6c4.3,0.3,8.6,0.3,12.9,0c1.7,0,3.4-0.3,5.1-0.8c0.1,0.4,0.4,0.6,0.8,0.5c0,0,0.1,0,0.1,0l7.5-2.9
			c2.1-0.8,6-2.7,7.8-0.4C64.3,52.2,56.2,54.4,54.1,55.2L54.1,55.2z"/>
		<path class="st0" d="M53.9,11.8c-0.6-3.5-2.4-6.6-5.1-8.8c-3.5-2.8-8-2.9-12.3-2.9h-0.1c-6.9-0.8-12.2,5.6-13.5,11.9
			c-0.6,3.5-0.2,7.1,1.1,10.4c1.2,3.2,2.9,7,5.6,9.2c0.6,0.5,1.2,0.9,1.9,1.2C31,35.1,31,37.6,31.8,40c0.1,0.4,0.6,0.7,1,0.5
			c0,0,0.1,0,0.1-0.1c3.5,1.1,7.2,1.1,10.6-0.2c0.4,0.3,0.9,0.3,1.2-0.1c0.1-0.1,0.2-0.3,0.2-0.4v-0.1l0,0c0.4-0.2,0.5-0.7,0.3-1.1
			c0-0.1-0.1-0.1-0.1-0.1l-0.1-0.1c0.2-2.1,0.1-4.1-0.1-6.2c0-0.1,0-0.2-0.1-0.3c0.8-0.4,1.6-1,2.3-1.5
			C52.5,25.7,55.1,18.7,53.9,11.8z M34.8,19.1l0.8-1.8c0.9,0.9,1.7,1.9,2.4,3c0.3,0.4,0.8,0.5,1.1,0.2c0.2-0.1,0.3-0.3,0.3-0.5
			l4.1-2c0.5,4.3,0.5,8.6-0.2,12.8c0,0,0,0.1,0,0.1c-1,0.5-2,0.8-3.1,1.1c-2.2,0.5-4.5,0.5-6.7-0.1c0.1-0.2,0.1-0.3,0-0.5l-2.9-13
			l2.1,1.2c0,0.7,1.1,1.2,1.4,0.4l0,0C34.7,19.8,34.9,19.4,34.8,19.1z M43.6,34.7L43.6,34.7c-3.4,1.7-7.3,1.7-10.6,0.1h-0.1
			c0.1-0.5,0.1-1,0.3-1.5c3.4,1,7.1,0.7,10.4-0.8C43.5,33.2,43.6,34,43.6,34.7z M43.5,38.6c-3.3,1.4-7,1.5-10.4,0.3
			c-0.2-0.8-0.3-1.6-0.3-2.4c3.5,1.5,7.4,1.4,10.9-0.1C43.6,37.1,43.6,37.8,43.5,38.6z M45.2,29.8c0.5-4.3,0.5-8.6-0.1-12.9
			c0,0,0-0.1,0-0.1c0.2-0.6-0.7-1-1.2-0.8l-5.1,2.5c-0.8-1.1-1.7-2.2-2.7-3.1l0,0c-0.2-0.3-0.7-0.4-1-0.2c-0.1,0.1-0.2,0.2-0.3,0.3
			l-1.2,2.6l-2.9-1.7c-0.1-0.1-0.3-0.1-0.4-0.1c-0.4-0.3-0.9-0.2-1.1,0.2c-0.1,0.2-0.2,0.4-0.1,0.6l3.1,14.1
			c-0.9-0.5-1.7-1.1-2.4-1.8c-2.5-3-4.2-6.6-5-10.5C23,11.5,27.4,0.6,36.4,1.6h0.2c4.2,0,8.6,0.2,11.8,3.1c2.7,2.6,4.3,6.3,4.2,10.1
			C52.8,20.7,50,26.3,45.2,29.8z"/>
	</g>
</g>
</svg>
