<?xml version="1.0" encoding="utf-8"?>
<!-- Generator: Adobe Illustrator 20.0.0, SVG Export Plug-In . SVG Version: 6.00 Build 0)  -->
<svg version="1.1" id="Layer_1" xmlns="http://www.w3.org/2000/svg" xmlns:xlink="http://www.w3.org/1999/xlink" x="0px" y="0px"
	 viewBox="0 0 64 64" style="enable-background:new 0 0 64 64;" xml:space="preserve">
<style type="text/css">
	.st0{fill:#2C2B30;}
</style>
<title>Asset 46</title>
<g id="Layer_2">
	<g id="Layer_1-2">
		<path class="st0" d="M60.3,10.7c0-0.4-0.2-0.7-0.5-0.8c-0.1-0.1-0.3-0.1-0.4-0.1h-8.9V1.1c0-0.4-0.2-0.7-0.5-0.8
			c-0.1-0.1-0.3-0.2-0.5-0.2L39.7,0c-0.4,0-0.8,0.3-0.8,0.8c0,0,0,0.1,0,0.1c0,0.1,0,0.1,0,0.2v2.3c0,2,0,4.1,0,6.1l0,0
			C28.1,5.1,16.1,4.5,5,7.9C4.9,7.9,4.8,8,4.7,8C4.3,8,3.9,8.3,3.9,8.7c0,0,0,0.1,0,0.1C3.8,26.4,3.7,44.1,3.6,61.7
			c0,0.3,0.1,0.6,0.4,0.7c-0.3,0.3-0.4,0.9,0,1.2c0.2,0.2,0.4,0.3,0.6,0.3C17.4,64,32.2,65.2,43,56.7c10.3-8.1,13.9-22.1,8.9-34.2
			c-0.1-0.2-0.2-0.3-0.3-0.4h7.8c0.3,0,0.6-0.2,0.7-0.4c0.2-0.1,0.4-0.4,0.3-0.7C60.3,17.6,60.3,14.2,60.3,10.7z M40.3,56.6
			c-10.2,6.8-23.4,5.8-35.2,5.6c0.1-0.1,0.2-0.3,0.2-0.5C5.4,44.3,5.5,26.9,5.5,9.5c9.5-2.8,19.7-2.7,29.2,0.3h-5
			c-0.4-0.2-0.9-0.1-1.2,0.3c-0.1,0.1-0.1,0.3-0.1,0.4c0,2.1-0.1,4.1-0.1,6.1v2.9c0,0.6,0,1.1,0,1.7c0,0.4,0.3,0.8,0.8,0.8
			c0.1,0,0.1,0,0.2,0c0.1,0,0.2,0.1,0.3,0.1H39v8.7c0,0.5,0.4,0.8,0.9,0.8c0.2,0,0.3-0.1,0.4-0.1l9.3,0.3c0.3,0,0.6-0.2,0.8-0.5
			c0.1-0.1,0.2-0.3,0.2-0.5c0-2.5,0-5,0-7.5C55.1,35.4,51.2,49.3,40.3,56.6L40.3,56.6z M49.7,20.4L49.7,20.4
			c-0.5-0.1-0.9,0.3-0.9,0.7c0,0,0,0.1,0,0.1c0,3,0,5.9,0,8.9l-8.1-0.3c0-2.9,0-5.7,0-8.6c0-0.5-0.4-0.8-0.8-0.8
			c-0.1,0-0.2,0-0.4,0.1c-0.1,0-0.2,0-0.2,0H30c0-3,0.1-6,0.1-8.9h9c0.1,0,0.2,0,0.3,0c0.4,0.2,0.9-0.1,1.1-0.5
			c0-0.1,0.1-0.2,0.1-0.3c0-3,0-6,0-9l8.1,0.1c0,3,0,5.9,0,8.9c0,0.5,0.4,0.8,0.8,0.8c0.1,0,0.2,0,0.3,0h8.8l0.1,8.9L49.7,20.4z"/>
		<path class="st0" d="M30.9,45.6c-0.8-8.1-9.7-10.3-16.4-8.6c-0.2,0-0.4,0.2-0.5,0.3c-0.2,0.1-0.3,0.4-0.3,0.7l-0.2,16.9
			c0,0.4,0.4,0.8,0.8,0.8c0.1,0,0.1,0,0.2,0C21,55.9,31.8,54.7,30.9,45.6z M15.2,54.1l0.2-15.5c5.7-1.3,13.9,0.5,13.9,7.8
			S20.6,54.2,15.2,54.1z"/>
	</g>
</g>
</svg>
