<?xml version="1.0" encoding="utf-8"?>
<!-- Generator: Adobe Illustrator 20.0.0, SVG Export Plug-In . SVG Version: 6.00 Build 0)  -->
<svg version="1.1" id="Layer_1" xmlns="http://www.w3.org/2000/svg" xmlns:xlink="http://www.w3.org/1999/xlink" x="0px" y="0px"
	 viewBox="0 0 64 64" style="enable-background:new 0 0 64 64;" xml:space="preserve">
<style type="text/css">
	.st0{fill:#2C2B30;}
</style>
<title>Asset 64</title>
<g id="Layer_2">
	<g id="Layer_1-2">
		<path class="st0" d="M60.8,25.9c2-2.9,2.9-6.5,2.4-10c-0.8-7-4.4-15.7-12.7-15.5h-0.1C50.2,0.1,50,0,49.7,0
			C44.7-0.1,40,2.2,37,6.1c-1.1-1.8-2.6-3.4-4.5-4.4c2.2,0.1,4.4,0.5,6.5,1.1c0.4,0.1,0.9-0.2,1-0.6c0.1-0.4-0.1-0.8-0.5-0.9
			C29-1.8,17.7,1.1,10.1,8.7C2.9,16-0.4,26.3,1.1,36.4C2.5,46.9,9.1,57.9,19.4,62c9.9,4,21.6,1.7,30-4.7c9.4-7.3,14-19.1,12.1-30.8
			C61.4,26.1,61.1,25.9,60.8,25.9z M9,12.3c4.6-5.8,11.4-9.5,18.8-10.4c-5.2,3.8-9.2,9-11.6,15L6,16.8C6.9,15.2,7.9,13.7,9,12.3z
			 M5.2,18.4l10.3,0.1c-1.4,4-2.2,8.2-2.2,12.5l-11-0.2C2.4,26.5,3.4,22.3,5.2,18.4z M3.5,40.3c-0.7-2.6-1.1-5.2-1.1-7.8l11,0.2
			c0.1,4.9,1,9.7,2.7,14.3c-3.4-0.2-6.9-0.4-10.3-0.7C4.8,44.3,4.1,42.4,3.5,40.3z M23.8,61.7C16.2,60,10.3,54.6,6.6,47.9
			c3.4,0.3,6.7,0.5,10.1,0.7c2.3,5.6,5.9,10.6,10.8,13.7C26.2,62.2,25,62,23.8,61.7z M29.8,61.7c-5.2-2.7-9-7.5-11.4-13
			C22.2,48.9,26,49,29.8,49C29.8,53.3,29.8,57.5,29.8,61.7L29.8,61.7z M29.8,47.4c-4,0-8-0.2-12.1-0.4c-1.7-4.6-2.7-9.5-2.8-14.4
			l14.9,0.2C29.9,37.7,29.9,42.6,29.8,47.4L29.8,47.4z M29.8,31.3l-15-0.2c0-4.3,0.8-8.5,2.3-12.5l12.7,0.1
			c0.1,4.2,0.1,8.5,0.1,12.6L29.8,31.3z M29.8,17l-12-0.1c2.5-6,6.8-11,12.2-14.6c0,4.9,0,9.8,0,14.7L29.8,17z M49.7,1.6L49.7,1.6
			C49.9,1.9,50.2,2,50.5,2c8.5-0.2,12,10.8,11.2,17.8c-0.9,8-9.8,11.4-16.8,9.3c-5-1.6-8.7-5.9-9.5-11.1c0-0.2,0-0.4-0.1-0.6
			C35,16,35,14.6,35.3,13.1C36.4,6.3,42.9,1.5,49.7,1.6z M31.6,3c1.8,1,3.2,2.4,4.2,4.2c0.1,0.1,0.2,0.2,0.3,0.3
			c-1.8,2.8-2.7,6.2-2.5,9.6h-2L31.6,3z M31.6,18.6h2.2c1.2,6.5,6.4,11.6,13,12.5c0,0,0,0.1,0,0.1c0,0.1,0,0.2,0,0.3l-15.3-0.2
			C31.5,27.1,31.5,22.9,31.6,18.6L31.6,18.6z M31.6,32.9l15,0.2c-0.6,4.9-2,9.7-4.1,14.1c-3.7,0.1-7.3,0.2-11,0.1
			C31.5,42.6,31.5,37.7,31.6,32.9L31.6,32.9z M41.7,48.9c-2.6,5-6.1,9.5-10.3,13.3c0-4.4,0-8.8,0-13.2C34.9,49,38.3,49,41.7,48.9z
			 M50.9,53.9c-4.7,4.4-10.6,7.3-17,8.2c3.9-3.8,7.2-8.3,9.6-13.2c4-0.1,8-0.3,12-0.6C54.2,50.3,52.6,52.2,50.9,53.9L50.9,53.9z
			 M56.5,46.5L56.5,46.5c-4.1,0.3-8.1,0.5-12.2,0.7c2-4.5,3.3-9.2,3.9-14l11.9,0.2h0.1C59.9,38,58.7,42.5,56.5,46.5L56.5,46.5z
			 M60.1,31.7l-11.7-0.2c0-0.1,0-0.2,0-0.2c1.8,0.1,3.6-0.1,5.4-0.6c2.4-0.6,4.5-1.9,6.2-3.7c0.2,1.6,0.3,3.2,0.3,4.8L60.1,31.7z"/>
		<path class="st0" d="M56,21.5l-2.1-2.1c1.2-1.4,1.6-3.2,1.3-5c-0.4-2.5-2.7-5-5.2-4.9c-0.1-0.2-0.4-0.4-0.7-0.3
			c-3.6-0.1-6.5,2.7-6.6,6.2c0,0.1,0,0.3,0,0.4c0.2,3.5,3.3,6.1,6.7,5.9c0.1,0,0.1,0,0.2,0c1.1-0.1,2.1-0.5,3-1.1l2.2,2.1
			c0.3,0.3,0.8,0.3,1.2,0C56.3,22.3,56.3,21.8,56,21.5z M48.5,20c-2.3-0.2-4-2.1-4.2-4.4c-0.1-2.1,1.2-4,3.2-4.6
			c0.1,0.5,0.6,1,1.2,0.6c2.7-2,5,1.7,5,4c0,1-0.4,1.9-1,2.6l-1.9-1.9c-0.3-0.3-0.9-0.2-1.1,0.1c-0.2,0.3-0.2,0.7,0,1l1.9,1.9
			C50.6,19.8,49.6,20.1,48.5,20z"/>
	</g>
</g>
</svg>
