<?xml version="1.0" encoding="utf-8"?>
<!-- Generator: Adobe Illustrator 20.0.0, SVG Export Plug-In . SVG Version: 6.00 Build 0)  -->
<svg version="1.1" id="Layer_1" xmlns="http://www.w3.org/2000/svg" xmlns:xlink="http://www.w3.org/1999/xlink" x="0px" y="0px"
	 viewBox="0 0 64 64" style="enable-background:new 0 0 64 64;" xml:space="preserve">
<style type="text/css">
	.st0{fill:#2C2B30;}
</style>
<title>Asset 72</title>
<g id="Layer_2">
	<g id="Layer_1-2">
		<path class="st0" d="M46.1,37.9C46.1,37.9,46.1,37.9,46.1,37.9c0.1-0.5-0.1-0.9-0.6-1c-0.1,0-0.1,0-0.2,0l-27.3,0.4
			c-0.1,0-0.2,0-0.2,0c-0.4,0-0.7,0.4-0.7,0.8l0.1,18.4l0,0c0,0.4,0.3,0.8,0.7,0.8c0,0,0.1,0,0.1,0L45.3,57c0.1,0,0.1,0,0.2,0
			c0.3,0.3,0.9,0.2,1.1-0.1c0.1-0.1,0.2-0.3,0.2-0.5L46.1,37.9z M44.5,38.5l0.2,5.1l-9.6,0.2v-1.2c0-0.4-0.4-0.8-0.8-0.8
			c0,0-0.1,0-0.1,0c-0.1,0-0.2-0.1-0.3-0.1h-4.8c-0.2,0-0.4,0.1-0.5,0.2c-0.2,0.1-0.4,0.4-0.4,0.7V44c-3.1-0.1-6.3-0.1-9.4,0.1v-5.3
			L44.5,38.5z M33.6,51.2H30l-0.1-7.7h3.6L33.6,51.2z M18.9,55.7l-0.1-9.9c3.1-0.2,6.3-0.2,9.4-0.1l0.1,5.8
			c-0.3,0.4-0.2,0.9,0.2,1.2c0.1,0.1,0.3,0.2,0.5,0.2h4.7c0.2,0,0.3-0.1,0.5-0.2c0.4,0.2,0.9,0,1-0.4c0-0.1,0.1-0.2,0.1-0.3
			l-0.1-6.4l9.6-0.2l0,0l0.4,10L18.9,55.7z"/>
		<path class="st0" d="M31.8,48c-0.4,0-0.8,0.4-0.8,0.8v0.6c0,0.5,0.4,0.8,0.8,0.8c0.5,0,0.8-0.4,0.8-0.8v-0.6
			C32.6,48.4,32.2,48,31.8,48z"/>
		<path class="st0" d="M63.2,48.8c0.1-2.5-0.1-5-0.4-7.4c-0.8-3.9-4-4.7-7.6-4.5l0.1-12.4c0.1-0.1,0.2-0.3,0.2-0.5
			c-0.6-5.2-3.2-10-7.3-13.3c-1.9-1.5-4-2.6-6.3-3.3c0.9-5.7-7.5-7.6-11.8-7.4c-5,0.3-9.4,3.7-10.1,8.8c-6.7,2.8-12.1,7.9-12.6,15.9
			c0,0.2,0,0.4,0.1,0.5l0.3,10.6c-10.1-2.3-7,17.2-6.4,22.4c0,0.2,0.1,0.5,0.3,0.6c0.3,0.2,0.7,0.3,1,0.1l5.7-0.2l0.1,3.5
			c-0.4,0.3-0.4,0.8-0.1,1.2c0.1,0.2,0.4,0.3,0.6,0.3c14.7,0.3,29.5,0.3,44.2-0.1c0.2,0,0.5-0.1,0.6-0.3c0.4,0.2,0.9,0,1.1-0.4
			c0-0.1,0.1-0.2,0.1-0.3v-4H55l7.1-0.1h0.1c0.4,0.3,0.9,0.2,1.1-0.2c0.1-0.1,0.1-0.3,0.2-0.4L63.2,48.8z M7.8,37.6L8,45.7l-5.7-0.2
			C2.4,41.7,2.9,36.2,7.8,37.6z M3,57.3C2.6,54,2.4,50.6,2.4,47.2l5.7,0.2l0,0l0.3,9.8L3,57.3z M28.4,1.9C31.2,1.2,41,2.2,40.3,7
			c-2.6-0.6-5.3-0.8-7.9-0.7C28.8,6.4,25.2,7,21.8,8.1C22.6,4.9,25.2,2.5,28.4,1.9z M53.7,24l-0.4,38h-0.1
			c-14.3,0.4-28.7,0.5-43,0.1l-1-37.5c0-0.1,0-0.3-0.1-0.4C10.1,12.9,22.3,8.1,32.4,7.9c5-0.1,10,0.5,14.2,3.6
			c3.9,2.9,6.6,7.3,7.2,12.2C53.7,23.8,53.7,23.9,53.7,24z M55.2,38.5c2-0.2,4.1-0.2,5.4,1.8c1,1.5,0.9,3.5,0.9,5.3l-6.3-0.3
			L55.2,38.5z M55.1,57L55.1,57l0-10l6.4,0.3l0.4,9.7L55.1,57z"/>
		<path class="st0" d="M39.5,22.4c0.1-0.3,0-0.6-0.2-0.8c-2.4-2.5-5.1-4.7-8-6.5c-0.4-0.2-0.8-0.1-1.1,0.2c0,0,0,0.1-0.1,0.1
			c-2.5,2.1-4.7,4.6-6.5,7.3c-0.1,0.2-0.2,0.3-0.1,0.5c-0.1,0.3-0.1,0.6,0.1,0.8c2,2.5,4.3,4.7,6.8,6.7c0.2,0.2,0.6,0.2,0.9,0
			c0.1,0,0.1-0.1,0.2-0.1l7.9-7.1c0.3-0.2,0.4-0.7,0.1-1C39.6,22.5,39.5,22.5,39.5,22.4z M30.9,29c-2.1-1.7-4.1-3.5-5.8-5.6
			c1.7-2.4,3.6-4.6,5.9-6.5c2.6,1.6,4.9,3.5,7,5.8L30.9,29z"/>
		<path class="st0" d="M28.3,21.5v3.3c0,0.5,0.4,0.8,0.8,0.8c0.5,0,0.8-0.4,0.8-0.8v-3.3c0-0.5-0.4-0.8-0.8-0.8
			C28.7,20.7,28.3,21.1,28.3,21.5z"/>
		<path class="st0" d="M32.3,21.3l-0.6,3.1c-0.2,1,1.4,1.5,1.6,0.4l0.6-3.1C34,20.7,32.5,20.3,32.3,21.3z"/>
	</g>
</g>
</svg>
