<?xml version="1.0" encoding="utf-8"?>
<!-- Generator: Adobe Illustrator 20.0.0, SVG Export Plug-In . SVG Version: 6.00 Build 0)  -->
<svg version="1.1" id="Layer_1" xmlns="http://www.w3.org/2000/svg" xmlns:xlink="http://www.w3.org/1999/xlink" x="0px" y="0px"
	 viewBox="0 0 64 64" style="enable-background:new 0 0 64 64;" xml:space="preserve">
<style type="text/css">
	.st0{fill:#2C2B30;}
</style>
<title>Asset 10</title>
<g id="Layer_2">
	<g id="Layer_1-2">
		<path class="st0" d="M27.1,27.9c0.3-0.3,0.6-0.6,0.8-0.9c3-3.8,2.4-9.3-1.4-12.3c-0.5-0.4-1-0.7-1.5-0.9c-2.6-1.3-5.7-1-8.1,0.6
			c-0.2,0-0.3,0.1-0.4,0.2c-3.9,3-5.1,8.6-1.8,12.6c2.8,3.2,7.5,4,11.1,1.8c0.3,0.5,0.5,1,0.7,1.6c0.3,1,1.9,0.6,1.6-0.4
			C27.8,29.3,27.5,28.6,27.1,27.9z M16.3,26.6c-1.8-1.9-2.5-4.6-1.6-7.1c0.2-0.1,0.3-0.2,0.4-0.4c1.3-3.5,5.2-5.3,8.6-4
			c0.2,0.1,0.4,0.1,0.5,0.2c3.5,1.7,5,6,3.2,9.5c-0.1,0.3-0.3,0.6-0.5,0.8c-0.2,0.4-0.5,0.7-0.8,1c-0.3-0.3-0.5-0.7-0.8-1
			c-0.1-0.3-0.3-0.5-0.5-0.6l-0.3-0.1c-0.4-0.2-0.9,0.1-1,0.5c-0.1,0.3,0,0.7,0.2,0.9c0.4,0.4,0.8,0.8,1.2,1.3
			C22.1,29.2,18.6,28.8,16.3,26.6z"/>
		<path class="st0" d="M64,19.6c0-0.1,0-0.2-0.1-0.3c0-0.4-0.3-0.8-0.7-0.9c0,0-0.1,0-0.1,0l-22.8-0.2c0-3.4,0.1-6.9,0.2-10.3
			c0-0.3-0.1-0.6-0.4-0.7c0.1-0.4-0.2-0.8-0.7-0.9c0,0-0.1,0-0.1,0l-38,0.2c-0.3,0-0.5,0.1-0.7,0.4C0.4,6.8,0.1,7,0,7.4
			c0,0.1,0,0.1,0,0.2c1,9.5,0.4,19.2,0.2,28.8c-0.2,0.3-0.1,0.7,0.1,1c2.4,2.7,4.4,5.7,6,8.9c0,0.1,0.1,0.1,0.1,0.2
			c0.1,0.4,0.6,0.7,1,0.6c0.4-0.1,0.7-0.6,0.6-1l0.3-8l11.3-0.4c-0.2,3.4-0.1,6.7,0.5,10.1c-0.2,0.4-0.1,0.8,0.2,1.1
			c0.2,0.3,0.7,0.4,1.1,0.2c0,0,0,0,0.1-0.1l30.2-0.2c-0.3,2.6-1,5.2-1.9,7.8c-0.1,0.2-0.1,0.5,0.1,0.7c0.2,0.4,0.7,0.6,1.1,0.4
			c0.1,0,0.1-0.1,0.2-0.1c3.6-3.2,7.8-5.8,12.3-7.7c0.5-0.2,0.7-0.7,0.5-1.2c0-0.1-0.1-0.2-0.1-0.2C63.8,38.8,63.9,29.2,64,19.6z
			 M7.9,36.5c-0.4-0.3-0.9-0.2-1.2,0.2c-0.1,0.1-0.2,0.3-0.2,0.5l-0.2,6c-1.4-2.3-2.9-4.5-4.7-6.5c0,0,0-0.1,0-0.1
			c0.3-9.5,0.9-19-0.1-28.4L39,7.9c-0.3,9.1-0.3,18.3,0.2,27.4L7.9,36.5z M51.9,54.6c0.6-2,1-4,1.2-6.1c0.3-0.3,0.2-0.9-0.1-1.1
			c-0.1-0.1-0.3-0.2-0.5-0.2l-31,0.2c-0.5-3.2-0.6-6.5-0.4-9.7l19.3-0.7c0.5,0,0.8-0.3,0.9-0.8c0-0.4-0.2-0.7-0.5-0.8
			c-0.3-5.2-0.4-10.4-0.4-15.6l22,0.2C62.3,29.5,62.2,39,62,48.6C58.4,50.1,55,52.1,51.9,54.6L51.9,54.6z"/>
		<path class="st0" d="M56.2,39.6c-0.5-4.1-2.6-8-4.7-11.6c0.2-0.8-1-1.5-1.5-0.6l-5.4,10.8c-0.5,0.9,0.9,1.8,1.4,0.8l1.7-3.4
			l5.8-0.1c0.5,1.3,0.8,2.6,1,4C54.7,40.6,56.3,40.6,56.2,39.6z M48.6,34l2.1-4.3c0.8,1.3,1.5,2.7,2.2,4.2L48.6,34z"/>
	</g>
</g>
</svg>
