<?xml version="1.0" encoding="utf-8"?>
<!-- Generator: Adobe Illustrator 20.0.0, SVG Export Plug-In . SVG Version: 6.00 Build 0)  -->
<svg version="1.1" id="Layer_1" xmlns="http://www.w3.org/2000/svg" xmlns:xlink="http://www.w3.org/1999/xlink" x="0px" y="0px"
	 viewBox="0 0 64 64" style="enable-background:new 0 0 64 64;" xml:space="preserve">
<style type="text/css">
	.st0{fill:#2C2B30;}
</style>
<title>Asset 70</title>
<g id="Layer_2">
	<g id="Layer_1-2">
		<path class="st0" d="M48.4,15.6c1.7-1.6,2.5-4,2.2-6.3C50,2.7,43.4,0.7,37.8,0.7c-8.9,0-17.8,0.4-26.8,0.6
			C8.7,0.7,6.2,1.2,4.2,2.5c-5.4,3.7-4.1,12.1-4,17.6c0.2,10,0.5,20,1.1,29.9c0,0.4,0.4,0.8,0.8,0.8c0.1,0.1,0.2,0.1,0.4,0.1L6.2,51
			c0,2.9,0,5.8,0,8.7c0,0,0,0.1,0,0.1c-0.2,0.4-0.1,0.9,0.2,1.1C6.5,61,6.7,61,6.8,61l40.3-0.3c0.2,0,0.4-0.1,0.5-0.2
			c0.4,0.1,0.7-0.1,0.8-0.5c0-0.1,0-0.2,0-0.3c-1.4-14.4-0.3-29,0.2-43.4C48.8,16,48.6,15.7,48.4,15.6z M2.9,49.3
			C2.5,42.9,2.2,36.5,2,30.1c-0.2-6.4-0.8-13.1-0.1-19.4C2.2,7.4,3.5,4,7,2.9c1.2-0.3,2.4-0.4,3.6-0.2c0.1,0.1,0.2,0.1,0.4,0.1
			c1.7,0.4,3.2,1.5,4.2,3c0.8,1.3,1.3,2.7,1.3,4.2L6.5,10c-0.4,0-0.8,0.3-0.8,0.8c0,0.1,0,0.2,0.1,0.3C5,12.6,5,14.4,5.7,15.9
			c0,0.1,0,0.2,0,0.3C6,27.3,6.2,38.3,6.2,49.4L2.9,49.3z M16.5,11.7c-0.2,1.1-0.5,2.1-1.1,3c-0.8,1.2-2,2.1-3.3,2.5l0,0
			c-0.1,0-0.3,0-0.4,0.1c-0.4,0.1-0.7,0.1-1.1,0.1c-2.1-0.1-3.8-1.9-3.7-4c0-0.6,0.2-1.2,0.5-1.8l0,0L16.5,11.7z M46.9,59.1
			L7.8,59.4c0.1-13.9-0.1-27.7-0.5-41.6c1.4,1.1,3.3,1.5,5,1c9-0.1,18-0.1,26.9-0.3c2.8,0.1,5.6-0.6,8-2
			C46.6,30.7,45.5,45,46.9,59.1L46.9,59.1z M33.4,17l-18,0.2c3-2.7,3.5-7.6,1.8-11.2c-0.6-1.3-1.6-2.4-2.7-3.3l16.7-0.4
			c6-0.1,16.1-1.7,17.7,6.3C50.7,17.8,38.9,17,33.4,17z"/>
		<path class="st0" d="M62,3.4c-1.7-0.8-3.8-0.8-5.5,0.1c-0.1,0-0.1,0.1-0.2,0.1c-0.3,0.1-0.6,0.3-0.6,0.7l-3.8,51.5c0,0,0,0,0,0.1
			c-0.1,0.2,0,0.5,0.1,0.7l4.8,6.4c0,0.1,0.1,0.1,0.1,0.2c0.3,0.3,0.7,0.4,1.1,0.1c0,0,0.1-0.1,0.1-0.1l0,0l0,0l0,0v0
			c1.6-2.3,3.4-4.4,5.4-6.3c0.3-0.3,0.3-0.7,0.1-1L63.1,4.1c0-0.5-0.4-0.8-0.9-0.8C62.2,3.3,62.1,3.3,62,3.4z M56.7,12.7
			c0.1,0,0.1-0.1,0.2-0.1l0,0c0.2,13.4-0.5,26.8-2.2,40.1c0,0.1,0,0.2,0,0.3l0,0l-1.1,1.6L56.7,12.7z M59,52.2c0,0.1,0,0.1,0,0.2
			l-1.5,1.8l-1.1-1.5l-0.1-0.1c1.7-13.4,2.4-26.9,2.2-40.5c0,0,0-0.1,0-0.1c0.2,0,0.4,0,0.6,0C59,25.4,58.8,38.8,59,52.2z
			 M59.9,58.2c-1.3-1-3.1-1-4.3,0.1l0,0l-1.4-1.8l1.5-2.1l1.2,1.5c0.2,0.3,0.7,0.4,1.1,0.2c0.1-0.1,0.1-0.1,0.2-0.2
			c0.1-0.1,0.2-0.1,0.3-0.2l1.8-2.1L62,56C61.3,56.7,60.6,57.5,59.9,58.2L59.9,58.2z M62.2,53.7l-1.2-1.7c-0.1-0.2-0.3-0.3-0.5-0.3
			c-0.2-13,0-26,0.2-39c0.2,0.1,0.3,0.3,0.5,0.4c0.1,0.1,0.3,0.2,0.4,0.3C61.9,26.8,62.1,40.3,62.2,53.7z M61.6,11.4
			c-1.4-1-3.2-1.2-4.8-0.5L57,9.7h0c1.5-0.7,3.2-0.6,4.6,0.3L61.6,11.4z M61.6,8.2c-1.4-0.6-3-0.7-4.5-0.2l0.2-3.1
			c1.3-0.7,2.9-0.6,4.2,0.1L61.6,8.2z"/>
		<path class="st0" d="M24.3,33.9c0.4-3.2,0.4-6.5,0.3-9.7c0-0.4-0.4-0.8-0.8-0.8h-0.2c-3.1-0.5-6.3-0.6-9.4-0.4
			c-0.1,0-0.2,0-0.3,0.1c-0.4,0-0.8,0.3-0.8,0.7c0,0,0,0.1,0,0.1c0,3.5,0,7,0.1,10.6c0,0.1,0,0.3,0.1,0.4c0.1,0.3,0.4,0.6,0.7,0.6
			c3.2,0.4,6.5,0.4,9.7,0c0.5,0,0.8-0.5,0.8-1C24.5,34.2,24.4,34.1,24.3,33.9z M14.8,33.8l-0.1-9.3c2.8-0.2,5.5,0,8.2,0.4
			c0.1,3,0,5.9-0.3,8.9C20,34.1,17.4,34,14.8,33.8z"/>
		<path class="st0" d="M39.3,23.7l-9.6-0.3c-1,0-1,1.6,0,1.6l9.6,0.3C40.4,25.4,40.3,23.7,39.3,23.7z"/>
		<path class="st0" d="M38.9,31l-9.3-0.2c-0.4,0-0.8,0.4-0.8,0.8c0,0.4,0.4,0.8,0.8,0.8l0,0l9.3,0.2c0.4,0,0.8-0.4,0.8-0.8
			C39.7,31.4,39.3,31,38.9,31z"/>
		<path class="st0" d="M40.2,38.3l-26.8-0.1c-0.4,0-0.8,0.4-0.8,0.8s0.4,0.8,0.8,0.8l0,0l26.8,0.1c0.4,0,0.8-0.4,0.8-0.8
			S40.6,38.3,40.2,38.3z"/>
		<path class="st0" d="M40.2,45.7l-26.8-0.1c-0.4,0-0.8,0.4-0.8,0.8s0.4,0.8,0.8,0.8l0,0l26.8,0.1c0.4,0,0.8-0.4,0.8-0.8
			S40.6,45.7,40.2,45.7z"/>
		<path class="st0" d="M40.2,53.1l-26.8-0.1c-0.4,0-0.8,0.4-0.8,0.8s0.4,0.8,0.8,0.8l0,0l26.8,0.2c0.5,0,0.8-0.4,0.8-0.8
			C41,53.4,40.6,53.1,40.2,53.1z"/>
	</g>
</g>
</svg>
