<?xml version="1.0" encoding="utf-8"?>
<!-- Generator: Adobe Illustrator 20.0.0, SVG Export Plug-In . SVG Version: 6.00 Build 0)  -->
<svg version="1.1" id="Layer_1" xmlns="http://www.w3.org/2000/svg" xmlns:xlink="http://www.w3.org/1999/xlink" x="0px" y="0px"
	 viewBox="0 0 64 64" style="enable-background:new 0 0 64 64;" xml:space="preserve">
<style type="text/css">
	.st0{fill:#2C2B30;}
</style>
<title>Asset 22</title>
<g id="Layer_2">
	<g id="Layer_1-2">
		<path class="st0" d="M61.9,1.4c-4.6-3.2-11.4,1.9-14.8,4.8c-4.8,4-8.4,9.2-10.5,15c-4.5-2.4-10-1.8-13.9,1.3c-3,2.3-5.2,5.4-7.9,8
			c-3.5,3.5-8.5,5.1-13.3,4.2c-0.3-0.1-0.7,0.1-0.8,0.3c-0.4,0.2-0.7,0.6-0.5,1.1c0,0.1,0.1,0.2,0.2,0.3l7.7,8.7
			c-2.8,1.2-2.2,7.4-0.9,9.5c2.2,3.8,7.9,4.5,10.5,0.8c0.9,0.8,1.8,1.6,2.6,2.5c1.9,2.2,4.2,4,6.8,5.4c0.3,0.2,0.8,0.1,1-0.2
			c0.3-0.1,0.5-0.4,0.4-0.7c-0.6-9.3,9.6-13.6,13.4-20.8c2.5-4.7,2.8-10.7,0.1-15.4c5.7-3.8,12-7.3,17.1-11.9
			C62,11.7,66.8,4.9,61.9,1.4z M16.2,54.7c-2,2.8-6.3,1.9-7.8-0.8c-0.5-0.9-1.7-7.7,0.7-7.4l0,0l2,2.3C9.9,49.5,9.4,51,10,52.2
			c0.9,1.8,3,2.2,4.8,1.8c0.3,0,0.5-0.3,0.6-0.5c0.3,0.3,0.7,0.7,1,1C16.3,54.6,16.2,54.6,16.2,54.7z M12.2,50.1h0.1l1.9,2.2
			l0.2,0.2l0,0c-0.9,0.3-1.9,0.1-2.6-0.5C11.2,51.4,11.1,50.2,12.2,50.1L12.2,50.1z M26.7,61.5c-2.3-1.6-4.4-3.5-6.3-5.5
			c-1.9-1.9-3.9-3.5-5.6-5.5L2.4,36.6c1.8,0.2,3.7,0.1,5.5-0.4c0,0.1,0.1,0.2,0.2,0.3c7,6.3,13.5,13.1,19.7,20.1
			C27.1,58.1,26.7,59.8,26.7,61.5z M28.6,55.1c-6-6.8-12.3-13.3-19-19.4c0.6-0.2,1.2-0.5,1.8-0.8l0.1,0.1c3.4,2.4,6.3,5.5,9.3,8.5
			l9.4,9.3C29.6,53.5,29.1,54.3,28.6,55.1z M42.1,34.8c-0.3,4.4-2.7,8-5.7,11.2c-1.7,1.8-3.6,3.6-5.2,5.5l-10-10
			c-2.6-2.7-5.3-5.2-8.3-7.5c1.8-1.1,3.4-2.5,4.8-4.1c2.6-2.8,5.1-6.1,8.7-7.7c3.8-1.6,8.2-0.9,11.3,1.7
			C40.9,26.6,42.5,30.7,42.1,34.8z M40.9,25c-0.4-0.6-0.8-1.1-1.3-1.6c-0.5-0.5-1.1-1-1.7-1.4c0.1-0.1,0.1-0.2,0.2-0.3
			c0.1-0.4,0.3-0.8,0.5-1.2c1.4,0.9,2.7,2.1,3.7,3.5L40.9,25z M54.1,16.2c-3.5,2.4-7,4.8-10.5,7.1c-1.2-1.7-2.6-3.1-4.3-4.1
			c1.6-3.6,3.9-6.8,6.6-9.6c1.8-1.8,3.7-3.3,5.8-4.7c1.2-0.8,2.5-1.5,3.8-2.1c0.1,0.2,0.3,0.3,0.5,0.4c2.5,0.7,4.4,2.8,4.9,5.4
			c0,0.2,0.2,0.4,0.4,0.5C59.3,11.8,56.9,14.2,54.1,16.2L54.1,16.2z M62.2,7.2c-0.7-2.3-2.4-4.1-4.5-5.1c0.9-0.1,1.7,0,2.5,0.4
			C62.5,3.6,62.9,5.3,62.2,7.2L62.2,7.2z"/>
	</g>
</g>
</svg>
