<?xml version="1.0" encoding="utf-8"?>
<!-- Generator: Adobe Illustrator 20.0.0, SVG Export Plug-In . SVG Version: 6.00 Build 0)  -->
<svg version="1.1" id="Layer_1" xmlns="http://www.w3.org/2000/svg" xmlns:xlink="http://www.w3.org/1999/xlink" x="0px" y="0px"
	 viewBox="0 0 64 64" style="enable-background:new 0 0 64 64;" xml:space="preserve">
<style type="text/css">
	.st0{fill:#2C2B30;}
</style>
<title>Asset 54</title>
<g id="Layer_2">
	<g id="Layer_1-2">
		<path class="st0" d="M62.7,55c-1.8-4.4-4.2-8.5-7-12.4c-0.1-0.1-0.1-0.1-0.2-0.2l2-31.1c0-0.3-0.1-0.6-0.5-0.7
			c-0.1-0.1-0.3-0.2-0.5-0.2h-7c0.2,0.6,0.4,1.1,0.7,1.6h5.8l-2,30h-0.2c-14.6,1.2-29.3,1.3-44,0.5c0,0,0-0.1,0-0.1
			c-1.6-10-2.3-20.2-2.1-30.3h7.7c0-0.5,0-1.1,0-1.6H7.1c-0.4-0.1-0.9,0.1-1,0.6c0,0.1,0,0.1,0,0.2C5.8,21.8,6.5,32.4,8.2,42.9
			c0,0,0,0,0,0.1l0,0C5.8,47.2,3,51.3,1.1,55.7c-1.2,2.7-1,5.8,2,7.1c1.8,0.8,4,0.7,5.9,0.8c2.5,0.1,4.9,0.2,7.4,0.3
			c5.5,0.1,10.9,0.2,16.4,0.2c5.3,0,10.6-0.1,15.8-0.3c2.6-0.1,5.3-0.2,7.9-0.3c1.6,0.1,3.2-0.2,4.8-0.8C64.4,61,63.8,57.7,62.7,55z
			 M61.4,60.5c-1.1,1.2-3.4,1.1-5,1.2c-7.9,0.4-15.8,0.6-23.7,0.7c-7.7,0-15.4-0.1-23.1-0.4c-1.8,0.1-3.6-0.1-5.3-0.5
			c-3.5-1.2-1.8-5-0.5-7.2c1.9-3.4,3.8-6.7,5.8-10.1C24.2,45,39,44.9,53.8,43.7c0.2,0,0.3-0.1,0.4-0.2c0.1,0.1,0.2,0.1,0.3,0.1
			c2,2.8,3.8,5.8,5.4,8.9C60.7,54.4,63.3,58.5,61.4,60.5z"/>
		<path class="st0" d="M51.3,38.6c1.4-7,1.6-14.1,0.6-21.2c0.3-0.3,0.4-0.8,0.1-1.2c-0.1-0.2-0.3-0.3-0.6-0.3l-1.9-0.1
			c0,0,0,0,0,0.1c0.1,0.5,0.1,1,0,1.5h0.8c0.9,6.9,0.7,13.9-0.6,20.7c0,0.2,0,0.5,0.2,0.7c-12.3,0.6-24.7,0.6-37-0.1l-1.3-21.5
			l3.3-0.1c-0.1-0.5-0.2-1.1-0.1-1.6l-3.9,0.2c-0.4,0-0.8,0.4-0.8,0.8c0,0,0,0,0,0C10,16.5,10,16.7,10,16.8l1.3,22.8
			c0,0.5,0.4,0.8,0.9,0.8c0.1,0,0.3-0.1,0.4-0.1c12.7,0.7,25.3,0.8,38,0.1c0.5,0,0.8-0.4,0.8-0.9c0-0.2-0.1-0.4-0.3-0.6
			C51.2,38.8,51.2,38.7,51.3,38.6z"/>
		<path class="st0" d="M58.6,57.6c0-0.1,0-0.1,0-0.2c-1-3.6-4-6.1-4.8-9.8c0-0.2-0.1-0.3-0.2-0.4c-0.1-0.2-0.4-0.3-0.6-0.3
			c-13.8,0.6-27.6,0.7-41.4,0.3c-0.4,0-0.8,0.3-0.8,0.7c0,0.1,0,0.1,0,0.2c-2.4,2.9-4.4,6.1-5.9,9.5c-0.2,0.4,0,1,0.5,1.1
			c0,0,0,0,0.1,0c0.1,0.3,0.4,0.5,0.7,0.5c17.3,0.9,34.7,0.9,52-0.2c0.5-0.1,0.8-0.5,0.7-1C58.8,57.8,58.7,57.7,58.6,57.6z
			 M54.3,52.6c-1.4,0.1-2.8,0.1-4.3,0.2c-1.3-1.3-2.7-2.6-3.9-4c2.1-0.1,4.1-0.1,6.2-0.2C52.8,49.9,53.4,51.3,54.3,52.6L54.3,52.6z
			 M44.8,48.7c-0.2,0.3-0.2,0.7,0.1,1c1,1,2,2.1,3,3.1l-4.5,0.1c-1.1-1.3-2.3-2.7-3.3-4.1L44.8,48.7z M28.6,49.1c0-0.1,0-0.1,0-0.2
			h3.9c0,0,0,0.1,0,0.1l1.2,4c-2,0-4,0-5.9-0.1L28.6,49.1z M12.2,48.7l2.9,0.1l-2.2,3.5l-3.3-0.2C10.4,50.9,11.2,49.8,12.2,48.7
			L12.2,48.7z M6.5,57.6c0.6-1.4,1.3-2.7,2.1-4l3.3,0.2l-2.5,3.9L6.5,57.6z M17.4,58c-2.1-0.1-4.1-0.1-6.2-0.2l2.4-3.9
			c1.6,0.1,3.1,0.2,4.7,0.2L17.4,58z M14.7,52.4l2.1-3.4c0,0,0.1-0.1,0.1-0.1h2.8l-0.9,3.7L14.7,52.4z M25.1,58.2c-2,0-4,0-6-0.1
			l1-3.8c2,0.1,3.9,0.1,5.9,0.2L25.1,58.2z M20.4,52.7l0.9-3.5c0-0.1,0-0.2,0-0.3c1.9,0,3.8,0,5.7,0l-0.8,3.9
			C24.3,52.8,22.3,52.7,20.4,52.7z M26.7,58.2l0.8-3.7c2.3,0,4.5,0.1,6.8,0.1l1.2,3.6C32.5,58.2,29.6,58.2,26.7,58.2L26.7,58.2z
			 M34.2,48.9l4.3-0.1c-0.1,0.2,0,0.4,0.1,0.6c0.9,1.2,1.8,2.3,2.8,3.5c-2,0-3.9,0-5.9,0L34.2,48.9z M37.1,58.2c0,0,0-0.1,0-0.1
			L36,54.6c2.2,0,4.5,0,6.7-0.1l2.9,3.4l0.1,0.1C42.8,58,39.9,58.1,37.1,58.2L37.1,58.2z M46.7,56.8l-2-2.3l4.7-0.2l3.5,3.3
			c-2.1,0.1-4.2,0.2-6.3,0.3C47,57.6,47,57.1,46.7,56.8C46.7,56.8,46.7,56.8,46.7,56.8L46.7,56.8z M54.4,57.6
			c0.2-0.3,0.1-0.7-0.2-0.9l-2.6-2.5l2.9-0.1c0.2,0,0.4-0.1,0.6-0.3c0.7,1.1,1.3,2.3,1.8,3.6L54.4,57.6z"/>
		<path class="st0" d="M51.3,12.7L51.3,12.7c0.1-0.5-0.2-0.9-0.5-1c-1.9-3.5-3.3-7.2-4.3-11.1c-0.1-0.4-0.6-0.6-1-0.5
			c-0.2,0.1-0.3,0.2-0.4,0.3L15.3,0h-0.1c-0.4-0.1-0.8,0.1-1,0.5c0,0.1,0,0.2,0,0.2l0.4,35.6c0,0.3,0.1,0.5,0.4,0.7
			c-0.2,0.4,0,0.9,0.4,1c0.1,0,0.2,0.1,0.3,0.1l29-0.5c0.4,0,0.8-0.4,0.8-0.8c0,0,0-0.1,0-0.1c2.4-7.6,4.3-15.4,5.7-23.3
			C51.3,13.2,51.4,12.9,51.3,12.7z M45.6,3.4c1,3.1,2.2,6.1,3.8,9l-6.7-2.2L45.6,3.4z M44,36.1l-27.8,0.5c0,0,0-0.1,0-0.1L15.8,1.6
			L44.5,2l-3.4,7.9c-0.1,0.1-0.1,0.3-0.1,0.4c-0.3,0.4-0.2,0.9,0.2,1.2c0,0,0.1,0.1,0.1,0.1l8,2.6C48.1,21.5,46.3,28.9,44,36.1z"/>
		<path class="st0" d="M32.8,8.6C28.6,8.9,24.4,9,20.3,8.9c-1-0.1-1,1.5,0,1.6c4.2,0.1,8.3,0,12.5-0.4C33.8,10.1,33.8,8.5,32.8,8.6z
			"/>
		<path class="st0" d="M44.6,14.6l-24.7,1.1c-1,0-1,1.6,0,1.6l24.7-1.1C45.6,16.2,45.6,14.6,44.6,14.6z"/>
		<path class="st0" d="M40,21.7c-6-2.1-13.1-0.6-19.3-0.1c-1,0.1-1,1.7,0,1.6c6-0.5,13-2,18.9,0.1C40.5,23.5,40.9,22,40,21.7z"/>
		<path class="st0" d="M35.9,27.5c-4.7-0.4-9.4-0.2-14,0.7c-1,0.2-0.6,1.7,0.4,1.5c4.5-0.9,9-1.1,13.6-0.7
			C36.9,29.2,36.9,27.6,35.9,27.5z"/>
	</g>
</g>
</svg>
