<?xml version="1.0" encoding="utf-8"?>
<!-- Generator: Adobe Illustrator 20.0.0, SVG Export Plug-In . SVG Version: 6.00 Build 0)  -->
<svg version="1.1" id="Layer_1" xmlns="http://www.w3.org/2000/svg" xmlns:xlink="http://www.w3.org/1999/xlink" x="0px" y="0px"
	 viewBox="0 0 64 64" style="enable-background:new 0 0 64 64;" xml:space="preserve">
<style type="text/css">
	.st0{fill:#2C2B30;}
</style>
<title>Asset 29</title>
<g id="Layer_2">
	<g id="Layer_1-2">
		<path class="st0" d="M57.2,18.2l-0.3-4.3c0-0.2-0.1-0.5-0.3-0.6c0-0.4-0.3-0.8-0.7-0.8c0,0,0,0-0.1,0l-5.7,0.1
			c-0.5-3.6-1.3-7.6-4.3-10c-2.6-2.1-6.5-2.2-9.7-2.4c-5.3-0.3-16.8-0.5-15.4,7.8h-4.8C15.3,8,15,8.4,15,8.8c0,0.1,0,0.2,0.1,0.3
			c0,0.1,0,0.1,0,0.2v4.6c0,0.5,0.4,0.8,0.9,0.8c0.2,0,0.3-0.1,0.4-0.1l1.9,0.1c0,2.9-0.1,5.9-0.1,8.8C11.9,23.3,7.6,32,6.9,37.2
			c-1.1,7,1.7,14.8,7.7,18.9c6,3.9,13.7,3.8,19.7-0.2c2.1-1.4,4-3.2,5.4-5.4c-0.1,4.3-0.3,9.6,3.4,12.3s8.3-0.1,9.9-4
			c0.8-2.4,1.1-4.9,1-7.4c0-3.5,0.1-6.9,0.1-10.3l0.2-22l2.4,0.3c0.5,0,0.8-0.4,0.8-0.8C57.4,18.4,57.3,18.3,57.2,18.2z M38.2,1.9
			c3,0.3,6,0.7,7.9,3.4c1.5,2.1,1.9,4.7,2.3,7.3l-9.6,0.2c-0.4,0-0.8,0.3-0.8,0.8c0,0.1,0,0.2-0.1,0.3l-0.3,4.7
			c0,0.2,0.1,0.5,0.3,0.6c0.1,0.3,0.4,0.6,0.8,0.6l1.6,0.1c-0.2,2.7-0.3,5.5-0.1,8.2c-2-2.9-5.3-4.7-8.8-4.8c0-2.9,0-5.9,0-8.8
			l1.8,0.1c0.3,0,0.7-0.2,0.8-0.5c0.1-0.1,0.1-0.3,0.1-0.5L33.8,9c0-0.2-0.1-0.5-0.3-0.6C33.4,8.1,33.1,8,32.8,8L22.2,7.9
			c0-0.1,0-0.3,0-0.4C21,0.1,34.1,1.5,38.2,1.9L38.2,1.9z M27.5,57c-8.2,1.9-15.9-3.2-18.4-11.1C8,42.3,8,38.3,9.1,34.6
			c1.1-3.5,4.7-10.1,9.2-9.6c0.3,0.3,0.9,0.3,1.2,0c0.1-0.1,0.2-0.3,0.2-0.5l0.2-10.8c0-0.5-0.4-0.8-0.9-0.8c-0.1,0-0.3,0.1-0.4,0.1
			l-1.9-0.1V9.5l15.5,0.1l0.2,3.1l-1.2-0.1c-0.1,0-0.2,0-0.3,0c-0.4-0.2-0.9-0.1-1.1,0.3c-0.1,0.1-0.1,0.2-0.1,0.4l-0.1,10.1
			c0,0.2,0,0.3,0.1,0.4c0,0.4,0.3,0.8,0.7,0.8c0,0,0.1,0,0.1,0c9.1-0.3,12.1,9.9,10.7,17.3C40,49.2,34.8,55.4,27.5,57z M46.3,62.4
			c-6.1-0.1-5-9.9-5-13.8c0-0.2-0.1-0.4-0.2-0.5c1.5-3,2.3-6.3,2.3-9.7c0-2.8-0.6-5.6-1.8-8.1c3.6,0.3,7.3,0.8,10.8,0.1l-0.2,19
			C52.2,53.5,52.6,62.5,46.3,62.4L46.3,62.4z M53.5,17.5c-0.5,0-0.8,0.4-0.8,0.8l0,0c-0.1,0.1-0.2,0.3-0.2,0.5c0,3.3,0,6.5-0.1,9.8
			c-3.4,0.8-7.1,0.3-10.5,0c-0.2-3.2-0.2-6.4,0.2-9.6c0-0.3-0.1-0.5-0.3-0.7c-0.1-0.1-0.3-0.2-0.5-0.2L39.3,18l0.2-3.7L55.2,14
			l0.3,3.7L53.5,17.5z"/>
		<path class="st0" d="M39.4,38.3c-0.1-0.4-0.6-0.7-1-0.6c-8.9,1.6-17.9,2-26.9,1.3c-0.5-0.1-1,0.1-0.9,0.8c1,8,6.2,16.4,15.3,15.5
			c8.4-0.8,13.3-8.4,14-16.3C39.9,38.7,39.7,38.4,39.4,38.3z M26.2,53.6c-7.9,1-12.6-6-13.8-12.9c8.6,0.6,17.3,0.2,25.8-1.3
			C37.5,46.1,33.3,52.7,26.2,53.6z"/>
	</g>
</g>
</svg>
