<?xml version="1.0" encoding="utf-8"?>
<!-- Generator: Adobe Illustrator 20.0.0, SVG Export Plug-In . SVG Version: 6.00 Build 0)  -->
<svg version="1.1" id="Layer_1" xmlns="http://www.w3.org/2000/svg" xmlns:xlink="http://www.w3.org/1999/xlink" x="0px" y="0px"
	 viewBox="0 0 64 64" style="enable-background:new 0 0 64 64;" xml:space="preserve">
<style type="text/css">
	.st0{fill:#2C2B30;}
</style>
<title>Asset 39</title>
<g id="Layer_2">
	<g id="Layer_1-2">
		<path class="st0" d="M50,18.9L46.6,19c-1.1,0-1.1,1.7,0,1.6l3.4-0.1C51.1,20.5,51.1,18.8,50,18.9z"/>
		<path class="st0" d="M63.7,58c0-0.1,0-0.1,0-0.2c0-6.3,0-12.7-0.1-19v-1.7c-0.1-6.7-0.2-13.5-0.4-20.2c0-0.5-0.4-0.8-0.9-0.8
			c-0.2,0-0.5,0.1-0.6,0.3C60.8,16.2,59.9,16,59,16c0-1.9,0-3.9,0-5.9l0,0c0.3-0.4,0.2-0.9-0.1-1.2c-0.1-0.1-0.3-0.2-0.5-0.2l-4-0.2
			h-0.1V6.2c0-0.3-0.2-0.6-0.5-0.7c0.2-0.4,0.1-0.8-0.2-1.1c-0.1-0.1-0.3-0.1-0.5-0.1C46,4.7,32.6,1.4,30.2,11.1
			C26.5,3.3,13.3,4.3,6.4,5.5C6,5.6,5.8,5.9,5.8,6.2C5.4,6.2,5.1,6.5,5.1,7c0,0,0,0,0,0l0.1,2.5l-4.3,0c-0.5,0-0.8,0.3-0.9,0.8
			s0.3,0.8,0.8,0.9l0,0C1.2,25.8,1.1,40.7,3,55.3c0.1,0.4,0.4,0.8,0.9,0.8c0.1,0,0.2,0,0.3,0l30.9,0.6c0,0.5-0.1,1.1-0.1,1.6
			c0,0.1,0,0.1,0,0.2c-0.1,0.4,0.1,0.8,0.5,0.9c0.1,0,0.2,0,0.3,0c4.7-0.5,9.4,0.2,14.1,0.3c4.5,0.2,8.9-0.2,13.4-0.4
			c0.5-0.1,0.8-0.5,0.7-1C63.9,58.2,63.8,58.1,63.7,58z M62.1,49.3c-8.3-0.4-16.7,0-25-0.3c0.3-8.5,0.4-17,0.2-25.5
			c8.1-0.9,16.3-0.4,24.5-0.3C61.9,31.9,62,40.6,62.1,49.3L62.1,49.3z M54.4,10.2l3,0.1l0,5.5c-1,0-2,0-3,0
			C54.4,14,54.4,12.1,54.4,10.2L54.4,10.2z M61.6,17.9c0,1.2,0,2.4,0.1,3.6c-8.1-0.1-16.4-0.6-24.5,0.3c0-1.6-0.1-3.1-0.2-4.7
			c4,0.3,8,0.5,12.1,0.4C53.3,17.5,57.5,17.2,61.6,17.9z M4.6,54.6c-1.8-14.4-1.7-29-2.2-43.4c0,0,0,0,0-0.1h2.8L6,50.6
			c0,0.5,0.4,0.8,0.9,0.8c0.1,0,0.2,0,0.3-0.1c0.3,0.2,0.7,0.2,1,0c6.3-5.1,15.5-4.1,20.5,2.2c0.4,0.5,0.7,1,1.1,1.5L4.6,54.6z
			 M7.7,49.7L6.7,7.1h0.1c6.5-1.1,20.2-2.3,22.5,6l0,0l1.1,39.9C25.1,45.9,14.9,44.4,7.7,49.7C7.7,49.7,7.7,49.7,7.7,49.7L7.7,49.7z
			 M35.2,55.2l-3.3-0.1c0.7-1.4,2-2.6,3.5-3.1C35.3,53.1,35.2,54.1,35.2,55.2L35.2,55.2z M35.8,15.7c-0.3,0.1-0.5,0.4-0.5,0.7
			c0.5,11.3,0.5,22.6,0,33.8c-1.3,0.4-2.4,1-3.4,1.9l-1.1-39c0,0,0,0,0-0.1c0.4,0,0.7-0.2,0.7-0.6c0,0,0,0,0,0
			c1.5-9.6,14.3-6.3,21.1-6.6c0,0.1-0.1,0.2,0,0.3l0.1,9.6l-2.6,0.1c-0.8,0-1.7,0-2.5,0h-2.2c-3-0.1-6-0.2-9-0.5
			C36.2,15.4,36,15.5,35.8,15.7z M49.8,58.2c-4.4-0.2-8.8-0.7-13.2-0.4c0.1-2.4,0.3-4.8,0.4-7.2c8.4,0.3,16.7-0.1,25.1,0.3
			c0,2.3,0,4.5,0,6.8c0,0,0,0.1,0,0.1C58,58.1,53.9,58.4,49.8,58.2L49.8,58.2z"/>
		<path class="st0" d="M25.5,18.2c-3.9-2.1-8.6-2.6-12.8-1.2c-1,0.3-0.6,1.9,0.4,1.6c3.8-1.3,8-0.9,11.6,1
			C25.5,20.1,26.4,18.7,25.5,18.2z"/>
		<path class="st0" d="M25.5,24.2c-3.9-2.1-8.6-2.6-12.8-1.2c-1,0.3-0.6,1.9,0.4,1.6c3.8-1.3,8-0.9,11.6,1
			C25.5,26.1,26.4,24.7,25.5,24.2z"/>
		<path class="st0" d="M25.5,30.1c-3.9-2.1-8.6-2.6-12.8-1.2c-1,0.3-0.6,1.9,0.4,1.6c3.8-1.3,8-0.9,11.6,1
			C25.5,32,26.4,30.6,25.5,30.1z"/>
		<path class="st0" d="M25.5,36.1c-3.9-2.1-8.6-2.6-12.8-1.2c-1,0.3-0.6,1.9,0.4,1.6c3.8-1.3,8-0.9,11.6,1
			C25.5,37.9,26.4,36.5,25.5,36.1z"/>
		<path class="st0" d="M25.5,42c-3.9-2.1-8.6-2.6-12.8-1.2c-1,0.3-0.6,1.9,0.4,1.6c3.8-1.3,8-0.9,11.6,1
			C25.5,43.9,26.4,42.5,25.5,42z"/>
	</g>
</g>
</svg>
