<?xml version="1.0" encoding="utf-8"?>
<!-- Generator: Adobe Illustrator 20.0.0, SVG Export Plug-In . SVG Version: 6.00 Build 0)  -->
<svg version="1.1" id="Layer_1" xmlns="http://www.w3.org/2000/svg" xmlns:xlink="http://www.w3.org/1999/xlink" x="0px" y="0px"
	 viewBox="0 0 64 64" style="enable-background:new 0 0 64 64;" xml:space="preserve">
<style type="text/css">
	.st0{fill:#2C2B30;}
</style>
<title>Asset 67</title>
<g id="Layer_2">
	<g id="Layer_1-2">
		<path class="st0" d="M63.1,45.2c0.1-0.2,0.2-0.4,0.2-0.7c0,0,0,0,0,0c0-1.7-0.7-3.3-1.8-4.5c-0.1-0.1-0.2-0.2-0.3-0.2
			c0.5-4.6,0.7-9.3,0.5-14c0-0.2-0.1-0.4-0.2-0.5c0.2-0.1,0.3-0.3,0.3-0.5c0.4-0.3,0.4-0.9,0.1-1.3c-0.1-0.1-0.1-0.1-0.2-0.2
			C51.5,17,41.5,10.8,31.5,4.4c-0.2-0.1-0.4-0.2-0.7-0.1c-0.3-0.3-0.7-0.4-1.1-0.2C19.8,9.8,10.2,15.9,0.9,22.4
			C0.4,22.5,0,23,0,23.6c0,0.3,0.2,0.5,0.4,0.7c4,3,8.1,5.9,12.2,8.7c-0.1,0.1-0.1,0.3-0.1,0.5l0.4,18.4c0,0.4,0.3,0.8,0.8,0.9l0,0
			c10.4,9.8,26.7,9.8,37.1-0.1c0.1-0.1,0.2-0.3,0.3-0.5c0.2-0.2,0.3-0.4,0.3-0.7l-0.2-18.2c0-0.3-0.1-0.6-0.4-0.8l9-6.1
			c0.1,4.5,0,9-0.6,13.5c0,0.1,0,0.2,0,0.3c-1.2,1.2-1.9,2.8-1.9,4.5c0,0.2,0.1,0.4,0.2,0.5c-2.5,2.6-2.4,6.8,0.2,9.3
			c0.7,0.7,1.7,1.2,2.6,1.5c0.2,0.1,0.5,0.1,0.7-0.1c0.3,0,0.5-0.1,0.7-0.3C64.1,52.7,64.7,48.7,63.1,45.2z M14.4,34.1
			c5.5,3.6,11,7.1,16.7,10.5c0.4,0.2,0.9,0.2,1.1-0.2c0.3,0.2,0.6,0.2,0.9,0l16.1-10.9l0.1,14.3c-0.2,0-0.5,0.1-0.6,0.2
			c-9.7,8.6-24.5,7.9-33.3-1.6c-0.2-0.2-0.5-0.3-0.8-0.3L14.4,34.1z M49.4,51.2c-9.6,9.2-24.8,9.2-34.5,0.1
			c-0.1-0.1-0.1-0.1-0.2-0.2l-0.1-3c9.4,9.5,24.5,10.2,34.7,1.7L49.4,51.2L49.4,51.2z M32.2,42.7c-0.1,0.1-0.2,0.1-0.2,0.2
			C21.8,37,12,30.5,2.6,23.5c9-6.3,18.3-12.2,27.8-17.6L30.6,6c9.6,6.2,19.4,12.2,29.1,18.2L32.2,42.7z M60.4,41.6
			c0.5,0.6,0.8,1.3,0.9,2h-2C59.5,42.9,59.8,42.2,60.4,41.6z M60.6,54.2c-2.4-0.9-3.7-3.5-2.8-6c0.2-0.7,0.6-1.3,1.1-1.8
			c0.2-0.2,0.3-0.6,0.2-0.9h0.4l-0.7,4.6c-0.2,1.2,1.6,1.7,1.8,0.5l0.7-4.8c0,0,0,0.1,0,0.1C62.6,48.7,62.3,51.8,60.6,54.2z"/>
		<path class="st0" d="M33.6,22.4c-0.6-1.3-2.1-1.8-3.4-1.2c-0.1,0-0.2,0.1-0.3,0.2c-0.2,0.2-0.4,0.4-0.4,0.7
			c-1.2,0.4-1.8,1.7-1.4,2.8c0,0.1,0.1,0.3,0.2,0.4c0.9,1.3,2.6,1.7,3.9,1C33.6,25.6,34.2,23.9,33.6,22.4z M31.4,24.6
			c-0.4,0.3-1,0.3-1.4,0c-0.3-0.2-0.3-0.6,0.1-0.7c0.4,0,0.7-0.4,0.7-0.8c0,0,0,0,0,0l0,0C31.9,22.3,32.4,24,31.4,24.6L31.4,24.6z"
			/>
	</g>
</g>
</svg>
