<?xml version="1.0" encoding="utf-8"?>
<!-- Generator: Adobe Illustrator 20.0.0, SVG Export Plug-In . SVG Version: 6.00 Build 0)  -->
<svg version="1.1" id="Layer_1" xmlns="http://www.w3.org/2000/svg" xmlns:xlink="http://www.w3.org/1999/xlink" x="0px" y="0px"
	 viewBox="0 0 64 64" style="enable-background:new 0 0 64 64;" xml:space="preserve">
<style type="text/css">
	.st0{fill:#2C2B30;}
</style>
<title>Asset 49</title>
<g id="Layer_2">
	<g id="Layer_1-2">
		<path class="st0" d="M61.7,55.1c-1.8-4.3-4.1-8.4-6.9-12.2c-0.1-0.1-0.1-0.1-0.2-0.2l0.5-7.1c-0.5,0.3-1.1,0.3-1.6,0.2l-0.4,6.5
			h-0.2c-14.4,1.2-29,1.3-43.4,0.5c0,0,0-0.1,0-0.1c-1.6-9.9-2.3-20-2.1-30h25.7c0-0.1,0-0.1,0.1-0.2c0.2-0.5,0.5-1,0.8-1.4H6.9
			c-0.4-0.1-0.9,0.1-1,0.6c0,0.1,0,0.1,0,0.2C5.6,22.4,6.3,32.9,8,43.2c0,0,0,0,0,0.1l0,0c-2.3,4.1-5.2,8.2-7,12.5
			c-1.1,2.7-1,5.7,2,7c1.8,0.8,4,0.7,5.8,0.8c2.4,0.1,4.9,0.2,7.3,0.3c5.3,0.2,10.7,0.3,16.1,0.3c5.2,0,10.4-0.1,15.6-0.3
			c2.6-0.1,5.2-0.2,7.8-0.3c1.6,0,3.2-0.2,4.7-0.8C63.4,61.1,62.8,57.8,61.7,55.1z M60.5,60.6c-1.1,1.2-3.4,1.1-4.9,1.2
			c-7.8,0.4-15.6,0.6-23.4,0.7c-7.6,0-15.3-0.1-22.9-0.4c-1.8,0.1-3.6-0.1-5.3-0.5c-3.5-1.2-1.8-4.9-0.5-7.1
			c1.8-3.3,3.8-6.6,5.7-9.9c14.6,0.8,29.2,0.7,43.8-0.5c0.1,0,0.3-0.1,0.4-0.2c0.1,0,0.2,0.1,0.3,0.1c2,2.8,3.8,5.7,5.3,8.8
			C59.8,54.5,62.3,58.6,60.5,60.6z"/>
		<path class="st0" d="M50.4,38.9c0.1-0.5,0.2-1,0.3-1.5c-0.5,0.1-1.1,0.1-1.6-0.1c-0.1,0.4-0.1,0.8-0.2,1.2c0,0.2,0,0.5,0.2,0.6
			c-12.2,0.6-24.4,0.6-36.5-0.1l-1.3-21.2c7.3-0.3,14.6-0.4,21.9-0.3c-0.2-0.5-0.2-1.1-0.1-1.6c-7.5-0.1-15,0-22.6,0.3
			c-0.4,0-0.8,0.4-0.8,0.8c0,0,0,0,0,0c-0.1,0.1-0.1,0.3-0.1,0.4L11,39.9c0,0.5,0.4,0.8,0.9,0.8c0.1,0,0.3-0.1,0.4-0.1
			c12.5,0.7,25,0.8,37.5,0.1c0.5,0,0.8-0.4,0.8-0.9c0-0.2-0.1-0.4-0.3-0.5C50.4,39.1,50.4,39,50.4,38.9z"/>
		<path class="st0" d="M57.7,57.6c0-0.1,0-0.1,0-0.2c-0.9-3.5-4-6-4.8-9.6c0-0.2-0.1-0.3-0.2-0.4c-0.1-0.2-0.4-0.3-0.6-0.3
			c-13.6,0.6-27.2,0.6-40.8,0.3c-0.4,0-0.7,0.3-0.8,0.7c0,0.1,0,0.1,0,0.2c-2.4,2.8-4.3,6-5.8,9.4c-0.2,0.4,0,1,0.5,1.1
			c0,0,0,0,0.1,0c0.1,0.3,0.4,0.5,0.7,0.5c17.1,0.9,34.2,0.8,51.3-0.2c0.5,0,0.8-0.5,0.7-0.9C57.8,57.9,57.8,57.8,57.7,57.6z
			 M53.4,52.6c-1.4,0.1-2.8,0.1-4.2,0.2c-1.3-1.3-2.6-2.6-3.9-4c2-0.1,4.1-0.1,6.1-0.2C51.9,50,52.6,51.4,53.4,52.6L53.4,52.6z
			 M44.1,48.9c-0.2,0.3-0.2,0.7,0.1,1c0.9,1,1.9,2,2.9,3L42.7,53c-1.1-1.3-2.2-2.6-3.3-4L44.1,48.9z M28.1,49.3c0-0.1,0-0.1,0-0.2
			h3.9c0,0,0,0.1,0,0.1l1.2,3.9c-2,0-3.9,0-5.9-0.1L28.1,49.3z M11.9,48.9l2.9,0.1l-2.2,3.5l-3.3-0.2C10.1,51.1,10.9,50,11.9,48.9
			L11.9,48.9z M6.3,57.7c0.6-1.3,1.3-2.7,2.1-3.9l3.2,0.2l-2.4,3.9L6.3,57.7z M17.1,58.1c-2-0.1-4-0.1-6.1-0.2l2.4-3.8
			c1.5,0.1,3.1,0.2,4.6,0.2L17.1,58.1z M14.3,52.5l2.1-3.4c0,0,0.1-0.1,0.1-0.1h2.8l-0.9,3.7L14.3,52.5z M24.6,58.3c-2,0-4,0-6-0.1
			l1-3.8c1.9,0.1,3.9,0.1,5.8,0.2L24.6,58.3z M20,52.8l0.9-3.4c0-0.1,0-0.2,0-0.3c1.9,0,3.8,0,5.6,0L25.7,53
			C23.8,52.9,21.9,52.9,20,52.8L20,52.8z M26.3,58.3l0.8-3.7c2.2,0,4.5,0.1,6.7,0.1l1.1,3.6C31.9,58.3,29.1,58.3,26.3,58.3z
			 M33.6,49.1l4.2-0.1c-0.1,0.2,0,0.4,0.1,0.6c0.9,1.2,1.8,2.3,2.7,3.4c-1.9,0-3.9,0-5.8,0L33.6,49.1z M36.5,58.2c0,0,0-0.1,0-0.1
			l-1.2-3.4c2.2,0,4.4,0,6.7-0.1l2.9,3.4l0.1,0.1C42.1,58.1,39.3,58.2,36.5,58.2L36.5,58.2z M46,56.8l-2-2.3l4.6-0.1l3.4,3.3
			C50,57.8,48,57.9,45.9,58C46.2,57.7,46.3,57.2,46,56.8L46,56.8z M53.6,57.6c0.1-0.3,0.1-0.6-0.2-0.8l-2.6-2.4l2.9-0.1
			c0.2,0,0.4-0.1,0.5-0.2c0.7,1.1,1.3,2.3,1.8,3.5L53.6,57.6z"/>
		<path class="st0" d="M63.6,13.2C63,6.7,58.5-0.1,51.4,0.7c0-0.4-0.4-0.7-0.7-0.7c0,0,0,0,0,0C44.3,0,37.5,2.7,34.3,8.6
			c-3.2,5.5-2,12.4,2.8,16.5c1.5,1.3,3.2,2.4,5,3.2c0,0,0,0,0,0.1l0.5,6.2c-0.1,0.3-0.1,0.6,0.2,0.8c3.3,3.2,9.1,2.3,13,0.5
			c0.4,0.1,0.8-0.3,0.9-0.7c0,0,0,0,0-0.1l0.4-6.5c0-0.2,0-0.3-0.1-0.5C61.9,25.1,64.2,19,63.6,13.2z M43.7,29.1
			c0.1,0,0.3,0.1,0.4,0.1c3.7,1.4,7.7,1.3,11.3-0.1l-0.1,1.8l0,0c-3.3,2.1-7.5,2.2-10.9,0.2c-0.2-0.1-0.3-0.1-0.5-0.1L43.7,29.1z
			 M44.8,27.7L45,17.2c0.4,0.4,0.8,0.7,1.3,1c0.2,0.4,0.6,0.5,0.9,0.5l0,0c0.6,0.2,1-0.3,0.9-0.8l2.3-2.2l1.8,2.4
			c0.3,0.4,0.8,0.5,1.2,0.2c0.1,0,0.2-0.1,0.3-0.2c0.6-0.7,1.4-1.3,2.2-1.7c-1,3.7-1.7,7.6-2,11.4c-2.7,0.9-5.7,1-8.5,0.1L44.8,27.7
			z M44.2,34.6L44,32.5c3.5,1.8,7.7,1.9,11.2,0.1l-0.1,1.9C52,36,47.1,37,44.2,34.6z M55.5,27c0.4-4,1.1-7.9,2.3-11.7
			c0.1-0.4-0.1-0.8-0.6-0.9c-0.1,0-0.3,0-0.4,0c-0.1,0-0.2,0-0.3,0c-1.3,0.3-2.6,1-3.6,2l-1.7-2.2l0,0c-0.2-0.4-0.6-0.6-1-0.4
			c-0.1,0-0.2,0.1-0.3,0.2l-3,2.9c-0.8-0.5-1.4-1.1-1.9-1.9c-0.1-0.1-0.2-0.2-0.3-0.3c-0.3-0.3-0.8-0.3-1.1,0
			c-0.1,0.1-0.2,0.3-0.2,0.5l-0.2,12c-5.9-2.5-10.6-7.9-8.9-14.7C36.2,5.4,43,1.9,49.8,1.6c0,0.4,0.4,0.8,0.8,0.8c0.1,0,0.1,0,0.2,0
			c8.8-1.9,12.5,9.2,11.1,16C61.1,22,58.8,25.2,55.5,27z"/>
	</g>
</g>
</svg>
