<?xml version="1.0" encoding="utf-8"?>
<!-- Generator: Adobe Illustrator 20.0.0, SVG Export Plug-In . SVG Version: 6.00 Build 0)  -->
<svg version="1.1" id="Layer_1" xmlns="http://www.w3.org/2000/svg" xmlns:xlink="http://www.w3.org/1999/xlink" x="0px" y="0px"
	 viewBox="0 0 64 64" style="enable-background:new 0 0 64 64;" xml:space="preserve">
<style type="text/css">
	.st0{fill:#2C2B30;}
</style>
<title>Asset 8</title>
<g id="Layer_2">
	<g id="Layer_1-2">
		<path class="st0" d="M62.6,0.5c-0.2-0.2-0.4-0.3-0.7-0.3L7.6,0.3c-0.2-0.1-0.4-0.1-0.7,0C6.4,0.5,6.1,1,6.2,1.5
			c0,0.1,0.1,0.2,0.1,0.3c0.3,1.5,0.4,3,0.3,4.5c0,0,0,0.1,0,0.2L1.1,6.3c-0.1,0-0.3,0-0.4,0.1C0.2,6.4-0.1,6.8,0,7.2c0,0,0,0,0,0
			l0.4,5.2c0,0.4,0.3,0.8,0.7,0.9c0.2,0.2,0.4,0.4,0.7,0.3l4-0.1c0,0.1,0,0.2,0,0.4c0.2,2.3,0.1,4.5-0.3,6.8c0,0.1,0,0.1,0,0.2
			l-4.5-0.2c-0.1,0-0.3,0-0.4,0.1c-0.4,0.1-0.7,0.5-0.7,0.9c0,0,0,0,0,0l0.4,5.2c0,0.4,0.3,0.8,0.7,0.9c0.2,0.2,0.4,0.4,0.7,0.3
			L5.8,28c0,0,0,0,0,0.1c0.2,2.4,0.2,4.8,0,7.2l-4.7-0.2c-0.1,0-0.3,0-0.4,0.1C0.2,35.2-0.1,35.6,0,36c0,0,0,0,0,0l0.4,5.2
			c0,0.4,0.3,0.8,0.7,0.9c0.2,0.2,0.4,0.4,0.7,0.3l4.3-0.1l-0.5,7.3l-4.6-0.2c-0.1,0-0.3,0-0.4,0.1C0.2,49.6-0.1,50,0,50.4
			c0,0,0,0,0,0l0.4,5.2c0,0.4,0.3,0.8,0.7,0.9c0.2,0.2,0.4,0.4,0.7,0.3L6,56.8l0,0L6.1,62c0,0.2,0.1,0.4,0.2,0.5
			c0.1,0.4,0.5,0.7,0.9,0.6l54.8-0.1H62c0.3,0.5,0.9,0.7,1.4,0.4c0.3-0.1,0.5-0.4,0.5-0.7L64,1.4c0-0.6-0.5-1-1.1-0.9
			C62.8,0.5,62.7,0.5,62.6,0.5z M2.3,11.7L2,8.2l7.6,0.3l0.1,3L2.3,11.7z M2.3,26.1L2,22.6l7.6,0.3l0.1,3L2.3,26.1z M2.3,40.6L2,37
			l3.8,0.2c0.4,0.6,1.4,0.8,1.7,0.1l2.2,0.1l0.1,3L2.3,40.6z M2,51.4l7.6,0.3l0.1,3L2.3,55L2,51.4z M62,61.2L62,61.2L8,61.3
			l-0.1-4.5c0,0,0,0,0-0.1l2.7-0.1c0.5,0,0.9-0.4,0.9-0.9c0.1-0.2,0.2-0.4,0.2-0.6l-0.1-3.8c0.3-0.5,0.1-1.1-0.3-1.4
			c-0.1-0.1-0.3-0.1-0.5-0.1l-3.2-0.1l0.5-7.5h2.5c0.5,0,0.9-0.4,0.9-0.9c0.1-0.2,0.2-0.4,0.2-0.6L11.5,37c0.3-0.5,0.1-1.1-0.3-1.4
			c-0.1-0.1-0.3-0.1-0.5-0.1l-3.1-0.2c0.2-2.4,0.2-4.9,0-7.3c0,0,0-0.1,0-0.1l3-0.1c0.5,0,0.9-0.4,0.9-0.9c0.1-0.2,0.2-0.4,0.2-0.6
			l-0.1-3.8c0.3-0.5,0.1-1.1-0.3-1.4c-0.1-0.1-0.3-0.1-0.5-0.1l-3.3-0.1c0.4-2.3,0.5-4.7,0.3-7c0-0.1-0.1-0.3-0.1-0.4l2.9-0.1
			c0.5,0,0.9-0.4,0.9-0.9c0.1-0.2,0.2-0.4,0.2-0.6l-0.1-3.8c0.3-0.5,0.1-1.1-0.3-1.4c-0.1-0.1-0.3-0.1-0.5-0.1L8.5,6.6
			c0-0.1,0-0.2,0-0.2c0.1-1.4,0-2.8-0.2-4.1l53.6-0.1h0.2C62,21.9,62,41.5,62,61.2L62,61.2z"/>
		<path class="st0" d="M58.1,5.5c-0.2-0.1-0.3-0.2-0.5-0.2L44.7,4.6c-0.3,0-0.6,0.1-0.8,0.4c-0.5-0.1-1,0.2-1.1,0.8
			c0,0.1,0,0.1,0,0.2l-0.3,14.5c0,0.3,0.2,0.7,0.5,0.8c0.2,0.2,0.4,0.3,0.6,0.3c4.7,0.2,9.4-0.1,14.1-0.7c0.3,0,0.5-0.2,0.7-0.4
			c0.4-0.1,0.6-0.5,0.6-0.9l0.1-13.2c0-0.5-0.4-0.9-0.9-0.9C58.2,5.5,58.2,5.5,58.1,5.5z M44.5,19.7l0.2-13.1l0,0l12.5,0.7
			c0,3.9,0,7.9-0.1,11.8C52.9,19.6,48.7,19.8,44.5,19.7z"/>
		<path class="st0" d="M36.7,26.3l-17.9,0.1c-0.5,0.2-0.8,0.7-0.7,1.3c0.1,0.3,0.3,0.6,0.7,0.7l17.9-0.1c0.5-0.2,0.8-0.7,0.7-1.3
			C37.2,26.7,37,26.4,36.7,26.3z"/>
		<path class="st0" d="M53.7,35.2H19.3c-0.5,0.2-0.8,0.7-0.7,1.3c0.1,0.3,0.3,0.6,0.7,0.7h34.3c0.5-0.2,0.8-0.7,0.7-1.3
			C54.3,35.6,54,35.3,53.7,35.2z"/>
		<path class="st0" d="M53.7,44H19.3c-0.5,0.2-0.8,0.7-0.7,1.3c0.1,0.3,0.3,0.6,0.7,0.7h34.3c0.5-0.2,0.8-0.7,0.7-1.3
			C54.3,44.4,54,44.1,53.7,44z"/>
		<path class="st0" d="M53.7,52.8H19.3c-0.5,0.2-0.8,0.7-0.7,1.3c0.1,0.3,0.3,0.6,0.7,0.7h34.3c0.5-0.2,0.8-0.7,0.7-1.3
			C54.3,53.2,54,52.9,53.7,52.8z"/>
	</g>
</g>
</svg>
