<?xml version="1.0" encoding="utf-8"?>
<!-- Generator: Adobe Illustrator 20.0.0, SVG Export Plug-In . SVG Version: 6.00 Build 0)  -->
<svg version="1.1" id="Layer_1" xmlns="http://www.w3.org/2000/svg" xmlns:xlink="http://www.w3.org/1999/xlink" x="0px" y="0px"
	 viewBox="0 0 64 64" style="enable-background:new 0 0 64 64;" xml:space="preserve">
<style type="text/css">
	.st0{fill:#2C2B30;}
</style>
<title>Asset 33</title>
<g id="Layer_2">
	<g id="Layer_1-2">
		<path class="st0" d="M35.9,16.2l-4.2-1.6c-0.3-0.1-0.6-0.1-0.8,0.2c-0.2,0-0.4,0.1-0.6,0.2l-3.1,2.6c-0.8,0.7,0.4,1.9,1.2,1.2
			l2.2-1.9c0.3,4.2,0.2,8.4-0.3,12.6c0,0,0,0,0,0.1l-5.2,9.4l-2.2-2.8c-0.7-0.9-1.9,0.3-1.2,1.2l2.8,3.7c0.1,0.1,0.2,0.2,0.4,0.3
			c0.2,0.2,0.4,0.4,0.7,0.3l5-0.2c1.1,0,1.1-1.8,0-1.7l-4,0.2l5.6-10c0.2-0.3,0.2-0.6,0-0.9c0.5-4.1,0.6-8.2,0.2-12.3l3.1,1.2
			C36.4,18.2,36.9,16.6,35.9,16.2z"/>
		<path class="st0" d="M56.5,3.5c-3.9-3.9-11.9-5.4-14,1C38.9,2.6,34.7,2,30.6,2.7h-0.1C28,2.8,25.5,3.3,23,4.1
			C21.6-3.2,12,0.9,8.2,3.6C3.9,6.7,1,14.2,7.2,17c0.1,0,0.1,0,0.2,0.1c-0.6,1.2-1.2,2.5-1.6,3.8c-3.6,10.8-0.2,22.7,8.6,29.9
			l0.8,0.6l-1.5,6.8c-0.2,0-0.4,0.2-0.5,0.4h-0.1c-1.4,0.5-2.2,1.9-1.9,3.3c0.4,1.4,1.9,2.3,3.4,2c1.4-0.3,2.4-1.7,2.3-3.2
			c-0.1-0.7-0.4-1.3-0.9-1.8l4.2-4.8c7.2,3.2,15.4,3.2,22.5-0.2l3.2,5.3c0,0.1,0.1,0.1,0.2,0.2c-0.6,0.7-0.8,1.6-0.6,2.5
			c0.4,1.4,1.9,2.3,3.4,2c1.4-0.3,2.4-1.7,2.3-3.2c-0.2-1.5-1.5-2.6-3-2.6L47.7,51c7.9-6.1,11.8-16.2,9.9-26c-0.5-2.8-1.5-5.5-2.8-8
			h0.1c2.8,0,5.2-2.2,5.4-5C60.8,8.8,58.7,5.7,56.5,3.5z M14.4,62.2c-1.3,0.5-2.1-1.5-0.8-2c0.2-0.1,0.3-0.2,0.4-0.4
			c0.7-0.1,1.3,0.3,1.4,1S15.1,62.1,14.4,62.2L14.4,62.2z M9.8,4.6c2.9-1.9,10.6-5.7,11.6,0.1l0,0c-5.4,2.1-10,6-13.1,10.9
			c-0.1,0-0.1-0.1-0.2-0.1C2.6,13.1,6.3,6.9,9.8,4.6z M15.8,56.7l1-4.3c0.6,0.4,1.3,0.7,1.9,1.1L15.8,56.7z M48.6,62.2
			c-1.3,0.5-2.1-1.5-0.8-2c0.2-0.1,0.3-0.2,0.4-0.4c0.7-0.1,1.3,0.3,1.4,1S49.3,62.1,48.6,62.2L48.6,62.2z M46.4,56.6l-2-3.4
			c0.4-0.3,0.9-0.5,1.3-0.8l0.4-0.2L46.4,56.6z M55.4,22.9c3.9,13.3-3.8,27.2-17.1,31c-6.5,1.9-13.5,1.1-19.4-2.3
			c-0.6-0.4-1.3-0.8-1.9-1.2c-0.1-0.2-0.3-0.3-0.5-0.4C8.6,44.2,4.7,34.3,6.6,24.6c2.2-11.7,13-20,24.8-20.2c0.2,0,0.4-0.1,0.5-0.2
			C43,2.8,52.5,12.9,55.4,22.9L55.4,22.9z M54.9,15.2c-0.3,0-0.6,0.2-0.7,0.5c-2.4-4.3-5.8-7.8-10-10.4c1.4-5,7.5-4,10.6-1.2
			c1.3,1.1,2.3,2.5,3.1,4C59.1,10.7,58.9,15.2,54.9,15.2L54.9,15.2z"/>
	</g>
</g>
</svg>
