<?xml version="1.0" encoding="utf-8"?>
<!-- Generator: Adobe Illustrator 20.0.0, SVG Export Plug-In . SVG Version: 6.00 Build 0)  -->
<svg version="1.1" id="Layer_1" xmlns="http://www.w3.org/2000/svg" xmlns:xlink="http://www.w3.org/1999/xlink" x="0px" y="0px"
	 viewBox="0 0 64 64" style="enable-background:new 0 0 64 64;" xml:space="preserve">
<style type="text/css">
	.st0{fill:#2C2B30;}
</style>
<title>Asset 61</title>
<g id="Layer_2">
	<g id="Layer_1-2">
		<path class="st0" d="M60.8,13.1c0-0.3-0.2-0.6-0.5-0.7c-0.1-0.3-0.4-0.4-0.7-0.4c-7.4,0.4-14.8,0.5-22.3,0.6c0-0.1,0-0.2,0-0.3V8
			c0-0.3-0.2-0.5-0.4-0.7c0-0.3-0.3-0.6-0.6-0.6c-0.5-0.1-1.1-0.1-1.6-0.2l0,0l-0.1-5.5c0-0.1,0-0.2,0-0.3c0-0.4-0.4-0.7-0.8-0.7
			L29.6,0c-0.2,0-0.4,0-0.5,0.2c-0.3,0.1-0.5,0.4-0.5,0.7c-0.1,2-0.2,4-0.2,6h-1c-0.3,0-0.5,0.1-0.6,0.3c-0.2,0.1-0.3,0.4-0.3,0.6
			l-0.2,4.8c-7.2-0.1-14.3-0.4-21.6-0.5c-0.4,0-0.8,0.3-0.8,0.8c0,0.2,0,0.3,0.1,0.4l0,0C3.4,24.5,2.2,36,3.5,47.2
			C3.5,47.7,4,48,4.5,48c0.1,0,0.2-0.1,0.3-0.1l9.5,0.3c-0.1,0.1-0.2,0.2-0.3,0.4L8.7,61.7c-0.2,0.6,0.2,0.9,0.7,1
			c0.1,0.1,0.2,0.1,0.3,0.2l2.4,0.8c0.2,0.4,0.7,0.5,1.1,0.2c0.4-0.1,0.6-0.6,0.5-1l6.2-13.9c0.1-0.3,0.1-0.6-0.1-0.8
			c3.3,0.1,6.6,0.1,9.9,0.2c0,0,0,0.1,0,0.1l-0.3,9.3c0,0.4,0.3,0.8,0.7,0.8c0,0,0,0,0.1,0c0.1,0.2,0.4,0.3,0.6,0.3h3.3
			c0.5,0,0.8-0.4,0.8-0.9c0-0.2-0.1-0.4-0.3-0.6l0.3-9c0,0,0,0,0-0.1c2.6,0,5.3,0,7.9,0c0,0.2,0,0.4,0.2,0.5c3,3.9,5.3,8.2,6.8,12.9
			c0.1,0.3,0.3,0.5,0.6,0.5c0.3,0.2,0.6,0.2,0.8,0l2.9-1.8c0.1-0.1,0.2-0.1,0.2-0.2c0.3-0.2,0.4-0.5,0.3-0.8c0,0,0,0,0,0L50,48.3
			c3.2-0.1,6.4-0.2,9.6-0.4c0.2,0,0.4-0.1,0.6-0.3c0.3-0.1,0.5-0.4,0.5-0.7C61.2,35.6,61.2,24.4,60.8,13.1z M30.2,1.6l2.9,0.1
			l0.1,4.8l0,0c-0.3,0-0.5,0-0.8,0.1c-0.8,0.1-1.6,0.2-2.3,0.2C30,5.1,30,3.4,30.2,1.6z M28.1,8.5c1.1,0.1,2.1,0.1,3.2,0
			c1.5-0.3,3-0.3,4.5-0.2V9L28,9.6L28.1,8.5z M28,11.3l7.8-0.6v1.7c0,0.1,0,0.2,0,0.3c-2.6,0-5.3,0-7.9-0.1L28,11.3z M18.4,48.3
			L12.3,62l-1.8-0.6l5.1-12.5c0.1-0.3,0.1-0.6-0.2-0.8L18.4,48.3L18.4,48.3z M33.3,48.5L33,57.3h-2l0.3-8.8c0,0,0-0.1,0-0.1
			L33.3,48.5C33.2,48.4,33.3,48.5,33.3,48.5L33.3,48.5z M52.9,59.5l-1.8,1.1c-1.5-4.4-3.7-8.5-6.5-12.2l3.7-0.1L52.9,59.5z
			 M59.1,46.3c-18,0.9-36.1,0.5-54.1-0.1C3.9,35.4,5,24.4,5.6,13.6c17.9,0.5,35.7,1,53.6,0.1C59.6,24.6,59.6,35.4,59.1,46.3
			L59.1,46.3z"/>
		<path class="st0" d="M19.9,22.9c-0.1-0.3-0.4-0.5-0.7-0.5c-0.3-0.3-0.8-0.2-1.1,0.1c0,0-0.1,0.1-0.1,0.1c-2.4,4.4-4.3,9.1-5.6,14
			c-0.1,0.4,0.2,0.9,0.6,1c0.4,0.1,0.8-0.1,0.9-0.5c0.5-1.6,1-3.2,1.5-4.7c1.7,0.3,3.5,0.4,5.3,0.2c0.2,1.4,0.4,2.7,0.4,4.1
			c0.1,1,1.7,1,1.6,0C22.6,31.9,21.6,27.3,19.9,22.9z M16.1,30.7c0.8-2.1,1.7-4.1,2.8-6.1c0.7,2,1.3,4.1,1.7,6.3
			C19,31,17.6,30.9,16.1,30.7L16.1,30.7z"/>
		<path class="st0" d="M34.6,29.5c1.6-0.6,2.6-2.3,2.3-4c-0.4-3.7-4.8-4.1-7.6-3.2c-0.3,0.1-0.6,0.4-0.6,0.8c0,0,0,0.1,0,0.1
			c0,4.6,0,9.2,0,13.7c0,0.5,0.4,0.8,0.8,0.8c0.2,0,0.5-0.1,0.6-0.3c2.9,0.4,8,0.2,8.1-3.7C38.3,31.2,36.6,30,34.6,29.5z M30.3,23.7
			c1.9-0.4,5-0.4,5,2.2s-3.1,2.9-5,3C30.3,27.2,30.3,25.4,30.3,23.7z M30.4,35.9L30.4,35.9c-0.1-1.7-0.1-3.4-0.1-5.1
			c2.1-0.2,5.6-0.3,6.2,2.3C37.3,36.3,32.2,36.2,30.4,35.9z"/>
		<path class="st0" d="M49.3,33.8c-1,1.8-2.9,1.7-4.4,0.7c-1.3-0.9-1.6-2.9-1.7-4.3c-0.1-2.4,2-9.4,5.6-5.5c0.7,0.8,1.8-0.4,1.1-1.1
			c-1.5-1.7-4-1.9-5.7-0.5c-2.4,1.8-2.9,5.3-2.6,8c0.3,2.3,1.4,4.7,3.7,5.6c2,0.8,4.3-0.1,5.3-2C51.2,33.7,49.8,32.9,49.3,33.8z"/>
	</g>
</g>
</svg>
