<svg xmlns="http://www.w3.org/2000/svg" viewBox="0 0 64 64"><defs><style>.cls-1{fill:#2c2b30;}</style></defs><title>Asset 26</title><g id="Layer_2" data-name="Layer 2"><g id="Layer_1-2" data-name="Layer 1"><path class="cls-1" d="M40.22,21.31,33.73,13.9a.82.82,0,0,0-1.33-.83L24.15,21a.75.75,0,0,0,.07,1.16.76.76,0,0,0,.73.57l3.49.12-.25,11.88a.73.73,0,0,0,.76.77.79.79,0,0,0,.36.07l7-.13A.82.82,0,0,0,37,34.1.89.89,0,0,0,37,34c-.14-3.75-.36-7.51-.38-11.27l3.26.09A.8.8,0,0,0,40.22,21.31Zm-4.45-.22a.7.7,0,0,0-.7.43.78.78,0,0,0-.1.39c0,4,.23,7.95.38,11.91l-5.54.1.25-11.73a.72.72,0,0,0-.22-.56.76.76,0,0,0-.67-.4l-2.88-.1,6.33-6.07L38,21.15Z"/><path class="cls-1" d="M37,41.43l-.24-3.33A.8.8,0,0,0,36,37l-7,0a.72.72,0,0,0-.67.38.65.65,0,0,0-.24.61l.31,3a.81.81,0,0,0,.6,1.32l7,0a.75.75,0,0,0,.48-.16A.66.66,0,0,0,37,41.43Zm-7.23-2.89,5.42,0,.16,2.14-5.35,0Z"/><path class="cls-1" d="M63.93,27.29C63.1,20,55.55,16.5,49.18,18.62A12.42,12.42,0,0,0,47.45,6.13C43.77,1.42,37.5-.41,31.73.07,25.79.57,18.88,2.93,14.67,7.32a16.18,16.18,0,0,0-4.23,13.42C4.66,20.06-.47,25.25,0,31.26c.63,7.6,8,11.7,15,11,0,.88.08,1.76.1,2.62l.25,12.6a5,5,0,0,0-.07,1.21c.35,5.68,7.58,5.36,11.56,5.28L49.5,63.5A.82.82,0,0,0,49.85,62l-.23-6.63a.83.83,0,0,0-.05-1.5l-.49-14.3c3.74-.17,7.71-.54,10.8-2.82A10.38,10.38,0,0,0,63.93,27.29Zm-47.29,12c-.05-2.82-.65-6.53,1.39-8.8a6.41,6.41,0,0,1,3.93-2c-2.63,1.83-3.76,5-3.94,8.21-.32,5.64.62,11.52,1,17.15a.9.9,0,0,0,0,.16,7.08,7.08,0,0,0-2.13,1Zm16.41,23c-2.74.06-5.48.14-8.23.17-2.91,0-7,.07-7.65-3.5-1-5.41,12.53-4.27,15.81-4.28,5,0,10,.21,15,.63l0,.57-12.51.28a.8.8,0,0,0,0,1.6l12.57-.29,0,.93a89,89,0,0,1-21.85,1c-1-.08-1,1.52,0,1.6a90.66,90.66,0,0,0,21.9-1l.07,2ZM49,37.92,48.73,29a.79.79,0,0,0-.14-.43.84.84,0,0,0-.76-.93,52.88,52.88,0,0,0-10.38.14l-.17,0-1.45,0a.8.8,0,0,0,0,1.6l1.39,0v0a52.88,52.88,0,0,1,9.92-.21L48,53.65a175,175,0,0,0-21.1-.49,42.92,42.92,0,0,0-6.23.44c-.31-4.43-.67-8.85-.94-13.28-.25-4.18-.1-9.1,4.24-11.15a.66.66,0,0,0,.38-.82,31.22,31.22,0,0,1,4,.51h.19s0-.05,0-.08l.16,0a.8.8,0,0,0,0-1.6.81.81,0,0,0-.31.06h0c-5.49-.9-12.25-.66-13.23,6.18A38.45,38.45,0,0,0,15,40.66c-5.7.54-11.73-2.12-13.13-8.15C.54,26.86,5.18,21.38,10.79,22.43a.75.75,0,0,0,1,.24l.41.14c1,.36,1.38-1.19.43-1.54l-.49-.16c-2-11.14,8.4-17.86,18.3-19.26,5-.71,10.44.21,14.31,3.7a10.87,10.87,0,0,1,2.15,14,.71.71,0,0,0-.12.52.82.82,0,0,0,1.19.85c6-3.37,14.54.08,14.46,7.63S55,37.57,49,37.92Z"/></g></g></svg>