<?xml version="1.0" encoding="utf-8"?>
<!-- Generator: Adobe Illustrator 20.0.0, SVG Export Plug-In . SVG Version: 6.00 Build 0)  -->
<svg version="1.1" id="Layer_1" xmlns="http://www.w3.org/2000/svg" xmlns:xlink="http://www.w3.org/1999/xlink" x="0px" y="0px"
	 viewBox="0 0 64 64" style="enable-background:new 0 0 64 64;" xml:space="preserve">
<style type="text/css">
	.st0{fill:#2C2B30;}
</style>
<title>Asset 15</title>
<g id="Layer_2">
	<g id="Layer_1-2">
		<path class="st0" d="M50.6,14.4c0-4.2-2.7-6.6-6.7-7.6C40.1,5.7,36,6.9,33.4,9.9c-2.4,2.9-2.2,7.1,0.3,9.8l0.1,0.1
			c0.1,0.4,0.4,0.6,0.8,0.5c0.1,0,0.3-0.1,0.4-0.2c0.7-0.9,1.7-1.6,2.8-2c0.3-0.1,0.5-0.4,0.5-0.7c0.2-0.3,0.1-0.6,0-0.9
			c-1.2-1.6,0.3-3.5,2.1-3.4c1.4,0.1,2.5,1.1,2.9,2.4c0.8,2.5-1.1,4.7-3.2,5.6c-0.2,0.1-0.4,0.3-0.4,0.5c-0.1,0.1-0.1,0.2-0.1,0.4
			l-0.2,5.6c0,0.4,0.2,0.7,0.6,0.7c0.1,0,0.1,0,0.1,0c0.1,0.1,0.2,0.1,0.4,0.1l4.4-0.2c0.2,0,0.4-0.1,0.5-0.2c0.4,0,0.7-0.2,0.7-0.6
			c0,0,0-0.1,0-0.1l-0.1-3.4C49.7,22.6,50.6,18.1,50.6,14.4z M44.9,22.6c-0.3,0.1-0.6,0.4-0.5,0.7c0,0,0,0.1,0,0.1
			c-0.1,0.1-0.1,0.2-0.1,0.4l0.1,2.9l-3.8,0.2l0.2-4.6c3.7-1.8,5.7-7.4,1.6-9.9c-3.3-2-7.5,1.3-5.6,4.6c-0.8,0.4-1.6,0.9-2.3,1.5
			c-2-2.5-1.8-6,0.5-8.2c2.3-2.1,5.5-2.9,8.5-2c3.3,0.8,5.6,2.7,5.6,6.3C49.2,17.6,48.5,21.8,44.9,22.6z"/>
		<path class="st0" d="M46.3,32.7c-0.6-1.6-2.5-3.9-4.4-3.2c-1.8,0.2-3.1,1.7-3.2,3.4c0,2.3,1.8,4.1,4,4.2c0,0,0.1,0,0.1,0
			C45.3,37.1,47.2,35,46.3,32.7z M42.4,35.6c-1.2-0.2-2.1-1.2-2.2-2.4c-0.1-0.9,0.4-1.7,1.2-2.1c0.2,0.1,0.5,0.1,0.7-0.1
			c0.1-0.1,0.3-0.2,0.4-0.2c0.1,0,0.3,0,0.4,0c0.1,0,0.2,0,0.2,0c0.9,0.5,1.6,1.3,1.9,2.2C45.5,34.8,43.9,35.9,42.4,35.6z"/>
		<path class="st0" d="M62.5,11.6c-1.3-3.7-3.6-7.2-7.1-9.2C51.5,0.3,46.6-0.2,42.3,0c-8.2,0.4-18.5,4-22.8,11.5
			c-1.5,2.7-2.3,5.7-2.3,8.8c-7.5,0.1-13.9,5.1-16,12.3c-2.4,7.8,0.3,15.8,5.4,21.8c-0.1,3.9,2,7.6,5.5,9.4c0.3,0.2,0.7,0.1,1-0.1
			c0.6,0.1,1.4-0.5,0.9-1.2c-0.9-1.3-1.5-2.7-1.7-4.3c4.9,3.7,12.6,2.2,17.7-0.3c6.3-3.2,10.9-9,12.5-15.9c3.2-0.4,6.4-1,9.5-1.9
			c0.6,2.1,0.3,4.4-0.8,6.3c0,0.6,0.5,1.1,1.1,1.1c0.2,0,0.3,0,0.5-0.1c4.7-2.6,7.1-7.9,6-13.1C63.6,27.9,65.1,19.4,62.5,11.6z
			 M30.6,55.7c-4.9,2.9-13.6,5.1-18.2,0.6c-0.1-0.1-0.3-0.2-0.5-0.2c-0.4-0.3-0.9-0.2-1.2,0.2c-0.1,0.1-0.1,0.3-0.2,0.4
			c-0.1,1.7,0.1,3.3,0.8,4.9c-2.2-1.7-3.4-4.4-3.3-7.2c0-0.3-0.1-0.5-0.3-0.8C3.2,48.2,0.6,41,2.4,33.9C4.2,27.1,10,22,17.1,22
			c0.1,5.3,2.1,10.5,5.5,14.6c4.5,5,11.3,6.1,18,5.6C39.2,47.8,35.6,52.7,30.6,55.7z M53.5,44.9c0.5-1.9,0.4-3.9-0.2-5.7
			c-0.1-0.3-0.4-0.5-0.7-0.5c-0.2-0.2-0.5-0.2-0.7-0.2c-9.5,2.6-23.1,4.7-29.5-4.8c-3-4.4-3.9-10.3-3.3-15.6
			c0.7-5.8,4.4-9.7,9.3-12.4c4.5-2.5,9.6-3.9,14.8-4c5.1-0.1,11,0.7,14.5,4.7c6.6,7.6,5.5,19.8-0.5,27.3c-0.2,0.2-0.2,0.5-0.2,0.8
			c0,0,0,0.1,0,0.2C57.9,38.4,56.5,42.4,53.5,44.9L53.5,44.9z"/>
		<path class="st0" d="M10.5,38.7c-0.1-0.1-0.3-0.1-0.5-0.1c-1.8,0-3.3,1.5-3.3,3.3s1.5,3.3,3.3,3.3c1.7,0,3.1-1.4,3.2-3.2
			C13.2,40.4,12.1,39,10.5,38.7z M10,43.5c-0.9,0-1.6-0.7-1.6-1.6c0-0.7,0.5-1.4,1.2-1.6h0.2C12,40.2,12.2,43.5,10,43.5L10,43.5z"/>
		<path class="st0" d="M18.9,38.7c-0.1-0.1-0.3-0.1-0.5-0.1c-1.8,0-3.3,1.5-3.3,3.3s1.5,3.3,3.3,3.3c1.7,0,3.2-1.4,3.2-3.2
			C21.7,40.4,20.5,39,18.9,38.7z M18.4,43.5c-0.9,0-1.6-0.7-1.6-1.6c0-0.7,0.5-1.4,1.2-1.6h0.2C20.4,40.2,20.6,43.5,18.4,43.5
			L18.4,43.5z"/>
		<path class="st0" d="M27.2,38.7c-0.1-0.1-0.3-0.1-0.5-0.1c-1.8,0-3.3,1.5-3.3,3.3s1.5,3.3,3.3,3.3c1.7,0,3.1-1.4,3.2-3.2
			C30,40.4,28.8,39,27.2,38.7z M26.7,43.5c-0.9,0-1.6-0.7-1.6-1.6c0-0.7,0.5-1.4,1.2-1.6h0.2C28.7,40.2,28.9,43.5,26.7,43.5
			L26.7,43.5z"/>
	</g>
</g>
</svg>
