<?xml version="1.0" encoding="utf-8"?>
<!-- Generator: Adobe Illustrator 20.0.0, SVG Export Plug-In . SVG Version: 6.00 Build 0)  -->
<svg version="1.1" id="Layer_1" xmlns="http://www.w3.org/2000/svg" xmlns:xlink="http://www.w3.org/1999/xlink" x="0px" y="0px"
	 viewBox="0 0 64 64" style="enable-background:new 0 0 64 64;" xml:space="preserve">
<style type="text/css">
	.st0{fill:#2C2B30;}
</style>
<title>Asset 25</title>
<g id="Layer_2">
	<g id="Layer_1-2">
		<path class="st0" d="M61.2,16.8c0-0.1,0-0.1,0-0.2c0.2-0.5-0.1-1-0.6-1.1c-2.3-1-4.5-2.3-6.5-3.8c-0.1-0.1-0.3-0.1-0.5-0.1
			c-0.1-2.1-0.1-4.1-0.2-6.2c0-0.1,0-0.1,0-0.2c0.1-0.5-0.1-0.9-0.6-1.1c-2.3-1-4.5-2.3-6.5-3.9C46-0.1,45.6,0,45.4,0.2h-0.1
			c-2.5,1.4-4.7,3.1-6.6,5.2c0,0-0.1,0.1-0.1,0.2c-0.3,0.1-0.5,0.4-0.5,0.8l0.4,7c0,0.1,0,0.1,0,0.2c0,0,0,0,0,0.1
			c-2.4,1.3-4.5,3.1-6.3,5.1c0,0-0.1,0.1-0.1,0.1c-0.3,0.1-0.5,0.4-0.5,0.8l0.4,6.1c-2.3-1.5-5-2.4-7.8-2.6c0-3,0-6.1,0-9.1l2.6,0.1
			c0.4,0,0.8-0.2,0.8-0.6c0,0,0,0,0-0.1c0.2-0.2,0.3-0.4,0.2-0.6l-0.4-4.5c-0.1-0.5-0.5-0.9-1-0.8c0,0,0,0,0,0
			c-0.1-0.1-0.3-0.1-0.4-0.1C21.6,7,17.2,7,12.8,7.5c-0.5-0.2-1,0-1.1,0.5c0,0.1-0.1,0.2-0.1,0.3l-0.2,4.6c0,0.3,0.1,0.6,0.4,0.7
			c0.1,0.3,0.4,0.5,0.7,0.5l2.1-0.1c0,3.1,0,6.3,0,9.4C6,26.7,1.1,35.8,3.1,44.8c0.9,4.3,3.3,8.2,7.4,10c5,2.2,10.9,2.9,16.3,3
			c0.1,0.6,0.2,1.3,0.3,1.9c0.2,0.4,0.7,0.7,1.1,0.5c0.4-0.1,0.6-0.5,0.5-0.9c-0.9-3,0-6.2,2.3-8.3c5.3,3.4,10.6,7.3,16.5,9.5
			c-0.4,0.8-0.8,1.6-1.3,2.3c-0.6,0.9,0.8,1.7,1.5,0.9c2.7-3.6,3.4-8.4,1.9-12.6c-0.4-1-0.9-2-1.4-3c5.4-1.1,9.8-4.9,11.7-10.1
			c0.4-1-1.3-1.5-1.6-0.5c-0.5,1.4-1.3,2.7-2.2,3.9c-3-2.3-6.5-3.9-10.2-4.9c0.3-0.9,0.8-1.7,1.3-2.4c0.6-0.9-0.8-1.7-1.5-0.8
			c-2.8,4-2.7,8.5-0.6,12.7c0.1,0.3,0.3,0.5,0.4,0.8c-2.2,0.1-4.5,0-6.8,0.1c1.9-5.3,1.8-11.1-0.4-16.3c0.5,0.2,1,0.4,1.5,0.5
			c0.2,0.1,0.5,0,0.7-0.1l0.2-0.1l5.9-4.3c0.1-0.1,0.2-0.2,0.3-0.3h0.1c2.2,1.3,4.6,2.4,7.1,3.2c0.2,0.1,0.5,0,0.7-0.1l0.2-0.1
			l5.9-4.3c0.1-0.1,0.2-0.2,0.3-0.3c0.3-0.1,0.4-0.4,0.4-0.7L61.2,16.8z M25.8,9l0,0.6c-4.2-0.3-8.5-0.2-12.7,0.3V9.1
			C17.4,8.8,21.6,8.7,25.8,9z M15.4,24.8c0.2-0.1,0.3-0.2,0.4-0.3c0.3-0.1,0.6-0.4,0.5-0.8c0-3.3,0-6.7,0-10.1
			c0.4-0.3,0.5-0.8,0.2-1.2c-0.2-0.2-0.4-0.3-0.7-0.3L13,12.3v-0.8c4.3-0.5,8.6-0.6,12.9-0.3l0.1,1l-2.6-0.1c-0.4,0-0.7,0.2-0.8,0.6
			c-0.1,0.1-0.2,0.3-0.1,0.5c0,3.4,0,6.9,0,10.3c0,0.4,0.3,0.8,0.8,0.8c0,0,0,0,0,0c0.1,0.2,0.4,0.3,0.6,0.3
			c2.8,0.2,5.6,1.1,7.8,2.8c0.2,0.1,0.4,0.2,0.6,0.1c0,0,0.1,0.1,0.1,0.1c1.1,0.7,2.2,1.2,3.4,1.8l0,0c0.9,1.6,1.5,3.3,1.9,5.1
			l-0.1,0.1c-2.8,3.1-6.2,5.6-10.4,6.4c-4.6,0.8-8.2-1.3-12.3-2.8c-3.4-1.2-8.2-1.2-10.6,1.5C4.9,33,9.1,27.2,15.4,24.8z M45.4,38.1
			c3.4,0.9,6.6,2.5,9.5,4.6c-0.4,0.4-0.8,0.8-1.3,1.2c-0.1-0.1-0.1-0.1-0.2-0.2l-8.1-3.8C45.2,39.2,45.3,38.6,45.4,38.1L45.4,38.1z
			 M45.4,41.7l6.6,3.1c-0.8,0.5-1.7,0.9-2.6,1.2c-0.7,0.2-1.4,0.4-2.1,0.5c-0.4-0.7-0.8-1.5-1.1-2.2C45.8,43.5,45.6,42.6,45.4,41.7
			L45.4,41.7z M46.3,48.2c0.9,1.6,1.6,3.2,2.1,5c-3.3-1.5-6.5-3.1-9.7-4.9C41.3,48.3,43.8,48.5,46.3,48.2L46.3,48.2z M48.5,55.2h0.1
			c0,1.3-0.1,2.5-0.5,3.7c-5.6-2.1-10.7-5.8-15.7-9c0.6-0.4,1.3-0.7,2-0.9c0.6-0.2,1.1-0.3,1.7-0.4c0.1,0.2,0.2,0.3,0.4,0.4
			C40.5,51.3,44.5,53.3,48.5,55.2L48.5,55.2z M36.9,46.8L36.9,46.8l-0.6,0.1c-5.1,0.8-9.1,4.3-9.5,9.1c-4.2,0-8.4-0.6-12.5-1.8
			c-4.9-1.4-8-4-9.4-9.1c-0.2-0.6-0.3-1.2-0.4-1.8c0-0.1,0-0.1,0-0.2c0.5-5.3,7-4.5,10.4-3.2c2.9,1.1,5.5,2.6,8.6,2.9
			c5.6,0.5,10.7-2.3,14.5-6.2C38.6,40.1,38.1,43.6,36.9,46.8z M39.9,29.2c-2.1-0.7-4.2-1.6-6.1-2.7l-0.4-6.5l0.1-0.1
			c1.7-1.9,3.7-3.5,5.9-4.8c1.8,1.3,3.8,2.5,5.9,3.4l0.2,6.6L39.9,29.2z M46.3,16c-2.1-0.7-4.2-1.6-6.1-2.7l-0.4-6.6l0.1-0.1
			c1.7-1.9,3.7-3.5,5.9-4.8c1.8,1.3,3.8,2.5,5.9,3.4l0.2,6.6L46.3,16z M54.1,27.5c-2.1-0.7-4.2-1.6-6.1-2.7l-0.4-6.6l0.1-0.1
			c1.7-1.9,3.7-3.5,5.9-4.8c1.8,1.3,3.8,2.5,5.9,3.4l0.2,6.6L54.1,27.5z"/>
	</g>
</g>
</svg>
