<svg xmlns="http://www.w3.org/2000/svg" viewBox="0 0 64 64"><defs><style>.cls-1{fill:#2c2b30;}</style></defs><title>Asset 27</title><g id="Layer_2" data-name="Layer 2"><g id="Layer_1-2" data-name="Layer 1"><path class="cls-1" d="M63.93,27.29C63.1,20,55.55,16.5,49.18,18.62A12.42,12.42,0,0,0,47.45,6.13C43.77,1.42,37.5-.41,31.73.07,25.79.57,18.88,2.93,14.67,7.32a16.18,16.18,0,0,0-4.23,13.42C4.66,20.06-.47,25.25,0,31.26c.63,7.6,8,11.7,15,11,0,.88.08,1.76.1,2.62l.25,12.6a5,5,0,0,0-.07,1.21c.35,5.68,7.58,5.36,11.56,5.28L49.5,63.5A.82.82,0,0,0,49.85,62l-.23-6.63a.83.83,0,0,0-.05-1.5l-.49-14.3c3.74-.17,7.71-.54,10.8-2.82A10.38,10.38,0,0,0,63.93,27.29Zm-47.29,12c-.05-2.82-.65-6.53,1.39-8.8a6.41,6.41,0,0,1,3.93-2c-2.63,1.83-3.76,5-3.94,8.21-.32,5.64.62,11.52,1,17.15a.9.9,0,0,0,0,.16,7.08,7.08,0,0,0-2.13,1Zm7.67-10.93a31.21,31.21,0,0,1,4,.51.87.87,0,0,0,.22,0c.12,2.68.23,5.36.25,8l-3.26-.09a.8.8,0,0,0-.38,1.5l6.49,7.41a.82.82,0,0,0,1.33.83l8.24-7.9a.75.75,0,0,0-.07-1.16.76.76,0,0,0-.73-.57l-3.49-.12.16-7.41h.11a52.88,52.88,0,0,1,10-.22L48,53.65a175,175,0,0,0-21.1-.49,42.93,42.93,0,0,0-6.23.44c-.31-4.43-.67-8.85-.94-13.28-.25-4.18-.1-9.1,4.24-11.15A.66.66,0,0,0,24.31,28.35ZM30,25.8l5.54-.1L35.3,37.43a.72.72,0,0,0,.22.56.76.76,0,0,0,.67.4l2.88.1-6.33,6.07L27.4,38.47l2.19.06a.7.7,0,0,0,.7-.43.78.78,0,0,0,.1-.39C30.4,33.74,30.16,29.77,30,25.8Zm3,36.44c-2.74.06-5.48.14-8.23.17-2.91,0-7,.07-7.65-3.5-1-5.41,12.53-4.27,15.81-4.28,5,0,10,.21,15,.63l0,.57-12.51.28a.8.8,0,0,0,0,1.6l12.57-.29,0,.93a89,89,0,0,1-21.85,1c-1-.08-1,1.52,0,1.6a90.67,90.67,0,0,0,21.9-1l.07,2ZM49,37.92,48.73,29a.79.79,0,0,0-.14-.43.84.84,0,0,0-.76-.93,52.9,52.9,0,0,0-10.65.17l-.08,0,.06-2.88a.73.73,0,0,0-.76-.77.79.79,0,0,0-.36-.07l-7,.13a.82.82,0,0,0-.62,1.31.89.89,0,0,0,0,.12c0,.54,0,1.08.07,1.63-5.51-.92-12.37-.73-13.35,6.16A38.45,38.45,0,0,0,15,40.66c-5.7.54-11.73-2.12-13.13-8.15C.54,26.86,5.18,21.38,10.79,22.43a.75.75,0,0,0,1,.24l.41.14c1,.36,1.38-1.19.43-1.54l-.49-.16c-2-11.14,8.4-17.86,18.3-19.26,5-.71,10.44.21,14.31,3.7a10.87,10.87,0,0,1,2.15,14,.71.71,0,0,0-.12.52.82.82,0,0,0,1.19.85c6-3.37,14.54.08,14.46,7.63S55,37.57,49,37.92Z"/></g></g></svg>