<?xml version="1.0" encoding="utf-8"?>
<!-- Generator: Adobe Illustrator 20.0.0, SVG Export Plug-In . SVG Version: 6.00 Build 0)  -->
<svg version="1.1" id="Layer_1" xmlns="http://www.w3.org/2000/svg" xmlns:xlink="http://www.w3.org/1999/xlink" x="0px" y="0px"
	 viewBox="0 0 64 64" style="enable-background:new 0 0 64 64;" xml:space="preserve">
<style type="text/css">
	.st0{fill:#2C2B30;}
</style>
<title>Asset 18</title>
<g id="Layer_2">
	<g id="Layer_1-2">
		<path class="st0" d="M42.1,46.8c-0.4-0.8-1.1-1.3-1.9-1.4c-0.2-0.3-0.6-0.4-0.9-0.3c-1.6,0.3-2.6,1.9-2.3,3.4c0,0.1,0,0.1,0,0.2
			c0.4,1.5,1.9,2.3,3.4,1.9c0.1,0,0.2-0.1,0.3-0.1c1.4-0.6,2-2.1,1.4-3.5C42.1,46.9,42.1,46.9,42.1,46.8z M40,48.8
			c-0.5,0.2-1.1-0.1-1.3-0.6c0,0,0,0,0,0c-0.1-0.3-0.1-0.6,0.1-0.8c0.1,0,0.2-0.1,0.3-0.1C40.2,46.6,41.2,48.3,40,48.8L40,48.8z"/>
		<path class="st0" d="M48.4,55.3c-1-1.6-2.1-3.1-3.2-4.7c-0.1-0.1-0.2-0.2-0.3-0.3c0.4-0.7,0.6-1.4,0.7-2.2
			c0.3-3.1-2.1-5.9-5.2-6.1c-0.1,0-0.1,0-0.2,0c-0.1-0.3-0.4-0.5-0.8-0.5c-3.2-0.2-5.9,2.1-6.1,5.3c0,0.1,0,0.3,0,0.4
			c0,1.3,0.5,2.6,1.3,3.7h-0.1c-1.6,1.7-2.8,3.8-3.5,6c-0.1,0.5,0.2,1,0.6,1.1c0.1,0,0.1,0,0.2,0c1.1,0,2.1-0.3,3-1
			c0.5,1.5,1.2,3.2,2.8,2.7c0.9-0.3,1.1-1.3,1.3-2.1s0.5-1.8,0.7-2.7c0.7,1,1.5,2,2.3,3c0.4,0.6,0.9,1,1.6,1.2
			c0.7,0.1,1.3-0.3,1.6-0.9c0.2-0.3,0.2-0.7,0.2-1c1.1,0.8,2.3,1.1,3.1,0.2C48.9,56.8,48.9,55.9,48.4,55.3z M39.4,43.4
			c0.1,0.3,0.4,0.5,0.8,0.5c5.5,0.4,4.2,8.4-1.1,7.7C33.9,50.9,34,43.1,39.4,43.4z M37.4,57c-0.2,0.7-0.1,1.1-0.5,0.2
			c-0.3-0.7-0.5-1.3-0.7-2c-0.2-0.5-0.7-0.7-1.2-0.6c-0.2,0.1-0.4,0.2-0.5,0.4c-0.3,0.5-0.7,0.9-1.2,1.1c0.6-1.4,1.5-2.7,2.5-3.8
			l0.1-0.1c0.7,0.5,1.5,0.8,2.4,1L37.4,57z M45.1,54.6c-0.3-0.4-0.8-0.5-1.3-0.3c-0.2,0.1-0.3,0.3-0.4,0.5c-0.1,0.4-0.2,0.9-0.1,1.3
			c0.1,0.3,0.1,0.6,0.2,0.9c0.1,0.3,0,0.3-0.2-0.1c-0.5-0.5-1-1.1-1.3-1.8l-1.4-1.9c1.2-0.2,2.3-0.7,3.2-1.5l2.3,3.4
			c0,0,0.7,1.2,0.8,1.1C46.6,56.6,45.2,54.9,45.1,54.6L45.1,54.6z"/>
		<path class="st0" d="M46.9,10.6l-10-0.1c-0.3-0.4-0.9-0.5-1.3-0.3c-0.2,0.2-0.4,0.4-0.4,0.7c-0.2,3.6-0.1,7.3,0.4,10.9
			c0,0.4,0.4,0.7,0.8,0.6c0,0,0,0,0,0c0.2,0.1,0.4,0.2,0.6,0.2l9.2-0.5c0.3,0,0.6-0.2,0.7-0.4c0.2-0.2,0.4-0.4,0.4-0.7l0.2-8.9
			c0.3-0.4,0.3-0.9,0-1.3C47.3,10.7,47.1,10.6,46.9,10.6z M36.9,12.3l8.8,0.1l-0.2,8l-8.2,0.4C36.9,18,36.8,15.1,36.9,12.3
			L36.9,12.3z"/>
		<path class="st0" d="M19.3,23.5h-3.9c-0.5,0-0.9,0.4-0.9,0.9c0,0.5,0.4,0.9,0.9,0.9l0,0h3.9c0.5,0,0.9-0.4,0.9-0.9
			S19.8,23.5,19.3,23.5z"/>
		<path class="st0" d="M43.7,27.5c-9.6,0.7-19.3,0.9-28.9,0.5c-1.1,0-1.1,1.7,0,1.8c9.6,0.4,19.3,0.2,28.9-0.5
			C44.9,29.2,44.9,27.4,43.7,27.5z"/>
		<path class="st0" d="M43.7,32.2c-9.6,0.7-19.3,0.9-28.9,0.5c-1.1,0-1.1,1.7,0,1.8c9.6,0.4,19.3,0.2,28.9-0.5
			C44.9,33.9,44.9,32.1,43.7,32.2z"/>
		<path class="st0" d="M43.7,36.8c-9.6,0.7-19.3,0.9-28.9,0.5c-1.1,0-1.1,1.7,0,1.8c9.6,0.4,19.3,0.2,28.9-0.5
			C44.9,38.6,44.9,36.8,43.7,36.8z"/>
		<path class="st0" d="M61.3,1.5c0-0.3-0.2-0.6-0.4-0.8c-0.1-0.3-0.3-0.6-0.7-0.6C46.4,0,32.6-0.2,18.8,0.3c-0.2,0-0.3,0-0.5,0h-0.1
			c-0.7,0-0.9,1-0.5,1.5l-0.1,3.9h-0.4c-0.4,0-0.7,0.2-0.8,0.6l-0.1,0.1L2.7,17c-0.2,0.2-0.3,0.4-0.3,0.7h0l0.5,44.8
			c-0.3,0.4-0.3,0.9,0.1,1.3C3.1,63.9,3.3,64,3.5,64c17-0.5,33.9-0.3,50.8-0.1c0.2,0,0.4,0,0.5-0.2c0.4,0.2,0.9,0,1.1-0.5
			c0-0.1,0.1-0.2,0.1-0.4c-0.1-2-0.2-3.9-0.2-5.9l4,0.4c0.8,0.1,1-0.7,0.8-1.2c0.1-0.2,0.2-0.3,0.2-0.5
			C62.2,37.7,61.4,19.5,61.3,1.5z M15.6,9.1c-0.8,2.3-0.5,4.9,0.9,7L6,16.7L15.6,9.1z M4.6,62.2L4.2,18.6L18,17.8
			c0.8,0.7,2-0.5,1.2-1.3c-2.5-2.2-3-5.9-1-8.6c0.1-0.1,0.2-0.2,0.2-0.3l33.3-0.3c0.1,0,0.2,0,0.3,0h1.4
			c-0.1,18.3,0.2,36.6,0.9,54.9C37.7,61.9,21.2,61.7,4.6,62.2L4.6,62.2z M59,55.6l-3.3-0.3c-0.5-16.2-0.7-32.4-0.6-48.6
			c0.2-0.4,0-1-0.4-1.2c-0.1-0.1-0.2-0.1-0.4-0.1h-2.7c-0.1,0-0.2,0-0.3,0.1l-32,0.3V2c13.3-0.4,26.7-0.3,40-0.1
			C59.6,19.8,60.4,37.8,59,55.6L59,55.6z"/>
	</g>
</g>
</svg>
