<?xml version="1.0" encoding="utf-8"?>
<!-- Generator: Adobe Illustrator 20.0.0, SVG Export Plug-In . SVG Version: 6.00 Build 0)  -->
<svg version="1.1" id="Layer_1" xmlns="http://www.w3.org/2000/svg" xmlns:xlink="http://www.w3.org/1999/xlink" x="0px" y="0px"
	 viewBox="0 0 64 64" style="enable-background:new 0 0 64 64;" xml:space="preserve">
<style type="text/css">
	.st0{fill:#2C2B30;}
</style>
<title>Asset 36</title>
<g id="Layer_2">
	<g id="Layer_1-2">
		<path class="st0" d="M14.2,47.8c-0.1-0.3-0.3-0.5-0.6-0.7c-0.1-0.2-0.2-0.3-0.3-0.3c-1.2-0.7-2.8-0.4-3.6,0.9
			c-0.7,1.2-0.4,2.8,0.9,3.6c0.6,0.3,1.2,0.5,1.9,0.3c1.4-0.3,2.3-1.7,2-3C14.4,48.2,14.3,48,14.2,47.8z M12.2,49.9
			c-0.5,0.2-1.1-0.1-1.3-0.7c0-0.1-0.1-0.2,0-0.3c0-0.1,0-0.3,0.1-0.4c0.1,0,0.2-0.1,0.2-0.2C12.4,47.2,13.7,49.4,12.2,49.9
			L12.2,49.9z"/>
		<path class="st0" d="M62.9,42.9c-1.5-1.8-3.8-2-5.9-1.5l0,0c-0.5,0.3-1.1,0.4-1.7,0.5c-2.8,0.8-5.5,2-8.2,3.1l0.1-0.1
			c0.2-0.3,0.3-0.7,0.4-1c0.2,0,0.5,0,0.6-0.2c4.9-4.3,8.8-10.2,9.6-16.8c0.8-6.1-1.7-12.6-7.7-15c-1.9-0.7-4.1-0.9-6.1-0.4
			C45.9,9.7,47,7,44.8,5.1l-0.1-0.1c-0.1-0.2-0.3-0.4-0.5-0.5C42,4,39.7,4.7,38.1,6.4C37,7.6,36.3,9.1,36,10.7
			c-1.3-3.3-5.1-6-8.4-5.9c-0.4-0.2-0.8-0.1-1.1,0.3c0,0,0,0,0,0c-1.6,2.4-1.4,5.4,0.3,7.7c-1.5-0.4-3-0.3-4.5,0.1
			c-2.5,0.9-4.6,2.9-5.5,5.4c-2.5,6.2,0,13.7,4.1,18.7c-1.3,0-2.5,0.2-3.8,0.5l0-2.3c0-0.4-0.4-0.8-0.8-0.7c-0.1,0-0.1,0-0.2,0
			L5.1,34.2c-0.3,0-0.6,0.2-0.7,0.5l-3.6-0.3c-1-0.1-1,1.5,0,1.6l3.6,0.3L4.3,52.6H4.2l-3.3,0c-0.4,0-0.8,0.4-0.8,0.8
			c0,0.4,0.4,0.8,0.8,0.8h3.3h0.1c0,0.1,0.1,0.2,0.2,0.3c0.1,0.2,0.4,0.3,0.6,0.3l5.8-0.1c1.7-0.2,3.5-0.1,5.2,0.2
			c0.3,0.3,0.8,0.3,1.1,0c0.2-0.1,0.2-0.4,0.2-0.6v-1.5c2.5,1.7,5.6,2.5,8.4,3.7c2.5,1.1,5.3,2.8,8.1,3.1c3.4,0.5,7-1.7,10-3
			L55.3,52C58.3,50.8,67.1,47.9,62.9,42.9z M11.9,53.1l-6,0.1c0-5.8,0-11.6,0.1-17.4l9.6,0.2l0.4,17.3C14.6,53,13.2,53,11.9,53.1
			L11.9,53.1z M43.6,6.1c0,0.1,0.1,0.1,0.2,0.2c2.3,1.9-1.4,5.3-3.1,6c-0.3,0.1-0.5,0.4-0.5,0.7l-0.8,0.3c1-1,1.9-2.1,2.7-3.3
			c0.6-0.8-0.8-1.6-1.4-0.8c-0.9,1.4-2.1,2.6-3.3,3.7C37.6,9.4,39.5,5.2,43.6,6.1L43.6,6.1z M27.6,6.4c3.2,0,7.4,3.3,7.3,6.7
			l-4.8-3.2c-0.9-0.6-1.6,0.8-0.8,1.4l3.8,2.6c-1.6,0.1-3.1-0.4-4.4-1.3C27,11,26.5,8.5,27.6,6.4z M20.4,15.7
			c3.5-3.1,7.5-0.8,11.4,0.1c1.3,0.3,2.6,0.3,3.9,0.2c-0.2,1.1-0.8,2-1.7,2.7l-0.1,0.1c-0.4-0.2-0.7-0.4-1-0.7
			c-0.7-0.7-1.9,0.4-1.1,1.1c1.9,1.9,4.9,1.9,6.7,0c0.8-0.7-0.4-1.8-1.1-1.1c-0.4,0.4-0.9,0.7-1.4,0.8c0.7-0.9,1.2-2.1,1.3-3.3
			c0.8-0.2,1.6-0.5,2.4-0.8c3.4-1.3,6.8-2.9,10.3-1.2c3.4,1.7,5.8,5,6.2,8.8c1.1,7.5-3.3,14.9-8.7,19.7C46,39,35.7,40.3,33.4,40.4
			l0,0c-2.9-1.9-6.3-3.1-9.8-3.4h0.1h-0.2c-0.1,0-0.3,0-0.4,0H23c0-0.1-0.1-0.1-0.1-0.2C18.3,31.7,14.3,21.1,20.4,15.7z M54.3,50.7
			l-7.3,3c-4.5,1.8-10.2,5.5-15,3.6c-2.4-0.9-4.8-2-7.1-3s-5.2-1.7-7.1-3.3c-0.1-0.1-0.2-0.1-0.3-0.2l-0.3-11.8
			c5.3-1.3,10.9-0.3,15.4,2.8l0.1,0.1c0.1,0.1,0.3,0.2,0.5,0.2l7.4-0.2c1.1,0,3.1-0.4,4.1,0.1c2.4,0.8,0.5,3.9-1.5,3.6
			c-0.6,0.1-1.2,0.1-1.7,0.2c-4.8,0.4-9.7,0.5-14.5,0.2c-1-0.1-1,1.5,0,1.6c4.3,0.3,8.7,0.3,13,0c1.7,0,3.5-0.3,5.1-0.8
			c0.1,0.4,0.4,0.6,0.8,0.5c0,0,0.1,0,0.1,0l7.6-2.9c2.1-0.8,6-2.7,7.9-0.4C64.7,47.7,56.4,49.9,54.3,50.7L54.3,50.7z"/>
	</g>
</g>
</svg>
