<?xml version="1.0" encoding="utf-8"?>
<!-- Generator: Adobe Illustrator 20.0.0, SVG Export Plug-In . SVG Version: 6.00 Build 0)  -->
<svg version="1.1" id="Layer_1" xmlns="http://www.w3.org/2000/svg" xmlns:xlink="http://www.w3.org/1999/xlink" x="0px" y="0px"
	 viewBox="0 0 64 64" style="enable-background:new 0 0 64 64;" xml:space="preserve">
<style type="text/css">
	.st0{fill:#2C2B30;}
</style>
<title>Asset 20</title>
<g id="Layer_2">
	<g id="Layer_1-2">
		<path class="st0" d="M48.1,33.9c-0.8-6.7-6.8-11.6-13.6-11c-0.2-0.2-0.5-0.2-0.8-0.1c-6.8,2.6-12.6,8.7-11.4,16.5
			c1.1,7,8.3,11.3,15,9.8C44.3,47.6,49,41,48.1,33.9z M36.6,47.5c-6.3,1.1-12.5-3.4-12.6-9.9c-0.1-6,4.4-10.5,9.7-12.8
			c0.1,0,0.2,0,0.3,0c6-0.9,11.5,3.2,12.4,9.1c0.1,0.4,0.1,0.8,0.1,1.2C46.7,41.1,42.5,46.4,36.6,47.5z"/>
		<path class="st0" d="M60,60.6c-0.2-3.6-3.9-4.9-5.4-8s-2-6.2-5-8c2.5-4.4,2.7-10.3,1.3-15l-0.1-0.4c0.4,0.1,0.9-0.2,1-0.6
			c0-0.1,0-0.1,0-0.2l-0.5-17.6c0.4-0.4,0.4-1,0-1.4c0,0,0,0,0,0L51,2.1c0-0.4-0.2-0.7-0.6-0.8C50.3,1,50,0.9,49.7,0.8
			c-9.8-0.7-19.6-1-29.4-0.9C14.6,0.1,4.5-0.4,4,7.7C3.8,9.3,4.3,11,5.5,12.3c0,7.9-0.1,15.9-0.1,23.8c0,4,0,8-0.1,12
			c0,2.8-0.1,5.7,1.7,8c4,5.2,11.9,4.1,17.6,4l25.4-0.4c0.3,0,0.5-0.1,0.7-0.3c1.5,1.2,3,2.6,4.3,4l0,0c0.1,0.3,0.4,0.4,0.7,0.4
			C57.6,64.1,60.3,62.7,60,60.6z M47.7,44.3c-2.2,3.4-6.3,5.2-10.2,5.8c-7.9,1.3-16.7-3.1-17.1-11.8c-0.4-7.8,5.1-16.8,13.3-17
			c0.1,0.4,0.5,0.6,0.9,0.5c0,0,0.1,0,0.1,0c8.1-3.1,14.4,4.6,15,12.1C50.1,37.3,49.7,41.3,47.7,44.3z M49.3,46.6
			c-0.1,0.1-0.1,0.1-0.1,0.2c-0.9,2-2.9,4.7-5.3,4.6c-0.3-0.4-0.6-0.7-0.8-1.1c1.1-0.5,2.1-1.1,3.1-1.8c0.9-0.7,1.7-1.5,2.4-2.4
			C48.8,46.3,49.1,46.4,49.3,46.6z M5.9,7.1c0.9-4.6,6-5.1,9.8-5.2c3.6-0.1,7.3-0.2,10.9-0.1c7.5,0,15.1,0.3,22.6,0.8l0.2,6.5
			L24.3,8.9c-0.5,0-0.9,0.4-0.9,0.9c0,0.5,0.4,0.9,0.9,0.9l0,0l25.2,0.2v1.7l-22.4,0.2L16,12.8c-2.5,0-6.6,0.2-8.8-1.3l0,0
			c0-0.5-0.3-0.8-0.8-0.9c0,0,0,0-0.1,0C5.7,9.6,5.5,8.3,5.9,7.1z M7.9,54.4c-1.6-3-0.8-7.6-0.8-10.9l0.1-10.3
			c0-6.6,0.1-13.1,0.1-19.7c1,0.4,2,0.7,3.1,0.9l0.4,25.3c0.1,4.1,0.1,8.3,0.2,12.4c-0.1,1.9,0.2,3.8,0.8,5.5
			C10.1,57.1,8.7,55.9,7.9,54.4L7.9,54.4z M28.6,58.4c-3.4,0-6.9,0.2-10.3,0.2c-1.3,0-2.6-0.1-3.9-0.3c0-0.1-0.1-0.2-0.2-0.2
			c-2.4-2.4-1.5-7.6-1.6-10.7l-0.2-11.2l-0.3-21.6c2.6,0.2,5.4-0.1,7.4-0.1l30-0.2l0.3,13c-2.6-5.4-8.3-9.2-14.4-7.6
			c-0.1-0.1-0.2-0.1-0.3-0.1c-7.6-0.7-13.2,5.2-15.4,12s-0.7,14,5.6,18c4.6,2.9,10.8,3.2,16,1.4c1.4,2.2,3.2,4,5.3,5.5l2.1,1.6
			L28.6,58.4z M54.2,60.3c-1.5-1.4-3-2.7-4.6-3.9c-1.5-1.1-2.9-2.2-4.2-3.4c2.3-0.7,4.3-3,5.3-5c1.1,1.6,1.6,3.7,2.5,5.5
			c0.8,1.7,2.8,3.1,4.1,4.8l0,0C56.7,59.5,55.5,60.3,54.2,60.3L54.2,60.3z M57.4,61.9c-0.4,0.2-0.9,0.4-1.3,0.4l-0.4-0.4
			c1-0.3,1.8-0.9,2.4-1.8c0,0.1,0,0.2,0.1,0.2c0,0.1,0,0.2,0,0.3c0,0.1,0,0.2,0,0.3c0,0,0,0.1,0,0.1C58,61.4,57.7,61.6,57.4,61.9
			L57.4,61.9z"/>
	</g>
</g>
</svg>
