<?xml version="1.0" encoding="utf-8"?>
<!-- Generator: Adobe Illustrator 20.0.0, SVG Export Plug-In . SVG Version: 6.00 Build 0)  -->
<svg version="1.1" id="Layer_1" xmlns="http://www.w3.org/2000/svg" xmlns:xlink="http://www.w3.org/1999/xlink" x="0px" y="0px"
	 viewBox="0 0 64 64" style="enable-background:new 0 0 64 64;" xml:space="preserve">
<style type="text/css">
	.st0{fill:#2C2B30;}
</style>
<title>Asset 79</title>
<g id="Layer_2">
	<g id="Layer_1-2">
		<path class="st0" d="M36.1,46.9c-0.6-1.6-2.2-2.7-4-2.6c-0.2-0.2-0.5-0.3-0.8-0.2c-2.4,0.5-3.9,2.9-3.3,5.3
			c0.5,2.4,2.9,3.9,5.3,3.3c2.3-0.7,3.7-3.1,3-5.4C36.2,47.2,36.2,47,36.1,46.9z M32.1,51c-1.4,0-2.5-1-2.6-2.4
			c-0.1-0.8,0.3-1.6,0.9-2.1c0.2,0,0.4,0,0.6-0.1c1.2-0.7,2.7-0.2,3.4,1c0.1,0.1,0.1,0.2,0.2,0.4c0.4,1.3-0.4,2.8-1.7,3.2
			C32.6,51,32.4,51,32.1,51L32.1,51z"/>
		<path class="st0" d="M62,1.3c0-0.5-0.5-0.9-1-0.9c0,0,0,0,0,0c-0.2-0.1-0.4-0.2-0.6-0.2C41.2,0.4,22.1,0.3,2.9,0
			C2.5,0,2.1,0.3,2.1,0.7C1.9,0.8,1.8,1.1,1.7,1.3C1,15.9,1.1,30.5,2,45c0,0.3,0.2,0.5,0.4,0.7C2.6,45.9,2.8,46,3,46l18.1,0
			l4.3,16.4c-0.4,0.3-0.4,0.9-0.1,1.3c0.2,0.2,0.4,0.3,0.7,0.3h0.2c0.2,0.1,0.4,0.1,0.6,0h10.2c0.1,0,0.3,0,0.4-0.1
			c0.4,0.1,0.9-0.2,1-0.6c0,0,0,0,0,0l4.2-17h0.1L61.6,46c0.5,0,0.9-0.5,0.9-1c0-0.2-0.1-0.4-0.2-0.6C63,30.1,62.9,15.7,62,1.3z
			 M36.9,62.1h-9.6l-6-22.9L41,38.7c0.4,0.3,0.9,0.3,1.2,0h0.5L36.9,62.1z M29.1,24.6L29.1,24.6c0.7,0.3,1.5,0.5,2.2,0.6
			c-0.1,0.1-0.2,0.3-0.2,0.5c-0.1,1.9-0.2,3.7-0.2,5.6c0,1.2,1.8,1.2,1.8,0c0.1-1.9,0.2-3.7,0.2-5.6c0-0.2,0-0.4-0.2-0.6
			c0.3,0,0.7-0.1,1-0.2c0.1,0.1,0.3,0.2,0.5,0.2c5.8,0.6,6.4,7.1,6.3,11.8l-17,0.5c0-0.1,0-0.3,0-0.4C22.4,32,24.6,26.9,29.1,24.6z
			 M27.1,18.5c0-1.9,1.2-3.6,3-4.4c0.2,0.2,0.4,0.3,0.6,0.3c2.5,0.2,5.8,1,5.9,4c0.1,2.6-2,4.8-4.6,4.8c-0.2,0-0.4,0-0.6,0
			C29,23,27.1,21,27.1,18.5L27.1,18.5z M44.6,38.2c0.3-0.4,0.2-1-0.2-1.3c-0.2-0.1-0.3-0.2-0.5-0.2h-1.3c0-5.3-1-11.6-6.3-13.2
			c1.5-1.2,2.3-3.1,2.3-5.1c-0.1-3.6-3.2-5.1-6.3-5.7c-0.1-0.5-0.6-0.9-1.1-0.9c0,0,0,0,0,0c-3.6,0.5-6.1,3.8-5.7,7.4
			c0.2,1.5,1,3,2.1,4c-4.7,2.9-7,8.6-5.5,14h-1.6c-0.5,0-0.9,0.4-0.9,0.9c0,0,0,0.1,0,0.1c-0.1,0.2-0.1,0.4-0.1,0.7l1.3,5H3.8
			C2.9,30,2.9,15.9,3.6,1.8c18.9,0.3,37.8,0.4,56.6,0.3c0.9,14,0.9,28,0.3,42l-17.3,0.3l1.4-5.7C44.6,38.5,44.6,38.3,44.6,38.2z"/>
		<path class="st0" d="M48,8l-2.2,0.3l-0.2-2.5c-0.1-1.2-1.9-1.2-1.8,0l0.3,2.8l-1.7,0.2c-1.2,0.1-1.2,2,0,1.8l1.9-0.3l0.3,2.7
			c0.1,1.2,1.9,1.2,1.8,0L46.1,10l2-0.3C49.2,9.6,49.2,7.8,48,8z"/>
		<path class="st0" d="M56.2,7.4h-4.1c-0.5,0-0.9,0.4-0.9,0.9c0,0.5,0.4,0.9,0.9,0.9h4.1c0.5,0,0.9-0.4,0.9-0.9
			C57.2,7.9,56.8,7.4,56.2,7.4z"/>
		<path class="st0" d="M48.7,23.3l-1.8-1.4l2-2.7c0.7-1-0.9-1.9-1.6-0.9l-1.9,2.5L43.2,19c-0.9-0.7-1.8,0.9-0.9,1.6l2.1,1.6l-1.5,2
			c-0.7,1,0.9,1.9,1.6,0.9l1.4-1.9l2,1.5C48.8,25.6,49.7,24,48.7,23.3z"/>
		<path class="st0" d="M57.1,20.9l-5.8,0.5c-1.2,0.1-1.2,1.9,0,1.8l5.8-0.5C58.2,22.7,58.2,20.8,57.1,20.9z"/>
		<path class="st0" d="M55.1,18.8l-0.3-0.4c-0.3-0.4-0.8-0.6-1.3-0.3c-0.4,0.3-0.5,0.8-0.3,1.3l0.3,0.4c0.3,0.4,0.8,0.6,1.3,0.3
			C55.2,19.8,55.3,19.2,55.1,18.8z"/>
		<path class="st0" d="M55.6,24.5c-0.3-0.4-0.8-0.6-1.3-0.3l-0.3,0.1c-0.4,0.3-0.6,0.8-0.3,1.3s0.8,0.6,1.3,0.3l0,0l0.3-0.1
			C55.7,25.5,55.9,24.9,55.6,24.5z"/>
		<path class="st0" d="M17.2,7.8L8,7.3C6.8,7.2,6.8,9,8,9.1l9.2,0.5C18.3,9.7,18.3,7.8,17.2,7.8z"/>
		<path class="st0" d="M17.2,27.8L8,27.4c-1.2-0.1-1.2,1.8,0,1.8l9.2,0.5C18.3,29.7,18.3,27.9,17.2,27.8z"/>
		<path class="st0" d="M19.9,13.3H8c-0.5,0-0.9,0.4-0.9,0.9s0.4,0.9,0.9,0.9h12c0.5,0,0.9-0.4,0.9-0.9S20.5,13.3,19.9,13.3z"/>
		<path class="st0" d="M19.9,20H8c-0.5,0-0.9,0.4-0.9,0.9s0.4,0.9,0.9,0.9h12c0.5,0,0.9-0.4,0.9-0.9S20.5,20,19.9,20z"/>
	</g>
</g>
</svg>
