<?xml version="1.0" encoding="utf-8"?>
<!-- Generator: Adobe Illustrator 20.0.0, SVG Export Plug-In . SVG Version: 6.00 Build 0)  -->
<svg version="1.1" id="Layer_1" xmlns="http://www.w3.org/2000/svg" xmlns:xlink="http://www.w3.org/1999/xlink" x="0px" y="0px"
	 viewBox="0 0 64 64" style="enable-background:new 0 0 64 64;" xml:space="preserve">
<style type="text/css">
	.st0{fill:#2C2B30;}
</style>
<title>Asset 78</title>
<g id="Layer_2">
	<g id="Layer_1-2">
		<path class="st0" d="M64,48.7c-0.2-12.8-0.3-25.6-0.5-38.4c0.3-0.3,0.3-0.9-0.1-1.2C63.2,9,63.1,9,62.9,9l-8,0.1V7
			c0-0.4-0.2-0.7-0.6-0.8c-0.1-0.3-0.4-0.4-0.7-0.5l-3.1-0.2c0-0.6-0.1-1.2-0.2-1.8c0.3-0.4,0.2-0.9-0.2-1.2
			c-0.1-0.1-0.3-0.1-0.4-0.2C46.2,2,34.8,1,31.9,5.3c-3.2-3.9-13.1-2.7-17.4-2C14,3,13.5,3.2,13.3,3.5c-0.3,0.3-0.4,0.7-0.2,1.1
			c0,0,0,0,0,0V6L9.9,6.1C9.5,6.1,9.1,6.5,9.1,7c0,0.1,0.1,0.3,0.1,0.4L9.2,9.8H0.8c-0.4,0-0.8,0.3-0.8,0.7c0,0,0,0,0,0
			C0,10.7,0,10.8,0,10.9c0.2,12.9,0.4,25.8,0.6,38.8c0,0.2,0.1,0.3,0.1,0.4c0.1,0.3,0.4,0.5,0.7,0.5c5.2,0.3,10.4,0.5,15.5,0.6
			c-1.9,2.9-3.7,7.6,0.4,9.6c1.9,0.9,4.4,0.7,6.4,0.7l10.3,0.2c3,0.1,6.1,0.3,9.2,0.2c1.8,0.1,3.5-0.5,5-1.5
			c3.1-2.7,1.6-6.6-0.6-9.3c5.2-0.2,10.4-0.5,15.6-0.8c0.5,0,0.8-0.5,0.8-0.9c0-0.1,0-0.1,0-0.2C64,49,64,48.9,64,48.7z M48.7,3.9
			c0.8,8.4,0.8,16.8,0,25.1c-3.9-0.3-12.4-0.8-16,2L33,9.2c0-0.1,0-0.3-0.1-0.4l0,0c0-0.1,0-0.2,0-0.3c0-0.3,0-0.6,0-0.9
			C33.3,3,44.4,3.6,48.7,3.9z M49.7,30.7c0.4,0,0.8-0.3,0.8-0.8c0-0.2-0.1-0.4-0.2-0.5c0.7-7.4,0.8-14.9,0.3-22.3l2.7,0.2L53,34.6
			c-6.7,0.2-13.5,0.3-20.2,0.3c0-0.2,0-0.4,0-0.6C33.4,29.3,46.5,30.5,49.7,30.7z M14.7,7.3c0.2-0.3,0.2-0.6,0-0.9V4.9
			c4.3-0.7,15.4-2,16.4,2.9c0,0.3,0,0.5,0.1,0.8c0,0.2,0,0.3,0,0.5c0,0.2,0,0.4,0.2,0.6c-0.1,7.2-0.1,14.5-0.2,21.7
			c-3.8-3.1-12.9-2-16.9-1.3L14.7,7.3z M10.9,7.7L13,7.7l-0.5,23.1c0,0.4,0.2,0.7,0.6,0.8c0.2,0.2,0.5,0.4,0.8,0.3
			c3.5-0.6,16.1-2.5,17.2,2.8c0,0.1,0,0.2,0,0.3c-7,0-13.9-0.2-20.9-0.5L10.9,7.7z M1.6,11.4h7.5L8.6,34.7c0,0.3,0.1,0.6,0.4,0.7
			C9.1,35.8,9.4,36,9.8,36c7.2,0.3,14.5,0.5,21.7,0.5c0.3,0.1,0.5,0.1,0.8,0c7.1,0,14.2-0.1,21.3-0.3c0.3,0,0.5-0.1,0.7-0.4
			c0.3-0.1,0.5-0.4,0.5-0.7c0.1-8.2,0.2-16.3,0.2-24.5l6.9-0.1l0.4,29.9c-20-0.8-40.1-0.4-60.1-0.2C2,30.7,1.8,21.1,1.6,11.4z
			 M48.3,56.2c0.1,3-2.6,4-5,4.1c-3.4,0.2-6.8-0.1-10.2-0.2l-10.3-0.2c-0.8,0-1.6,0-2.4-0.1c-1.8-0.1-2.3-0.2-3.2-1.8
			c-1.4-2.4,0.1-4.5,1.6-6.5c0.1-0.1,0.1-0.2,0.1-0.3c8.8,0.2,17.7,0.1,26.5-0.2C46.8,52.5,48.3,54.1,48.3,56.2z M2.3,49
			c0-2.4-0.1-4.7-0.1-7.1c20-0.2,40.1-0.7,60.1,0.2l0.1,6.6C42.4,50,22.3,50.2,2.3,49z"/>
		<path class="st0" d="M26.8,7.6c-2-2.7-6.1-1.7-8.9-1.1c-0.3,0.1-0.6,0.3-0.6,0.7c0,0.1,0,0.1,0,0.2l0.1,7.5c0,0.1,0,0.2,0,0.2v0.3
			c0,0.2,0.2,0.4,0.4,0.5c0.1,0.2,0.4,0.3,0.6,0.3l3.1-0.1c0.7,0,2.9-0.4,3.3,0.4c0.2,0.4,0.6,0.5,1,0.3c0.1,0,0.2-0.1,0.2-0.2
			c0.4,0,0.8-0.3,0.8-0.8c0,0,0,0,0,0c0-2.5,0-5.1,0-7.6C27,8.1,27,7.8,26.8,7.6z M23.6,14.4c-1.5,0-3,0.1-4.6,0.1
			c0-2.2-0.1-4.4-0.1-6.6c1.9-0.4,5-1.1,6.3,0.3c0,2.2,0,4.3,0,6.5C24.7,14.5,24.2,14.4,23.6,14.4L23.6,14.4z"/>
		<path class="st0" d="M45.4,12.7c-2.9-0.5-5.8-0.2-8.5,0.9c-1,0.4-0.5,2,0.4,1.6c2.4-1,5.1-1.3,7.7-0.9
			C46,14.4,46.4,12.8,45.4,12.7z"/>
		<path class="st0" d="M45.4,17.8c-2.9-0.5-5.8-0.2-8.5,0.9c-1,0.4-0.5,2,0.4,1.6c2.4-1,5.1-1.3,7.7-0.9C46,19.5,46.4,18,45.4,17.8z
			"/>
		<path class="st0" d="M45.4,22.9c-2.9-0.5-5.8-0.2-8.5,0.9c-1,0.4-0.5,2,0.4,1.6c2.4-1,5.1-1.3,7.7-0.9
			C46,24.7,46.4,23.1,45.4,22.9z"/>
		<path class="st0" d="M18.1,18.3c2.9-0.5,5.8-0.2,8.5,0.9c1,0.4,0.5,2-0.4,1.6c-2.4-1-5.1-1.3-7.7-0.9C17.5,20,17.1,18.5,18.1,18.3
			z"/>
		<path class="st0" d="M18.1,23.5c2.9-0.5,5.8-0.2,8.5,0.9c1,0.4,0.5,2-0.4,1.6c-2.4-1-5.1-1.3-7.7-0.9
			C17.5,25.2,17.1,23.6,18.1,23.5z"/>
	</g>
</g>
</svg>
