<?xml version="1.0" encoding="utf-8"?>
<!-- Generator: Adobe Illustrator 20.0.0, SVG Export Plug-In . SVG Version: 6.00 Build 0)  -->
<svg version="1.1" id="Layer_1" xmlns="http://www.w3.org/2000/svg" xmlns:xlink="http://www.w3.org/1999/xlink" x="0px" y="0px"
	 viewBox="0 0 64 64" style="enable-background:new 0 0 64 64;" xml:space="preserve">
<style type="text/css">
	.st0{fill:#2C2B30;}
</style>
<title>Asset 40</title>
<g id="Layer_2">
	<g id="Layer_1-2">
		<path class="st0" d="M63.3,3.4C63,2.1,62,1.1,60.7,0.8c-0.3-0.1-0.6,0-0.8,0.3l0,0c-4.9,4-9.7,8.1-14.5,12.4l0,0
			c-4.1-2.9-8.9-4.5-13.8-4.7c0-1.4,0-2.8,0-4.2c0-0.5-0.4-0.8-0.8-0.8c-0.5,0-0.8,0.4-0.8,0.8v4.1c-5,0-9.9,1.6-14.1,4.4
			C9.3,17.7,5.3,25.2,5,33.2H0.8c-0.5,0-0.8,0.4-0.8,0.8s0.4,0.8,0.8,0.8H5c0,1.1,0.2,2.3,0.3,3.4c1.8,10,9.3,18,19.2,20.4
			c1.8,0.4,3.6,0.7,5.4,0.7c0,1,0,2,0,3c0,0.5,0.4,0.8,0.8,0.8c0.5,0,0.8-0.4,0.8-0.8v-3c7.7-0.3,14.8-4,19.4-10
			c3.2-4.2,5-9.2,5.2-14.4h5.1c0.5,0,0.8-0.4,0.8-0.8s-0.4-0.8-0.8-0.8h-5.1C56.1,28,54.4,23,51.4,18.7c4-4.7,8.2-9.3,12.4-13.8
			c0.3-0.4,0.3-0.9-0.1-1.2C63.6,3.5,63.4,3.5,63.3,3.4z M53.3,8.8c0.1,0.1,0.3,0.1,0.4,0.1c0.2,0,0.4,0,0.6,0.1L34.9,28.8l-3.1-0.3
			C38.8,21.7,45.9,15.1,53.3,8.8z M41.8,30.1c0.6,0.9,1,2,1.3,3.1h-1.6c-0.5,0-0.8,0.4-0.8,0.8s0.4,0.8,0.8,0.8h1.8
			c0,3.7-2,7-5.1,8.9c-2,1.2-4.2,1.9-6.5,2v-3.3c0-0.5-0.4-0.8-0.8-0.8c-0.5,0-0.8,0.4-0.8,0.8c0,1.1,0,2.1,0,3.2
			c-2.6-0.2-5-1.1-7-2.7c-2.5-2-4-4.9-4.3-8.1h2c0.5,0,0.8-0.4,0.8-0.8s-0.4-0.8-0.8-0.8l0,0h-2c0.1-1.8,0.6-3.5,1.6-5.1
			c2.1-3.4,5.7-5.5,9.6-5.6v1.8c0,0.5,0.4,0.8,0.8,0.8c0.5,0,0.8-0.4,0.8-0.8v-1.6c1,0.1,2.1,0.4,3.1,0.7c-1.7,1.7-3.5,3.4-5.2,5.1
			c-0.1,0.1-0.1,0.1-0.2,0.2c-0.2,0.1-0.4,0.4-0.4,0.7c0,1.9,0,3.9,0,5.8c-0.2,0.4,0.1,0.9,0.5,1.1c0.1,0,0.2,0,0.3,0l7.1,0
			c0.4,0,0.8-0.3,0.8-0.8c0,0,0-0.1,0-0.1C38.9,33.7,40.4,31.9,41.8,30.1z M32.8,34.6c-0.2-1.2-1.1-2.1-2.3-2.2V30l4,0.4l0,0
			l0.7,4.3L32.8,34.6z M44.1,14.6c-2.8,2.5-5.5,5-8.2,7.6c-1.4-0.6-2.9-1-4.4-1.1c0-3.6,0-7.2,0-10.7C36.1,10.6,40.4,12.1,44.1,14.6
			L44.1,14.6z M14.1,16.6c4.3-4,9.9-6.3,15.8-6.3c0,3.6,0,7.1,0,10.7c-4.3,0-8.2,2.2-10.6,5.7c-1.3,1.9-2.1,4.2-2.3,6.6H6.6
			C6.8,27,9.5,21,14.1,16.6L14.1,16.6z M29,57.8c-9.5-0.7-17.8-6.9-21-15.9c-0.8-2.2-1.3-4.6-1.3-7H17c0.2,3.5,1.9,6.8,4.5,9.1
			c2.4,2,5.3,3.3,8.5,3.4c0,3.5,0,6.9,0,10.4H29z M51.8,45c-4,7.5-11.8,12.4-20.3,12.8V47.4c2.9-0.1,5.6-1,8-2.6
			c3.3-2.2,5.2-5.9,5.3-9.9h9.7C54.4,38.4,53.5,41.9,51.8,45z M54.6,33.3h-9.8c-0.3-1.5-0.9-3-1.8-4.3c0-0.1-0.1-0.1-0.1-0.2
			c2.4-3,4.9-5.9,7.4-8.9C52.9,23.9,54.4,28.5,54.6,33.3z M36.7,33.9l-0.6-3.9l0,0l19.5-20c0.1,0.1,0.1,0.2,0.2,0.4
			c0.1,0.2,0.2,0.4,0.4,0.5C49.5,18.3,43,26,36.7,33.9z M57.2,9.6c-0.4-1-1.2-1.9-2.3-2.2l1.2-1c0.1,0,0.2,0.1,0.3,0.1
			c1,0.1,1.8,0.8,1.9,1.8l0,0L57.2,9.6z M59.7,6.8c-0.4-0.8-1.1-1.5-2-1.8l3-2.4c0.7,0.4,1.1,1.1,1,1.9c0,0.1,0,0.1,0,0.2L59.7,6.8z
			"/>
	</g>
</g>
</svg>
