<?xml version="1.0" encoding="utf-8"?>
<!-- Generator: Adobe Illustrator 20.0.0, SVG Export Plug-In . SVG Version: 6.00 Build 0)  -->
<svg version="1.1" id="Layer_1" xmlns="http://www.w3.org/2000/svg" xmlns:xlink="http://www.w3.org/1999/xlink" x="0px" y="0px"
	 viewBox="0 0 64 64" style="enable-background:new 0 0 64 64;" xml:space="preserve">
<style type="text/css">
	.st0{fill:#2C2B30;}
</style>
<title>Asset 37</title>
<g id="Layer_2">
	<g id="Layer_1-2">
		<path class="st0" d="M49.9,54.3c-1.2,0-2.5,0.2-3.7,0.5c-0.7,0.1-1.4,0.2-2.1,0.2c1.2,0.8,2.7,1.1,4.1,0.8L48,57h-0.1
			c-1.7,0.4-3.5,0-4.8-1.2l0.1-0.7c-0.3,0-0.6,0-0.9,0.1c-0.3,0-0.5,0-0.8-0.1l-1.1,6.7c-0.1,0.5,0.3,0.9,0.8,1c0.1,0,0.2,0,0.3,0
			c1.7,1.2,3.8,1.6,5.8,1c0.1,0,0.1-0.1,0.2-0.1c0.4,0,0.7-0.3,0.7-0.6l2.2-8.7L49.9,54.3z M46.6,62.1c-1.5,0.4-3.2,0.1-4.5-0.9
			l0.6-3.5c1.4,0.9,3.1,1.3,4.7,1.1L46.6,62.1z"/>
		<path class="st0" d="M29.8,52.1c-0.2-1.2-1.1-2.1-2.3-2.2c-0.2-0.4-0.7-0.6-1.1-0.4c-1.3,0.5-2,1.9-1.8,3.2
			c0.3,1.3,1.6,2.2,2.9,2.1C28.9,54.7,29.9,53.5,29.8,52.1z M27.1,53.1c-0.9-0.1-1-1-0.5-1.6c0.2,0.1,0.4,0.2,0.6,0.1
			C28.3,51.5,28.2,53.3,27.1,53.1L27.1,53.1z"/>
		<path class="st0" d="M61.1,34.9c-0.5-0.6-1.2-1-2-1.2c0.4-1.1,0.4-2.3,0-3.5c-0.1-0.1-0.2-0.3-0.2-0.4c-0.3-0.4-0.7-0.8-1.1-1.1
			c-0.2-0.2-0.4-0.3-0.6-0.5l4.9-19c0,0,0-0.1,0-0.1c0.1-0.2,0.1-0.5,0-0.7l-3.9-7.8c0-0.1-0.1-0.1-0.1-0.2
			c-0.1-0.2-0.3-0.3-0.5-0.4c-0.3-0.1-0.5,0-0.7,0.2l0,0l0,0l0,0h0c-2.1,2.1-4.5,4-7,5.7c-0.4,0.2-0.5,0.7-0.3,1.1l-2.3,13.7L44.1,3
			c-0.1-0.4-0.4-0.7-0.8-0.6c-0.1,0-0.1,0-0.2,0c-0.1,0-0.3,0-0.4,0L33,4.1c-0.3,0-0.6,0.3-0.6,0.7C32.1,5,32,5.3,32.1,5.6l3.6,19.8
			c0,0.1,0.1,0.2,0.1,0.3L35.4,26c-0.1,0.2-0.2,0.3-0.4,0.4c-1.7,1.9-3.2,3.9-4.5,6.1c-0.1-0.3-0.1-0.6-0.2-0.9
			c0-0.2-0.1-0.3-0.3-0.5c-0.2-0.2-0.4-0.3-0.7-0.3c-4.4,0.5-8.7,1.3-13,2.5c-0.5,0.2-0.8,0.8-0.6,1.3c0,0,0,0,0,0L2.6,36.6
			c-0.5,0.1-0.8,0.5-0.7,1c0.1,0.5,0.5,0.8,1,0.7l13.6-1.9c1.8,6.7,3.2,13.6,4.1,20.5L7.3,59.6c-1.1,0.2-0.8,1.9,0.3,1.7l13.3-2.7
			v0.1c0,0.4,0.4,0.7,0.8,0.7c0.1,0.4,0.5,0.6,0.9,0.5l10.3-2c0.5,0.2,1.1-0.1,1.3-0.7c0-0.1,0-0.2,0-0.3c0-0.5,0-0.9,0-1.4
			c2.8,1.1,5.7,0.7,8.6,0.4l12.8-1.6c0.4,0,0.7-0.4,0.7-0.8c1.9-1.1,2.9-3.2,2.5-5.3c0-0.2-0.1-0.4-0.2-0.7c2.6,0.1,3.9-3,3.3-5.5
			c-0.1-0.6-0.4-1.1-0.9-1.5C62.5,39,62.6,36.5,61.1,34.9z M55.5,27.6c-0.5,0-1,0-1.5,0c1.3-5.3,2.8-10.6,4.5-15.9
			c0-0.1,0-0.2,0-0.3l0,0l1.5-1.4L55.5,27.6z M52.2,27.8c-0.4,0-0.8,0.1-1.2,0.1c1-5.5,2-11,2.9-16.5c0-0.1,0-0.1,0-0.2l1.9-1.6
			l0.9,1.8l0.1,0.1C55.1,16.9,53.6,22.4,52.2,27.8L52.2,27.8z M54.1,4.9c1.2,1.3,3.1,1.6,4.6,0.7h0l1.1,2.2l-2,2l-1-1.9
			c-0.2-0.4-0.7-0.6-1.1-0.4c-0.1,0-0.2,0.1-0.2,0.2c-0.1,0-0.3,0.1-0.4,0.2l-2.2,1.9l-1.4-3C52.4,6.3,53.2,5.6,54.1,4.9z M50.7,9.3
			l0.9,2c0.1,0.2,0.2,0.3,0.5,0.4c-0.8,4.6-1.6,9.2-2.4,13.8c-0.4-0.5-0.9-1-1.4-1.4L50.7,9.3z M35.7,15.6l2.4-0.8
			c1.1-0.3,0.6-2-0.5-1.7l-2.2,0.7l-1.5-8.1l8.7-1.6l3.2,18.7c-1.3-0.4-2.7-0.5-4-0.2l-0.2,0c-0.3,0.1-0.7,0.2-1.1,0.3
			s-1,0.4-1.4,0.5c-0.6,0.3-1.2,0.6-1.7,1l-0.5-2.7h0.2l3.2-0.6c1.1-0.2,0.6-1.9-0.5-1.7l-3.2,0.6l0,0l-0.3-1.5l3.1-0.7
			c1.1-0.2,0.6-1.9-0.5-1.7l-3,0.6L35.7,15.6z M22.5,58.2c-1-7.9-2.6-15.7-4.6-23.3c3.6-1,7.3-1.7,11-2.1c2.1,7.7,3.2,15.6,3.4,23.5
			L22.5,58.2z M52.5,42l5.1-0.2c1.2,0,2.5,0,2.7,1.6c0.1,1.2-0.6,3-2.2,2.5c-0.5-0.2-1,0.1-1.1,0.5c0,0,0,0,0,0
			c-1.6-0.4-3.8,0.2-5.2,0.4c-0.5,0.1-0.8,0.6-0.7,1c0.1,0.4,0.5,0.7,0.9,0.7l2.6-0.3c0.9-0.1,2.4-0.6,2.5,0.7
			c0.1,1.6-0.8,3-2.3,3.5c-0.2,0.1-0.3,0.2-0.4,0.4L44.5,54c-3.5,0.4-7.3,1.4-10.5-0.3l0,0c-0.3-6.4-1.3-12.8-2.8-19
			c0.1-0.1,0.2-0.2,0.3-0.3c1.8-3,3.6-6.1,6.5-8.3c3.5-2.5,9.5-2.9,11.2,1.8c-0.2,0.1-0.4,0.2-0.5,0.5l-4.9,0.4
			c-1.1,0.1-0.9,1.8,0.2,1.7l6.5-0.5c0.2,0,0.4-0.1,0.6-0.3c1-0.1,2-0.3,3-0.4c2.7-0.2,4.1,1.6,3.1,4.2l0,0
			c-1.1,0.1-2.3,0.3-3.4,0.7c-1.1,0.3-0.4,1.9,0.7,1.6c1.4-0.4,3.1-1,4.5-0.3c1.2,0.6,1.7,2,1.1,3.2c-0.2,0.3-0.4,0.6-0.7,0.8
			c-0.1,0.1-0.2,0.3-0.3,0.5h-0.1c-2.3-0.1-4.6,0.2-6.9,0.3C51.2,40.3,51.4,42,52.5,42z"/>
		<path class="st0" d="M39.5,6.7c-0.1-0.2-0.3-0.4-0.5-0.4c-1.1-0.3-2.2,0.3-2.5,1.4c0,0.2-0.1,0.4-0.1,0.5c0,1.3,1.1,2.3,2.3,2.4
			c1.2,0.2,2.4-0.6,2.7-1.9C41.5,7.5,40.5,6.9,39.5,6.7z M38.9,8.9c-0.3,0-0.6-0.2-0.8-0.4c0-0.1,0-0.2,0-0.3
			c0.2,0.1,0.3,0.2,0.5,0.2c0.2,0,1,0,1,0.2S39.1,8.9,38.9,8.9z"/>
	</g>
</g>
</svg>
