<?xml version="1.0" encoding="utf-8"?>
<!-- Generator: Adobe Illustrator 20.0.0, SVG Export Plug-In . SVG Version: 6.00 Build 0)  -->
<svg version="1.1" id="Layer_1" xmlns="http://www.w3.org/2000/svg" xmlns:xlink="http://www.w3.org/1999/xlink" x="0px" y="0px"
	 viewBox="0 0 64 64" style="enable-background:new 0 0 64 64;" xml:space="preserve">
<style type="text/css">
	.st0{fill:#2C2B30;}
</style>
<title>Asset 74</title>
<g id="Layer_2">
	<g id="Layer_1-2">
		<path class="st0" d="M63.9,35.3c-0.3-3.3-1.6-6.5-3.7-9.1L60,8.2c0-0.4-0.3-0.8-0.7-0.8c-0.1,0-0.2,0-0.3,0h-3.4l-0.2-2.8
			c0-0.2-0.1-0.3-0.1-0.4c-0.1-0.3-0.4-0.5-0.7-0.5C48.2,3.7,41.3,3,35,3.9c-3.3,0.5-6.4,2.2-7.5,5.2C23.1,2.3,12.3,5.7,5.4,5.3
			c-0.9,0-1,1.2-0.3,1.5l0.1,1.9H0.8C0.3,8.8,0,9.2,0,9.6c0,0.2,0.1,0.5,0.3,0.6c0.4,13.7,0.8,27.4,1.2,41.1c0,0.4,0.2,0.7,0.6,0.8
			c0.1,0,0.1,0,0.2,0.1c6.4,1.2,12.8,1,19.3,0.8l20.1-0.7l0.4,5.3c-0.1,0.3-0.1,0.6,0.2,0.8c3.5,3.3,9.4,2.4,13.4,0.5
			c0.5,0.1,0.9-0.3,0.9-0.7c0,0,0,0,0-0.1l0.4-6.8c0-0.2,0-0.3-0.1-0.5C62.2,47.7,64.5,41.3,63.9,35.3z M58.3,9l0.2,15.5
			c-0.7-0.5-1.4-1-2.1-1.4L55.7,9H58.3z M40.8,5.3h13l0.9,17.3c-1.1-0.3-2.3-0.3-3.4-0.2c0-0.4-0.4-0.7-0.8-0.7
			c-6.7,0-13.7,2.8-17,8.9c-2.5,4.4-2.4,9.7,0.2,14c-1.4,0.3-2.7,1.1-3.7,2.2l-1.4-35c0-0.1,0-0.2-0.1-0.3c0,0,0-0.1,0-0.1
			C29,5.3,36.4,5.3,40.8,5.3z M27,11.8c0,0.1,0.1,0.1,0.1,0.2l1.4,34.1c-4-4.7-15-2.7-20.7-1.7L6.7,6.9C13.4,6.8,24.2,3.7,27,11.8z
			 M22.6,51.3c-6.5,0.2-13.1,0.5-19.5-0.6C2.7,37.2,2.3,23.8,1.9,10.4h3.2l1,34.5c-0.3,0.4-0.1,0.9,0.3,1.2c0.2,0.1,0.4,0.2,0.6,0.1
			c5.2-1,21.3-4.7,21.4,4.4c0,0.1,0,0.2,0.1,0.3L22.6,51.3z M29.9,51c0-0.1,0-0.2,0-0.2c0-0.1,0-0.1,0-0.2c0.3-2.5,2.3-4.4,4.8-4.6
			c0.5,0.6,1,1.2,1.6,1.7c1.4,1.2,2.9,2.2,4.5,3L29.9,51z M55.1,57.4c-3.2,1.5-8.3,2.5-11.3,0.1l-0.2-2.2c3.6,1.9,8,1.9,11.6,0.1
			L55.1,57.4z M55.3,53.5L55.3,53.5c-3.5,2.1-7.8,2.2-11.3,0.2c-0.2-0.1-0.4-0.1-0.5-0.1l-0.2-1.8c0.1,0.1,0.3,0.1,0.4,0.1
			c3.8,1.4,8,1.4,11.7-0.2L55.3,53.5z M44.5,50.3l0.2-10.8c0.4,0.4,0.9,0.7,1.3,1c0.2,0.4,0.6,0.6,1,0.5l0,0c0.6,0.2,1-0.3,1-0.8
			l2.3-2.3l1.8,2.5c0.3,0.4,0.8,0.5,1.2,0.2c0.1,0,0.2-0.1,0.3-0.2c0.6-0.8,1.4-1.4,2.3-1.8c-1.1,3.9-1.7,7.8-2.1,11.8
			c-2.8,1-5.9,1-8.8,0.2L44.5,50.3z M55.5,49.6c0.4-4.1,1.2-8.1,2.3-12.1c0.1-0.4-0.1-0.9-0.5-1c-0.2-0.1-0.4-0.1-0.5,0
			c-0.1,0-0.2,0-0.3,0c-1.4,0.4-2.7,1.1-3.7,2.1l-1.7-2.3l0,0C50.9,36,50.5,35.8,50,36c-0.1,0-0.1,0.1-0.2,0.1l-3.1,3
			c-0.8-0.5-1.5-1.2-1.9-2c-0.1-0.1-0.2-0.2-0.3-0.3c-0.3-0.3-0.9-0.3-1.2,0c-0.1,0.1-0.2,0.3-0.2,0.5l-0.2,12.3
			c-6.1-2.6-11-8.1-9.2-15.2c1.8-7.3,8.9-10.9,15.9-11.2c0,0.5,0.4,0.8,0.9,0.8c0,0,0.1,0,0.1,0c9.1-2,12.9,9.5,11.5,16.5
			C61.3,44.5,58.9,47.8,55.5,49.6L55.5,49.6z"/>
		<path class="st0" d="M23.9,18.5c-4.3-1.3-8.8-1.4-13.1-0.4c-1,0.2-0.6,1.8,0.4,1.6c4-0.9,8.3-0.8,12.2,0.4c0.4,0.1,0.9-0.1,1-0.6
			S24.3,18.6,23.9,18.5L23.9,18.5z"/>
		<path class="st0" d="M23.9,24.1c-4.3-1.3-8.8-1.4-13.1-0.4c-1,0.2-0.6,1.8,0.4,1.6c4-0.9,8.3-0.8,12.2,0.4c0.4,0.1,0.9-0.1,1-0.6
			C24.6,24.7,24.3,24.2,23.9,24.1L23.9,24.1z"/>
		<path class="st0" d="M23.9,29.7c-4.3-1.3-8.8-1.4-13.1-0.4c-1,0.2-0.6,1.8,0.4,1.6c4-0.9,8.3-0.8,12.2,0.4c0.4,0.1,0.9-0.1,1-0.6
			C24.6,30.2,24.3,29.8,23.9,29.7L23.9,29.7z"/>
		<path class="st0" d="M20.9,12.3c-3.3-0.7-6.6-0.6-9.9,0.3c-0.4,0.1-0.7,0.6-0.6,1s0.6,0.7,1,0.6c2.9-0.8,6-0.9,9-0.3
			C21.5,14.1,21.9,12.5,20.9,12.3z"/>
		<path class="st0" d="M34.8,18.5c4.3-1.3,8.8-1.4,13.1-0.4c1,0.2,0.6,1.8-0.4,1.6c-4-0.9-8.3-0.8-12.2,0.4c-0.4,0.1-0.9-0.1-1-0.6
			C34.1,19.1,34.4,18.6,34.8,18.5z"/>
		<path class="st0" d="M37.8,12.3c3.3-0.7,6.6-0.6,9.8,0.3c0.4,0.1,0.7,0.6,0.6,1s-0.6,0.7-1,0.6c-2.9-0.8-6-0.9-9-0.3
			C37.2,14.1,36.8,12.5,37.8,12.3z"/>
	</g>
</g>
</svg>
