<?xml version="1.0" encoding="utf-8"?>
<!-- Generator: Adobe Illustrator 20.0.0, SVG Export Plug-In . SVG Version: 6.00 Build 0)  -->
<svg version="1.1" id="Layer_1" xmlns="http://www.w3.org/2000/svg" xmlns:xlink="http://www.w3.org/1999/xlink" x="0px" y="0px"
	 viewBox="0 0 64 64" style="enable-background:new 0 0 64 64;" xml:space="preserve">
<style type="text/css">
	.st0{fill:#2C2B30;}
</style>
<title>Asset 38</title>
<g id="Layer_2">
	<g id="Layer_1-2">
		<path class="st0" d="M62.2,47.7c-1.5-1.7-3.7-1.9-5.8-1.5c-3.4-5.4-9.1-8.4-15.3-9.2c-1.5-0.2-3-0.3-4.4-0.3l0.5-4.6
			c0.4,0.2,0.9,0,1.1-0.4c0,0,0,0,0,0c0.1-0.3,0.3-0.6,0.6-0.9c4.5,2.5,9.2,3.5,13.5-0.1c4.3-3.6,4.9-9.4,4.2-14.6
			c-0.1-0.4-0.4-0.6-0.8-0.5c-0.1,0-0.2,0-0.2,0.1c-0.2-0.3-0.7-0.4-1-0.2c0,0,0,0,0,0c-6,3.6-12.6,7-16.1,13.2
			c-0.1,0.2-0.1,0.3-0.1,0.5c-0.4,0.3-0.7,0.7-1,1.1l1.1-11.1c0.2-0.1,0.5-0.1,0.7-0.2c5-2,7.5-7.5,5.8-12.6
			c-1.8-5.2-8.1-7.6-13-5.7c-0.3,0.1-0.5,0.4-0.5,0.8c-3.9,2-6,6.4-5,10.7c1,3.9,4.2,6.8,8.2,7.4c0,0.1,0,0.1,0,0.2l-0.2,3.2
			c-3.1-5.4-13.1-4.6-18.2-4.1c-0.9,0.1-1,1.4-0.3,1.5c0.9,5.9,6.3,10,12.2,9.1c2.1-0.3,4.2-1.3,5.8-2.7c0,0,0.1-0.1,0.1-0.1l0,0
			L33.2,37c-4.1,0.4-8,1.9-11.3,4.4c-0.1,0.1-0.2,0.3-0.3,0.5c-1.4,0-2.8,0.2-4.2,0.5v-2.2c0-0.4-0.4-0.8-0.8-0.8
			c-0.1,0-0.1,0-0.2,0L5.7,39.1c-0.3,0-0.6,0.2-0.7,0.5l-3.6-0.3c-1-0.1-1,1.5,0,1.5L5,41.2l-0.1,16h0H1.6c-0.4,0-0.7,0.4-0.7,0.9
			c0,0.4,0.3,0.6,0.7,0.7h3.2H5c0,0.1,0.1,0.2,0.2,0.3c0.1,0.2,0.4,0.3,0.6,0.3l5.6-0.1c1.7-0.2,3.3-0.1,5,0.1
			c0.3,0.3,0.8,0.3,1.1,0c0.1-0.1,0.2-0.3,0.2-0.5v-1.5c2.4,1.7,5.5,2.4,8.2,3.6c2.5,1.1,5.2,2.7,7.9,3.1c3.3,0.4,6.8-1.7,9.8-2.9
			l11-4.4C57.6,55.4,66.3,52.5,62.2,47.7z M51.4,21c-2.5,3-5.7,5.2-9.4,6.4l-1.3,0.4C44.3,23,49.9,20,55.1,17c0.5,4.3,0,9-3.3,12.2
			c-3.6,3.5-7.7,2.7-11.7,0.6c1.9-1.1,4.6-1.6,6.3-2.5c2.3-1.3,4.4-3.1,6.1-5.1C53.1,21.3,52,20.2,51.4,21z M23.2,25.3
			c3-0.6,6.1-0.4,9,0.6c-4,3.2-9.8,2.6-13-1.4c-1-1.3-1.7-2.8-2-4.4c5.1-0.5,14.7-1,16.1,4.6c-3.4-1.4-7.1-1.7-10.6-1
			C21.8,24,22.2,25.5,23.2,25.3z M12.3,57.6l-5.8,0.1l0.1-17l9.3,0.2l0.4,16.9C14.9,57.6,13.6,57.6,12.3,57.6z M35.1,36.8h-0.3
			L36,19.7c0,0,0-0.1,0-0.1c0.3,0,0.5,0,0.8,0L35.1,36.8z M32.5,9.3C32,8.9,31.1,9,31.2,9.8l0.7,7.1c-2-1.1-3.5-3-4-5.3
			c-1.1-4.7,2.4-9,6.9-9.8c0.2,0,0.3-0.1,0.5-0.3c3.6-0.2,6.9,1.8,8.2,5.1c1.3,3.8-0.2,8.1-3.7,10.2c0.8-2.4,1.2-5,1.3-7.5
			c0-0.2-0.1-0.4-0.2-0.5c-0.2-0.4-0.6-0.6-1.1-0.4c-0.1,0-0.2,0.1-0.2,0.1c-0.6,0.6-1.2,1.2-1.8,1.9c-0.5-0.5-1-0.9-1.5-1.4
			C36.2,9,36.1,9,36,8.9c-0.3-0.3-0.7-0.4-1-0.1c-0.1,0-0.1,0.1-0.1,0.2c-0.2,0.5-0.5,0.9-0.6,1.4l-1.5-1
			C32.7,9.3,32.6,9.3,32.5,9.3z M33.8,17.7l-0.4-0.1l-0.6-6.2l0.9,0.7c0,0.8,1.3,1.1,1.5,0.2v-0.1l0,0c0.1-0.2,0.1-0.3,0.1-0.5
			c0.1-0.3,0.2-0.7,0.3-1c0.6,0.4,1.1,1,1.5,1.5c0.2,0.4,0.6,0.6,1,0.5c0.3-0.1,0.5-0.4,0.5-0.8c0.2-0.3,0.5-0.6,0.7-0.9
			c-0.2,2-0.6,3.9-1.2,5.8c-0.1,0.3,0,0.6,0.2,0.8c-0.8,0.3-1.6,0.4-2.4,0.5c-0.3,0.1-0.6,0.1-0.9,0h-0.3
			C34.5,18,34.2,17.9,33.8,17.7L33.8,17.7z M40.8,38.6c5.6,0.7,10.8,3.3,13.9,8.1c-2.7,0.8-5.4,2-8.1,3.1l0.1-0.1
			c3.5-6.3-10.7-4.5-13.4-4.4l0,0c-2.9-1.9-6.1-3.1-9.5-3.4C28.5,38.5,35.3,37.8,40.8,38.6L40.8,38.6z M53.7,55.3l-7.2,2.9
			c-4.4,1.8-9.9,5.4-14.7,3.5c-2.4-0.9-4.7-2-7-3s-5.1-1.7-6.9-3.2c-0.1-0.1-0.2-0.1-0.3-0.2l-0.3-11.5c5.2-1.2,10.7-0.3,15.1,2.7
			l0.1,0.1c0.1,0.1,0.3,0.2,0.5,0.2l7.2-0.2c1,0,3-0.4,4,0.1c2.3,0.8,0.5,3.8-1.4,3.5c-0.6,0.1-1.1,0.2-1.7,0.2
			c-4.7,0.4-9.4,0.5-14.2,0.2c-1-0.1-1,1.5,0,1.5c4.2,0.3,8.5,0.3,12.7,0c1.7,0,3.4-0.2,5-0.8c0.1,0.3,0.4,0.6,0.8,0.5
			c0,0,0.1,0,0.1,0l7.5-2.8c2.1-0.8,5.9-2.6,7.7-0.4C64,52.3,55.9,54.5,53.7,55.3z"/>
	</g>
</g>
</svg>
