<?xml version="1.0" encoding="utf-8"?>
<!-- Generator: Adobe Illustrator 20.0.0, SVG Export Plug-In . SVG Version: 6.00 Build 0)  -->
<svg version="1.1" id="Layer_1" xmlns="http://www.w3.org/2000/svg" xmlns:xlink="http://www.w3.org/1999/xlink" x="0px" y="0px"
	 viewBox="0 0 64 64" style="enable-background:new 0 0 64 64;" xml:space="preserve">
<style type="text/css">
	.st0{fill:#2C2B30;}
</style>
<title>Asset 57</title>
<g id="Layer_2">
	<g id="Layer_1-2">
		<path class="st0" d="M37.2,38.8l-0.6-0.5l-3-6.6c-0.1-0.1-0.2-0.3-0.3-0.3c0-0.3,0-0.5,0-0.8c-0.1-0.5-0.4-1-0.8-1.4
			c0-0.1,0-0.1,0-0.2L31,18.8c0-0.2-0.1-0.3-0.2-0.4c-0.1-0.4-0.6-0.7-1-0.5c-0.3,0.1-0.5,0.3-0.5,0.5c-0.9,3.7-1.8,7.4-2.6,11.1
			c-0.1,0.3,0,0.6,0.3,0.8c0,0.2-0.1,0.4-0.1,0.7c0,1.4,0.9,2.5,2.2,3c0,0.3,0.1,0.5,0.4,0.6c2.1,1.4,4,3,5.9,4.7l0.3,0.6
			c0.1,0.3,0.5,0.5,0.9,0.3c0,0,0.1,0,0.1-0.1c0.4,0,0.8-0.3,0.9-0.7C37.5,39.2,37.4,38.9,37.2,38.8z M29.9,22.3l0.8,5.3
			c-0.1,0-0.1,0-0.2,0c-0.7,0-1.3,0.1-1.9,0.4C29,26.1,29.4,24.2,29.9,22.3z M29.9,32.5c-0.9-0.1-1.5-1-1.4-1.9c0,0,0,0,0,0
			c0.1-0.3,0.2-0.7,0.5-0.9c0.2,0.4,0.7,0.5,1.1,0.3c0.6-0.3,1.3-0.1,1.6,0.5c0.1,0.2,0.2,0.5,0.1,0.8
			C31.5,32.1,30.7,32.7,29.9,32.5z M31.3,33.9c0.5-0.2,0.9-0.5,1.3-0.8l1.3,2.8C33,35.2,32.1,34.5,31.3,33.9z"/>
		<path class="st0" d="M48,26.9c-1.3-4.5-4.4-7.6-7.9-10.5c-3.3-2.7-7-4.9-11.4-3.8c-0.1,0-0.2,0.1-0.2,0.1
			c-7.3,1.1-14.1,4.8-15.6,12.6c-1.4,7.4-0.6,15.8,6.3,20.2C31.9,53.8,52.6,43.2,48,26.9z M29.8,46.9C26,47,22.1,45.9,19,43.6
			c-3.6-2.7-5-6.8-5.1-11.2s0.3-9.4,3.4-12.9s7.8-4.9,12.3-5.3c0.2,0,0.3-0.1,0.4-0.2c4.4-0.5,8.3,2.8,11.4,5.7
			c3.5,2.9,5.5,7.2,5.6,11.7C47.1,40.5,38.5,46.8,29.8,46.9z"/>
		<path class="st0" d="M20.8,29.5l-3.6,0.2c-1,0-1,1.6,0,1.6l3.6-0.2C21.8,31.1,21.8,29.5,20.8,29.5z"/>
		<path class="st0" d="M43.1,30.4l-3.6,0.2c-1,0-1,1.6,0,1.6l3.6-0.2C44.2,31.9,44.2,30.3,43.1,30.4z"/>
		<path class="st0" d="M54.9,25.2c0-0.2-0.1-0.3-0.2-0.4c-0.1-0.2-0.4-0.4-0.7-0.4c-1.4,0-2.9,0.1-4.3,0.3c-1-2.9-2.6-5.6-4.6-7.9
			c0.2-0.2,0.3-0.5,0.3-0.7c-0.7-5.2-2-10.4-3.7-15.4c-0.3-1-1.9-0.6-1.5,0.4c1.6,4.6,2.8,9.4,3.5,14.2c-0.3-0.3-0.6-0.6-0.9-0.9
			c0.3-0.2,0.3-0.6,0.2-0.9l-1.3-2.8c-0.4-0.9-1.8-0.1-1.4,0.8l0.7,1.5c-3.4-2.4-7.5-3.6-11.6-3.2c-0.2,0-0.3,0.1-0.5,0.2
			c-3.5,0.1-7,1.1-10,2.9l0.3-0.9c0.1-0.4-0.1-0.9-0.6-1c-0.4-0.1-0.9,0.1-1,0.6l0,0l-0.6,2.2c0,0.1,0,0.3,0,0.4
			c-0.6,0.5-1.2,1-1.7,1.5l4.4-14.2c0.3-1-1.3-1.4-1.6-0.4l-5.1,16.3c-0.1,0.2,0,0.5,0.1,0.7c-1.4,1.9-2.4,4-3,6.2
			C9.1,28.4,8.5,34,9.8,38.2c0.6,2,1.7,3.8,3.1,5.3c-0.1,0.2-0.2,0.4-0.2,0.7l3.7,19.3c0.2,1,1.7,0.6,1.5-0.4l-3.4-17.9
			c0.6,0.5,1.3,1,1.9,1.5c0,0.1,0,0.2,0,0.3l0.4,2.2c0.1,0.4,0.6,0.7,1,0.6c0,0,0,0,0,0c0.4-0.1,0.7-0.6,0.6-1l-0.2-0.8
			c6.4,4.1,14.4,4.7,21.4,1.6l-0.4,1c-0.1,0.4,0.1,0.9,0.5,1c0,0,0,0,0,0c0.4,0.1,0.9-0.1,1-0.5l0.8-2.1c0-0.1,0-0.3,0-0.4
			c0.8-0.5,1.6-1,2.3-1.6L40.2,63c-0.2,1,1.3,1.4,1.5,0.4l3.9-17.3c0.1-0.2,0-0.5-0.2-0.7c2.2-2.2,3.8-4.9,4.8-7.9l3.6-0.1H54
			c0.4,0,0.8-0.3,0.8-0.7c0,0,0,0,0-0.1C54.9,32.7,55.1,29,54.9,25.2z M31.1,49.8c-4.8,0.1-9.5-1.4-13.5-4.2c-2.1-1.5-4-3.3-5.3-5.5
			c-1.4-2.4-1.5-5-1.5-7.7c0.1-5.4,1-10.5,4.6-14.7c3.6-4.1,8.8-6.4,14.2-6.2c0.2,0,0.4-0.1,0.6-0.2c10.4-0.6,18.6,9.6,19.3,19.5
			C50.2,41.2,41.3,49.5,31.1,49.8z M50.3,26.1c1-0.1,2-0.2,3-0.2c0,0.6,0,1.1,0,1.7l-2.7,0.1c-0.1-0.3-0.1-0.5-0.2-0.8
			S50.3,26.4,50.3,26.1z M53.2,35.8l-2.6,0.1c0.1-0.3,0.1-0.7,0.2-1.1h0.1l2.3-0.2h0.1C53.2,35,53.2,35.4,53.2,35.8z M53.3,33h-0.1
			l-2.1,0.2c0-0.4,0.1-0.8,0.1-1.3h2.1h0.1C53.3,32.3,53.3,32.7,53.3,33z M53.3,30.4h-0.1H51c0-0.3,0-0.7-0.1-1l2.4-0.1
			C53.3,29.6,53.3,30,53.3,30.4L53.3,30.4z"/>
		<path class="st0" d="M20.1,6.6c-0.4-0.1-0.9,0.1-1,0.6l-0.3,1.3c-0.1,0.4,0.1,0.9,0.6,1c0.4,0.1,0.9-0.1,1-0.6l0.3-1.3
			C20.8,7.2,20.6,6.8,20.1,6.6z"/>
		<path class="st0" d="M18.9,51.8c0-0.4-0.4-0.8-0.8-0.8c-0.4,0-0.8,0.4-0.8,0.8l0.4,3.3c0,0.4,0.4,0.8,0.8,0.8
			c0.4,0,0.8-0.4,0.8-0.8L18.9,51.8z"/>
		<path class="st0" d="M21.3,61l-0.5-2.2c-0.1-0.4-0.6-0.7-1-0.6s-0.7,0.6-0.6,1l0,0l0.5,2.2c0.1,0.4,0.6,0.7,1,0.6
			C21.1,61.9,21.4,61.4,21.3,61z"/>
		<path class="st0" d="M39.7,53.9l-0.8,2.9c-0.1,0.4,0.1,0.9,0.6,1c0.4,0.1,0.9-0.1,1-0.6l0.8-2.9c0.1-0.4-0.1-0.9-0.6-1
			C40.3,53.3,39.8,53.5,39.7,53.9L39.7,53.9z"/>
		<path class="st0" d="M38.2,59.8l-0.9,2.6c-0.3,1,1.2,1.4,1.5,0.4l0.9-2.6C40.1,59.2,38.5,58.8,38.2,59.8z"/>
	</g>
</g>
</svg>
