<?xml version="1.0" encoding="utf-8"?>
<!-- Generator: Adobe Illustrator 20.0.0, SVG Export Plug-In . SVG Version: 6.00 Build 0)  -->
<svg version="1.1" id="Layer_1" xmlns="http://www.w3.org/2000/svg" xmlns:xlink="http://www.w3.org/1999/xlink" x="0px" y="0px"
	 viewBox="0 0 64 64" style="enable-background:new 0 0 64 64;" xml:space="preserve">
<style type="text/css">
	.st0{fill:#2C2B30;}
</style>
<title>Asset 17</title>
<g id="Layer_2">
	<g id="Layer_1-2">
		<path class="st0" d="M58.3,5.1c0-0.4-0.3-0.7-0.6-0.8c-0.1-0.4-0.4-0.7-0.8-0.7l-6.5-0.2h-0.2c-1.1-1.1-2.3-2.2-3.3-3.3
			C46.7,0,46.4-0.1,46.1,0c-0.1,0-0.2,0-0.2,0L6.1,2.3c-0.3,0-0.5,0.2-0.6,0.4C5.3,2.8,5.2,3,5.2,3.3C5.2,21.4,5.1,39.5,5,57.6
			c0,0.3,0.2,0.6,0.5,0.7C5.6,58.7,5.9,59,6.3,59H12l0.1,2.8c-0.4,0.3-0.4,0.8-0.1,1.2c0.1,0.2,0.4,0.3,0.6,0.3
			c15.1,1.2,30.2,0.8,45.2-1c0.3,0,0.6-0.2,0.7-0.5c0.3-0.1,0.6-0.4,0.5-0.8L58.3,5.1z M46.7,2.4c1.8,1.8,3.7,3.6,5.5,5.3l-7.3,0.6
			L46.7,2.4z M6.9,3.9l38.4-2.2l-2.2,7l0,0c-0.3,0.3-0.3,0.8-0.1,1.1c0.2,0.2,0.4,0.3,0.7,0.3l10.1-0.8c-0.4,16-0.3,32,0.3,48.1
			L6.7,57.3C6.7,39.5,6.8,21.7,6.9,3.9z M13.7,61.8l-0.1-2.8l40.8-0.1c0.4,0,0.7-0.3,0.8-0.7c0.3-0.1,0.6-0.4,0.6-0.8
			C55.1,41.3,55,25.1,55.4,8.9c0-0.2-0.1-0.4-0.2-0.5c0-0.2-0.1-0.3-0.2-0.4c-1-0.9-2-1.9-3.1-2.8l4.7,0.1l0.7,55.4
			C42.9,62.5,28.3,62.8,13.7,61.8L13.7,61.8z"/>
		<path class="st0" d="M22.4,12.9l-2.5,0.3l0.1-2.8c0-1-1.6-1-1.6,0l-0.1,2.9l-2,0.2c-1,0.1-1,1.7,0,1.6l1.9-0.2l-0.1,2.5
			c0,1,1.6,1,1.6,0l0.1-2.7l2.6-0.3C23.4,14.4,23.4,12.8,22.4,12.9z"/>
		<path class="st0" d="M40,12.9l-5.2-0.3c-1-0.1-1,1.6,0,1.6l5.2,0.3C41.1,14.6,41.1,12.9,40,12.9z"/>
		<path class="st0" d="M20.7,27.1l-1.9,1.7l-2.2-2.2c-0.7-0.8-1.9,0.4-1.1,1.1l2.1,2.2l-1.1,1c-0.8,0.7,0.4,1.8,1.1,1.2l1.1-1
			l1.2,1.2c0.7,0.8,1.9-0.4,1.1-1.1L19.9,30l1.9-1.7C22.6,27.5,21.5,26.4,20.7,27.1z"/>
		<path class="st0" d="M43.5,26l-8.8,0.7c-1,0.1-1,1.7,0,1.6l8.8-0.7C44.6,27.5,44.6,25.9,43.5,26z"/>
		<path class="st0" d="M39,22.5h-0.1c-0.4,0-0.8,0.4-0.8,0.8c0,0.4,0.4,0.8,0.8,0.8l0,0H39c0.4,0,0.8-0.4,0.8-0.8
			C39.8,22.8,39.5,22.5,39,22.5z"/>
		<path class="st0" d="M39.3,29.1c-0.4,0-0.8,0.4-0.8,0.8c0,0.4,0.4,0.8,0.8,0.8s0.8-0.4,0.8-0.8C40.2,29.5,39.8,29.1,39.3,29.1z"/>
		<path class="st0" d="M28.2,39.4L14,39.3c-0.4,0-0.8,0.4-0.8,0.8c0,0.4,0.4,0.8,0.8,0.8L28.2,41c0.4-0.1,0.7-0.5,0.6-1
			C28.7,39.7,28.5,39.5,28.2,39.4z"/>
		<path class="st0" d="M46.6,44.7l-32.5-0.3c-0.5,0-0.8,0.4-0.8,0.8s0.4,0.8,0.8,0.8l32.5,0.3c0.5,0,0.8-0.4,0.8-0.8
			C47.4,45.1,47,44.7,46.6,44.7z"/>
		<path class="st0" d="M46.6,51.3L14.1,51c-0.4,0-0.8,0.4-0.8,0.8c0,0.4,0.4,0.8,0.8,0.8l32.5,0.3c0.5,0,0.8-0.4,0.8-0.8
			S47,51.3,46.6,51.3z"/>
	</g>
</g>
</svg>
