<?xml version="1.0" encoding="utf-8"?>
<!-- Generator: Adobe Illustrator 20.0.0, SVG Export Plug-In . SVG Version: 6.00 Build 0)  -->
<svg version="1.1" id="Layer_1" xmlns="http://www.w3.org/2000/svg" xmlns:xlink="http://www.w3.org/1999/xlink" x="0px" y="0px"
	 viewBox="0 0 64 64" style="enable-background:new 0 0 64 64;" xml:space="preserve">
<style type="text/css">
	.st0{fill:#2C2B30;}
</style>
<title>Asset 59</title>
<g id="Layer_2">
	<g id="Layer_1-2">
		<path class="st0" d="M62.5,27.4C61.2,11.9,46,1.8,31.6,0c-0.2,0-0.4,0-0.6,0.2C18.5,1.2,7.7,9.4,3.4,21.2
			C2.2,24.5,1.6,28,1.5,31.5c0,0.2-0.1,0.4-0.1,0.6c-0.1,0.3,0,0.5,0.2,0.7C2,50.5,16.6,64.5,34.3,64c4.1-0.1,8.1-1,11.9-2.6
			c5.5-2.3,10.8-6.2,13.1-11.9c1.1-3.2,1.9-6.5,2.3-9.8C62.4,35.7,62.7,31.5,62.5,27.4z M60.1,23.6c0.2,0.6,0.3,1.2,0.4,1.8
			c-5.7,0-11,2.8-14.3,7.4c-2.1-2.9-4.5-5.5-7.2-7.8l14.1-13.2C56.5,15,58.9,19.1,60.1,23.6L60.1,23.6z M31.7,1.9c0.1,0,0.2,0,0.2,0
			c7.3,1,14.2,4,19.9,8.7L37.6,23.9c-3.2-2.6-6.8-4.8-10.5-6.6c3-4.5,4.2-9.9,3.3-15.3C30.8,1.9,31.2,1.9,31.7,1.9z M28.6,2.2
			c0.8,5-0.4,10.1-3.2,14.3c-4.9-2.1-10.1-3.3-15.5-3.2C14.6,7.5,21.2,3.5,28.6,2.2z M3.9,26.1c0.8-3.9,2.4-7.7,4.7-11
			c5.4-0.2,10.8,0.8,15.7,2.9c-1.9,2.2-4.2,4-6.9,5.1c-4.2,1.8-10.5,1.8-13.9,5.1C3.6,27.5,3.7,26.8,3.9,26.1z M11.2,52.4
			c-5.1-5.6-7.9-12.9-7.9-20.5c1.4-4.6,7.1-5,11.2-6c3.5-0.9,6.7-2.6,9.4-5c0.8-0.7,1.5-1.5,2.1-2.3c3.7,1.7,7.1,3.9,10.3,6.4
			l-7.4,7C22.3,38.2,15.8,44.6,11.2,52.4z M36.5,62.1c-8.9,1-17.7-2.1-24.1-8.4C17.2,45.6,24,39,30.8,32.6l6.8-6.4l0.2,0.1
			c2.7,2.4,5.2,5,7.3,8c-0.6,0.9-1.1,1.9-1.6,2.8c-1.5,3.5-2.4,7.2-2.7,11C40.4,52.9,41.4,59.2,36.5,62.1z M48.7,58.2
			c-2.8,1.6-5.8,2.7-8.9,3.4c3.7-4.5,2.3-12.1,3.4-17.5c0.6-2.9,1.6-5.6,3.1-8.2c3.5,5.5,6.3,11.4,8.2,17.6
			C52.9,55.4,50.9,57,48.7,58.2L48.7,58.2z M58.9,44.3c-0.5,2.7-1.6,5.2-3.2,7.5c-2-6.2-4.9-12.1-8.5-17.5c3.1-4.3,7.6-7.3,13.5-7.2
			C61.3,32.9,60.1,38.8,58.9,44.3z"/>
	</g>
</g>
</svg>
