<?xml version="1.0" encoding="utf-8"?>
<!-- Generator: Adobe Illustrator 20.0.0, SVG Export Plug-In . SVG Version: 6.00 Build 0)  -->
<svg version="1.1" id="Layer_1" xmlns="http://www.w3.org/2000/svg" xmlns:xlink="http://www.w3.org/1999/xlink" x="0px" y="0px"
	 viewBox="0 0 64 64" style="enable-background:new 0 0 64 64;" xml:space="preserve">
<style type="text/css">
	.st0{fill:#2C2B30;}
</style>
<title>Asset 11</title>
<g id="Layer_2">
	<g id="Layer_1-2">
		<path class="st0" d="M51.5,12.9c-0.3-0.3-0.8-0.3-1.1,0c-0.1,0.1-0.1,0.2-0.2,0.3l-0.1,0.1c-3.3,2.9-5.2,7-5.3,11.4
			c0,0.4,0.3,0.8,0.8,0.8c0.4,0,0.8-0.3,0.8-0.8c0-1.2,0.2-2.4,0.5-3.6l7.6,0.3c0.2,1,0.3,2.1,0.4,3.1c0,0.4,0.3,0.8,0.8,0.8
			s0.8-0.3,0.8-0.8C56.4,20.2,54.6,16,51.5,12.9z M47.5,19.6c0.8-1.9,2-3.6,3.5-5c1.4,1.5,2.4,3.3,3.1,5.2L47.5,19.6z"/>
		<path class="st0" d="M63.2,18.6c-0.8-6.9-6.5-12.2-13.5-12.3c-3.2,0-6.3,1.1-8.8,3.2H27.3C25.5,3.8,20.3,0,14.3,0
			C6.7,0.1,0.6,6.4,0.7,14c0.1,3.5,1.4,6.8,3.8,9.3l1,30.3c0,0.2,0.1,0.5,0.3,0.6c-0.4,0.2-0.5,0.6-0.3,1c0.1,0.1,0.2,0.2,0.3,0.3
			c3.4,1.7,7.4,1.2,11.1,1.2h0.5c-0.8,1.9-1,4-0.7,6c0,0.2,0.1,0.4,0.3,0.5c0,0.4,0.4,0.7,0.7,0.6l30,0.2c0.4,0,0.7-0.3,0.8-0.7
			c0-0.1,0-0.1,0-0.2c0.3,0,0.6-0.2,0.7-0.6c0.3-2,0-4.1-0.9-6c3.7-0.1,7.4-0.2,11.1-0.4c0.4,0,0.8-0.4,0.7-0.8c0-0.1,0-0.1,0-0.2
			c0.2-0.1,0.3-0.4,0.3-0.6l0.7-26.7c0-0.1,0-0.2-0.1-0.3C62.8,24.9,63.6,21.7,63.2,18.6z M2.3,13.1c0.4-6.4,5.6-11.4,12-11.5
			c5.3,0,9.9,3.4,11.6,8.4c-0.1,0.3,0,0.7,0.3,0.9c0.1,0.6,0.2,1.2,0.3,1.7c0.4,5.9-3.5,11.3-9.2,12.7c-0.3,0.1-0.5,0.3-0.5,0.6
			c-0.1,0.1-0.1,0.2-0.2,0.3c-0.2,1-0.1,2.1,0.4,3.1c-1.8-0.4-3.3-1.4-4.4-2.9c0-0.1-0.1-0.1-0.1-0.1C12.3,26.1,12.1,26,12,26
			C6,24.6,2,19.1,2.3,13.1z M18.3,62.2c-0.1-0.4-0.1-0.7-0.1-1.1c9.9-0.4,19.8-0.3,29.6,0.4c0,0.2,0,0.4-0.1,0.6c0,0.1,0,0.2,0,0.3
			L18.3,62.2z M18.3,59.6c0.1-1,0.5-2,0.9-2.9h12c5.2,0,10.3-0.1,15.5-0.2c0,0.1,0,0.3,0.1,0.4c0.5,0.9,0.9,1.9,1,3
			C38,59.2,28.2,59.1,18.3,59.6L18.3,59.6z M59,54.6c-8.6,0.4-17.1,0.6-25.7,0.6H14.1c-2.5,0-5,0.2-7.3-0.9c0.2-0.1,0.3-0.4,0.3-0.6
			l-0.2-6.9l52.3-0.5h0L59,54.6C59,54.6,59,54.6,59,54.6L59,54.6z M59.2,44.8L59.2,44.8L6.8,45.2L6.2,24.8c1.6,1.2,3.3,2.1,5.3,2.6
			c1.7,2.2,4.4,3.6,7.3,3.6h0.1c0.8,0.3,1.5-0.9,0.7-1.4c-1.1-0.5-1.8-1.8-1.5-3c6.5-1.8,10.7-8.1,9.9-14.8c0-0.3-0.1-0.6-0.1-0.8
			h11.6c-1.7,2-2.9,4.5-3.2,7.1C35.3,24.8,39.5,31.2,46,33c0.2,1.2-0.4,2.5-1.5,3c-0.9,0.4-0.2,1.7,0.7,1.4h0.1
			c2.8,0,5.5-1.4,7.3-3.6c2.7-0.7,5.1-2.2,7-4.2L59.2,44.8z M52,32.3c-0.2,0-0.3,0.1-0.4,0.3c-0.1,0-0.1,0.1-0.2,0.2
			c-1.1,1.5-2.6,2.5-4.4,2.9c0.5-0.9,0.7-2,0.4-3.1c0-0.1-0.1-0.2-0.2-0.3c0-0.3-0.3-0.5-0.5-0.6c-5.7-1.4-9.6-6.8-9.2-12.7
			c0.3-3.1,1.7-5.9,4-7.9c0.1,0,0.2-0.1,0.3-0.2c2.2-1.9,5-2.9,7.9-2.9c6.4,0.1,11.6,5.2,12,11.5C62,25.5,57.9,30.9,52,32.3z"/>
		<path class="st0" d="M19.5,15.7L19,15.4c1-4.5-1.4-10.2-5.8-8.5h-0.1c-3.2,0.5-5.7,3.1-6,6.3c-0.3,3.5,2.3,6.7,5.8,7
			c0.1,0,0.3,0,0.4,0c2.3,0.1,4.3-1.3,5.2-3.4l0.2,0.2c0.4,0.1,0.8-0.1,1-0.5C19.8,16.2,19.7,15.9,19.5,15.7z M12.4,18.6
			c-2.6-0.6-4.3-3.2-3.7-5.9c0-0.1,0.1-0.2,0.1-0.3c0.6-2.1,2.4-3.7,4.6-4h0.1c0.4-0.1,0.8-0.1,1.2-0.1c0.1,0,0.3,0,0.4-0.1
			c2,0.3,2.7,3.5,2.7,5.4c0,0.3,0,0.6-0.1,0.9l-1.6-1c-0.4-0.2-0.8-0.1-1.1,0.3c-0.2,0.4-0.1,0.8,0.3,1.1l1.9,1.2
			C16.4,18,14.4,19.1,12.4,18.6z"/>
	</g>
</g>
</svg>
