<?xml version="1.0" encoding="utf-8"?>
<!-- Generator: Adobe Illustrator 20.0.0, SVG Export Plug-In . SVG Version: 6.00 Build 0)  -->
<svg version="1.1" id="Layer_1" xmlns="http://www.w3.org/2000/svg" xmlns:xlink="http://www.w3.org/1999/xlink" x="0px" y="0px"
	 viewBox="0 0 64 64" style="enable-background:new 0 0 64 64;" xml:space="preserve">
<style type="text/css">
	.st0{fill:#2C2B30;}
</style>
<title>Asset 5</title>
<g id="Layer_2">
	<g id="Layer_1-2">
		<path class="st0" d="M62.8,13.7c0-0.2,0-0.3-0.1-0.5c0-0.5-0.3-0.8-0.8-0.9c0,0,0,0-0.1,0l-11,0.1c0.3-4.4-0.6-9.1-5.1-10.9
			c-2.3-0.7-4.6-1.1-7-1.1C35.4,0.2,32.2,0,28.9,0c-4.5,0-10.1-0.4-13.7,2.8c-2.8,2.5-4,6.3-3.2,10l-9.8,0.1c-0.5,0-0.9,0.4-0.9,0.9
			c0,0.1,0,0.2,0.1,0.3c0,0.1,0,0.1,0,0.2L1.3,26.9c0,3.1-0.4,6.6,0.6,9.6c0.8,2.3,2.6,4.2,4.9,5.2c0.5,6.9,0.5,13.9,0,20.8
			c-0.3,0.4-0.3,0.9,0,1.3C7.1,63.9,7.3,64,7.5,64l47.8-0.6c0.5,0,0.9-0.5,0.9-1c0-0.3-0.2-0.5-0.4-0.7l-0.1-19.7
			c3.4-0.8,6.2-2.6,6.8-6.8c0.3-3.1,0.3-6.2,0.2-9.3C62.7,21.9,62.8,17.8,62.8,13.7z M17.6,3.3c3.5-2,8.6-1.5,12.5-1.5
			c3.8,0,7.6,0.3,11.4,0.7c2.8,0.3,5.4,1,6.8,3.8c0.8,1.9,1.1,4.1,0.8,6.2h-4.7c0.4-1.6-0.1-3.2-1.3-4.4c-2.3-2.3-6.2-2.2-9.2-2.3
			c-5.3-0.2-14.5-0.3-14.7,6.9h-5.3C12.8,9.1,14.4,5.2,17.6,3.3z M48.8,14.3l-0.3,17.6c-1.6-0.2-3.1-0.3-4.7-0.3V14.4
			c0,0,0-0.1,0-0.1L48.8,14.3z M42,31.5h-0.6c-0.5,0-0.9,0.4-0.9,0.9c0,0,0,0,0,0c-0.1,0.2-0.2,0.3-0.2,0.5l0.2,8L22,41.1l0.3-8.1
			c0-0.2,0-0.4-0.1-0.5c0-0.5-0.4-0.9-0.8-0.9c0,0,0,0,0,0h-0.6c0-5.7,0-11.3,0-17L42,14.4c0,0,0,0.1,0,0.1C42,20.2,42,25.8,42,31.5
			z M20.9,12.7c0.3-5.2,6.9-5.2,10.8-5.2c2.5,0,13.2-0.1,10.7,5L20.9,12.7z M18.9,14.5v17c-1.6,0-3.1,0.1-4.7,0.3l-0.3-17.3
			L18.9,14.5z M5.3,38.6c-2.2-2.1-2.3-5-2.3-7.8C3,25.4,3.1,20,3.2,14.6l8.9-0.1c0.1,5.8,0.2,11.7,0.3,17.5l-0.9,0.1
			c-0.4,0.1-0.7,0.5-0.6,0.9c0,0.2,0.1,0.3,0.2,0.4l0.4,7C9.3,40.9,7,40.2,5.3,38.6z M8.7,62.2c0.4-6.7,0.4-13.3,0-20
			c1,0.2,2,0.2,3,0.1l0.2,4c-0.2,0.4,0,1,0.4,1.2c0.1,0.1,0.2,0.1,0.4,0.1h0.1l0.3,14.6l0,0L8.7,62.2z M14.9,62.1l-0.3-14.6l4.1-0.1
			c0,0.1,0,0.2,0,0.2l0.1,14.4L14.9,62.1z M13.7,45.8l-0.3-4.1c0.1-0.2,0.1-0.5,0-0.7L13,33.8c2.5-0.4,5-0.5,7.6-0.5l-0.4,12.3
			L13.7,45.8z M42.2,47.7l-0.1,14.1l-21.4,0.3l-0.1-14.4c0-0.1,0-0.2,0-0.3h0.4c0.3,0,0.6-0.1,0.7-0.4c0.2-0.2,0.3-0.4,0.3-0.6
			l0.1-3.5l18.7-0.1l0.1,3.6c0,0.2,0.1,0.5,0.3,0.6c0.2,0.2,0.4,0.4,0.7,0.4h0.3C42.2,47.5,42.2,47.6,42.2,47.7z M47.8,61.7h-3.9
			L44,47.6c0-0.1,0-0.2,0-0.2l4.1,0.1L47.8,61.7z M42.6,45.7l-0.3-12.3c2.5-0.1,5.1,0.1,7.6,0.5l-0.7,12L42.6,45.7z M49.6,61.7
			l0.3-14.1H50c0.5,0,0.9-0.4,0.9-0.9c0-0.1,0-0.3-0.1-0.4l0.2-3.8c0.1,0.1,0.3,0.1,0.4,0.1c0.8,0,1.7-0.1,2.5-0.2L54,61.7
			L49.6,61.7z M59.9,37.9c-1.8,2.7-5.5,2.8-8.4,3c-0.1,0-0.2,0-0.3,0.1l0.5-7.3c0.3-0.3,0.3-0.8,0-1.1c-0.1-0.1-0.3-0.2-0.4-0.2
			l-0.9-0.1l0.3-17.8L61,14.1c0,5.3-0.1,10.7-0.1,16C60.9,32.6,61.2,35.7,59.9,37.9L59.9,37.9z"/>
	</g>
</g>
</svg>
