<?xml version="1.0" encoding="utf-8"?>
<!-- Generator: Adobe Illustrator 20.0.0, SVG Export Plug-In . SVG Version: 6.00 Build 0)  -->
<svg version="1.1" id="Layer_1" xmlns="http://www.w3.org/2000/svg" xmlns:xlink="http://www.w3.org/1999/xlink" x="0px" y="0px"
	 viewBox="0 0 64 64" style="enable-background:new 0 0 64 64;" xml:space="preserve">
<style type="text/css">
	.st0{fill:#2C2B30;}
</style>
<title>Asset 65</title>
<g id="Layer_2">
	<g id="Layer_1-2">
		<path class="st0" d="M59.7,28.3C59.7,28.3,59.7,28.3,59.7,28.3c0.4-0.3,0.5-0.9,0.2-1.2c-0.1-0.1-0.1-0.1-0.2-0.2
			c-0.1-0.2-0.3-0.4-0.5-0.4c-2.1-0.4-4.8-1-5.8-3.1c-1.1-2.4,0.8-4.6,3.1-5.2c0.4-0.1,0.7-0.6,0.5-1c0-0.1-0.1-0.2-0.2-0.3
			c0-0.4-0.4-0.7-0.8-0.6l-10.2,0.2L45.5,12c0-0.1,0-0.1,0-0.2c0.2-0.4,0.1-0.9-0.2-1.1c-0.1-0.2-0.3-0.4-0.5-0.4
			c-2.1-0.4-4.8-1-5.8-3.1c-1.1-2.4,0.8-4.5,3.1-5.1c0.4-0.1,0.7-0.6,0.6-1c0-0.1-0.1-0.3-0.2-0.4C42.4,0.3,42,0,41.7,0L15.8,0.6
			c-4.4,0.1-12.4,0.6-12,6.8C3.7,7.5,3.7,7.7,3.7,7.8v33.1c0,2.9-1.2,8.4,2.3,9.8c1.7,0.7,3.9,0.4,5.7,0.4l7.8,0.2
			c-0.1,2.6-0.3,5.3-0.2,7c0,1.9,0.8,3.6,2.3,4.7c1.9,1.2,4.6,0.9,6.7,0.9l10-0.3l21-0.7c0.1,0,0.2,0,0.3,0c0.4,0,0.8-0.2,0.8-0.7
			c0,0,0-0.1,0-0.1C60.2,51.7,59.9,38.6,59.7,28.3z M7.3,3.8c1.5-1,3.3-1.5,5.1-1.5c3-0.2,6.1-0.2,9.2-0.2l17.5-0.4
			c-1.5,1.1-2.3,3-2.1,4.8c0.3,2.2,2,3.5,3.9,4.3c-5,0.3-10,0.7-15.1,1c-3.1,0.2-6.2,0.4-9.3,0.3S8.6,12.3,6.4,9.8
			C4.9,8.1,5.2,5.6,6.9,4.2C7,4.1,7.2,4,7.3,3.8z M19.7,46.4c0,0.9-0.1,2-0.1,3.3l-6.3-0.1l-3.2-0.1c-1.9,0-2.1,0.1-3.6-1.3
			s-1.3-2.1-1.3-4.1v-3.2c0-2.1,0-4.3,0-6.4V11c3.1,3.2,10.2,2.8,13.9,2.8c8.2-0.1,16.5-0.9,24.7-1.5l0.3,4.1l-14,0.3
			c-4.5,0.1-12.9,0.6-12,7.3c0,0.2,0.1,0.5,0.1,0.7c-0.1,0.2-0.1,0.4-0.1,0.6C19.3,32.3,19.9,39.4,19.7,46.4z M21.7,20
			c1.5-1,3.3-1.5,5.1-1.5c3-0.2,6.1-0.2,9.2-0.2l17.5-0.4c-1.5,1.1-2.3,3-2.1,4.9c0.3,2.2,2,3.5,3.9,4.3c-5,0.3-10,0.7-15.1,1
			c-3.1,0.2-6.2,0.4-9.3,0.3s-8.1,0.2-10.3-2.3c-1.4-1.7-1.2-4.2,0.5-5.6C21.4,20.2,21.5,20.1,21.7,20L21.7,20z M41.5,61.9l-8.9,0.3
			c-2.7,0.1-6.2,0.8-8.8,0c-3.7-1.1-2.8-5.4-2.6-8.3s0.2-8.6,0.2-11.6c-0.1-4.9-0.5-9.8-1.1-14.6c3.3,2.7,9.9,2.3,13.4,2.3
			c8.1-0.1,16.3-0.9,24.4-1.5c0.3,10.1,0.5,22.8,0.8,32.9L41.5,61.9z"/>
		<path class="st0" d="M38.2,19.9c-4.1,0.3-8.3,0.3-12.4-0.1c-1-0.1-1,1.5,0,1.6c4.1,0.3,8.3,0.3,12.4,0.1
			C39.2,21.5,39.2,19.9,38.2,19.9z"/>
		<path class="st0" d="M44.1,23.2l-14.6,0.7c-1,0-1,1.7,0,1.6l14.6-0.7C45.2,24.7,45.2,23.1,44.1,23.2z"/>
		<path class="st0" d="M27.1,4.5L10.8,4.9c-0.4,0-0.8,0.4-0.8,0.8c0,0.4,0.4,0.8,0.8,0.8l16.3-0.3c0.4,0,0.8-0.4,0.8-0.8
			C28,4.9,27.6,4.6,27.1,4.5z"/>
		<path class="st0" d="M33.3,7.9L17.5,8.6c-1,0-1,1.7,0,1.6l15.8-0.7C34.4,9.4,34.4,7.8,33.3,7.9z"/>
		<path class="st0" d="M54.5,57.8l-8,0.3c-1,0-1,1.7,0,1.6l8-0.3C55.5,59.4,55.5,57.7,54.5,57.8z"/>
		<path class="st0" d="M48.5,34.5c-5.9,0.7-11.8,0.8-17.7,0.4c-1-0.1-1,1.5,0,1.6c5.9,0.4,11.8,0.3,17.7-0.4
			C49.5,36,49.5,34.3,48.5,34.5z"/>
		<path class="st0" d="M42.7,38.7l-5.5,0.2c-1,0-1,1.7,0,1.6l5.5-0.2C43.8,40.3,43.8,38.7,42.7,38.7z"/>
		<path class="st0" d="M48.7,43.6l-17.1,0.1c-0.4,0-0.8,0.4-0.8,0.8c0,0.4,0.4,0.8,0.8,0.8l17.1-0.1c0.4,0,0.8-0.4,0.8-0.8
			C49.5,44,49.2,43.6,48.7,43.6z"/>
	</g>
</g>
</svg>
