<?xml version="1.0" encoding="utf-8"?>
<!-- Generator: Adobe Illustrator 20.0.0, SVG Export Plug-In . SVG Version: 6.00 Build 0)  -->
<svg version="1.1" id="Layer_1" xmlns="http://www.w3.org/2000/svg" xmlns:xlink="http://www.w3.org/1999/xlink" x="0px" y="0px"
	 viewBox="0 0 64 64" style="enable-background:new 0 0 64 64;" xml:space="preserve">
<style type="text/css">
	.st0{fill:#2C2B30;}
</style>
<title>Asset 7</title>
<g id="Layer_2">
	<g id="Layer_1-2">
		<path class="st0" d="M24,49.3c-0.1-0.5-0.5-0.8-0.9-0.8c-0.4,0-0.7,0.4-0.8,0.8l0.1,9.4c-2.9,0.3-5.9,0.3-8.9-0.2l-0.1-9.2
			c-0.1-0.5-0.5-0.8-0.9-0.8c-0.4,0-0.7,0.4-0.8,0.8l0.1,9.7c-0.1,0.3-0.1,0.6,0.1,0.8c0.2,0.3,0.7,0.5,1.1,0.3
			c3.2,0.5,6.4,0.6,9.7,0.2c0.1,0,0.3-0.1,0.4-0.2c0.4,0.1,0.9-0.1,1-0.6c0-0.1,0-0.2,0-0.2L24,49.3z"/>
		<path class="st0" d="M15.3,49.6l-0.2,6.3c0,1.1,1.7,1.1,1.7,0l0.2-6.3C17,48.5,15.4,48.5,15.3,49.6z"/>
		<path class="st0" d="M18.6,49l-0.1,4c0,1.1,1.7,1.1,1.7,0l0.1-4C20.3,47.9,18.6,47.9,18.6,49z"/>
		<path class="st0" d="M52.4,49.3c-0.1-0.5-0.5-0.8-0.9-0.8c-0.4,0-0.7,0.4-0.8,0.8l0.1,9.4c-2.9,0.3-5.9,0.3-8.9-0.2l-0.1-9.2
			c-0.1-0.5-0.5-0.8-0.9-0.8c-0.4,0-0.7,0.4-0.8,0.8l0.1,9.7c-0.1,0.3-0.1,0.6,0.1,0.8c0.2,0.3,0.7,0.5,1.1,0.3
			c3.2,0.5,6.4,0.6,9.7,0.2c0.1,0,0.3-0.1,0.4-0.2c0.4,0.1,0.9-0.1,1-0.6c0-0.1,0-0.2,0-0.2L52.4,49.3z"/>
		<path class="st0" d="M43.7,49.6l-0.2,6.3c0,1.1,1.7,1.1,1.7,0l0.2-6.3C45.4,48.5,43.7,48.5,43.7,49.6z"/>
		<path class="st0" d="M47,49l-0.1,4c0,1.1,1.7,1.1,1.7,0l0.1-4C48.7,47.9,47,47.9,47,49z"/>
		<path class="st0" d="M49.6,18.8c0-0.1,0-0.2,0-0.2v-0.2c0-0.5-0.4-0.8-0.9-0.8c-0.2,0-0.4,0.1-0.6,0.3l-31.8-0.1
			c-0.4-0.2-0.9-0.1-1.2,0.3c-0.1,0.1-0.1,0.3-0.1,0.4v0.1l0,0l0.1,12.2c0,0.1,0,0.2,0.1,0.3c0,0.4,0.4,0.7,0.8,0.7l32.6-0.1
			c0.2,0,0.4-0.1,0.5-0.2c0.3-0.1,0.6-0.4,0.6-0.8L49.6,18.8z M37.6,30.1l3.8-5.2C42,24,40.6,23.1,40,24l-4.1,5.7
			c-0.1,0.1-0.1,0.2-0.2,0.4H23.2l4.3-5.8c0.6-0.9-0.8-1.7-1.5-0.9l-4.6,6.3c-0.1,0.1-0.1,0.2-0.1,0.4h-4.4V19.5L48,19.6v10.5
			L37.6,30.1z"/>
		<path class="st0" d="M42,10.6c0-0.4-0.3-0.8-0.7-0.8c-0.1-0.1-0.2-0.1-0.3-0.1L23.8,9.6c-0.1,0-0.3,0-0.4,0.1
			c-0.3,0.1-0.6,0.4-0.5,0.8v3.9c0,0.2,0.1,0.4,0.2,0.6c0.1,0.3,0.4,0.4,0.7,0.4H41c0.3,0,0.7-0.2,0.8-0.5c0.1-0.1,0.2-0.3,0.2-0.5
			L42,10.6z M24.5,11.3l15.8,0.1l-0.1,2.3l-15.7-0.1L24.5,11.3z"/>
		<path class="st0" d="M19.8,11.6c-0.5-1.2-1.8-1.8-3-1.4c-0.2,0.1-0.3,0.2-0.5,0.3c-1,0.7-1.4,2-0.9,3.1c0.6,1.2,2.1,1.6,3.2,1
			C19.8,14,20.3,12.7,19.8,11.6L19.8,11.6z M17.9,13.1c-0.8,0.4-1.4-0.7-0.6-1.2l0.1-0.1C18.1,11.8,18.7,12.7,17.9,13.1z"/>
		<path class="st0" d="M49.5,11.6c-0.5-1.2-1.8-1.8-3-1.4c-0.2,0.1-0.3,0.2-0.5,0.3c-1,0.7-1.4,2-0.8,3.1c0.6,1.2,2.1,1.6,3.2,1
			C49.5,14,50,12.7,49.5,11.6L49.5,11.6z M47.6,13.1c-0.8,0.4-1.4-0.7-0.6-1.2l0.2-0.1C47.9,11.8,48.4,12.7,47.6,13.1z"/>
		<path class="st0" d="M62.7,22.5L62.7,22.5l-4.2-0.1c-0.5,0-0.8,0.4-0.8,0.8c0,0.2,0,0.3,0.1,0.5l-0.1,9c-0.1,0.4,0.1,0.9,0.6,1
			c0.1,0,0.1,0,0.2,0h1.2V37l-4.9-0.1l-0.3-19.2c-0.1-3.3,0.1-6.8-2.1-9.5c-2.4-3-6.4-3.9-10.1-4.5c-0.1,0-0.2,0-0.2,0h-0.1
			L20.9,3.5c-0.2-0.2-0.4-0.2-0.7-0.2C12.7,4.7,9,11,8.6,18.2c-0.3,6.1-0.2,12.3,0.3,18.4l-5.2-0.2v-2.9h1.2h0.1
			c0.4,0.1,0.9-0.1,1-0.6c0-0.1,0-0.1,0-0.2l0.1-9.6c0-0.5-0.4-0.8-0.8-0.9c-0.1,0-0.3,0-0.4,0.1l0,0l-4.2-0.1
			c-0.5,0-0.8,0.4-0.8,0.8c0,0.2,0,0.3,0.1,0.5l-0.1,9c-0.1,0.4,0.1,0.9,0.6,1c0.1,0,0.1,0,0.2,0H2v3.8c0,0.5,0.4,0.8,0.9,0.8
			c0.2,0,0.3-0.1,0.5-0.1L9,38.3c0.2,3.1,0.4,6.2,0.7,9.3c-0.4,0.2-0.6,0.7-0.5,1.1c0.1,0.3,0.4,0.5,0.8,0.5l44.7,0.3
			c0.5,0,0.8-0.4,0.8-0.9c0-0.3-0.2-0.5-0.4-0.7L55,38.6l5.4,0.1c0.4,0,0.7-0.2,0.8-0.5c0.2-0.1,0.4-0.4,0.4-0.7v-3.9h1.2h0.1
			c0.4,0.1,0.9-0.1,1-0.6c0-0.1,0-0.1,0-0.2l0.1-9.6c0-0.5-0.4-0.8-0.9-0.8C63,22.3,62.9,22.4,62.7,22.5z M1.7,32l0.1-7.9l2.7,0.1
			l-0.1,7.8L1.7,32z M11.4,47.6c-0.6-8.1-0.9-16.2-1.1-24.3c0-4-0.2-8.3,1.6-12c1.7-3.2,4.7-5.5,8.3-6.2c0.1,0.1,0.3,0.1,0.4,0.1
			l21.4,0.2h0.1c3.7,0.6,8,1.5,9.8,5.2s0.9,8.9,1,12.7l0.4,24.6L11.4,47.6z M62.2,31.9L59.5,32l0.1-7.9l2.7,0.1L62.2,31.9z"/>
		<path class="st0" d="M22.2,36h-5.5c-0.4-0.3-1-0.1-1.2,0.3c-0.1,0.1-0.1,0.3-0.1,0.4l-0.3,7.2c0,0.4,0.2,0.7,0.6,0.8
			c0.1,0.3,0.4,0.4,0.7,0.4l4.9-0.2c0.3,0.3,0.9,0.3,1.2,0c0.1-0.2,0.2-0.4,0.2-0.6l0.2-6.9c0.2-0.4,0.1-0.9-0.3-1.2
			C22.5,36.1,22.3,36,22.2,36z M21.2,37.7L21,43.1l-4.2,0.2l0.2-5.6L21.2,37.7z"/>
		<path class="st0" d="M48.9,36h-5.5c-0.4-0.3-1-0.1-1.2,0.3c-0.1,0.1-0.1,0.3-0.1,0.4l-0.3,7.2c0,0.4,0.2,0.7,0.6,0.8
			c0.1,0.3,0.4,0.4,0.7,0.4l4.9-0.2c0.3,0.3,0.9,0.3,1.2,0c0.1-0.2,0.2-0.4,0.2-0.6l0.2-6.9c0.2-0.4,0.1-0.9-0.3-1.2
			C49.2,36.1,49,36,48.9,36z M47.9,37.7l-0.2,5.4l-4.3,0.2l0.3-5.6H47.9z"/>
		<path class="st0" d="M39.6,36.2L25.5,36c-0.5,0.1-0.8,0.5-0.8,0.9c0,0.4,0.4,0.7,0.8,0.8l14.1,0.2c0.5-0.1,0.8-0.5,0.8-0.9
			C40.3,36.6,40,36.2,39.6,36.2z"/>
		<path class="st0" d="M39.6,43.3l-14.1-0.2c-0.5,0.1-0.8,0.5-0.8,0.9c0,0.4,0.4,0.7,0.8,0.8L39.6,45c0.5-0.1,0.8-0.5,0.8-0.9
			C40.3,43.7,40,43.4,39.6,43.3z"/>
		<path class="st0" d="M39.6,39.8l-14.1-0.2c-0.5,0.1-0.8,0.5-0.8,0.9c0,0.4,0.4,0.7,0.8,0.8l14.1,0.2c0.5-0.1,0.8-0.5,0.8-0.9
			C40.3,40.1,40,39.8,39.6,39.8z"/>
	</g>
</g>
</svg>
