<?xml version="1.0" encoding="utf-8"?>
<!-- Generator: Adobe Illustrator 20.0.0, SVG Export Plug-In . SVG Version: 6.00 Build 0)  -->
<svg version="1.1" id="Layer_1" xmlns="http://www.w3.org/2000/svg" xmlns:xlink="http://www.w3.org/1999/xlink" x="0px" y="0px"
	 viewBox="0 0 64 64" style="enable-background:new 0 0 64 64;" xml:space="preserve">
<style type="text/css">
	.st0{fill:#2C2B30;}
</style>
<title>Asset 62</title>
<g id="Layer_2">
	<g id="Layer_1-2">
		<path class="st0" d="M60.8,13.1c0-0.3-0.2-0.6-0.5-0.7c-0.1-0.3-0.4-0.4-0.7-0.4c-7.4,0.4-14.8,0.5-22.3,0.6c0-0.1,0-0.2,0-0.3V8
			c0-0.3-0.2-0.5-0.4-0.7c0-0.3-0.3-0.6-0.6-0.6c-0.5-0.1-1.1-0.1-1.6-0.2l0,0l-0.1-5.5c0-0.1,0-0.2,0-0.3c0-0.4-0.4-0.7-0.8-0.7
			L29.6,0c-0.2,0-0.4,0-0.5,0.2c-0.3,0.1-0.5,0.4-0.5,0.7c-0.1,2-0.2,4-0.2,6h-1c-0.3,0-0.5,0.1-0.6,0.3c-0.2,0.1-0.3,0.4-0.3,0.6
			l-0.2,4.8c-7.2-0.1-14.3-0.4-21.6-0.5c-0.4,0-0.8,0.3-0.8,0.8c0,0.2,0,0.3,0.1,0.4l0,0C3.4,24.5,2.2,36,3.5,47.2
			C3.5,47.7,4,48,4.5,48c0.1,0,0.2-0.1,0.3-0.1l9.5,0.3c-0.1,0.1-0.2,0.2-0.3,0.4L8.7,61.7c-0.2,0.6,0.2,0.9,0.7,1
			c0.1,0.1,0.2,0.1,0.3,0.2l2.4,0.8c0.2,0.4,0.7,0.5,1.1,0.2c0.4-0.1,0.6-0.6,0.5-1l6.2-13.9c0.1-0.3,0.1-0.6-0.1-0.8
			c3.3,0.1,6.6,0.1,9.9,0.2c0,0,0,0.1,0,0.1l-0.3,9.3c0,0.4,0.3,0.8,0.7,0.8c0,0,0,0,0.1,0c0.1,0.2,0.4,0.3,0.6,0.3h3.3
			c0.5,0,0.8-0.4,0.8-0.9c0-0.2-0.1-0.4-0.3-0.6l0.3-9c0,0,0,0,0-0.1c2.6,0,5.3,0,7.9,0c0,0.2,0,0.4,0.2,0.5c3,3.9,5.3,8.2,6.8,12.9
			c0.1,0.3,0.3,0.5,0.6,0.5c0.3,0.2,0.6,0.2,0.8,0l2.9-1.8c0.1-0.1,0.2-0.1,0.2-0.2c0.3-0.2,0.4-0.5,0.3-0.8c0,0,0,0,0,0L50,48.3
			c3.2-0.1,6.4-0.2,9.6-0.4c0.2,0,0.4-0.1,0.6-0.3c0.3-0.1,0.5-0.4,0.5-0.7C61.2,35.6,61.2,24.4,60.8,13.1z M30.2,1.6l2.9,0.1
			l0.1,4.8l0,0c-0.3,0-0.5,0-0.8,0.1c-0.8,0.1-1.6,0.2-2.3,0.2C30,5.1,30,3.4,30.2,1.6z M28.1,8.5c1.1,0.1,2.1,0.1,3.2,0
			c1.5-0.3,3-0.3,4.5-0.2V9L28,9.6L28.1,8.5z M28,11.3l7.8-0.6v1.7c0,0.1,0,0.2,0,0.3c-2.6,0-5.3,0-7.9-0.1L28,11.3z M18.4,48.3
			L12.3,62l-1.8-0.6l5.1-12.5c0.1-0.3,0.1-0.6-0.2-0.8L18.4,48.3L18.4,48.3z M33.3,48.5L33,57.3h-2l0.3-8.8c0,0,0-0.1,0-0.1
			L33.3,48.5C33.2,48.4,33.3,48.5,33.3,48.5L33.3,48.5z M52.9,59.5l-1.8,1.1c-1.5-4.4-3.7-8.5-6.5-12.2l3.7-0.1L52.9,59.5z
			 M59.1,46.3c-18,0.9-36.1,0.5-54.1-0.1C3.9,35.4,5,24.4,5.6,13.6c17.9,0.5,35.7,1,53.6,0.1C59.6,24.6,59.6,35.4,59.1,46.3
			L59.1,46.3z"/>
		<path class="st0" d="M18.8,31.5L14.5,32l0.4-4.1l3.9-0.3c1-0.1,1-1.7,0-1.6l-4.5,0.4c-0.4,0-0.7,0.3-0.7,0.6
			c-0.1,0.1-0.2,0.3-0.3,0.5l-1,11.6c0,0.2,0,0.3,0.1,0.5c0,0.4,0.4,0.7,0.8,0.7c0.1,0,0.1,0,0.2,0l4.5-1.3c0.4-0.1,0.7-0.6,0.5-1
			c-0.1-0.4-0.5-0.6-0.9-0.5l-3.5,1l0.4-4.7h0.1l4.3-0.5C19.8,33,19.8,31.3,18.8,31.5z"/>
		<path class="st0" d="M27.6,31l-2.7-0.3c-0.4,0-0.8,0.4-0.8,0.8c0,0.4,0.4,0.8,0.8,0.8l2.6,0.3c0.4,0,0.8-0.4,0.8-0.8
			C28.3,31.4,28,31,27.6,31z"/>
		<path class="st0" d="M28.4,33.6h-2.6c-0.4,0-0.8,0.4-0.8,0.8c0,0.4,0.4,0.8,0.8,0.8h2.6c0.4,0,0.8-0.4,0.8-0.8
			C29.2,33.9,28.8,33.6,28.4,33.6z"/>
		<path class="st0" d="M41.7,36.8l-1.6-11.2C40,24.9,39,25,38.6,25.5c-1,1.4-1.9,3-2.5,4.7l-2.8-4c-0.2-0.4-0.7-0.5-1.1-0.3
			c-0.2,0.1-0.3,0.3-0.4,0.5c-0.8,3.2-1.1,6.5-0.8,9.8c0.1,1,1.7,1,1.6,0c-0.2-2.6-0.1-5.1,0.4-7.6l2.7,3.8c0.2,0.4,0.7,0.5,1.1,0.3
			c0.2-0.1,0.3-0.3,0.4-0.5c0.4-1.4,0.9-2.7,1.6-4l1.3,9.1C40.3,38.3,41.8,37.9,41.7,36.8z"/>
		<path class="st0" d="M51.3,31.6c-1.5,1.3-3.6,3.3-5.7,2.4c-3-1.1-1.1-5,1.5-4.9c0.5,0.2,1,0,1.2-0.5c0.1-0.2,0.1-0.5,0-0.7v-2.9
			c0-0.4-0.4-0.8-0.8-0.8c-0.4,0-0.8,0.4-0.8,0.8c0,0.9,0,1.7,0,2.6c-2.9,0.3-5.4,3.2-3.8,6.2c0.9,1.6,2.7,2.4,4.4,2
			c2.1-0.3,3.7-1.7,5.1-3C53.2,32,52,30.9,51.3,31.6z"/>
		<path class="st0" d="M54.5,23.9L53.3,24c0.9-0.9,1-2.3,0.4-3.4c-0.5-1-1.7-1.4-2.7-0.9c-0.7,0.3-1.1,1-1.1,1.8c-0.1,1,1.5,1,1.6,0
			c0.1-0.5,0.7-0.1,0.8,0.1c0.2,0.3,0.2,0.7,0,1.1c-0.4,0.7-1,1.2-1.6,1.6c-0.8,0.5-0.2,1.8,0.6,1.5c0.1,0,0.2,0,0.3,0l3-0.3
			C55.5,25.4,55.6,23.8,54.5,23.9z"/>
	</g>
</g>
</svg>
