<?xml version="1.0" encoding="utf-8"?>
<!-- Generator: Adobe Illustrator 20.0.0, SVG Export Plug-In . SVG Version: 6.00 Build 0)  -->
<svg version="1.1" id="Layer_1" xmlns="http://www.w3.org/2000/svg" xmlns:xlink="http://www.w3.org/1999/xlink" x="0px" y="0px"
	 viewBox="0 0 64 64" style="enable-background:new 0 0 64 64;" xml:space="preserve">
<style type="text/css">
	.st0{fill:#2C2B30;}
</style>
<title>Asset 48</title>
<g id="Layer_2">
	<g id="Layer_1-2">
		<path class="st0" d="M59.8,60.7l2.8-52.4c0-0.4-0.3-0.8-0.7-0.8c0,0,0,0-0.1,0C61.7,7.2,61.4,7,61.1,7h-3.1L58,3.9
			c0-0.5-0.3-0.8-0.8-0.9c-0.1,0-0.2,0-0.3,0c-0.1,0-0.2,0-0.4,0C53,3.7,49.3,3.9,45.7,3.5l0.1-2.3c0-0.3,0-0.5-0.2-0.7
			C45.5,0.2,45.2,0,44.8,0L17.3,0.4c-0.5,0-0.9,0.4-0.9,0.9c0,0.1,0,0.2,0.1,0.3L16.6,4L4.8,4.3H4.7c-0.4-0.2-1-0.1-1.2,0.4
			C3.5,4.8,3.4,5,3.4,5.1l-2,53.5c0,0.5,0.3,0.8,0.8,0.9c0.1,0,0.2,0,0.3,0h0.2l4.7-0.1V62c-0.2,0.3-0.2,0.8,0,1.1v0.1
			c0,0.5,0.4,0.9,0.9,0.9c0.3,0,0.6-0.2,0.8-0.5c16.9,0.8,33.8,0.5,50.7-1C60.8,62.4,60.8,60.8,59.8,60.7z M44.1,1.7L43.7,8
			L18.6,7.9l-0.3-5.8L44.1,1.7z M3.2,57.7L5.1,6.1l11.6-0.3l0.2,2.8l0,0c-0.1,0.5,0.1,0.9,0.6,1c0.1,0,0.2,0,0.2,0l27,0.1
			c0.5,0,0.8-0.4,0.8-0.9c0-0.1,0-0.3-0.1-0.4l0.2-3.2c3.5,0.3,7.1,0.2,10.6-0.3L54,57L3.2,57.7z M9.1,61.8l0.1-2.4l45.1-0.6
			c0.4,0.2,0.8,0.1,1.1-0.1c0.4-0.3,0.5-0.8,0.3-1.2l2.2-48.6h3l-2.8,52.2C41.8,62.3,25.4,62.6,9.1,61.8z"/>
		<path class="st0" d="M44.2,24.4L42,24.6l0.1-2.1c0-1.1-1.7-1.1-1.8,0l-0.1,2.2L38,24.9c-1.1,0.1-1.1,1.8,0,1.8l2.3-0.2l-0.1,2.8
			c0,1.1,1.7,1.1,1.8,0l0.1-2.9l2.2-0.1C45.3,26.1,45.3,24.3,44.2,24.4z"/>
		<path class="st0" d="M37.6,40.2l-15,0.3c-0.5,0.1-0.8,0.5-0.8,1c0,0.4,0.4,0.7,0.8,0.8l15-0.3c0.5-0.1,0.8-0.5,0.8-1
			C38.3,40.6,38,40.3,37.6,40.2z"/>
		<path class="st0" d="M43.8,45.4l-28.2,0.3c-0.5,0.1-0.8,0.5-0.8,1c0,0.4,0.4,0.7,0.8,0.8l28.2-0.3c0.5-0.1,0.8-0.5,0.8-1
			C44.5,45.8,44.2,45.5,43.8,45.4z"/>
		<path class="st0" d="M39.2,51.6c-6.5-0.4-13-0.3-19.5,0.1c-1.1,0.1-1.1,1.8,0,1.8c6.5-0.5,13-0.5,19.5-0.1
			C40.3,53.5,40.3,51.7,39.2,51.6z"/>
		<path class="st0" d="M21,16.9c-0.5,0-0.8,0.4-0.9,0.8c0,0.1,0,0.2,0.1,0.3c0,0,0,0.1,0,0.1l-0.4,14.9c-0.2,0.3-0.2,0.6,0,0.9
			c0,0.5,0.5,0.8,1,0.8c0.3,0,0.5-0.2,0.7-0.4c5-0.8,11.4-3.1,11.6-9.1C33.3,18.9,26.1,17.1,21,16.9z M30.9,27
			c-1.4,3.8-5.6,5-9.3,5.7l0.4-13.9C26.4,19.1,33.1,21.1,30.9,27z"/>
	</g>
</g>
</svg>
