<?xml version="1.0" encoding="utf-8"?>
<!-- Generator: Adobe Illustrator 20.0.0, SVG Export Plug-In . SVG Version: 6.00 Build 0)  -->
<svg version="1.1" id="Layer_1" xmlns="http://www.w3.org/2000/svg" xmlns:xlink="http://www.w3.org/1999/xlink" x="0px" y="0px"
	 viewBox="0 0 64 64" style="enable-background:new 0 0 64 64;" xml:space="preserve">
<style type="text/css">
	.st0{fill:#2C2B30;}
</style>
<title>Asset 42</title>
<g id="Layer_2">
	<g id="Layer_1-2">
		<path class="st0" d="M58.7,10.1c0-0.3-0.2-0.6-0.5-0.7c-0.1-0.1-0.3-0.1-0.4-0.1h-8.4c0-2.7,0-5.5,0-8.2c0-0.3-0.2-0.6-0.5-0.7
			c-0.1-0.1-0.3-0.2-0.5-0.2L39.3,0c-0.4,0-0.8,0.3-0.8,0.7c0,0,0,0.1,0,0.1c0,0.1,0,0.1,0,0.2c0,1,0,1.9,0,2.9
			C35.3,1.2,30,1,26.1,0.8C19.6,0.5,13,1.4,6.8,3.7C6.4,3.8,6.2,4.2,6.3,4.6C6,4.7,5.8,5,5.8,5.3C5.6,24.2,5.4,43.1,5.2,62
			c0,0.1,0,0.2,0,0.2c-0.2,0.4,0.1,0.9,0.5,1c0.1,0,0.2,0,0.2,0c8.1,0.3,16.6,1.2,24.7,0.3c6.1-0.7,12.1-2.9,15.8-8
			c7-9.5,2.1-23.8-9.5-25.6c0.5-0.5,1-1.1,1.5-1.8v0.8c0,0.4,0.4,0.8,0.8,0.8c0.2,0,0.3-0.1,0.4-0.1l8.8,0.3c0.3,0,0.6-0.2,0.7-0.5
			c0.1-0.1,0.2-0.3,0.2-0.5v-8.3h8.4c0.3,0,0.6-0.1,0.7-0.4c0.2-0.1,0.3-0.4,0.3-0.6C58.7,16.6,58.7,13.4,58.7,10.1z M38.5,25.4
			c-0.1,0.1-0.3,0.2-0.3,0.3c-0.8,1.7-1.9,3.1-3.4,4.2c-0.3,0-0.5,0.2-0.6,0.5c-0.5,0.6,0.2,1.7,1,1.2l0.1-0.1
			c13.5,0.6,17,18.1,7.2,26.1c-4.8,3.9-11.3,4.6-17.3,4.6c-6.1,0-12.3-0.3-18.4-0.5L7.4,5.3c0,0,0-0.1,0-0.1
			c5.1-1.8,10.5-2.8,15.9-2.9c4.4,0,12.3-0.2,15.2,3.9v3.1h-8.6c-0.4-0.2-0.9-0.1-1.1,0.3c-0.1,0.1-0.1,0.2-0.1,0.4l-0.2,10.1
			c0,0.4,0.3,0.8,0.7,0.8c0.1,0,0.1,0,0.2,0c0.1,0,0.2,0.1,0.3,0.1h8.8C38.5,22.4,38.5,23.9,38.5,25.4z M48.7,19.3L48.7,19.3
			c-0.5-0.1-0.8,0.2-0.9,0.7c0,0,0,0.1,0,0.1c0,2.8,0,5.6,0,8.4l-7.7-0.3c0-2.7,0-5.4,0-8.1c0-0.4-0.4-0.8-0.8-0.8
			c-0.1,0-0.2,0-0.3,0.1c-0.1,0-0.1,0-0.2,0h-8.7c0-2.8,0.1-5.6,0.1-8.4h8.5c0.1,0,0.2,0,0.3,0c0.4,0.2,0.9,0,1-0.4
			c0-0.1,0.1-0.2,0.1-0.3c0-2.8,0-5.7,0-8.5l7.7,0.1c0,2.8,0,5.6,0,8.4c0,0.4,0.4,0.8,0.8,0.8c0.1,0,0.1,0,0.2,0h8.3l0.1,8.4
			L48.7,19.3z"/>
		<path class="st0" d="M19.4,38.9c-0.5,0-0.8,0.5-0.8,0.9c0,0,0,0,0,0.1c-0.3,0.1-0.4,0.4-0.4,0.7l-0.4,12.8
			c-0.4,0.2-0.6,0.7-0.3,1.1c0.1,0.2,0.3,0.3,0.5,0.4c0.3,0.3,0.9,0.4,1.2,0c0,0,0,0,0,0c5.6-0.1,12.9-2.1,13.6-8.5
			C33.6,38.9,24.6,38.4,19.4,38.9z M31,47.1c-1.3,4.8-7.1,6-11.6,6.2l0.4-12.8c0,0,0-0.1,0-0.1C24.3,40.1,32.9,40.4,31,47.1z"/>
		<path class="st0" d="M29.2,19.1c-2.4,2.3-6.5,3.1-9.8,3.2l0.4-12.8c0,0,0-0.1,0-0.1c2.9-0.2,7.4-0.2,9.8,1.6
			c0.1-0.1,0.2-0.3,0.3-0.4c0.3-0.3,0.7-0.5,1.1-0.5c-2.8-2.5-8.1-2.6-11.6-2.3c-0.5,0-0.8,0.5-0.8,0.9c0,0,0,0,0,0.1
			c-0.3,0.1-0.4,0.4-0.4,0.7l-0.4,12.8c-0.4,0.2-0.6,0.7-0.3,1.1c0.1,0.2,0.3,0.3,0.5,0.4c0.3,0.3,0.9,0.4,1.2,0c0,0,0,0,0,0
			c3.8-0.1,8.4-1,11.2-3.7C29.9,19.9,29.4,19.6,29.2,19.1z"/>
	</g>
</g>
</svg>
