<?xml version="1.0" encoding="utf-8"?>
<!-- Generator: Adobe Illustrator 20.0.0, SVG Export Plug-In . SVG Version: 6.00 Build 0)  -->
<svg version="1.1" id="Layer_1" xmlns="http://www.w3.org/2000/svg" xmlns:xlink="http://www.w3.org/1999/xlink" x="0px" y="0px"
	 viewBox="0 0 64 64" style="enable-background:new 0 0 64 64;" xml:space="preserve">
<style type="text/css">
	.st0{fill:#2C2B30;}
</style>
<title>Asset 69</title>
<g id="Layer_2">
	<g id="Layer_1-2">
		<path class="st0" d="M56.4,35.8c-1-6.7-4.7-12.8-10.2-16.7c-0.1,0.6-0.1,1.3,0,1.9c10.1,7.9,11.8,22.5,3.9,32.6
			c-1.1,1.4-2.3,2.6-3.7,3.7c-7.3,5.8-17.4,6.7-25.6,2.2c-8.8-4.9-13.5-15-11.6-24.9c1.1-5.6,4.3-10.6,9-14c0-0.5,0-0.9,0.1-1.4
			c0-0.3,0.1-0.5,0.2-0.7v0c-4.5,2.8-8,7.1-9.8,12.1C5.2,40.7,8.4,52,16.8,58.8c7.9,6.1,18.8,6.9,27.5,2
			C53,55.7,57.8,45.8,56.4,35.8z"/>
		<path class="st0" d="M35.9,38.4c-0.4-1.8-2-3.1-3.8-3.1c-0.2-0.2-0.5-0.3-0.8-0.3c-2.3,0.3-3.8,2.4-3.5,4.7
			c0.3,2.2,2.4,3.8,4.7,3.5c2.2-0.3,3.8-2.4,3.5-4.7C35.9,38.5,35.9,38.5,35.9,38.4z M31.9,41.7c-1.3,0-2.4-1-2.5-2.3
			c-0.1-1,0.4-2,1.3-2.4c0.2,0.1,0.4,0.1,0.6,0.1c1.3-0.4,2.6,0.3,3,1.5c0,0,0,0.1,0,0.1c0.3,1.4-0.7,2.7-2,3
			C32.1,41.6,32,41.7,31.9,41.7L31.9,41.7z"/>
		<path class="st0" d="M41.8,38.1c-0.7-4.9-5.3-8.4-10.2-7.8c0.1-0.4-0.1-0.9-0.6-1c-0.1,0-0.3,0-0.4,0c-5,1.3-8.6,5.6-8.9,10.7
			c-0.1,5.9,5.6,9.5,11.2,8.9C38.2,48.3,42.6,43.5,41.8,38.1z M31.5,47.4c-5-0.1-9.1-3.8-8-9c0.8-3.4,3.3-6.1,6.5-7.3
			c0,0.5,0.4,0.9,0.8,0.9c0.1,0,0.1,0,0.2,0c4.1-0.9,8.2,1.8,9,5.9c0.1,0.4,0.1,0.7,0.1,1.1C40.5,43.8,36.1,47.5,31.5,47.4z"/>
		<path class="st0" d="M48.1,34.7c-0.5-3.4-2.1-6.5-4.7-8.8c-0.4,0.4-1,0.7-1.7,0.6c0.6,0.5,1.2,1,1.7,1.6c2.8,3.1,3.4,7.1,3.3,11.1
			s-0.8,8.6-3.8,11.6c-3.1,3.2-7.8,3.3-11.9,2.7c-7.9-1.1-15-6.2-14.7-14.9c0.2-4.8,2.6-9.2,6.6-11.9c-0.8,0-1.5-0.1-2.2-0.4
			c-2.2,1.8-3.8,4.1-4.8,6.7c-2.6,6.5-0.6,13.9,4.8,18.3c5.1,4,14.8,5.8,20.8,2.7C47.9,50.6,49.1,41.4,48.1,34.7z"/>
		<path class="st0" d="M51.6,30.2c0-0.1,0-0.1,0-0.2l-0.6-17.8l0,0c0.6-0.4,1.1-0.9,1.7-1.4c0.2-0.1,0.3-0.4,0.3-0.6
			c0-0.3-0.1-0.6-0.4-0.8C46.2,5.2,39.6,1,31.7,0h-0.2c-0.1,0-0.2,0-0.3,0c-7.2,1.6-13.8,5-19.3,9.9c-0.2,0.1-0.3,0.4-0.3,0.6
			c0,0.3,0.1,0.6,0.4,0.8c1.7,1.1,3.4,2.3,5.1,3.3c0.4,3.6,0.5,7.1,0.4,10.7c-0.3,0.3-0.4,0.8-0.2,1.1c0.1,0.1,0.2,0.2,0.4,0.3
			c5.4,1.4,11,2,16.5,1.8c4-0.2,9.2-0.2,12.1-3.3c0-0.1,0.1-0.1,0.1-0.2c0.1-0.1,0.1-0.3,0.1-0.4l0.3-9.4c0.9-0.5,1.7-1.1,2.5-1.7
			L50.1,30c0,0,0,0.1,0,0.1c-1.6,0.4-2.8,1.8-2.8,3.5c0,1.9,1.5,3.5,3.4,3.7c0.1,0.1,0.3,0.2,0.5,0.2c1.9-0.1,3.3-1.7,3.2-3.5
			c0,0,0-0.1,0-0.1C54.3,32.1,53.2,30.7,51.6,30.2z M45.1,24.2c-3,3-8.9,2.7-12.7,2.7c-4.5,0-8.9-0.5-13.3-1.6
			c0.1-3.3,0.1-6.5-0.3-9.8c4.3,2.7,9.1,4.4,14.1,5.2h0.2c0.1,0,0.2,0,0.3,0c4.2-0.9,8.2-2.5,11.9-4.6L45.1,24.2z M33.1,19.1H33
			c-7.2-0.9-13.3-4.7-19.2-8.7C18.9,6.1,25,3.1,31.6,1.6h0.1c7.2,0.9,13.3,4.8,19.2,8.7C45.8,14.6,39.7,17.6,33.1,19.1L33.1,19.1z
			 M50.7,31.6c0.7,0.1,1.4,0.5,1.8,1.1h-3.3C49.4,32.1,50,31.7,50.7,31.6z M51.3,35.9c-0.1-0.1-0.3-0.1-0.4-0.1
			c-0.9,0-1.6-0.6-1.9-1.4h3.7C52.7,35.1,52.1,35.8,51.3,35.9L51.3,35.9z"/>
	</g>
</g>
</svg>
