<?xml version="1.0" encoding="utf-8"?>
<!-- Generator: Adobe Illustrator 20.0.0, SVG Export Plug-In . SVG Version: 6.00 Build 0)  -->
<svg version="1.1" id="Layer_1" xmlns="http://www.w3.org/2000/svg" xmlns:xlink="http://www.w3.org/1999/xlink" x="0px" y="0px"
	 viewBox="0 0 64 64" style="enable-background:new 0 0 64 64;" xml:space="preserve">
<style type="text/css">
	.st0{fill:#2C2B30;}
</style>
<title>Asset 56</title>
<g id="Layer_2">
	<g id="Layer_1-2">
		<path class="st0" d="M43.2,44.5c2.5-1.7,3.4-5,2.2-7.7c-1.3-2.7-4.6-4.4-7.2-2.8c-0.2-0.4-0.7-0.6-1.2-0.4c-0.1,0-0.1,0.1-0.2,0.1
			c-2.7,2.2-4.2,5.5-2.3,8.8c0.4,0.8,1.1,1.5,1.8,2l-0.4,6.9c-0.1,1.1,1.6,1.1,1.7,0v-0.1l2.2-1.6c1,0.3,1.9,0.8,2.7,1.5
			c0.1,0.1,0.3,0.2,0.5,0.2c0.4,0.2,1,0.1,1.2-0.4c0.1-0.2,0.1-0.4,0.1-0.5L43.2,44.5z M35.5,40.5c-0.5-2.2,0.6-3.9,2-5.3
			c0.3,0.4,0.8,0.6,1.2,0.3c0,0,0.1,0,0.1-0.1c2.3-1.9,5.3,1.3,5.5,3.5c0.3,2.5-1.5,4.7-4,4.9C38,44.1,36,42.7,35.5,40.5L35.5,40.5z
			 M37.9,45.2c1.2,0.4,2.5,0.4,3.8,0.1l0.6,3.6c-0.7-0.5-1.5-0.8-2.4-1c-0.2,0-0.3,0-0.5,0c-0.1,0-0.3,0-0.4,0.1l-1.4,1L37.9,45.2z"
			/>
		<path class="st0" d="M57.3,3c-0.5-0.2-1-0.3-1.6-0.3c-0.1-0.1-0.2-0.1-0.3-0.1C46.8,1.2,38,0.4,29.3,0.1
			c-6.5-0.2-14.1-0.2-18.6,5.2S7.6,19.6,7.5,26L7.1,52.3l-4.5-0.2c-0.5,0-0.8,0.4-0.8,0.8c0,0.2,0.1,0.4,0.3,0.6
			c-0.2,7.2,7.5,10,13.6,10.3c9.5,0.5,19,0.2,28.4-1c0.2,0,0.4-0.1,0.5-0.3c0.6-0.1,1.1-0.4,1.7-0.7c2.8-1.5,3.6-4.7,4.1-7.6
			c0.6-4.2,0.8-8.5,0.7-12.7c0-6.6-0.5-13.3-0.4-19.9c0.1,0,0.2,0,0.3,0c3-0.7,6.2-0.1,9.2,0.3c0.4,0.3,0.9,0.3,1.2,0
			c0.1-0.1,0.2-0.3,0.2-0.5C61.8,16.1,64.3,5.3,57.3,3z M21.7,62.2c-6.1,0-18,0.3-18-8.4l33,1.2c-0.4,2.6,0.8,5.1,2.9,6.6
			C33.6,62.1,27.6,62.2,21.7,62.2z M48.2,56.4c-0.8,2.6-2.5,4.8-5.4,4.7c-3.4-0.1-5.3-3.5-4.4-6.6c0.1-0.4-0.1-0.9-0.6-1
			c-0.1,0-0.1,0-0.2,0c-0.1-0.1-0.2-0.1-0.3-0.1l-28.6-1l0.3-22c0.1-4,0.1-7.9,0.2-11.9C9.3,15,9.1,10.9,11,7.8
			c4-6.9,13.1-6.3,19.9-6c7.3,0.3,14.6,1,21.8,2.1c-2.7,2.5-3.1,8.6-3.4,11.6c-0.8,9,0.1,18.1,0.1,27.1
			C49.3,47.1,49.4,52.1,48.2,56.4z M50.7,20c0.1-1.8,0.2-3.7,0.4-5.5c0.1-2.4,0.6-4.8,1.3-7.1c1.2-3.2,4.8-3.8,6.8-0.8
			c1.4,2.1,1.2,5,1.1,7.4c-0.1,2.1-0.2,4.2-0.3,6.3C56.8,19.9,53.7,19.3,50.7,20z"/>
		<path class="st0" d="M40.2,8L21.3,7.9c-0.5,0-0.8,0.4-0.8,0.8c0,0.5,0.4,0.8,0.8,0.8l0,0l18.9,0.1c0.5,0,0.8-0.4,0.8-0.8
			C41,8.4,40.6,8,40.2,8z"/>
		<path class="st0" d="M44.7,15.9c-10.4-1-20.9-1.3-31.4-0.8c-1.1,0.1-1.1,1.7,0,1.7c10.5-0.5,21-0.3,31.4,0.8
			C45.8,17.6,45.8,16,44.7,15.9z"/>
		<path class="st0" d="M44.7,23.5c-10.4-1-20.9-1.3-31.4-0.8c-1.1,0-1.1,1.7,0,1.7c10.5-0.5,21-0.3,31.4,0.8
			C45.8,25.3,45.8,23.6,44.7,23.5z"/>
		<path class="st0" d="M38,28.9c-5.9,0.5-11.8,0.6-17.7,0.2c-1.1-0.1-1.1,1.6,0,1.7c5.9,0.3,11.8,0.3,17.7-0.2
			C39.1,30.5,39.1,28.8,38,28.9z"/>
		<path class="st0" d="M24.7,46.8c-3.1-0.1-6.3-0.3-9.4-0.2c-1.1,0-1.1,1.7,0,1.7c3.1-0.1,6.3,0.1,9.4,0.2
			C25.7,48.5,25.7,46.9,24.7,46.8z"/>
	</g>
</g>
</svg>
