<?xml version="1.0" encoding="utf-8"?>
<!-- Generator: Adobe Illustrator 20.0.0, SVG Export Plug-In . SVG Version: 6.00 Build 0)  -->
<svg version="1.1" id="Layer_1" xmlns="http://www.w3.org/2000/svg" xmlns:xlink="http://www.w3.org/1999/xlink" x="0px" y="0px"
	 viewBox="0 0 64 64" style="enable-background:new 0 0 64 64;" xml:space="preserve">
<style type="text/css">
	.st0{fill:#2C2B30;}
</style>
<title>Asset 55</title>
<g id="Layer_2">
	<g id="Layer_1-2">
		<path class="st0" d="M60,2.5c-2-2.1-4.9-3-7.7-2.4c-0.3,0.1-0.6,0.4-0.5,0.7C51.7,1,51.6,1,51.6,1.1c-0.9,1.5-1.9,3-2.9,4.6
			c0-1.2,0-2.4,0-3.5c0-0.2-0.1-0.5-0.3-0.6C48.4,1.2,48.1,1,47.7,1L4.5,2.2C4.1,2.2,3.7,2.6,3.7,3c0,0.3,0.2,0.6,0.5,0.7
			c0.7,17.5,0.5,35,0.2,52.6C4,56.5,3.9,57,4,57.4c0.1,0.3,0.4,0.5,0.7,0.5h4.5l0.2,3.3c-0.3,0.4-0.2,0.9,0.1,1.2c0,0,0.1,0,0.1,0.1
			c0.3,0.3,0.9,0.3,1.2,0l11.2-0.4l-0.1,1c0,0.3,0.1,0.6,0.4,0.7c0.2,0.3,0.7,0.4,1,0.2l2.9-1.7c0.1,0.1,0.2,0.1,0.4,0.1l26.1-1
			c0.4,0,0.8-0.4,0.7-0.9c0-0.4-0.3-0.6-0.6-0.7C53,46.5,53,33.3,53.1,20.1c0-0.3-0.1-0.5-0.4-0.7c2.4-5.1,4.9-10.2,7.3-15.3
			c0.1-0.2,0.1-0.4,0-0.6C60.4,3.3,60.3,2.8,60,2.5z M48.3,9.6h0.2c0.3,0,0.5,0,0.8,0.1c-6.7,12.9-13,26.1-21.3,38
			c-0.1,0.2-0.2,0.4-0.1,0.7l-2.8,1.3C32.5,36.2,40.2,22.8,48.3,9.6z M50.6,10.4c0.1-0.1,0.1-0.2,0.1-0.4c0.6,0.2,1.2,0.4,1.8,0.7
			v0.1c-7.1,13-14.8,25.8-20.4,39.6c-0.9,0.3-1.8,0.7-2.5,1.3l-0.3-2.6c0-0.1-0.1-0.3-0.1-0.4c0.1-0.1,0.2-0.1,0.2-0.2
			C37.6,36.6,43.9,23.3,50.6,10.4L50.6,10.4z M22.2,60.4L11,60.8l-0.2-3l11.5-0.1L22.2,60.4z M22.8,50.5c-0.1,0.2-0.1,0.5,0,0.7
			c0,0.1-0.1,0.2-0.1,0.3l-0.3,4.6L6.1,56.2c0.3-17.5,0.5-35-0.2-52.5l41.3-1.2c0,1.7,0,3.3,0,5c0,0.1,0,0.3,0.1,0.4
			c-2.6,4.3-5.2,8.6-7.8,13l-1.3,2.3c-1.7,2.9-3.3,5.7-5,8.6l-1.1,1.9C29,39.4,25.9,45,22.8,50.5L22.8,50.5z M24,56.5l0.3-4.7
			c0.1,0,0.2,0,0.2-0.1l3.2-1.5l0.4,2.9c0,0.1,0,0.2,0.1,0.3c0.1,0.4,0.6,0.7,1,0.5c0.1,0,0.2-0.1,0.3-0.2c0.7-0.7,1.6-1.2,2.5-1.6
			l1.7,3.7l-6,3.5C27,57.9,25.6,56.9,24,56.5L24,56.5z M51.3,59.6L29,60.5l5.2-3.1c0.1,0,0.2,0,0.2,0l13.9,0.4
			c0.2,0.4,0.7,0.5,1.1,0.3c0.2-0.1,0.4-0.4,0.4-0.7c0-10.5,0-21.1,0-31.6c0-0.1,0-0.3-0.1-0.4l1.8-3.6
			C51.4,34.5,51.4,47.1,51.3,59.6L51.3,59.6z M36.2,56c2.2-5.5,4.5-10.8,6.9-16.1l0,0l0.6-1.3c1.5-3.3,3-6.6,4.6-9.8v27.6L36.2,56z
			 M35,54.9l-1.5-3.5C39,37.6,46.7,24.7,53.9,11.6c0.2,0.1,0.3,0.2,0.4,0.3l0.2,0.1C47.7,26.2,40.8,40.3,35,54.9L35,54.9z
			 M55.2,10.6c-1.7-1.4-3.8-2.2-6-2.5L50,6.7l0,0c2.2,0.3,4.1,1.4,5.6,3L55.2,10.6z M56.3,8.2c-1.5-1.5-3.4-2.5-5.4-2.9L53,1.9
			c0-0.1,0.1-0.1,0.1-0.2c2-0.3,4.1,0.3,5.6,1.7L56.3,8.2z"/>
		<path class="st0" d="M22.9,7.4L11.6,7.3c-0.4,0-0.8,0.4-0.7,0.9c0,0.4,0.3,0.7,0.7,0.7L22.9,9c0.5,0,0.8-0.4,0.8-0.8
			C23.7,7.7,23.3,7.4,22.9,7.4z"/>
		<path class="st0" d="M38.7,13.8c-8.9,0.4-17.8,0.3-26.7-0.3c-1-0.1-1,1.5,0,1.6c8.9,0.6,17.8,0.7,26.7,0.3
			C39.7,15.4,39.7,13.8,38.7,13.8z"/>
		<path class="st0" d="M34.9,20.4l-22.1-0.3c-0.4,0-0.8,0.4-0.7,0.9c0,0.4,0.3,0.7,0.7,0.7L34.9,22c0.4-0.1,0.7-0.5,0.7-0.9
			C35.5,20.7,35.3,20.5,34.9,20.4z"/>
		<path class="st0" d="M30.3,26.4L13.1,27c-1,0-1,1.6,0,1.6L30.3,28C31.3,28,31.3,26.4,30.3,26.4z"/>
		<path class="st0" d="M26.8,32.9l-13.8,0.5c-1,0-1,1.6,0,1.6l13.8-0.5C27.9,34.4,27.9,32.9,26.8,32.9z"/>
		<path class="st0" d="M19.4,47l-5.9,0c-0.4,0-0.8,0.4-0.7,0.9c0,0.4,0.3,0.7,0.7,0.7l5.9,0C19.6,48.3,19.2,47.6,19.4,47z"/>
	</g>
</g>
</svg>
