<?xml version="1.0" encoding="utf-8"?>
<!-- Generator: Adobe Illustrator 20.0.0, SVG Export Plug-In . SVG Version: 6.00 Build 0)  -->
<svg version="1.1" id="Layer_1" xmlns="http://www.w3.org/2000/svg" xmlns:xlink="http://www.w3.org/1999/xlink" x="0px" y="0px"
	 viewBox="0 0 64 64" style="enable-background:new 0 0 64 64;" xml:space="preserve">
<style type="text/css">
	.st0{fill:#2C2B30;}
</style>
<title>Asset 23</title>
<g id="Layer_2">
	<g id="Layer_1-2">
		<path class="st0" d="M61.4,19.1c-1.9-6-5.3-11.7-10.7-15.1c-6-3.8-13.6-4.2-20.4-3.5C17.3,1.9,3.4,9.4,0.5,23.2
			c-1.4,6.7,0.2,14.1,5.2,19c4.7,4.6,11.4,6.5,17.8,5.2c-3.5,4.1-7.1,8.3-9.6,13.1c-0.2,0.2-0.3,0.4-0.3,0.6c0,1.2,0.9,2.3,2.2,2.3
			c0.3,0.2,0.7,0.2,1-0.1c0,0,0,0,0,0c4.1-4.4,8.1-8.8,12.1-13.3c4.1,0.6,3.5,6.9,4.9,9.7c1.2,2.2,3.4,3.6,5.8,3.9
			c5.7,0.9,11.8-1.6,16-5.2c4.8-4.1,7.8-9.9,8.2-16.1C64.4,34.5,63.7,26.6,61.4,19.1z M15.8,61.9c-0.3,0-0.6-0.2-0.7-0.5l0.4-0.8
			c0.2,0.3,0.4,0.5,0.7,0.7L15.8,61.9z M42.5,30c-1.5-0.5-3.2-2.3-2.1-3.8c0.6,1.1,1.5,2.1,2.6,2.8c0.7,0.4,1.4,0.8,2.1,1
			C44.3,30.3,43.3,30.3,42.5,30z M42.5,31.7L41.4,33c-1.1-0.1-2-0.9-2.2-1.9l0.6-0.7c0.2,0.2,0.5,0.4,0.7,0.6
			C41.2,31.3,41.8,31.5,42.5,31.7L42.5,31.7z M44.4,28.1c-4.4-2.4-4.2-7.5-1-10.7c0.2,1,0.8,1.8,1.7,2.3c1.8,0.9,4.1,0.4,6-0.5
			c0.7,2.2,3,3.5,5.3,3c-0.3,0.8-0.7,1.6-1.1,2.3C53,28,48.4,30.2,44.4,28.1L44.4,28.1z M52.6,18.4c0.4-0.3,0.4-0.8,0.1-1.1
			c-0.3-0.4-0.8-0.4-1.1-0.1l0,0c-1,0.5-2,0.9-3.1,1.1c-0.5,0.1-1.1,0.2-1.7,0.1c-0.8-0.1-2.9-0.8-1.5-2.1c0.2-0.2,0.3-0.4,0.2-0.6
			c3.2-1.9,7.3-2.7,11-2.9c0.7,2.4,0.8,4.9,0.4,7.4c-1.3,0.9-3.1,0.5-3.9-0.8C52.9,19.1,52.7,18.8,52.6,18.4L52.6,18.4z M23.3,45.8
			c-5.9,1.3-12.1-0.5-16.5-4.7c-4.6-4.5-6-11.3-4.8-17.4C4.8,10.4,18.3,3.3,30.7,2c6.2-0.6,12.9-0.3,18.4,2.8c2.7,1.6,5,3.8,6.8,6.4
			c-5.3,0.4-11.6,1.9-14.8,6.3c-1.5,2-2.1,4.6-1.4,7.1h-0.1c-1.3,1.1-1.6,2.9-0.7,4.3l-0.8,0.9c-0.3,0.1-0.5,0.3-0.5,0.6L25,45.5
			l-0.8,0.9C24.2,46,23.7,45.7,23.3,45.8z M16.8,59.1c0-0.2,0-0.4-0.1-0.6c2.9-4.6,6.6-8.6,10.1-12.8l11.2-13.3
			c0.5,0.9,1.3,1.6,2.2,1.9C33,43.1,25.2,51.7,17.4,60.1c-0.4,0-0.7-0.3-0.7-0.7C16.8,59.3,16.8,59.2,16.8,59.1z M62.3,39.4
			c-0.1,6.4-2,12.4-6.8,16.9c-4.2,4-12.8,8.2-18.5,4.8c-4.4-2.6-2-10.6-7.1-12.4c4.8-5.3,9.4-10.7,13.9-16.3
			c0.2-0.2,0.2-0.5,0.2-0.7c1.4-0.1,2.7-0.5,3.8-1.3c2.8-0.1,5.4-1.3,7.3-3.3c2.8-2.9,3.8-6.8,3.6-10.7c0.4,1,0.8,2,1.1,3
			C61.7,26,62.5,32.7,62.3,39.4z"/>
		<path class="st0" d="M19.6,29.2c-0.3-0.1-0.6-0.1-0.9,0.1c-3,0.4-5.7,2.4-6.1,5.6c-0.5,3.2,1.6,6.2,4.7,6.8
			c3.2,0.5,6.2-1.6,6.7-4.8C24.5,33.7,22.7,30.5,19.6,29.2z M18.6,40.2c-2.4,0.1-4.4-1.7-4.5-4.1c0-0.1,0-0.1,0-0.2
			c0.1-2.7,2.2-4.9,4.9-5c0.1,0,0.2,0,0.2-0.1c1.6,0.8,2.8,2.2,3.2,4c0.5,2.4-0.9,4.7-3.3,5.3C19,40.2,18.8,40.2,18.6,40.2
			L18.6,40.2z"/>
		<path class="st0" d="M16.9,13.4c-0.3-0.1-0.6-0.1-0.9,0.1c-3,0.4-5.7,2.4-6.1,5.6c-0.5,3.2,1.6,6.2,4.7,6.8
			c3.2,0.5,6.2-1.6,6.7-4.7c0,0,0,0,0,0C21.8,17.9,20,14.7,16.9,13.4z M15.9,24.4c-2.4,0.1-4.4-1.7-4.5-4.1c0-0.1,0-0.1,0-0.2
			c0.1-2.7,2.2-4.9,4.9-5c0.1,0,0.2,0,0.2-0.1c1.6,0.8,2.8,2.2,3.2,4c0.5,2.4-1,4.7-3.3,5.2C16.3,24.4,16.1,24.4,15.9,24.4
			L15.9,24.4z"/>
		<path class="st0" d="M31.7,5.8c-0.3-0.1-0.6-0.1-0.9,0.1c-3,0.4-5.7,2.4-6.1,5.6c-0.5,3.2,1.6,6.2,4.7,6.8
			c3.2,0.5,6.2-1.6,6.7-4.7c0,0,0,0,0,0C36.6,10.3,34.8,7,31.7,5.8z M30.7,16.8c-2.4,0.1-4.4-1.7-4.5-4.1c0-0.1,0-0.1,0-0.2
			c0.1-2.7,2.2-4.9,4.9-5c0.1,0,0.2,0,0.2-0.1c1.6,0.8,2.8,2.2,3.2,4c0.5,2.4-0.9,4.7-3.3,5.3C31.1,16.8,30.9,16.8,30.7,16.8
			L30.7,16.8z"/>
		<path class="st0" d="M53.7,36.7c-1.9-0.4-3.9,0.4-5.1,1.8c-0.7,1-1.2,2.1-1.3,3.3c-0.3,2.8-0.1,4.6-3,6.3c-1.9,1.1-4.4,1.8-5,4.2
			c-0.5,1.6,0.4,3.4,2,3.9c0,0,0,0,0,0c0.1,0.2,0.4,0.4,0.7,0.3c5.3-0.6,10.1-3.4,13.2-7.7C57.9,45.3,60,37.9,53.7,36.7z M52,50.3
			c-2.6,2.5-5.9,4.1-9.5,4.6c-0.1,0-0.2-0.1-0.3-0.1c-3.3-0.6-0.3-3.5,0.7-4.1c0.7-0.4,1.5-0.7,2.3-1.1c1.2-0.5,2.1-1.4,2.9-2.4
			c1.8-2.9-0.4-10.3,5.5-8.7S54.5,47.8,52,50.3z"/>
	</g>
</g>
</svg>
