<?xml version="1.0" encoding="utf-8"?>
<!-- Generator: Adobe Illustrator 20.0.0, SVG Export Plug-In . SVG Version: 6.00 Build 0)  -->
<svg version="1.1" id="Layer_1" xmlns="http://www.w3.org/2000/svg" xmlns:xlink="http://www.w3.org/1999/xlink" x="0px" y="0px"
	 viewBox="0 0 64 64" style="enable-background:new 0 0 64 64;" xml:space="preserve">
<style type="text/css">
	.st0{fill:#2C2B30;}
</style>
<title>Asset 73</title>
<g id="Layer_2">
	<g id="Layer_1-2">
		<path class="st0" d="M58,0.6c-1.8-0.9-3.9-0.8-5.7,0.1c-0.1,0-0.1,0.1-0.2,0.1c-0.3,0.1-0.6,0.3-0.6,0.7l-4,53.5c0,0,0,0,0,0.1
			c-0.1,0.2,0,0.5,0.2,0.7l5,6.7c0,0.1,0.1,0.1,0.2,0.2c0.3,0.3,0.8,0.4,1.1,0.1c0,0,0.1-0.1,0.1-0.1l0,0l0,0l0,0v-0.1
			c1.6-2.4,3.5-4.6,5.6-6.6c0.3-0.3,0.4-0.7,0.1-1.1L59,1.5c0-0.5-0.4-0.9-0.9-0.9C58.1,0.6,58,0.6,58,0.6z M52.5,10.3
			c0.1,0,0.2-0.1,0.2-0.1h0c0.2,14-0.6,27.9-2.3,41.8c0,0.1,0,0.2,0,0.3l0,0l-1.2,1.6L52.5,10.3z M54.9,51.4c0,0.1,0,0.1,0,0.2
			l-1.5,1.9L52.2,52l-0.1-0.1c1.8-14,2.5-28,2.3-42.1c0-0.1,0-0.1,0-0.2c0.2,0,0.4,0,0.6,0C54.9,23.6,54.7,37.5,54.9,51.4L54.9,51.4
			z M55.9,57.6c-1.3-1.1-3.2-1-4.5,0.1l0,0L50,55.9l1.6-2.2l1.2,1.6c0.3,0.4,0.7,0.4,1.1,0.2c0.1-0.1,0.1-0.1,0.2-0.2
			c0.1-0.1,0.2-0.1,0.3-0.3l1.8-2.2l1.8,2.6C57.2,56.1,56.5,56.9,55.9,57.6L55.9,57.6z M58.3,52.9L57,51.2c-0.1-0.2-0.3-0.3-0.5-0.3
			c-0.2-13.5,0-27,0.2-40.5c0.2,0.1,0.3,0.3,0.5,0.4c0.1,0.1,0.3,0.2,0.5,0.3C57.8,25,58,39,58.3,52.9L58.3,52.9z M57.6,8.9
			c-1.4-1.1-3.4-1.3-5-0.6l0.1-1.2h0.1c1.5-0.7,3.3-0.6,4.8,0.3L57.6,8.9z M57.6,5.6C56.2,5,54.5,4.9,53,5.4l0.2-3.2
			c1.4-0.7,3-0.6,4.4,0.1L57.6,5.6z"/>
		<path class="st0" d="M41.4,5.2c-7.4-0.8-14.8-1-22.3-0.4C14.6,5.2,6.7,4.8,4.7,10C3.8,12.3,4,15,4,17.4l0.1,11.5L4.3,52
			C4,53,3.9,54,4,55.1c0.6,3.4,3.8,5.8,7.3,5.3h0.1l0.1,2.8c0,0.5,0.4,0.8,0.9,0.8c0.3,0,0.5-0.1,0.7-0.4c0.2,0,0.4-0.1,0.5-0.3
			l2.2-2.3l2.9,2.4c0.4,0.3,1,0.2,1.3-0.2c0.1-0.1,0.1-0.1,0.1-0.2c0.1-0.1,0.2-0.3,0.2-0.5c0-0.6,0-1.1,0-1.7l21.2-0.7
			c0.5,0,0.9-0.4,0.9-0.8c0-0.1,0-0.3-0.1-0.4c0-0.1,0.1-0.2,0.1-0.3l0.1-6.7c0-0.1,0-0.2,0-0.3l0.4-45.9c0-0.5-0.4-0.8-0.9-0.8
			C41.7,5,41.5,5.1,41.4,5.2z M5.7,13.5C6,9.7,7.9,8,11.5,7.4h0.1c-3.5,4.3-2.8,10.8-2.8,16.1l0.1,24l-0.4,0.2c-1,0.4-1.8,1-2.6,1.8
			c0-5.5-0.1-11.1-0.1-16.6C5.8,26.4,5.3,19.9,5.7,13.5z M18.6,61.3l-2.1-1.7c-0.2-0.1-0.4-0.2-0.6-0.2c-0.3-0.2-0.7-0.1-0.9,0.2
			l-1.9,2l-0.3-7.8l5.8-0.2C18.7,56.1,18.6,58.7,18.6,61.3z M40.7,55.3H25.8c-0.5,0.1-0.8,0.5-0.7,0.9c0,0.4,0.4,0.7,0.7,0.7h14.8
			v1.2c-0.1,0.1-0.2,0.3-0.2,0.4l-20.2,0.7v-5.8l20.4-0.7C40.7,53.6,40.7,54.4,40.7,55.3L40.7,55.3z M40.7,51.1L12.2,52
			c-0.4-0.1-0.9,0.1-1,0.5c0,0.1-0.1,0.2,0,0.3l0.2,5.9l0,0c-2.7,0.4-5.2-1.4-5.6-4.1c-0.1-0.5-0.1-1,0-1.5C5.9,53,6,52.8,6,52.6
			v-0.2c0.4-1,1.1-1.9,2-2.5c3.1-2.2,7.1-1.7,10.7-1.6l22.1,0.7L40.7,51.1z M40.7,47.2l-17.2-0.5c-4.1-0.1-8.9-0.9-13,0.2V26.7
			c0-6.2-1.6-15.4,3.9-19.7c2.5-0.3,5-0.5,7.4-0.7C28.2,6,34.7,6.2,41.1,6.9C41,20.3,40.9,33.7,40.7,47.2L40.7,47.2z"/>
		<path class="st0" d="M35.9,12.6c0-0.4-0.3-0.8-0.8-0.8c-0.1,0-0.3,0-0.4,0.1l-15.4,0.5c-0.2,0-0.4,0.1-0.6,0.2
			c-0.4,0-0.7,0.4-0.7,0.8l-0.1,8.9c0,0.2,0,0.3,0.1,0.5c0.1,0.3,0.4,0.4,0.7,0.4l15.8-0.8c0.4,0,0.7-0.3,0.8-0.7
			c0.1-0.1,0.1-0.3,0.1-0.4L35.9,12.6z M34.2,13.6l-0.4,7.3l-14.2,0.7l0.1-7.5L34.2,13.6z"/>
		<path class="st0" d="M30.7,28.2l-8.4,0.2c-0.5,0.1-0.8,0.5-0.7,0.9c0,0.4,0.4,0.7,0.7,0.7l8.4-0.2c0.5-0.1,0.8-0.5,0.7-0.9
			C31.4,28.5,31.1,28.2,30.7,28.2z"/>
		<path class="st0" d="M30.7,41l-8.4,0.2c-0.5,0.1-0.8,0.5-0.7,0.9c0,0.4,0.4,0.7,0.7,0.7l8.4-0.2c0.5-0.1,0.8-0.5,0.7-0.9
			C31.4,41.4,31.1,41,30.7,41z"/>
		<path class="st0" d="M36.6,32.3c-6.9,0.4-13.8,0.3-20.7-0.1c-1.1-0.1-1.1,1.6,0,1.7c6.9,0.4,13.8,0.4,20.7,0.1
			C37.7,33.9,37.7,32.2,36.6,32.3z"/>
		<path class="st0" d="M33.7,36.6c-5.2,0.5-10.4,0.5-15.6-0.1c-1.1-0.1-1.1,1.6,0,1.7c5.2,0.6,10.4,0.6,15.6,0.1
			C34.8,38.2,34.8,36.5,33.7,36.6z"/>
	</g>
</g>
</svg>
