<?xml version="1.0" encoding="utf-8"?>
<!-- Generator: Adobe Illustrator 20.0.0, SVG Export Plug-In . SVG Version: 6.00 Build 0)  -->
<svg version="1.1" id="Layer_1" xmlns="http://www.w3.org/2000/svg" xmlns:xlink="http://www.w3.org/1999/xlink" x="0px" y="0px"
	 viewBox="0 0 64 64" style="enable-background:new 0 0 64 64;" xml:space="preserve">
<style type="text/css">
	.st0{fill:#2C2B30;}
</style>
<title>Asset 1</title>
<g id="Layer_2">
	<g id="Layer_1-2">
		<path class="st0" d="M54.8,40.1L54.8,40.1c-0.6-2.8-0.7-5.8-0.3-8.7c0.5-0.3,0.6-0.9,0.3-1.4c-0.1-0.1-0.2-0.3-0.4-0.3
			c-7.6-2.6-15.8-4.7-22.8-8.7c-0.4-0.4-1-0.4-1.4-0.1c0,0,0,0-0.1,0.1c-7,4-15.2,6.1-22.8,8.7c-0.5,0.3-0.7,0.9-0.4,1.3
			c0.1,0.2,0.2,0.3,0.4,0.4c2.6,0.9,5.3,1.8,8,2.6c-0.5,3.9-0.6,7.9-0.3,11.8c-0.3,0.4-0.2,0.9,0.1,1.1c0,0,0.1,0,0.1,0.1
			c8.9,5.1,20.5,4.1,29.4-0.5c0.4,0.1,0.8-0.2,0.9-0.6c0,0,0,0,0,0c0.9-3.9,1.2-7.9,0.9-11.9c2.1-0.7,4.2-1.3,6.2-2
			c-0.3,2.7-0.1,5.4,0.4,8c-1.8,0.3-3.2,1.8-3.3,3.7c-0.2,2.5,2,4,4,5.1c0.4,0.2,0.9,0.1,1.1-0.3c2.3-1.2,3.3-4,2.1-6.4
			C56.5,41.4,55.7,40.6,54.8,40.1z M44.1,45L44.1,45c-8.2,4.4-19,5.5-27.4,1c-0.3-3.8-0.3-7.6,0.2-11.3c4.6,1.4,9,3.3,13.2,5.5
			c0.4,0.4,1,0.4,1.4,0.1c0,0,0,0,0.1-0.1c4.2-2.3,8.6-4.1,13.2-5.5C45.1,38.1,44.8,41.6,44.1,45z M30.9,38.7C24.5,35,17,33,10,30.6
			c7-2.3,14.4-4.4,20.9-8c6.4,3.6,13.8,5.7,20.8,8C44.7,33,37.3,35,30.9,38.7z M54,41.7c0.8,0.4,1.3,1.1,1.6,1.9
			c-1.3,0.4-2.7,0.3-3.9-0.4C52.1,42.2,53,41.6,54,41.7L54,41.7z M54,47.1c-1-0.5-1.8-1.2-2.3-2.1l0,0c1.2,0.5,2.6,0.6,3.9,0.3
			C55.3,46,54.8,46.7,54,47.1L54,47.1z"/>
		<path class="st0" d="M57.9,7.1c-1.4-2.8-4.2-4.5-7.3-4.7c-0.4,0-0.7,0.2-0.8,0.6c-0.1,0-0.1,0.1-0.2,0.1
			C43.3,8.9,37,14.7,30.7,20.6c0-0.2-0.1-0.3-0.3-0.5L10,0.2C9.8,0,9.4-0.1,9,0.1c-0.1,0-0.3,0.1-0.4,0.1L1.2,5.4
			C0.7,5.4,0.4,5.9,0.5,6.4c0,0.2,0.1,0.3,0.2,0.4l16.8,20.3c1.4-0.8,2.9-1.2,4.5-1.3l0.7-0.6c0.6-0.6,0-1.7-0.8-1.4l-0.2,0.1
			c-0.2,0.1-0.4,0.3-0.5,0.5L19,26.3l-1.8-2.1l4-3.1c0.9-0.7-0.4-1.9-1.2-1.2l-3.9,3L14.6,21l1.9-1.8c0.8-0.8-0.4-2-1.2-1.2
			l-1.8,1.7l-1.8-2.2l0,0l4.3-3.7c0.8-0.7-0.4-1.9-1.2-1.2l-4.2,3.7l-8-9.8l6.7-4.6l20,19.4c0.1,0.1,0.3,0.2,0.4,0.2l-0.9,0.8
			c0.9-0.3,1.8-0.4,2.8-0.2c4-3.8,8-7.5,12-11.2l0.2,0.1c0.3,0.1,0.5,0.2,0.8,0.3c-3.6,3.8-7.3,7.7-10.9,11.5l0,0
			c0.5,0.3,0.9,0.7,1.2,1.1c3.7-3.8,7.3-7.7,10.9-11.5c0.1-0.1,0.2-0.2,0.2-0.3c0.6,0.4,1.1,0.8,1.6,1.3l-0.1,0.1
			c-3.7,3.7-7.4,7.3-11.1,11c0.4,0,0.8,0.2,1.1,0.3c0.2,0.1,0.4,0.2,0.7,0.3c3.5-3.5,7.1-6.9,10.5-10.4c0.1,0.2,0.3,0.3,0.4,0.5
			c0,0.1,0.1,0.1,0.1,0.1c-3.1,3.5-6.2,6.9-9.3,10.4c0.6,0.1,1.2,0.3,1.7,0.7c5.3-5.8,10.5-11.7,15.8-17.5c0.1-0.2,0.2-0.4,0.2-0.6
			C58,8,58.1,7.5,57.9,7.1z M50.5,14c-1.4-1.9-3.3-3.4-5.4-4.4l1.3-1.2l0,0c2.1,0.9,3.9,2.6,4.8,4.7L50.5,14z M52.4,11.8
			c-1.1-2-2.7-3.6-4.7-4.6l3.2-2.9c0.1,0,0.1-0.1,0.1-0.2c2.2,0.3,4.1,1.5,5.2,3.4L52.4,11.8z"/>
		<path class="st0" d="M52.7,40.9L52.7,40.9c-2.1-2-4.3-4-6.5-5.9c-0.1,0.6-0.2,1.3-0.4,1.9c1.9,1.6,3.7,3.3,5.6,5
			C51.7,41.5,52.1,41.1,52.7,40.9z"/>
		<path class="st0" d="M63.3,51.1c-2.1-2.1-4.2-4.1-6.3-6.2c-3.2-3,0,0,0,0.1c0,0.6-0.2,1.2-0.7,1.7c1.7,1.7,3.5,3.3,5.1,5
			c-3.9,3.8-8.2,7.2-12.8,10l0,0c-0.7-0.8-1.4-1.5-2.1-2.3l0.1-0.1l2.9-2.7c0.8-0.7-0.4-2-1.2-1.2l-3,2.7l0,0L44,56.5
			c1.4-1.6,2.9-3.1,4.4-4.7c0.8-0.8-0.5-2-1.2-1.2c-1.4,1.5-2.9,3.1-4.3,4.6L41.1,53l2.6-1.8c0.9-0.6,0-2.1-0.9-1.5L40,51.7
			c-0.5-0.6-1-1.2-1.5-1.8l2.3-2c-1.5,0.6-3,1-4.6,1.2h-0.5c3.9,5,8.1,9.9,12.5,14.6c0.3,0.3,0.9,0.3,1.2,0c0.2-0.2,0.3-0.4,0.2-0.6
			c4.9-2.9,9.4-6.5,13.4-10.5c0.1-0.1,0.1-0.1,0.2-0.2c0.4-0.2,0.5-0.8,0.2-1.1C63.4,51.2,63.3,51.1,63.3,51.1z"/>
		<path class="st0" d="M20.3,48.6c-1.3,1.6-2.5,3.1-3.8,4.7l-0.6-4c0.5-0.7,1-1.3,1.5-1.9c-0.4-0.4-0.8-0.9-1-1.4
			c-0.6,0.7-1.1,1.3-1.6,2c-1,0-2,0.2-3,0.5l0.4-2.8c0-0.1,0-0.3,0-0.4c0.1,0,0.2-0.1,0.3-0.2c1.1-0.9,2.3-1.9,3.4-2.8
			c-0.2-0.7-0.3-1.4-0.2-2.1c-1.4,1.3-2.9,2.5-4.4,3.7c-0.2,0.1-0.3,0.4-0.3,0.7l-3.2,0.6c2.6-2.6,5.2-5.2,7.9-7.8
			c-0.1-0.8-0.1-1.5-0.1-2.3c-3.5,3.4-6.9,6.9-10.4,10.3C5.1,45.5,5,45.8,5,46c-0.1,0.1-0.1,0.2-0.2,0.3L0.8,57.9
			c-0.1,0.3,0,0.6,0.2,0.8c0.2,0.4,0.6,0.6,1,0.5l14.2-3.7c0.3,0.2,0.7,0.2,0.9-0.1c0,0,0,0,0,0c1.6-2,3.2-4,4.9-6
			c-0.4,0-0.7-0.2-1.1-0.3C20.7,48.9,20.4,48.8,20.3,48.6z M7.7,55.9c-0.3-1.7-1.4-3.2-3-4l1.7-4.8c0.1,0,0.2,0,0.3,0l3.8-0.7
			L10,49.5c0,0.1,0,0.3,0,0.4c0,0.5,0.4,0.9,0.9,0.8c0.1,0,0.3,0,0.4-0.1c0.9-0.5,2-0.8,3-0.9l0.6,4.2L7.7,55.9z"/>
		<path class="st0" d="M10,5C9.3,4.6,8.4,4.6,7.7,5c-0.4-0.2-0.8,0-1,0.3c0,0,0,0,0,0c-0.8,1.4-0.4,3.1,0.9,4
			c1.2,0.8,3.1,0.8,3.8-0.6S11.1,5.6,10,5z M9.9,8C9.6,8.4,8.7,8.1,8.4,7.8C8.2,7.7,8.1,7.4,8.1,7.2c0.1-0.1,0.2-0.3,0.3-0.5
			C8.4,6.3,9,6.3,9.3,6.5S10.1,7.6,9.9,8z"/>
		<path class="st0" d="M34.2,30.1c-0.4-0.3-0.8-0.4-1.3-0.4c-0.1-0.1-0.2-0.1-0.3-0.2c-1.7-0.7-4.1-0.6-5.3,1s0.3,2.9,2,3
			c1.4,0.1,4.8,0.2,5.5-1.4C35.1,31.4,34.8,30.6,34.2,30.1z M33,31.4c-0.3,0.1-0.7,0.2-1,0.2c-0.8,0.1-1.6,0.2-2.4,0.2
			c-0.1,0-0.8,0-0.8-0.1c-0.2-0.4,0.8-0.7,1-0.8c0.4-0.1,0.9-0.2,1.3-0.1c0,0.4,0.4,0.8,0.9,0.7c0,0,0.1,0,0.1,0
			C32.2,31.5,33.3,31.3,33,31.4z"/>
	</g>
</g>
</svg>
