<?xml version="1.0" encoding="utf-8"?>
<!-- Generator: Adobe Illustrator 20.0.0, SVG Export Plug-In . SVG Version: 6.00 Build 0)  -->
<svg version="1.1" id="Layer_1" xmlns="http://www.w3.org/2000/svg" xmlns:xlink="http://www.w3.org/1999/xlink" x="0px" y="0px"
	 viewBox="0 0 64 64" style="enable-background:new 0 0 64 64;" xml:space="preserve">
<style type="text/css">
	.st0{fill:#2C2B30;}
</style>
<title>Asset 45</title>
<g id="Layer_2">
	<g id="Layer_1-2">
		<path class="st0" d="M62.8,10.4c0-0.3-0.2-0.6-0.5-0.7c-0.1-0.1-0.3-0.1-0.4-0.1h-8.7V1.1c0-0.3-0.2-0.6-0.5-0.7
			c-0.1-0.1-0.3-0.2-0.5-0.2L42.8,0c-0.4,0-0.8,0.3-0.8,0.7c0,0,0,0.1,0,0.1c0,0.1,0,0.1,0,0.2v0.6H42C26,1.4,9.1,8.7,3,24.4
			c-2.8,7.2-2.5,15.1,0.7,22.1c3.5,7.2,10.5,12,17.8,14.7c8.9,3.2,18.5,3.4,27.8,1.7c0.4,0.2,0.9,0.1,1.1-0.3
			c0.1-0.1,0.1-0.3,0.1-0.4L50.1,48c0-0.1,0-0.1,0-0.2c0.2-0.4-0.1-0.9-0.5-1.1c-0.2-0.1-0.3-0.1-0.5,0c-9.4,2.3-23.2,5-29.3-5.1
			c-5.9-9.8,2.5-20.2,11.9-23v2c0,0.4,0.3,0.8,0.7,0.8c0.1,0,0.1,0,0.2,0c0.1,0,0.2,0.1,0.3,0.1h9.1v8.5c0,0.5,0.4,0.8,0.8,0.8
			c0.2,0,0.3-0.1,0.5-0.1l9,0.3c0.3,0,0.6-0.2,0.7-0.5c0.1-0.1,0.2-0.3,0.2-0.5c0-2.8,0-5.7,0-8.5h8.7c0.3,0,0.6-0.2,0.7-0.4
			c0.2-0.1,0.4-0.4,0.3-0.7C62.9,17.1,62.8,13.8,62.8,10.4z M31.9,10.2c0,2.2-0.1,4.5-0.1,6.7h-0.1c-10.1,2.8-18.8,13.2-14,24
			c5.3,12,20.4,10,30.9,7.6l0.4,12.8C30.7,64.6,4.5,59,2.8,36.7c-0.7-9.3,3.7-18.1,10.6-24.1C21.3,5.8,31.7,3.1,42,3.3l0,0v6.3
			l-8.9,0c-0.4-0.2-0.9-0.1-1.1,0.3C31.9,10,31.9,10.1,31.9,10.2z M52.5,19.9L52.5,19.9c-0.5-0.1-0.9,0.2-0.9,0.7c0,0,0,0.1,0,0.1
			c0,2.9,0,5.8,0,8.6L43.6,29c0-2.8,0-5.6,0-8.4c0-0.4-0.4-0.8-0.8-0.8c-0.1,0-0.2,0-0.3,0.1c-0.1,0-0.2,0-0.2,0h-8.9l0.1-8.7h8.8
			c0.1,0,0.2,0,0.3,0c0.4,0.2,0.9-0.1,1-0.5c0-0.1,0-0.2,0-0.3c0-2.9,0-5.8,0-8.8l7.9,0.1c0,2.9,0,5.8,0,8.6c0,0.4,0.4,0.8,0.8,0.8
			c0.1,0,0.2,0,0.3,0h8.6l0.1,8.7L52.5,19.9z"/>
	</g>
</g>
</svg>
