<?xml version="1.0" encoding="utf-8"?>
<!-- Generator: Adobe Illustrator 20.0.0, SVG Export Plug-In . SVG Version: 6.00 Build 0)  -->
<svg version="1.1" id="Layer_1" xmlns="http://www.w3.org/2000/svg" xmlns:xlink="http://www.w3.org/1999/xlink" x="0px" y="0px"
	 viewBox="0 0 64 64" style="enable-background:new 0 0 64 64;" xml:space="preserve">
<style type="text/css">
	.st0{fill:#2C2B30;}
</style>
<title>Asset 71</title>
<g id="Layer_2">
	<g id="Layer_1-2">
		<path class="st0" d="M48,31.6c-0.1-0.3-0.4-0.5-0.8-0.5c-7.2,0.1-12.9,6.1-12.8,13.2s6.1,12.9,13.2,12.8c7.1-0.3,12.7-6,12.8-13.1
			c0-6.8-5.5-12.4-12.3-12.5C48.1,31.6,48,31.6,48,31.6z M47.7,55.4c-6.2,0.3-11.5-4.5-11.8-10.8c-0.3-5.9,4-11,9.9-11.7
			c0.1,0.3,0.4,0.5,0.8,0.4c5.9-0.8,11.3,3.3,12.1,9.1c0.1,0.4,0.1,0.8,0.1,1.1C58.8,49.9,53.9,55.2,47.7,55.4z"/>
		<path class="st0" d="M63.9,42.6c-0.4-3.5-1.8-6.8-4.1-9.5c0.2-0.1,0.3-0.4,0.3-0.6L60.7,18c0.1-3.2,0.4-6.7-0.9-9.7
			C56.8,1.5,47.5,3,41.5,3c-9.3,0.1-18.8-0.3-28.1,0.3C6.8,3.7,2.2,7.7,0.6,14.2c-2.3,9.7,3.3,19.7-0.6,29.2c-0.2,0.3,0,0.7,0.3,0.9
			c0,0,0.1,0,0.1,0c0.1,0.3,0.4,0.6,0.8,0.6c4.1,0.3,8.1,0.3,12.2,0.1h0.1l3,5.9c0.2,0.4,0.6,0.5,1,0.3c0,0,0.1,0,0.1-0.1
			c0.4,0.2,1,0.1,1.2-0.3c0,0,0-0.1,0-0.1l2.6-6.3l9.2-0.3c-0.2,5.2,2.1,10.1,6.2,13.4c5.2,4,12.3,4.7,18.2,1.7
			C61,55.9,64.5,49.4,63.9,42.6z M30.9,42.5l-8.6,0.2l1.2-2.8c0.4-1-1.2-1.4-1.6-0.4l-4.2,10l-5.3-10.3c-0.5-0.9-1.9-0.1-1.4,0.8
			l1.8,3.4c-3.6,0.2-7.3,0.1-10.9-0.1C5.2,34.2,0.4,25,2,15.7c0.7-4.2,3-8.6,7.3-10.1C13.8,4,19.5,4.8,24.2,4.8l15.7-0.1
			c4.4,0,9.5-0.8,13.8,0.5c5.2,1.6,5.6,6.5,5.5,11.2c-0.1,5.2-0.4,10.4-0.6,15.5c-2.4-2.3-5.5-3.9-8.8-4.6c-0.4-0.1-0.9,0.1-1,0.6
			c-7.2-0.5-13.9,3.7-16.7,10.3C31.4,39.6,31,41,30.9,42.5z M62.3,44.9c-0.5,7.8-6.7,14.4-14.6,14.6c-8.5,0.2-15.7-6.6-15.4-15.3
			c0.4-8.5,7.6-15.2,16.1-14.8c0.3,0,0.7,0,1,0.1c0.3,0,0.6-0.2,0.7-0.5C57.2,30.9,62.8,37.4,62.3,44.9z"/>
		<path class="st0" d="M27.1,11.3c-6.1,0.4-12.3,0.4-18.4,0.1c-1.1-0.1-1,1.6,0,1.6c6.1,0.4,12.3,0.3,18.4-0.1
			C28.1,12.9,28.1,11.2,27.1,11.3z"/>
		<path class="st0" d="M49.4,18L8.7,18.5c-0.5,0-0.8,0.4-0.8,0.8s0.4,0.8,0.8,0.8l40.8-0.5c0.5,0,0.8-0.4,0.8-0.8S49.9,18,49.4,18z"
			/>
		<path class="st0" d="M38.1,24.9L8.6,25.2c-0.5,0-0.8,0.4-0.8,0.8c0,0.5,0.4,0.8,0.8,0.8l29.4-0.3c0.5,0,0.8-0.4,0.8-0.8
			C38.9,25.2,38.5,24.9,38.1,24.9z"/>
		<path class="st0" d="M26.4,31.7L8.6,31.9c-0.5,0-0.8,0.4-0.8,0.8c0,0.5,0.4,0.8,0.8,0.8l17.8-0.2c0.5,0,0.8-0.4,0.8-0.8
			C27.2,32.1,26.9,31.7,26.4,31.7z"/>
		<path class="st0" d="M51.8,38.9c-1.4,1.1-2.7,2.2-4,3.4l-4-3.5c-0.8-0.7-2,0.5-1.2,1.2l4,3.4c-1.3,1.2-2.5,2.5-3.6,3.8
			c-0.7,0.8,0.5,2,1.2,1.2c1.2-1.4,2.4-2.7,3.7-3.9c1.2,0.9,2.1,1.9,2.9,3.2c0.3,0.3,0.9,0.3,1.2-0.1c0.2-0.2,0.3-0.5,0.2-0.7
			c-0.8-1.3-1.9-2.5-3.1-3.5c1.3-1.2,2.6-2.3,3.9-3.4C53.8,39.4,52.7,38.2,51.8,38.9z"/>
	</g>
</g>
</svg>
