<?xml version="1.0" encoding="utf-8"?>
<!-- Generator: Adobe Illustrator 20.0.0, SVG Export Plug-In . SVG Version: 6.00 Build 0)  -->
<svg version="1.1" id="Layer_1" xmlns="http://www.w3.org/2000/svg" xmlns:xlink="http://www.w3.org/1999/xlink" x="0px" y="0px"
	 viewBox="0 0 64 64" style="enable-background:new 0 0 64 64;" xml:space="preserve">
<style type="text/css">
	.st0{fill:#2C2B30;}
</style>
<title>Asset 31</title>
<g id="Layer_2">
	<g id="Layer_1-2">
		<path class="st0" d="M50.5,2c-0.3,0.1-0.5,0.3-0.6,0.6l-16,14.4c1.7-2.9,2.8-6,2.3-9.4c-0.4-3.9-3.7-7-7.6-7.2
			c-0.3-0.1-0.6,0-0.8,0.3c-3.9,4.8-4.7,11.4-1.9,16.9c-5.2-3-11.5-3.3-16.9-0.8c-0.4,0.2-0.6,0.6-0.4,1c0,0.1,0.1,0.2,0.2,0.3
			c2.4,6,8.8,9.4,15.1,7.9l-2.5,2.2l-0.3,0.1c-0.4,0.1-0.6,0.4-0.6,0.8c-6.4,5.6-12.4,11.5-18,17.8c-0.1,0.1-0.2,0.2-0.2,0.3
			c-0.5,0.4-0.9,1-1.3,1.5c-1.4,2.5-0.8,5.8,0.3,8.3c2.5,5.2,9.4,8.8,14.1,4c0.8-0.8,1.3-1.7,1.5-2.8l0.1-0.1l2.2-2.4
			c0,0.3-0.1,0.5-0.1,0.8c-0.2,1,1.2,1.5,1.7,0.7l42.4-43c0.1-0.1,0.1-0.1,0.2-0.2c0.4,0,0.6-0.3,0.7-0.6c1.1-5.5-2.4-10.9-8-12
			C54.1,1.3,52.2,1.4,50.5,2z M36.3,23.1c-2,0.9-3.6,0.1-5.3-1l0.5-0.4C33.2,21.8,34.8,22.3,36.3,23.1z M28.8,2.4
			c4.6,0.4,6.3,5.3,5.3,9.4c-0.8,3.1-2.6,5.8-4.5,8.3C25.1,15.2,24.7,7.7,28.8,2.4z M29.9,26.4c-0.9-0.3-1.8-0.6-2.7-0.9l2.2-2
			C29.7,24.4,29.9,25.4,29.9,26.4z M10.6,18.2c6.1-2.5,13.2-1,17.7,3.8c-0.2,0-0.3,0.1-0.4,0.2c-4.8,3.9-11.8,3.3-15.8-1.5
			C11.5,19.9,11,19.1,10.6,18.2z M11.1,61.5c-4.3,1.1-8.1-3.2-9.1-7c-1.4-5.8,3.6-7.3,8.3-7.3c0.9,0,1.7,0.1,2.6,0.3l-5,4.2
			c-0.1,0.1-0.2,0.2-0.2,0.3c-1.9,1.3-2.4,3.8-1.2,5.7c1.1,1.5,3.2,1.7,4.7,0.6c0.3-0.2,0.5-0.5,0.7-0.8c0.1-0.1,0.2-0.1,0.3-0.2
			l2.2-2.4c0.4,0.7,0.6,1.5,0.6,2.3C15.1,59.4,13.2,61,11.1,61.5z M11.5,52.8c0.7,0.1,1.3,0.3,1.8,0.7l-2.2,2.4
			c-0.2,0.1-0.4,0.2-0.5,0.4c-2.8,2.3-3.6-1.3-2-2.7C9.4,53,10.5,52.7,11.5,52.8L11.5,52.8z M18.8,53.6l-2.1,2.3
			c-0.5-2.5-2.5-4.4-5.1-4.9l3.2-2.7l0.1-0.1c2.1,1,3.6,3,4,5.3L18.8,53.6z M34.4,40.9L20.9,54.6c-0.2-6.2-5.8-9.8-12.1-9.1
			c-0.9,0.1-1.9,0.2-2.9,0.4C11,40.3,16.5,35.1,22.1,30c2.1-0.5,4.3-0.3,6.3,0.5c-0.8,1-1.4,2.1-1.9,3.3c-0.9,2.6-0.7,5.4,0.7,7.8
			c0.5,1,2.1,0.1,1.6-0.9c-1.3-2.4-1.2-5.3,0.2-7.7c0.3-0.6,0.7-1.1,1-1.6c3.1,2.1,4.8,5.7,4.5,9.4C34.4,40.8,34.4,40.8,34.4,40.9z
			 M38.2,37.1c-0.1-2.6-1.1-5.1-2.7-7.1c-1-1.2-2.3-2.2-3.8-2.9c0.1-0.9,0.1-1.8-0.1-2.7c1.9,1.1,4.2,1.1,6.1,0
			c0.1-0.1,0.2-0.1,0.3-0.2c2.6,2.1,4.1,5.3,4.2,8.7c0,0.1,0,0.1,0,0.2L38.2,37.1z M62.1,13c-0.2,0-0.3,0.1-0.4,0.2L45.8,29.4
			c-0.1-3.4-1.6-6.7-4.3-8.8c2.4-2.4,5.1-4.6,6.3-2.2c0.5,1.1,2,0.1,1.6-0.9c-1.1-2.4-4.5-1.9-6.4-0.8c-1.2,0.8-2.2,1.7-3,2.8
			c-1.3-0.8-2.8-1.3-4.4-1.6L51.4,3.7l0.1-0.1c4.4-1.3,9.1,1.2,10.4,5.6C62.2,10.4,62.3,11.7,62.1,13z"/>
	</g>
</g>
</svg>
