<?xml version="1.0" encoding="utf-8"?>
<!-- Generator: Adobe Illustrator 20.0.0, SVG Export Plug-In . SVG Version: 6.00 Build 0)  -->
<svg version="1.1" id="Layer_1" xmlns="http://www.w3.org/2000/svg" xmlns:xlink="http://www.w3.org/1999/xlink" x="0px" y="0px"
	 viewBox="0 0 64 64" style="enable-background:new 0 0 64 64;" xml:space="preserve">
<style type="text/css">
	.st0{fill:#2C2B30;}
</style>
<title>Asset 52</title>
<g id="Layer_2">
	<g id="Layer_1-2">
		<path class="st0" d="M61.8,2.1c-1.3-1.5-3.2-2.2-5.1-2.1c-0.1,0-0.1,0-0.2,0c-0.3-0.1-0.7,0.1-0.8,0.4L47,17.1
			c-4.6-5-10.2-9-16.4-11.7c-0.3-0.1-0.6-0.1-0.8,0.1c-0.2,0-0.3,0-0.4,0.1c-10.9,6.1-20.2,14.7-27.3,25c-0.2,0.3-0.2,0.7,0.1,0.9
			C1.1,41.6,1,51.8,2,62c0,0.5,0.4,0.8,0.9,0.8c0.2,0.3,0.7,0.5,1.1,0.3c18.2,0.6,36.4,1.7,54.5-0.1c0.5-0.1,0.8-0.5,0.8-1
			c0-0.2-0.1-0.4-0.3-0.5l0.3-29.6c0-0.3-0.1-0.5-0.3-0.6c-1.1-2.5-2.6-4.8-4.6-6.6c-0.1-0.1-0.2-0.2-0.4-0.2l8.7-21.1
			c0.2-0.4,0-0.9-0.5-1.1C62.1,2.1,62,2.1,61.8,2.1z M53.3,8.6c0.1,0,0.2,0,0.2,0h0.1c-5.2,12.5-11.2,24.6-18.1,36.2
			c0,0.1-0.1,0.2-0.1,0.3l0,0l-1.7,1L53.3,8.6z M39.6,46.1c0,0.1,0,0.1,0,0.2l-2.1,1.1l-0.5-1.8c0,0,0-0.1,0-0.1
			C44,33.7,50,21.5,55.2,8.9c0,0,0-0.1,0-0.1c0.2,0.1,0.4,0.2,0.5,0.3C50.3,21.4,44.8,33.6,39.6,46.1z M40.8,50.8
			c-0.9,0.4-1.8,0.8-2.8,1.2c-0.8-1.4-2.5-2.1-4-1.6H34l-0.5-2.2l2.3-1.4l0.5,1.8c0.1,0.4,0.5,0.7,0.9,0.6c0.1,0,0.2-0.1,0.2-0.1
			c0.1,0,0.3,0,0.4-0.1l2.5-1.3L40.8,50.8z M30.2,7c6.1,2.7,11.6,6.7,16,11.7l-14.1,27c-0.1,0-0.2,0-0.2,0.1L29,47.2l-9.1-6
			c-0.1-0.1-0.3-0.3-0.5-0.3L4,30.7C10.8,21,19.8,12.9,30.2,7z M3.5,61.2C2.7,51.7,2.7,42,3.7,32.5l14.4,9.4L3.5,61.2z M5.3,61.5
			l14.1-18.7l9.5,6.3c0.4,0.2,0.8,0.1,1.1-0.2c0.1-0.1,0.1-0.2,0.1-0.4l1.6-0.8l1.8,7.4c0,0.1,0,0.1,0.1,0.2
			c0.1,0.4,0.6,0.6,0.9,0.5c0,0,0.1,0,0.1-0.1l0,0l0,0l0,0h0.1c2.4-1.5,5-2.8,7.6-3.7c0.4-0.1,0.6-0.5,0.5-0.9l1.9-4.5
			c3.3,5.1,6.4,10.8,10.7,15.2C38.7,63,22,62.1,5.3,61.5z M57.4,61.3c-4.7-4.4-7.8-10.4-11.3-15.7c-0.2-0.3-0.5-0.4-0.8-0.4L47,41
			c0.3,0.2,0.7,0.1,0.9-0.2c2.8-3,6.9-4.4,9.7-7.4L57.4,61.3z M57.2,31.3C55,34.6,51.1,36,48,38.5l5.3-12.6
			C54.9,27.4,56.3,29.3,57.2,31.3L57.2,31.3z M42.1,48.7l-0.4-2c0-0.2-0.2-0.4-0.3-0.5c5-12.1,10.4-24,15.7-36
			c0.1,0.2,0.2,0.4,0.3,0.6c0.1,0.2,0.2,0.3,0.3,0.4L42.1,48.7z M58.3,9.4C57.4,7.9,55.9,7,54.1,7l0.5-1h0.1c1.6,0,3.2,0.8,4.1,2.1
			L58.3,9.4z M59.5,6.4c-1.1-1.1-2.5-1.8-4.1-2l1.5-2.8c1.5-0.1,2.9,0.6,3.9,1.8L59.5,6.4z"/>
	</g>
</g>
</svg>
