<?xml version="1.0" encoding="utf-8"?>
<!-- Generator: Adobe Illustrator 20.0.0, SVG Export Plug-In . SVG Version: 6.00 Build 0)  -->
<svg version="1.1" id="Layer_1" xmlns="http://www.w3.org/2000/svg" xmlns:xlink="http://www.w3.org/1999/xlink" x="0px" y="0px"
	 viewBox="0 0 64 64" style="enable-background:new 0 0 64 64;" xml:space="preserve">
<style type="text/css">
	.st0{fill:#2C2B30;}
</style>
<title>Asset 12</title>
<g id="Layer_2">
	<g id="Layer_1-2">
		<path class="st0" d="M63.3,12.8c-0.6-3.6-2.5-6.9-5.4-9.2c-3.7-2.9-8.4-3-12.8-3.1h-0.1c-2.6-0.3-5.2,0.4-7.3,1.9
			c0-0.4-0.2-0.7-0.6-0.8c-8.4-2.1-17.8-2.7-25.4,2.1C6,7.2,3.4,12.4,2.9,18.4H1.2c-0.5,0-0.8,0.4-0.8,0.8c0,0.5,0.4,0.8,0.8,0.8
			h1.6c0,0.9,0,1.9,0,2.9C3,28.1,3.5,33.2,4.2,38.3c0.4,3.4,1.1,6.8,3.7,9.3s6.3,3.4,9.9,3.7c2.2,0.2,4.5,0.2,6.7,0.2l-0.6,11.3
			c0,0.3,0.2,0.6,0.4,0.7l0.3,0.2c1,0.4,1.8-1,0.8-1.4c-0.1,0,0.3-4.8,0.4-5.1l0.3-5.6c2.3,0,4.7-0.1,7-0.1c0.5,0,0.8-0.4,0.8-0.8
			s-0.4-0.8-0.8-0.8c-4,0-8,0-12,0c-3.8,0-7.8-0.3-11-2.5C6.4,44.6,6,40,5.5,35.7c-0.4-3.5-0.7-7.1-1-10.6L7.2,25
			c1.1,0,1.1-1.7,0-1.6l-2.8,0.1c-0.1-1.1-0.1-2.3-0.1-3.5l6.1-0.1c0,4.7,0.1,9.3,0.1,14c0.1,7,0,0,0,0c-0.2,0.4,0,0.9,0.5,1.1
			c0.1,0,0.2,0.1,0.3,0.1h6.9c0.5,0,0.8-0.4,0.8-0.8s-0.4-0.8-0.8-0.8h-6l-0.2-13.7c0.3-0.4,0.2-0.9-0.1-1.2
			c-0.1-0.1-0.3-0.2-0.5-0.2l-7.1,0.1c0.1-2.1,0.6-4.2,1.4-6.1c1.6-3.2,4.1-5.9,7.3-7.6c7.2-4.1,15.8-3.4,23.5-1.5
			c-3,2.5-5,6-5.7,9.8c-0.6,3.7-0.2,7.5,1.1,10.9c1.3,3.4,3,7.4,5.9,9.6c0.6,0.5,1.3,0.9,2,1.3c-0.7,2.5-0.6,5.2,0.2,7.6
			c0.1,0.4,0.6,0.7,1.1,0.5c0,0,0.1,0,0.1-0.1c2.3,0.8,4.8,1,7.2,0.7l-0.2,19.6c0,0.5,0.4,0.8,0.8,0.8s0.8-0.4,0.8-0.8
			c0.1-6.6,0.2-13.2,0.2-19.9c0.1-9.9,0,0,0,0c0.8-0.2,1.5-0.4,2.3-0.7c0.4,0.3,0.9,0.3,1.3-0.1c0.1-0.1,0.2-0.3,0.2-0.5V42l0,0
			c0.4-0.2,0.5-0.7,0.3-1.1c0-0.1-0.1-0.1-0.1-0.2L54,40.6c0.2-2.2,0.1-4.3-0.1-6.5c0-0.1,0-0.2-0.1-0.3c0.9-0.5,1.7-1,2.4-1.6
			C61.9,27.4,64.6,20.1,63.3,12.8z M52.4,40.9c-3.5,1.5-7.4,1.6-10.9,0.3c-0.2-0.8-0.3-1.7-0.4-2.5c3.6,1.5,7.8,1.5,11.4-0.1
			C52.5,39.4,52.4,40.1,52.4,40.9z M41.2,36.9c0.1-0.5,0.2-1,0.3-1.5c3.6,1,7.5,0.7,10.9-0.8c0.1,0.8,0.1,1.5,0.2,2.3h-0.1
			c-3.5,1.8-7.5,1.8-11.1,0.2L41.2,36.9z M52.3,32.6c0,0,0,0.1,0,0.1c-1,0.5-2.1,0.9-3.3,1.2c-2.3,0.6-4.7,0.5-7-0.1
			c0.1-0.2,0.1-0.4,0-0.5l-2-9l2.5,1.3c0.1,0.2,0.3,0.3,0.5,0.4c0.4,0.1,0.9-0.2,1-0.6v-0.1l0,0l0.5-1.2l1.5,1.5
			c0,0.5,0.4,0.8,0.9,0.8c0.1,0,0.2,0,0.3-0.1l0,0c0.1,0,0.2-0.1,0.3-0.2l5.2-2.8C52.9,26.4,52.8,29.5,52.3,32.6L52.3,32.6z
			 M43.3,20.4l0.9-1.9c0.9,0.9,1.8,2,2.5,3.1c0.3,0.4,0.8,0.5,1.2,0.2c0.2-0.1,0.3-0.3,0.4-0.6l4.3-2.1c0.1,0.8,0.2,1.5,0.2,2.3
			l-5.5,2.9l-2.2-2.1c-0.1-0.3-0.3-0.5-0.6-0.6c-0.4-0.1-0.9,0.2-1,0.6l-0.6,1.5l-3.2-1.6l-0.5-2.5l2.2,1.3c0,0.8,1.1,1.3,1.5,0.5
			l0,0C43.2,21.2,43.4,20.8,43.3,20.4L43.3,20.4z M54.1,31.7c0.4-3.1,0.5-6.2,0.3-9.3c0.3-0.3,0.4-0.8,0.1-1.1c0,0-0.1-0.1-0.1-0.1
			c-0.1-1-0.2-2-0.3-3c0,0,0-0.1,0-0.1c0.2-0.7-0.7-1.1-1.2-0.8l-5.4,2.6c-0.8-1.2-1.8-2.3-2.9-3.2l0,0c-0.2-0.3-0.7-0.5-1-0.2
			c-0.1,0.1-0.2,0.2-0.3,0.3L42,19.4l-3-1.8c-0.1-0.1-0.3-0.1-0.5-0.1c-0.4-0.3-0.9-0.2-1.2,0.2c-0.1,0.2-0.2,0.4-0.1,0.7l3.2,14.7
			c-1-0.5-1.8-1.1-2.6-1.9c-2.6-2.8-4.4-7.3-5.3-11c-1.7-7.7,3-19.2,12.4-18h0.2c4.4,0,9,0.2,12.4,3.2C60.4,8.2,62,12,62,15.9
			C62.1,22.2,59.1,28,54.1,31.7z"/>
	</g>
</g>
</svg>
