<?xml version="1.0" encoding="utf-8"?>
<!-- Generator: Adobe Illustrator 20.0.0, SVG Export Plug-In . SVG Version: 6.00 Build 0)  -->
<svg version="1.1" id="Layer_1" xmlns="http://www.w3.org/2000/svg" xmlns:xlink="http://www.w3.org/1999/xlink" x="0px" y="0px"
	 viewBox="0 0 64 64" style="enable-background:new 0 0 64 64;" xml:space="preserve">
<style type="text/css">
	.st0{fill:#2C2B30;}
</style>
<title>Asset 13</title>
<g id="Layer_2">
	<g id="Layer_1-2">
		<path class="st0" d="M63.2,17.8c-0.4-4.3-1.7-9.8-4.3-13.4S51.9,0.3,47.7,0c-0.3,0-0.5,0.1-0.7,0.3c-5-0.7-10-0.6-13.6,2
			c0.1-0.2,0.2-0.4,0.3-0.6c-7.4-1.5-15.5-1.6-22.2,2.6c-5.5,3.5-7.9,8.4-8.5,14.3H1.4c-0.4,0-0.8,0.4-0.8,0.8
			c0,0.4,0.4,0.8,0.8,0.8H3c0,0.9,0,1.8,0,2.8c0.2,5,0.7,9.9,1.4,14.8c0.4,3.3,1.1,6.6,3.6,9s6.1,3.3,9.6,3.6
			c2.1,0.2,4.3,0.2,6.5,0.2l-0.6,10.9c0,0.3,0.1,0.5,0.4,0.7l0.3,0.2c0.9,0.4,1.7-0.9,0.8-1.4c-0.1,0,0.3-4.7,0.3-5l0.3-5.4
			c2.3,0,4.5-0.1,6.8-0.1c0.4,0,0.8-0.4,0.8-0.8c0-0.4-0.4-0.8-0.8-0.8c-3.9,0-7.7,0-11.6,0c-3.7,0-7.6-0.3-10.7-2.4
			c-3.7-2.6-4-7.1-4.5-11.2c-0.4-3.4-0.7-6.8-1-10.3L7.3,25c1,0,1-1.6,0-1.6l-2.7,0.1c-0.1-1.1-0.1-2.2-0.1-3.3l5.9-0.1
			c0,4.5,0.1,9,0.1,13.5c0.1,6.8,0,0,0,0c-0.2,0.4,0,0.9,0.4,1c0.1,0,0.2,0.1,0.3,0.1h6.7c0.4,0,0.8-0.4,0.8-0.8
			c0-0.4-0.4-0.8-0.8-0.8h-5.8L12,19.7c0.3-0.3,0.2-0.8-0.1-1.1c-0.1-0.1-0.3-0.2-0.5-0.2l-6.8,0.1c0.1-2,0.6-4.1,1.4-5.9
			c1.5-3.1,4-5.7,7-7.4c5.9-3.4,12.9-3.4,19.5-2.1c-1.4,1.4-2.5,3.1-3.1,5c-2.5,7.3-2.5,17.4,2.4,23.7c4,5.1,10.6,7.5,17,6.2
			c0,8.4,0,16.8,0.1,25.1c0,0.4,0.4,0.8,0.8,0.8c0.4,0,0.8-0.4,0.8-0.8c0-8.5,0-17-0.1-25.5c0.5-0.2,1-0.3,1.6-0.5
			C59.7,34,64,25.9,63.2,17.8z M61.5,22.8C60,31.7,51.3,38.5,42.2,36.6c-9.8-2-13-11.3-12.5-20.2c0.2-4.1,0.8-8.9,3.7-12
			c3.8-4,9.8-3.1,14.7-2.2c0.4,0.1,0.7-0.1,0.9-0.4c4.7,0.4,8.3,1.7,10.2,6.7C60.9,12.9,62.3,18,61.5,22.8z"/>
		<path class="st0" d="M46.8,16.5l-1.7-1.1c1-1.7,1.2-3.8,0.5-5.6c-1-2.5-3.8-3.7-6.3-2.7c0,0-0.1,0-0.1,0c0-0.5-0.4-0.9-0.9-0.9
			c-0.2,0-0.4,0.1-0.5,0.2c-2.6,2-3.7,5.4-2.7,8.6c0.7,2.7,3.5,4.3,6.2,3.6c0.3-0.1,0.6-0.2,0.8-0.3c0.8-0.4,1.5-0.9,2-1.6l1.8,1.2
			C46.9,18.4,47.7,17,46.8,16.5z M39.9,17.1c-2.5-0.1-3.6-2.5-3.5-4.7C36.5,11,37,9.6,38,8.5c0.1,0.4,0.5,0.6,0.9,0.6
			c0.1,0,0.2-0.1,0.3-0.1c1.5-1.1,3.6-0.8,4.7,0.7c0.5,0.6,0.7,1.5,0.7,2.3c0,0.9-0.2,1.8-0.6,2.6l-2.4-1.6
			c-0.9-0.6-1.7,0.8-0.8,1.4l2.3,1.5C42.2,16.7,41.1,17.2,39.9,17.1z"/>
		<path class="st0" d="M56.4,27.7c-1.2-3.4-3-6.5-5.4-9.1c-0.2-0.2-0.4-0.3-0.6-0.2c-0.1,0-0.2,0-0.3,0c-1.5,0.2-2.1,1.5-2.5,2.8
			c-0.6,2.2-1,4.5-1.5,6.8c-0.2,1,1.3,1.4,1.5,0.4l0.6-2.8l5.5-0.2c0.4,0.9,0.8,1.8,1.1,2.7C55.2,29.1,56.8,28.7,56.4,27.7z
			 M48.7,24.1c0.2-1.2,0.4-3.4,1.5-4c1.1,1.2,2,2.5,2.8,3.9L48.7,24.1z"/>
	</g>
</g>
</svg>
