<?xml version="1.0" encoding="utf-8"?>
<!-- Generator: Adobe Illustrator 20.0.0, SVG Export Plug-In . SVG Version: 6.00 Build 0)  -->
<svg version="1.1" id="Layer_1" xmlns="http://www.w3.org/2000/svg" xmlns:xlink="http://www.w3.org/1999/xlink" x="0px" y="0px"
	 viewBox="0 0 64 64" style="enable-background:new 0 0 64 64;" xml:space="preserve">
<style type="text/css">
	.st0{fill:#2C2B30;}
</style>
<title>Asset 60</title>
<g id="Layer_2">
	<g id="Layer_1-2">
		<path class="st0" d="M63.2,15.4c0-0.2,0-0.3,0-0.5c-0.3-3.9-1.1-7.8-2.4-11.5c0-0.3-0.2-0.5-0.5-0.7l0,0h-0.1
			C36.6-5.3,10.9,7.4,3,31c-3.3,9.6-3.2,20.1,0.3,29.7c0.1,0.2,0.1,0.3,0.3,0.4c0.1,0.2,0.3,0.3,0.5,0.3c16.6,5.4,34.8,0.9,47-11.7
			C59.6,40.5,64.1,28.1,63.2,15.4z M61.3,14.1c-2.4-0.7-4.7-1.8-6.8-3.4l5.1-5.1C60.5,8.4,61.1,11.2,61.3,14.1L61.3,14.1z M58.7,4
			l-5.5,5.5c-2.2-2-3.9-4.5-4.9-7.3C51.8,2.4,55.3,3,58.7,4z M46.4,2.2c0,0.1,0,0.2,0,0.3c1.2,3.2,3,6,5.5,8.4L48.8,14
			c-3.6-3.1-6.4-7.1-8.1-11.6C42.6,2.2,44.5,2.1,46.4,2.2z M15.1,14.7c6.5-6.4,14.8-10.6,23.8-12c1.8,4.9,4.8,9.2,8.7,12.6L39,23.9
			l-1.8-2.2c-0.7-0.9-2,0.4-1.3,1.3l1.8,2.2l-1.9,1.9l-2-1.7c-0.9-0.7-2.1,0.5-1.3,1.3l2,1.7l-2.3,2.4l-2-1.9
			c-0.8-0.8-2.1,0.5-1.3,1.3l2.1,1.9l-1.6,1.6l-1.7-1.7c-0.4-0.3-0.9-0.2-1.3,0.1c-0.3,0.3-0.3,0.8,0,1.1l1.7,1.7L26,36.9
			c-0.8-0.7-1.7-1.3-2.6-1.9s-1.8,0.9-0.9,1.5c0.8,0.5,1.5,1.1,2.3,1.7l-7.5,7.5c-3.9-3.9-8.8-6.5-14.2-7.6
			C4.6,29.3,8.7,21.1,15.1,14.7z M2.8,39.9c5,1,9.6,3.5,13.2,7.1l-4.9,4.9c-2.5-2.7-5.4-4.9-8.6-6.5H2.5C2.5,43.6,2.6,41.7,2.8,39.9
			z M2.5,47.3c2.8,1.5,5.3,3.5,7.4,5.8l-5.5,5.5C3.3,55,2.7,51.2,2.5,47.3L2.5,47.3z M5.6,60l5.5-5.5c1.8,2.2,3.2,4.6,4.3,7.3
			C12,61.5,8.8,61,5.6,60z M17.3,61.8c0-0.1,0-0.1,0-0.2c-1.2-3-2.8-5.9-4.9-8.4l4.9-5c3.2,3.7,5.3,8.3,6,13.3
			C21.3,61.7,19.3,61.9,17.3,61.8z M49.6,48.5C43,55.4,34.4,59.9,25,61.3C24.2,56,22,51.1,18.5,47l7.6-7.7c0.5,0.5,1,0.9,1.5,1.4
			c0.4,0.3,0.9,0.2,1.3-0.1c0.3-0.3,0.3-0.8,0-1.1c-0.5-0.5-1-1-1.5-1.4l2.1-2.1l1,1c0.4,0.3,0.9,0.3,1.3,0c0.3-0.4,0.3-0.9,0-1.3
			l0,0l-1-1l1.6-1.6l1.6,1.5c0.8,0.8,2.1-0.5,1.3-1.3l-1.6-1.5l2.4-2.4l1.4,1.1c0.9,0.7,2.1-0.5,1.3-1.3l-1.4-1.1l1.7-1.7l1.3,1.6
			c0.7,0.9,2-0.4,1.3-1.3l-1.3-1.6l8.8-8.8c3.7,2.8,7.9,4.7,12.5,5.6C60.7,31.9,56.5,41.3,49.6,48.5z M61.5,20.2
			c-4.1-0.8-8-2.5-11.3-5l3.2-3.2c2.4,1.9,5.2,3.3,8.1,4C61.5,17.4,61.6,18.8,61.5,20.2z"/>
	</g>
</g>
</svg>
