<svg xmlns="http://www.w3.org/2000/svg" viewBox="0 0 129.726 114.062">
  <path d="M.032,95.345c.243-3.106.139-6.225.408-9.336A13.439,13.439,0,0,1,4.081,78.19c3.166-3.65,6.192-7.422,9.28-11.14q1.963-2.364,3.939-4.718c.3-.359.692-.723.592-1.207-.476-2.287,1.132-3.561,2.343-5.028q3.948-4.782,7.911-9.553c2.15-2.588,4.337-5.146,6.461-7.756,1.577-1.94,3.145-3.9,4.76-5.795,2-2.345,3.957-4.723,5.926-7.091,2.99-3.594,5.934-7.228,8.868-10.87,2.594-3.219,5.249-6.386,7.888-9.567,1.06-1.278,2.529-2.29,2.958-4.056a.622.622,0,0,1,.609-.466C65.81.937,66,.937,66.2.932,75.205.69,84.22.861,93.225.638,99.916.472,106.608.7,113.289.424c4.828-.2,9.644-.241,14.468-.075a.681.681,0,0,0,.295-.071c1.065-.5,1.341-.373,1.348.76.019,3.059-.06,6.12-.006,9.179.075,4.246-.121,8.5.215,12.742a18.159,18.159,0,0,1-.131,5.13c-.084.407.122.778.092,1.147a6.875,6.875,0,0,1-1.073,3.717c-6.068,8.5-12.352,16.842-18.565,25.236Q100.452,71,91.289,84.036c-1.473,2.095-3.2,4-4.578,6.166-.1.156-.311.395-.412.369-1.157-.3-1.425.7-1.918,1.326q-5.591,7.132-11.156,14.286c-1.59,2.054-3.155,4.123-4.857,6.088a2.828,2.828,0,0,1-2.755,1.031,107.265,107.265,0,0,0-12.158-.45c-3.716-.08-7.422.167-11.129.3-3.893.134-7.8.164-11.676.485-6.139.509-12.275.31-18.413.426A47.235,47.235,0,0,1,2.952,113c-1.385-.249-1.992-1.552-2.238-2.835a44.181,44.181,0,0,1-.447-8.625C.28,99.47-.113,97.419.032,95.345ZM78.325,67c.649-.339.925-1.02,1.381-1.535.356-.4.082-.551-.282-.585-1.761-.169-3.522-.338-5.286-.473a36.42,36.42,0,0,0-4.671-.249c.209-.459.412-.45.6-.453,2.822-.044,5.611.386,8.416.589.711.052,1.507.568,2.137-.052a9.533,9.533,0,0,0,1.1-1.729,89.669,89.669,0,0,0-9.354-.722.62.62,0,0,1,.684-.426,42.746,42.746,0,0,1,6.236.391c1.695.2,3.348.515,4.212-1.52a1.357,1.357,0,0,0,.026-.29H82.279c-17.251.045-34.5-.221-51.749.476-.269.011-.54.025-.807.059a21.428,21.428,0,0,1-6.225-.024c-2.368-.394-3.5.084-4.392,2.079a27.982,27.982,0,0,1,6.465.515c-2.436.4-4.889-.464-7.359.118.6.879,1.624.173,2.184.826-.992.755-2.251-.8-3.139.512.327.253.85.09,1.09.625-.818.029-1.533-.147-2.143.63-2.931,3.734-5.967,7.384-8.908,11.111a20.041,20.041,0,0,0-2.652,3.607,46.584,46.584,0,0,0,7.385.17c6.412.008,12.784-.746,19.188-.8,4.453-.034,8.9.152,13.347.244,3.25.068,6.509.121,9.752-.045a39.713,39.713,0,0,1,7.748.054c.959.139,1.93-.14,2.837.051,1.829.385,2.676,1.808,3.188,3.5a17.71,17.71,0,0,1,.385,4.973c.059,4.787.532,9.554.541,14.339,0,2.086,0,4.172,0,6.544.747-.85,1.619-1.293,1.516-2.265-.263-2.487.026-4.99-.3-7.478a26.642,26.642,0,0,1-.025-3.4l.31-.009c.345,3.468.37,6.959.557,10.5.285-.46,1.056-.527.847-1.28-.654-2.356.063-4.727-.074-7.088-.01-.167.147-.256.437-.291v7.152a2.121,2.121,0,0,0,.4-.274c2.806-3.763,5.761-7.4,8.758-11.014.307-.369.869-.773.737-1.266-.321-1.194-.012-2.405-.259-3.6a14.72,14.72,0,0,1-.083-3.651h.349c.131,2.2.262,4.405.405,6.8.773-1.026,1.4-1.7,1.159-3.042a9.9,9.9,0,0,1,.024-5.106c.15,1.844.3,3.688.468,5.779a3.6,3.6,0,0,0,1.3-2.58c-.058-3.264-.381-6.52-.423-9.776-.068-5.3-.287-10.61.141-15.909.024-.3.167-.67-.068-.877-2,1.187-1.5,3.141-1.529,5.106-.823-.883-.19-1.925-.611-2.723-2.122,1.437-.861,3.633-1.466,5.431-.432-1.079-.113-2.27-.356-3.683-.953,1.381-.112,2.76-.587,4.1a7.2,7.2,0,0,1-.516-2.52c-1.826,2.164-3.584,4.212-5.3,6.294A78.1,78.1,0,0,1,68.4,80.35c-.322.3-.7.9-1.107.549s.185-.726.438-1.026c2.25-2.668,4.531-5.31,6.762-8a36.471,36.471,0,0,0,3.873-4.922ZM1.467,91.963a71.17,71.17,0,0,0,.154,7.583c.22,2.991.274,6,.51,8.985.1,1.293.236,2.77,1.873,3.132a29.48,29.48,0,0,0,6.268.969c7.918.018,15.83.065,23.749-.375,4.96-.275,9.929-.555,14.895-.713a128.947,128.947,0,0,1,16.233.206c1.439.136,1.854-.143,2.237-1.552a10.8,10.8,0,0,0,.247-3.362c-.215-4.809-.536-9.615-.669-14.426-.067-2.411-.3-4.81-.3-7.227,0-2.291-1.192-3.682-3.15-3.888a40.1,40.1,0,0,0-4.972-.231c-4.9.1-9.8.312-14.708.4-2.047.037-4.1-.16-6.145-.2-3.322-.061-6.631.255-9.945.386-2.723.108-5.458.5-8.2.11a12.917,12.917,0,0,0-2.2.057c-3.693.106-7.394.517-11.082-.075-3.085-.5-3.3-.347-4.212,2.789C1.333,87.046,1.738,89.64,1.467,91.963ZM86.393,56.514a.925.925,0,0,1,.181-1.12,95.191,95.191,0,0,1,8.831-11.529c3.517-4.117,3.777-4.42,1.94-8.958a8.046,8.046,0,0,0-5.178-5.072c-4.062-1.255-7.843-.383-11.391,1.567-3.237,1.779-6.051,4.236-9.079,6.354C66,41.741,60,44.338,52.867,43.337,47.45,42.577,42.959,40.37,40,35.543c-.274-.447-.439-.958-1.01-.251-2.5,3.095-5.019,6.172-7.527,9.259q-4.091,5.035-8.172,10.079c-.947,1.171-1.878,2.355-2.877,3.609,3.417.535,6.63.266,9.834.3,5.056.052,10.089-.614,15.135-.651,5.8-.043,11.6-.277,17.4.168a50.284,50.284,0,0,0,6.361-.19c4.522-.229,9.039.293,13.561.2a12.446,12.446,0,0,1,2.4.282,2.059,2.059,0,0,1,1.809,2.325c-.062,2.61-.118,5.222-.246,7.829-.229,4.676.566,9.312.475,13.981a43.1,43.1,0,0,1-.173,4.947c1.818-2.361,3.518-4.756,5.288-7.1a2.36,2.36,0,0,0,.395-1.957,43.522,43.522,0,0,1-.624-7.062c0-.2-.1-.488.386-.568a63.915,63.915,0,0,0,.846,8.394c.417-1.021,1.324-1.34,1.222-2.26-.183-1.657-.484-3.308-.545-4.969A18.576,18.576,0,0,1,93.7,68.03l.3-.039c.308,2.8.615,5.595.947,8.613a22.6,22.6,0,0,0,2.173-2.881q5.264-7.188,10.524-14.379c.269-.368.688-.651-.065-1.03-4.238-2.137-6.662-5.736-7.869-10.233a28.527,28.527,0,0,1-.763-6.782C94.492,46.323,90.585,51.467,86.393,56.514ZM121.959,8.966c-4.782-.674-9.543-1.21-14.227-2.236a2.507,2.507,0,0,1,1.507-.118c4.079.772,8.208,1.191,12.309,1.807.851.128,1.379-.212,1.535-1.236H120.66c.681-.582,1.447-.341,2.171-.385.441-.027.8-.039,1.06-.5a30.524,30.524,0,0,1,3.165-4.533A1.5,1.5,0,0,0,125.8,1.4c-1.5.008-3,.128-4.5.187-5.174.206-10.354-.113-15.534.24-3.735.254-7.486.03-11.236.212-5.749.28-11.515.265-17.274.281-3.594.01-7.176.405-10.771.252a.969.969,0,0,0-.914.348q-4.057,5.134-8.146,10.243a16.593,16.593,0,0,1-2,2.254c-.649.559-.363,1.79-1.533,1.959-.267.038-.248.62-.148.964a6.354,6.354,0,0,0,.411,1.07,11.757,11.757,0,0,0,12.82,6.12c3.208-.722,6.443-1.351,9.248-3.256,2.129-1.446,4.3-2.83,6.434-4.268,2.544-1.713,5.224-3.184,8.31-3.455a13.5,13.5,0,0,1,13.381,6.539,2.125,2.125,0,0,0,2.147,1.171c.355-.026.834-.213,1.152.41h-2.3c.5,1.46.959,2.829,2.946,2.933-.685.524-1.45-.249-1.52.357a1.845,1.845,0,0,0,.707,1.708,1.428,1.428,0,0,1,.255.329c2.885-3.7,5.559-7.516,8.611-11.03.62-.714.475-.958-.441-1.068-1.02-.123-2.021-.4-3.03-.613,1.322-.5,2.489.137,3.711.291.338.043.64.268.917-.108,1.047-1.421,2.1-2.839,3.206-4.338-.79-.29-1.55.078-2.494-.473C119.771,10.326,121.566,11.156,121.959,8.966ZM48.178,24.175c-2.631,3.192-5.25,6.384-7.892,9.556a.635.635,0,0,0-.069.893,14.746,14.746,0,0,0,6.4,6.2,21.674,21.674,0,0,0,16.151.968c4.52-1.446,8.276-4.315,12.056-7.046,3.719-2.686,7.27-5.527,12.064-6.048,4.049-.44,8.783.821,10.716,5.245.685,1.568,1.119,3.222,1.734,4.9.9-1.194,1.732-2.306,2.565-3.422.156-.21.364-.378.3-.712a14.118,14.118,0,0,0-1.877-5.64c-2.39-3.466-5.892-4.826-9.884-5.176A27.646,27.646,0,0,0,78.59,25.8c-3.234,1.162-6.315,2.724-9.669,3.573a24.618,24.618,0,0,1-16.643-1.289A7.87,7.87,0,0,1,48.178,24.175ZM127.969,3.134c-.261.4-.371.553-.465.716a89.551,89.551,0,0,1-5.743,8.9c-4.132,5.484-8.556,10.729-12.907,16.034a3.741,3.741,0,0,0-.923,3.5,6.357,6.357,0,0,1,0,2.21c-.27,2.422-.961,4.781-.83,7.268a12.759,12.759,0,0,0,5.249,9.638c.446.356.69.391,1.075-.155,2.618-3.713,5.278-7.4,7.941-11.074a1.514,1.514,0,0,0,.259-1.373c-.23-1.109-.683-2.225-.208-3.433.229,1.15.459,2.3.7,3.516.982-.907,1.542-1.746,1.076-3.095a6.161,6.161,0,0,1-.391-3.376c.7,1.41.473,2.856,1.18,4.323.409-1.16,1.652-1.61,1.442-2.776-.8-4.478-1.114-9.039-2.242-13.462-.034-.134,0-.32.412-.312,1.172,4.4,1.409,9.012,2.349,13.706,1-1.493,2.219-2.537,2.428-4.339a45,45,0,0,0-.125-4.755c.087-6.975.059-13.95-.208-20.922C128.035,3.725,128.013,3.581,127.969,3.134Zm-22.462,21.7a13.2,13.2,0,0,0-1.558-3.157,12.832,12.832,0,0,0-10.34-6.486c-3.74-.305-6.994,1.033-10.052,3.049-5.05,3.33-9.873,7.1-16.166,7.907a15.138,15.138,0,0,1-4.351.239A12.526,12.526,0,0,1,53,18.423c-.954,1.12-1.928,2.151-2.775,3.281-1.848,2.466-1.787,3.127.866,4.918,4.463,3.014,9.538,3.287,14.648,2.761,3.974-.409,7.605-2.144,11.279-3.637,5.162-2.1,10.441-3.369,16.029-2.089,4.379,1,7.632,3.384,9.085,7.841.275.844.438,1.726.691,2.747,1.3-1.62,2.447-3.127,3.679-4.564a1.373,1.373,0,0,0,.163-1.487c-.166-.6-.641-.225-.963-.331-.846-.281-1.806-.072-2.778-.577,1.277-.4,2.355.206,3.457.068-.451-1.986-.452-1.98-2.285-2.3-2.269-.4-4.537-.813-6.8-1.221l.051-.347C100.047,23.757,102.721,24.285,105.507,24.834Zm7.1,27.5a14.8,14.8,0,0,1-4.521-4.8c-2.025-3.556-1.966-7.315-1.111-11.172a9.965,9.965,0,0,0,.082-5.3c-1.389,1.673-2.669,3.218-3.955,4.757a.866.866,0,0,0-.15.662c.114,1.868-.181,3.724-.049,5.6A16.163,16.163,0,0,0,109.3,53.963c1.416,1.138,1.44,1.109,2.45-.362C112.03,53.187,112.311,52.77,112.605,52.338ZM102.192,37.171a29.523,29.523,0,0,0-2.549,3.206.97.97,0,0,0-.117.885,38.042,38.042,0,0,1,.357,4.174,15.878,15.878,0,0,0,6.807,11.721c1.61,1.137,1.716,1.09,2.834-.445.16-.219.3-.46.472-.663.359-.413.447-.616-.162-1a16.244,16.244,0,0,1-7.36-10.9C102.009,41.908,102.39,39.648,102.192,37.171ZM64.837,109.076c-3.133-.162-6.263-.417-9.4-.4l-.015.4,9.389.467ZM53.854,87.665a29.659,29.659,0,0,0,7.554.436A40.139,40.139,0,0,0,53.854,87.665Zm-43.431-.942L4.1,86.32l-.022.359a28.227,28.227,0,0,0,6.335.37Zm21.165,24.145c1.815-.118,3.608.58,5.427.111C35.208,110.8,33.4,110.227,31.588,110.868ZM15.536,85.8a4.688,4.688,0,0,0,2.531-.121c-1.708-.321-3.413-.7-5.135-.018C13.8,85.7,14.668,85.744,15.536,85.8Zm44.07,3.549c-1.34.012-2.654-.486-4.005-.137C56.929,89.527,58.258,89.954,59.606,89.345Zm.67-3.6c1.265.1,2.5.667,3.8.208A6.261,6.261,0,0,0,60.276,85.748Zm-51.445-1.1-3.8-.341a5.87,5.87,0,0,0,3.8.659ZM4.477,88.411a6,6,0,0,0,3.7-.022L4.5,88.055Zm56.229,19.048c1.012.785,2.137.414,3.236.321C62.9,107.29,61.774,107.676,60.706,107.459Zm-29.2.243a5.766,5.766,0,0,0-3.062.045A4.458,4.458,0,0,0,31.51,107.7ZM51.183,84.473a3.02,3.02,0,0,0,2.889.275A22.337,22.337,0,0,0,51.183,84.473ZM35.7,109.362a4.465,4.465,0,0,0-2.848.033A5.269,5.269,0,0,0,35.7,109.362Zm-6.7.585a1.876,1.876,0,0,0-2.461-.2Zm-1.928-54.59c5.364.428,10.752.333,16.107.871C37.843,55.149,32.459,55.252,27.074,55.357ZM71.45,53.2c3.893,1.076,7.807,1.9,11.854,1.032C79.3,54.5,75.387,53.719,71.45,53.2Zm-35.022.467c.99.715,5.294,1.262,7.148.836Zm40.546-1.354c1.061-.086,2.076.578,3.152.138C79.082,52.223,78.042,51.678,76.974,52.315Zm14.231-8.567c-.936-.227-1.822-.83-2.838-.444C89.309,43.48,90.173,44.258,91.205,43.748Zm1.633,17.274c.229.888-.27,1.758.089,2.649C93.27,62.8,93.7,61.924,92.838,61.022Zm-60.244-9.03a3.605,3.605,0,0,0,2.45-.014A3.558,3.558,0,0,0,32.594,51.992ZM80.82,50.617a3.148,3.148,0,0,0-2.412-.381C79.332,50.6,80.026,50.933,80.82,50.617Zm-26.9,12.391c3.458-.028,6.916.532,10.38.089-6.752-.437-13.5-.725-20.26-1a.515.515,0,0,0-.588.447C46.941,62.855,50.421,63.036,53.917,63.008ZM45.04,64.552c4.3.321,8.484.891,12.688.933C56.453,64.815,45.787,64.067,45.04,64.552Zm37.4,17.069c-.217-2.754-.158-5.538-.93-8.231C81.734,76.137,81.7,78.931,82.44,81.621ZM78.325,67c.019-.659-.566-.584-.9-.646a13.261,13.261,0,0,0-2.745-.282c-.682.02-1.421-.571-2.182.184l5.872.7Zm2.526,26.1a27.4,27.4,0,0,0-.572-5.717l-.373.044q.309,2.856.617,5.712ZM33.88,64.524c-2.192-.39-4.75-.2-5.177.3h5.18ZM80.272,76.38l-.322.043a12.454,12.454,0,0,0,.909,5.408Q80.565,79.105,80.272,76.38ZM29.593,66.734a10.769,10.769,0,0,0,4.982-.257A17.271,17.271,0,0,0,29.593,66.734Zm42.571,1.775a38,38,0,0,0-5.2-1.018C68.135,68.264,71.185,68.855,72.164,68.509ZM54.633,67.053c-1.652-.108-3.219-.539-5.158-.157C51.379,67.489,53.954,67.545,54.633,67.053ZM17.75,73.925a11.532,11.532,0,0,0-3.7-.531A5.687,5.687,0,0,0,17.75,73.925ZM70.1,70.074a5.523,5.523,0,0,0-3.307-.516C67.881,69.769,68.934,70.412,70.1,70.074ZM77.73,87.526a5.168,5.168,0,0,0-.439-3.307A7.654,7.654,0,0,0,77.73,87.526ZM60.987,65.376h3.368A2.949,2.949,0,0,0,60.987,65.376Zm12.39,36.367v-3.38A3.963,3.963,0,0,0,73.377,101.743Zm5.2-22.408a5.636,5.636,0,0,0,.477,3.3C79.175,80.97,79,79.784,78.581,79.335ZM74.218,96.988l-.3.029c.075.914-.23,1.859.3,2.968ZM17.79,72.428a6.09,6.09,0,0,0-2.771-.275A3.486,3.486,0,0,0,17.79,72.428Zm34.67-3.144c-.859-.108-1.726-.415-2.537.112A4.473,4.473,0,0,0,52.46,69.284ZM75.051,86.468a2.681,2.681,0,0,0,.291,2.45A4.8,4.8,0,0,0,75.051,86.468ZM73.86,90.057c.083-1.589.083-1.589-.335-2.284C73.6,88.483,73.123,89.3,73.86,90.057ZM64.382,23.18a3.385,3.385,0,0,1-1.54-.235,2.081,2.081,0,0,1-1.1-3.1c1.084-2.125,2.726-3.065,4.8-2.757A2.8,2.8,0,0,1,68.9,19.027a2.471,2.471,0,0,1-.788,2.619A4.47,4.47,0,0,1,64.382,23.18Zm.113-.465A5.1,5.1,0,0,0,67.72,21.2a2.02,2.02,0,0,0-.763-3.4c-1.381-.58-2.839-.13-4.051,1.373-.495.615-1.115,1.2-.7,2.242C62.685,22.6,63.679,22.466,64.5,22.715ZM87.438,4.9c-2.055-1.141-10.131-.474-13.017.355C78.756,5.04,83.073,4.311,87.438,4.9ZM65.347,7.3c3.285-.4,6.511.679,9.8.406C71.9,7.474,68.651,6.354,65.347,7.3ZM107.81,9.665l4.6.573A5.688,5.688,0,0,0,107.81,9.665ZM71.046,4.574a8.693,8.693,0,0,0-4.021.139A9.468,9.468,0,0,0,71.046,4.574Zm46.243-.3a16.411,16.411,0,0,0-3.361.027l.01.311H117.3ZM61.2,11.758a4.062,4.062,0,0,0,3.063.427C63.232,12.047,62.271,11.522,61.2,11.758Zm47.376,1a3.705,3.705,0,0,0,2.9.025l-2.869-.345Zm-49.65.718a2.29,2.29,0,0,0,2.267.455A4.054,4.054,0,0,0,58.929,13.471Zm10.24-3.09a2.309,2.309,0,0,0,2.268.119C70.734,10.483,70.047,9.974,69.169,10.381ZM114.253,48.34a11.508,11.508,0,0,0-.905-4.27A10.477,10.477,0,0,0,114.253,48.34Zm7.488-25.4a8.057,8.057,0,0,0,.629,3.86A9.168,9.168,0,0,0,121.741,22.936Zm3.274-4.711a24.942,24.942,0,0,0,1.1,4A5.251,5.251,0,0,0,125.015,18.225Zm-6.289,12.242a4.809,4.809,0,0,0,.75,2.709A4.469,4.469,0,0,0,118.726,30.467Zm-3.677,12.787c-.046-1.107.131-1.945-.67-2.614C114.713,41.372,114.311,42.283,115.049,43.254Z" fill="#151611"/>
</svg>
