<svg xmlns="http://www.w3.org/2000/svg" viewBox="0 0 215.431 170.551">
  <path d="M1.567,58.665A21.158,21.158,0,0,0,4.055,58.2c17.39-5.134,34.893-9.87,52.362-14.724Q90.172,34.1,123.956,24.822q31.517-8.713,63.024-17.459Q199.339,3.939,211.7.514c.607-.168,1.243-.237,1.846-.418a1.385,1.385,0,0,1,1.689.483c.4.59.119,1.209-.161,1.786q-2.225,4.584-4.448,9.17c-13.305,27.541-26.537,55.118-39.937,82.613-9.568,19.633-18.813,39.425-28.777,58.865-.376.734-.795,1.448-1.14,2.2-.519,1.125-1.171,1.4-2.271.642-3.076-2.128-6.167-4.236-9.3-6.28-9.241-6.032-18.516-12.012-27.741-18.069a1.348,1.348,0,0,0-2.12.261q-15.86,16.85-31.767,33.652c-1.386,1.47-3.119,2.653-3.926,4.624a.812.812,0,0,1-.966.49,1.074,1.074,0,0,1-.8-.952c-.231-1.288-.411-2.587-.576-3.886-1.126-8.807-2.69-17.546-4.054-26.317-1.59-10.22-3.044-20.461-4.54-30.695-.512-3.506-.979-7.02-1.451-10.532a1.017,1.017,0,0,0-.472-.805C34.367,85.521,17.824,73.865,1.81,61.488,1.178,61-.086,61.156.005,59.741.066,58.783.28,58.391,1.567,58.665Zm189.6-42.48c-2.1.314-3.562,1.891-5.387,2.753-.456.215-.087.539.023.846.2.571.763,1.078.406,2.061-.388-.7-.657-1.186-.933-1.671-.193-.338-.376-.741-.877-.447-.45.264-.113.6-.014.872.228.625.507,1.232.765,1.846a.709.709,0,0,1-.631-.214c-.489-.57-.446-1.78-1.2-1.794-.7-.014-1.41.719-2.116,1.124a11.357,11.357,0,0,1-1.125.635c-.269.116-.423.272-.335.53a40.641,40.641,0,0,0,1.272,4.434c2.7-2.313,5.295-4.568,7.925-6.784,1.332-1.122,2.915-2.073,2.186-4.244.884.018.381,1.116,1.112,1.345l6.429-5.589a28.934,28.934,0,0,0-5.426,2.8C192.527,15.147,191.413,15.1,191.162,16.185ZM170.823,27.668c-.2.413-.657.362-.994.5-.99.4-1.447.85-.731,1.959a18.581,18.581,0,0,1,1.238,2.792c-1.2-.63-1.49-1.813-2.027-2.839-.144-.275-.058-.832-.695-.6-.548.2-.957.44-.76,1.132q.886,3.117,1.756,6.239c.132.476.311.729.777.306,2.724-2.475,5.693-4.673,8.263-7.323a12.844,12.844,0,0,0,2.176-1.656,1.1,1.1,0,0,0,.392-1.39q-.6-1.919-1.2-3.835c-2.475.966-2.439.96-1.968,3.517a13.118,13.118,0,0,1,.632,3.393c-1.13-1.191-1.18-2.766-1.478-4.242-.154-.766-.339-1-1.1-.507-1.4.9-2.86,1.708-4.3,2.554Zm17.257,24.2c.872-1.246,1.944-2.448,1.506-4.138-.628-2.418-1.334-4.816-2.006-7.222-.182-.651-.741-1.8-.229-1.865.772-.1.672,1.1.862,1.77.656,2.327,1.289,4.662,1.965,7.115a2.82,2.82,0,0,0,.4-.443q2.9-5.961,5.782-11.93a1.008,1.008,0,0,0,.043-.918c-.682-1.789-1.248-3.622-1.858-5.439-.084-.25-.387-.565.07-.7.357-.1.463.272.547.528.568,1.739,1.119,3.483,1.723,5.371.569-1.164,1.039-2.225,1.6-3.238a2.3,2.3,0,0,0,.1-2.4,18.429,18.429,0,0,1-1.374-4.839c-.056-.323-.42-.857.218-.93.459-.052.332.494.415.794.478,1.733.95,3.469,1.509,5.514,3.821-7.849,7.485-15.377,11.283-23.178a5.362,5.362,0,0,0-.647.341q-17.448,14.752-34.6,29.838a1.78,1.78,0,0,0-.555,1.939c.3,1.522.561,3.05.839,4.575l-.409.088a40.6,40.6,0,0,1-1.273-5.283c-.658.528-1.2,1-1.78,1.417a1.418,1.418,0,0,0-.573,2.016,6.452,6.452,0,0,1,.849,3.223,17.552,17.552,0,0,1-1.725-3.958c-1.971,1.709-3.825,3.351-5.723,4.94a1.542,1.542,0,0,0-.45,1.715c.7,3.046,1.447,6.082,2.164,9.125.634,2.691,1.252,5.385,1.918,8.253a1.73,1.73,0,0,1-.9-1.417c-1.257-5.042-2.567-10.072-3.711-15.14-.314-1.39-.577-1.185-1.433-.447Q149.416,58.344,136.14,69.658a1.678,1.678,0,0,0-.58,2.379,7.974,7.974,0,0,1,1.123,3.847c-.652-1.127-1.113-2.33-1.686-3.477-.174-.347-.107-1.208-.816-.917-.525.216-1.18.573-1.218,1.32a4.6,4.6,0,0,0,.111,1.3c.434,1.775.885,3.546,1.368,5.308.353,1.288.765,2.559,1.151,3.838a3.2,3.2,0,0,1-1.093-1.5,40.309,40.309,0,0,1-2.035-7.5c-.214-1.166-.622-.867-1.192-.376-3.024,2.6-6.032,5.219-9.065,7.808a1.011,1.011,0,0,0-.416,1.339,103.7,103.7,0,0,1,3.225,11.209,3.5,3.5,0,0,1,.089,2.7c-1.349-4.887-2.433-9.549-4.176-14.118-.923.785-1.653,1.513-2.489,2.087-.921.632-1.209,1.217-.595,2.293a17.712,17.712,0,0,1,1.188,3.121q10.252,30.232,20.495,60.469c.159.469.339.931.62,1.7a19.258,19.258,0,0,0,1.717-4.184c.125-.821-.7-1.774-1.065-2.683-2.352-5.926-3.57-12.165-5.093-18.322-.53-2.143-1.314-4.223-1.958-6.338-.1-.345-.282-.818.192-1.013.379-.155.444.24.523.516,1.326,4.571,2.711,9.12,3.645,13.8.9,4.522,2.6,8.819,4.15,13.371.5-1.014.858-1.848,1.305-2.633a3.246,3.246,0,0,0,.175-2.988c-.729-1.98-1.2-4.056-1.774-6.093-.086-.3-.255-.655.306-.8l2.4,7.144c1.141-1.548,1.578-2.926.892-4.619a33.673,33.673,0,0,1-1.084-3.909c1.279,1.259,1.292,3.023,2.133,4.6,1.777-2.376-.776-4.434-.211-6.7.949,1.144.787,2.657,1.488,3.806.4-.063.393-.416.512-.663q18.281-37.908,36.535-75.827a43.86,43.86,0,0,0,3.167-7.1ZM148.034,37.781c-4.152-2.506-8.882-3.791-13.415-5.946a1.776,1.776,0,0,1,1.476.006A100,100,0,0,1,147.956,36.8c.488.264,1.019.63,1.632.27,2.494-1.465,4.987-2.933,7.542-4.436l-13.2-5.35a.906.906,0,0,1,1.121-.137c3.5,1.375,7.014,2.692,10.493,4.109a4.474,4.474,0,0,0,4.662-.329c3.028-2.006,6.272-3.688,9.554-5.579a74.028,74.028,0,0,0-10.281-3.909A1.508,1.508,0,0,1,161,21.292a42.638,42.638,0,0,1,7.969,2.977,2.941,2.941,0,0,0,3.163-.264c.667-.407.68-.651-.027-1.067a72.857,72.857,0,0,0-8.16-4.088c-.38-.164-1.037.152-1.145-.576a2.312,2.312,0,0,1,1.693.173,63.6,63.6,0,0,1,8.468,4.051c.39.216.762.535,1.2.287,1.353-.764,2.681-1.571,4.125-2.424l-4.249-2.473a4.927,4.927,0,0,1,3.105.978c2.122,1.2,2.581,1.148,4.441-.61l-4.071-2.477a.819.819,0,0,1,1.049-.055c.972.528,1.978,1,2.921,1.576a1.629,1.629,0,0,0,2.051.016c1.54-1.03,3.2-1.878,4.917-2.862-1.874-.735-3.637-1.384-5.361-2.121a3.8,3.8,0,0,0-2.655-.186q-22.539,6.2-45.092,12.362Q99.226,34.439,63.115,44.4c-7.093,1.955-14.182,3.922-21.358,5.907,3.92,1.574,8.217,1.193,12,2.926-3.071-.58-6.177-.881-9.242-1.447-1.6-.3-3.147-1.339-4.774-.934-4.775,1.189-9.5,2.561-14.251,3.862l-.024.395c13.9.952,27.773,2.049,41.387,5.17a48.751,48.751,0,0,1-9.115-.921,120.413,120.413,0,0,0-17.683-2.185c-3.922-.181-7.826-.714-11.745-1-2.7-.2-5.4-1.018-8.138-.052-1.644.58-3.364.944-5.047,1.411-1.159.322-2.315.653-3.76,1.062a5.326,5.326,0,0,0,1.138.387c2.712.074,5.407.351,8.108.587,3.9.342,7.818.571,11.723.907,5.059.437,10.111.953,15.169,1.4,3.811.333,7.631.559,11.439.911,5.682.525,11.354,1.158,17.037,1.67,4.97.448,9.96.7,14.919,1.235,1.633.177,3.278.185,4.916.438,1.929.3,4.016.539,5.537-1.429-8.838-1.986-17.525-4.617-26.724-5.488a1.3,1.3,0,0,1,1.362-.464c1.816.256,3.635.49,5.444.788,6.842,1.129,13.528,2.978,20.3,4.43a1.7,1.7,0,0,0,1.364-.076c1.946-1.125,3.916-2.209,6.087-3.426-4.151-1.4-8.134-2.453-12.186-3.491.328-.477.607-.353.893-.307a106.16,106.16,0,0,1,11.17,2.9c.473.13.921.358,1.391.088,1.155-.66,2.3-1.341,3.61-2.111a17.208,17.208,0,0,1-5.83-2.308c1.416.256,2.743.776,4.112,1.14,1.128.3,2.268.858,3.48.143,3.246-1.914,6.512-3.794,9.959-5.8l-17.4-5.132c.268-.557.575-.454.838-.379,5.456,1.541,10.921,3.057,16.355,4.674a2.372,2.372,0,0,0,2.043-.17q6.054-3.476,12.1-6.96c1.5-.867,2.986-1.768,4.625-2.74-4.958-2.376-9.968-4.037-14.992-5.995.538-.463.945-.221,1.394-.076a93.47,93.47,0,0,1,11.769,4.381C144.614,39.315,146.305,39.608,148.034,37.781ZM97.775,70.1c-1.123.659-2.11,1.245-3.1,1.821-7.345,4.267-14.653,8.6-22.018,12.832-6.229,3.582-12.4,7.263-18.731,10.667-.762.41-.84.712-.69,1.5,1.447,7.582,2.489,15.23,3.584,22.868.952,6.633,1.913,13.264,2.833,19.9.759,5.481,1.45,10.972,2.2,16.455.38,2.788.818,5.567,1.229,8.351A25.757,25.757,0,0,0,64.521,161a10.742,10.742,0,0,0,.328-6.114c-.185-1.1-.2-2.221-.4-3.314-.547-3.036-.1-6.119-.494-9.167-.313-2.4.1-4.842-.049-7.275,1.02,7.009.439,14.165,1.891,21.158.3-.168.34-.4.442-.623,1.9-4.1,1.2-8.384.725-12.592-.426-3.807-.964-7.6-1.045-11.434-.061-2.921-.274-5.822-.558-8.726-.2-2.077-.323-4.162-.48-6.243l.521-.049c1.3,10.677,1.2,21.5,3,32.364.492-1.47.935-2.736,1.339-4.014.735-2.328,1.783-4.485,1.2-7.175-1.095-5.037-.708-10.249-1.245-15.365a1.915,1.915,0,0,1,.386-1.694c.831,6.049.676,11.94,1.773,17.972.518-1.431,1.257-2.564,1.183-3.8-.259-4.3-.7-8.594-1-12.895-.055-.8-.611-1.542-.21-2.392,1.448,4.435,1.438,9.073,1.781,14.049,1.048-3.23,2.3-5.893,1.714-9.159-.69-3.854-.66-7.833-1.043-11.747-.493-5.039-1.085-10.069-1.635-15.1l.468-.066c1.653,8.939,2.415,18.006,3.485,27.056.53-1.848,1.739-3.5,1.536-5.513-.223-2.217-.543-4.424-.771-6.64-.213-2.057-.361-4.12-.538-6.181l.492-.059,1.449,11.914c.6-.949.309-2.02,1.023-2.589a2.359,2.359,0,0,0,.641-2.652,94,94,0,0,1-2.208-12.085c-.142-1.628-.617-3.253-.15-4.937,1.056,5.929,1.927,11.887,3.484,17.664,2.053-.76,1.449-2.322,1.118-3.75-.365-1.571-.83-3.118-1.252-4.675,1.63,1.854,1.7,4.249,2.437,6.541a22.214,22.214,0,0,1,2.142-1.978,2.1,2.1,0,0,0,.886-2.264c-.164-1.1-.357-2.191-.5-3.292-.193-1.462-.351-2.928-.525-4.393,1.318,2.567,1.216,5.434,2.031,8.346.633-.989,1.98-1.107,1.878-2.309-.143-1.684-.464-3.353-.693-5.03-.474-3.471-1.99-6.632-2.935-9.962a17.755,17.755,0,0,1-.944-6.1c1.274,7.086,5.255,13.448,5.158,21.132,1.06-.92,1.749-1.617,2.537-2.173a1.66,1.66,0,0,0,.692-1.905c-1.41-5.972-2.412-12.026-3.651-18.032-.25-1.213-.5-2.426-.816-3.965a3.148,3.148,0,0,1,1.167,2.04c1.589,6.411,2.94,12.876,4.2,19.359.059.306.057.907.489.589.5-.37,1.448-.5,1.027-1.7a31.713,31.713,0,0,1-.919-4.56l.364-.085a13.293,13.293,0,0,1,1.169,4.833,1.873,1.873,0,0,0,1.249-2.812c-.193-.492-.306-1.014-.469-1.517-1.327-4.1-1.6-8.424-2.626-12.591a7.052,7.052,0,0,1-.484-3.2,5.553,5.553,0,0,1,1.056,2.356c1.535,4.788,1.5,9.921,3.219,14.67.147.406-.047,1.159.632,1.026.509-.1.848-.527.615-1.329-.512-1.76-.8-3.586-1.173-5.385l.355-.1a36.146,36.146,0,0,1,1.763,5.541c.911-.784,1.681-1.525,2.533-2.154.595-.44.566-.877.4-1.509C101.716,85.588,99.771,77.925,97.775,70.1Zm19.638,21.587c-3.649,2.946-7.183,6.032-11.141,8.777-.116-.715.267-.794.519-1,2.859-2.325,5.588-4.836,8.608-6.928,1.906-1.32,1.831-2.62,1.025-4.338a3.388,3.388,0,0,1-.1-.426c-.2-.654-.491-.706-1.014-.239-1.378,1.229-2.8,2.416-4.2,3.617-9.3,7.966-18.309,16.281-27.909,23.9-.774.615-.986,1.033.086,1.663,6.079,3.573,11.834,7.651,17.7,11.546,9.073,6.019,17.975,12.3,26.975,18.427,3.393,2.311,6.856,4.518,10.668,7.023l-6.031-17.669c-1.161,1.051-2.126,1.931-3.1,2.8-.161.144-.319.431-.6.176s-.012-.431.14-.584c.617-.621,1.232-1.247,1.879-1.837,1.66-1.518,1.683-1.647.425-3.592-1.225.933-2.242,2.178-3.833,2.586.914-.984,1.941-1.827,2.932-2.709.4-.356.942-.613.657-1.409-.986-2.762-1.889-5.554-2.874-8.485l-9.3,8.506c-.143-.935.384-1.15.692-1.442,2.5-2.379,5.012-4.75,7.557-7.082a1.327,1.327,0,0,0,.455-1.762c-.335-.725-.536-1.513-.834-2.384-3.619,2.759-6.434,6.187-9.659,9.4-.057-.354-.118-.484-.079-.53a58.074,58.074,0,0,1,8.619-8.868,1.365,1.365,0,0,0,.57-1.809c-1.019-2.826-2.048-5.65-3.011-8.5-.273-.809-.459-.851-1.144-.334-1.1.831-1.98,1.982-3.37,2.457a7.944,7.944,0,0,1,2.282-2.4c1.612-.913,1.5-1.986.944-3.474-1.149-3.075-2.134-6.211-3.237-9.473-1.279,1.4-2.375,2.75-4.032,3.427a25.184,25.184,0,0,1,2.088-2.144C118.641,94.69,118.692,94.194,117.413,91.687ZM4.536,60.212c.2.635.667.767,1.005,1C15.177,67.9,24.665,74.786,34.152,81.676Q42.3,87.6,50.462,93.5c.578.42,1.068.691,1.8.2,6.527-4.324,13.4-8.07,20.152-12.016,6.089-3.56,12.252-6.994,18.326-10.578,1.266-.748,2.758-1.22,3.818-2.431-3.245-.343-6.366-.672-9.487-1a4.631,4.631,0,0,0-3.794,1.018A18.118,18.118,0,0,1,79.034,70.3Q67.606,77.625,56.162,84.93a5.1,5.1,0,0,1-2.3,1.228c8.818-6.749,18.662-11.984,27.848-18.646-2.276-.259-4.23-.482-6.185-.7a1.96,1.96,0,0,0-1.384.326C70.6,69.583,66.715,71.5,63.28,74.12c-.244.186-.519.464-.952.08,3.254-2.923,7.247-4.738,10.88-7.352a3.589,3.589,0,0,0-.846-.309c-3.146-.116-6.272-.45-9.393-.844a1.249,1.249,0,0,0-.915.347c-1.71,1.185-3.4,2.4-5.153,3.521a33.887,33.887,0,0,1-4.426,2.709l-.224-.333,9.028-6.107a3.089,3.089,0,0,0-2.973.344c-2.655,1.583-5.377,3.055-8.078,4.56-.21.116-.446.434-.809-.059,2.657-2,5.727-3.31,8.783-5.285-2.362-.221-4.4-.417-6.448-.6a2.062,2.062,0,0,0-1.482.406c-2.392,1.727-4.875,3.328-7.165,5.2a.715.715,0,0,1-.98.127c2.346-2.167,5.016-3.864,7.645-5.927-3.729-.335-7.2-.556-10.649-1-1.506-.194-2.7-.05-3.689,1.156-.142.173-.438.6-.827.208.241-.646,1.093-.812,1.227-1.554-1.25-.237-2.571-.828-3.678-.06-1.354.939-2.782,1.744-4.19,2.575-2.313,1.365-4.515,2.888-6.737,4.4,2.777-3.268,6.674-5,10.417-7.48-2.05-.141-3.783-.168-5.489-.4-2.615-.356-5.229-.974-7.47,1.108-.014.012-.125-.079-.2-.129.116-.77,1.041-.8,1.435-1.61Zm146.477-8.033a72.55,72.55,0,0,0-2.988-10.037c-.277-.7-.474-1.082-1.318-.568-2.95,1.8-5.934,3.546-8.925,5.278-.6.349-.794.625-.464,1.338.788,1.7,1.455,3.46,2.173,5.2.1.241.4.484-.124.761a28.232,28.232,0,0,1-2.565-5.258c-.18-.4-.012-1.387-.957-.849-.645.368-1.84.419-1.158,1.8.691,1.395,1.2,2.881,1.825,4.425-.853-.113-.912-.741-1.12-1.167a33.092,33.092,0,0,1-1.359-3.186c-.224-.612-.49-.632-.986-.336-3.209,1.923-6.391,3.9-9.665,5.705-.928.512-.753.927-.493,1.634.98,2.668,1.92,5.351,2.889,8.023.155.427.44.83-.125,1.31-1.167-3.1-2.316-6.134-3.447-9.176-.114-.3-.1-.778-.514-.713a1.742,1.742,0,0,0-1.1.6c-.148.221.074.717.18,1.077a24.689,24.689,0,0,1,1.288,5.358c-1.023-1.491-1.259-3.274-1.891-4.9-.153-.395-.027-1.007-.734-.874-.862.162-.674.731-.478,1.325.782,2.376,1.586,4.747,2.276,7.15.142.495.69,1.053.182,1.673-.451-.251-.513-.719-.647-1.109-.812-2.362-1.645-4.719-2.356-7.112-.3-1.018-.688-1.053-1.494-.565-1.84,1.114-3.694,2.205-5.581,3.236-.549.3-.48.512-.273.986a12.147,12.147,0,0,1,1.371,3.437c-.92-.657-.985-1.572-1.5-2.152-.408-.456-.164-1.793-1.4-1.21s-.091,1.3,0,1.951c.092.7.832,1.256.54,2.066-.367.012-.374-.2-.455-.371-1.421-3.007-1.42-3-4.256-1.271a1.051,1.051,0,0,0-.563,1.41,4.827,4.827,0,0,1,.435,2.954,17.432,17.432,0,0,1-1.125-2.93c-.079-.163.065-.633-.317-.426-1.3.7-2.579,1.465-3.846,2.234-.269.163-.029.446.024.658,1.858,7.376,3.739,14.747,5.57,22.131.225.906.479.749,1.008.285q7.956-6.971,15.928-13.924,15.338-13.39,30.682-26.775c4.768-4.158,9.556-8.294,14.316-12.461.352-.307.977-.49.732-1.251-.677-2.1-1.34-4.205-1.909-6.334-.224-.838-.587-.711-1.107-.407-2.358,1.377-4.7,2.783-7.079,4.124-.544.307-.561.522-.4,1.1.285,1.007.972,1.92.878,3.307a11.349,11.349,0,0,1-1.5-3.032c-.076-.165-.092-.637-.572-.384-.269.142-.568.21-.512.585.051.332.174.652.229.983.2,1.231.886,2.356.929,3.937a10.088,10.088,0,0,1-1.637-3.8c-.286-.871-.6-.835-1.218-.462-1.107.668-2.208,1.348-3.341,1.971-.329.182-.317.238-.195.589.778,2.224,1.489,4.472,2.229,6.709.086.263.271.52-.222.8-1.213-2.426-1.7-5.082-2.68-7.556-1.855,1.023-1.81,1.008-1.149,3.026.733,2.238,1.443,4.489,2.008,6.772A3.015,3.015,0,0,1,151.013,52.179ZM92.17,134.934l.293.124c1.622-1.727,3.237-3.462,4.871-5.178.484-.508.456-.8-.159-1.225-5.075-3.508-10.345-6.722-15.386-10.435-5.046,14.662-9.771,29.329-14.848,43.9,1.978-2.317,4.79-3.913,5.7-7.049.828-2.857,1.994-5.608,2.671-8.514.056-.24.145-.551.631-.507-.427,3.211-1.813,6.129-2.711,9.532,1.241-1.355,2.625-2.213,3.161-3.629A86.487,86.487,0,0,0,80.5,137.24a52.99,52.99,0,0,1,2.358-8.55c-1.6,7.2-2.722,14.507-5.148,21.819a15.517,15.517,0,0,0,6.372-10.485c.558,1.575-.352,2.914-.536,4.333,2.744-1.71,3.612-4.44,4.279-7.305.469-2.013,1.024-4,1.541-6.006l.442.1c-.421,2.878-1.371,5.659-2.055,8.8,2.215-2.015,3.987-3.76,3.988-6.769a14.584,14.584,0,0,1,.9-5.2l.388.051ZM182.726,11.51c2.282.81,4.224,1.511,6.175,2.181a1.268,1.268,0,0,0,1.1-.152c3.911-2.321,7.837-4.616,11.759-6.918l-.11-.288ZM170.989,54.819c-.456-2.9-1.326-5.718-1.512-8.659-.016-.247-.038-.526-.348-.529a.466.466,0,0,0-.456.476,3.7,3.7,0,0,0,.075.858c.549,2.874,1.033,5.763,1.691,8.612.334,1.445.407,3.007,1.551,4.231C171.652,58.146,171.253,56.493,170.989,54.819Zm2.386-.637L172.269,48.3l-.427.086a13.876,13.876,0,0,0,1.119,5.9ZM138.749,71.464a13.643,13.643,0,0,0,2.076,5.586C140.175,75.184,140.021,73.123,138.749,71.464Zm49.333-19.6c.024-2.28-1.44-3.98-2.318-5.908a15.459,15.459,0,0,0,2.34,5.887Zm1.972-14.1a13.14,13.14,0,0,0,1.937,5.2C191.574,41.147,191.276,39.279,190.054,37.766Zm-46.165,39.06a17.3,17.3,0,0,0-2.173-5.359A12.867,12.867,0,0,0,143.889,76.826Zm-17.033,24.855c-.107-.227-.341-.185-.51-.136-.314.091-.087.3-.033.429.618,1.475,1.248,2.944,1.875,4.414C128.438,104.6,127.555,103.166,126.856,101.681Zm17.125-34.022a4.956,4.956,0,0,0,1.1,3.651A7.357,7.357,0,0,0,143.981,67.659ZM191.763,30a6.419,6.419,0,0,0,.862,3.833A5.862,5.862,0,0,0,191.763,30ZM175.422,51.332q-.415-1.854-.829-3.708A3.3,3.3,0,0,0,175.422,51.332Zm-33.628,80.24a5.791,5.791,0,0,0-1.107-3.693A6.4,6.4,0,0,0,141.794,131.572Zm34.85-96.16a4.729,4.729,0,0,0,.964,3.344A5.192,5.192,0,0,0,176.644,35.412Zm23.7-10.369c-.238-.849-.466-1.7-.723-2.546-.046-.152-.114-.4-.391-.312a.348.348,0,0,0-.24.455,7.762,7.762,0,0,0,.991,2.544ZM84.224,48.739,75.265,45.4l-.209.554a91.9,91.9,0,0,0,9,3.208Zm45.383-1.485c-2.994-.873-5.941-1.96-9.114-1.9C123.55,45.929,126.45,47.252,129.607,47.254ZM161.027,29.1l-7.383-2.3-.127.407a33.527,33.527,0,0,0,7.369,2.351ZM69.6,57.026c-2.262-.654-4.308-1.576-6.581-1.493C64.8,56.51,68.8,57.416,69.6,57.026ZM85.1,46.423,79.07,44.54l-.115.35c1.8,1.282,3.964,1.431,6.013,1.946Zm29.235-2.813c1.392-.179,2.318.72,3.581.542C116.572,42.98,115.75,42.823,114.338,43.61Zm16.6-13.018a6.269,6.269,0,0,0-3.452-.966C128.478,30.023,129.339,30.9,130.936,30.592ZM61.718,120.183a86.049,86.049,0,0,0,.775,8.894C63.135,127.878,62.527,121.337,61.718,120.183Zm2.653-11.5a17.969,17.969,0,0,0-1.032-6.036A14.963,14.963,0,0,0,64.371,108.685ZM81.043,96.3c.021-1.574-.057-2.743-.968-3.708C80.352,93.716,80.02,95,81.043,96.3Zm12.675-5.538a4.75,4.75,0,0,0-.832-3.7A7.753,7.753,0,0,0,93.718,90.762Zm-1.71,22.243,9.454-7.477C99.623,105.835,92.32,111.774,92.008,113.005Zm30.161,21.023c-1.444.877-2.213,2.338-3.09,3.69A9.056,9.056,0,0,0,122.169,134.028ZM123.474,110l-3.576,3.735A51.626,51.626,0,0,0,123.474,110Zm-10.73,10.322a5.309,5.309,0,0,0-4.321,2.256C109.717,121.672,111.31,121.371,112.744,120.32ZM25.722,72.946A17.169,17.169,0,0,0,29.5,70.44c.081-.065-.011-.344-.023-.523-.126.01-.286-.026-.373.038-1.205.881-2.4,1.776-3.6,2.667Zm19.892,5.125L49.73,75.6l-.251-.429a18.827,18.827,0,0,0-4.106,2.5Zm-9.735-3.459a9.9,9.9,0,0,0-2.842,2.406A3.822,3.822,0,0,0,35.879,74.612Zm21.535,2.6c1.108-.392,2.292-.639,3.069-1.663A5.54,5.54,0,0,0,57.414,77.212Zm73.022-15.731-1.8-4.213A4.425,4.425,0,0,0,130.436,61.481ZM106.905,74.867c-.054-.167-.136-.515-.471-.317a.393.393,0,0,0-.2.488c.4,1.143.618,2.372,1.7,3.187C107.591,77.1,107.265,75.98,106.905,74.867ZM85.449,127.832c.2,2.086-.3,3.748-.324,5.555C86.1,132.329,86.362,129.389,85.449,127.832ZM77.6,140.511a5.06,5.06,0,0,0,.533-3.295A5.078,5.078,0,0,0,77.6,140.511ZM170.822,27.668c-.538,1.485.38,2.462,1.138,3.5a8.587,8.587,0,0,0-1.155-3.494Z" fill="#151611"/>
</svg>
