<svg xmlns="http://www.w3.org/2000/svg" viewBox="0 0 495.315 212.492">
  <path d="M396.006,62.935c1.9.406,3.792.82,5.691,1.216q26.859,5.6,53.719,11.2c2.416.506,4.8,1.152,7.2,1.737a5.355,5.355,0,0,0,.514.163c2.258.287,2.352.489,2.541,2.841.387,4.8.192,9.6.264,14.4.008.546-.023,1.012.553,1.394,5.532,3.671,9.726,8.7,13.746,13.893,1.134,1.465,2.166,3.011,3.321,4.457,3.156,3.953,4.087,8.616,4.18,13.5.166,8.7.235,17.4.309,26.1a38.413,38.413,0,0,1-.274,4.048c-.053.545.092.715.628.7.808-.028,1.624.078,2.427.009a3.456,3.456,0,0,1,3.685,3.205,116.2,116.2,0,0,1,.673,18.3c-.039.678-.052,1.358-.068,2.038-.039,1.615-.7,2.314-2.323,2.307-9.985-.044-19.966.424-29.952.247a8.729,8.729,0,0,0-.943.029,1.521,1.521,0,0,1-1.863-1.757c.14-2.215.246-4.429.263-6.649a41.231,41.231,0,0,0-.753-8.768,14.417,14.417,0,0,1-.352-4.182,14.967,14.967,0,0,0-1.868-8.168c-4.316-8.746-10.461-15.826-19.24-20.081-13.269-6.431-26.218-5.175-38.106,3.405-10.817,7.807-16.312,18.973-18.032,32.135a53.915,53.915,0,0,0-.272,10.58,8.519,8.519,0,0,1-.028,1.355,2.449,2.449,0,0,1-2.155,2.38c-8.59,0-17.179.016-25.769,0-4.9-.008-9.794.2-14.687.337-7.136.2-14.268.536-21.41.466-1.383-.013-2.767-.157-4.148-.272a2.347,2.347,0,0,1-1.768-1.337,43.919,43.919,0,0,0-5.013-6.209,1.646,1.646,0,0,0-1.388-.611c-4.949.019-9.9-.134-14.844.053-6.015.227-12.034.24-18.043.532-5.338.26-10.684.25-16.016.546-5.284.294-10.569.56-15.854.826-3.808.193-7.614.381-11.424.544-5.245.223-10.487.579-15.738.477-4.029-.079-8.06-.277-12.08-.563a3.237,3.237,0,0,1-3.176-2.314,47.255,47.255,0,0,0-2.718-5.279c-2.5-4.889-4.164-10.122-6.264-15.174-2.413-5.8-5.808-11.094-8.583-16.707a25.609,25.609,0,0,0-5.444-7.5,7.407,7.407,0,0,0-4.26-1.945c-4.744-.692-9.51-.181-14.265-.2-4-.012-8,.017-11.986.209-5.381.26-10.754.693-16.13,1.052-1.775.118-3.052,1.223-4.327,2.283-3.365,2.8-5.5,6.5-7.248,10.427-2.772,6.215-5.375,12.5-8.144,18.721-2.6,5.837-4.962,11.782-7.787,17.52a15.257,15.257,0,0,0-1.722,3.591c-.164.778-1.271.809-2.079.824a47.977,47.977,0,0,1-9.22-1.089c-8.051-1.421-16.137-2.647-24.18-4.112-6.9-1.257-13.833-2.241-20.77-3.238-4.428-.636-5.1-.967-4.969-5.6.114-4.068.033-8.141.038-12.212,0-.317.009-.635-.009-.951-.036-.609-.3-1.114-.954-1.077-.758.043-.405.721-.367,1.063.593,5.271.3,10.588.829,15.861.1.969-.592,1.608-1.685,1.581-10.969-.275-21.945.126-32.913-.329-.044,0-.089,0-.134,0C.011,175.126.007,175.126,0,172.121Q0,165.186,0,158.25c0-2,.664-2.643,2.676-2.661a10.219,10.219,0,0,1,1.079,0c.637.062.88-.171.834-.839-.414-5.961-.449-11.941-.972-17.9a135.675,135.675,0,0,1-.359-14.806c.257-11.914.489-23.828.833-35.739.278-9.644.764-19.28,1.624-28.891.789-8.8,2.434-17.423,5.962-25.579a40.005,40.005,0,0,1,6.661-10.113,29.05,29.05,0,0,1,10.247-7.261,11.564,11.564,0,0,0,1.793-.929c2.85-2,6.036-2.478,9.435-2.486,5.437-.013,10.873-.281,16.31-.388,4-.079,8.007-.078,12.01-.1.97-.006,1.613-.023,1.616-1.441,0-1.838.726-3.63.848-5.509.046-.712.629-1.673,1.646-1.436,1.973.461,3.94.125,5.9.09Q91.7,2.023,105.25,1.612c7.28-.232,14.564-.333,21.843-.554,6.741-.206,13.478-.52,20.222-.515,1.062,0,2.07-.578,3.177-.145.57.223.843.377.836,1.082-.022,2.3.1,4.6.093,6.9,0,.771.314.884.961.876,3.283-.042,6.621.32,9.834-.167,3.858-.584,7.679-.153,11.51-.356.889-.047,1.307-.178,1.218-1.182a15.407,15.407,0,0,1,.258-4.04c.192-1.084.534-1.665,1.911-1.662a78.212,78.212,0,0,0,9.241-.546c2.773-.326,5.552-.247,8.324-.414,3.99-.239,8.019.158,12-.119C219.249-.1,231.829-.068,244.405.082c4.805.058,9.614.136,14.421.207,1.612.024,2.058.62,1.743,2.2-.312,1.564.383,3.019.52,4.537.052.583.669.316,1.015.312,3.013-.034,6.025-.129,9.038-.161,14.526-.155,29.052-.262,43.577-.455,8-.106,16.006-.1,24-.179,2.555-.026,5.174-.329,7.745-.226a109.391,109.391,0,0,1,15.2,1.195c5.558,1.006,9.247,4.233,11.9,9.025,1.883,3.4,2.867,7.124,3.952,10.8.406,1.376,1.027,1.475,2.289,1.424a108.868,108.868,0,0,1,13.865-.129c3.323.287,5.163,3.068,5.532,5.851.661,4.982,1.116,9.991,1.672,14.987a36.68,36.68,0,0,1,.277,7.589,11.645,11.645,0,0,1-.573,2.615c-.763,2.269-1.527,2.819-3.946,2.908-.2.008-.4.053-.607.081Zm-21.33-33.906c-.478-1.621-.9-3.135-1.371-4.636-1.132-3.64-2.458-7.183-5.11-10.038A20.28,20.28,0,0,0,361.4,9.792c-2.123-.945-4.51-.715-6.741-.74-5.921-.067-11.844-.3-17.769-.109-6.651.215-13.305.369-19.958.5-10.208.2-20.416.406-30.624.537-17.047.219-34.094.366-51.141.574-13.493.165-26.985.5-40.477.529-11.037.023-22.073.816-33.113.077a53.174,53.174,0,0,0-5.38.206q-14.55.5-29.107.836c-9.171.227-18.346.314-27.514.623-4.542.153-9.083.17-13.624.276-14.883.348-29.765.762-44.65.974a25.011,25.011,0,0,0-11.266,2.517c-2.843,1.446-5.813,2.725-8.126,5a37.613,37.613,0,0,0-9.257,15.041A93.56,93.56,0,0,0,8.423,59.379c-.8,9.931-1.458,19.88-1.869,29.834-.472,11.407-.608,22.828-.887,34.242-.127,5.215.183,10.417.383,15.625a113.068,113.068,0,0,1-.081,14.668c-.17,1.846-.137,1.894,1.688,1.84,6.517-.195,13.032-.43,19.549-.627.83-.025,1.2-.154,1.172-1.194-.293-12.051-.31-24.1-.12-36.156.208-13.139.2-26.279.543-39.418.335-12.685.414-25.377.66-38.065.081-4.213.333-8.423.229-12.639-.02-.826.26-1.038,1.055-1.14a31.153,31.153,0,0,1,4.023-.225c64.956.149,129.913-.325,194.869.234,6.646.058,13.3-.046,19.945-.16,18.1-.31,36.215.284,54.308-.849,4.886-.306,9.791,0,14.693-.243,6.011-.3,12.041-.123,18.064-.27a194.473,194.473,0,0,1,19.674.18c1.99.153,2.087.114,2.154,2.068.426,12.272.663,24.548.832,36.827.058,4.167.194,8.333.22,12.5,0,.879.261.9,1.02.874,2.247-.086,4.5-.031,6.748-.031h2.73v.44c-3.456.234-6.919.336-10.5.29.364.666-.677,1.949.805,1.966a107.327,107.327,0,0,0,13.456-.215c.21-.024.319.11.305.375a8.415,8.415,0,0,1-1.773.419c-3.86.327-7.727.291-11.592.238-.977-.014-1.2.3-1.167,1.229.129,3.848.2,7.7.265,11.549.038,2.206.017,2.2,2.192,2.207a129.349,129.349,0,0,1,13.638.381,2.792,2.792,0,0,1-1.9.427c-4.273-.008-8.546.009-12.818-.053-.914-.014-1.129.273-1.112,1.141.139,6.841.212,13.683.353,20.524q.477,23.1,1.023,46.2c.031,1.256-.327,1.589-1.551,1.586-9.759-.017-19.517-.023-29.277.125-12.684.194-25.373.053-38.059.111-1.182,0-1.54-.579-1.563-1.51q-.177-7.152-.271-14.305c-.115-7.971-.185-15.942-.338-23.912-.019-.98.757-2.381-.427-2.878-.942-.4-2.207-.014-3.328.028-.088,0-.173.059-.261.065-1.493.109-2.986.214-4.644.331a.858.858,0,0,1,.708-.513c2.421-.484,4.887-.543,7.333-.785.637-.064.7-.329.708-.849.008-.607-.292-.618-.764-.584-1.967.143-3.938.235-5.9.377-1.386.1-2.769.238-4.151.381-2.851.3-5.7.784-8.552.866-4.956.144-9.918.04-15.122.04a6.749,6.749,0,0,1,3.816-.752c5.922-.144,11.84,0,17.748-.817,3.989-.554,8.047-.614,12.076-.861.631-.038.852-.245.849-.886q-.038-8.228-.017-16.456c0-.849-.307-.95-1.054-.823-1.3.221-2.622.321-3.934.472,1.209-.975,2.633-.883,3.963-1.026,1-.107.991-.521,1.041-1.265.064-.951-.423-1-1.14-.982-1.394.036-2.791.059-4.183-.011-.574-.029-1.136.544-1.71.13.01-.368.225-.332.383-.379a16.275,16.275,0,0,1,5.358-.232c1.313.044,1.291-.591,1.3-1.544s-.011-1.5-1.3-1.535c-4.958-.155-9.855.527-14.781.813-6.51.377-13.034.351-19.557.289-4.353-.042-8.709-.607-13.062.018a.508.508,0,0,1-.694-.394,16.609,16.609,0,0,1,2.762-.412c15.241.44,30.45-.486,45.667-1.07.656-.025.965-.123.954-.883q-.06-4.148,0-8.3c.01-.729-.248-.894-.933-.918-3.18-.108-6.334-.67-9.529-.559-.258.009-.566,0-.5-.476a46.128,46.128,0,0,1,9.52.356c1.494.147,1.449-.33,1.45-1.419q.03-21.007.116-42.017c.012-3.623.052-7.247.043-10.871,0-.547.275-1.378-.813-1.319-2.068.112-4.109-.29-6.181-.279-35.713.189-71.427-.021-107.141.209-46.789.3-93.581.075-140.372.073a9.925,9.925,0,0,1-2.141-.173c-.491-.106-1.453-.526-1.309.624.1.823-.84,2.279,1.072,2.278,3.059,0,6.119-.015,9.178.021.392,0,.837-.452,1.229.072a2.63,2.63,0,0,1-1.878.456c-2.879-.005-5.759.033-8.638-.023-.868-.017-1.058.29-1.04,1.09.016.735.052,1.175.992,1.131,1.706-.08,3.418-.021,5.128-.018,1.245,0,2.458.34,3.722.257a5.788,5.788,0,0,1-2.851.489,51.816,51.816,0,0,0-6.067.015c-.54.036-.93.043-.94.779-.041,3.034-.126,6.067-.218,9.1-.018.582.176.771.763.8,1.7.075,3.4.218,5.111.284,3.567.137,7.131.326,10.835.216-.543.685-1.15.549-1.715.57-4.589.17-9.167-.257-13.753-.294-.849-.006-1.338.059-1.269,1.118.054.831-.005,1.365,1.154,1.413,2.282.094,4.561.27,6.968.178-.9.706-4.109.827-8.022.383-.028.264-.078.528-.082.792q-.27,16.515-.529,33.03c-.032,2.12-.009,2.1,1.994,2.037a29.121,29.121,0,0,1,3.237.031c3.223.259,6.443.517,9.68.487,2.383-.022,4.769-.065,7.151.006,8.594.259,17.155-.528,25.733-.778,4.547-.132,9.078.342,13.622.247.738-.016,1.479-.248,2.533-.277a2.3,2.3,0,0,1-1.6.792c-3.012.021-6.016.234-9.033.216-4.582-.027-9.166-.034-13.749.253-4.526.285-9.066.552-13.6.5-8.219-.1-16.436-.425-24.652-.713-1.169-.041-1.47.357-1.386,1.447a13.366,13.366,0,0,1-.075,2.849c-.139,1,.2,1.236,1.145,1.21q6.136-.166,12.276-.222,26.515-.281,53.031-.541,34.544-.377,69.088-.78,45.609-.484,91.22-.928,11.806-.122,23.613-.273c.5-.005.991.025,1.485,0a1.587,1.587,0,0,1,1.843,1.546,1.542,1.542,0,0,1-1.713,1.676c-3.642.017-7.285.03-10.928.072q-39.668.458-79.335.922-42.236.456-84.473.842-37.446.346-74.895.627c-2.572.021-2.544,0-2.5,2.59.012.77.188,1.033,1,.921a24.494,24.494,0,0,1,3.36-.215c4.991,0,9.974-.22,14.954-.521,2.434-.147,4.882.158,7.371-.429a.789.789,0,0,1-.673.651,23.739,23.739,0,0,1-5.344.485c-6.5.394-13.013.615-19.523.83-.968.032-1.18.343-1.2,1.24q-.2,10.125-.506,20.247c-.031,1,.307,1.2,1.217,1.164,4-.142,8-.215,12-.319q25.493-.659,50.983-1.321,14.568-.373,29.136-.721,24.08-.569,48.158-1.117,23.2-.533,46.406-1.059,30.423-.711,60.844-1.44c1.124-.026,2.249.01,3.374,0a1.454,1.454,0,0,1,1.553,1.532,1.549,1.549,0,0,1-1.394,1.571,9.264,9.264,0,0,1-1.345.084c-7.15.173-14.3.358-21.45.509-12.726.268-25.453.5-38.18.777q-18.819.4-37.637.851-30.285.685-60.57,1.368-20.031.441-40.063.827c-11.512.226-23.027.352-34.537.672-5.847.162-11.693.166-17.539.231-.961.011-1.238.3-1.2,1.236.08,1.992-.184,3.984-.211,5.968-.11,7.837-.523,15.66-.919,23.54,1.212,0,2.381.041,3.546-.01a13.187,13.187,0,0,1,5.074,1.03,2.412,2.412,0,0,1,1.692,2.364c.1,2.663.02,5.347.338,7.982.257,2.14-.161,4.22-.084,6.33.024.645.094.949.831,1.038,5.848.7,11.6,1.952,17.4,2.987,9.6,1.715,19.225,3.234,28.841,4.833,3.143.522,6.212,1.469,9.414,1.66.707.042,1.376.255,1.727-.746.516-1.472,1.2-2.885,1.813-4.322,4.866-11.414,9.406-22.967,14.525-34.272,1.872-4.134,4.054-8.008,7.493-11.068a10.659,10.659,0,0,1,6.236-2.877c3.489-.307,6.985-.573,10.484-.709q14.76-.573,29.532-.6a13.9,13.9,0,0,1,12.281,6.76c4.063,6.394,6.958,13.428,10.287,20.22,2.273,4.636,3.745,9.626,5.942,14.306a1.365,1.365,0,0,0,1.514.913c1.922-.014,3.829-.318,5.756-.283-1.976,1.19-4.292.36-6.353,1.14a1.613,1.613,0,0,0,2,1.547c3.568-.318,7.142-.634,10.72-.752,4.135-.136,8.277-.063,12.416-.072.148,0,.373-.039.4.359a3.208,3.208,0,0,1-.675.147q-10.567.124-21.113.81c-2.843.184-2.8.017-1.625,2.63a2.23,2.23,0,0,0,2.414,1.519c9.118-.083,18.239.139,27.347-.561,3.622-.278,7.257-.363,10.883-.585,5.325-.327,10.644-.785,15.973-1.023,4.753-.213,9.509-.328,14.264-.539,6.325-.282,12.658-.429,18.989-.56,4-.083,8.022.16,12.007-.122a9.589,9.589,0,0,1,5.436,1.019,16.716,16.716,0,0,1,6.747,6.858,1.921,1.921,0,0,0,2.119,1.258c6.109-.025,12.185-.62,18.28-.848,6.91-.259,13.826-.39,20.739-.56,1.574-.039,3.15-.01,4.724-.011,3.69,0,7.379.008,11.068-.018.334,0,1.012.335.88-.547a90.428,90.428,0,0,1-.678-9.346c-.035-.78-.333-.684-.94-.561a31.477,31.477,0,0,1-7.628.925.92.92,0,0,1,.889-.52c2.183-.182,4.318-.675,6.477-.981,1.173-.167,1.222-.635,1.162-1.546-.347-5.289-.861-10.566-.894-15.878-.071-11.266.574-22.466,3.067-33.482,1.431-6.322,3.717-12.2,9.323-16.118a38.3,38.3,0,0,1,9.435-4.592A111.18,111.18,0,0,1,409.7,94.8a164.415,164.415,0,0,1,21.914-2.277c3.669-.136,7.335-.236,11.024-.106,6.745.237,13.45.576,20.025,2.224.826.206.868-.13.86-.784-.023-1.9-.435-3.769-.309-5.676.04-.61-.2-.77-.909-.727-6.138.374-12.291.453-18.427.932-3.356.263-6.73.314-10.1.434a17.165,17.165,0,0,1-4.128-.187,7.979,7.979,0,0,1,2.468-.452c2.244-.14,4.492-.091,6.739-.173,5.473-.2,10.912-.915,16.392-.971,2.335-.024,4.669-.2,7-.243.759-.013.8-.411.716-.941-.073-.5.338-1.3-.7-1.249-2.162.115-4.305-.2-6.457-.267-5.845-.176-11.677.132-17.5.535-3.536.245-7.069.556-10.608.706-2.7.115-5.407.023-8.386.023a1.738,1.738,0,0,1,1.577-.447,62.487,62.487,0,0,0,8.754-.353c5.276-.5,10.569-.62,15.851-.966a136.7,136.7,0,0,1,16.168.031c1.267.067,1.459-.415,1.24-1.447-.038-.177-.088-.351-.135-.525-.219-.811.377-1.914-.35-2.415a6.6,6.6,0,0,0-2.477-.494C444.5,76.222,429.191,72.807,413.8,69.8c-5.469-1.069-10.921-2.223-16.378-3.357-.876-.182-1.19-.087-.973.971a23.756,23.756,0,0,1,.375,5.546c-.192,6.106-2.076,11.351-7.3,14.993-.982.685-1.476.362-1.877-.5a4.1,4.1,0,0,1-.319-1.444c-.429-6.825-.447-13.67-.984-20.491-.081-1.028-.393-1.467-1.357-1.552a1.818,1.818,0,0,1-1.852-2.024,2.7,2.7,0,0,0-.331-1.006,29.458,29.458,0,0,1-1.934-5.916c-1.435-6.586-2.622-13.228-4.437-19.731-.285-1.022-.615-1.372-1.7-1.311-2.647.15-5.3.166-7.954.18-1.03,0-2.045-.284-2.326-1.445a2.077,2.077,0,0,1,1.288-2.746,9.888,9.888,0,0,1,2.335-.617A60.749,60.749,0,0,1,374.676,29.029ZM344.484,155.118l.043.376a8.867,8.867,0,0,1-1.537.354c-4.035.207-8.071.41-12.109.551-2.067.072-4.139.044-6.207,0-.76-.017-1.025.219-.989.988.068,1.491.13,2.989.067,4.479-.05,1.182.449,1.4,1.51,1.375,10.789-.209,21.582-.2,32.37-.528.985-.03,1.1-.414,1.057-1.226-.08-1.49-.1-2.983-.122-4.476q-.459-30.441-.92-60.884c-.3-17.619-.686-35.237-.994-52.856-.088-5.075-.045-10.153-.043-15.229,0-.784.037-1.284-1.076-.952a13.52,13.52,0,0,1-3.327.365q-7.87.3-15.743.539c-4.445.133-8.891-.062-13.342.232-4.569.3-9.159,0-13.746.267-4.975.289-9.974-.087-14.96.282-.989.073-1.268.271-1.269,1.293q-.036,39.5-.142,78.993c-.018,6.932-.1,13.864-.157,20.8-.007.756-.062,1.459,1,1.535,2.633.189,5.242.72,7.9.549.222-.014.5-.073.657.158-.224.531-.638.361-.966.376a62.67,62.67,0,0,1-6.585-.226c-.641-.038-1.479-.838-1.927,0-.305.575-.084,1.422-.147,2.143-.049.569.116.769.722.822,2.321.2,4.632.511,6.968.534.965.009,1.93.08,2.9.123l-.022.348a41.118,41.118,0,0,1-9.425-.35c-1.119-.124-1.21.2-1.216,1.054-.035,4.35-.045,8.7-.153,13.049-.026,1.086.4,1.311,1.321,1.274,3.284-.131,6.549.237,9.821.425.3.017.641-.08.943.367a12.454,12.454,0,0,1-1.455.115c-2.783-.107-5.564-.264-8.348-.355-2.483-.082-2.511-.027-2.44,2.473a.88.88,0,0,1,0,.136c-.057.534.169.7.7.679,6.611-.324,13.19.66,19.8.513.472-.011.944,0,1.438,0-.119.541-.452.541-.77.538-2.517-.025-5.04.041-7.551-.1-4.222-.245-8.439-.305-12.665-.208-.876.02-1.015.362-1.01,1.134a37.6,37.6,0,0,1-.16,5.294c-.2,1.493.1,1.744,1.653,1.669,4.351-.213,8.7-.418,13.059-.445,4.586-.029,9.172-.179,13.758-.231.764-.008,1.094-.275,1.028-1-.194-2.141.76-4.363-.438-6.438a.353.353,0,0,1,.117-.322c.712-.307.459-.948.4-1.412-.114-.883.26-1.749-.269-2.715-.227-.415.315-1.62.312-2.512q-.062-19.768-.084-39.537a55.011,55.011,0,0,1,.335-7.325c.063-.472.116-.984.672-1.016.6-.035.65.506.694.963.087.9.193,1.8.241,2.7.545,10.187.04,20.374.037,30.562,0,3.987-.014,7.975,0,11.963,0,.418-.3,1.046.558,1.1,2.676.173,5.308.788,8,.825.289,0,.762-.221.822.461-2.8.306-5.525-.458-8.284-.514-.49-.01-1.215-.6-1.113.56.067.759-.419,1.778,1.107,1.683,1.931-.121,3.839.5,5.8.289-1.521.823-3.139.5-4.7.453-2.218-.066-2.155-.149-2.225,2.2-.034,1.139.288,1.652,1.46,1.667,4.854.062,9.7-.123,14.538-.482A31.952,31.952,0,0,0,344.484,155.118Zm35.439-22.765c-.133.6-.416.614-.679.679-1.421.354-2.836.734-4.262,1.068-.5.117-.789.312-.828.876-.4,5.828-1.1,11.634-.968,17.5.214,9.511.811,19.015.592,28.533-.026,1.125.484,1.5,1.389,1.5,1.255,0,2.51-.128,3.767-.176.6-.023.6-.325.516-.809a22.34,22.34,0,0,1-.408-3.225c-.283-16.664,5.183-30.792,18.234-41.49a37.32,37.32,0,0,1,22.991-8.9c14.507-.4,25.912,5.835,34.559,17.387a47.147,47.147,0,0,1,6.784,13.263c.217.641.356,1.212,1.317,1.135,5.782-.463,11.595-.229,17.378-.743,1.477-.131,2.963-.158,4.442-.265.35-.025.795.085.784-.613-.025-1.626.045-3.253.115-4.878.032-.758-.024-1.114-.993-.9a31.113,31.113,0,0,1-8.175.552c-1.3-.064-2.6-.068-3.9-.045a2.151,2.151,0,0,1-2.5-2.025c-.153-.982-.175-1.984-.283-2.974-.734-6.754-1.509-13.5-2.2-20.263-.274-2.694-.132-2.449,2.383-3.022,3.887-.886,7.977-.726,11.711-2.323.663-.283,1.772.063,1.941-.7.138-.63-.435-1.429-.725-2.139a10.5,10.5,0,0,0-.57-1.08,1.362,1.362,0,0,0-1.326-.756c-1.751.047-3.475-.437-5.236-.282-.219.02-.566.122-.617-.465a37.744,37.744,0,0,1,6.11.095c-.986-1.186-1.327-2.964-3.232-3.124a71.082,71.082,0,0,0-8.173-.588c-2.326.071-4.655.014-6.982.014l0-.435a87.32,87.32,0,0,1,15.892.5c-.849-1.107-1.511-1.849-2.031-2.681a2.507,2.507,0,0,0-2.462-1.225c-1.919.025-3.84-.155-5.76-.248l-.01-.42c2.083-.264,4.208,0,6.369-.132a2.769,2.769,0,0,0-2.666-1.836c-1.065-.063-2.133-.059-3.207-.066,1.143-.878,2.493-.3,3.843-.666-.917-.971-1.417-2.277-2.747-2.544a14.532,14.532,0,0,0-3.464-.325c-5.4.219-10.783-.3-16.178-.27-.2,0-.465.047-.53-.515,6.58-.24,13.122.546,19.615.214a15.5,15.5,0,0,0-6.249-4.448c-7.286-2.313-14.841-2.482-22.361-2.823-4.618-.209-9.236.27-13.855.447A131.584,131.584,0,0,0,409.6,97.655a101.416,101.416,0,0,0-21.843,6.161,14.9,14.9,0,0,0-8.214,8.086,69.664,69.664,0,0,1,11.122-3.468,2.489,2.489,0,0,1-1.627.9c-2.655.757-5.2,1.864-7.838,2.625-2.208.637-2.815,2.155-3.264,4.177A70.351,70.351,0,0,1,389.71,112.9a1.739,1.739,0,0,1-.848.526c-3.463.983-6.9,2.053-10.293,3.25a1.952,1.952,0,0,0-1.424,1.4,111.752,111.752,0,0,0-2.394,11.7c-.14.777.117.789.777.567a31.625,31.625,0,0,1,6.649-1.649c-.346.661-.9.684-1.4.793-1.87.4-3.669,1.047-5.491,1.614-1.213.378-.987,1.416-.843,2.119.161.787.913.072,1.334.019C377.125,133.062,378.449,132.683,379.923,132.353Zm91.486,36.522c.042-.365.2-.446.382-.469,1.95-.246,3.9-.489,5.866-.587,4.474-.224,8.959-.279,13.414-.818.48-.058,1.091-.079.941-.819a18.627,18.627,0,0,1-.2-3.521c-.009-.711-.319-.948-.985-.941-1.256.013-2.517-.088-3.769-.02-8.169.442-16.338.979-24.52.387-1.093-.079-1.285.2-1.151,1.215a117.9,117.9,0,0,1,1.075,17.861c-.023,1.185.333,1.465,1.423,1.376,4.977-.405,9.971-.237,14.957-.387,4.131-.125,8.263-.231,12.4-.294.972-.015,1.181-.439,1.185-1.32,0-1.068-.73-.717-1.217-.72-3.938-.023-7.877-.013-12.152-.013a1.526,1.526,0,0,1,1.744-.8c3.549.051,7.1-.171,10.644.229,1.459.165,1.13-.9,1.192-1.686.084-1.066-.664-.711-1.186-.641a8.908,8.908,0,0,1-3.536-.05,22.84,22.84,0,0,1,3.453-.58c.607-.067,1.361.282,1.3-.926-.049-1-.323-1.355-1.333-1.269-2.411.206-4.828.356-7.244.473-.674.033-1.44.374-2.262-.452,3.413-.193,6.585-.369,9.757-.553.412-.024.983.165.931-.6-.044-.634-.512-.492-.9-.492-1.153,0-2.307,0-3.625,0a2.1,2.1,0,0,1,1.637-.546,11.118,11.118,0,0,0,2.138-.166c.858-.171.654-.729.609-1.223-.071-.777-.557-.47-.983-.336a2.427,2.427,0,0,1-1.324.071c.224-.6.826-.569,1.246-.64.832-.14,1.141-.462,1.022-1.335-.127-.934-.774-.734-1.312-.706-1.919.1-3.8.511-5.739.558-2.959.071-5.915.3-8.873.469C474.756,168.694,473.1,168.783,471.409,168.875ZM72.277,10.328c4.291.083,8.42-.123,12.552-.2q25.486-.479,50.976-.821c3.777-.057,7.555-.058,11.333-.038.767,0,1.119-.129,1.117-1.012,0-1.489.1-2.982.23-4.466.092-1.02-.162-1.51-1.287-1.357a28.174,28.174,0,0,1-3.359.254c-10.875.164-21.738.641-32.605,1.068-9.566.377-19.14.573-28.709.884-2.829.092-5.654.328-8.482.446-.707.029-.82.3-.928.956A21.044,21.044,0,0,1,72.277,10.328ZM26.359,166.958a8.915,8.915,0,0,1-3.722.651,150.425,150.425,0,0,1-16.65,1.038c-.809-.019-1.62.035-2.428-.006-.7-.036-.8.293-.765.907.036.594.018,1.009.832,1.026a96.425,96.425,0,0,0,11.952-.706c1.8-.185,3.594-.408,5.462-.622a1.2,1.2,0,0,1-1.128.741c-3.5.464-6.995.963-10.526,1.114-1.885.08-3.77.195-5.656.218-.872.01-.911.411-.832,1.113.109.953.8.579,1.23.557,9.255-.461,18.518.035,27.774-.223,2.845-.08,2.748-.031,2.569-2.974-.221-3.655-.385-7.324-.312-10.982.026-1.31-.24-1.438-1.362-1.364-2.2.146-4.4.159-6.6.192-7.057.108-14.117.079-21.168.451-2.838.15-2.823.18-2.392,2.77.1.582.243.788.835.674,2.365-.451,4.756-.14,7.135-.214.255-.007.679-.162.673.525a76.043,76.043,0,0,0-7.77.263c-1.576.171-.577,1.3-.786,1.962-.229.723.221.818.9.812,4.453-.041,8.907-.028,13.36,0,.406,0,1-.3,1.281.509-.607,0-1.142,0-1.677,0-4.267,0-8.533.009-12.8.2-1.215.054-1.07.682-1.083,1.462-.019,1.182.742.522,1.194.536.719.022,1.439-.028,2.158-.012,3.958.089,7.9-.191,11.842-.467C20.7,166.915,23.517,166.489,26.359,166.958ZM207.3,8.177v.062q16.042-.287,32.085-.57c5.483-.095,10.969.034,16.449-.249.672-.034,1.483.17,1.984-.14.691-.428-.211-1.192-.031-1.847a9.658,9.658,0,0,0,.023-1.081c.136-.944-.319-1.093-1.149-1.107-7.772-.13-15.542.136-23.317-.194-4.52-.192-9.061-.075-13.6.128-6.812.305-13.636.41-20.454.583-6.112.155-12.229.043-18.344.046-3.7,0-3.674,0-3.61,3.848.013.763.18.967.976.953C187.972,8.438,197.635,8.313,207.3,8.177ZM385.611,60.864a3.109,3.109,0,0,0,.126-.72c-.882-5.523-1.15-11.129-2.2-16.631-.289-1.514.341-2.219,1.853-2.179a12.908,12.908,0,0,1,4.634,1.128c2.554,1.065,4.239,2.779,4.462,5.735.094,1.254.387,2.494.47,3.762.112,1.713.315,3.42.48,5.13.027.276.057.548.43.56a.353.353,0,0,0,.406-.412c-.1-1.271.467-2.5.263-3.771a138.559,138.559,0,0,1-1.319-13.852c-.242-4.2-1.5-5.563-4.6-6.3-3.55-.844-7.064.07-10.592.269-.714.04-.544.565-.431,1.007.439,1.709.89,3.414,1.326,5.123,1.478,5.791,2.24,11.727,3.5,17.561A10.432,10.432,0,0,0,385.611,60.864Zm99.255,70.174a40.51,40.51,0,0,0-.279-5.009c-.079-.844-.179-1.228-1.186-.776a17.4,17.4,0,0,1-5.118,1.6q-3.2.369-6.4.793c-.71.094-1.366.16-1.134,1.28.411,1.989.674,4.011.953,6.025.1.693.4.842,1.063.833,2.285-.033,4.551-.339,6.838-.382,1.327-.025,2.678-.148,4.013-.275.888-.085,1.456-.4,1.277-1.511A16.36,16.36,0,0,1,484.866,131.038Zm.373,18.011c0-2.718,0-5.516,0-8.313,0-.742-.255-.947-1.072-.839a51.3,51.3,0,0,1-10.737.48c-1-.078-1.121.286-1.011,1.131.287,2.2.609,4.4.737,6.613.062,1.074.44,1.185,1.373,1.207C478.151,149.413,481.766,149.253,485.239,149.049Zm-13.22-11.636a.768.768,0,0,0,.711.227q5.841-.133,11.682-.275c.29-.007.7.081.647-.429-.045-.466-.435-.368-.725-.378-3.718-.122-7.423.2-11.132.377C472.83,136.953,472.287,136.822,472.019,137.413Zm-321.46-1.227a38.331,38.331,0,0,1,38.692,39.4,37.673,37.673,0,0,1-40.368,36.825,38.454,38.454,0,0,1-36.151-38.763C112.885,152.52,130.836,135.766,150.559,136.186Zm-.166,13.053a20.149,20.149,0,0,0-6.006.768c-10.442,3.326-15.855,12.36-16.4,21.54-.479,8.1,2.181,15.1,8.418,20.37,6.643,5.607,14.225,6.991,22.262,3.551,9.573-4.1,15.022-14.166,13.912-24.692-.721-6.833-3.485-12.51-9-16.613C159.691,151.266,155.441,149.1,150.393,149.239ZM457.8,173.1c.007,15.634-9.16,30.505-23.994,36.241a34.073,34.073,0,0,1-23.148.937c-14.451-4.57-23.14-14.536-25.646-29.451-2.081-12.384.936-23.712,9.374-33.239,2.767-3.123,6.327-5.257,9.818-7.527a28.7,28.7,0,0,1,9.8-4.032,33.766,33.766,0,0,1,28.49,6.212,36.917,36.917,0,0,1,15.1,26.523c.063.585.176,1.167.2,1.753C457.825,171.376,457.8,172.238,457.8,173.1ZM445,174.864a43.433,43.433,0,0,0-.363-4.463,25.733,25.733,0,0,0-10.227-16.521c-4.747-3.652-10.555-4.732-16.52-3.945-13.039,1.721-20.11,12.957-19.921,23.749a24.158,24.158,0,0,0,5.828,15.565c6.324,7.424,14.329,10.573,23.87,8.247C438.154,194.939,444.887,185.85,445,174.864ZM82.488,79.673q-12.681,0-25.364-.011c-1.209,0-2.419-.211-3.629-.217-.913,0-1.125-.4-1.122-1.245q.029-8.154-.019-16.309c-.054-7.562-.145-15.124-.226-22.686a46.551,46.551,0,0,1,.531-5.654c.079-.713.517-.616.948-.63,2.92-.094,5.84-.234,8.76-.262q21.3-.2,42.61-.359a20.277,20.277,0,0,0,2.692-.125c1.055-.15,1.351.36,1.386,1.278.213,5.565.546,11.122.6,16.7.077,8.377.337,16.752.532,25.127.022.946.226,1.876.215,2.835-.011,1.084-.473,1.322-1.481,1.318-8.81-.037-17.62-.022-26.429-.022Zm-20.8-14.9a3.45,3.45,0,0,0,2-1c7.905-6.266,15.8-12.549,23.127-19.509a14.47,14.47,0,0,0,1.338-1.521c.379-.48.665-1.038.145-1.582-.569-.595-1.076-.139-1.524.224-8.018,6.505-15.62,13.479-23,20.707A12.574,12.574,0,0,0,61.688,64.775Zm15.151-1.416.261.265a.992.992,0,0,0,.354-.095q6.276-4.889,12.531-9.8c.328-.26.943-.63.437-1.2-.477-.541-.887.023-1.274.243-3.237,1.838-5.868,4.456-8.624,6.905C79.227,60.822,78.063,62.125,76.839,63.359ZM63.854,51.914a105.469,105.469,0,0,0,9.522-8.164c.367-.344.961-.8.4-1.339-.478-.457-.908.135-1.238.434-2.472,2.232-4.967,4.445-7.213,6.912A4.782,4.782,0,0,0,63.854,51.914ZM91.882,63.576a7.866,7.866,0,0,0,2.956-2.065c.194-.215.313-.473.113-.713-.222-.267-.5-.109-.7.058A9.824,9.824,0,0,0,91.882,63.576ZM199.9,78.746c-8.591,0-17.183-.014-25.775.02-.927,0-1.049-.338-1.108-1.174-.6-8.645-.116-17.3-.333-25.952-.123-4.891-.144-9.786-.16-14.679,0-1.579.18-3.157.226-4.737.027-.958.718-.635,1.166-.639,4.858-.048,9.715-.062,14.573-.092q17.34-.106,34.678-.219c1.974-.013,2.633.485,2.413,2.407a29.558,29.558,0,0,0,.151,4.714c.385,9.191.544,18.388.781,27.583q.138,5.357.523,10.7c.085,1.184-.27,1.452-1.362,1.448-8.591-.033-17.182-.019-25.773-.019Zm-17.176-9.911a3.135,3.135,0,0,0,1.447-.961c9.407-7.522,18.383-15.553,27.394-23.543a6.908,6.908,0,0,0,.752-.778.91.91,0,0,0,.134-1.129c-.312-.493-.794-.4-1.2-.22a4.854,4.854,0,0,0-1.118.745c-1.972,1.649-3.93,3.315-5.9,4.974-7.108,6-13.671,12.592-20.336,19.074A3.54,3.54,0,0,0,182.719,68.835Zm3.193-15.376,11.069-9.122a9.693,9.693,0,0,0,1.931-1.875c.313-.453.655-.982.132-1.449s-.912.075-1.253.385c-3.7,3.362-7.432,6.683-10.854,10.338A3.262,3.262,0,0,0,185.912,53.459Zm20.316,7.834c.529.409.93.085,1.283-.139a30.416,30.416,0,0,0,2.552-1.761c1.273-1,2.512-2.052,3.732-3.12.309-.27.763-.647.332-1.14-.361-.412-.819-.261-1.223-.01a8.472,8.472,0,0,0-1,.69q-2.121,1.785-4.22,3.6A5.633,5.633,0,0,0,206.228,61.293Zm-64.1,18.042c-8.452,0-16.9-.013-25.356.021-.883,0-1.248-.115-1.26-1.14-.145-12.816-.362-25.631-.5-38.448-.024-2.2.253-4.4.371-6.605.04-.742.257-1.076,1.121-1.082q20.565-.143,41.13-.364c2.471-.023,4.942-.055,7.413-.079,1.805-.018,2.322.365,2.011,2.146-.375,2.142.015,4.222.112,6.315.4,8.779.539,17.565.835,26.347.129,3.835-.037,7.694.62,11.5.2,1.14-.567.89-1.14.9q-8.295.09-16.591.155c-2.922.021-5.845,0-8.767,0Zm-14.6-10.246a10.911,10.911,0,0,1,.856-.812c6.267-4.81,12.037-10.2,17.948-15.433,3.309-2.928,6.483-6.019,10-8.713.46-.353,1.007-.738.589-1.448-.4-.685-1-.431-1.555-.237a9.477,9.477,0,0,0-2.8,1.605,219.392,219.392,0,0,0-23.2,21.924A5.358,5.358,0,0,0,127.529,69.089ZM120.58,58.317a4.386,4.386,0,0,0,.638-.265,22.5,22.5,0,0,0,1.834-1.373A143.322,143.322,0,0,0,138.1,40.6a4.251,4.251,0,0,0,.624-1.041c.143-.345.484-.73.065-1.111-.445-.4-.837-.131-1.191.16a38.858,38.858,0,0,0-4.966,4.572c-3.206,3.726-6.427,7.439-9.623,11.174A11.936,11.936,0,0,0,120.58,58.317Zm25.387,7.75a4.969,4.969,0,0,1,1.473-1.181c1.575-1.2,3.169-2.369,4.72-3.6.348-.275.891-.684.459-1.229-.412-.52-.929-.166-1.307.133a31.785,31.785,0,0,0-4.749,4.2C146.178,64.842,145.679,65.3,145.967,66.067ZM255.938,77.643q-11.935.195-23.87.39c-.678.011-1.251.15-1.282-.962-.272-9.9-.276-19.8-.292-29.7a119.312,119.312,0,0,1,.253-12.484,18.247,18.247,0,0,0-.009-2.517c-.04-1.011.378-1.16,1.252-1.165q17.329-.1,34.658-.26c4.181-.036,8.362-.12,12.542-.145,2.093-.012,2.046.04,2.106,2.078.4,13.718.21,27.444.515,41.164.07,3.186.018,3.252-3.084,3.268-7.6.039-15.193.013-22.79.013ZM237.92,60.4c.991-.59,1.98-1.116,2.905-1.739,8.141-5.481,16.336-10.883,24.125-16.874.892-.685,1.743-1.426,2.585-2.173.335-.3.645-.666.34-1.181A1.022,1.022,0,0,0,266.6,38a9.006,9.006,0,0,0-2.628,1.345c-6.176,3.888-12.034,8.243-17.924,12.547-2.07,1.513-4,3.215-5.99,4.843a11.253,11.253,0,0,0-2.354,2.6C237.47,59.685,237.286,60.159,237.92,60.4Zm38.813-15.2c-.091-.447-.35-.514-.784-.4a4.375,4.375,0,0,0-1.529.832c-8.706,6.66-17.278,13.485-25.376,20.9a10.04,10.04,0,0,0-1.861,2.138c-.122.2-.254.426,0,.58a.575.575,0,0,0,.484-.031A19.394,19.394,0,0,0,250,67.852c6.37-4.805,12.94-9.348,18.9-14.7a65.642,65.642,0,0,0,7.236-6.913C276.377,45.939,276.739,45.686,276.733,45.2ZM262.18,68.5a40.917,40.917,0,0,0,7.519-4.9c.5-.378,1.177-.816.688-1.526-.5-.726-1.177-.176-1.662.134a24.456,24.456,0,0,0-5.98,5.025A1.585,1.585,0,0,0,262.18,68.5Zm-17.859-26.26c1.1-.9,2.2-1.794,3.3-2.7.315-.261.684-.606.344-1.011s-.751-.122-1.064.147A7.235,7.235,0,0,0,244.321,42.237Zm-8.22,7.395a7.077,7.077,0,0,0,2.2-2.017c.144-.234.23-.522-.027-.722a.5.5,0,0,0-.474-.019A4.919,4.919,0,0,0,236.1,49.632Zm28.406,76.618c6.466-.732,12.945-.448,19.414-.688.888-.033,1.334.131,1.434,1.2.557,6.006.412,12.029.524,18.045.126,6.793.173,13.588.313,20.382.018.864-.2,1.026-1,1.03-8,.043-16.009.2-24.012.317-5.439.078-10.879.129-16.318.234-1.094.021-1.464-.345-1.364-1.378.705-7.329-.076-14.662.039-21.992.083-5.3-.277-10.6.231-15.9.095-.995.34-1.278,1.317-1.272C251.556,126.268,258.032,126.25,264.507,126.25Zm19.25,19.159h-.06c0-5.708-.044-11.418.035-17.125.017-1.251-.279-1.586-1.519-1.544-6.874.235-13.751.4-20.627.561q-7.484.176-14.968.277c-.868.012-1.3.145-1.161,1.214a36.483,36.483,0,0,1,.193,4.34q.138,15.074.224,30.148c0,1.086.335,1.333,1.379,1.332,3.329,0,6.649-.2,9.973-.28,4.5-.1,8.99-.015,13.487-.217,3.907-.176,7.824-.125,11.736-.163.949-.009,1.357-.288,1.342-1.41C283.716,156.832,283.757,151.12,283.757,145.409ZM211.45,126.994c10.053-.206,17.288-.344,24.522-.517.974-.023,1.32.031,1.113,1.269a20.765,20.765,0,0,0,.267,6.085,16.253,16.253,0,0,1,.17,1.745q.306,13.791.621,27.582c.021.9.131,1.8.231,2.7.082.732-.234.9-.922.909-4.763.055-9.521.365-14.288.249-4.543-.109-9.082.122-13.618.295a2.087,2.087,0,0,1-2.293-1.543q-2.7-6.426-5.472-12.824-4.7-10.882-9.429-21.753c-.374-.866-.689-1.76-.99-2.656-.28-.833-.158-1.255.93-1.247C199.62,127.335,206.942,126.906,211.45,126.994ZM193.9,128.962c.1.305.134.434.188.553,5.3,11.582,10.1,23.385,15.218,35.049.374.854.865.845,1.547.838q12-.127,23.994-.508c1.039-.035,1.144-.438,1.12-1.289-.1-3.667-.207-7.335-.222-11-.032-7.928-.527-15.849-.328-23.779.02-.792-.22-1.025-.994-.951-1.16.109-2.329.136-3.5.161q-15.639.334-31.279.661C197.764,128.735,195.885,128.866,193.9,128.962Zm41.719-107.8c7.685.013,15.348.59,23.023.8,11.733.324,23.469-.1,35.2-.213.585,0,1.172.02,1.754-.018a2.523,2.523,0,0,0,1.891-.844c-21.846.653-43.341.4-64.874-.4A5.259,5.259,0,0,0,235.616,21.166Zm26.249,148.742a102.089,102.089,0,0,1,12.956-.937c10.6-.142,21.21-.042,31.815-.062.513,0,1.2.334,1.55-.512-17.46-.379-34.88-.888-52.211,1.62C257.949,170.6,259.952,170.178,261.865,169.908Zm-180.7-152.5c-13.207-.151-26.415-.518-39.6.278C54.775,17.918,67.973,18.086,81.165,17.407ZM164.6,96.856c-5.153.387-10.311.623-15.477.526-5.888-.111-11.768.22-17.652.286-.222,0-.46.013-.477.352a3.017,3.017,0,0,0,2.171.44c2.868-.189,5.737-.319,8.614-.266,7.01.129,14.013-.149,21.007-.585,1.183-.074,2.6.136,3.782-1.243C165.665,96.488,165.187,96.812,164.6,96.856Zm87.234-15.438c-2.776.158-5.564.2-8.325.495-2.872.306-5.75.057-8.61.3-5.052.425-10.1.875-15.176.8-.54-.008-1.508-.258-1.508.4,0,.752.942.342,1.45.36,5.707.208,11.361-.728,17.058-.835,3.587-.068,7.181-.223,10.748-.576,1.7-.169,3.481.07,5.268-.644A1,1,0,0,0,251.836,81.418ZM228.692,97.433a97.367,97.367,0,0,1-13.142.768q-4.178-.009-8.355.008c-.543,0-1.159-.105-1.579.727a161.767,161.767,0,0,0,24.183-.928C229.418,97.275,229.03,97.387,228.692,97.433Zm-196.157,28.6c1.075.906,25.731.99,28.661.094C51.7,125.781,42.211,126.361,32.535,126.037Zm108.82-107.8c-8.229-.478-16.436.545-24.662.5C124.926,19.4,133.138,18.686,141.355,18.235Zm115.462,84.311c7.688.135,15.344-.469,23-.18C277.91,101.272,257.717,101.631,256.817,102.546ZM344.1,169.414c3.149.239,6.279-.246,9.423-.222,2.744.021,5.489.011,8.233-.01.339,0,.8.209,1.081-.43H342.008A3.3,3.3,0,0,0,344.1,169.414Zm-252.254-11.1c3.119.241,6.256.247,9.357.73.317.05.8.3.872-.212.062-.441-.4-.494-.777-.523-2.228-.173-4.452-.395-6.681-.532-2.95-.182-5.908-.2-8.853-.5a2.567,2.567,0,0,0-2.278.431C86.47,157.925,89.161,158.111,91.849,158.318Zm-42.215-29c-6.188-.737-12.359-.1-18.741-.572C31.9,129.6,48.594,129.994,49.634,129.314ZM342.979,12.038l-17.911.8.028.52c5.966-.132,11.928-.334,17.871-.909ZM328.208,15.73c2.507.686,15.987.1,17.345-.762C339.755,15.474,334.149,15.022,328.208,15.73Zm-182.1,86.053a87.567,87.567,0,0,0,14.712.5C155.92,102.046,151.03,101.336,146.11,101.783Zm-109.3-.393c1.918.812,11.683.844,14.156,0C46.247,101.705,41.522,100.864,36.805,101.39ZM232.533,85.7q-6.934.13-13.87.274c-.09,0-.18,0-.269.011-.241.023-.462.138-.437.388.013.129.224.3.374.338a2.747,2.747,0,0,0,.8.056q6.657-.273,13.312-.562a4.289,4.289,0,0,0,.789-.284A3.781,3.781,0,0,0,232.533,85.7ZM221.426,17.682c-4.575.015-9.149.007-13.721-.185-.282-.012-.741-.2-.808.209-.081.5.421.457.753.507a3.709,3.709,0,0,0,.538.012q6.394,0,12.788,0a1.655,1.655,0,0,0,1.511-.542ZM356.4,178.925l13.884-1.435-.053-.464a135.657,135.657,0,0,0-13.882,1.454ZM338.613,20.169A79.232,79.232,0,0,0,352.1,19.8,71.938,71.938,0,0,0,338.613,20.169Zm-118.78-5.608-.017-.438c-4.593.12-9.2-.2-14.032.438ZM133.2,105.393a1.925,1.925,0,0,0,1.727.639c3.363-.348,6.735-.174,10.1-.216.514-.007,1.055.066,1.328-.423ZM59.943,22.268H73.384l-.007-.312H59.9ZM108.7,17.2c-3.811.456-7.608.039-11.673.442C98.555,18.563,107.564,18.128,108.7,17.2ZM75.212,98.872c-3.36.036-6.735-.335-10.049.369C68.543,99.5,71.906,99.747,75.212,98.872Zm385.943-8.043c.327-.008.947.28.913-.367-.026-.522-.6-.4-.993-.424-2.476-.155-4.926.294-7.4.335a2.865,2.865,0,0,0-2.073.636C454.8,90.707,457.979,90.9,461.155,90.829ZM236.09,124.334l11.084-.8-.054-.592a81.252,81.252,0,0,0-11.066,1.014ZM33,131.949c3.532-.223,6.723.328,10.248.246C41.08,131.252,34.135,130.971,33,131.949Zm100.01-23.313,0,.344c3.118.091,6.238.638,9.383-.344ZM257.038,85.429a26.387,26.387,0,0,0,9.775-.725C263.577,85.1,260.261,84.681,257.038,85.429Zm-12.131-69.48c-3.372.473-6.8-.2-10.161.481C238.136,16.346,241.564,17.045,244.907,15.949ZM237.6,170.6a35.6,35.6,0,0,0,8.439-.71A28.587,28.587,0,0,0,237.6,170.6ZM31.92,76.806a18.745,18.745,0,0,0,8.273-1.228C37.452,76.091,34.6,75.9,31.92,76.806ZM375.849,92.232c-.248,0-.6-.016-.539.39a.46.46,0,0,0,.62.356,25.753,25.753,0,0,1,2.8-.248c1.682-.224,3.42-.21,4.994-.992C381.078,91.806,378.479,92.226,375.849,92.232ZM96.446,20.319c2.234,1,7.233,1.126,8.726.211C102.25,21.061,99.355,20.053,96.446,20.319ZM421.794,80.666A32.9,32.9,0,0,0,430.3,79.7C427.447,79.9,424.564,79.84,421.794,80.666Zm-199.587,21.4h7.148C228.529,100.986,223.415,100.9,222.207,102.067Zm91.075,68.873a23.349,23.349,0,0,0,7.9-.936C318.53,170.177,315.846,170.121,313.282,170.94Zm56.179-96.587c-.276,0-.609.014-.6.358.009.315.332.365.612.363a15.382,15.382,0,0,0,3.474-.087c1.047-.257,2.242.216,3.257-.633Zm53.69,2.219a17.487,17.487,0,0,0-7.049.876C418.457,77.116,420.914,77.607,423.151,76.572Zm-98.8,96.1c-2.489.222-5.023-.232-7.479.483l.02.381,7.479-.405Zm-10.381-4.53c-.315.017-.755.1-.737.428.03.534.541.356.853.314,1.757-.24,3.508-.517,5.263-.771a1.459,1.459,0,0,0,1.18-.752C318.244,167.711,316.119,168.022,313.974,168.138Zm-37.931-63.292c-2.484.131-4.994-.04-7.42.7C271.078,105.18,273.671,106.022,276.043,104.846ZM414.389,90.4l7.712-.859-.061-.461a45.311,45.311,0,0,0-7.744.949ZM238.44,172.528a12.618,12.618,0,0,0,6.611-.6C242.837,172.088,240.582,171.775,238.44,172.528ZM50.034,105.44a17.864,17.864,0,0,0-6.727.433A17.217,17.217,0,0,0,50.034,105.44Zm312.422,69.6a25.791,25.791,0,0,0,6.795-.691A15.662,15.662,0,0,0,362.456,175.035ZM223.312,104.561c2.366-.464,4.691.5,7.056.094C229.289,103.777,224.868,103.647,223.312,104.561ZM34.073,54l.009.34a23,23,0,0,0,6.49-.34ZM99.345,155.254l5.009,1.178.107-.5a17.649,17.649,0,0,0-5.031-1.146Zm261.5-62.211c-.245,0-.733-.191-.645.352a.568.568,0,0,0,.743.4c1.126-.437,2.285-.105,3.42-.23.443-.048.983.229,1.453-.536C364.045,93.032,362.445,93.022,360.845,93.043Zm-259.209,67.8h-5.9c1.932.751,3.93.365,5.9.486Zm-33.8-58.774c1.859-.257,3.633.346,5.436-.61C71.827,101.174,68.408,101.506,67.839,102.066ZM52.831,131.223a7.747,7.747,0,0,0,4.31.234C55.709,131.266,54.3,130.671,52.831,131.223ZM31.715,81.605c1.352.53,3.932.331,4.8-.382C34.878,81.513,33.4,81.086,31.715,81.605ZM356.762,172.99c.2.021.376-.092.333-.3-.03-.141-.227-.369-.316-.354-1.152.192-2.435-.055-3.606,1.069C354.554,173.356,355.628,172.864,356.762,172.99ZM40.444,57.236c-1.442.42-2.924-.271-4.39.849C37.95,58.247,39.859,57.9,40.444,57.236ZM86.652,160.715a35.541,35.541,0,0,0,3.665.575C89.244,160.318,87.965,160.425,86.652,160.715Zm238.1-94.668q0-12.576,0-25.152c0-2.024.066-4.049.033-6.072-.012-.721.306-.818.887-.817,2.113,0,4.223-.114,6.333-.179,6.6-.2,13.2-.392,19.8-.78,1.007-.06,1.233.452,1.311,1.4.456,5.518.2,11.044.218,16.565.049,13.188.017,26.377.035,39.566a17.661,17.661,0,0,0-.038,3.784c.167.773-.3.91-.942.884-6.477-.256-12.944.255-19.418.231-2.243-.009-4.488-.045-6.729.022-.938.027-1.235-.264-1.238-1.209-.021-6.471-.1-12.943-.14-19.415-.02-2.943,0-5.887,0-8.83Zm3.67,9.654a4.171,4.171,0,0,0,.564-.436,210.207,210.207,0,0,0,17.382-27.929,14.011,14.011,0,0,0,1.374-3.234c.1-.433.4-.907-.188-1.173-.548-.248-.841.248-1.076.588-.947,1.374-1.929,2.735-2.746,4.188-2.925,5.2-5.9,10.376-9,15.473-1.55,2.545-3.012,5.148-4.422,7.776A16.356,16.356,0,0,0,328.422,75.7ZM335.2,86.036l.389.36a3.241,3.241,0,0,1,.283-.63c2.746-3.723,5.382-7.521,7.759-11.5.292-.488.623-1.176-.086-1.543-.748-.386-1.168.323-1.457.84C339.77,77.711,337.491,81.877,335.2,86.036Zm-.974-8.233c.623-.955,1.234-1.919,1.871-2.864,2.636-3.91,5.174-7.882,7.546-11.96.249-.428.609-1.014.14-1.349-.564-.4-.841.317-1.1.673a14.337,14.337,0,0,0-1.257,2.078c-1.537,3.155-3.4,6.12-5.211,9.115A11.8,11.8,0,0,0,334.226,77.8Zm-1.5-22.16c.354-.1.478-.1.507-.148,2.48-4.315,4.641-8.8,6.863-13.248.091-.181.155-.57-.556-.59Zm-10.937,8.878c-.163,9.473.3,18.939.316,28.41,0,.091,0,.181,0,.272-.037,2.6-.044,2.543-2.658,2.56-5.216.034-10.431.165-15.648.209-1.8.015-3.592-.138-5.389-.158-.78-.009-.825-.4-.822-1.038.062-11.774-.183-23.543-.489-35.312-.192-7.381-.75-14.754-.423-22.145.09-2.025.144-2.111,2.12-2.229,7.087-.423,14.179-.724,21.278-.843.807-.013,1.173.085,1.187,1.062C321.407,45.046,321.609,54.783,321.793,64.521Zm-21.83,11.372c.6-.893,1.115-1.561,1.536-2.283q7.509-12.87,14.327-26.126c.3-.572,1.018-1.414.38-1.789-.715-.42-1.1.632-1.466,1.19-3.6,5.477-6.45,11.39-9.693,17.074a70.856,70.856,0,0,0-4.456,9.118A4.921,4.921,0,0,0,299.963,75.893Zm3.777-17.675c2.131-3.616,4.082-6.892,6-10.19.836-1.441,1.591-2.931,2.391-4.394.213-.389.352-.79-.093-1.072-.512-.323-.693.208-.948.479a2.609,2.609,0,0,0-.364.568c-2.063,3.85-4.147,7.689-6.161,11.565A5.4,5.4,0,0,0,303.74,58.218Zm3.571,13.609a93.323,93.323,0,0,0,7.8-13.02C311.628,62.612,309.809,67.43,307.311,71.827Zm7.625-1.637-.615-.384c-2.04,3.921-4.672,7.471-6.64,11.436A84.953,84.953,0,0,0,314.936,70.19ZM310.768,82.2c-.556.611-1.246,1.117-1.22,2.058C310.072,83.637,311.032,83.309,310.768,82.2Zm28.76,32.365c1.839,0,3.679.008,5.517,0a4.986,4.986,0,0,0,2.711-.661,1.384,1.384,0,0,0,.033-2.5,4.648,4.648,0,0,0-2.439-.651c-3.447-.162-6.9-.318-10.343-.424a5.776,5.776,0,0,0-3.61.818,1.109,1.109,0,0,0-.6,1.057c.009,1.341.826,2.213,2.548,2.289,2.058.091,4.123.022,6.186.022Zm-32.656-.539c1.345,0,2.69.018,4.034-.006a5.206,5.206,0,0,0,2.549-.76,1.335,1.335,0,0,0,.181-2.387,4.3,4.3,0,0,0-2.374-.842,65.868,65.868,0,0,0-7.8-.005,11.323,11.323,0,0,0-2.228.452,1.22,1.22,0,0,0-.928,1.024,1.932,1.932,0,0,0,1.994,2.4c1.515.12,3.046.026,4.57.026Zm6.713,28-.008-.513a54.616,54.616,0,0,0-11.526.513Zm-9.726,3.6c3.235.35,6.489.126,9.733.156.1,0,.286-.152.275-.19-.042-.158-.114-.385-.232-.428a2.776,2.776,0,0,0-.907-.161c-2.959-.011-5.918-.006-8.877-.006Zm30.347-10.651c-.34-.042-.841-.172-.846.348,0,.472.5.389.846.423,1.648.159,3.293.412,4.945.472,1.457.053,2.972.4,4.7-.457A90.793,90.793,0,0,1,334.206,134.97Zm4.526-4h-8.2C333.259,131.569,335.987,131.947,338.732,130.972Zm95.488-3.939a48.544,48.544,0,0,1,15.819,8.2,39.244,39.244,0,0,1,7.8,8.731c2.637,3.908,5.428,7.7,7.28,12.087.189.448.268,1.032.907,1.148.054-.142.129-.237.107-.3-2.425-6.536-6.336-12.227-10.65-17.532-5.361-6.59-12.654-10.416-20.715-12.776-.339-.1-.664-.206-.919.093C433.854,127.01,434.06,126.981,434.22,127.033Zm-16.574-2.05a94.8,94.8,0,0,1,10.966.012C426.186,123.964,419.037,123.991,417.646,124.983ZM446.09,99.1c3,.511,6.063-.138,9.067.379a.365.365,0,0,0,.454-.371c0-.3-.238-.349-.469-.349q-4.531-.006-9.063,0Zm-13.433.056a2.421,2.421,0,0,0,1.307.127q2.559.02,5.12-.008c.416-.005,1.094.114,1.071-.456-.022-.541-.648-.231-1.011-.232-.718,0-1.436.051-2.154.056-1.444.01-2.887,0-4.331,0Zm-34.77,7.7a27.389,27.389,0,0,0,6.909-1.126C402.475,105.887,400.1,105.9,397.887,106.851Zm42.334,18.623c-1.348-.821-4.484-1.266-5.551-.792C436.544,124.786,438.326,125.615,440.221,125.474Zm-39.289-16.52c-1.435.179-2.939-.1-4.286.665C398.105,109.6,399.61,109.887,400.932,108.954Zm66.18,9.344c-1.548-.863-3.067-.374-4.591.106C464.055,118.607,465.564,118.065,467.112,118.3Zm-27.73,4.43c-1.244-.277-2.473-.771-3.781-.084l3.712.513Zm18.4-9.527c-1.111-.036-2.134-.416-3.323.256C456.2,113.826,457.1,113.76,457.787,113.2Zm13.025,52.765a11.808,11.808,0,0,0,5.807-.595A15.976,15.976,0,0,0,470.812,165.966Zm4.52,13.644-.021-.327c-1.906.068-3.825-.343-5.748.327Zm.89-2.579a11.712,11.712,0,0,0,4.147-.242A5.581,5.581,0,0,0,476.222,177.031ZM2.635,159.257c.838.808,8,.991,9.677.2C8.942,159.289,5.847,159.569,2.635,159.257ZM19.686,161.6a3.005,3.005,0,0,0,2.873.007A5.1,5.1,0,0,0,19.686,161.6Zm3.035,1.535c-1.095.283-2.291-.176-3.345.416C20.53,163.708,21.711,164.054,22.721,163.14Zm127.155,24.374a13.751,13.751,0,0,1-13.74-14.245,15.478,15.478,0,0,1,15.6-14.878,13.789,13.789,0,0,1,13.782,13.872A15.491,15.491,0,0,1,149.876,187.514Zm-11.43-13.8A11.332,11.332,0,0,0,150.97,185.4a13.326,13.326,0,0,0,12.042-14.248c-.439-7.46-5.561-11.369-11.944-11.178C143.935,160.19,138.352,166.434,138.446,173.712Zm14.75,20.182a24.3,24.3,0,0,1-18.206-6.374C135.988,191.571,150.1,196.4,153.2,193.894ZM131.86,181.182c-.741-2-1.888-3.883-1.785-6.136.011-.244-.115-.523-.345-.465-.34.085-.433.429-.39.772a13.265,13.265,0,0,0,2.525,6.188A1.1,1.1,0,0,0,131.86,181.182Zm-.971-15.6a.314.314,0,0,0-.163-.444.426.426,0,0,0-.5.337,19.517,19.517,0,0,0-.876,6.259C130.038,169.724,130.071,167.562,130.889,165.586ZM146.6,191.894l-5.76-2.442C141.6,190.773,145.632,192.386,146.6,191.894Zm-14.876-21.313a8.909,8.909,0,0,0,.321,5.056C132.462,173.9,131.989,172.253,131.724,170.581Zm10.825,18.634a13.291,13.291,0,0,0,4.435,1.689l.143-.375-4.426-1.715Zm15.1,4.244a15.549,15.549,0,0,0,3.292-2.786l-.281-.337-3.367,2.711Zm265.009-4.365c-7.436-.021-13.706-5.984-14.819-13.4-1.012-6.743,3.046-13.788,8.663-15.6,9.813-3.173,16.478,2.015,18.928,10.283,2.363,7.976-1.76,16.017-9.159,18.222A11.307,11.307,0,0,1,422.66,189.094Zm11.193-15.344c-.706-3.848-1.574-8.479-6.282-11.243a11.038,11.038,0,0,0-10.18-.832c-6.458,2.66-8.549,8.869-7.028,15.054,1.289,5.241,6.1,9.481,11.031,9.876C428.484,187.172,433.747,182.134,433.853,173.75Zm-19.411,21.27a52.843,52.843,0,0,1-6.4-6.252,38.809,38.809,0,0,1-4.827-7.912C402.706,184.026,410.611,193.92,414.442,195.02Zm-11-17.619a50.045,50.045,0,0,1-.837-6.508C401.829,172.079,402.342,176.047,403.442,177.4Zm2.347-2.082q-.376-2.539-.754-5.079c-.616,1.813,0,3.446.337,5.119Zm14.3,18.337c-1.2-.964-2.725-1.343-4.041-2.1-.166-.095-.465-.126-.545.171-.074.278.176.406.364.491,1.344.608,2.7,1.2,4.045,1.792Zm-2.83.945a.475.475,0,0,0-.578.192.251.251,0,0,0,.186.4c1.224.109,2.36.953,3.671.281C419.446,195.181,418.351,194.9,417.26,194.6Zm-10.623-15c-.047-.144-.169-.341-.387-.176-.149.112-.269.277-.173.464a12.489,12.489,0,0,0,2.116,3.685C407.888,181.926,407.04,180.847,406.637,179.6Zm-1.871,1.623a4.619,4.619,0,0,0,1.713,2.764A4.889,4.889,0,0,0,404.766,181.221Zm-249.458-.394a68.185,68.185,0,0,1-8.27,1.749C148.576,183.351,154.3,182.088,155.308,180.827Zm-13.879-9.85c-1.446,1.632-1.431,5.966.086,7.032C140.295,175.626,141.219,173.382,141.429,170.977Zm10.257-5.188a.388.388,0,0,0-.511.3c-.063.217.071.316.277.35a10.758,10.758,0,0,1,4.385,2.306A6.122,6.122,0,0,0,151.686,165.789Zm8.344,2.3a13.716,13.716,0,0,0-2.677-3.489c-.217-.225-.651-.5-.9-.02-.265.506.284.382.49.54a5.032,5.032,0,0,1,.876.83c.7.882,1.364,1.791,2.16,2.847C160.01,168.418,160.092,168.218,160.03,168.088Zm-13.6-4.715a.364.364,0,0,0,.123-.572c-.139-.183-.306-.142-.462-.025-1.174.876-2.465,1.625-3.128,3.056C144.135,165.008,145.236,164.126,146.43,163.373ZM149,179.605c-.229,0-.479.051-.519.311-.044.279.18.374.421.388a7.416,7.416,0,0,0,3.69-.7C151.394,179.6,150.2,179.6,149,179.605Zm5.355-14.326,2.689,1.74c-.393-1.329-1.43-1.7-2.453-2.092Zm-9.588,2.019a37.843,37.843,0,0,1,2.793-2.594A3.123,3.123,0,0,0,144.766,167.3Zm5.744,10.809a4.3,4.3,0,0,0,2.708-1.081C152.345,177.261,151.241,176.912,150.51,178.107Zm-8-1.482a4.708,4.708,0,0,0,.1-2.831C141.956,174.724,142.259,175.673,142.509,176.625Zm277.48,7.3c-.153-.049-.4-.011-.394.226a.585.585,0,0,0,.238.439,4.659,4.659,0,0,0,2.69.607,16.2,16.2,0,0,0,7.074-2.994c.543-.4,1.359-.789,1.2-1.707C427.536,182.793,424.394,185.33,419.989,183.927Zm-4.778-19.163c-1.5.692-3.759,5.1-3.739,7.128A54.894,54.894,0,0,1,415.211,164.764Zm3.188-1.66a41.164,41.164,0,0,1,6.214-.247C423.26,161.856,419.483,162.015,418.4,163.1Zm-2.417,4.02a.362.362,0,0,0-.027-.49c-.245-.207-.415,0-.524.187-.761,1.279-1.6,2.531-1.508,4.144C414.6,169.672,415.2,168.348,415.982,167.124Zm-2.945,11.294c-.132-.215-.228-.555-.561-.356-.292.175-.179.454-.034.709a5.582,5.582,0,0,0,2.473,2.7Q413.976,179.946,413.037,178.418Zm10.423-14.354c-1.138.058-2.338-.369-3.344.741l3.379-.333Zm-9.078,14.067-.334.269c.56.916.96,1.955,2.265,2.272Zm14.965.972c-1.04.832-1.806,1.447-2.573,2.061C428.045,181.179,428.8,180.548,429.347,179.1Zm-1.979-13.828c-.234-.113-.325.006-.409.161-.126.232.108.363.222.4a7.2,7.2,0,0,1,2.078,1.522C429.069,165.979,428.185,165.668,427.368,165.275Zm-10.388,3.292c.034-.133-.277-.2-.416-.04a2.305,2.305,0,0,0-.522,2.114c0,.021.059.031.245.118C416.527,170.026,416.79,169.306,416.98,168.567Z" fill="#151611"/>
</svg>
