<svg xmlns="http://www.w3.org/2000/svg" viewBox="0 0 157.359 245.07">
  <path d="M83.744,245.055c-.071,0-.141,0-.211,0a142.857,142.857,0,0,1-19.817-1.024,89.153,89.153,0,0,1-18.078-4.043,47.527,47.527,0,0,1-9.963-4.431,12.82,12.82,0,0,1-3.53-2.95A5.79,5.79,0,0,1,30.819,228c.252-1.47.093-3.054.231-4.589a30.2,30.2,0,0,1,2.637-9.6c.824-1.852,1.932-3.575,2.786-5.415,2.067-4.454,5.848-6.818,10.207-8.448a37.591,37.591,0,0,1,9.5-2.541c.589-.057.4-.49.4-.788-.042-2.352-.136-4.7-.162-7.055-.1-9.309-.1-18.62-.328-27.925a19.415,19.415,0,0,1,1.339-8.6A6.253,6.253,0,0,1,60.4,149.67a.884.884,0,0,0,.627-.92,4.541,4.541,0,0,1,2.641-4.165,20.956,20.956,0,0,1,9.111-2.613c.937-.061,1.113-.4,1.12-1.28.029-3.514-.217-7.019-.241-10.529a.9.9,0,0,0-.394-.88,37.133,37.133,0,0,1-9.293-9.657,66.673,66.673,0,0,1-7.145-11.886.806.806,0,0,0-.582-.543,39.556,39.556,0,0,1-8.508-3.575c-3.368-1.682-6.485-3.782-9.7-5.706a29.582,29.582,0,0,1-6.906-5.979,23.945,23.945,0,0,0-2.066-1.783,67.83,67.83,0,0,1-15.3-19.889A77.94,77.94,0,0,1,7.373,51.837C5.97,45.324,4.218,38.882,2.74,32.379c-.7-3.08-.781-6.254-1.406-9.342A53.446,53.446,0,0,1,.2,15.475c-.162-2.911-.652-5.868.884-8.646a3.213,3.213,0,0,1,2.785-1.92c4.489-.153,8.977-.27,13.474-.122,2.411.08,4.834-.186,7.252-.294a9.682,9.682,0,0,1,4.1.691c.334.135.633.276.672.71.132,1.485.334,2.966.4,4.453.029.6.249,1.155.239,1.747-.006.356.2.379.486.339a38.327,38.327,0,0,1,7.141-.336c.477.023.545-.153.619-.582.331-1.913.3-3.9,1.228-5.7a2.766,2.766,0,0,1,1.793-1.5A96.509,96.509,0,0,1,52.418,1.9C55.872,1.4,59.351,1.17,62.8.7a5.485,5.485,0,0,1,.737-.024C72.487.615,81.423.049,90.375.191,91.581.21,92.8.251,94.012.24,98.607.2,103.2-.129,107.8.057a44.8,44.8,0,0,1,14.455,2.651c2.11.811,2.691,2.332,2.844,4.255a18.945,18.945,0,0,1,0,3.16c-.077.875.283,1,1,.87,1.239-.22,2.48-.436,3.727-.606.5-.069.4-.379.4-.682-.009-1.511-.042-3.022-.021-4.533.026-1.882.713-2.5,2.631-2.613q8.514-.484,17.042-.445c.8.005,1.606-.155,2.41-.168,3.051-.049,4.19.893,4.668,3.877a53.068,53.068,0,0,1,.241,11.142,142.985,142.985,0,0,1-2.814,21.9,114.045,114.045,0,0,1-9.614,27.624,105.084,105.084,0,0,1-11.584,17.751c-2.192,2.809-4.308,5.673-6.678,8.341a46.3,46.3,0,0,1-13.514,10.257c-2.075,1.078-3.946,2.582-6.317,3.047-.393.077-.388.47-.523.731-1.623,3.145-2.937,6.465-4.885,9.424-2.659,4.041-5.167,8.192-8.2,11.981a2.2,2.2,0,0,1-.4.485c-1.517,1.037-1.548,2.5-1.389,4.144a55,55,0,0,1-.325,8.2c-.044.832.136,1.157,1.011,1.224A42.007,42.007,0,0,1,101.2,144a4.337,4.337,0,0,1,3.269,4.183c.069.649-.087,1.529.87,1.782,1.849.49,2.332,2.013,2.942,3.578,1.2,3.075,1.027,6.264,1.033,9.434q.033,16.338-.059,32.676c-.006,1.077.369,1.35,1.33,1.567a58.255,58.255,0,0,1,13.2,4.166c2.507,1.239,4.736,2.759,5.886,5.459a1.294,1.294,0,0,0,.394.48c3.071,2.388,4.643,5.74,5.972,9.252a29.575,29.575,0,0,1,1.707,12.208,11.8,11.8,0,0,1-1.516,4.834,3.2,3.2,0,0,1-1.367,1.118c-5.771,3.481-12.123,5.386-18.613,6.955a121.585,121.585,0,0,1-12.267,2.251c-3.292.447-6.609.672-9.922.94C90.615,245.161,87.179,244.917,83.744,245.055ZM117.75,24.309c-.8-.167-1.434.32-2.472.53a10.06,10.06,0,0,1,1.671,1.548c.711,1.083,1.516.994,2.473.478-.429-.973-1.518-1.476-1.693-2.582.75.2,1.052.886,1.408,1.431a1.5,1.5,0,0,0,2.4.51c-.621-.595-1.272-1.13-1.81-1.76A1.219,1.219,0,0,0,117.75,24.309ZM54.858,103.738l.033.038c-.36-.991-.486-2.2-1.526-2.711A89.146,89.146,0,0,1,38.9,92.327C32.694,87.656,28.037,81.6,23.47,75.456a60,60,0,0,1-4.95-8.462c-1.776-3.446-3.494-6.913-4.92-10.509A77.829,77.829,0,0,1,8.862,38.767C7.934,32.3,6.344,25.938,5.871,19.4A47.948,47.948,0,0,1,5.7,11.1,2.426,2.426,0,0,1,8.489,8.651c2.388.037,4.771.011,7.161-.115,2.682-.141,5.374-.508,8.07.105.809.184,1.133.493,1.238,1.253.331,2.4.693,4.792,1.045,7.188a46.56,46.56,0,0,0,3.4,12.741c2.016,4.406,5.339,7.293,10.445,7.921a7.494,7.494,0,0,1-.127-2.09c0-.783-.095-1.344-1.141-1.286a3.46,3.46,0,0,1-2.032-.778,13.147,13.147,0,0,1-4.073-4.615,30.207,30.207,0,0,1-2.788-8.4A79.286,79.286,0,0,1,27.929,8.128c-.115-2.054-.066-2.1-2.178-2.2-.035,0-.07,0-.106,0-2.283-.119-4.557.085-6.836.17-4.456.167-8.917.237-13.376.241C2.884,6.341,1.7,7.561,1.6,10.376a40.664,40.664,0,0,0,.673,8.165c.278,1.648.07,3.436,1.331,4.887.462.533-.087,1.468-.038,2.114a42.811,42.811,0,0,0,1.085,6.616c1.4,5.87,2.922,11.71,4.356,17.571.966,3.947,1.294,8.053,3.07,11.8,1.052,2.219,1.544,4.667,2.671,6.859A70.592,70.592,0,0,0,26.133,84.3c4.937,5.285,9.91,10.5,16.3,14.157,3.565,2.039,7.087,4.134,10.841,5.809a6.681,6.681,0,0,0,2.249.643C55.272,104.436,55.277,103.976,54.858,103.738Zm49.263-71.3v.01c.046-.41-.3-.59-.493-.868-1-1.461-2.657-2.364-3.429-4.026-.179-.385-.55-.379-.962-.251l1.387,1.922c-1.394-.431-1.5-2.431-3.216-1.867l1.5,1.855c-1.291-.523-1.749-2.3-3.611-1.783.287-.54.774-.3.913-.806-.979-.507-1.009-2.465-2.877-1.962.316.886,1.1,1.369,1.132,2.274a5.929,5.929,0,0,1-1.225-1.5,1.259,1.259,0,0,0-1.744-.626c.663.971,1.616,1.669,2.1,2.9a3.257,3.257,0,0,1-1.258-1.171c-.869-1.413-1.972-2.2-3.694-1.6a.9.9,0,0,0-.115.067c.76,1.4,1.934,2.52,2.737,3.9a9.673,9.673,0,0,1-2.7-3.02,1.8,1.8,0,0,0-2.336-.852c.483,1.01,1.445,1.682,1.7,2.789a6.242,6.242,0,0,1-1.822-2.2c-.347-.735-.751-.8-1.472-.6a21.463,21.463,0,0,1,1.662,2.54,5.787,5.787,0,0,1-1.9-2.054,1.129,1.129,0,0,0-1.081-.574c-1.332.039-2.667.01-4,.017-4.986.027-9.957-.214-14.925-.634-2.966-.251-5.916-.6-8.862-1.015-2.347-.329-4.658-.837-7.009-1.313.466,1.594,1.7,1.909,3.047,2.106,1.327.194,2.642.467,3.963.706l-.048.3c-1.159.065-2.279-.477-3.5-.375.254.921,1.2,1.428,1.293,2.388.005.054.236.1.367.123.515.08,1.032.15,1.549.217q3.6.474,7.211.943l-.017.274a42.687,42.687,0,0,1-6.3-.6,45.535,45.535,0,0,1-6.356-1.26c.019.659.7.883.658,1.486-.456-.052-.616-.383-.784-.671a3.277,3.277,0,0,0-2.087-1.525,8.562,8.562,0,0,1-1.791-.477c-1.844-.967-3.789-1.741-5.694-2.589-.228,1.65.665,2.258,1.99,2.814,2.763,1.158,5.633,1.961,8.47,2.875l2.785.9c-1.27.338-2.044-.427-2.9-.4-.046.456.541.626.474,1.212A5.605,5.605,0,0,1,49.6,29.1c-.388-.485-1.008-.5-1.7-.609.574,1.085,1.143,2.3,2.015,2.661A15.583,15.583,0,0,0,55.846,32.3c.058-.484-.561-.755-.194-1.212,1.363,1.469,1.363,1.469,2.376,1.39l-1.706-2.607c8.724,1.452,17.35,1.507,25.943,2.046-6.217.028-12.422-.116-18.58-.622.581,2.539,2.6,2.1,4.41,2.183-2.3.568-4.572.1-6.838-.079-.109.329.529.353.191.777-.643-.347-1.14-1.132-2.057-.846.118.586.889.773.931,1.6a3.939,3.939,0,0,1-1.369-1.364c-.449-.677-1.076-.337-1.642-.442-.014.474.672.541.428,1.031-.368.049-.549-.235-.669-.442a2.209,2.209,0,0,0-1.927-.976,33.9,33.9,0,0,1-4.407-.789,15.043,15.043,0,0,0-2.928-.677L49.134,33.3c-1.461-.708-1.644-2.958-3.877-2.862.714,1.126,1.355,2.155,2.018,3.17a1.445,1.445,0,0,0,.955.594c2.834.639,5.683,1.2,8.544,1.7A133.2,133.2,0,0,0,76.892,37.51a195.274,195.274,0,0,0,28.376-1.585c3.507-.433,6.968-1.052,10.488-1.792-.339-.3-.614-.566-.905-.807-.451-.374-.907-.193-1.371,0-.711.29.475.549-.018.839-.437-.223-.769-.717-1.372-.618-.157.025-.287-.125-.133-.256.434-.368-.009-.512-.168-.712-.24-.3-.524-.568-.753-.877-.105-.142-.341-.315-.1-.537.209-.192.282.105.421.127.423.065.949.275,1.016-.444.022-.235.188-.235.261-.171.737.644,1.441.085,2.159-.026.214-.033.49-.157.624.277l-1.742.474c.551.7.889,1.218,1.971.96,2.237-.532,4.339-1.454,6.552-2.023.811-.208.958-.642.742-1.376-1.071.319-2.095.636-3.128.923-.249.069-.5.288-.758-.143-1.093-1.854-1.112-1.843-3.083-1.448-.085.017-.166.049-.309.092l1.1,1.534c-.6,0-.713-.374-.912-.622a1.339,1.339,0,0,0-1.645-.636,26.31,26.31,0,0,1-4.7.844c-.807.076-1.648.535-2.781-.007.906-.153,1.531-.26,2.156-.364,1.712-.287,3.426-.562,5.135-.863.652-.114.727-.382.223-.867a.7.7,0,0,0-.894-.214,7.97,7.97,0,0,1-1.606.419c-.209.038-.76.267-.428-.379.133-.258-.091-.382-.2-.531-.57-.77-1.247-.833-2.572-.26.074.526.734.79.694,1.5-.642-.3-.808-.89-1.2-1.265a.721.721,0,0,0-1.03-.1c-.463.329.082.5.152.743.117.411.628.624.655,1.335a4.138,4.138,0,0,1-1.234-1.426c-.257-.352-.5-.761-.988-.6a10.729,10.729,0,0,1-2.384.223l1.058,1.515a2.258,2.258,0,0,1-1.193-.9c-.419-.435-.416-.438-1.093-.266.126.53.828.775.731,1.428-.917-.242-.929-1.755-2.1-1.585-.091.868.721.9,1.044,1.362,1.161,1.673,2.666,3.075,3.846,4.714.761,1.056,1.53.981,2.639.753a48.917,48.917,0,0,1-4.207-5.415c.708.14.859.566,1.135.865,1.46,1.58,2.287,3.752,4.592,4.8a33.858,33.858,0,0,1-5.456.538c.481-.339,1.1-.246,1.665-.657C105.175,33.493,104.846,32.761,104.121,32.435ZM33.331,222.117c-.122.49-.217.989-.372,1.469-.4,1.242.186,1.92,1.221,2.515a87.626,87.626,0,0,0,20.2,8.213,8.66,8.66,0,0,1,2.918,1,83.574,83.574,0,0,1-24.467-9.428c-.571,2.8-.634,2.333,1.635,3.662a71.107,71.107,0,0,0,13.066,5.923,83.657,83.657,0,0,0,11.586,2.895c5.8,1.09,11.581,2.247,17.529,2.063a.873.873,0,0,1,1.05.588c-16.031-.646-31.207-3.745-45.051-11.981-.227,1.248-.159,1.3.852,2.257,4.544,4.318,10.115,6.594,16.072,8.06a131.139,131.139,0,0,0,17.877,3.018,150.3,150.3,0,0,0,15.915.926c2.288-.007,4.611-.155,6.914-.285,4.335-.244,8.654-.6,12.965-1.1a109.726,109.726,0,0,0,17.089-3.213,51.222,51.222,0,0,0,14.311-5.955c.726-.471.785-1.07.794-1.941a8.288,8.288,0,0,1-2.632,1.393c.926-1.387,3.4-1.23,3.041-3.506-.633.12-.96.785-1.741.71.569-.642,1.349-.881,1.77-1.429.465-.606.226-1.41.1-2.209-.647.378-.942,1.1-1.961,1.118.53-.488.915-.824,1.278-1.183.265-.261.7-.42.667-.887a25.74,25.74,0,0,0-.661-4.453c-2.482,1.9-6.824,4.314-7.848,4.257.578-.344,1.01-.61,1.45-.862a41.584,41.584,0,0,0,5.709-3.468.984.984,0,0,0,.212-1.595,5.436,5.436,0,0,1-2.876,1.32,18.1,18.1,0,0,1,2.38-1.524c.4-.21.405-.419.27-.762a41.563,41.563,0,0,0-2.18-4.765c-1.344,1.88-3.227,2.943-5.175,4.185-.047-.55.186-.53.312-.627,1.455-1.125,3.131-1.984,4.236-3.531.158-.221.46-.4.233-.718a10.6,10.6,0,0,0-2.131-2.636,8.158,8.158,0,0,1-2.13,3.418,19.42,19.42,0,0,1-7.381,4.146c-8.817,3.11-18,4.27-27.267,4.592A180.572,180.572,0,0,1,75,221.667c-3.036-.2-6.061-.453-9.08-.842A89.153,89.153,0,0,1,49.752,217.4c-4.513-1.465-9.085-2.971-11.714-7.6-.353.72-.627,1.363-.973,1.965-.31.539-.156.812.308,1.2a36.415,36.415,0,0,0,6.349,4.215c.7.367,1.378.774,2.172,1.222a1.117,1.117,0,0,1-1.071-.132,40.755,40.755,0,0,1-6.569-4.053c-1.741-1.439-1.751-1.393-2.611.637a.753.753,0,0,0,.3,1.113,44.378,44.378,0,0,0,3.95,2.537c1.455.833,2.906,1.671,4.38,2.472a36.826,36.826,0,0,1-9.136-4.959,6.855,6.855,0,0,1-.355.923c-.449.8-.2,1.175.583,1.678,4.493,2.877,9.49,4.591,14.441,6.41,1.525.56,3.1.976,4.756,1.489-.687.44-1.236.073-1.709-.075-6.24-1.943-12.417-4.05-17.966-7.62-.495-.319-.712-.2-.839.3-.253,1.008-.5,2.019-.745,3.028ZM44.591,63.573c.568,2.99,1.128,5.831,1.634,8.682a.992.992,0,0,0,.927.945c.928.139,1.869.222,2.776.444a5.488,5.488,0,0,1,2.4.619,25.406,25.406,0,0,1-5-.567c-.234-.042-.53-.194-.625.105a1.016,1.016,0,0,0,.158.69,1.038,1.038,0,0,0,.7.395c.788.22,1.576.444,2.567.725a3.372,3.372,0,0,1-2.374-.214c-.262-.062-.652-.323-.635.287.035,1.263.508,1.776,1.788,1.876.162.013.258,0,.264.173-.388.479-.935,0-1.4.229a15.8,15.8,0,0,1,.565,2.128,2.662,2.662,0,0,0,2.808,2.573c.14.008.28.014.42.028l5.1.519-.022.286a31.522,31.522,0,0,1-7.436-.788c.456,1.445.878,2.8,1.314,4.152.072.226.153.449.48.471.659.046,1.315.141,1.973.209,1.678.173,3.357.342,5.136.523a1.068,1.068,0,0,1-1.126.309c-1.776-.16-3.548-.361-5.322-.54-.269-.027-.657-.313-.749.194a1.546,1.546,0,0,0,1.413,1.622c1.5,0,3,0,4.6,0-.349.534-.732.412-1.063.416-1.2.014-2.39,0-3.584.016-.216,0-.678-.192-.573.315s.125,1.081.932,1.177c1.257.151,2.505.39,3.786.453-.106.409-.381.376-.616.358-.905-.07-1.808-.154-2.711-.244-.23-.023-.48-.308-.677-.071s.047.524.135.773a97.432,97.432,0,0,0,3.882,9.2,1.143,1.143,0,0,0,.909.713,13.133,13.133,0,0,0,3.562.125c-1.213.812-2.548.387-3.85.362,1.027,2.4.479,2.4,3.328,2.429.445,0,.891,0,1.336,0l0,.318c-1.08.251-2.223-.015-3.372.16a45.343,45.343,0,0,0,4.872,9.168.555.555,0,0,0,.508.283c1.3.048,2.591.128,3.888.177a5.14,5.14,0,0,0,.727-.106c.237-.028.507-.239.746.2-1.726.685-3.484.188-5.284.137.473,1.114,1,1.792,2.271,1.76.868-.022,1.744-.033,2.617-.058a1.136,1.136,0,0,1,1.048.246,10.992,10.992,0,0,1-4.43.245c.469,1.269,1.173,2.037,2.649,1.829a19.437,19.437,0,0,1,2.678-.022l-.009.41H66.781c.359.473.561.75.774,1.018a84.121,84.121,0,0,0,5.893,6.456c.435.445,1.009.837,1.09,1.5a27.972,27.972,0,0,1,.171,2.822c.04,2.089.109,2.193,2.215,2.556,1.136.2,2.278.364,3.687.587a2.214,2.214,0,0,1-1.549.231c-1.2-.187-2.39-.433-3.582-.669-.187-.037-.413-.271-.51.04-.074.24-.155.574.247.688.2.056.389.132.589.176.852.187,1.706.366,2.559.548-1.165.431-2.21-.144-3.377-.216A10.93,10.93,0,0,1,75,139.3c-.181.749.163.98.78,1.171a4.416,4.416,0,0,1,2.015.727,8.628,8.628,0,0,1-2.253-.315c-.194-.013-.449-.417-.588.023-.1.309.073.493.4.618.459.177,1.031.058,1.495.556a2.147,2.147,0,0,1-1.4-.1c-.162-.078-.435-.111-.5.187-.054.245.08.332.309.441.5.239,1.117.234,1.616.66-.736.372-1.264-.208-1.865-.2-.091.883-.107.942.386,1.075a33.175,33.175,0,0,0,9.027,1.395c1.389-.016,2.776-.172,4.163-.265a10.566,10.566,0,0,1-5.058.774,44.572,44.572,0,0,1-8.115-1.364c-.135-.035-.369-.336-.484.04a.388.388,0,0,0,.17.46,5.01,5.01,0,0,0,.654.32c4.371,1.864,8.813,1.708,13.306.5.779-.208.928-.629.921-1.358-.046-4.56-.046-9.121-.074-13.681a1.985,1.985,0,0,1,.364-1.156c1.668-2.6,3.765-4.892,5.342-7.551a69.9,69.9,0,0,1,3.9-6.2c-.682-.2-1.174.412-1.832,0,1.153-.638,2.841-.529,3.042-2.321a5.406,5.406,0,0,1-2.309.31c2.812-.16,3.625-2.148,4.241-4.349-.974.046-1.88.7-2.924.444a17.566,17.566,0,0,0,3.133-1.171c.958-.645,1.113-1.954,1.6-3.109a17.892,17.892,0,0,1-3.189.819.862.862,0,0,1,.782-.522,4.916,4.916,0,0,0,4.06-3.665c.591-1.684,1.427-3.283,2.185-4.988-.777,0-1.314.445-2,.22.657-.785,1.92-.234,2.328-1.239.356-.875.654-1.774.979-2.662.06-.164.133-.324.191-.49.555-1.6,1.108-3.2,1.684-4.87-1.8.219-3.4.846-5.078.583a37.061,37.061,0,0,1,4.071-.876c.868-.14,1.511-.437,1.459-1.488-.925-.1-1.829.474-2.776.118.209-.52.682-.2,1-.334.747-.31,1.828.1,2.222-.962.3-.82.54-1.664.8-2.471-.32-.33-.766.08-1.393-.567,2,.5,1.931-.905,2.275-1.851.587-1.611,1.084-3.255,1.593-4.893a7.807,7.807,0,0,0,.558-2.343,7.962,7.962,0,0,1-2.868.629c2.09-.654,4.18-1.276,3.716-4.115a23.351,23.351,0,0,1-4.551.384,13.053,13.053,0,0,1,3.531-.669c.949-.145,1.787-.35,1.51-1.588l-2.306.27a2.6,2.6,0,0,1,1.678-.638,2.282,2.282,0,0,0,1.424-2.514c-.2-.785-.995-.214-1.493-.379-.165-.055-.4.075-.523-.186.453-.372.961-.213,1.428-.23a.886.886,0,0,0,.96-.775,53.155,53.155,0,0,0,1.026-6.06,18.331,18.331,0,0,1-3.65.29,2.6,2.6,0,0,1,1.462-.43c2.135-.141,2.271-.263,2.528-2.03.182-1.252.125-1.233-1.2-1.035a13.987,13.987,0,0,1-3.717.3c.046-.4.312-.365.558-.391,1.282-.137,2.565-.276,3.846-.429.476-.057.872-.2.911-.807.136-2.165.481-4.3.813-6.446.057-.367.033-.569-.5-.449-.908.2-1.849.261-2.868.391A.772.772,0,0,1,118.6,46c.79-.128,1.575-.287,2.365-.414.918-.148.54-.867.54-1.339,0-.593-.488-.314-.792-.266a2.044,2.044,0,0,1-1.477-.086,5.4,5.4,0,0,1,1.761-.4c.753-.01.73-.471.749-.984.028-.751-.533-.5-.887-.5-.595,0-1.18.374-1.906.043a2.173,2.173,0,0,1,1.518-.422c1.1.031,1.479-.326,1.6-1.469.1-.97-.1-.995-.884-.824-1.049.228-2.118.361-3.228.543.07-.533.412-.448.6-.489.984-.216,1.98-.379,2.972-.559a1.619,1.619,0,0,0,.8-1.65c-.194-.457-.658-.248-.993-.175a2.653,2.653,0,0,1-1.47.038,1.618,1.618,0,0,1,1.479-.453c1.06.088,1.077-.618,1.213-1.266.1-.472.1-.831-.619-.572-1.017.365-2.071.634-3.12.9-4.042,1.03-8.144,1.736-12.266,2.379-3.789.591-7.588.953-11.4,1.25-1.963.153-3.926.146-5.887.261a136.641,136.641,0,0,1-16.114-.169c-4.543-.271-9.07-.789-13.59-1.362a86.294,86.294,0,0,1-14.186-2.832c-1.45-.439-2.873-.967-4.335-1.463-.044,1.832,0,1.89,1.513,2.45,1.041.385,2.093.729,3.169,1.01,1.152.3,2.283.684,3.423,1.03l-.073.256a52.992,52.992,0,0,1-7.734-2.21c.108.787-.173,1.58.911,1.89,2.232.639,4.433,1.385,6.639,2.111.286.094.75-.139.877.575-2.814-.591-5.414-1.634-8.093-2.415-.1,1.181-.1,1.173.964,1.5,1.656.512,3.313,1.02,4.955,1.575.242.081.7-.1.749.6l-6.67-1.937c.061.436.123.776.153,1.118.27,3.058.391,6.128.819,9.173.138.979-.139,2.185.572,2.857a5.973,5.973,0,0,0,2.816.975c.94.209,1.861.5,2.791.761l-.08.293a32.12,32.12,0,0,1-5.581-1.443c-.118,1.281-.111,1.259,1.113,1.645,2,.631,3.985,1.294,5.977,1.943l-.081.283c-2.325-.418-4.5-1.419-6.8-1.964.132,2.429.219,2.544,2.4,3.187.133.04.27.062.4.1,1.986.543,4.036.753,6.039,1.229a24.463,24.463,0,0,1-8.224-1.41c-.025,1.269.057,1.452,1.092,1.811,1.179.409,2.4.692,3.567,1.141.513.2,1.163-.016,1.731.623-2.276.033-4.1-1.027-6.077-1.491.11,2.526.186,1.982,2.058,2.593,1.518.495,3.13.472,4.657.945A17.516,17.516,0,0,1,44.591,63.573Zm19.2,100.412c-.176.349-.369.321-.527.29-1.4-.273-2.8-.535-4.185-.846-1.931-.432-1.852-.448-1.9,1.534-.026,1.113.817.947,1.377,1.184a6.7,6.7,0,0,0,1.322.262q1.931.378,3.86.763l-.052.281a35.9,35.9,0,0,1-6.273-1.12c0,3.07.011,6.123-.01,9.176a.719.719,0,0,0,.646.791c.981.229,1.964.453,2.952.646,1.046.2,2.1.369,3.149.551l-.048.268a31.166,31.166,0,0,1-6.595-1.076c-.134,2.06-.313,1.483,1.327,2.135a15.224,15.224,0,0,0,2.3.647c1.015.228,2.041.41,3.065.595s2.051.349,3.077.522l-.065.344a41.656,41.656,0,0,1-9.576-2.015c0,1.983.049,3.947-.023,5.906-.031.828.308,1.066,1.026,1.2a6.158,6.158,0,0,1,2.527.665,14.689,14.689,0,0,1-3.46-.348c-.074,1.25-.081,1.277,1.006,1.525q1.935.442,3.908.706a5.922,5.922,0,0,1,2.174.425,2.239,2.239,0,0,1-1.482.144c-1.5-.29-3.037-.4-4.523-.8-.955-.259-1.2.059-1.018,1.048.113.6.627.515.971.6,1.972.465,4,.6,6,.873.345.047.726-.012,1.064.5a52.991,52.991,0,0,1-7.956-1.105c0,1.542.006,3.045,0,4.548,0,.355.2.388.48.522.512.248,1.166-.024,1.81.606-.67-.038-1.113-.037-1.549-.1-.288-.039-.646-.337-.718.2-.053.4-.128.869.518.946.5.061.995.19,1.564.3-.4.488-.788.3-1.188.2-.3-.072-.742-.319-.825.222-.062.4-.181.848.553,1,.677.142,1.424,0,2.053.433a3.551,3.551,0,0,1-1.912.049c-.222-.06-.495-.232-.585.14-.067.275-.064.6.254.729a8.108,8.108,0,0,1,1.09.311c.485.282,1.169-.043,1.631.57a3.663,3.663,0,0,1-.719.036c-.545-.093-1.084-.225-1.627-.337-.224-.047-.463-.2-.615.144a1.21,1.21,0,0,0,.822,1.663c1.892.446,3.8.832,5.679,1.322.412.108.963-.022,1.49.68a80,80,0,0,1-7.916-1.688c-.275.861.066,1.292.912,1.492.807.191,1.583.509,2.383.732,1.813.5,3.689.774,5.544,1.432a.654.654,0,0,1-.81.193c-2.308-.625-4.674-1.03-6.944-1.811-.269-.092-.729-.6-.933.034a.843.843,0,0,0,.5,1.188c1.014.35,2,.791,3.034,1.07a75.069,75.069,0,0,0,16.186,2.442,30.369,30.369,0,0,0,5.879.213,11.836,11.836,0,0,1,4.287.306c-10.2.272-20.315-.148-30.082-3.652a9.376,9.376,0,0,0,3.552,1.748,71.3,71.3,0,0,0,19.718,2.94,80.479,80.479,0,0,0,17.37-1.024,34.87,34.87,0,0,0,7.661-2.158,2.049,2.049,0,0,0,1.431-2.142c-.065-3.44,0-6.882,0-10.324q0-19.011,0-38.044a34.271,34.271,0,0,1-4.991,2.116c-1.742.639-3.55,1-5.32,1.513a18.978,18.978,0,0,1-5.341.752,3.634,3.634,0,0,1,1.751-.627c4.869-.97,9.332-3.046,13.841-5.006.309-.135.462-.175.28-.538-.327-.654-.455-1.517-.962-1.933-.368-.3-.919.568-1.5.7a.591.591,0,0,0-.1.023c-3.456,1.58-7.172,1.848-10.88,2.081-3.116.2-6.239.283-9.361.374-3.336.1-6.679.191-10.009-.033-3.494-.235-6.977-.646-10.467-.952a12.017,12.017,0,0,1-6.455-2.259l-.415,1.075,3.26,1.474c-.2.245-.31.208-.452.152-.577-.228-1.169-.42-1.739-.664-1.318-.564-1.266-.555-1.752.779-.357.982.458.872.89,1.05a43.411,43.411,0,0,0,12.425,3.446,118.451,118.451,0,0,0,15.45.623,5.3,5.3,0,0,1,2.4.234,12.608,12.608,0,0,1-5.115.923c-8.982.147-17.88-.375-26.185-4.469-.2,2.084-.221,2.139,1.546,2.673,1.855.56,3.744,1.006,5.621,1.491,1.509.39,3.022.764,4.533,1.144l-.086.335c-3.9-.774-7.743-1.809-11.618-2.927-.121.861-.144,1.448,1,1.749C59.953,163.185,61.879,163.42,63.787,163.985ZM52.417,98.769l.2-.206c-1.95-4.472-3.315-9.147-4.857-13.76a96.021,96.021,0,0,1-3.839-14.712c-.593-3.577-1.087-7.172-1.753-10.735A109.649,109.649,0,0,1,40.317,44.1c-.052-1.184-.154-2.37-.194-3.559-.023-.672-.219-1.083-1.106-1.122a7.566,7.566,0,0,1-3.765-1.165,19.5,19.5,0,0,1-8.1-9.921C25.1,22.7,24.266,16.785,23.5,10.873c-.072-.56-.163-.758-.768-.792-2.109-.118-4.21.076-6.316.056-2.6-.024-5.2,0-7.8.02-.588.005-1.266-.057-1.263.855A86.584,86.584,0,0,0,7.7,20.57c.573,5,1.256,9.991,2.28,14.927.941,4.537,1.623,9.126,3.106,13.544a125.449,125.449,0,0,0,5.328,13.943,68.538,68.538,0,0,0,4.943,9.608A92.863,92.863,0,0,0,34.125,85.638,63.1,63.1,0,0,0,47.663,95.927C49.268,96.839,50.834,97.82,52.417,98.769Zm58.415-2.8c1.154-.694,2.081-1.166,2.915-1.767a65.833,65.833,0,0,0,12.378-11.927c3.592-4.4,6.533-9.243,9.834-13.84,3.227-4.5,5.119-9.7,7.057-14.843,2.188-5.807,3.433-11.888,5.108-17.845a82.9,82.9,0,0,0,1.592-9.638,69.153,69.153,0,0,0,.99-14.972,1.566,1.566,0,0,0-1.387-1.645,28.6,28.6,0,0,0-7.933-.31,11.233,11.233,0,0,0-3.734.494c-.355.139-.722.2-.74.733-.035.979-.141,1.955-.219,2.933a53.812,53.812,0,0,1-.824,8.341c-1.254,5.26-3.181,10.155-7.187,14.016a9.263,9.263,0,0,1-3.841,2.274c-.364.109-.765.1-.791.651s-.14,1.107-.2,1.662c-.434,4.167-.809,8.342-1.309,12.5a122.111,122.111,0,0,1-3.052,16.047c-2.181,8.4-4.9,16.644-7.835,24.811C111.412,94.322,111.175,95,110.832,95.97Zm9.911-85.334c.643-.588,1.5-.563,2.248-.86.3-.121.635-.141.637-.554.008-1.273,0-2.546,0-4.052a15.07,15.07,0,0,1-6.208,2.449c-3.109.665-6.291.837-9.424,1.323-3.072.476-6.147.964-9.242,1.165-3.523.229-7.054.324-10.571.669-2.821.277-5.661.286-8.487.378-4.935.16-9.871-.011-14.812-.307-4.36-.26-8.718-.654-13.093-.73a30.346,30.346,0,0,1-5.511-.535,23.892,23.892,0,0,1-6.359-1.82c0,2.5.016,4.886-.012,7.273a.924.924,0,0,0,.654.931,52.464,52.464,0,0,0,6.688,2.87c1.183.4,2.381.745,3.573,1.115a5.88,5.88,0,0,1-3.088-.444,50.788,50.788,0,0,1-7.1-3.016c-.194-.1-.483-.459-.68-.045a.566.566,0,0,0,.194.75c.147.093.29.2.43.3a19.027,19.027,0,0,0,6.2,2.766c7.964,2.319,16.167,2.91,24.395,3.148,5.052.147,10.111.058,15.166-.158,1.611-.069,3.221-.2,4.827-.294,1.256-.077,2.518-.058,3.77-.17,2.909-.26,5.817-.525,8.721-.834q2.838-.3,5.661-.74,3.332-.517,6.643-1.155c2.422-.466,4.835-.983,7.245-1.507.655-.143.461-.734.405-1.14-.081-.592-.457-.156-.715-.126-.374.045-.748.081-1.288.139a1.113,1.113,0,0,1,.928-.533c.8-.047,1.21-.357,1.128-1.3-.108-1.256-.028-2.528-.028-3.793,0-1.659,0-1.65-1.662-1.273C121.585,10.618,121.171,10.578,120.743,10.636ZM109.52,202.609l-.3.014a10,10,0,0,1,.094,3.023c-.012,3.046-.026,3.1-2.89,4.274-.518.212-1.049.4-1.583.56-5.669,1.76-11.543,2.039-17.4,2.277a71.083,71.083,0,0,1-11.017-.353c-3.6-.415-7.212-.767-10.759-1.538a27.129,27.129,0,0,1-8.041-2.965c-.868-.509-1.5-1.117-1.133-2.286a8.434,8.434,0,0,0,.1-1.463c.061-.491-.089-.769-.9-.7a1.514,1.514,0,0,0,.827-2.032c-.271-.624-.892.4-1.651-.127,1.133-.336,2.2-.688,1.63-2.068-.7-.1-1.155.647-1.847.74-.079-.528.569-.449.551-.874-3.612.724-7.316,1.253-9.058,5.284.04-1.281,1.062-1.937,1.568-3.076-2.878,1.087-5.5,2.306-7.449,4.58a3.148,3.148,0,0,0-.023,4.232,9.7,9.7,0,0,0,2.456,2.113c3.5,2.326,7.462,3.525,11.468,4.561a101.66,101.66,0,0,0,14.875,2.384c4.042.425,8.095.621,12.147.76,2.8.1,5.6.035,8.414-.114,3.57-.19,7.121-.491,10.671-.875a87.666,87.666,0,0,0,14.876-2.767,30.793,30.793,0,0,0,10.5-4.735c2.591-1.981,2.636-4.153.135-6.237-.054-.045-.108-.092-.164-.133-4.684-3.474-10.142-4.98-15.722-6.171-.208-.044-.6-.13-.562.236.112,1.033-.435,2.131.444,3.1a2.985,2.985,0,0,1,.818,2.545C110.214,204.016,109.867,203.312,109.52,202.609ZM149.657,49.737a52.132,52.132,0,0,0,2.647-10.2c1.208-6.732,2.206-13.5,2.911-20.3a77.689,77.689,0,0,0,.08-13.667c-.111-1.52-.692-1.927-2.259-1.96-5.061-.108-10.1.53-15.161.424a24.038,24.038,0,0,1-3.778-.168c-1.127-.2-2.2.346-2.225,1.012a22.73,22.73,0,0,0-.155,3.677,46.03,46.03,0,0,1,.137,10.368,16.8,16.8,0,0,1-1.927,7.282c-1.169,1.928-2.363,3.877-4.427,4.964-.751.395-.959.762-.723,1.53.66-.08,1.109-.649,1.875-.832-.493,1.195-2.556.983-2.074,2.8,1.551-.543,2.425-2.021,3.968-2.844a9.1,9.1,0,0,1-3.345,3.011c-.874.326-1.033.891-.873,1.748a8.212,8.212,0,0,0,2.536-1.231c5.09-4.351,7.316-10.038,7.728-16.556.162-2.557.169-5.124.3-7.683.1-1.855.758-2.6,2.58-3.056,3.659-.913,7.391-.6,11.1-.617a5.7,5.7,0,0,1,1.328.229,2.175,2.175,0,0,1,1.88,1.813c.089.491-.026,1.1.59,1.611L151.8,7.1c.744.746,1.453,5.867,1.033,6.981a10.93,10.93,0,0,1-.465-2.211,91.1,91.1,0,0,1-.695,13.016c-.341,2.642-.376,5.324-.968,7.931-1.326,5.834-2.91,11.6-4.57,17.348a75.645,75.645,0,0,1-4.6,11.572c-2.346,4.914-5.916,9.035-8.7,13.671a67.269,67.269,0,0,1-9.2,12.114c-3.455,3.585-6.956,7.149-11.458,9.495a23.9,23.9,0,0,0-2.26,1.511l.142.216,2.35-1.334c-.356.917-1.189,1.222-1.913,1.6a2.47,2.47,0,0,0-1.613,2.068c3.969-1.63,7.2-4.264,10.7-6.575.031.565-.341.732-.6.914-3.039,2.156-6.017,4.424-9.478,5.88a3.408,3.408,0,0,0-1.984,2.45.977.977,0,0,0,.742-.267c2.706-1.626,5.388-3.294,8.119-4.878a35.676,35.676,0,0,0,11.116-9.973c2.062-2.839,4.062-5.726,6.2-8.5a88.75,88.75,0,0,0,7.769-11.093c2.04-3.685,3.619-7.6,5.5-11.358a7.364,7.364,0,0,0,.882-2.543c-.373.178-.26.71-.9.763a108.226,108.226,0,0,0,3.415-10.847C150.6,46.683,149.748,48.134,149.657,49.737ZM47.416,8.2c2.653.218,5,.533,7.363.751,1.352.125,2.718.177,4.068.29a23.042,23.042,0,0,0,5.129.237c1.282-.179,2.571-.273,3.856-.408,2.033-.212,4.07-.068,6.1-.213a66.187,66.187,0,0,1,10.3,0,23.363,23.363,0,0,0,3.448.189c3.134-.2,6.258-.556,9.392-.77,2.242-.153,4.461-.462,6.8-.7C96.743,5.859,89.676,6.31,82.528,7.1a.673.673,0,0,1,.762-.531c1.919-.137,3.842-.241,5.755-.433a48.321,48.321,0,0,1,13.987.785,10.88,10.88,0,0,0,3.3.456c1.108-.127,2.219-.235,3.324-.384,2.434-.327,4.883-.569,7.329-1.13A2.532,2.532,0,0,0,115.73,4.7a21.153,21.153,0,0,0-5.277-1.534c-.867-.155-1.859.051-2.834-.768a28.2,28.2,0,0,1,4.1.588c2.042.492,4.2.731,5.629,2.575a.426.426,0,0,0,.349.149c1.6-.474,3.2-.966,4.79-1.454a37.072,37.072,0,0,0-4.926-1.686c-3.773-1-7.666-1-11.524-1.262-2.734-.188-5.462.163-8.195.206-3.259.05-6.519.069-9.777.138-6.483.135-12.969.1-19.446.482-1.466.086-2.935.086-4.4.165-3.977.216-7.933.558-11.879,1.091A80.718,80.718,0,0,0,41.726,5.7c-.4.11-1.011.256-.923.669s.691.618,1.192.655a1.643,1.643,0,0,0,.626-.054,54.7,54.7,0,0,1,10.7-2.226c.621-.076,1.249-.139,1.868-.222.555-.075,1.138-.417,1.749-.046-4.6,1.015-9.374,1.187-14.1,2.938,1.446.135,2.552.958,3.8.546a62.355,62.355,0,0,1,8.877-1.767c.505-.089,1.119-.435,1.675-.033C54.044,6.959,50.807,7.243,47.416,8.2ZM61.648,152.3a1.7,1.7,0,0,1-.475-1.33c-.057-.61-.332-.609-.725-.276a6.706,6.706,0,0,0-.845.786c-.489.586-.411,1.09.309,1.431a15.987,15.987,0,0,0,3.647,1.3,58.428,58.428,0,0,0,11.17,1.13c7.246.061,14.506.769,21.745-.112a34.12,34.12,0,0,0,8.366-1.939c.653-.256,1.593-.42,1.671-1.258.08-.864-.987-.836-1.46-1.3-.032-.032-.122,0-.223,0-.079.494.042,1.043-.409,1.583-.217-.969-.477-1.825-.582-2.7-.089-.739-.283-.826-.982-.57A37.98,37.98,0,0,1,89.6,151.366c-1.57-.005-3.135-.076-4.713.008a49,49,0,0,1-6.522-.09c-2.577-.208-5.132-.548-7.682-.933-2.86-.432-5.792-.659-8.33-2.295-.3,1.208-.28,1.239.809,1.691,1.135.47,2.31.818,3.473,1.23-1.638.186-3.025-.684-4.515-1.17-.036.958-.038.965.751,1.236.426.146.857.28,1.293.391,1.269.326,2.541.638,3.813.955l-.077.306a38.212,38.212,0,0,1-5.754-1.384C61.98,151.621,62.043,152.061,61.648,152.3ZM66,144.712c-.531.235-.985.416-1.423.631-.616.3-1.618.5-1.577,1.193.052.857,1.083,1.066,1.837,1.309a33.007,33.007,0,0,0,4.305.736A74.567,74.567,0,0,0,85.473,150.2c3.431-.14,6.879.2,10.293-.434a5.648,5.648,0,0,0,2.416-.841c.609-.436,1.117-1.1,2.007-1.234-.1.642-.857.618-.925,1.236a13.445,13.445,0,0,0,3.78-1.174.589.589,0,0,0,.347-.68c-.107-1.191-2.473-2.357-3.46-1.7-.338-.127.237-.509-.327-.763-.913-.413-.724.674-1.331.691l.187-1.043c-1.3.058-.6,1.9-1.9,2,.226-.488.44-.911.619-1.347.193-.468.245-.747-.471-.9-1.891-.4-3.816-.52-5.751-.905,0,.592,0,1.117,0,1.643a2.053,2.053,0,0,1-1.794,2.276,16.4,16.4,0,0,1-5.763.805c-.064.345.451.123.331.427-.095.241-.341.156-.547.18-1.289.145-2.216-.848-3.412-1.05A20.309,20.309,0,0,1,75.08,146c-.862-.374-1.4-.864-1.206-1.9.163-.863-.226-1.069-1-.757a2.276,2.276,0,0,1-.623.088c-.949.089-1.572.437-1.342,1.561a.757.757,0,0,1-.41.9c0-.624.011-1.081-.005-1.537-.007-.214.088-.488-.349-.455-.89.069-1.512.367-1.544,1.378a1.271,1.271,0,0,1-.2.938,3.1,3.1,0,0,1-.116-1.961,5.076,5.076,0,0,0-1.665.414c-.467.321.236.985-.048,1.546C66.033,145.812,66.1,145.294,66,144.712ZM39.469,33.089c-.021-.383-.022-.662-.052-.937-.321-2.976-.564-5.964-1.006-8.922-.223-1.493.009-3-.354-4.48-.1-.4-.126-.621-.608-.6q-2.937.141-5.878.221c-.433.013-.568.2-.483.582.735,3.331,1.424,6.7,3.29,9.618C35.6,30.486,36.984,32.323,39.469,33.089Zm85.405-2.9c.3-.212.447-.3.578-.407,3.905-3.132,4.585-7.587,4.973-12.157.054-.644-.422-.533-.788-.477a12.612,12.612,0,0,1-3.007.394c-.825-.07-1.147.226-1.118,1.128A57.221,57.221,0,0,1,124.874,30.187ZM109.94,25.445a10.837,10.837,0,0,1-1.677-1.666,1.183,1.183,0,0,0-1.387-.517c-2.088.271-4.174.565-6.267.8-1.783.2-3.575.32-5.694.5,1.219.795,1.33,2.532,3.1,2.219a2.375,2.375,0,0,0-.6-.985c-.234-.265-.5-.508-.328-1.03a2.2,2.2,0,0,0,.367.326c.8.395.643,2.517,2.482,1.251.433-.3,1.647.718,2.354-.337.018-.026.138-.007.195.022a2.611,2.611,0,0,0,3.25-.361c.127-.117.254-.038.337.087.381.573.815.165,1.136.153.1-.5-.507-.673-.309-1.48C107.656,25.842,108.612,26.176,109.94,25.445ZM33.252,14.38a2.759,2.759,0,0,1-1.9.411c-.448.04-1.114.009-.866.662.19.5-.335,1.543.912,1.472a33.037,33.037,0,0,1,3.994-.065c2.824.177,2.827.142,2.644-2.69a.75.75,0,0,1,0-.106c.039-.4-.135-.577-.542-.559-2.278.1-4.551.328-6.836.246-.222-.008-.428.036-.413.336s.237.292.447.293Zm75.021,8.726c1.25,1.312,2.054,2.783,4.157,2.043,1.984-.7,4.083-1.067,6.184-1.817-.709-.538-.866-1.576-1.943-1.372C113.969,22.473,111.243,22.819,108.273,23.106Zm18.56-9.494c-.193.416-.436.532-.653.527-1.342-.034-.793.971-.834,1.575-.058.847.669.551,1.069.535,1.253-.05,2.408-.712,3.694-.633.283.017.306-.238.3-.449-.006-1.016-.022-2.031-.028-3.046,0-.3-.065-.435-.427-.338a21.7,21.7,0,0,1-4.413.817c-.473.027-.416.362-.433.679-.025.475.268.5.612.461C126.053,13.705,126.382,13.664,126.833,13.612Zm-86.909,6.56c0,.516-.006.935,0,1.354.007.372-.12.822.312,1.031a46.708,46.708,0,0,0,4.791,2.118C44.244,22.173,42.182,21.137,39.924,20.172ZM58.959,31.109c.646.272.874.9,1.265,1.367.491.586,1.055.489,1.742.371-.255-.509-.842-.779-.785-1.5,1.055.57,1.3,2.368,3.017,1.646-.579-.571-.732-1.609-1.553-1.775-1.681-.341-3.407-.456-5.114-.663l-.144.268c.835.524.767,2.016,2.251,1.877C59.63,32.065,58.791,31.819,58.959,31.109Zm59.34-3.372c.9,1.513,1.187,1.744,1.966,1.564,2.819-.649,2.819-.649,3.071-3.014-1.479-.07-.244.862-.478,1.457-.585-1.168-1.419-.953-2.292-.665C119.816,27.326,119.049,27.522,118.3,27.737Zm-4.93-2.024c.345.46.946.54,1.141.891.8,1.445.759,1.442,2.129,1.064.487-.135.634-.3.271-.686a8.654,8.654,0,0,0-1.951-1.888c-.564-.3-1.367.22-2.058.406a4.584,4.584,0,0,0-.907.213c-.284.146-.982-.222-.815.393a1.114,1.114,0,0,0,1.244.9C113.093,26.891,113.716,26.725,113.369,25.713Zm-72.812,2.23c-.075,1.4-.029,2.5.912,3.469a4.515,4.515,0,0,0,3.149,1.694C43.07,31.505,42.434,29.332,40.557,27.943ZM51.3,26.333a4.818,4.818,0,0,1-1.648-1.8c-.546-.817-1.347-.666-2.136-.9A5.125,5.125,0,0,0,53.009,26.9c-1.056-.806-1.285-2.381-2.879-2.658C50.353,25.082,51.08,25.436,51.3,26.333ZM66.94,9.634c5.144.159,10.284.138,15.422-.143.187-.01.458-.045.481-.386C77.53,9.031,72.236,9.334,66.94,9.634ZM42.487,29.273c1.374,1.513,1.792,3.937,4.345,4.586C44.529,29.809,44.529,29.809,42.487,29.273Zm1.1-.358c-.161-2.123-1.639-2.837-3.486-3.355.506.652-.183,1.569.706,2.081.138-.4-.381-.714.107-1.2A3.147,3.147,0,0,0,43.591,28.915Zm.7-6.409c1.017,1.479,1.655,3.222,3.815,3.159C47.306,24.109,46.42,22.668,44.294,22.506Zm2.139,7.517a9.623,9.623,0,0,1-.915-1.662,1.746,1.746,0,0,0-1.476-1.216c-.162-.036-.323-.2-.466-.013-.121.157-.027.326.054.484C44.219,28.771,44.8,29.934,46.433,30.023Zm2.625.91c-.5-.69-1.063-1.351-1.5-2.088-.457-.777-.718-.968-1.749-.827C46.621,29.326,47.063,30.975,49.058,30.933Zm70.773.642c.811.524,1.226,1.294,2.279.924.778-.274.634-.874.805-1.385.155-.463-.008-.571-.451-.417C121.659,30.978,120.846,31.238,119.831,31.575Zm3.361-5.9c-.841-.713-1.674-1.389-2.469-2.108a.65.65,0,0,0-.924-.016c-.323.292.116.46.27.629.42.464.935.851,1.307,1.347C121.961,26.3,122.536,26.142,123.192,25.671ZM42.9,20.085c.49,1.689,1.85,1.907,3.018,2.4C45.8,20.563,44.116,20.744,42.9,20.085Zm77.751,12.747c-1.263-1.187-1.408-1.207-3.025-.414C118.605,33.572,118.605,33.572,120.646,32.832Zm.318-9.709,2.363,2.14c.291-1.256.258-1.221-.738-2.166C122.023,22.558,121.573,22.927,120.964,23.123ZM42.619,20.871c-.436-1.334-1.571-1.83-2.643-2.457C39.887,19.66,40.607,20.319,42.619,20.871Zm3.488.529c.487,1.434.572,1.5,2.584,1.963C48.217,22.158,47.536,21.3,46.107,21.4Zm69.06,11.759c.286.228.554.453.834.662.593.441,1.114-.157,1.683-.137.1,0,.274-.166.141-.306-.354-.374-.784-.866-1.253-.793A1.7,1.7,0,0,0,115.167,33.159Zm5.966-11.965c.667.765,1.247,1.118,2.147.628.447-.243.376-.528.343-.838-.052-.472-.38-.244-.628-.19Zm-7.04,11.39c-.629-.654-1.168-1.455-2.256-.741C112.349,32.775,112.994,33.274,114.093,32.584ZM121.6,22.255c-.307-.27-.572-.539-.873-.76a.788.788,0,0,0-1.126.035c-.244.318.258.477.42.709C120.473,22.889,120.98,22.748,121.6,22.255Zm-1.582.654c-.614-.472-.889-1.529-2.13-1.032C118.653,22.265,118.735,23.679,120.018,22.909ZM88.431,41.778a48.638,48.638,0,0,1-16.047.711C74.369,43.822,86.8,43.259,88.431,41.778ZM83.094,46l0-.373H72.407C75.942,46.319,79.52,45.976,83.094,46ZM79.336,67.664c1.96.51,7.185.616,8.153.19C84.771,67.847,82.058,67.527,79.336,67.664Zm1.859,2.456a44.2,44.2,0,0,1-8.654-.978C73.758,70.179,79.845,70.848,81.195,70.12ZM50.515,84.5c2.194,1.26,4.632,1.262,7.054,1.361C55.245,85.274,52.815,85.253,50.515,84.5Zm21.77-36.879c2.241.759,4.528.383,6.8.287C76.826,47.624,74.551,47.814,72.285,47.623ZM58.636,40.505a28.175,28.175,0,0,0-6.205-1.318A24.648,24.648,0,0,0,58.636,40.505ZM81.785,72.292l-5.864-.806C76.836,72.236,80.675,72.7,81.785,72.292Zm.613,6.337c-1.941-.128-3.858-.645-5.824-.365C78.507,78.472,80.434,79.007,82.4,78.629Zm19.761,22.71a8.525,8.525,0,0,0,4.518-2.014C105.192,100.07,103.592,100.529,102.159,101.339ZM83.185,99.162a37.675,37.675,0,0,0-5.071-.833A11.632,11.632,0,0,0,83.185,99.162Zm.24,2.91a14.314,14.314,0,0,0-2.09-.616,3.786,3.786,0,0,0-2.275-.024C80.534,101.52,81.913,102.3,83.425,102.072Zm-5.282-20.96a7.916,7.916,0,0,0,4.335-.038l-4.325-.284ZM44.861,42.655l-.106.333a9.649,9.649,0,0,0,4.239.994Zm38.233,54.39a16.842,16.842,0,0,0-4.362-.395A8.029,8.029,0,0,0,83.094,97.045ZM47.983,68.553a9.259,9.259,0,0,0,3.978.637A11.071,11.071,0,0,0,47.983,68.553ZM76.514,50.546H72.451l0,.211h4.077Zm.143,16.843-3.7-.549-.043.306a10.344,10.344,0,0,0,3.7.535ZM45.454,44.7a6.152,6.152,0,0,0,3.278.918A8.561,8.561,0,0,0,45.454,44.7ZM47.8,66.732a6.58,6.58,0,0,0,3.4.644C50.052,67.183,49.017,66.424,47.8,66.732Zm34.815,8.5a6.3,6.3,0,0,0,3.64.063C84.593,74.91,83.008,74.9,82.613,75.23ZM63.252,107.769H59.839a5.642,5.642,0,0,0,3.383.358ZM76.927,52.925a5.435,5.435,0,0,0-3.284-.128C74.745,52.718,75.823,53.361,76.927,52.925ZM78.618,133.3l-2.935-1.084A2.947,2.947,0,0,0,78.618,133.3Zm37.463-93.481c-1.189-.157-2.091-.672-2.986.024C113.994,39.776,114.9,40.381,116.081,39.822ZM80.1,133.856a3.614,3.614,0,0,0,3.007.2C82.1,134.17,81.116,133.6,80.1,133.856Zm-19.376-36a4.326,4.326,0,0,0-2.762-.258A4.853,4.853,0,0,0,60.723,97.856ZM50.874,48.544l-.088.319c.818.253,1.536.865,2.53.407Zm68.53,3.434a5.028,5.028,0,0,0-2.526.56C117.745,52.458,118.687,52.713,119.4,51.978Zm-2.541-7.5c-.909-.092-1.832-.366-2.653.335C115.076,44.6,116.016,44.866,116.863,44.475Zm-35.3,99.761.032-.306-2.534-.254C79.78,144.49,80.687,144.214,81.564,144.236ZM50.511,71.067a2.978,2.978,0,0,0,2.568.355A5.757,5.757,0,0,0,50.511,71.067Zm29.372,71.311a2.406,2.406,0,0,0,2.58,0Zm-.907-11.426a3,3,0,0,0,2.354.289A3.634,3.634,0,0,0,78.976,130.952Zm-5.766-7.12a3.487,3.487,0,0,0-2.226-.672A3.215,3.215,0,0,0,73.21,123.832Zm-17.183-29.9a1.9,1.9,0,0,0,2.414.22ZM53.912,45.916c-.741-.015-1.339-.58-2.154-.5A1.647,1.647,0,0,0,53.912,45.916ZM56.88,95.728a2.276,2.276,0,0,0,2.3-.076,4.786,4.786,0,0,0-1.085-.1c-.373-.016-.746-.06-1.119-.091Zm26.06,8.842-2.234-.591A1.821,1.821,0,0,0,82.94,104.57ZM51.116,47.12a1.945,1.945,0,0,0,2.009.287L51.2,46.848Zm53.173,50.971c-.928.043-1.609.085-2.1.677A3.511,3.511,0,0,0,104.289,98.091ZM68.982,157.447c4.161.509,8.316,1.133,12.514.7C77.305,158.1,73.158,157.5,68.982,157.447Zm17.583,2.523c1.994.8,8.119.292,9.369-.781C92.862,160.066,89.705,159.911,86.565,159.97ZM60.658,192.343c.953.815,5.724,1.452,6.713.9C65.024,192.953,62.826,192.769,60.658,192.343Zm5.311-10.17c-2.145-.183-4.25-.617-6.372-.924A11.322,11.322,0,0,0,65.969,182.173Zm34.871-16.628c1.2-.16,2.395-.4,3.589-.627.195-.037.442-.135.333-.4a.362.362,0,0,0-.539-.151,3.124,3.124,0,0,1-1.177.373c-1.457.2-2.9.486-4.353.738C99.42,165.973,100.128,165.639,100.84,165.545Zm-7.823,43.9a3.011,3.011,0,0,0-2.39.44,9.672,9.672,0,0,0,4.891-.568A14.377,14.377,0,0,0,93.017,209.443Zm-27.34-33.822a22.364,22.364,0,0,0,5.768.52l.029-.277-5.772-.556Zm2.968,31.261a11.935,11.935,0,0,0,4.892.516A18.245,18.245,0,0,0,68.645,206.882ZM61.3,183.089l-.061.325a8.609,8.609,0,0,0,4.383.457Zm.926,17.861a11.871,11.871,0,0,0,3.986.821C64.9,201.381,63.65,200.691,62.221,200.95Zm38.525-22.107a12.657,12.657,0,0,0,3.647-.424C102.948,178.087,101.229,178.335,100.746,178.843Zm-34.718,16.3-3.637-.412-.023.308a9.6,9.6,0,0,0,3.646.382ZM76.89,159.353a7.461,7.461,0,0,0-3.545-.147A7.7,7.7,0,0,0,76.89,159.353ZM62.614,169.386l-3.594-.9A4.046,4.046,0,0,0,62.614,169.386Zm38.864,27.077a5.678,5.678,0,0,0,3.3-.463A8.484,8.484,0,0,0,101.478,196.463Zm4.289-16.44a5.73,5.73,0,0,0-2.669.236A3.246,3.246,0,0,0,105.767,180.023Zm-.54,14.563c.133-.071.3-.216.209-.425-.083-.189-.383-.262-.43-.2-.433.6-1.221.359-1.97.811A3.224,3.224,0,0,0,105.227,194.586ZM70.82,204.707a4.123,4.123,0,0,0-2.771-.148A5.61,5.61,0,0,0,70.82,204.707Zm34.594-43.878c-.7.382-1.581.327-2.222.859A2.238,2.238,0,0,0,105.414,160.829ZM64.055,175.051a4.022,4.022,0,0,0-2.3-.564A2.832,2.832,0,0,0,64.055,175.051Zm4.129-.944a3.611,3.611,0,0,0-2.046-.4A2.011,2.011,0,0,0,68.184,174.107Zm35.167-11a1.993,1.993,0,0,0,1.967-.331A2.822,2.822,0,0,0,103.351,163.107Zm-14.376-4.362a4.333,4.333,0,0,0-2.446.017A2.883,2.883,0,0,0,88.975,158.745Zm-27.031,11.8a4.277,4.277,0,0,0-2.087-.434A2.018,2.018,0,0,0,61.944,170.542Zm43.147,27.274c-.785-.444-1.412.111-2.062.13C103.761,198.291,103.761,198.291,105.091,197.816Zm.072-31.154c-.716.087-1.281.152-1.843.229-.037,0-.061.1-.246.438C103.846,167.078,104.542,167.585,105.163,166.662Zm-37.2,57.083L49.584,219.42c.6.666,16.313,4.548,18.318,4.594Zm48.529,13.5c-3.082,1-6.337,1.072-9.487,1.7,6.659.355,12.567-2.459,18.656-4.543C122.47,234.859,119.542,236.25,116.494,237.24Zm-83.16-15.125a3.171,3.171,0,0,0,.46.426,74.455,74.455,0,0,0,14.336,6.422c.218.074.468.171.615-.114-.007-.057,0-.115-.016-.12a81.727,81.727,0,0,1-14.442-6.419.975.975,0,0,0-.984-.167Zm80.1,6.965c-2.734.476-5.483.8-8.25,1.027,5.657.541,14.445-1.716,16.518-3.8A40.492,40.492,0,0,1,113.432,229.08Zm.017,6.649c1.238.676,7.028-1.125,8.8-2.7C119.177,233.961,116.619,235.557,113.449,235.729Zm-7-2.252c2.95.122,5.72-.835,8.547-1.567C112.129,232.232,109.315,232.991,106.452,233.477ZM66.835,228.07l-6.959-.973C61.052,227.956,66.1,228.583,66.835,228.07Zm21.653,13.675c-1.895-.643-3.883-.393-5.838-.614C84.535,241.855,86.527,241.628,88.488,241.745Zm-30.4-6.039a20.709,20.709,0,0,0,5.145.839l.038-.276-5.153-.888ZM47.615,221.863c1,.909,4.191,1.714,5.1,1.394Zm65.7,3.884-.058-.275-4.344.943C110.5,226.8,111.9,226.212,113.317,225.747Zm-3.186-.889a9.453,9.453,0,0,0,3.75-.743A9.6,9.6,0,0,0,110.131,224.858ZM61.048,229.9a5.8,5.8,0,0,0,3.9.222A34.894,34.894,0,0,0,61.048,229.9Zm55.918-3.628a8.209,8.209,0,0,0,3.72-.955l-.065-.254-3.7.939Zm13.064,2.82a8.223,8.223,0,0,0,3.01-1.267l-.118-.28-3.009,1.251Zm-14.05-8.113-3.7,1.158A4.175,4.175,0,0,0,115.98,220.976Zm12.75,9.726a4.17,4.17,0,0,0,2.863-.235A6.485,6.485,0,0,0,128.73,230.7Zm-11.6-6.462a3.615,3.615,0,0,0,2.56-.751A4.8,4.8,0,0,0,117.13,224.24Zm-70.846-5.523a3.274,3.274,0,0,0,2.415.747A4.856,4.856,0,0,0,46.284,218.717Zm74.633,10.855-2.7,1.481A3.1,3.1,0,0,0,120.917,229.572Zm-50.7,7.575-2.741-.3A2.394,2.394,0,0,0,70.219,237.147Zm63.224-21.124A3.81,3.81,0,0,0,131.5,217.3,2.943,2.943,0,0,0,133.443,216.023ZM64.4,231.928a2.527,2.527,0,0,0-2.261-.168A4.846,4.846,0,0,0,64.4,231.928ZM46.064,10.863c-1.558-.375-3.057-.936-4.581-1.414A7,7,0,0,0,46.064,10.863Zm-.71,1.105c-1.418-.193-2.492-.885-3.734-1.106A4.2,4.2,0,0,0,45.354,11.968Zm17.7,9.28-3.776-.6A4.176,4.176,0,0,0,63.054,21.248Zm-15.12-5.333a5.046,5.046,0,0,0,3.325.611l-3.178-.884Zm70.8-.352,2.715-.535C120.157,14.616,118.888,14.944,118.729,15.563ZM50.512,17.682l-3.168-.553A3.038,3.038,0,0,0,50.512,17.682Zm68.1-4.449a7.426,7.426,0,0,0,2.423-.576A2.325,2.325,0,0,0,118.615,13.233ZM57.944,18.668c-.793.027-1.565-.191-2.366-.113A1.984,1.984,0,0,0,57.944,18.668Zm55.229-5.775c.7-.1,1.434-.084,1.936-.848l-2,.527ZM56.021,20.042a3.921,3.921,0,0,0,2.131.192A2.278,2.278,0,0,0,56.021,20.042Zm58.934-9.455a2.66,2.66,0,0,0,2.312-.223C116.547,10.051,115.913,10.383,114.955,10.587ZM95.248,214.6a33.109,33.109,0,0,0,11.224-2.415C102.784,213.236,99.006,213.871,95.248,214.6Zm-19.981,2.2a32.793,32.793,0,0,1-7.974-2.237c-.178-.079-.351-.5-.56-.1-.154.295.175.412.377.525a12.139,12.139,0,0,0,2.923,1.07A22.468,22.468,0,0,0,76,217.216C75.765,216.742,75.493,216.838,75.267,216.8Zm10.977.783c-2.642.021-5.261-.368-7.895-.412A20.683,20.683,0,0,0,86.244,217.584Zm-13.817-2.748a27.535,27.535,0,0,1-6.09-2.118A9.274,9.274,0,0,0,72.427,214.836Zm39.535-2.95a6.311,6.311,0,0,0,3.9-4.034A14.335,14.335,0,0,1,111.962,211.886Zm-57.236.2a10.089,10.089,0,0,0,3.943,2.653C57.336,213.88,56.247,212.655,54.726,212.083Zm58.664-11.034c.612,1.469.752,3.078,1.4,4.536C114.621,203.98,114.555,202.338,113.39,201.049ZM55.475,215.832a11.1,11.1,0,0,0-3.827-2.322A14.482,14.482,0,0,0,55.475,215.832Zm50.843-1.763-4.078.957A5.044,5.044,0,0,0,106.318,214.069Zm-63.424-5.191c-.1-.408.007-1.183-.417-1.085-.588.137-.038.788.021,1.157a3.555,3.555,0,0,0,1.165,2.523C43.4,210.609,43.112,209.752,42.894,208.878Zm-1.233,2.257c-.113-1.368-.648-2.608-.514-3.927A3.744,3.744,0,0,0,41.661,211.135Zm67.881-10.894a14.482,14.482,0,0,1,2.542,2.841A3.414,3.414,0,0,0,109.542,200.241ZM56.877,211.233a19.488,19.488,0,0,0,2.663,2.093A3.807,3.807,0,0,0,56.877,211.233Zm57.065,3.085c.771-.742,1.7-1.326,1.964-2.554Zm-69.26-5.931a.261.261,0,0,0-.326-.189c-.161.056-.163.174-.124.328a4.4,4.4,0,0,0,1.181,2.272C45.172,209.993,44.938,209.186,44.682,208.387Zm76.5.953-1.8,1.981c1.051-.207,1.462-1.049,2.018-1.746Zm-9.942,1.04a4.019,4.019,0,0,0,1.86-2.083C112.2,208.761,111.814,209.652,111.235,210.38Zm-50.682.649c-.032-.294-.456-.371-.77-.394a.28.28,0,0,0-.226.139c-.095.335.162.519.378.663.289.193.464.656,1.027.428A2.26,2.26,0,0,1,60.553,211.029Zm-8.77-7.7a4.2,4.2,0,0,0-.613,2.31C51.716,204.762,52.049,204.121,51.783,203.328Zm1.02,2.4a1.337,1.337,0,0,0,.732-1.79Zm57.618,1.846-1.272,1.951a2.431,2.431,0,0,0,1.533-1.818Zm4.569-6.043a5,5,0,0,0,.771,2.073A2.022,2.022,0,0,0,114.99,201.534ZM49.617,204.4l.258.195L51.059,203C50.123,203.119,49.968,203.831,49.617,204.4ZM64.151,28.75c5.254.321,10.5.028,15.734-.071C78.69,28.272,64.9,28.4,64.151,28.75ZM86.1,31.887c1.2-.378,1.614,1.012,2.769,1.265l-1.042-1.225c2.334-.029,2.622,2.538,4.352,3.2-.614-.879-1.3-1.687-1.974-2.507-.393-.477-.3-.724.355-.752.408-.018.884.175,1.374-.354-1.4-.218-3,.549-3.588-1.4-.369.663.236.917.181,1.258-1.166.516-1.72-.526-2.712-1.245.256.82.892,1.248.319,1.793Zm18.024.557c-1.283-.27-2.594-.493-3.251-1.861,0,0-.108.045-.3.127.781.95.9,2.353,2.31,2.81.242-.333-.356-.492-.172-.818a3.766,3.766,0,0,0,1.418-.267Zm4.685-.869a18.874,18.874,0,0,0,2.61,2.847l.236-.206L109.1,31.331ZM94.611,33.944a5.66,5.66,0,0,0,1.712,2.28l.217-.152-1.676-2.289Zm.641,2.533L93.5,34.108A2.71,2.71,0,0,0,95.252,36.477Zm2.878-.5a22.892,22.892,0,0,0-1.68-2.08c-.1-.115-.192-.288-.64-.17A6.321,6.321,0,0,0,98.13,35.977Zm-12-4.058c-.681-.317-.764-1.356-1.945-1.513.68.752,1.172,1.313,1.689,1.852.082.086.306.278.39-.021.026-.094-.107-.232-.167-.35Zm58.015,27.37c2.455-5.847,4.094-11.969,6.028-17.992a.373.373,0,0,0-.238-.538c-2.26,6.557-3.951,13.292-6.615,19.7C143.849,60.218,143.963,59.721,144.144,59.289ZM133.342,77.2a53.682,53.682,0,0,0,6.74-10.168A91.007,91.007,0,0,0,133.342,77.2Zm-2.39,2.871c-1.054,1.371-2.365,2.562-2.978,4.242A17.441,17.441,0,0,0,130.952,80.073Zm22.079-73.4c.059,1.231.4,2.421.535,3.646A4.675,4.675,0,0,0,153.031,6.672ZM138.52,4.715l-3.655-.161a6.053,6.053,0,0,0,3.628.476Zm6.366.1c-1.146.06-2.277-.5-3.434-.1A5.5,5.5,0,0,0,144.886,4.813ZM133.894,7.258a2.546,2.546,0,0,0-1.1,2.889A16.53,16.53,0,0,1,133.894,7.258Zm17.066,28.6c-.04.163-.013.269.129.333A.238.238,0,0,0,151.4,36c.108-.936.6-1.822.174-2.816C151.374,34.077,151.175,34.967,150.96,35.854Zm-27.191,54.8a7.552,7.552,0,0,0-2.451,2.236A6.183,6.183,0,0,0,123.769,90.654Zm4.965-60.622a5.38,5.38,0,0,0,1.508-2.984l-1.766,2.825Zm9.893-24.389c-1.2,0-2.258-.413-3.36-.217A3.737,3.737,0,0,0,138.627,5.643ZM129.789,29.67l.255.1a2.966,2.966,0,0,0,.741-2.47Zm21.078,10.653a1.723,1.723,0,0,0,.5-2.324ZM20.267,75.4c-3.536-5.316-5.765-11.25-8.351-17.046C14.068,64.317,16.288,70.279,20.267,75.4Zm10.725-48.12C28.55,22.448,28,17.17,27.252,11.935,26.829,16.129,29.178,25.782,30.992,27.279ZM3.442,9.391c-1.093,1.351-1.132,8.951-.111,11.045A39.707,39.707,0,0,1,3.442,9.391ZM39.889,94.579c-2.57-1.795-4.545-4.222-6.888-6.257C34.995,90.733,36.994,93.14,39.889,94.579Zm15,9.2c-2.316-.683-4.011-2.67-6.458-3.091,1.133.844,2.48,1.315,3.6,2.179a8.956,8.956,0,0,0,2.312,1.167c.337.129.539.153.509-.294ZM42.1,96.9a14.793,14.793,0,0,0,4.445,2.632A21.152,21.152,0,0,0,42.1,96.9ZM17.22,67.4a8.777,8.777,0,0,0-1.8-3.752l1.45,3.855Zm16.5-35.175a6.111,6.111,0,0,0-2-2.339A5.355,5.355,0,0,0,33.717,32.22Zm-7.97,50.557c.133.114.282.08.321-.07a.418.418,0,0,0-.112-.349c-.559-.489-1.133-.959-1.7-1.435C24.414,81.845,25.142,82.258,25.747,82.777Zm5.745,4.384.232-.246a4.028,4.028,0,0,0-2.188-1.592Zm-6.869-7.02a3.284,3.284,0,0,0,1.728,1.819A4.141,4.141,0,0,0,24.623,80.141ZM103.138,4a165.6,165.6,0,0,0-37.65.559C78.023,3.193,90.578,3.414,103.138,4ZM79.571,6.081c-6.921.3-13.79.529-20.631,1.241C59.921,7.713,79.194,6.475,79.571,6.081ZM52.88,8.457a23.231,23.231,0,0,0,5.381-.675l-.045-.313-5.347.688Zm53.647-4.322A19.2,19.2,0,0,1,111.8,6.168C111.362,5.1,107.953,3.731,106.527,4.135ZM63.013,3.763a5.232,5.232,0,0,0-2.955.174A6.82,6.82,0,0,0,63.013,3.763ZM72.138,151.5l-3.7-.248-.014.276a10.14,10.14,0,0,0,3.7.305Zm18.354.533-3.7-.385A4.571,4.571,0,0,0,90.492,152.036Zm-3.6.971a2.9,2.9,0,0,0,2.781-.1A13.767,13.767,0,0,0,86.89,153.007Zm-21.1.042c-.753-.028-1.358-.6-2.326-.52C64.706,153.37,64.934,153.423,65.791,153.049Zm21.348-4.769c1.83.549,5.276-1.762,5-3.733A6.631,6.631,0,0,1,87.139,148.28Zm-14.056-1.32a6.511,6.511,0,0,0,3.169,1.409A8.191,8.191,0,0,0,73.083,146.96Zm-.742.592c-.139-.06-.27-.108-.339.058a.259.259,0,0,0,.129.355c.96.32,1.8,1.051,3.2.868C74.149,148.328,73.243,147.944,72.341,147.552Zm23.642.021a26.921,26.921,0,0,1-2.448,1.82A2.654,2.654,0,0,0,95.983,147.573Zm-1.314-.211a17.749,17.749,0,0,1-2.292,1.6A2.17,2.17,0,0,0,94.669,147.362Zm4.292-.145-2.34,1.92a4.164,4.164,0,0,0,2.555-1.685Zm-5.224-2.9-1.123,2.144.255.133A3.63,3.63,0,0,0,94,144.455Zm3.452,3.621a.266.266,0,0,0-.024-.375.192.192,0,0,0-.335.06c-.355.708-1.075,1.037-1.6,1.6C96.188,149.247,96.68,148.579,97.189,147.942ZM74.374,146.5a2.614,2.614,0,0,0,2.359.848C75.915,147.148,75.276,146.439,74.374,146.5Zm9.35,2.457a5,5,0,0,0-2.578-.153A3.861,3.861,0,0,0,83.724,148.955Z" fill="#151611"/>
</svg>
