<svg xmlns="http://www.w3.org/2000/svg" viewBox="0 0 146.943 213.296">
  <path d="M104.4,38.556a6.8,6.8,0,0,0-2.637.6A8.472,8.472,0,0,0,97.174,42.4c-2.821,4.257-6.35,7.948-9.465,11.971a15.538,15.538,0,0,0-3.12,7.272A10.435,10.435,0,0,1,82.368,65.9c-2.154,3.111-4.382,6.17-6.587,9.245a4,4,0,0,1-.993,1.094c-.617.405-1.093.241-1.323-.473a13.232,13.232,0,0,1-.252-3.152,24.336,24.336,0,0,1,1.121-7.905,10.991,10.991,0,0,1,2.238-3.735c3.114-4.066,5.764-8.464,8.862-12.54,2.854-3.755,5.476-7.67,8.09-11.6,1.509-2.265,3.381-4.282,5.036-6.451a39.091,39.091,0,0,1,6.239-6.621,17.842,17.842,0,0,1,9.132-4.107,27.435,27.435,0,0,0,3.322-.79c2.25-.582,3.114-2.54,4.027-4.349.288-.57.521-.832,1.079-.884a1.187,1.187,0,0,1,.461.01c1.764.58,2.657-.581,3.54-1.777a109.919,109.919,0,0,1,8.2-9.939A5.759,5.759,0,0,1,140.77.282a7.909,7.909,0,0,1,6.1,6.667,6.438,6.438,0,0,1-1.156,4.3c-2.195,3.831-4.435,7.636-6.673,11.442a.873.873,0,0,0,.108,1.064c1.428,2.209,1.417,2.214,0,4.378q-8.536,13.083-17.068,26.17-11.52,17.714-23.014,35.445c-.9,1.386-1.943,2.692-2.707,4.149a50.881,50.881,0,0,1-3.923,6.387c-6.734,9.235-13.232,18.639-19.8,27.991Q60.9,144.981,49.076,161.633q-6.294,8.907-12.6,17.81a50.561,50.561,0,0,0-3.109,4.261c-.867,1.54-1.767,3.064-2.672,4.578a30.85,30.85,0,0,1-7.206,7.906c-2.589,2.119-4.943,4.512-7.593,6.558-1.322,1.02-2.654,2.027-3.976,3.048a3.2,3.2,0,0,1-2.943.761c-.38-.106-.569.173-.774.392-1.912,2.047-4.258,3.6-6.216,5.6-.411.419-.942,1.034-1.6.606-.71-.466-.3-1.193-.063-1.774,1.064-2.665,1.646-5.5,2.919-8.091.109-.22.224-.445-.01-.677-.736-.729-.544-1.518-.347-2.451.842-4,2.034-7.9,3.006-11.867a36.716,36.716,0,0,1,4.76-11c3.46-5.431,6.633-11.044,10.287-16.357,9.565-13.9,18.832-28.014,28.089-42.127,7.083-10.8,14.377-21.452,21.511-32.215,1.015-1.531,1.883-3.166,2.866-4.69,1.523-2.358,3.183-4.653,4.845-6.932,2.615-3.587,5.173-7.216,7.769-10.818,2.988-4.147,6-8.28,8.985-12.427q3.441-4.776,6.853-9.572C102.681,41.011,103.483,39.862,104.4,38.556Zm22.638,5.707c1.091-1.043,1.095-1.3.225-2.489-.693-.943-1.423-1.857-2.176-2.76,1.469.781,2.132,2.306,3.149,3.384.863-.591.689-1.212.1-1.844-.168-.179-.3-.391-.454-.584q-.954-1.189-1.91-2.377c1.422.814,2.208,2.211,3.218,3.367.274-.1.281-.36.422-.507.546-.564.472-1-.13-1.508-.827-.7-1.49-1.579-2.384-2.21-.128-.091-.228-.216-.04-.426a22.013,22.013,0,0,1,3.285,2.94c.808-1.1.811-1.106-.118-2.141-1-1.113-2-2.221-3.071-3.4a28.509,28.509,0,0,1,4.174,4.063c.312-.448.609-.913.946-1.347.353-.455.265-.77-.079-1.237a29.512,29.512,0,0,0-5.832-5.424,32.945,32.945,0,0,0-10.2-4.976c-.348-.117-.415.076-.561.279q-5.074,7.041-10.156,14.078-4.109,5.707-8.19,11.434-5.129,7.184-10.244,14.378-4.22,5.9-8.473,11.782c-1.17,1.618-2.372,3.213-3.612,4.89a27.1,27.1,0,0,1,11.126,4.625,31.53,31.53,0,0,1,8.691,8.269c1.481-1.127.033-1.873-.364-2.777a3.868,3.868,0,0,1,1.339,1.208c1.05-.823,1.011-1.685-.072-2.522.75-.18.81,1.053,1.5.469.613-.521.136-.985-.314-1.592,1.176,1.06,1.3-.1,1.686-.585.324-.405.554-.886.838-1.324q4.114-6.34,8.242-12.671a1.036,1.036,0,0,0-.061-1.454c-.492-.593-1.024-1.144-1.491-1.773,1.066.283,1.5,1.342,2.236,2.013,1.446-1.441-.379-1.965-.746-2.964a1.466,1.466,0,0,1,1.147.882c.384.6.631.714,1.039-.012a.7.7,0,0,0-.026-.943c-.239-.291-.462-.595-.817-1.057.818.187.953.858,1.435,1.081q4.059-6.315,8.109-12.6c.26-.4.389-.7.054-1.139a11.989,11.989,0,0,1-.829-1.466c.773.253.914,1.055,1.418,1.529,1-.885-.381-1.3-.409-1.991.622.031.68.728,1.182.868.949-1.493,1.868-2.988,2.846-4.442a.671.671,0,0,0-.071-.991,4.079,4.079,0,0,1-1.075-1.421c.245.146.375.228.509.3.5.274.7,1.206,1.263,1.014.435-.149.687-.9.981-1.4a48.658,48.658,0,0,0,2.759-4.512ZM53.705,152.558c.28-.32.566-.635.84-.959.364-.433.419-.808-.1-1.217a14.266,14.266,0,0,1-1.254-1.265c.937.162,1.339.989,2.009,1.43.814-.643.664-1.2-.048-1.785a17.613,17.613,0,0,1-1.481-1.412c-.16-.166-.549-.247-.329-.679a16.974,16.974,0,0,1,2.505,2.205c.126.122.25.468.48.178.142-.18.366-.43.049-.719-.217-.2-.56-.36-.53-.83.183.083.326.1.4.187.539.635.845.381,1.192-.226a12.2,12.2,0,0,1,1.325-1.891c.606-.7.9-1.318-.062-1.943a.174.174,0,0,1,.014-.3c.2-.054.281.127.412.174.288.105.4.935.868.268.318-.457,1.134-.892.241-1.578-.591-.454-1.152-.949-1.926-1.592,1.133.143,1.572.9,2.2,1.337.165.115.24.4.494.339.473-.108.788-1.284.449-1.649a16.223,16.223,0,0,1-1.862-2.267c.99.452,1.306,1.271,1.929,1.746.215.164.315.824.815.311.38-.391.517-.74.009-1.159-.225-.186-.567-.366-.527-.788a.589.589,0,0,1,.578.308c.44.564.693.615,1.164-.082,1.829-2.706,3.724-5.369,5.65-8.007.549-.754.683-1.307-.161-1.885-.168-.116-.44-.266-.323-.64.425.014.633.372.825.63.477.64.763.3,1.074-.131a.508.508,0,0,0-.075-.779c-.291-.276-.691-.5-.8-1.013.4-.056.568.21.715.405.49.65.767.518,1.184-.131.8-1.243,1.7-2.425,2.588-3.607.395-.524.539-.893-.079-1.407a15.1,15.1,0,0,1-1.59-1.785c.224-.064.368-.052.443.027.386.4.755.819,1.129,1.232.835.921.8.894,1.553-.089.519-.675.53-1.129-.153-1.726-1.171-1.024-2.246-2.158-3.362-3.246l.219-.231a33.768,33.768,0,0,1,4.108,3.954,4.059,4.059,0,0,1,.347-.469c.655-.65.715-1.258-.038-1.895a.635.635,0,0,1-.241-.837l1.2,1.384c.2-.277.358-.537.557-.759.706-.788.9-1.483-.033-2.317a2.932,2.932,0,0,1-1.172-1.74,10.936,10.936,0,0,1,1.623,1.743c.579.777.745.734,1.264-.084a.549.549,0,0,0-.118-.806c-.362-.35-.7-.721-1.13-1.161.543-.123.7.191.9.387.818.785.813.788,1.515-.147.056-.075.134-.132.189-.206,1.089-1.5,1.087-1.5-.209-2.826-.6-.618-1.2-1.24-1.8-1.86l.138-.129,2.828,3.133c1.184-.933,1.023-1.579.355-2.338a2.241,2.241,0,0,1-.839-1.628l1.781,2.224a.562.562,0,0,0,.1-.067c1.933-2.206,1.923-2.534-.039-4.67a25.389,25.389,0,0,0-4.078-3.526c.485-.222.739.077,1.027.289a19.8,19.8,0,0,1,4.7,4.7c.12.176.323.653.574.209.182-.322.895-.535.413-1.1-.5-.588-1.047-1.139-1.556-1.722-.159-.182-.518-.292-.29-.735a16.917,16.917,0,0,1,2.272,2.344c.54-.5.719-.929.081-1.5a1.443,1.443,0,0,1-.646-1.116c.516.2.72.628,1,.97.134.164.227.413.488.329.462-.15.751-1.349.452-1.762a40.622,40.622,0,0,0-3.029-3.319c1.58.741,2.531,2.209,3.648,3.385,1.066-.766.807-1.473.059-2.2-.179-.174-.485-.287-.469-.684.5.112.718.568,1.084.792.193.118.187.8.605.321.286-.326.848-.623.351-1.252a45.014,45.014,0,0,0-4.654-4.8c-.128-.12-.455-.157-.176-.6a37.2,37.2,0,0,1,5.355,5.416c.183-.252.342-.517.544-.743.457-.509.4-.917-.112-1.373-.619-.555-1.167-1.191-1.762-1.776-.779-.766-1.574-1.516-2.362-2.272l.191-.21a36.829,36.829,0,0,1,4.727,4.556c.566-.843.558-.837.2-1.31a29.26,29.26,0,0,0-6.926-6.4,38.709,38.709,0,0,0-11.07-5.485c-.588-.173-.889-.084-1.186.385-3.312,5.232-6.811,10.339-10.235,15.5-3.79,5.71-7.542,11.445-11.378,17.124-7.137,10.566-14.212,21.173-21.342,31.743-4.852,7.194-9.385,14.6-14.458,21.646-.308.428-.812.764-.752,1.377a22.031,22.031,0,0,1,6.5,2.043,33.687,33.687,0,0,1,10.711,8.381c.12.148.187.416.492.191a1.417,1.417,0,0,0,.245-2.12c-.609-.663-1.244-1.3-1.866-1.951-.114-.119-.358-.184-.1-.548,1.064.839,1.863,1.937,2.838,2.835.515-.425.533-.785.009-1.231a13.139,13.139,0,0,1-1.227-1.406,2.556,2.556,0,0,1,1.025.592c.356.282.611,1.055,1.034.807.69-.407-.237-.819-.3-1.306.944.407.941.4,1.576-.524.244-.357.513-.7.761-1.051.869-1.236.864-1.234-.168-2.356-.128-.14-.4-.231-.246-.58.679.205.947.924,1.582,1.277.768-1.18-.862-1.46-.85-2.414.7.314.937,1.077,1.563,1.472.014-.309.232-.461.4-.636a.925.925,0,0,0-.056-1.518c-.5-.468-.934-1.007-1.4-1.514a2.74,2.74,0,0,1,1.756,1.379c.407.568.563.383.875-.054.254-.358.1-.542-.113-.8-.235-.273-.659-.436-.658-.932a.744.744,0,0,1,.657.4c.43.6.721.506,1.121-.074q3.933-5.7,7.92-11.37a.625.625,0,0,0-.068-.941c-.75-.76-1.459-1.563-2.228-2.4.466-.09.685.2.915.429.5.506.979,1.041,1.494,1.534.171.165.311.662.685.205.25-.305.523-.562.093-.992-.564-.563-1.043-1.211-1.712-2a3.047,3.047,0,0,1,1.081.668c.436.382.641,1.259,1.2,1.172.539-.084.722-.935,1.141-1.378.35-.372.25-.6-.075-.911-.277-.262-.665-.491-.5-1.081l1.035,1.392a20.531,20.531,0,0,0,1.609-2.553ZM3.728,200.426c-.211.761.4.724.749.838a10.847,10.847,0,0,1,5.5,3.838c.265.352.434.5.851.179.8-.628,1.684-1.155,2.48-1.789,3.849-3.067,7.47-6.405,11.215-9.6a21.167,21.167,0,0,0,4.164-4.8c.643-1.014,1.189-2.092,1.856-3.09,1.019-1.523,1.048-1.5-.153-2.873-.081-.093-.172-.179-.255-.271a31.385,31.385,0,0,0-13.908-8.855c-1.8-.584-1.81-.6-2.9,1.03a51.763,51.763,0,0,0-5.679,10.581c-1.106,2.936-1.482,6.062-2.436,9.039A33.594,33.594,0,0,0,3.728,200.426ZM82.873,62.677a6.59,6.59,0,0,0,.52-2.556c.582-3.861,2.892-6.738,5.35-9.516a64.1,64.1,0,0,0,6.8-8.486,9.84,9.84,0,0,1,5.319-4.227c1.017-.351,2.082-.557,3.119-.853.65-.185,1.512-.219,1.889-.66,1.093-1.277,1.988-2.726,2.98-4.134-.756-.215-1.39.372-2.151,0,1-.666,2.661.146,3.15-1.527-1.393-.128-2.707.424-4.1.276.132-.328.3-.279.443-.3,1.243-.17,2.485-.345,3.729-.509a.906.906,0,0,0,.865-.8,26.16,26.16,0,0,1-4.207.133,14.831,14.831,0,0,1,3.835-.488c.586-.019,1.015-.113,1.213-.7-.236-.2-.683.13-.863-.366.753-.15,1.55-.179,1.883-1.145a6.724,6.724,0,0,1-2.064.118c.324-.4.678-.32,1-.362.538-.069,1.2.014,1.55-.424a26.16,26.16,0,0,0,2.46-3.486c-1.564-.089-2.938.536-4.388.605a7.2,7.2,0,0,1,2.581-.809c1.381-.212,2.921-.166,3.3-1.992-.917.222-1.861.513-2.828.673a18.238,18.238,0,0,0-8.931,3.955c-4.323,3.634-7.754,8.119-11.05,12.666-2.708,3.739-5.108,7.7-7.943,11.36-3,3.872-5.519,8.091-8.407,12.047a15.078,15.078,0,0,0-2.945,5.74,23.068,23.068,0,0,0-.472,7.866c.518-.667.941-1.23,1.384-1.778a1.842,1.842,0,0,0,.41-1.5,3.563,3.563,0,0,1,.037-2.473c.144,1,.256,1.769.382,2.64,1.182-.993-.134-2.153.421-3.178.371.571.2,1.261.544,1.866.851-.981-.25-2.021.218-3.133a7.3,7.3,0,0,1,.459,2.185c.3-.52.774-.608.523-1.222a9.473,9.473,0,0,1-.465-4.737c.375,1.511.164,3.144.84,4.591,1.353-.721.711-1.83.51-2.9.721.273.371,1.038.8,1.323,1.4-1.045.609-2.456.566-3.8.77.432.252,1.281.695,1.747,1.211-.807.373-1.948.386-3.089A3.3,3.3,0,0,1,82.873,62.677ZM125.9,14.189c5.014,1.347,8.854,4.351,12.219,8.073.395-.64.742-1.249,1.134-1.828a76.835,76.835,0,0,0,6.061-11.155c.449-.979,1-1.968.561-3.172a8.927,8.927,0,0,0-2.6-3.548,5.711,5.711,0,0,0-7.624.141,47.714,47.714,0,0,0-3.929,4.328C129.855,9.4,127.915,11.72,125.9,14.189Zm7.291,20.8c1.895-2.995,3.76-5.96,5.651-8.909.294-.458.074-.721-.162-1.069a25.785,25.785,0,0,0-6.349-6.535,18.607,18.607,0,0,0-8.469-3.388,1.417,1.417,0,0,0-1.5.566c-.99,1.254-1.814,2.62-2.79,3.88-.994,1.285-1.88,2.655-2.853,4.045C123.514,25.543,128.653,29.731,133.192,34.992ZM93.01,96.385a1.254,1.254,0,0,0,.247-2.059,28.509,28.509,0,0,0-6.2-6.094c-3.425-2.449-7.027-4.5-11.244-5.2-.471-.078-1.163-.479-1.271.344-.068.526.648.494,1.016.611a35.217,35.217,0,0,1,10.85,5.875A31.058,31.058,0,0,1,93.01,96.385ZM1.1,211.933c.117-.009.2.011.231-.02q3.608-3.278,7.209-6.561c.194-.175.252-.309.057-.533-.319-.367-.564-.581-1-.084-.7.787-1.477,1.5-2.287,2.315-.186-.562.148-.676.316-.856.55-.588,1.124-1.154,1.691-1.727.2-.205.432-.4.063-.662a13.5,13.5,0,0,0-2.166-1.376c-.382-.177-.647-.229-.845.366-.515,1.55-1.2,3.041-1.744,4.583A38.137,38.137,0,0,0,1.1,211.933Zm52.606-59.376a.326.326,0,0,0-.027-.49,23.081,23.081,0,0,0-4.358-4.137,2.035,2.035,0,0,0-1.653-.577,17.919,17.919,0,0,1,4.268,3.322,11.637,11.637,0,0,0,1.786,1.872Zm12.958-39.57c-.8-1.218-3.864-2.718-5.074-2.389A18.77,18.77,0,0,1,66.664,112.987ZM22.935,168.2l2.792,1.485A3.329,3.329,0,0,0,22.935,168.2Zm46.641-47.619,2.247,2.023A3.093,3.093,0,0,0,69.576,120.578Zm-.971,1.3,1.967,1.661A2.469,2.469,0,0,0,68.605,121.878ZM62.881,109.4a5.1,5.1,0,0,0,2.341.882A3.955,3.955,0,0,0,62.881,109.4Zm11.476,5.754a2.705,2.705,0,0,0-1.774-1.468C73.234,114.092,73.548,114.918,74.357,115.15Zm9.233-14.519.139-.209a2.51,2.51,0,0,0-2-1.105ZM46.067,150.017l2.056,1.4A2.205,2.205,0,0,0,46.067,150.017ZM26.5,172.648a2.643,2.643,0,0,0-2.151-.759A5.975,5.975,0,0,0,26.5,172.648Zm-1.179,1.093a2.7,2.7,0,0,0-1.913-.724A3.692,3.692,0,0,0,25.319,173.741Zm54.349-67.7a2.729,2.729,0,0,0-1.6-1.233A2.814,2.814,0,0,0,79.668,106.038Zm-27.9,17.529c.765-.288,1.315.243,2.042.017C52.78,122.98,52.375,122.955,51.769,123.567Zm72.9-92.456a48.211,48.211,0,0,0-7.3-4.324A57.735,57.735,0,0,0,124.672,31.111Zm-.433,4.6a15.031,15.031,0,0,0-4.5-3.6C121.244,33.318,122.673,34.607,124.239,35.715Zm2.8,8.545a.976.976,0,0,0-.236-1.031c-.9-.981-1.793-1.962-2.709-2.923a.843.843,0,0,0-.907-.361,35.064,35.064,0,0,1,3.859,4.3Zm-5.824-3.735c1.325,1.2,2.349,2.657,3.592,3.928A9.526,9.526,0,0,0,121.219,40.525ZM110,61.655a11.657,11.657,0,0,0-3.244-3.751A43.8,43.8,0,0,0,110,61.655ZM121.91,32.161l3.726,3.176.189-.233a25.947,25.947,0,0,0-3.736-3.163ZM99.059,80.049a7.524,7.524,0,0,0-3.816-2.844C96.57,78.078,97.815,79.062,99.059,80.049ZM115.7,51.622a6.112,6.112,0,0,0-2.449-2.675A28.706,28.706,0,0,0,115.7,51.622Zm5.29.261a6.361,6.361,0,0,0-2.6-2.746l2.418,2.9Zm-5.5-2.823a13.57,13.57,0,0,1,2.527,2.906A3.814,3.814,0,0,0,115.489,49.06Zm-18.2,27.365c.965.626,1.623,1.6,2.613,2.2C99.179,77.711,98.564,76.667,97.288,76.425Zm-5.262.871,2.856,1.88.169-.267a15.806,15.806,0,0,0-2.878-1.848Zm6.407,5.255c.792.729,1.258,1.766,2.208,2.352C100.049,83.984,99.539,82.968,98.433,82.551ZM92.826,89.4c-.737-.708-1.312-1.6-2.455-1.843l2.253,2.073Zm13.287-26.882c.77.55,1.139,1.489,2.089,2.239C107.707,63.456,106.835,62.543,106.113,62.521ZM122.38,45.435a3.876,3.876,0,0,0-1.9-2.134l1.676,2.281Zm-2.318-9.743a18.4,18.4,0,0,0,2.338,1.437A2.949,2.949,0,0,0,120.062,35.692Zm-8.695,22.336c-.208-.739-.4-1.49-1.262-1.788C110.6,56.783,110.739,57.573,111.367,58.028Zm-2.341-.185a4.582,4.582,0,0,0,1.691,1.568C110.249,58.773,109.878,58.019,109.026,57.843Zm-2.179,8.339c-.2-1.274-.751-1.906-1.7-1.949C105.976,64.663,106.193,65.506,106.847,66.182Zm-.924.907a3.392,3.392,0,0,0-1.577-1.52A3.745,3.745,0,0,0,105.923,67.089ZM121.11,45.766a3.258,3.258,0,0,0-1.69-1.382A3.264,3.264,0,0,0,121.11,45.766ZM19.628,177.051c4.356,1.562,7.254,5,10.439,8.081C29.009,182.5,21.765,176.859,19.628,177.051ZM22.666,187.9a37.475,37.475,0,0,0-5.27-3.492l-.143.222,5.259,3.519ZM19.3,196.075a18.57,18.57,0,0,0-3.551-2.627l-.138.192L19.1,196.3Zm3.1-9.676a7.312,7.312,0,0,0-2.564-1.813A7.019,7.019,0,0,0,22.4,186.4Zm2.741-.765a4.607,4.607,0,0,0,2.232,1.736A7.559,7.559,0,0,0,25.143,185.634Zm1.366-.377,1.884,1.674.156-.186a5.934,5.934,0,0,0-1.871-1.709Zm-9.033,2.307a5.225,5.225,0,0,0,2.119,1.483A4.579,4.579,0,0,0,17.476,187.564ZM9.052,202.4c.938.415,1.284,1.316,2.251,1.5A2.849,2.849,0,0,0,9.052,202.4ZM25.2,182.461a2.994,2.994,0,0,0-1.725-1.52A4.329,4.329,0,0,0,25.2,182.461Zm-5.054,12.984a4.206,4.206,0,0,0-1.911-1.485A3.853,3.853,0,0,0,20.143,195.445Zm1.232-11.639a2.41,2.41,0,0,0,1.549,1.265A3.4,3.4,0,0,0,21.375,183.806Zm6.04.61q.727.773,1.453,1.546l.207-.213a5.393,5.393,0,0,0-1.5-1.5Zm-1.971,2.955a2.867,2.867,0,0,0,1.765,1.307A3.974,3.974,0,0,0,25.444,187.371Zm-.548.9a4.842,4.842,0,0,0,1.681,1.223l.16-.215-1.667-1.242Zm-6.722-1.248a2.539,2.539,0,0,0,1.772,1.208A3.841,3.841,0,0,0,18.174,187.025Zm3.292,7.243c-.429-.4-.748-.929-1.4-1.025C20.431,193.729,20.784,194.231,21.466,194.268Zm-4.887,1.143a2.606,2.606,0,0,0,1.541,1.282A3.278,3.278,0,0,0,16.579,195.411ZM106.333,35.033c.085-.021.269-.039.209-.229a.213.213,0,0,0-.284-.163,7.6,7.6,0,0,0-1.986.644A4.235,4.235,0,0,0,106.333,35.033Zm2.937-10.527a3.4,3.4,0,0,0-1.919.718l.086.238,1.868-.713ZM138.9,18.8c-1.477-1.828-3.115-3.3-3.837-3.38l3.629,3.611Zm-1.025-4.262c1,.769,1.485,1.744,2.4,2.57A3.792,3.792,0,0,0,137.872,14.542Zm2.138-2.295c.673.662,1.066,1.587,1.993,2.01C141.372,13.561,141.039,12.556,140.01,12.247Zm-1.033,1.62c.949.591,1.225,1.5,2.026,2.008A2.6,2.6,0,0,0,138.977,13.867Zm-1.057,2.518,1.63,1.768C139.153,16.909,138.6,16.393,137.92,16.385Zm5.3-3.381c-.531-.619-.838-1.469-1.735-1.709C142.011,11.915,142.366,12.716,143.217,13ZM141.2,9.017l1.561,1.654c-.093-.924-.765-1.349-1.343-1.854Zm-3.265,11a1.609,1.609,0,0,0-1.5-1.266C137.012,19.019,137.266,19.7,137.93,20.012Zm3.976-11.967c.324.355.568.59.771.857.191.251.286.6.736.541C143,8.955,142.925,8.128,141.906,8.045Zm-4.255,1.3c.522.311.823.844,1.614.969C138.544,9.426,138.284,9.273,137.651,9.349Zm-7.058,9.482,3.584,3.478C133.456,20.754,131.267,18.814,130.593,18.831Zm-1.631,9.945,2.625,3.411.219-.174a17.083,17.083,0,0,0-2.624-3.426Zm.582-.949c1.244,1.048,1.969,2.341,3.055,3.3C132.223,29.9,130.461,27.957,129.544,27.827Zm3.809-2.641a5.09,5.09,0,0,0-2.464-2.232C131.791,23.619,132.367,24.636,133.353,25.186Zm-2.205,2.042c.782.712,1.2,1.774,2.218,2.247C132.676,28.676,132.255,27.6,131.148,27.228Zm-.308-1.84,1.974,2.195C132.686,26.622,131.425,25.38,130.84,25.388Zm4.366-1.941a22.064,22.064,0,0,0,2.086,2.268A3.7,3.7,0,0,0,135.206,23.447Zm-.442,2.3c.456.492.619,1.242,1.361,1.467C135.749,26.648,135.49,25.97,134.764,25.744Zm-.3,2.306c.2.228.349.565.93.552-.525-.606-.77-1.257-1.709-1.542C134.055,27.528,134.247,27.8,134.469,28.05Zm-.316-4.092.165-.233a2,2,0,0,0-1.655-.9Z" fill="#151611"/>
</svg>
