<svg xmlns="http://www.w3.org/2000/svg" viewBox="0 0 202.174 210.498">
  <path d="M126.663,45.75c5.751.243,11.348-.212,16.878.518a52.173,52.173,0,0,1,24,9.088A10.106,10.106,0,0,1,170.21,57.9a1.336,1.336,0,0,0,.774.543,38.622,38.622,0,0,1,14.188,8.6c3.711,3.476,7.288,7.014,9.939,11.413a46.1,46.1,0,0,1,4.947,12.649,87.982,87.982,0,0,1,1.788,12.855,64.827,64.827,0,0,1,.246,9.774,92.456,92.456,0,0,1-1.639,13.753,99.386,99.386,0,0,1-3.828,14.578c-1.463,3.994-3.225,7.861-5.074,11.683-4.246,8.778-8.792,17.4-13.275,26.056-2.911,5.622-5.68,11.33-9.055,16.68-2.675,4.241-5.837,8.188-10.328,10.637a26.763,26.763,0,0,1-14.083,3.354,78.556,78.556,0,0,1-17.322-2.854,20.286,20.286,0,0,0-12.108.3,32.429,32.429,0,0,1-14.327,1.746c-2.492-.293-5-.2-7.481-.59-3.676-.582-6.533-2.694-9.436-4.786-5.25-3.784-8.5-9.24-12.175-14.391a240.947,240.947,0,0,1-13.6-22.346,133.306,133.306,0,0,1-7.955-18.174,130.7,130.7,0,0,1-6.325-21.11,94.686,94.686,0,0,1-1.239-10.543,56.969,56.969,0,0,1,.243-10.42c.767-7.483,2.175-14.846,5.6-21.652.346-3.41,2.546-5.869,4.411-8.451A77.388,77.388,0,0,1,64.5,64.2a39.87,39.87,0,0,1,11.254-7.283c2.012-.82,3.967-1.782,6.127-2.76-1.864-.817-3.547-1.553-5.228-2.293a96.511,96.511,0,0,0-17.1-6.024c-3.3-.763-6.654-1.345-9.933-2.2A52.563,52.563,0,0,1,36.635,38.2a34.321,34.321,0,0,0-19.3-4.815A28.9,28.9,0,0,0,4.939,37.1c-1.313.719-2.931.87-3.959,2.129a.457.457,0,0,1-.665.064.708.708,0,0,1-.291-.768,4.513,4.513,0,0,1,.841-1.767,41.091,41.091,0,0,1,6.783-6.845A145.277,145.277,0,0,0,21.9,17.093C26.182,12.76,31.331,9.552,36.432,6.3c3.1-1.975,6.085-4.186,9.729-5.023A45.376,45.376,0,0,1,56.5,0,62,62,0,0,1,68.882,1.084,45.44,45.44,0,0,1,83.464,7.143a83.566,83.566,0,0,1,19.008,15.6,40.863,40.863,0,0,1,7.081,11.012c1.415,3.293,3.163,6.459,3.771,10.068.177,1.051-.075,2.5.682,3.044.738.533,1.968-.329,3.007-.434a11.592,11.592,0,0,1,1.814-.222c1.454.09,1.808-.763,2.037-1.99,1.336-7.153,3.9-13.914,6.677-20.592a5.694,5.694,0,0,1,6.041-3.71c2.088.1,4.147.121,5.99,1.376.969.66,1.129,1.255.431,2.2-1.559,2.12-3.033,4.3-4.607,6.411A82.014,82.014,0,0,0,126.663,45.75Zm-1.776,15.9c1.533-.105,2.954-.293,3.629-2.067a20.714,20.714,0,0,1,1.689-2.953l.308.167c-.435,1.378-1.578,2.462-1.883,3.8,2.9-.047,4.583-1.639,5.6-4.175a16.827,16.827,0,0,1,1.342-2.348c.132-.218.233-.547.733-.4l-3.071,5.6c.8-.1,1.578,0,1.827-.581,1.219-2.835,3.318-5.036,5.115-7.454a3.492,3.492,0,0,1,1.472-1.247c-2.043,2.879-4.393,5.524-6.115,8.687a2.6,2.6,0,0,0,2.593-1.551,9.59,9.59,0,0,1,.9-1.326c1.727-2.427,3.619-4.724,5.55-6.987a1.359,1.359,0,0,0-.862-.344c-5.486-.558-11-.693-16.5-.9a1.771,1.771,0,0,0-1.888,1.316c-1.547,3.594-1.99,7.454-2.865,11.21-.1.44-.241.874-.3,1.319s-.494.853-.053,1.5a42.987,42.987,0,0,1,4.343-7.6c-.954,2.38-2.422,4.511-3.389,7.071a4.31,4.31,0,0,0,1.879-.779ZM87.363,45.366a29.452,29.452,0,0,1,3.346-2.557,12.926,12.926,0,0,0-2.454-1.869c1.193-.168,1.743.667,2.473,1.085.265.153.4.5.826.275,1.436-.746,2.895-1.45,4.466-2.23-1.579-1.392-3.025-2.718-4.526-3.978a60.972,60.972,0,0,0-5.949-4.718,1.781,1.781,0,0,0-1.73-.326,10.235,10.235,0,0,0-2.734,1.381,52.742,52.742,0,0,0-6.922,6.343c-2.339,2.782-4.905,5.3-8.4,6.6.059.092.089.2.146.218,4.658,1.3,8.93,3.57,13.384,5.381.749.3,1.5.9,2.232.87.875-.038.918-1.246,1.491-1.832,1.5-1.528,2.932-3.116,4.392-4.681ZM60.043,25.758l.228-.2c1.77-1.006,3.139-2.595,5.282-3.49A42.808,42.808,0,0,0,61.4,20.89c-4.689-.819-9.409-.428-14.123-.233a3.059,3.059,0,0,0-2.818,1.482,6.7,6.7,0,0,1-1.941,1.7,63.592,63.592,0,0,1-8.809,4.911A19.621,19.621,0,0,0,28.1,32.61a34.378,34.378,0,0,1,8.944,3.7c1.719.989,3.518,1.837,5.293,2.722.337.168.686.408,1.123.094.622-.445,1.3-.819,1.986-1.248a17.825,17.825,0,0,0-3.128-1.615c1.323-.233,2.017.487,2.829.8.368.142.7.6,1.124.341a27.4,27.4,0,0,0,5.085-3.34l-3.688-2c.278-.391.526-.247.784-.115a22.059,22.059,0,0,1,2.491,1.281c.836.57,1.374.444,1.874-.448l-3.163-1.349a2.426,2.426,0,0,1,2.206.375c1.347.861,2.049.174,2.846-.787.405-.489.4-.686-.158-.931-.682-.3-1.348-.632-2.3-1.081a3.965,3.965,0,0,1,2.674.685c.317.137.582.433.952.043.76-.8,1.557-1.569,2.391-2.4-1.524-.9-3.25-1.19-4.791-1.935a7.989,7.989,0,0,1,4.2,1.067C58.793,27.006,59.49,26.8,60.043,25.758Zm20.164,5.417,2.875-1.16c-.383-.235-.724-.453-1.073-.657a118.889,118.889,0,0,0-12.563-5.909,4.339,4.339,0,0,0-4.473.446,46.4,46.4,0,0,0-5.955,4.817c-2.067,1.892-3.936,4.009-6.053,5.837a31.067,31.067,0,0,1-9.022,5.2,35.808,35.808,0,0,0,5.835,2.069c4.573,1.07,9.168,2.047,13.756,3.049.3.064.559.261.927.067a31.031,31.031,0,0,0,5.316-3.643c-.8-.6-1.8-.5-2.618-1.219a4.072,4.072,0,0,1,2.554.559.786.786,0,0,0,1.228-.5c.2-.555-.465-.339-.7-.523-.5-.39-1.318.008-1.7-.713a3.381,3.381,0,0,1,2.214.3c.677.317,1.023.1,1.449-.4,1.123-1.319,2.267-2.623,3.459-3.878.518-.545.313-.672-.241-.892-.95-.377-1.87-.831-2.86-1.279a.8.8,0,0,1,.992-.079c.822.352,1.674.637,2.471,1.037a.98.98,0,0,0,1.226-.128c.976-.817,1.97-1.613,2.957-2.417Zm24.07,28.448c-.413-.819-.477-1.584-1.583-1.585a55.5,55.5,0,0,1-15.96-2.583,4.735,4.735,0,0,0-4.559.584A17.164,17.164,0,0,1,80,57.192c-2.574,1.379-5.348,2.34-7.847,3.882C65.872,64.952,61.018,70.3,56.58,76.129A57.282,57.282,0,0,0,49.8,87.063c-2.953,6.509-4.011,13.549-4.783,20.6a66.458,66.458,0,0,0,.4,15.823,84.171,84.171,0,0,0,4.331,17.028c2.276,6.469,4.837,12.842,7.561,19.148,2.738,6.338,6.6,12.032,9.752,18.125,2,3.871,4.781,7.242,7.2,10.842,2.714,4.037,5.274,8.175,8.924,11.532a24.987,24.987,0,0,0,16.222,7.051,44.36,44.36,0,0,0,14.724-1.771c3.122-.914,6.242-1.845,9.563-1.263,5.814,1.019,11.434,2.994,17.352,3.512a45.142,45.142,0,0,0,6.884.252c3.2-.208,6.138-1.469,9.156-2.391a8.537,8.537,0,0,0,4.205-2.457,58.253,58.253,0,0,0,7.685-10.713c3.941-7.518,7.834-15.061,11.738-22.6,2.946-5.687,5.971-11.335,8.791-17.084,4.1-8.351,7.416-16.966,8.813-26.273a101.2,101.2,0,0,0,1.338-11.8c.04-1.278-.132-2.565-.06-3.839a61.656,61.656,0,0,0-.788-13.209c-1.192-7.474-2.773-14.824-7.775-20.935a78.661,78.661,0,0,0-9.322-10.066c-6.242-5.357-13.739-7.915-21.877-8.5a66.424,66.424,0,0,0-15.2,1.042c-7.32,1.166-14.315,3.653-21.363,5.884a4.943,4.943,0,0,0-2.5,1.24,1.5,1.5,0,0,1-1.9.52c-2.432-.725-4.612-2.051-7.012-2.851a121.688,121.688,0,0,0-22.416-5.1c-.343-.046-.909.119-.93-.356-.026-.615.61-.412.959-.45,3.3-.362,6.516.372,9.753.834A35.739,35.739,0,0,0,104.277,59.623ZM52.992,19.174a36.656,36.656,0,0,0-6.25-4.558c-2.547-1.443-5.386-1.879-8.2-2.332-2.34-.376-4.716-.521-7.078-.76a1.367,1.367,0,0,0-.89.361,52.917,52.917,0,0,0-8.107,6.659A168.065,168.065,0,0,1,6.832,32.21,10.718,10.718,0,0,0,3.4,36.233c3.288-2.6,7.243-3.3,11.132-4.111a30.89,30.89,0,0,1,11.151.069,1.7,1.7,0,0,0,2.158-1.116c-.571-.2-1.283.066-1.858-.458,1.186-.538,2.66.675,3.549-.9-.359-.22-.887-.147-1.229-.886,2.471,1.213,3.806-.778,5.668-1.4-.588-.662-1.315-.265-2.066-.758,1.79-.465,3.773.835,5.071-1.009a6.029,6.029,0,0,1-2.777-.724c1.756-.316,3.509.914,5.257-.384,1.459-1.083,3.2-1.774,4.371-3.358-5.742.986-11.571,1.2-17.19,2.949S16.211,29.3,10.821,31.974c.2-.921.834-1.069,1.264-1.378a51.968,51.968,0,0,1,13.022-7.12,68.173,68.173,0,0,1,11.725-2.555c3.1-.509,6.213-.935,9.347-1.255C48.371,19.443,50.589,19.678,52.992,19.174Zm-19.9-8.923a65.508,65.508,0,0,1,6.622.771,23.694,23.694,0,0,1,12.078,5.585c.941.8,1.6,2.1,2.551,2.569,1,.494,2.478,0,3.748-.064.121-.006.244.033.367.039,3.64.19,7.038,1.408,10.477,2.473,2.3.712,4.538,1.592,6.919,2.481-.176-.345-.289-.553-.391-.767-2.083-4.389-5.129-8.166-7.652-12.275a6.564,6.564,0,0,0-3.277-2.842,41.569,41.569,0,0,1-9.084-4.8C54.421,2.7,53.32,1.782,51.824,1.858,44.642,2.219,39.039,6.149,33.087,10.251ZM90.722,32.685c-.97-2.864-1.195-5.614-2.008-8.228C86.7,17.974,82.622,12.734,78.732,7.365a7.6,7.6,0,0,0-4.275-2.841c-2-.582-4.007-1.151-6.046-1.542a34.578,34.578,0,0,0-6.36-.752,41.51,41.51,0,0,1,3.913,4.384A171.032,171.032,0,0,1,77.179,24.087a2.065,2.065,0,0,0,.94,1.094A71.7,71.7,0,0,1,90.722,32.685ZM80.353,7.456c1.812,2.46,3.361,5.066,5.027,7.593A43.4,43.4,0,0,1,91.257,30.5c.313,1.518.564,3.162,2.03,4.186A60.341,60.341,0,0,1,98.8,38.994c1.081.96,2.133,1.951,3.2,2.929l.292-.165c-.58-1.376-.56-2.92-1.4-4.227-.8-1.24-1.572-2.5-2.518-4.006,1.191.594,1.45,1.658,2.36,2.314-.232-2.053-.9-3.84-1.168-5.689-.291-2.013-2.111-2.943-3.078-4.811,1.007.433,1.32,1.228,2.2,1.7-1.087-2.953-2.1-5.72-3.135-8.477-.078-.207-.338-.35-.525-.509-2.2-1.866-4.35-3.783-6.6-5.578A42.964,42.964,0,0,0,80.353,7.456Zm2.655,44.872a1.845,1.845,0,0,0,.4.255,86.906,86.906,0,0,0,10.66,2.673c2.184.374,4.343.951,5.978-1.37.474-.674.509-.888-.179-1.243-.526-.272-1.017-.615-1.749-1.064a3.286,3.286,0,0,1,2.456.939c.373.249.718.565,1.008.067.235-.4-.318-.46-.522-.6-1.519-1.065-3.068-2.089-4.632-3.143.417-.362.675-.085.939.07a41.342,41.342,0,0,1,4.379,2.925c.24.187.338.48.771.216,1.221-.743,2.489-1.406,3.834-2.154-2.807-2.935-5.72-5.645-8.688-8.3a.865.865,0,0,0-1.076-.15A37.607,37.607,0,0,0,83.008,52.328Zm30.325,2.359c-1.607-13.2-6.1-24.649-15.42-33.858.326,1.315.789,2.574,1.208,3.847a104.313,104.313,0,0,1,3.385,14.716,11.64,11.64,0,0,0,3.577,6.968,27.209,27.209,0,0,1,3.44,3.88C110.623,51.705,111.9,53.034,113.333,54.687Zm5.981,9.6c.8-6.162,1.043-12.422,4.022-18.05-.185,1.493-.658,2.918-.984,4.376a29.4,29.4,0,0,0-.938,4.587,95.134,95.134,0,0,1,16.98-31.517c-2.6-.378-3.1,1.946-4.536,3.283.218-1.55,1.416-2.265,1.98-3.361-1.071-.443-1.728-.046-2.323.886A50.928,50.928,0,0,0,129.49,31.4c-.271.622-.4,1.386-1.046,1.824-.3-.322-.025-.532.046-.713a38.63,38.63,0,0,1,4.81-8.553c.147-.2.682-.532.11-.8-.375-.174-.814-.641-1.183.292a18.535,18.535,0,0,1-1.927,3.072l-.351-.231,2.056-3.35c-.693-.278-1.014.021-1.331.564-1,1.719-2.065,3.4-3.1,5.1.422-2.27,1.947-3.967,2.987-5.956-1-.368-1.378.318-1.72.967a76.9,76.9,0,0,0-4.34,11.037,78.653,78.653,0,0,0-3.35,14.212c-.479,3.258-1.084,6.5-1.508,9.763A17.422,17.422,0,0,0,119.314,64.288Zm34.879-7.664a45.62,45.62,0,0,1,12.4.707,2.813,2.813,0,0,0-.364-.41c-6.253-3.973-12.88-7-20.261-8.107a1.118,1.118,0,0,0-1.166.473c-1.64,2.1-3.355,4.148-4.974,6.269a7.634,7.634,0,0,0-1.486,2.413c1.442-.258,2.758-.531,4.086-.713a1.687,1.687,0,0,0,1.241-.793c.442-.6.7-1.455,1.688-1.706-.272.89-1.111,1.313-1.237,2.211,2.4.331,2.631-2.273,4.4-3.108-.49,1.213-1.406,1.883-2.065,2.865,1.051.229,1.84.285,2.444-.689a7.518,7.518,0,0,1,1.465-1.661c.654-.571,1.095-1.413,1.861-1.849l.233.25-3.431,3.961a2.916,2.916,0,0,0,2.994-1.209,8.542,8.542,0,0,1,3.01-2.534c-.8,1.453-2.451,2.156-3.191,3.714,2.253.48,2.874-2.085,4.863-2.459A23.6,23.6,0,0,1,154.193,56.624Zm-35.268-.3c.374-2.812.686-5.345,1.062-7.868.09-.606-.125-.691-.618-.691a15.425,15.425,0,0,0-4.75,1.016c-.5.164-.311.45-.248.773a11.935,11.935,0,0,1,.407,4.663c-.391,1.9.573,3.122,1.9,4.58-.435-1.55-.794-2.827-1.153-4.1,1.464,2.021,1.586,4.517,2.488,6.743a.757.757,0,0,0,.449-.7,10.282,10.282,0,0,0-.564-5.588c-.7-1.577-1.2-3.243-1.781-4.87C117.615,51.916,117.9,54.081,118.925,56.326Zm-19.309-.42c3.976.4,7.714-.086,11.6.262a43.661,43.661,0,0,0-3.59-4.868.588.588,0,0,0-.853-.185C104.388,52.555,101.86,53.773,99.616,55.906ZM65.417,7.528c-1.289-1.994-3.083-3.393-4.612-5.035a.887.887,0,0,0-.548-.252c-1.578-.079-3.156-.132-4.763-.2A30.258,30.258,0,0,0,65.417,7.528Zm43.2,50.338a4.226,4.226,0,0,1,1.693,2.243c.675,1.251.642,1.269,1.724,1.326-.493-1.09-.975-2.163-1.466-3.232-.13-.283-.195-.62-.653-.584-1.457.114-2.917.2-4.415.3.857,2.379,1.725,2.932,4.623,3.017Zm6.272,4.651a27.666,27.666,0,0,0-2.62-4.69c-.312-.492-.652-.412-1.038-.228-.533.254-.075.559.018.8a20.654,20.654,0,0,1,.877,2.02A2.778,2.778,0,0,0,114.886,62.517Zm16.889-41.13c.753.834,1.755.375,2.578.687a10.013,10.013,0,0,0,3.73.524c.318,0,.691-.137.734-.336.077-.361-.349-.335-.595-.458C136.146,20.764,133.979,21.4,131.775,21.387ZM104.556,57.956c-.062.025-.249.053-.26.113-.085.474.233.831.4,1.228.123.286.2.655.628.623a.427.427,0,0,0,.3-.14A3.29,3.29,0,0,0,104.556,57.956Zm-44.285-32.4a2.992,2.992,0,0,0-2.854-.895l2.626,1.1ZM186.247,75.123c4.856,6.7,8.649,13.883,10.046,22.536C197.445,93.714,189.153,75.618,186.247,75.123ZM68.332,72.4a87.391,87.391,0,0,1,7.609-8.751c-2.237.218-13.286,14.61-13.89,18.119C63.5,78.211,65.965,75.33,68.332,72.4ZM48.714,116.188c-.027-6.6,1.087-12.759,2.056-18.94C49.457,98.844,47.864,113.617,48.714,116.188ZM73.4,72.6c-2.956,1.312-9.1,11.055-8.454,13.337C66.272,80.54,70.166,76.9,73.4,72.6Zm-9.092,66.818c.67,4.765,1.686,9.461,2.723,14.152l.381-.076q-1.349-7.073-2.7-14.146Zm24.36,60.822a68.794,68.794,0,0,1-3.653-12.923C85.46,191.847,86.322,196.26,88.666,200.24ZM61.235,149.489q-1.077-6.6-2.153-13.195l-.413.069c.519,4.431,1.3,8.819,2.193,13.188Zm31.641,51.452c-1.426-4.32-2.5-8.526-3.675-12.7C88.842,189.788,91.741,199.86,92.876,200.941ZM71,175.161a70.768,70.768,0,0,1-2.078-7.67c-.36-1.338-.612-2.706-.9-4.063-.065-.306-.187-.633-.517-.536-.364.106-.066.394-.016.605.485,2.065.965,4.131,1.454,6.195a21.4,21.4,0,0,0,2.088,6.069A1.916,1.916,0,0,0,71,175.161Zm3.062-23.509a47.786,47.786,0,0,1-3.447-10.433c-.05-.244.146-.7-.324-.619-.39.065-.193.473-.178.734a4.849,4.849,0,0,0,.134.72,52.01,52.01,0,0,0,2.556,8.046,5.6,5.6,0,0,0,1.477,2.5C74.5,152.168,74.2,151.934,74.066,151.652ZM55.915,135.1c-.2-1.919-.684-3.833-.313-5.764a.9.9,0,0,0-.142-.85.328.328,0,0,0-.323-.029,1,1,0,0,0-.21.811,35.627,35.627,0,0,0,.435,5.786,18.884,18.884,0,0,0,1.45,5.577C56.57,138.765,56.106,136.956,55.915,135.1Zm-5.994-7.512c-.868.941.283,10.006,1.452,11.542A86.289,86.289,0,0,1,49.921,127.589ZM75.306,75.8c-2.1,1.366-5.958,8.8-5.421,10.479C70.945,82.292,73.351,79.162,75.306,75.8Zm.574,44.805c-.688,2.5.623,10.293,1.953,11.679C76.4,128.526,76.46,124.51,75.88,120.605Zm-22.332-9.3a51.9,51.9,0,0,1,1.087-11.869C53.3,100.931,52.574,110.052,53.548,111.3Zm3.92.261a104.15,104.15,0,0,1,.956-10.911C57.238,102.251,56.633,110.713,57.468,111.564Zm5.254-10.457a72.369,72.369,0,0,1,2.127-10.461C63.549,92.139,61.983,100.013,62.722,101.107Zm100.963,42.851c-.819,3.312-.664,6.7-.948,10.056A56.839,56.839,0,0,0,163.685,143.958Zm-5.825,2.264c.09,3.345-.022,6.685-.2,10.023A22.461,22.461,0,0,0,157.86,146.222ZM74.6,174.729q-1.317-4.508-2.632-9.014l-.4.123a72.141,72.141,0,0,0,2.7,9.009ZM67.2,173.491c-.47-3.272-2.172-6.2-2.737-9.458C64.467,167.439,66.172,170.365,67.2,173.491Zm7.027-42.34c-1.4-3.349-1.487-6.6-1.664-10.045C71.6,122.834,72.665,129.839,74.229,131.151ZM61.359,86.9a20.558,20.558,0,0,0-2.907,9.217C59.089,92.926,60.4,89.968,61.359,86.9Zm20.276,99.567a75.056,75.056,0,0,0,2.383,9.29l.364-.092-2.352-9.235ZM152.547,72.272c.59,3.062,1.96,5.84,3.119,8.694A46.168,46.168,0,0,0,152.547,72.272ZM192.31,126.31c1.308-2.786,1.629-5.821,2.106-8.809C193.38,120.359,193.058,123.385,192.31,126.31ZM72.849,87.615c.252-3.068,2.406-5.051,3.737-7.492C74.509,81.3,72.087,86.138,72.849,87.615ZM104.975,103.6a29.515,29.515,0,0,0,1.732,9.106C106.176,109.666,105.649,106.621,104.975,103.6Zm-28.769,61c-.573,1.3,1.26,6.552,2.82,8A41.377,41.377,0,0,1,76.206,164.6Zm-1.43-23.969c-.266,1.726,1.84,7.58,2.9,8.3C76.475,146.366,75.822,143.6,74.776,140.631ZM158.182,194.9c-.98,2.572-2.636,4.644-3.689,7.039C156.33,200.175,158.474,196.036,158.182,194.9ZM80.338,190.7a20.307,20.307,0,0,1-1.137-3.748.3.3,0,0,0-.438-.271c-.252.11-.148.342-.083.535.557,1.668,1.083,3.348,1.689,5,.272.741.378,1.6,1.263,2.022C81.2,193.06,80.72,191.9,80.338,190.7Zm33.26-76.774a37.048,37.048,0,0,1-.99-8.578C111.865,107.412,112.427,112.542,113.6,113.928ZM80.609,90.257a27.81,27.81,0,0,1,2.957-7.441C82.007,83.923,80.064,88.759,80.609,90.257ZM60.655,110.943A42.339,42.339,0,0,1,61.4,102.8C60.352,103.835,59.818,109.87,60.655,110.943Zm-5.318,40.119a52.332,52.332,0,0,0-2.492-7.724l-.357.123L55,151.179ZM166.4,145.27c-.1,2.811-.683,5.294-.521,8.139C166.59,151.91,166.965,146.5,166.4,145.27ZM93.766,190.479a43.728,43.728,0,0,0,2.269,7.558l.327-.1q-1.11-3.787-2.219-7.576Zm59.926,6.555-4.4,5.42.331.268a36.506,36.506,0,0,0,4.314-5.493Zm-35.878-91.859c-.774,2.589-.157,5.1.513,7.635C118.2,110.277,117.692,107.748,117.814,105.175ZM52.84,131.429c.407-1.168-.046-2.3.014-3.425a14.759,14.759,0,0,1,.346-3.693C52.232,125.3,52.073,130.169,52.84,131.429Zm8.642,27.046-3.012-6-.356.183a42.654,42.654,0,0,0,3,6.01ZM78.287,84.942a11.615,11.615,0,0,0,1.639-3.009c-1.5,1.838-2.983,3.689-3.078,6.213A20.415,20.415,0,0,1,78.287,84.942ZM162.456,193.4q-1.731,2.841-3.461,5.682l.368.222a34.051,34.051,0,0,0,3.362-5.743Zm10.235-45.186c-.621,2.111-1.335,4.2-1.019,6.471C171.9,152.514,172.7,150.425,172.691,148.213Zm-53.212,50.932A24.892,24.892,0,0,0,118,192.737,21.315,21.315,0,0,0,119.479,199.145Zm3.67.655q-.272-3.2-.544-6.39l-.372.035a26.546,26.546,0,0,0,.576,6.359Zm33.3-126.875c.5,2.084,1.376,4.043,1.938,6.105A12.02,12.02,0,0,0,156.453,72.925ZM79.333,141.38c-.472,1.151,1.337,4.867,2.682,5.413A22.811,22.811,0,0,1,79.333,141.38Zm68.589,8.713a18.4,18.4,0,0,0,.329,6.044A21.016,21.016,0,0,0,147.922,150.093Zm-48.8,46.259c-.383-2.041-1.3-3.911-1.847-5.9C97.185,192.645,98.233,194.474,99.126,196.352Zm79.6-128.136,4.321,3.988.231-.25a26.928,26.928,0,0,0-4.247-4.026Zm-28.321,37.105c-.5-1.782-.721-3.661-1.71-5.278l-.315.1q.839,2.65,1.678,5.3Zm-80.992,15.1a13.113,13.113,0,0,0,.577,5.685A18.66,18.66,0,0,0,69.417,120.416Zm13.194,50.935c-.624-1.833-1.388-3.618-1.9-5.519A9.072,9.072,0,0,0,82.611,171.351ZM65.08,119.52c-.607,1.836-1.2,3.672-.645,5.666C64.431,123.291,65.148,121.446,65.08,119.52Zm-.468-8.937a24.52,24.52,0,0,1,.7-6.216C64.242,105.324,63.8,109.135,64.612,110.583Zm38.632,86.075-2.356-5.4-.36.167a23.588,23.588,0,0,0,2.439,5.358Zm67.048-10.793c.741-1.759,1.433-3.4,2.126-5.048C170.993,182.357,170,184.957,170.292,185.865ZM66.986,120.407a10.365,10.365,0,0,0,.195,5.7C67.208,124.2,67.091,122.3,66.986,120.407ZM167.8,186.778c.273-2.014,1.03-3.665,1.271-5.445C167.96,182.972,167.346,185.517,167.8,186.778Zm-1.086-4.833c-.8,1.524-1.728,3-1.8,4.782A18,18,0,0,0,166.718,181.945Zm-99.461-87.1c-1.2.958-1.934,3.77-1.3,5.025C65.958,98.14,66.763,96.6,67.257,94.842Zm54.392,11.608a6.028,6.028,0,0,0,.655,5.048A31.59,31.59,0,0,1,121.649,106.45ZM83.68,142.486c-.282,1.235.65,3.2,2.263,4.715A38.716,38.716,0,0,1,83.68,142.486ZM62.605,124.918a19.308,19.308,0,0,1,.615-5.03C62.22,120.874,61.835,123.748,62.605,124.918Zm113.769,24.048a6.4,6.4,0,0,0-.65,4.548C175.769,151.979,176.459,150.521,176.374,148.966Zm-11.805,32.175c-.45,1.651-1.453,3.094-1.629,4.836C163.6,184.4,164.794,183.021,164.569,181.141ZM78.912,123.418c.3,1.63.3,3.35,1.374,4.738C79.809,126.583,79.8,124.863,78.912,123.418Zm109.03-37.731a13.466,13.466,0,0,0-2.458-4.139A12.432,12.432,0,0,0,187.942,85.687ZM99.733,103.36a5.434,5.434,0,0,0,.673,4.39C100.073,106.3,100.064,104.8,99.733,103.36Zm16.4,97.236.323-.056-.683-4.39A6.669,6.669,0,0,0,116.132,200.6Zm50.188-42.209a8.034,8.034,0,0,0-1.206,3.918A10.176,10.176,0,0,0,166.32,158.387Zm19.493-79.949,1.719,3.651.331-.162a13.936,13.936,0,0,0-1.71-3.656ZM145.026,202.654c.836-1.082,1.8-2.087,1.946-3.6l-2.238,3.354Zm.1-46.819a18.093,18.093,0,0,1-.9-4.217A3.857,3.857,0,0,0,145.122,155.835Zm45.519-29.579L191.7,121.9l-.342-.083a16.255,16.255,0,0,0-1.1,4.364ZM124.85,196.38a5.392,5.392,0,0,0,1.072,3.868q-.372-1.945-.745-3.891Zm61.141-51.264a6.188,6.188,0,0,0-.251-3.747A7.5,7.5,0,0,0,185.991,145.116ZM52.611,133.908A5.067,5.067,0,0,0,53.049,138C52.913,136.623,52.829,135.256,52.611,133.908Zm143.221-8.415a8.171,8.171,0,0,0,.765-4.051A7.736,7.736,0,0,0,195.832,125.493ZM74.367,178.7a17.235,17.235,0,0,0,1.9,3.393l.3-.177-1.839-3.427ZM97.8,108.12c-.566-1.571-.241-2.916-.315-4.447A3.981,3.981,0,0,0,97.8,108.12Zm62.223-36.955c-.307,1.39.677,3.158,1.826,3.337C160.889,73.62,160.659,72.34,160.024,71.165Zm34.85,36.2a6.234,6.234,0,0,0-.281-3.55A8.154,8.154,0,0,0,194.874,107.364ZM94.666,103.238c-.719,1.275-.1,2.537.039,3.805C95.143,105.763,94.611,104.513,94.666,103.238Zm57.465-4.473a4.664,4.664,0,0,0,1.689,3.363C153,101.136,153.08,99.685,152.131,98.765ZM113.622,200.283l-1.057-3.576-.328.1a9.211,9.211,0,0,0,1.08,3.61Zm28.449,2.175a3.09,3.09,0,0,0,1.8-2.73C143.354,200.72,142.522,201.467,142.071,202.458ZM56,144.419l-.316.107a4.914,4.914,0,0,0,1.405,3.348Zm84.94,6.871a3.776,3.776,0,0,0,.189,3.384C140.945,153.56,141.239,152.4,140.942,151.29Zm47.472-6.526c.121-1.087.709-2.108.436-3.23A4.006,4.006,0,0,0,188.414,144.764Zm-61.152-34.71c-.49-1.237-.924-2.336-1.359-3.435A3.6,3.6,0,0,0,127.262,110.054Zm54.5,34.427c-.023,1.1-.549,2.186.209,3.3l.128-3.3Zm-29.674,12.88c.4-1.389.093-2.553.5-3.616C151.812,154.576,151.668,155.609,152.091,157.361Zm13.825-85.122.348-.12-.992-2.805C164.842,70.52,165.5,71.336,165.916,72.239ZM86.35,167.822c.413,1.053.162,2.178.927,3.189C87.348,169,87.155,168.288,86.35,167.822Zm18.377,24.463a2.6,2.6,0,0,0,1.26,3.088A16.105,16.105,0,0,1,104.727,192.285ZM82.293,127.561c-.343-1.172-.646-2.2-1.02-3.481A3.358,3.358,0,0,0,82.293,127.561Zm-20.367,25.61a7.006,7.006,0,0,0,1.412,2.791l.3-.156-1.4-2.833Zm93.166-56.853c-.05,1.326-.072,2.329,1.022,2.911C155.4,98.505,155.869,97.317,155.092,96.318Zm-87.505,10.54a2.649,2.649,0,0,0-.617,3.079Zm94.92-35.3c.329.813.433,1.739,1.42,2.23q-.518-1.209-1.036-2.419ZM77.087,179.542l1.433,2.38A2.144,2.144,0,0,0,77.087,179.542Zm83.07-82.907c-.856-.4-1.179-1.263-1.942-1.853C158.584,96.328,159.183,96.909,160.157,96.635Zm8.665-25.516.312-.1q-.364-1.3-.728-2.592C167.83,69.51,168.527,70.25,168.822,71.119ZM132.254,198.913a3.309,3.309,0,0,0,1.212,2.528,21.974,21.974,0,0,0-.763-2.41,3.24,3.24,0,0,1-.086-.356Zm-51.3-17.774c-.384-.734-.749-1.43-1.276-2.438C79.606,180.151,80.073,180.938,80.958,181.139Zm9.8-36.562c-.692-.4-1.011-1.209-1.843-1.453C89.3,143.865,89.735,144.575,90.753,144.577Zm62.05,1.842c-.652,1.044-.165,1.733.126,2.452C153.265,148.108,152.894,147.414,152.8,146.419ZM85.017,126.848c-.083-.895-.661-1.476-.935-2.409A2.028,2.028,0,0,0,85.017,126.848ZM128.993,198.2a2.45,2.45,0,0,0,.911,2.25q-.284-1.154-.566-2.306ZM90.38,170.378c-.317-.765.068-1.584-.344-2.342C89.83,168.842,89.553,169.652,90.38,170.378Zm20.071,31.087a4.337,4.337,0,0,0-.558-2.513A2.925,2.925,0,0,0,110.451,201.465ZM44.376,16.258a6.626,6.626,0,0,0,3.338.043A6.429,6.429,0,0,0,44.376,16.258Zm-22.193,12.1c.953.038,1.845.686,3.14.364A3.566,3.566,0,0,0,22.183,28.359Zm58.023,2.817a33.885,33.885,0,0,0-9.947-4.418c3.226,1.306,6.265,3,9.382,4.527.137.067.376-.076.567-.121Zm-5.608,4a13.134,13.134,0,0,0-4.673-2.126A14.157,14.157,0,0,0,74.6,35.178ZM61.171,37.039c1.136.2,2.133.822,3.294.936C63.5,37.264,62.5,36.627,61.171,37.039Zm17.053-4.852a4.785,4.785,0,0,0-2.851-1.327A5.743,5.743,0,0,0,78.224,32.187ZM67.81,16.838a43.217,43.217,0,0,0,4.527,2.337A8.229,8.229,0,0,0,67.81,16.838Zm-1.836-2.469.119-.295a5.387,5.387,0,0,0-3.538-1.134Zm-4.52-.533,2.269,1.425A2.048,2.048,0,0,0,61.454,13.836Zm-17.765,20.4,3.54,1.844.161-.337a8.827,8.827,0,0,0-3.588-1.8ZM40.4,32.75a5.485,5.485,0,0,0-3.04-1.181A5.539,5.539,0,0,0,40.4,32.75Zm45.1-13.664c-1.134-1.035-2.182-2.187-3.816-2.533l3.576,2.887ZM84.879,20.9a5.414,5.414,0,0,0-2.837-2.152C83.041,19.391,83.6,20.635,84.879,20.9ZM78.656,8.559l.1-.3c-.917-.53-1.807-1.136-2.974-.772ZM81.9,13.946a3.726,3.726,0,0,0-2.382-1.473A4.186,4.186,0,0,0,81.9,13.946ZM75.571,9.934a3.665,3.665,0,0,0-2.194-1.167A2.735,2.735,0,0,0,75.571,9.934Zm11.794,35.43a.513.513,0,0,0-.229-.737,32.9,32.9,0,0,0-4.222-2.459c-.161-.073-.4-.129-.51.212l5,2.949ZM89.1,38.658c1.621.594,2.8,1.745,4.286,2.343C92.241,39.51,90.165,38.391,89.1,38.658Zm-.039,4.094a7.591,7.591,0,0,0-3.881-1.666l3.677,2.05Zm10.853-8.841a5.619,5.619,0,0,0-1.891-3.069C98.581,31.919,98.913,33.132,99.912,33.911Zm-7.351-8.132c.947.6,1.4,1.613,2.411,2.159A2.781,2.781,0,0,0,92.561,25.779Zm32.324,35.875c.772-1.843,2.176-3.355,2.756-5.309a52.706,52.706,0,0,0-3.152,4.836c-.256.436-.022.616.444.431Zm4.942-10.921-1.647,2.193A2.19,2.19,0,0,0,129.827,50.733ZM98.586,48.659c.813.287,1.262,1.241,2.232,1.2C100.133,49.334,99.623,48.45,98.586,48.659Zm26.29-7.758a7,7,0,0,0-.9,3.836q.645-1.852,1.292-3.706Zm-2.2,3.163a9.151,9.151,0,0,0,1.156-3.49A5.878,5.878,0,0,0,122.673,44.064Zm4.741-12.017,1.395-2.655A2.646,2.646,0,0,0,127.414,32.047Zm17.215,20.2a15.615,15.615,0,0,0-2.236,3.176A4.928,4.928,0,0,0,144.629,52.242Z" fill="#151611"/>
</svg>
