<svg xmlns="http://www.w3.org/2000/svg" viewBox="0 0 174.068 248.781">
  <path d="M54.421,24.7c.095-1.38.091-2.367.241-3.329a21.523,21.523,0,0,1,7.8-13.446c2.5-2.108,4.919-4.31,7.38-6.462C71.163.3,72.861.206,74.445.13a59.157,59.157,0,0,1,9.9.157C86.416.534,88.512.114,90.61.1c5.138-.03,9.314,2.144,12.91,5.549a39.662,39.662,0,0,1,7.905,10.269c.783,1.478,1.885,2.849,2.762,4.335a24.657,24.657,0,0,1,2.3,5.8,3.645,3.645,0,0,1,.11,1.664c-.5,2.512-.41,5.149-1.47,7.54-.311.7-.013.894.547,1.094,2.888,1.033,5.748,2.152,8.663,3.1a12.886,12.886,0,0,1,3.556,1.81c2.968,2.119,6.5,3.283,9.352,5.584,1.993,1.609,3.942,3.265,5.8,5.052,1.625,1.563,3.728,2.609,5.478,4.056,5.162,4.268,10.044,8.909,13.162,14.906a45.113,45.113,0,0,1,4.767,14.365c.575,3.993.58,8.011.821,12.02.379,6.288.149,12.583.31,18.872a114.307,114.307,0,0,0,2.913,21.351c.981,4.515,2.062,9.013,2.85,13.562a25.353,25.353,0,0,1,.339,7.341,53.6,53.6,0,0,0,.081,10.4c.266,3.536.006,7.037-.026,10.553-.074,8.121-.553,16.264.062,24.357.405,5.32.271,10.6.156,15.892A21.126,21.126,0,0,1,169.5,232.76c-2.4,2.991-5.513,5.1-8.572,7.31-2.223,1.6-4.785,1.812-7.325,2.174a72.558,72.558,0,0,1-11.54.907c-7.971-.144-15.937-.033-23.9.195-6.76.194-13.466.935-20.192,1.536-8.163.73-16.207,2.324-24.344,3.157a92.988,92.988,0,0,1-14.229.671,11,11,0,0,1-3.15-.48c-2.16-.765-4.442-.364-6.641-.737a50.216,50.216,0,0,1-11-3.66c-5.32-2.238-10.041-5.467-14.789-8.674a33.793,33.793,0,0,0-4.867-3.025c-5.255-2.373-8.664-6.377-10.878-11.69a73.169,73.169,0,0,1-4.752-17.532A123.613,123.613,0,0,1,1.7,180.7c.158-4.849.4-9.7,1.039-14.526a84.2,84.2,0,0,1,2.3-12.216,15.443,15.443,0,0,1,4.97-8.236c.406-.323.329-.74.329-1.15,0-5.451.13-10.906-.038-16.352-.235-7.625-.874-15.232-.884-22.874,0-2.369-.21-4.771-.166-7.153.043-2.282.309-4.56.508-6.837.147-1.679-.668-3.152-.989-4.727C7.743,81.593,6.055,76.734,4.653,71.8a102.466,102.466,0,0,1-3.57-19.7C.729,47.758-.082,43.458.007,39.085c.029-1.445.128-2.893.3-4.327a3.371,3.371,0,0,1,.665-1.807c1.5-1.621,2.383-3.682,3.808-5.328a26.1,26.1,0,0,1,7.743-5.88c4.73-2.487,9.17-5.5,14.086-7.658,3.5-1.531,6.929-2.415,10.732-1.072,2.882,1.017,5.928,1.56,8.593,3.179A21.159,21.159,0,0,1,52,21.706C52.69,22.637,53.458,23.513,54.421,24.7ZM33.446,63.616c1.542-1.624,2.99-3.357,4.657-4.838,1.219-1.084,1.9-1.993.6-3.406-.026-.027.053-.151.084-.234.369-.126.518.171.621.4.529,1.181,1.092,1.028,1.975.269,1.623-1.394,3.387-2.62,5.053-3.966A55.307,55.307,0,0,1,56.705,45.4c3.158-1.563,6.633-2.566,9.933-3.874a69.648,69.648,0,0,1,22.5-5.037c4.31-.2,8.611-1.068,12.948-.345a9.914,9.914,0,0,0,1.285.006,5.508,5.508,0,0,0-.653-.25,102.764,102.764,0,0,0-22.233-1.54,86.026,86.026,0,0,0-19.918,2.9,70.41,70.41,0,0,0-25.851,13.25A69.748,69.748,0,0,0,20.83,66.762c-3.593,5.6-6.8,11.392-8.109,18.046a3.093,3.093,0,0,0,.167,2.423c1.161,1.855,2.294,3.727,3.456,5.581a6.863,6.863,0,0,1,1.313,2.29c-2.222-2.153-3.572-4.938-5.486-7.785-.443,2.824,1.894,4.269,2.356,6.613-1.363-1.071-1.625-2.663-2.8-3.9.032,1.417-.238,2.582-.228,3.711.061,6.895-.245,13.788.175,20.689.363,5.972,1,11.94.855,17.932a3,3,0,0,0,1.639,3.035,10.352,10.352,0,0,1,2.853,2.1l-.207.28-4.171-2.691c-.367,2.069,1.975,1.506,2.306,2.813-.89.143-1.437-.815-2.379-.72a12.181,12.181,0,0,0,.014,1.835c.3,1.97-.675,4.024.386,5.943.087.156-.066.233-.2.271-.952.268-.313.613-.018.874.529.468,1.264.735,1.535,1.654-.847-.118-1.169-.907-1.961-1.115-.141,1.759,1.947,1.515,2.326,2.841-1.026-.175-1.65-.97-2.876-1.3,1,2.715,3.684,3.345,5.175,5.178a10.673,10.673,0,0,1-3.128-1.833c-.593-.4-1.135-1.4-1.816-1.058-.655.331-.221,1.363-.26,2.081-.07,1.253-.132,2.511,1.156,3.341a28.309,28.309,0,0,1,4.234,3.332c.266-3.19.494-6.16.774-9.124a1.534,1.534,0,0,0-1.038-1.724,3.714,3.714,0,0,1-2.05-1.712l2.93,1.5.148-.214-3.662-2.993c1.4.179,2.256,1.181,3.345,1.889,0-.943-.03-1.771.01-2.6.028-.6-.05-.9-.757-1.146a4.333,4.333,0,0,1-2.735-2.088c1.332.56,2.176,1.394,3.5,1.679,0-1.537-.044-2.979.015-4.418a2.22,2.22,0,0,0-1.209-2.272,18.093,18.093,0,0,1-3.463-2.453l.223-.342,4.5,2.959c-.43-.952.515-1.836-.69-2.251l.049.049.232-.76-.039.04c.676-1.013.75-1.868-.51-2.519a2.956,2.956,0,0,1-1.832-1.731l2.9,1.716c.228-3.107.439-6.084.671-9.06.046-.6-.367-.746-.743-1.036-.526-.406-1.406-.53-1.465-1.623l2.121,1.342c.6-1.951-1.883-1.556-2.1-2.922.961-.037,1.4.968,2.4.957.121-3.7.065-7.39.328-11.076.29-4.063.712-8.105,1.3-12.132a67.467,67.467,0,0,1,4.591-16.441,1.9,1.9,0,0,0-.232-1.919,5.9,5.9,0,0,1-1.337-3.092c1.17.988,1.185,2.509,2.214,3.185.851-.912.094-1.681-.1-2.493-.2-.843-.748-1.633-.392-2.754.735,1.118.6,2.391,1.31,3.353a2.971,2.971,0,0,0,.369-3.883,3.035,3.035,0,0,1-.7-2.768l1.81,3.8c1.972-2.789,1.97-2.788.283-5.55-.387-.634-.755-1.281-1.134-1.921a7.058,7.058,0,0,1-1.16-2.211l.33-.2L29.93,68.5a1.639,1.639,0,0,0,.367-2.576,19.665,19.665,0,0,1-1.51-3.267c-.1-.235-.48-.565.18-.824.5,1.078.972,2.167,1.5,3.232.791,1.611.807,1.605,1.813.215.407-.563.8-1.133,1.208-1.7ZM54.2,167.505l-.048-.043a6.9,6.9,0,0,0,2.783,1.249c-.217-.54-.285-.987-.744-1.2l-1.661-3.333c.174-.626-.666-.977-.466-1.627.623-.132.682.383.851.715.646,1.275,1.327,2.536,1.881,3.851a3.69,3.69,0,0,0,2.926,2.517,32.793,32.793,0,0,1,4.451,1.407c.356.121.887.2.594.832l.038-.033a65.1,65.1,0,0,1-12.448-2.37,7.565,7.565,0,0,0-.044.9c.436,5.627.194,11.263.243,16.895a2.455,2.455,0,0,0,.77,2.185,2.013,2.013,0,0,1,.971,1.74c-.8-.272-1.034-1.063-1.643-1.579-.312,2.369.173,4.551.179,6.744.017,6.342-.065,12.686.043,19.026a28.32,28.32,0,0,0,1.815,9.871c2.543,6.592,9.826,9.792,14.673,9.33a122.835,122.835,0,0,0,12.919-2.081,172.3,172.3,0,0,1,21.856-2.635c3.9-.29,7.81-.462,11.711-.752,6.733-.5,13.45-1.192,20.211-1.351,4.611-.108,9.223.017,13.831-.153,3.551-.13,6.213-1.636,7.506-5.174a18.147,18.147,0,0,0,1.176-5.888c.07-3.421-.268-6.82-.5-10.229-.238-3.442-.438-6.879-.858-10.308-.548-4.472-1.089-8.952-1.381-13.446-.372-5.747-.809-11.494-.891-17.26-.041-2.86-.087-5.727-.323-8.574a38.416,38.416,0,0,0-.528-5.088q-.864,1.846-1.729,3.693c-.143-1.607.708-2.857,1.306-4.171a2.454,2.454,0,0,0-.458-2.733l-1.221,4.08a5.452,5.452,0,0,1,.614-3.905c.37-.853.3-1.277-.361-1.791-.384,1.209-.752,2.365-1.119,3.521-.449-1.272.205-2.315.458-3.433.092-.405.531-1-.15-1.166-.395-.1-.579.487-.68.911a14.8,14.8,0,0,1-.953,3.371c-.362-1.587.271-2.741.5-3.927.35-1.85.2-2.333-1.539-3a13.868,13.868,0,0,0-1.613-.431c-3.443-.868-6.946-.47-10.429-.5-.523,0-.692.285-.844.74a55.958,55.958,0,0,0-2.175,7.911c-.058.326-.008.672-.457.792a2.819,2.819,0,0,1,0-1.6,49.465,49.465,0,0,1,1.859-6.539c.47-1.241-.026-1.348-1.076-1.272q-9.676.7-19.358,1.314c-.786.05-1.071.329-1.115,1.072a15.313,15.313,0,0,1-.325,3.2c-.307,1.089.044,2.3-.671,3.7-.068-.614-.11-.829-.114-1.045-.03-1.928.392-3.812.536-5.722.034-.458.364-1.181-.626-1.222-.769-.032-1,.219-1.09,1.016a3.3,3.3,0,0,1-.543,1.975,1.637,1.637,0,0,1-.1-1.55c.324-.991.261-1.533-1.059-1.515-2.835.039-5.677,0-8.51.026-8.284.069-16.595-.159-24.825,1.029-4.664.672-9.413,1.088-13.795,3.07a20.016,20.016,0,0,0-8.121,5.915,2.981,2.981,0,0,0-.507,3.349,4.787,4.787,0,0,1,.667,2.347c-.94-.614-.748-1.765-1.476-2.461a22.6,22.6,0,0,0-.86,8.856C52.26,167.042,52.964,167.439,54.2,167.505ZM112.891,43.7l.047.045a7.034,7.034,0,0,0-2.47-.542c-1.731-.073-3.438.232-5.157.278-6.123.165-12.192.667-18.074,2.711.942,1.051,2.413,1.4,3.569,2.805a5.331,5.331,0,0,1-2.4-1.269c-1.741-1.684-3.608-1.271-5.587-.6-2.767.941-5.5,2-8.34,2.71-2.019.5-4.127.664-6.012,1.693A62.113,62.113,0,0,0,46.71,70.75c-6.9,9.95-9,21.376-10.062,33.1-.426,4.719-.457,9.473-.784,14.2a3.86,3.86,0,0,0,1.174,3.266,2.748,2.748,0,0,1,1.108,2.065,18.326,18.326,0,0,0-2.373-2.43c0,2.984.014,5.693-.012,8.4-.005.616.413.9.744,1.278,2.188,2.493,4.4,4.968,6.536,7.5.313.37.9.766.682,1.711-2.583-3.148-5.113-6.059-7.852-8.979a3.784,3.784,0,0,0,.765,3.347c2.185,2.7,4.626,5.141,7.046,7.611.291.3.8.5.686,1.354a81.145,81.145,0,0,1-8.7-9.169c-.023,1.083-.41,1.825.265,2.538.867.915,1.7,1.868,2.516,2.825.64.747,1.242,1.527,1.861,2.292l-.331.3-4.421-4.927c-.068,2.318-.483,4.406,1.628,5.9A2.226,2.226,0,0,1,38.229,145c-1-.792-1.381-2.071-2.444-2.582-.628,2.536.63,4.486,2.115,6.592-1.266-.3-1.272-1.464-1.962-1.8-.8,1.688.8,2.27,1.492,3.351-.718.178-1-.534-1.54-.6-.708,2.215,1.419,3.518,1.928,5.646-1.041-.695-1.182-1.728-1.934-2.321-.54,2.938.765,5.3,1.813,7.724a1,1,0,0,0,.824.634,43.548,43.548,0,0,0,10.4.276c.733-.035.606-.62.739-.991.8-2.236,1.525-4.5,2.343-6.73a8.519,8.519,0,0,1,1.336-2.557c3.294-4.042,7.731-6.152,12.562-7.473a81.24,81.24,0,0,1,13.175-2.223c1.494-.153,2.939-.743,4.591-.5-3.757-2.705-7.487-5.291-10.39-8.835.234-.085.377-.058.466.027a67.157,67.157,0,0,0,9.856,8c.375.245.491.805,1.068.8,1.929-.015,3.859-.006,6.2-.006-2.371-2.048-4.965-3.1-6.606-5.309,2.188,1.568,4.531,2.9,6.61,4.583a2.874,2.874,0,0,0,1.986.7c3.4.021,6.8-.106,10.2.1,2.231.137,4.478.026,6.718.026-.926-1.216-2.271-1.5-3.215-2.73,2.482.4,3.878,3.248,6.745,2.421-1.544-1.245-3.253-2.021-4.322-3.569a15.227,15.227,0,0,1,2.984,1.946,6.344,6.344,0,0,0,6.214,1.521c-.939-1.05-2.408-1.335-3.558-2.711,2.713.738,4.382,3.553,7.333,2.425-.576-.554-1.126-1.054-1.642-1.587s-1.18-.969-1.277-1.865c2.126,1.561,3.559,4.656,7.021,3.078-1.363-1.351-3.175-2.188-4.242-3.859,1.456.89,2.776,1.946,4.126,2.964.575.433,1.079.986,1.933.942,3.069-.159,6.141-.259,9.211-.4.235-.01.567.07.663-.3-1.122-.893-2.512-1.405-3.41-2.759,3.227,3.291,7.3,3.008,11.376,2.987-1.547-1.442-3.434-2.469-4.612-4.266,1.4.653,2.335,1.93,3.627,2.682,1.025.6,1.485,1.881,2.762,2.123,2.941.556,4.836,2.429,6.468,4.862,1.21,1.805,2,4,4.06,5.166a2.23,2.23,0,0,1,1.252,1.38c-1.209-.381-1.86-1.376-2.87-1.777-.229,1.051.377,1.973.235,2.968-.079.553.344.559.734.56a47.237,47.237,0,0,0,8.676-.425c-.722-.778-1.721-1.155-2.191-2.244,1.723.455,2.522,2.837,4.754,1.858-1.224-1.248-2.8-2-3.472-3.595,1.436.855,2.446,2.252,3.981,3a1.887,1.887,0,0,0-.846-2.312,12.845,12.845,0,0,1-3.41-3c1.615.619,2.759,1.987,4.293,2.885.222-1.411,1.225-2.534.888-3.964a167.326,167.326,0,0,1-3.143-16.467,132.6,132.6,0,0,1-1.282-13.592c-.085-3.043-.262-6.074-.623-9.091-.175-1.466-.251-2.933-1.955-3.787a4.6,4.6,0,0,1-2.516-2.8l3.736,3.108c-.228-1,.368-2.127-.7-2.817a5.96,5.96,0,0,1-2.436-2.06c.957-.1,1.206.807,1.852,1,.284.084.46.578.822.346.32-.205.129-.6.12-.91a68.961,68.961,0,0,0-1.521-12.631c-2.257-10.4-6.621-19.63-15-26.6a128.412,128.412,0,0,0-11.2-8.278c-3.692-2.446-8.331-2.749-12.5-4.446.387.955,1.51,1.032,1.68,2.058-2.587-1.852-5.118-3.773-8.532-4.665,2.09,1.806,4.184,3.119,5.775,5.025a21.266,21.266,0,0,1-3.931-2.78C116.929,45.239,115.394,43.471,112.891,43.7ZM50.818,200.028c.313-2.162-.2-4.3-.2-6.447.008-4.323-.046-8.646.022-12.968a80.486,80.486,0,0,0-.621-10.945c-.126-1.048.048-2.335-.675-3.08-.6-.618-1.673.186-2.555.069a6.387,6.387,0,0,0-.978,0,70.626,70.626,0,0,1-7.942-.252c-1.013-.093-1.218.323-1.268,1.262a55.521,55.521,0,0,1-.618,6.839,70.875,70.875,0,0,0-1.3,13.786c.076,4.137-.356,8.254-.373,12.383-.013,3.146-.095,6.306.164,9.434a59.854,59.854,0,0,0,2.187,10.906c1.449,5.258,3.341,10.338,6.815,14.659,2.682,3.335,6.014,5.988,9.145,8.846a6.447,6.447,0,0,0,4.313,1.7,124.337,124.337,0,0,0,27.373-2.019c3.47-.709,7.01-.867,10.476-1.554,5.334-1.058,10.656-2.173,16-3.194a110.192,110.192,0,0,1,13.1-1.5,127.657,127.657,0,0,1,14.8-.115c6.758.318,13.481.312,20.016-1.541,6.7-1.9,11.88-5.665,12.645-13.283a34.675,34.675,0,0,0-.629-12.009,75.739,75.739,0,0,1-2.265-17.859c-.088-8.174.034-16.352-.122-24.524-.056-2.9-.447-5.8.109-8.668.262-1.349-.261-1.18-1.169-1.07a32.087,32.087,0,0,1-9.561.029c-.883-.158-.873.114-.869.839.017,3.564.51,7.112.351,10.68a4.237,4.237,0,0,0,.018.563c.363,4.368.711,8.738,1.1,13.1.256,2.867.509,5.737.876,8.591.42,3.265.878,6.521,1.091,9.811.166,2.559.334,5.131.639,7.666a28.891,28.891,0,0,1-1.429,13.124,10.705,10.705,0,0,1-6.156,6c-2.937,1.251-6.073,1.371-9.181,1.393-8.62.061-17.233.255-25.84.778-5.3.322-10.613.273-15.916.6-8.6.531-17.085,1.976-25.579,3.315-4.81.758-9.443,1.095-14.246-.566-4.264-1.475-7.532-3.695-9.448-7.819a4.961,4.961,0,0,0-1.518-1.8c-1.471-1.16-2.908-2.363-4.359-3.549l.263-.356a44.855,44.855,0,0,1,4.429,3.39c-.287-3.324-3.819-3.1-5.4-5.28a12.939,12.939,0,0,1,2.619,1.233c.679.257,1.6,1.363,1.9.786.589-1.152-.962-1.131-1.55-1.651-.714-.632-1.828-.8-2.342-2.071,1.518.672,2.553,1.753,4.12,2.261-.443-2.25-3-2.171-3.892-4.256l3.392,2.234c.507-2.641.261-4.887-2.486-6.207,1.249-.183,1.591,1.033,2.6,1.225a12.046,12.046,0,0,1,.016-1.922,2.665,2.665,0,0,0-1.648-3.2c-.377-.175-.891-.334-.81-1.028.953.126,1.454,1.126,2.369,1.2.2-.871.132-1.525-.842-1.9-.441-.169-1.4-.553-1.1-.973.44-.613.9.357,1.4.533.168.059.3.225.635.028-.449-2.05,1.323-4.892-2.157-5.943a1.268,1.268,0,0,1,.015-.273C49.572,199.208,50.069,200.137,50.818,200.028Zm-1.247,45.933a3.2,3.2,0,0,0-1.362-.917,22.9,22.9,0,0,1-4.581-3.153c-4.39-3.658-6.864-8.556-8.957-13.72-2.368-5.841-2.96-12.075-3.895-18.223-.862-5.673-.627-11.421-.832-17.137a2.5,2.5,0,0,0-.522-1.582,5.606,5.606,0,0,1-1.471-3.431L29.94,191c.059-1.049.156-1.706.12-2.355-.076-1.344.663-2.814-.6-4a.247.247,0,0,1,.258-.415c.38.128.414.053.5-.318.862-3.969,2.165-7.836,2.661-11.892.058-.474.105-.823-.3-1.1a14.807,14.807,0,0,0-6.111-2.525c-.587-.088-.873.094-.653.789.226.713.776,1.352.613,2.3-1.344-1-.575-3.815-3.229-3.513l2.273,4.778-.395.187c-.643-1.251-1.363-2.469-1.909-3.762a2.444,2.444,0,0,0-2.948-1.584c1.052,2.156,2.785,3.862,3.836,6.2a1.215,1.215,0,0,1-.9-.639c-1.044-1.587-2.16-3.129-3.174-4.735a3.059,3.059,0,0,0-2.475-1.442c-4.584-.506-8.709-1.884-11.265-6.168-.057-.1-.208-.134-.322-.2a2.734,2.734,0,0,0-.357,1.086c-.357,2.35-.665,4.7-.885,7.073a157.946,157.946,0,0,0-.531,15.792,134.668,134.668,0,0,0,1.714,18.963A66.423,66.423,0,0,0,9.577,217.87c2.164,5.554,5.359,10.176,11.006,12.654a11.239,11.239,0,0,1,1.645,1.059c5.869,3.946,11.413,8.394,17.934,11.316A39.839,39.839,0,0,0,49.571,245.961ZM33.728,165.905c.027-1.127.43-1.919-.183-2.571-2.749-2.922-5.53-5.813-8.294-8.72-.144-.152-.123-.339.14-.661,2.93,2.773,5.512,5.871,8.439,8.954,0-1.057-.029-1.851.006-2.643.06-1.365.064-2.652-1.019-3.753a21.524,21.524,0,0,1-2.619-3.266c-.415-.63-1.243-1.062-1.272-2.379,1.848,2.027,3.089,4.109,4.911,5.708-.36-2.819-2.693-4.679-3.52-7.275,1.438,1.291,2.118,3.139,3.465,4.761a65.581,65.581,0,0,0-.326-9.272.744.744,0,0,0-.376-.681c-1.775-1.033-2.687-2.933-4.158-4.279-.156-.142-.116-.331.156-.511,1.594,1.239,2.657,3.026,4.2,4.373-.289-2.362-2.723-3.34-3.5-5.406,1.359.662,1.887,2.223,3.128,2.971.877-2.137-1.775-2.3-2.174-4.064l2.16,1.544c.357-1.394-1.548-1.276-1.467-2.451.6-.013.817.82,1.271.557.5-.286.245-.943.241-1.426-.018-2.723-.077-5.445-.129-8.168a2.848,2.848,0,0,0-.388-1.6c-1.49-2.3-2.934-4.624-4.394-6.941-.109-.174-.407-.314-.131-.573s.445.014.556.168c.49.681.968,1.372,1.411,2.084.893,1.432,1.761,2.88,2.714,4.444.811-2.047-.324-3.362-1.105-4.765s-1.593-2.8-2.391-4.2l.353-.2c1.382,1.578,2.072,3.634,3.494,5.488.369-3.174-2.61-4.757-2.8-7.459,1.121,1.215,1.577,2.9,2.865,4.207,0-1.39.236-2.526-.63-3.659-1.532-2-1.5-2.193-1.322-3.2l1.984,3.2c.181-1.263.323-2.081-.337-2.883-.507-.615-1.291-1.126-1.264-2.36.771.63,1.031,1.457,1.743,1.828.264-3.075.505-6.1.8-9.126.055-.56-.266-.836-.5-1.233-.632-1.069-1.74-1.884-1.673-3.356l2.224,3.117c1.049-2.092-1.566-2.83-1.441-4.6.976.473,1.072,1.668,1.925,2.143.772-1.516-.814-2.095-1.166-3.146.957-.383.905.8,1.5.889.419-.77.334-1.331-.588-1.571a.461.461,0,0,1-.363-.637c.073-.21.293-.212.461-.088,1.017.744,1.014.047,1.194-.739a76.244,76.244,0,0,1,2.1-8.3A62.083,62.083,0,0,1,54.091,58.517a45.218,45.218,0,0,1,15.424-9.664c2.431-.867,5.058-1.16,7.538-1.909C83.085,45.122,89.085,43.2,95.327,42.2a48.393,48.393,0,0,1,9.83-.957c2.161.1,4.306-.568,6.486-.1a42.872,42.872,0,0,0-9.714-1.882,56.258,56.258,0,0,0-8.755.617c-2.44.321-4.921.218-7.331.784-2.432.571-4.858,1.166-7.294,1.719a62.181,62.181,0,0,0-15.2,5.285A93.518,93.518,0,0,0,47.487,58.085,57.772,57.772,0,0,0,30.262,80.423c-4.409,10.353-6.339,21.16-6.807,32.328-.124,2.948-.269,5.917-.636,8.833-.731,5.8-.467,11.616-.642,17.423-.148,4.875-.084,9.755-.56,14.621-.247,2.52-.244,5.063-.383,7.6-.039.724.21.954.943,1,1.138.066,2.265.3,3.4.463-.135-.7-1.014-.88-1.224-1.733,1.619.274,2.032,2.648,3.93,2-1.052-1.33-2.8-2.024-3.613-3.9,2.429,1.286,3.4,4.16,6.443,4.666-1.091-1.532-2.592-2.358-3.08-3.963A44.954,44.954,0,0,1,33.728,165.905ZM44.154,34.786c-.753,2.7-1.489,5.332-2.3,8.23,1.043-.862,2.4-.907,2.6-2.344a27.441,27.441,0,0,1,.617-3.844c.266-.928-.036-2.093,1.081-2.919-.177,2.484-1.046,4.714-1.138,7.135,1.2-.383,1.878-.874,1.725-2.2a6.947,6.947,0,0,1,.3-2.635c.148-.521-.026-1.287.856-1.746-.238,1.9-.45,3.589-.661,5.277l.422.114c2.005-1.545.783-4.292,2.041-6.483.227,2.083-.3,3.785-.459,5.62,1.392-.43,2.337-.859,2.292-2.625a5.011,5.011,0,0,1,.982-3.787q-.271,2.56-.544,5.126c.981.058,1.221-.381,1.17-1.177a8.444,8.444,0,0,1,.228-2.792,2.528,2.528,0,0,0-.763-2.438A13.527,13.527,0,0,1,50.187,27.6c-2.277-4.855-6.248-8.1-10.128-11.461a3.623,3.623,0,0,0-1.319-.762c-3.583-1-7.092-1.339-10.719.174-4.706,1.962-8.963,4.723-13.409,7.144a34.853,34.853,0,0,0-6.23,4.271c1.145,1.343,2.337,2.6,3.372,3.977,3.984,5.307,6.768,11.359,10.258,16.975,1.03,1.657,1.887,3.423,2.81,5.146.232.434.672.988-.014,1.316-.55.262-.735-.391-1.008-.736a2.735,2.735,0,0,1-.222-.354C20.7,48.2,17.621,43.251,14.4,38.384c-1.854-2.8-3.455-5.8-5.818-8.223-2.091-2.145-2.18-2.1-4.065.276a1.149,1.149,0,0,0-.105.312c1.937.185,3.158,1.453,4.265,2.878,1.346,1.734,2.431,3.641,3.6,5.491,2.965,4.673,5.935,9.337,8.437,14.293a21.1,21.1,0,0,0,3.242,4.875c2.829-2.342,3.89-5.494,4.25-9.006.426,1.4-.2,2.654-.178,4.051,1.863-1.252.726-3.5,1.841-5.3a11.85,11.85,0,0,1-.2,3.617c2.423-.808.623-3.184,1.963-4.695V49.9c1.971-.353,1.414-2.107,1.908-3.337.468.592.118,1.153.406,1.656A3.1,3.1,0,0,0,36.03,45.3c.255,1.135.651,1.221,1.352.572a11.89,11.89,0,0,1,1.708-1.2c.235-.15.509-.235.5-.578-.094-2.847,1.2-5.374,1.845-8.05.069-.287.151-.754.788-.623a86.868,86.868,0,0,0-2.262,8.568A1.844,1.844,0,0,0,41.432,42.5c.534-2.3,1.261-4.558,1.895-6.837C43.438,35.266,43.438,34.821,44.154,34.786ZM74.411,8.914a9.437,9.437,0,0,0-8.06,3.4c-1.674,1.9-3.164,3.927-4.649,5.971-.678.932-.76,1.453.374,2.105,1.638.942,3.2,1.949,3.822,4.038.784,2.613,1.953,5.106,2.847,7.689a1.169,1.169,0,0,0,1.533.913,97.1,97.1,0,0,1,33.462.874c2.962.584,2.838.64,2.4-2.435-.6-4.221-1.169-8.484,1.209-12.437.168-.28.421-.57.108-1.012-1.992-2.81-4.225-5.241-7.615-6.442-3.264-1.157-6.7-1.2-10.027-1.877C84.587,8.638,79.237,9.3,74.411,8.914ZM58.64,14.694c-.283.46-.43.69-.567.925-1.071,1.827-1.032,1.757.687,2.706.938.518,1.26.283,1.777-.569a40.725,40.725,0,0,1,5.4-6.975A10.645,10.645,0,0,1,73.4,7.139c.672-.024.664-.461.861-.851.425-.841.443-1.925,1.422-2.46a10.3,10.3,0,0,1-.763,2.316c-.366.762-.2.977.628.937a51.084,51.084,0,0,1,8.649-.066.679.679,0,0,0,.822-.56C85.436,5,85.9,3.561,86.34,2.117c-1.141-.363-1.658.058-1.9,1.138A4.541,4.541,0,0,1,83.374,5.81c-.135-1.183.445-2.036.636-2.972.063-.314.343-.7-.09-.832a10.645,10.645,0,0,0-4.164-.187c-.777.071-.78,1.064-1.121,1.642-.428.727-.532,1.657-1.257,2.2.087-1.395.923-2.494,1.268-3.8-1.365-.282-2.632.22-3.929.194A6.617,6.617,0,0,0,69.2,4.177a18.831,18.831,0,0,1-2.365,1.97c-.788.646-1.566,1.228-1.511,2.486a1.757,1.757,0,0,1-.494,1.605c-.623-.74.18-1.443-.031-2.15-3.04,1.69-2.21,5.142-3.547,7.922-.242-1.85.634-3.275.534-4.76-2.711,1.281-2.152,4.1-3.059,6.223A19.275,19.275,0,0,0,58.64,14.694ZM171.905,212.737c.57-3.873.132-7.325-.043-10.786-.2-4.025-.763-8.032-.55-12.08.144-2.712.229-5.423.221-8.148-.022-7.4.034-14.807-.374-22.2-.023-.42.379-1.183-.423-1.209-.574-.019-1.235.1-1.332,1.045-.128,1.245-.4,2.472-.481,3.733-.15,2.444.292,4.854.316,7.293.089,9.053-.25,18.107.212,27.163A88.5,88.5,0,0,0,171.905,212.737ZM51.406,244.65c-.706-.716-1.365-1.487-2.125-2.138-4.608-3.946-8.61-8.316-10.891-14.126A65.033,65.033,0,0,1,33.544,206.6c-.194-6.061.343-12.109.3-18.167a91.656,91.656,0,0,1,1.548-15.466c.331-2.027.445-4.09.683-6.133.068-.585-.276-.735-.71-.8-.723-.114-.361.468-.4.729-.165,1.057-.193,2.142-.421,3.183a115.045,115.045,0,0,0-2.052,14.647,121.913,121.913,0,0,0-.125,19.951,94.035,94.035,0,0,0,3.215,19.645c1.681,5.664,3.732,11.228,8.3,15.365A25.588,25.588,0,0,0,51.406,244.65Zm52.966-2.967c.96-.091,1.918-.222,2.88-.268,5.485-.267,10.97-.537,16.457-.761,4.6-.187,9.212-.139,13.82-.028,6.039.144,12.082.31,18.061-.9a15.42,15.42,0,0,0,7.455-3.9c-.264-.018-.422-.077-.533-.028-6.666,2.941-13.773,3.11-20.825,2.978-6.465-.121-12.915-.263-19.377.071A94.6,94.6,0,0,0,104.372,241.683ZM59.688,24.09a1.826,1.826,0,0,1,1.237,1.223c1.355,2.541,2.709,5.083,4,7.657.515,1.028,1.3.752,2,.512.983-.333.187-.923.032-1.331-.942-2.472-1.941-4.922-2.908-7.385a2.832,2.832,0,0,0-.85-1.417q-2.7-1.881-5.434-3.706c-.811-.544-1.251-.355-1.292.693a32.78,32.78,0,0,1-.338,5.047c-.411,2.082.568,3.65,1.27,5.421.628,1.587,2.4,2.006,2.966,3.525.108.291.19.718.627.477s.089-.533-.035-.82a3.805,3.805,0,0,1-.7-2.708c.589,1.154,1.025,1.957,1.41,2.784a.633.633,0,0,0,.914.36c.412-.2.039-.552-.044-.789a21.057,21.057,0,0,1-1.332-3.989,14.4,14.4,0,0,1,1.94,3.911c.262.56.509.707,1.056.481.667-.277.3-.669.121-1.013-.507-.992-1.044-1.967-1.557-2.956C61.784,28.158,60.8,26.244,59.688,24.09Zm52.372,4.9c0,1.734,0,3.468,0,5.2,0,.595-.14,1.236.757,1.393,1.085.19.836-.8.914-1.187.325-1.65.448-3.339.7-5.006a11.65,11.65,0,0,0,.1-3.185c-.291-2.474-1.816-4.339-2.849-6.445-.321-.657-.622-1.684-1.333-1.655-.651.027-.955,1.029-1.312,1.687-1.968,3.62-1.793,7.481-1.227,11.366.173,1.189.03,2.463.68,3.693.668-.72.073-1.656.655-2.335.514.795-.2,1.8.85,2.731-.064-4.131.072-7.933.3-11.729l.514,0V35.181l.475,0C111.505,33.124,111.386,31.016,112.06,28.994ZM137.323,50.86a8.792,8.792,0,0,0,2.575,2.2c4.246,2.572,7.9,5.905,11.6,9.165,2.748,2.417,4.222,5.746,6.059,8.824a46.911,46.911,0,0,1,6.092,18.214c.328,2.489.671,4.977,1,7.477a2.244,2.244,0,0,0,.093-.832c-.169-3.963-.329-7.924-.809-11.87a33.481,33.481,0,0,0-1.724-7.7c-2.469-6.66-6.977-11.884-11.747-16.881-3.579-3.75-8.2-6.074-12.645-8.591C137.719,50.811,137.563,50.86,137.323,50.86ZM33.162,169.049c.707-1.857.624-2.048-.926-2.9-1.681-.926-3.539-.956-5.365-1.13a48.926,48.926,0,0,1-8.071-1.089,19.32,19.32,0,0,1-11.818-9.248c-.149,1.281-1.12,2.512-.512,3.6,1.441,2.583,3.2,4.937,6.238,5.892,4.222,1.327,8.6,1.528,12.953,1.967A13,13,0,0,1,33.162,169.049ZM88.112,7.312a15.91,15.91,0,0,1,3.021.417c1.527.513,2.359.157,2.641-1.482.217-1.264,1.792-2.57,1.02-3.567s-2.588-.646-3.975-.688a3.893,3.893,0,0,0-.418-.008c-.283.023-.509.077-.623.425C89.248,4.031,88.684,5.641,88.112,7.312Zm80.875,148.857c-3.68.374-7.383.983-11.139.412-.415-.063-1.2-.415-1.223.6-.017.765.308.987,1.071,1.092a40.248,40.248,0,0,0,9.146-.037C168.038,158.127,169.361,158.1,168.987,156.169Zm-8.444-.241a42.93,42.93,0,0,0,7.918-.478c.9-.087.762-.631.763-1.16,0-.821-.578-.593-.977-.442a10.461,10.461,0,0,1-2.742.31,37.22,37.22,0,0,1-7.753.325c-.431-.045-.989-.608-1.134.363-.115.765.327,1.038.913,1.066C158.686,155.968,159.846,155.928,160.543,155.928ZM43.722,165.866c1.619-.117,3.254.178,4.86-.163.337-.072.905.061.87-.638-.038-.742-.56-.625-1-.612a39.423,39.423,0,0,1-4.716.132c-2.535-.236-5.093.1-7.611-.406-.356-.072-.859-.209-.935.478s.383.593.786.671A36.5,36.5,0,0,0,43.722,165.866ZM10.318,85.82a5.989,5.989,0,0,0,.138-4.154c-.426-1.365-.694-2.779-1.119-4.145-.44-1.413-.977-2.8-1.485-4.187-1.161-3.183-1.164-3.182-2.109-3.593A142.2,142.2,0,0,1,10.318,85.82ZM93.653,8.07c2-.4,1.7-2.759,3.379-3.82a13.241,13.241,0,0,1-1.373,3.065c-.385.79-.5,1.31.682,1.229.78-.054,2.9-3.146,2.576-3.872a.456.456,0,0,0-.179-.21c-.811-.439-1.622-.879-2.443-1.3-.48-.245-.618.1-.771.47C94.913,5.118,94.279,6.592,93.653,8.07ZM50.807,25.994A3.052,3.052,0,0,0,50.34,22.4c-1.892-2.143-3.6-4.465-6.568-5.266C47.065,19.265,48.5,22.881,50.807,25.994Zm61,13.464c2.444.592,4.9,1.133,7.329,1.79,2.9.786,5.936,1.146,8.442,3.146a12.9,12.9,0,0,0,3.4,1.4,26.41,26.41,0,0,0-5.336-3.553,4.654,4.654,0,0,0-1.928-.745,34.2,34.2,0,0,1-6.772-1.257A14.26,14.26,0,0,0,111.805,39.458ZM85.376,7.031c2.1.18,2.1.182,2.808-1.669a15.458,15.458,0,0,0,.724-2.1c.1-.441.826-1.134-.107-1.361-.674-.164-1.6-.433-1.957.7C86.383,4.08,85.873,5.54,85.376,7.031ZM100.562,6.2c.223.982-.4,1.551-.568,2.245-.076.319-.282.815.015.847.575.063,1.219.874,1.561.382.469-.675,1.263-1.557.7-2.453a3.916,3.916,0,0,0-2.433-1.942c-.794-.086-.857,1.333-1.342,2.023a2.984,2.984,0,0,0-.309.616c-.156.393-.513.753.263,1.022.666.23.732-.021.939-.525A4.864,4.864,0,0,1,100.562,6.2ZM37,162.236c-.132,1.214.445,1.431,1.46,1.394,3.053-.113,6.11.506,9.16-.022.616-.106,1.739.407,1.717-.52-.016-.7-1.178-.363-1.771-.3A38.052,38.052,0,0,1,37,162.236ZM120.529,44.655c1.681.895,14.49,5.182,15.3,5.155A61.176,61.176,0,0,0,120.529,44.655ZM6.028,63.139c.289-1.157-1.356-1.37-.967-2.608.43-1.37-.737-2.02-1.7-3,.209,1.4.388,2.5.535,3.61.451,3.4.746,3.9,2.9,4.781.229-1.786-1.442-2.329-2.662-3.51A3.358,3.358,0,0,1,6.028,63.139Zm5.608,92.46c-.23.624-.387,1.163-.033,1.485a13.031,13.031,0,0,0,5.431,3.455C15.867,158.213,13.494,157.265,11.636,155.6Zm33.99-97.952,4.629-3.725c-.745,0-1.066,0-1.388,0C45.1,54,45.526,53.237,45.626,57.647Zm7.025-32.391c-.5,4.166-.4,4.752.991,5.792a10.07,10.07,0,0,1,.689-2.576A2.431,2.431,0,0,0,52.651,25.256ZM55.32,50.633c-.7-.081-1.106-.1-1.505-.181-2.822-.542-2.686-.7-2.652,1.944,0,.286-.041.573-.071.97ZM30.2,76.859c-3.025.072-3.354.539-2.239,3.066.135.306.3.6.482.945.679-.682.685-1.534,1.077-2.206A11.116,11.116,0,0,0,30.2,76.859ZM40.412,62.142c-4.214-.055-3.88.211-3.087,3.14.944-.887,1.957-1.836,2.965-2.792C40.343,62.44,40.347,62.336,40.412,62.142Zm-4.267,4.873c-3.025-.342-3.63.555-2.57,3.64Zm-25.962-8.1a28.079,28.079,0,0,0,1.5,5.455c.105.294.1.729.595.411.272-.176.7-.21.447-.793C11.973,62.271,11.961,60.194,10.183,58.918ZM60.446,47.581c-3.842-1.257-3.842-1.256-3.6,2.15ZM22.715,106.368c-2.881,2.385-2.887,2.485-.419,4.868A31,31,0,0,1,22.715,106.368Zm3.5-19.153-2.962.632a12.262,12.262,0,0,0,1.737,3.207c.228-.7.423-1.3.613-1.893S25.98,87.945,26.21,87.215Zm-7.65,51.711c2.193-1.853,2.177-2.318-.025-4.47A28.833,28.833,0,0,0,18.56,138.926ZM41.823,60.984c.57-.508,1.028-.9,1.474-1.314s.906-.862,1.441-1.372C41.034,57.817,41.034,57.817,41.823,60.984Zm-18.4,36.645c.347-1.6.647-2.98.967-4.456C21.277,94.7,21.76,93.964,23.422,97.629Zm7.569-22.245,1.8-3.545-2.918.211Zm-10,25.5c2.055-1.424,2.145-2.2.549-4.559A16.208,16.208,0,0,0,20.988,100.883Zm-.359,37.388c-2.086,2.26-2.086,2.26,0,4.569Zm-1.646-12.279c2.341-1.23,2.513-1.6.378-4.233A26.329,26.329,0,0,1,18.983,125.992Zm9.138-43.907c-3.076,1.483-3.2,1.847-1.4,3.768Zm-8.3,33.4a11.864,11.864,0,0,0-.172,4.075C21.829,117.735,21.829,117.721,19.823,115.482ZM92.451,38.215c2.989.1,5.931-.529,8.923-.5C98.4,37.813,95.372,37.12,92.451,38.215ZM22.959,100.732c-2.413,1.631-2.837,1.314-.347,3.62C23.111,103.221,22.843,102.045,22.959,100.732Zm-.94,11.666c-2.3,1.3-2.348,1.933-.184,3.784C21.632,114.84,22.278,113.712,22.019,112.4ZM40.375,58.5a12.071,12.071,0,0,0-2.56,2.706C40.81,61.35,40.81,61.35,40.375,58.5ZM20.458,103.622c.193,1.232-.5,2.411-.274,3.731C22.588,105.356,22.442,105.793,20.458,103.622ZM6.907,46.423A14.76,14.76,0,0,0,6.7,42.57c-.022-.381-.2-.692-.545-.674-.5.025-.281.5-.28.767a12.362,12.362,0,0,0,.155,2.922C6.154,46.119,6.336,46.427,6.907,46.423Zm13.66,103.865c-.094-1.656.229-2.908-.069-4.243C18.778,147.55,18.772,147.8,20.567,150.288ZM1.709,40.489c-.043,2.3.1,2.641,1.516,3.622A2.887,2.887,0,0,0,1.709,40.489ZM26.4,78.841A21.376,21.376,0,0,0,25.177,82.3C27.711,81.623,27.773,81.451,26.4,78.841ZM54.938,33.45c.525-3.1.525-3.1-.464-4.224C53.805,31.8,53.885,32.531,54.938,33.45ZM33.611,65.908c2.51.323,2.818-.063,2.238-2.747ZM29.2,73.061a18.828,18.828,0,0,0-.954,1.73c-.181.428-.809.891-.412,1.3.424.441,1.021-.109,1.541-.209.5-.1.635-.5.487-.965C29.685,74.354,29.469,73.8,29.2,73.061ZM22.059,93.136c2.477-1.167,2.532-1.452.745-3.415ZM7.83,55.741c.072,1.441-.456,2.839.962,3.706C9.511,58.035,9.273,56.851,7.83,55.741ZM2.749,51.717a9.835,9.835,0,0,0,.956,5.018,6.852,6.852,0,0,1,.1-2.756A1.971,1.971,0,0,0,2.749,51.717Zm16.123,90.761v3.463C20.673,144.488,20.665,144.367,18.872,142.478ZM30.435,71.014c1.853.022,2.225-.362,1.989-2.018-.032-.223.007-.494-.249-.6-.292-.119-.415.161-.5.338A10.6,10.6,0,0,0,30.435,71.014ZM20.144,156.788c.062-1.3.424-2.351.142-3.534C18.432,154.87,18.432,154.87,20.144,156.788ZM103.03,8.057c-1.007,2.118-1.007,2.118.361,2.859C103.751,9.928,104.671,8.886,103.03,8.057ZM20.551,135.376a5.532,5.532,0,0,0-.089-3.291C18.822,133.091,18.822,133.091,20.551,135.376Zm-.478,23.9c-.676.707-2.025.47-1.856,1.648.131.906,1.179.6,1.856.869ZM55.791,31.89c-.047,1.278-.494,2.408-.284,3.649.055.324-.516.859.264.882.674.021.39-.6.426-.952a9.1,9.1,0,0,1,.215-2.612C56.57,32.458,56.353,32.169,55.791,31.89Zm5.8,15.009a13.012,13.012,0,0,0,2.471-1.47C61.6,44.4,61.509,44.451,61.586,46.9Zm-57.6-1.051c-.405,1.536.559,2.193,1.591,2.945C5.574,46.918,5.574,46.918,3.983,45.848ZM2.506,48.893c0,.561,0,1.021,0,1.481,0,1.081,1.194.281,1.5.973.116.263.28-.1.342-.208.163-.3.237-.718-.066-.875C3.636,49.932,3.449,49.059,2.506,48.893Zm16.572,79.749a8.786,8.786,0,0,0-.3,3.2C20.478,131.2,20.515,130.933,19.078,128.642Zm2.129-6.234a5.584,5.584,0,0,0,.238-3.148C19.937,120.8,19.937,120.8,21.207,122.408Zm-.3,3.619c-1.711,1.124-1.722,1.36-.212,3.062A9.894,9.894,0,0,0,20.906,126.027ZM6.574,60.748l-.359.348c.746,1.025.087,2.673,1.5,3.387.491-.631-.73-1.485.222-2.088Zm2.611-9.269a2.7,2.7,0,0,0,2.155,3.488C10.706,53.686,9.044,53.166,9.185,51.479ZM52.994,49.2c2.782.467,2.782.467,2.555-1.485ZM24.478,84.172c-.009.859-1.161,1.521-.418,2.412.154.184.922.239,1.126-.153C25.666,85.509,24.814,84.915,24.478,84.172ZM57,33.535a6.446,6.446,0,0,0-.189,2.479C58.674,35.591,58.679,35.554,57,33.535ZM170.53,148.656c-.907,1.12-.185,2.407-.451,3.567-.063.277.2.383.456.361.4-.035.374-.363.35-.62C170.783,150.875,170.654,149.788,170.53,148.656ZM105.547,11.1c-.141-.506-.405-1.134-.953-1.132-.415,0-.486.713-.538,1.148a.919.919,0,0,0,.925,1.012C105.517,12.158,105.392,11.518,105.547,11.1ZM50.059,51.076l-2.281,1.591C49.622,53.366,50.079,53.054,50.059,51.076Zm-44.827.115A7.11,7.11,0,0,0,4.9,55.6C4.978,54.135,5.745,52.727,5.232,51.191ZM35.565,157.585c-.1,2.33.414,3.463,1.561,3.693ZM11.342,49.83a9.043,9.043,0,0,0-2.078-3.866A8.144,8.144,0,0,0,11.342,49.83Zm69-9.483,2.674-.642C81.124,38.5,81.124,38.5,80.346,40.347ZM65.452,44.936a11.111,11.111,0,0,0,2.35-1.025C65.819,42.931,65.819,42.931,65.452,44.936ZM42.161,56.9c2.491.359,2.491.359,2.181-1.613ZM171.113,156.4c-.089-.112.3-.684-.349-.677-.831.01-.84.731-.97,1.288-.069.3-.066.738.445.623C170.774,157.517,171.358,157.362,171.113,156.4ZM19.9,112.606c1.663-.952,1.668-1.114.185-2.265A4.108,4.108,0,0,0,19.9,112.606ZM4.33,43.48A1.8,1.8,0,0,0,5.4,46.02C5.2,45.045,5.659,43.935,4.33,43.48Zm8.157,22.862a3.159,3.159,0,0,0,2.044,2.7A3.431,3.431,0,0,0,12.487,66.342Zm94.168-52.185c.894-1.1.284-1.769-.514-2.406C105.322,12.754,105.908,13.421,106.655,14.157Zm-31.393,27.5c-.641-.392-1.05-1.109-1.686-.878-.433.158-.6.837-.539,1.509Zm-3.819,1.169c-1.762-1.1-1.762-1.1-2.206.638A5.863,5.863,0,0,0,71.443,42.828Zm36.372-26.8c.371-.823,1.176-1.587-.1-2.266A1.361,1.361,0,0,0,107.815,16.032ZM77.246,39.575c0,.6-.651,1.139-.227,1.49.591.488,1.177-.213,2.115-.257ZM10.834,64.138c-.395-1.929-.395-1.929-1.3-2.4C9.4,63.269,9.4,63.269,10.834,64.138Zm1.405,10.035a5.754,5.754,0,0,0-.9-2.1c-.119-.153-.41-.17-.623-.249a1.893,1.893,0,0,0-.08.658A2.056,2.056,0,0,0,12.239,74.173ZM108.263,38.6c-1.785-.432-3.557-.986-5.433-.555C104.672,37.93,106.436,38.566,108.263,38.6ZM6.605,54.15c.411,1.114-.759,2.243.658,2.962C6.7,56.245,8.2,55.151,6.605,54.15ZM15.141,72.5c1.1-1.267.585-2.074-1.156-2.637C13.778,71.084,15.972,70.739,15.141,72.5ZM7.45,51.406c.26-2.113.26-2.113-.233-2.657C6.792,50.149,6.842,50.715,7.45,51.406ZM19.037,152.831c1.219-1.051,1.207-1.3,0-2.292ZM18.5,159.02c.419-.256,1.056-.266,1.057-.824a1.212,1.212,0,0,0-1.057-1.144ZM86.346,38.907c-1.282-.893-1.579-.824-2.124.566C84.924,39.169,85.645,39.417,86.346,38.907ZM12.237,58.657l-.261.273c.482.7.961,1.409,1.448,2.109a.448.448,0,0,0,.706.106c.232-.2.01-.4-.14-.566ZM36.56,163.205c-.266-.522-.16-1.366-1.033-1.254-.467.06-.3.529-.282.809C35.31,163.774,36.061,163.129,36.56,163.205ZM9.6,64.317c.175.6.056,1.4.943,1.417.469.009.344-.489.358-.737C10.962,63.813,9.94,64.774,9.6,64.317Zm44.939,99.865c-1,.081-.466.621-.3,1.033.892,2.156,1.148,2.453,1.956,2.3Zm44.285-36.755c-3.762-3.006-7.293-6.311-11.318-8.976l-.259.334L98.5,127.82Zm-13.678,12.5c-3.564-2.9-6.818-6.172-10.52-8.9l-.289.349,10.444,8.956Zm78.617,8.391c-3.511-2.917-6.734-6.2-10.671-8.576C156.635,142.615,159.83,145.938,163.758,148.321Zm-34.068-9.112c-2.764-3.147-6.283-5.238-9.889-7.209C123,134.542,126.586,136.538,129.69,139.209Zm-43.1-6.145a86.593,86.593,0,0,0,9.058,7.251l.227-.288-8.981-7.347Zm75.19,16.208-8.845-7.03-.313.4c2.855,2.468,5.856,4.754,8.875,7.017ZM41.5,82.769a27.945,27.945,0,0,0,5.536,9.423C45.174,89.057,43.284,85.947,41.5,82.769ZM156.2,119.578c.11.134.28.3.459.116.321-.322-.048-.477-.2-.664-1.8-2.2-3.594-4.4-5.419-6.575-.237-.283-.432-.746-1.227-.614C152.005,114.505,154.1,117.044,156.2,119.578ZM166.3,145.461l-8-6.761-.3.355a88.273,88.273,0,0,0,8.01,6.743ZM85.856,134.17c1.154,1.914,6.846,6.28,8.342,6.58Zm27.085-90.429c-1.018.154-.461.54-.093.815q3,2.236,6.031,4.436a1.138,1.138,0,0,0,1.216.325l-7.2-5.622Zm-3.678,1.13c2.762,1.718,5.1,3.567,7.741,5.491C116.044,48.6,110.758,44.788,109.263,44.871ZM134.6,139.61c-2.09-2.041-4.458-3.737-6.707-5.581l-.339.416,6.755,5.5ZM89.836,54.982a83.538,83.538,0,0,0-6.99-5.61l-.287.365,6.984,5.617ZM47.68,88.251a84.6,84.6,0,0,0-4.223-7.429A25.309,25.309,0,0,0,47.68,88.251Zm49.639,34.84a41.566,41.566,0,0,0-6.814-4.621l-.234.355,6.851,4.609Zm-59.2,6.241a18.412,18.412,0,0,0,5.057,6.286C41.645,133.4,39.8,131.426,38.115,129.332Zm122.345,8.9a66.164,66.164,0,0,0,6,5.383l.335-.375-6.006-5.336ZM81.851,52a51.177,51.177,0,0,0,6.307,5.311l.246-.288-6.225-5.392Zm62.373,57.205,5.307,6.3.377-.324-5.258-6.358Zm-38-61.754,5.472,4.917.271-.3a47.609,47.609,0,0,0-5.42-4.972Zm51.357,70.163-4.266-5.675-.375.284a43.473,43.473,0,0,0,4.287,5.639Zm.813-11.436c.973,2.192,2.991,3.385,4.767,4.871C161.854,109.2,159.969,107.842,158.4,106.178ZM108.956,46.983l5.778,4.158.212-.294a38.281,38.281,0,0,0-5.713-4.255Zm-24.711.891A17.722,17.722,0,0,0,89.9,51.585,26.989,26.989,0,0,0,84.245,47.874Zm6.023,66.84a21.436,21.436,0,0,0,4.9,4.153l.258-.3-4.892-4.118Zm69.1-12.568a23.732,23.732,0,0,0,4.506,4.339l-4.22-4.6ZM44.111,93.54l-3.485-5.589C41.015,90.258,43.031,93.2,44.111,93.54ZM42,132.836l.3-.225-3.849-5.059C39.018,129.772,40.537,131.284,42,132.836Zm116.15-23.923c1.4,1.479,2.619,3.147,4.425,4.188A17.063,17.063,0,0,0,158.15,108.913Zm5.255-.319-4.358-4.738C159.237,105.258,161.7,107.867,163.405,108.594Zm-2.243,42.325a25.271,25.271,0,0,0-4.99-3.3l-.263.386,5.006,3.209Zm1.123-36.278-3.767-4.159-.324.3a25.9,25.9,0,0,0,3.74,4.2ZM140.439,138.8l-4.1-3.581c.74,1.891,2.41,2.748,3.8,3.919ZM88.581,124.828a21.885,21.885,0,0,0,4.048,3.547l.293-.325-4.07-3.525Zm9.649,13.585-4.654-2.988-.211.325a14.964,14.964,0,0,0,4.672,2.971ZM41.19,150.489l-3.027-3.759-.34.263a17.088,17.088,0,0,0,3.059,3.8ZM109.5,53.294a29.908,29.908,0,0,0-3.334-3.842l-.325.261,3.28,3.894Zm42.031,67.293-3.363-3.561C148.741,118.888,150.364,120.472,151.529,120.587Zm4.21-8.978c-1.07-1.263-2.3-2.22-3.252-3.448A4.907,4.907,0,0,0,155.739,111.609Zm-67.63,16.117a10.35,10.35,0,0,0,4.234,2.393A12.221,12.221,0,0,0,88.109,127.726Zm-49.92-1.613,3.121,4A5.993,5.993,0,0,0,38.189,126.113Zm113.032-23.982,3,3.6c-.38-1.7-1.635-2.695-2.56-3.953ZM107.965,54.938c.431.688,1.854,1.493,2.992,2.575Zm24.81,76.93c-.785-1.39-2.233-1.958-3.479-2.779A9.992,9.992,0,0,0,132.775,131.868ZM41.109,98.146a26.245,26.245,0,0,0-1.781-4.237A5.445,5.445,0,0,0,41.109,98.146Zm-2.18,46.24a11.483,11.483,0,0,0,2.55,3.655l.323-.217-2.557-3.651Zm8.727-60.893L45.1,79.214A5.944,5.944,0,0,0,47.656,83.493Zm115.1,54.383a8.77,8.77,0,0,0,3.411,2.46A8.844,8.844,0,0,0,162.757,137.876Zm-72.265-25.8a5.3,5.3,0,0,0,3.15,2A8.907,8.907,0,0,0,90.492,112.072ZM42.007,95.633q-.768-1.659-1.537-3.318l-.379.177a8.415,8.415,0,0,0,1.593,3.291Zm52.881,37.935a6.262,6.262,0,0,0,2.69,2A4.453,4.453,0,0,0,94.888,133.568ZM46.723,77.474a4.535,4.535,0,0,0,2.11,2.711l-1.755-2.891ZM85.58,57.991c-.948-.8-1.562-1.862-2.82-2.416A3.933,3.933,0,0,0,85.58,57.991Zm61.5,60.441a5.332,5.332,0,0,0,2.184,2.372C148.711,119.441,147.9,118.56,147.079,118.432Zm8.907-14.45a5.183,5.183,0,0,0-2.068-2.276C154.546,102.518,154.814,103.659,155.986,103.982Zm-38.73-47.416a5.286,5.286,0,0,0-2.137-2.236ZM50.005,77.154a5.509,5.509,0,0,0-2.358-2.263A4.138,4.138,0,0,0,50.005,77.154ZM86.606,62.4l-.241.263,2.29,2.043A3.521,3.521,0,0,0,86.606,62.4Zm3-16.745a7.383,7.383,0,0,0,2.938,2A4.96,4.96,0,0,0,89.6,45.651Zm74.67,90.6a3.7,3.7,0,0,0,2.651,1.766C166.128,137.464,165.586,136.519,164.271,136.252ZM89,68.69a3.243,3.243,0,0,0-1.92-1.966A3.68,3.68,0,0,0,89,68.69Zm-4.329-9a3.24,3.24,0,0,0-2.1-1.629A3.461,3.461,0,0,0,84.67,59.69Zm25.712.2c-.662-.7-1.242-1.523-2.459-1.43l2.235,1.685ZM38.718,121.545a4.67,4.67,0,0,0-2.262-2.328A5.187,5.187,0,0,0,38.718,121.545Zm26.053,50.332c.083-.036.226-.054.241-.108.688-2.528,2.57-2.614,4.717-2.549,8.1.244,16.2.37,24.3.561,5.461.129,10.862-.666,16.291-1.018,4.787-.31,9.57-.708,14.362-.88,7.957-.284,15.909-.6,23.827-1.5.046,0,.092-.018.138-.022,3.047-.251,3.834.729,2.947,3.667-1.055,3.5-.805,3.2-5.241,3.657-5.184.539-10.409.518-15.622.62-8.94.176-17.882.336-26.82.6-10.424.305-20.843-.153-31.265-.07-2.425.019-2.444-.087-2.571,2.4a18.471,18.471,0,0,0,1.7,8.3,37.907,37.907,0,0,1,1.815,5.291,4.984,4.984,0,0,1-1.456,5.353,4.631,4.631,0,0,1-5.439.6,2.667,2.667,0,0,0-.436-.121c.194,2.328.291,4.621.6,6.885.35,2.571.264,5.154.39,7.727.207,4.211,1.212,8.354.978,12.593-.039.709.213,1.863-.684,1.845-.7-.014-.358-1.187-.427-1.853-.3-2.84-.6-5.68-.869-8.522-.283-2.933-.474-5.876-.818-8.8-.753-6.412-.683-12.9-1.87-19.28-.773-4.159-.318-8.427-.344-12.648,0-.11.088-.221.31-.341a138.184,138.184,0,0,0,2.374,19.7,28.1,28.1,0,0,0-.206-6.8,23.342,23.342,0,0,1,.751-11.18c.2-.747.682-1.517-.739-1.773-1.258-.227-.669-1.541-.9-2.373Zm4.345,1.644c-.433.134-.47.456-.544.69a20.74,20.74,0,0,0-.182,11.7c.809,3.127,1.632,6.24.249,9.425-.371.854.3.712.719.653a3.749,3.749,0,0,0,3.014-4.82,14.268,14.268,0,0,0-1.4-3.8c-1.219-2.062-1.521-4.374-1.925-6.676A26.757,26.757,0,0,1,69.116,173.521Zm61.068-3.432a10.121,10.121,0,0,0-2.309,2.759,53.243,53.243,0,0,0,11.043-.179c-1.1-.788-1.46-1.884-2.218-2.787-.724.855-1.384,1.632-2.042,2.411a1.4,1.4,0,0,1-2.163.251C131.543,171.891,131.1,170.805,130.184,170.089ZM66.75,179.181c-.393,3.565.271,15.689.832,16.5a8.158,8.158,0,0,0,.959-4.454C68.3,187.147,66.418,183.322,66.75,179.181Zm2.99-8.975c-2.425-.1-2.429-.1-3.2,1.791-.108.266-.455.624-.03.828a.829.829,0,0,0,1.126-.149,8.049,8.049,0,0,0,.481-.845.982.982,0,0,1,1.133-.6,1.021,1.021,0,0,1,.885.957c-.032,1.331,1.018,1.357,1.678,1.16.952-.284.717-1.264.509-2.039C71.9,169.739,70.615,170.274,69.74,170.206Zm72.436-1.277c-1.478.132-2.712.237-3.945.358-.254.024-.672.03-.519.426a3.431,3.431,0,0,0,1.829,2.3c.845.282,1.064-.681,1.441-1.218C141.349,170.275,141.673,169.721,142.176,168.929ZM107.2,173.694h5.1C109.778,170.459,109.73,170.459,107.2,173.694Zm-6.7.248c-2.682-2.951-3.45-2.976-4.961-.18C97.189,173.724,98.8,174.249,100.5,173.942Zm44.525-1.417c-1.275-.885-1.532-2.076-2-3.355l-2.392,3.663A16.437,16.437,0,0,0,145.024,172.525Zm-30.8.859a12,12,0,0,0,4.731-.266c-.853-.686-1.256-1.982-2.045-2.235-1.164-.373-1.325,1.376-2.221,1.878A.726.726,0,0,0,114.227,173.384Zm33.162-4.928a10.7,10.7,0,0,0-3.51.278,5.192,5.192,0,0,0,.713,2.221c.456.757.925,1.244,1.475.039C146.448,170.162,146.91,169.368,147.389,168.456Zm-59.284,5.276c-.707-.859-1.3-1.583-1.9-2.3-.285-.339-.556-.211-.823.05-.673.657-1.352,1.306-2.14,2.066A31.538,31.538,0,0,0,88.105,173.732Zm36.1-3.341c2.139,2.663,2.142,2.666,4.2.347.136-.154.395-.273.284-.672A22.945,22.945,0,0,0,124.2,170.391Zm1.007,2.726c-1.661-2.912-2.326-2.96-4.2-.365a1.56,1.56,0,0,0-.14.365Zm10.676-3.567-4.512.334c1.294,2.588,1.915,2.7,3.614.734C135.223,170.344,135.453,170.064,135.885,169.55Zm-24.847,1.393c1.674,2.477,2.9,2.358,4.188-.3Zm35.286,1.34a7.147,7.147,0,0,0,2.755-.458c.738-.172.67-.52.3-.974a4.369,4.369,0,0,1-1.279-1.89c-.56.99-1.067,1.876-1.563,2.768A4.273,4.273,0,0,0,146.324,172.283Zm-71.839-1.907c2.148,2.919,2.843,2.953,4.185.314Zm5.6.967-2.427,2.071h3.759Zm37.873-.769c.492.993,1.019,2,1.729,1.954.987-.059,1.4-1.263,2.341-2.185Zm-33.3.347c-.87,0-1.506.023-2.141-.007-.6-.028-1.2-.112-1.851-.176C82.24,173.584,82.623,173.618,84.66,170.921ZM93.1,173.73c-.307-.669-.568-1.241-.834-1.811-.171-.365-.413-.468-.761-.209a6.315,6.315,0,0,0-2.209,2.02Zm11.068-2.49c1.826,2.469,2.444,2.428,3.9,0Zm-4.61.363c1.277,1.942,1.525,2.474,3.419-.335-1.083.078-2.137.153-3.189.234A.716.716,0,0,0,99.555,171.6Zm-25.963-.816c-.051,1.013-.42,2.2-.051,2.517a2.856,2.856,0,0,0,2.519,0C75.141,172.536,74.73,171.475,73.592,170.787Zm29.989,1.26-1.85,1.963a11.254,11.254,0,0,0,3.758-.307Zm-10.637-.521c.292.789.523,1.851,1.169,1.781a3,3,0,0,0,2-1.781Zm-5.883-.223c1.879,2.109,1.291,1.956,3.185.2A12.711,12.711,0,0,0,87.061,171.3Zm63.1-.91c.237-.845.78-1.6.133-2.244-.277-.276-1.286-.222-1.373.11C148.687,169.145,149.356,169.761,150.159,170.393Zm-83.928-8.5a1.747,1.747,0,0,1-2.327,1.743c-1.821-.865-2.7-2.634-3.678-4.236a3.8,3.8,0,0,0-.565-.98q-1.371-1.294-2.707-2.627c-.284-.283-.766-.643-.388-1.042.455-.48.838.04,1.127.372a18.626,18.626,0,0,0,6.757,4.793,2.862,2.862,0,0,1,1.207.92A7.753,7.753,0,0,1,66.231,161.888Zm-4.687-2.2-.191.282c.828.8,1.636,1.618,2.495,2.38.266.237.669.7,1.036.162.26-.38.022-.787-.293-1.076A18.284,18.284,0,0,0,61.544,159.687Zm7.812,70.68a2.65,2.65,0,0,0-.455-3.306c-1.245-.785-1.972.078-2.665.943s-1.355,1.781-2.093,2.616c-.3.341-.9.595-.544,1.087.286.4.877.19,1.3,0a4.616,4.616,0,0,0,1.76-1.33,5.1,5.1,0,0,1,.573-.612c.2-.186.437-.344.877-.685a5.3,5.3,0,0,1-2.689,3A3.989,3.989,0,0,0,69.356,230.367ZM81.584,188A151.472,151.472,0,0,0,71.165,202.42C74.671,197.629,78.556,193.122,81.584,188Zm1.385,3.527c-1.412,2.025-3.044,3.87-4.618,5.763-1.039,1.25-2.02,2.549-3.024,3.829-.189.241-.545.447-.246.825a.477.477,0,0,0,.344.191c.377-.063.239-.422.344-.649a4.538,4.538,0,0,1,.654-.887c2.482-3.067,5.092-6.029,7.432-9.259C83.35,191.131,83.15,191.269,82.969,191.529Zm61.29,20.925c-2.865,3.681-6,6.829-8.518,10.5C137.444,221.978,144.2,213.694,144.259,212.454Zm-59.308-3.8a92.174,92.174,0,0,0-7.572,8.754l.316.275,7.6-8.7Zm-28.51,7.653,7.336,8.761.324-.28a109.863,109.863,0,0,0-7.3-8.818Zm8.135-16.536-8.143-8.556-.357.342c2.584,2.976,5.346,5.784,8.18,8.521Zm84.093,13.134a98.033,98.033,0,0,0,3.784-9.131l-.487-.2q-1.846,4.582-3.7,9.166ZM77.686,158.682V148.271h-.3v10.411Zm61.339,64.59q3.093-3.642,6.184-7.286l-.4-.335a70.425,70.425,0,0,0-6.072,7.381Zm-58.31-21.966,5.436-7.625-.382-.271a54.99,54.99,0,0,0-5.353,7.685Zm8.4,7.7a68.825,68.825,0,0,0-5.917,6.726l.341.3,5.937-6.7Zm52.349.821-4.761,7.422.363.234a58.313,58.313,0,0,0,4.768-7.419Zm-81.5-12.318-5.021-5.727-.387.357a74.438,74.438,0,0,0,5.073,5.707Zm77.745-54.342a21.5,21.5,0,0,0-2.066,6.927C136.4,147.807,137.466,145.6,137.708,143.166Zm13.123,69.962a23.91,23.91,0,0,0,2.9-6.558A22.884,22.884,0,0,0,150.831,213.128ZM57.2,179.309a27.066,27.066,0,0,0-4.231-5.441C54.255,175.788,55.265,177.933,57.2,179.309Zm17.581,8.9,4.54-5.083-.341-.3a52.577,52.577,0,0,0-4.552,5.078Zm-11.129,38.3c-1.477-1.476-2.952-2.953-4.441-4.417-.026-.025-.261.085-.3.175a.4.4,0,0,0,.08.353q2.117,2.153,4.25,4.286Zm28.095-16.362a34.68,34.68,0,0,0-4.066,3.937.3.3,0,0,0-.01.478.41.41,0,0,0,.618-.044c1.026-1.667,2.731-2.711,3.918-4.3C92.005,210.185,91.823,210.093,91.746,210.148Zm35.4,7.653c.91-2.263,2.284-3.813,3.528-5.716C129.255,212.459,127.133,215.849,127.142,217.8ZM53.655,193.187l3.995,4.7.322-.273a32.8,32.8,0,0,0-3.942-4.746Zm60.63-42.213c.338-1.665.664-3.332,1.027-4.992.05-.229.2-.436-.046-.594a.3.3,0,0,0-.435.2,20.3,20.3,0,0,0-.917,5.306Zm-36.513,61.2,4.016-4.492A11.139,11.139,0,0,0,77.772,212.169Zm-13.258-1.852a8.267,8.267,0,0,0-3.763-3.688A32.114,32.114,0,0,0,64.514,210.317Zm82.678,5.713a12.138,12.138,0,0,0-2.947,5.063l3.309-4.819ZM97.1,152.538v-5.489a10.6,10.6,0,0,0-.517,5.5Zm-17.21,4.242.357-5.489-.38-.018a15.069,15.069,0,0,0-.336,5.492Zm-4.7-7.98c.39,1.94-.324,3.962.511,5.854C75.588,152.692,76.155,150.676,75.185,148.8Zm54.7-.752,1.092-5.171-.406-.083A14.245,14.245,0,0,0,129.517,148ZM61.963,195.139l-3.936-3.707A12.882,12.882,0,0,0,61.963,195.139Zm85.471,14.08c.556-1.911,1.674-3.256,2.372-5.173C148.266,205.362,147.115,207.8,147.434,209.219Zm-69.77-28.652a14.477,14.477,0,0,0-3.339,4.143A13.988,13.988,0,0,0,77.664,180.567ZM54.533,156.49A12.075,12.075,0,0,0,56.157,161l.349-.129-1.625-4.51Zm8.957,50.274c-.97-.1-1.175-1.363-2.192-1.547a6.94,6.94,0,0,0,3.554,3.266c-.128-.707-1-.819-1.156-1.484ZM59.2,168.778a11.227,11.227,0,0,0-2.257-4.257A11.4,11.4,0,0,0,59.2,168.778Zm82.614-22.91a7.7,7.7,0,0,0-1.162,4.849C140.948,149.061,141.821,147.571,141.815,145.868ZM62.146,178.741c.14.163.355.357.585.115.259-.273-.065-.394-.187-.544-.759-.936-1.54-1.853-2.289-2.8-.236-.3-.461-.443-.966-.166C60.253,176.5,61.192,177.626,62.146,178.741ZM92.465,165.5a8.412,8.412,0,0,0,.614-4.624C92.3,162.366,92.775,163.973,92.465,165.5ZM63.58,218.3a18.168,18.168,0,0,0-3.3-3.766l-.327.285,3.327,3.748Zm-9.187-45.03a10.124,10.124,0,0,0,3.157,3.948A13.368,13.368,0,0,0,54.393,173.274Zm9.025,42.882c-.99-1.22-1.9-2.526-3.454-3.116C61.094,214.09,61.927,215.509,63.418,216.156ZM139.187,144.9c-.519,1.415-1.233,2.782-.808,4.428l1.246-4.282ZM94.948,145.94c.115,1.5-.665,2.992.011,4.466C95.037,148.908,95.794,147.4,94.948,145.94Zm.706,15.183c-.8,1.467-.527,3.053-.545,4.607A12.094,12.094,0,0,0,95.654,161.123Zm45.416,41.16a17.766,17.766,0,0,0,2.663-3.574C142.313,199.632,141.1,201.315,141.07,202.283Zm-8.813-54.738c.411-1.6.763-2.98,1.114-4.354A4.8,4.8,0,0,0,132.257,147.545ZM55.945,180.1a8.388,8.388,0,0,0-2.3-3.245A7.042,7.042,0,0,0,55.945,180.1Zm30.7,17.158a4.81,4.81,0,0,0-2.7,2.85Zm-24.468-16.52L59.9,177.082l-.336.212a10.827,10.827,0,0,0,2.293,3.648ZM116.209,150c.379-1.351.752-2.682,1.195-4.259C116.233,146.82,115.677,149.093,116.209,150ZM57.887,175.32a8.161,8.161,0,0,0-2.447-2.868C55.776,173.822,56.92,174.488,57.887,175.32Zm87.837,31.45a9.823,9.823,0,0,0,2.048-3.3l-.338-.212-2.017,3.29ZM81.521,157.2l.637-4.153A3.988,3.988,0,0,0,81.521,157.2ZM65.176,207.392l-2.846-2.74-.312.342,1.472,1.77L63.7,207C64.191,206.854,64.435,207.6,65.176,207.392Zm-7.639,6.958,2.6,2.857.344-.326c-.966-.865-1.449-2.166-2.653-2.816Zm88.432,6.678c.617-1.132,1.569-2.024,2.1-3.22A4.3,4.3,0,0,0,145.969,221.028ZM74.038,151.912l-.364-3.468a4.479,4.479,0,0,0,.006,3.518Zm67.849.368c.338-1.081.672-2.152,1.1-3.515A2.9,2.9,0,0,0,141.887,152.28ZM91.35,213.925l2.664-2.4C92.348,211.942,91.51,212.771,91.35,213.925Zm62.617-1.727c.464-1.22.873-2.3,1.282-3.375A3.226,3.226,0,0,0,153.967,212.2ZM87.818,199.645a3.986,3.986,0,0,0-2.357,2.676l2.573-2.4Zm-33.66-32.181c.224.08.632.071.576-.1a7.7,7.7,0,0,0-1.68-2.87c.012,1.185.9,1.962,1.15,3.013ZM134.675,215.1a4.937,4.937,0,0,0-1.585,3.09A6.288,6.288,0,0,0,134.675,215.1Zm-71.533-.64a4.792,4.792,0,0,0-2.647-2.227A7.178,7.178,0,0,0,63.142,214.46Zm10.7-32.09a3.107,3.107,0,0,0,1.643-2.5A2.917,2.917,0,0,0,73.847,182.37Zm45.336-32.093a4.182,4.182,0,0,0,.235-3.244C119.2,148.111,118.747,149.177,119.183,150.277Zm11.426,66.612a5.033,5.033,0,0,0,1.554-2.781A4.915,4.915,0,0,0,130.609,216.889Zm-73.661-10.74a2.809,2.809,0,0,0,2.189,2.179C58.438,207.694,58.112,206.658,56.948,206.149Zm2.181,19.041a3.646,3.646,0,0,0,2.027,2.02A3.756,3.756,0,0,0,59.129,225.19Zm1.477-57.209a5.282,5.282,0,0,0-1.46-2.625A3.391,3.391,0,0,0,60.606,167.981Zm2.575,52.943a.331.331,0,0,0,.327.02c.076-.063.136-.291.095-.33a13,13,0,0,0-2.249-2.263A6.448,6.448,0,0,0,63.181,220.924Zm-.811-17.566a2.614,2.614,0,0,0,2.183,1.779q-.965-1.029-1.93-2.056ZM57.707,161.35a6.893,6.893,0,0,0-1.027-3.021C56.374,159.408,56.878,160.211,57.707,161.35Zm5.072,15.459a6.1,6.1,0,0,0-2.353-2.522A5.148,5.148,0,0,0,62.779,176.809Zm36.429-26.24.162-2.655A1.91,1.91,0,0,0,99.208,150.569Zm19.094-3.73a2.455,2.455,0,0,0-.74,2.974C117.845,148.676,118.048,147.861,118.3,146.839Zm24.928,6.419,1.088-2.462C143.063,151.654,142.891,152.113,143.23,153.258ZM54.6,230.55l-9.384-6.173-.246.382a106.68,106.68,0,0,0,9.375,6.177Zm-8.569-7.683,7.028,5.625.249-.32a56.084,56.084,0,0,0-7.018-5.663Zm3.649,6.55,6.048,3.612.179-.3a35.819,35.819,0,0,0-5.957-3.737Zm1.729,2.466a19.029,19.029,0,0,0,4.873,3.427l.22-.314-4.867-3.437ZM46.47,200.557l3.48,1.648a5.368,5.368,0,0,0-3.3-2.016Zm1.557,8.654a4.544,4.544,0,0,0,2.524,1.264A3.2,3.2,0,0,0,48.027,209.211ZM14.022,188.252c-1.555-3.759-3.607-7.265-5.469-10.868l-.475.242,5.553,10.824Zm6.51,10.28c1.84,3.21,4,6.21,6.088,9.258l.392-.253q-3.017-4.622-6.031-9.243Zm-.344,3.557c1.527,2.907,3.859,5.192,5.985,7.657C24.592,206.884,22.227,204.617,20.188,202.089Zm2.087-6.953a54.663,54.663,0,0,0,4.859,8.364l.356-.207-4.9-8.342Zm-.658,21.553a50.751,50.751,0,0,0-2.843-7.793l-.438.161,2.921,7.764Zm-.579-42.52c.038.05.264.027.337-.038.19-.169.036-.311-.077-.464-.8-1.082-1.573-2.184-2.39-3.252-.446-.583-.6-1.432-1.773-1.884A34.008,34.008,0,0,0,21.038,174.169Zm3.481,19.292a21.356,21.356,0,0,0,3.557,5.576C26.973,197.116,26.149,195.013,24.519,193.461ZM12.342,168.29a21.3,21.3,0,0,0,3.93,4.87A15.427,15.427,0,0,0,12.342,168.29ZM9.819,168l3.076,4.853.384-.24a31.113,31.113,0,0,0-3.06-4.785Zm17.5,49.506.318-.233-3.1-4.282A8.872,8.872,0,0,0,27.32,217.507Zm-8.709-44.89c-1.147-1.623-2.182-3.09-3.377-4.782C15.36,169.391,17.321,172.128,18.611,172.617Zm-8.233,20.469q-.71-2.565-1.42-5.13l-.366.1a23.224,23.224,0,0,0,1.331,5.106Zm1.641-4.14-2.668-5C9.413,185.748,10.908,188.361,12.019,188.946Zm9.835,22.082-2.407-4.944C19.445,207.838,20.856,210.505,21.854,211.028Zm-9.532-29.2A12.021,12.021,0,0,0,15.064,186,11.19,11.19,0,0,0,12.322,181.824Zm4.141,2.335a13.671,13.671,0,0,0-2.09-4.653A11.109,11.109,0,0,0,16.463,184.159Zm10.2,6.3a8.389,8.389,0,0,0,2.555,3.717A11.063,11.063,0,0,0,26.666,190.458Zm.515,31.477c-.217-1.651-1.277-2.827-2.212-4.073C25.178,219.516,26.41,220.6,27.181,221.935Zm1.648-26.141L26.349,192l-.394.268a21.1,21.1,0,0,0,2.52,3.8Zm-.705,30.562a4.49,4.49,0,0,0-2.549-3.1C26.166,224.5,27.447,225.176,28.124,226.356ZM16.178,177.883a4.7,4.7,0,0,0,2.034,3.031l-1.69-3.145Zm2.081,24.239a6.429,6.429,0,0,0,1.885,2.6A4.007,4.007,0,0,0,18.259,202.122Zm-9.177-6.494.34-.16c-.345-1.068-.506-2.218-1.7-2.815Zm10.04-15.708c-.456-1.2-.191-2.171-.86-3.245C18.158,177.916,17.9,178.888,19.122,179.92Zm8.513-25.932,5.644,6.269.34-.317a50.039,50.039,0,0,0-5.68-6.246ZM26.782,119.9c1.621,2.13,2.917,4.5,4.731,6.488l.323-.237-4.574-6.609Zm-1.455,11c1.5,2.17,2.9,4.418,5.081,6.067l-4.672-6.384Zm2.624,9.874a24.57,24.57,0,0,0,4.923,5.24A26.319,26.319,0,0,0,27.951,140.775Zm4,5.336a55.7,55.7,0,0,0-5.154-4.827l-.332.363,5.177,4.8ZM30.46,134.45a16.1,16.1,0,0,0-3.307-4.536A14.944,14.944,0,0,0,30.46,134.45Zm-2.845-5.839,3.19,4.165C30.466,131.039,28.8,128.9,27.615,128.611Zm-.871-5.775a9.478,9.478,0,0,0,2.316,3.432A7.528,7.528,0,0,0,26.744,122.836ZM26.6,143.849a10,10,0,0,0,3.062,2.613l.237-.281-3.025-2.626ZM26.142,157.6a6.9,6.9,0,0,0-2.581-2.744A6.207,6.207,0,0,0,26.142,157.6Zm.932-8.259a7.706,7.706,0,0,0-2.464-2.857A6.214,6.214,0,0,0,27.074,149.342Zm.315-13.438-1.91-2.762C25.4,134.574,26.284,135.321,27.389,135.9Zm1.279,10.974c-.365-1.118-1.486-1.453-2.282-2.133C26.746,145.884,27.794,146.282,28.668,146.878Zm-3.388-.894a4.18,4.18,0,0,0,2.689,1.851l-2.4-2.136ZM13.693,86.532l5.274,8.035.375-.252C17.7,91.556,16,88.838,14.11,86.24Zm5.915,3.8-4.227-5.163-.33.272a40.16,40.16,0,0,0,4.189,5.2Zm-6.064,52.673,3.7,2.027A4.118,4.118,0,0,0,13.544,143.005Zm1.6,12.2c-.759.1-1.028-1.16-2.155-.721,1.025.779,1.878,1.458,2.769,2.08.212.148.446.711.747.3.339-.461-.291-.5-.508-.721-.316-.316-.757-.515-.9-.988ZM32.237,64.812l-1.406-3.535-.377.147a9.467,9.467,0,0,0,1.41,3.533ZM17.69,86.755c.722.974,1.192,2.17,2.454,2.64C19.393,88.449,18.938,87.221,17.69,86.755Zm-.67,47.222c-1.175-.163-1.914-1.45-3.393-1.356a16.546,16.546,0,0,0,2.993,1.941c.214.136.476.447.658.072.072-.15-.2-.467-.308-.707ZM33.448,63.614a7.279,7.279,0,0,0-1.476-3.641c.211,1.326.355,2.682,1.511,3.6ZM14.364,139.635a4.164,4.164,0,0,0,2.934,1.792A6.99,6.99,0,0,0,14.364,139.635Zm.73,15.519c.7-.115,1.007.912,1.842.53-.987-.413-1.3-1.819-2.91-1.9l1.119,1.418Zm2.121-21.9c-.386-1.5-1.83-1.237-2.792-1.776a5.848,5.848,0,0,0,2.828,1.739ZM40.9,21.536a47.675,47.675,0,0,0-.914,7.109l.407.054q.5-3.557,1.007-7.114ZM38.915,24.4a19.414,19.414,0,0,0,.814-5.377A10.431,10.431,0,0,0,38.915,24.4Zm.35,16.524.973-4.964-.434-.079a15.03,15.03,0,0,0-.9,5.021ZM50.951,34.6V29.568C50.157,30.573,50.211,32.756,50.951,34.6Zm-8.724-6.793.378-4.281C41.612,24.694,41.513,27,42.227,27.806Zm6.97.955a7.469,7.469,0,0,0,.1,4.144A10.221,10.221,0,0,0,49.2,28.761ZM38.057,39.694l.817-3.685A3.582,3.582,0,0,0,38.057,39.694ZM27.723,42.728a3.779,3.779,0,0,0-.287,3.246C27.419,44.88,28.186,43.857,27.723,42.728Zm1.6,2.934a6.4,6.4,0,0,0,.164-3.212C28.824,43.5,29.118,44.584,29.321,45.662Zm7.91-26.9a4.451,4.451,0,0,0-.126,3.015A3.976,3.976,0,0,0,37.231,18.761Zm8.129,13.6c.038-.978.644-1.91.257-3.313C45.118,30.382,44.724,31.331,45.36,32.364Zm1.282-.523a4.357,4.357,0,0,0,.107-2.95A4.36,4.36,0,0,0,46.642,31.841ZM26.03,45.878c.089-.973.795-1.855.255-2.9C26.039,43.937,25.463,44.85,26.03,45.878ZM47.905,28.27a3.852,3.852,0,0,0,0,3.312A7.248,7.248,0,0,0,47.905,28.27Zm-16.7,13.867c-.669,1.288-.431,2.24-.366,3.485C31.545,44.442,31.286,43.488,31.208,42.137Zm29.346-28.4c-.717,1.064-.3,2.251-.291,3.394C60.963,16.067,60.56,14.882,60.554,13.739Zm47.983,14.27c.314-1.214.175-2.466.367-3.678A3.993,3.993,0,0,0,108.537,28.009ZM90.935,7.522c.292-1.027.949-1.79.737-2.846A2.662,2.662,0,0,0,90.935,7.522Z" fill="#151611"/>
</svg>
