<svg xmlns="http://www.w3.org/2000/svg" viewBox="0 0 172.99 210.443">
  <path d="M94.186,210.443c-4.426-.112-11.153-.2-17.871-.882a117.629,117.629,0,0,1-19.549-3.291,24.6,24.6,0,0,1-7.131-2.874c-1.42-.934-2.9-1.983-2.558-3.976a5.081,5.081,0,0,1,3.228-3.883q10.157-4.372,20.321-8.73c5.63-2.422,11.251-4.868,16.891-7.268a1.392,1.392,0,0,0,1.014-1.349A41.016,41.016,0,0,0,88.6,169.7c-.006-.051-.064-.115-.048-.147.373-.753.86-1.678.209-2.3s-1.71-.221-2.585-.224A87.053,87.053,0,0,1,31.5,148.012c-15.486-12.1-25.167-27.922-29.69-46.9A76.04,76.04,0,0,1,.581,74.925,90.7,90.7,0,0,1,19.9,28.251,94.968,94.968,0,0,1,48.433,3.878C50.893,2.491,53.55,1.55,56,.154c.869-.5,1.336.316,1.781.857a38.939,38.939,0,0,1,4.1,6.357c.449.836.867.783,1.576.454A76.205,76.205,0,0,1,84.6,1.489a78.742,78.742,0,0,1,9.974-.86,80.853,80.853,0,0,1,30.441,5.682c9.93,3.793,18.24,9.947,25.631,17.483a83.624,83.624,0,0,1,16.1,23.44c2.424,5.2,3.362,10.835,4.7,16.337a61.223,61.223,0,0,1,1.539,15.09,73.422,73.422,0,0,1-4.156,23.52c-5.906,16.934-16.67,29.934-31.825,39.382-.65.406-.681.585-.264,1.24,1.183,1.855,2.183,3.826,3.348,5.693a1.355,1.355,0,0,1-.511,2.183A102.24,102.24,0,0,1,110.95,163.79a60.784,60.784,0,0,1-7.338,1.712c-.82.115-1.126.381-1.077,1.412.175,3.736.149,7.483.147,11.225A1.541,1.541,0,0,0,103.8,179.9c12.2,4.49,24.023,9.9,36.154,14.55a19.206,19.206,0,0,1,3.987,1.871c2.7,1.831,2.876,4.442.34,6.5-2.461,2-5.466,2.873-8.449,3.619a129.867,129.867,0,0,1-17.786,2.984C110.873,210.182,103.688,210.34,94.186,210.443ZM130.7,193.671l.009.018c-1.229-.981-2.426-1.575-4.005-.51a7.288,7.288,0,0,1-3.327,1.325c1.014-1.191,2.509-1.619,3.912-2.46-.75-.3-1.334-.528-1.919-.754-7.456-2.885-14.913-5.767-22.269-8.9a2.821,2.821,0,0,1-1.956-2.973c.029-4.108-.064-8.217-.31-12.322-.047-.8-.219-1.186-1.078-1.022a63.362,63.362,0,0,1-8.613.937c-.34.018-.788-.1-.786.486a.74.74,0,0,0,.62.783c.455.133,1,.172,1.288.826-.356.034-.6.062-.853.081-.347.026-.815-.673-1.019.06-.222.794.573.5.921.7.906.508,2.067.394,3.117,1.2-1.041.324-1.725-.226-2.43-.244-.531-.013-1.226-.926-1.6-.016-.42,1.017.53,1.2,1.206,1.407,1.353.419,2.722.784,4.084,1.172l-.091.4a24.65,24.65,0,0,1-5.088-1.122c-.624,1.7.017,2.522,1.687,2.708,1.575.176,3.122.683,4.813.225-.294.889-.907.808-1.468.823a15.477,15.477,0,0,1-4.03-.554c-.56-.133-1.154-.258-1.366.574-.194.766.045,1.074.819,1.354,1.07.388,2.294.4,3.214,1.26-1.2.288-2.269-.276-3.376-.528-.29-.066-.732-.35-.7.117.052.692-.382,1.693.895,1.906a8.534,8.534,0,0,1,3.423,1.031c-2.522.017-5.17-1.412-7.4.812.567.793,1.923.482,2.615,1.678a7.366,7.366,0,0,1-2.952-1.023c-1.081-.635-1.764.146-2.587.53.317.628,1.089.683,1.146,1.671-1.438-1.074-2.836-1.424-4.3-.456a7.438,7.438,0,0,1-1.4.69c-1.049.409-2.366.586-1.442,2.551-.871-.523-.956-1.677-1.983-1.148-.994.513-2.035.936-3.176,1.454,1.782,1.6,4.146,1.852,6.239,3.241a6.89,6.89,0,0,1-4.826-1.336c-2.33-1.775-4.272-.953-6.367.127-.044.023-.106.011-.154.031-1.093.436-1.019,1.016-.141,1.59.937.612,1.919,1.153,2.977,1.782a1.293,1.293,0,0,1-1.623-.185c-2.506-2.112-5.077-2.106-7.739-.34-.073.048-.143.1-.327.235,2.773,2.415,6.486,2.919,9.442,4.869A25.437,25.437,0,0,1,62,195.048c-1.675-1.183-2.868-.833-4.322-.113-.484.239-.953.51-1.518.814,1.607,1.4,3.563,2.057,5.084,3.382a17.332,17.332,0,0,1-5.118-2.377c-.433-.258-.789-.753-1.4-.5-1.175.5-2.347,1-3.7,1.571l5.286,3.693a3.759,3.759,0,0,1-2.218-.673c-1.26-.628-2.345-1.533-3.552-2.249-.95-.563-1.064-.1-1.392.47-.442.762.155,1.207.57,1.619a10.267,10.267,0,0,0,3.813,2.157c7.576,2.8,15.543,3.549,23.486,4.349,5.555.559,11.148.542,16.723.812,5.539.267,11.06-.095,16.578-.3a139.99,139.99,0,0,0,15.445-1.487,60.171,60.171,0,0,0,14.356-3.529,9.334,9.334,0,0,0,3.031-1.951c.671-.662.275-1.206-.117-1.8-.492-.75-.911-.331-1.409-.014a6.464,6.464,0,0,1-3,1.487c.815-1.221,2.246-1.409,2.923-2.595-2.584-1.045-5.108-2.075-7.639-3.086A8.261,8.261,0,0,0,130.7,193.671Zm-50.833-53.43a1.642,1.642,0,0,1,.088,1.623c-.585,1.783-1.038,3.614-1.716,5.36-.372.957.014,1.156.758,1.337A61.344,61.344,0,0,0,91.386,150.5a79.016,79.016,0,0,0,17.233-.87,76.1,76.1,0,0,0,22.79-7.881,72.466,72.466,0,0,0,31.147-32.585,74.3,74.3,0,0,0,7.164-24.715c.374-3.442-2.658-5.492-5.817-4.758a3.681,3.681,0,0,1-1.695.094,8.62,8.62,0,0,1-6.527-5.757c-2.747-7.231-4.7-14.828-9.883-20.942-1.48-1.745-1.953-4.186-3.43-6.008-1.5-1.849-2.274-2.072-4.5-1.294-1.879.656-3.729,1.235-5.806.669a3.512,3.512,0,0,0-3.459.975,10.786,10.786,0,0,1-7.5,2.737,3.452,3.452,0,0,0-2.962,1.435c-.929,1.2-2.08,2.21-3,3.445-.684.919-1.7,1.862-3.087,1.272a2.672,2.672,0,0,1-1.468-3.028c.469-5.077,2.476-9.379,6.914-12.12,2.384-1.472,3.5-3.23,3.046-6.04-.3-1.825.747-2.932,2.37-3.636a27.132,27.132,0,0,1,4.782-1.435c.964-.222,1.8-.477,1.657-1.661-.147-1.216-1.144-.551-1.752-.649-1.7-.275-3.213-.89-3.815-2.611-.584-1.669.325-2.885,1.546-3.986a11.922,11.922,0,0,1,4.031-2.073,3.251,3.251,0,0,0,2.2-3.289c.018-.791-.042-1.585.01-2.372a1.25,1.25,0,0,0-.832-1.348c-1.759-.835-3.491-1.728-5.255-2.55a64.243,64.243,0,0,0-24.432-6.045,76.752,76.752,0,0,0-15.712.558,85.339,85.339,0,0,0-15.056,3.8c-.928.329-1.2.753-1.076,1.685.343,2.653-.45,4.2-2.822,5.3a4.2,4.2,0,0,0-2.514,4.016c-.058,1.6-.647,2.533-2.365,2.744-.594.073-1.561-.057-1.761.982a3.393,3.393,0,0,1-3.084,2.721,4,4,0,0,0-1.61.578c-.7.5-1.716,1.059-1.073,2.1.627,1.013,1.562.5,2.346.006a4.933,4.933,0,0,0,.736-.594c2.632-2.492,5.658-4.521,7.993-7.386,1.938-2.379,5-3.158,7.763-4.277a1.508,1.508,0,0,0,1.187-1.683c-.075-2.863,1.55-4.132,4.19-3.165a2.3,2.3,0,0,0,2.979-.8A12.6,12.6,0,0,1,82.4,8.808a2.657,2.657,0,0,1,3.324-.622,9.036,9.036,0,0,0,6.87,1.256,1.264,1.264,0,0,1,.773.08,1.2,1.2,0,0,1,.8,1.376c-.262,1.254-2.915,3.778-4.24,3.917A4.157,4.157,0,0,0,87.558,15.9c-1.7,1.435-3.454,2.883-5.924,1.515-.255-.141-.724.007-1.058.122q-2.737.945-5.452,1.953c-.306.114-.848.041-.8.577.094,1.059-.632,1.908-.827,2.928,1.087-.167,1.895-1.046,2.994-.67a.834.834,0,0,1-.673.719,88.653,88.653,0,0,0-8.5,3.991,2.9,2.9,0,0,0-1.8,3.219c.5.069.926-.455,1.378-.041-1.612,1.451-1.768,2.064-1.054,4.359a10.26,10.26,0,0,0,.5,1.151c1.077,2.392,2.276,4.74,3.176,7.2.381,1.042.566,1.187,1.423.566A23.733,23.733,0,0,1,73.6,41.8a7.323,7.323,0,0,1,2.6-1.245c.051.839-.572.914-.991,1.176-1.465.918-2.94,1.823-4.4,2.755-.335.214-.825.3-.889.811-.2,1.613-.39,3.227-.6,4.96.386-.186.626-.286.852-.412,2.013-1.123,4.017-2.263,6.044-3.362.306-.166.786-.63,1.051.007.207.5-.359.495-.641.652-2.2,1.222-4.37,2.486-6.6,3.643a2.221,2.221,0,0,0-1.374,2.365,43.708,43.708,0,0,1,.339,5.652c-.145,2.5-1.462,4.375-3.594,4.738a10.356,10.356,0,0,0-3.639,1.4c-1.315.79-2.6,1.631-3.9,2.45.981-1.785,2.848-2.46,4.406-3.705a9.4,9.4,0,0,1-3.721-1.138,1.606,1.606,0,0,0-2.334.274c-.558-.434.508-1.035-.182-1.237-.6-.175-.82.43-.983.947a13.064,13.064,0,0,1-1.668,3.016c-1.682,2.642-2.584,5.486-1.782,8.668a13.633,13.633,0,0,0,2.3,4.275,18.618,18.618,0,0,1,2.653,5.851c.309,1.183.106,2.349-1.076,2.825-1.131.455-1.757-.323-2.433-1.324A11.649,11.649,0,0,0,45.857,80.6c-2-.427-3.923.522-5.821,1.069a7.587,7.587,0,0,1-7.831-1.826,7.938,7.938,0,0,0-4.313-2.4c-2.252-.3-4.223-1.021-5.333-3.294a2.177,2.177,0,0,0-.367,1.7,72.683,72.683,0,0,0,2.2,18.6,74.768,74.768,0,0,0,19.022,33.8c.709.736,1.061.516,1.495-.175,1.058-1.685,2.115-3.371,3.2-5.038.171-.263.37-.785.827-.419.359.287-.055.577-.2.8-1,1.54-1.957,3.116-3.076,4.566-.847,1.1-.851,1.75.252,2.764a74.839,74.839,0,0,0,27.809,16.317c3.552,1.154,3.518,1.121,4.59-2.458A14.4,14.4,0,0,1,79.869,140.241ZM8.574,83.177A70.389,70.389,0,0,0,9.2,91.625a65.418,65.418,0,0,0,2.87,13.086A73.48,73.48,0,0,0,37.2,140.426c13.7,10.78,29.515,15.919,46.675,17.4a74.472,74.472,0,0,0,15.53-.288,109.687,109.687,0,0,0,12.888-2.167,109.009,109.009,0,0,0,18.567-6.4c1.426-.639,1.466-.97.884-2.263-.662-1.467-1.249-1.62-2.673-.923a72.629,72.629,0,0,1-28.141,6.917,73.621,73.621,0,0,1-23.689-2.462c-17.322-4.731-31.6-14.072-42.368-28.519A76.407,76.407,0,0,1,20.028,81.966a67.691,67.691,0,0,1,.7-18.246c4.087-22.091,15.488-39.287,34.641-51.214,2.2-1.369,2.061-1.3.994-3.371-.946-1.838-1.565-.3-2.323.011a5.159,5.159,0,0,0-.537.326A89.813,89.813,0,0,0,24.232,35.721,81.979,81.979,0,0,0,8.574,83.177ZM72.4,20.537a37.238,37.238,0,0,0-8.64,3.923,59.343,59.343,0,0,0-5.655,4.8,6.042,6.042,0,0,1-1.331.831c-1.671.79-3.781.336-4.54-.944-.818-1.38-.27-3.25,1.322-4.414a5.922,5.922,0,0,1,2.566-1.138A2.256,2.256,0,0,0,58.1,21.849a2.453,2.453,0,0,1,2.583-1.884c1.323.05,1.547-.637,1.623-1.742a5.5,5.5,0,0,1,2.986-4.992A3.277,3.277,0,0,0,67.22,9.122a75.783,75.783,0,0,0-7.28,3.159A73.283,73.283,0,0,0,36.379,33.436,74.194,74.194,0,0,0,22.864,67.728c-.2,1.484-.879,3.045.551,4.581,1.113,1.2,1.892,2.788,3.675,2.919,2.626.193,4.58,1.568,6.5,3.133A5.734,5.734,0,0,0,39.246,79.7c1.1-.349,2.248-.519,3.355-.839a7.277,7.277,0,0,1,6.657,1.268,22.15,22.15,0,0,1,5.466,5.73,5.422,5.422,0,0,0-.144-2.412,17.7,17.7,0,0,0-2.828-5.064,11.374,11.374,0,0,1-1.744-9.292c.648-3.141,2.848-5.462,4.115-8.271a1.844,1.844,0,0,1,2.432-.96c1.7.878,2.836-.045,4.108-.815q1.547-.936,3.145-1.781c.4-.21.87-.659,1.388.049L59.136,60.8A24.569,24.569,0,0,0,62,61.667c3.95.643,5.719-.983,5.362-5.031-.114-1.287-.294-2.577-.333-3.986-2.038.827-3.715,2.208-5.835,2.617,1.151-.859,2.407-1.528,3.622-2.265,1.064-.646,2.429-.993,2.529-2.632.08-1.311.95-2.528.539-4.019L57.707,52.48,57.46,52.1c.411-.293.811-.606,1.236-.876,2.7-1.713,5.37-3.473,8.121-5.1a1.9,1.9,0,0,0,.9-2.848c-1.027-2.126-2.084-4.241-3.037-6.4-.378-.856-.744-.709-1.412-.391-.524.249-.873,1.052-2.076.573,2.471-.971,3.224-2.5,2.139-4.716-.981.01-1.6,1.283-3.107,1.084,1.085-.688,1.883-1.266,2.746-1.721.835-.44.6-1.164.575-1.8-.047-.992-.909.306-1.11-.33.185-.834,1.307-.77,1.468-1.723.434-2.567,2.093-3.869,4.63-4.147C70.405,23.5,72.01,22.929,72.4,20.537Zm52.674,26.39a4.544,4.544,0,0,0,2.39-1.324,4.133,4.133,0,0,1,3.856-1.36c2.189.554,4.117-.093,6.1-.728a5.074,5.074,0,0,1,6.046,1.718,26.1,26.1,0,0,1,2.161,3.482c1.274,2.262,1.27,2.284,2.876.071,1.082-1.491,2.111-3.021,3.208-4.6a1.111,1.111,0,0,1-.071,1.182,19.874,19.874,0,0,1-3.479,4.825c-1.162,1-.939,1.735-.162,2.717a30.794,30.794,0,0,1,4.439,6.683c.4.918.292,2.563,1.392,2.583.956.017,1.446-1.5,2.183-2.306.8-.867,1.183-2.119,2.392-2.62a16.82,16.82,0,0,1-3.824,5.442c-.564.528-.739.86-.476,1.5.234.572.458,1.148.949,2.384l4.589-4.958a17.689,17.689,0,0,1-3.765,4.6,1.407,1.407,0,0,0-.418,1.792c.289.661.55,1.335,1.006,2.453l3.124-3.34a3.463,3.463,0,0,1-1.187,1.958c-1.956,1.232-1.828,2.766-.792,4.5.267.449.4.984.711,1.4,1.286,1.731,2.756,3.391,5.159,2.9a6.589,6.589,0,0,1,5.089.846c.411.255.728.766,1.353.644a64.67,64.67,0,0,0,.011-10.094c-.039-.376,0-.81-.368-.973-.453-.2-.525.373-.8.558-.591.395-.7,1.352-1.828,1.609.952-2.149,3.506-3.5,2.069-6.185l-4.383,5.918-.382-.283a26.949,26.949,0,0,1,3.4-4.94c1.239-1.441,1.23-2.847.9-4.582-.772-4.064-2.721-7.678-4.137-11.491a63.129,63.129,0,0,0-9.076-16.345,7.348,7.348,0,0,0-1.892-2.109c-.806,2.326-.795,4.808-2.116,6.874a38.888,38.888,0,0,1,1.034-5.653,3.742,3.742,0,0,0-.948-3.919,73.377,73.377,0,0,0-13.3-11.369c-1.238-.827-2.563-1.526-3.931-2.334-.345,5.655-.508,5.9-5.533,7.88a6.755,6.755,0,0,0-2.369,1.516c-.774.783-.323,1.35.444,1.7a3.372,3.372,0,0,0,1.251.067c2.731.047,3.873,1.3,3.6,3.96-.164,1.6-1.184,2.531-3.189,2.981-1.473.33-2.948.667-4.4,1.085-.912.263-1.775.878-1.471,1.916.943,3.229-.349,5.276-3.045,6.957a14.339,14.339,0,0,0-4.743,4.349,11.742,11.742,0,0,0-1.868,7.483c1.083-1.492,2.459-2.645,3.63-3.983a4.872,4.872,0,0,1,4.4-1.967,3.447,3.447,0,0,0,2.717-.92,41.644,41.644,0,0,0,6.6-7.169c.947-1.237,1.647-2.707,3.3-3.928a6.12,6.12,0,0,1-.381,1.1A57.213,57.213,0,0,1,125.076,46.927ZM2.187,82.41a85.3,85.3,0,0,0,.669,10.571,81.729,81.729,0,0,0,10.277,31.6,80.7,80.7,0,0,0,19.941,23c13.571,10.636,29.189,16.044,46.225,17.5a91.475,91.475,0,0,0,33.063-3.5,87.575,87.575,0,0,0,25.519-11.727c.775-.528,1.205-.929.4-1.9a21.773,21.773,0,0,1-2.73-4.043c-.9-1.771-1.645-.267-2.459-.064-1.247.312-.631.927-.286,1.562.446.82.789,1.7,1.221,2.524s.134,1.3-.568,1.834c-1.285.986-2.849,1.247-4.268,1.873a98.978,98.978,0,0,1-37.024,8.057,85.09,85.09,0,0,1-15.554-.948,85.829,85.829,0,0,1-28.623-9.349C22.133,135.265,7.825,113.666,6.12,84.074A66.07,66.07,0,0,1,8.113,64.365C13.274,43.514,24.957,27.043,42.086,14.32A72.447,72.447,0,0,1,54.623,6.53c1.056-.491,1.378-.465,1.908.3.6.862,1.14,1.767,1.756,2.617.345.476.535,1.39,1.488.617a1.133,1.133,0,0,0,.219-1.852,23.78,23.78,0,0,1-3.308-5.537c-.329-.824-.716-.862-1.415-.473-1.686.94-3.4,1.84-5.1,2.742A90.634,90.634,0,0,0,23.577,26.2,85.924,85.924,0,0,0,2.187,82.41ZM75.825,15.184a2.032,2.032,0,0,0,2.451.734,5,5,0,0,1,3.829-.176,3.081,3.081,0,0,0,3.8-.936,4.69,4.69,0,0,1,3.405-1.684,2.245,2.245,0,0,0,2.278-1.644C85.74,10.285,81.161,13.848,75.825,15.184Zm-4.174,1.732c1.163.446,1.561,1.966,2.637,1.965a11.466,11.466,0,0,0,3.222-1.073,3.159,3.159,0,0,1-2.237-1c-.775-1.21-1.612-.783-2.529-.378C72.379,16.593,72.015,16.755,71.651,16.916Zm-6.274,5.822,6.858-3.061C70.146,18.223,67.461,19.452,65.377,22.738ZM86.526,10.57c-1.682-1.684-3.663-.709-5.13,1.839ZM79.3,13.17c-1.077-.134-1.912-1.5-2.981-.944a1.911,1.911,0,0,0-.589,2.268Zm42.772,67.641a17.383,17.383,0,0,1-3.934-.04c-4.224-1-5.09-3.423-3.985-7.36a117.8,117.8,0,0,0,3.056-16.153c.021-.153.163-.371.106-.443-1.653-2.062.42-2.662,1.487-3.394,2.177-1.5,4.825-1.609,7.346-1.919a35.5,35.5,0,0,1,10.7.633,6.514,6.514,0,0,1,3.633,2.055,5.737,5.737,0,0,0,3.722,2.107,4.166,4.166,0,0,1,3.3,2.665c2.253,5.319,4.446,10.668,4.358,16.594-.014.963.165,1.521,1.155,1.836a3.816,3.816,0,0,1,2.456,2.286,2.855,2.855,0,0,0,2.475,1.872c2.972.407,3.916,2.447,3.7,5.437a9.639,9.639,0,0,1-4.2,7.569,8.141,8.141,0,0,0-3.681,8.4c.474,3.148.043,6.131-2.619,8.5-2.4,2.133-3.309,5.192-4.243,8.159a20.708,20.708,0,0,1-1.672,4.242c-1.747,3.012-5.234,3.093-7.182.2-1.524-2.259-1.492-4.818-1.181-7.318.449-3.617.838-7.172-.741-10.632a13.017,13.017,0,0,1-.61-8.022,5.482,5.482,0,0,0-2.672-6.046,8.2,8.2,0,0,1-4.405-6.643,4.81,4.81,0,0,0-.2-.6c-.83-3.368-1.528-3.926-4.906-3.913-.421,0-.843,0-1.265,0Zm15.552,20.139c-.423.578-.2,1.165-.077,1.781.345,1.768,1.205,3.358,1.7,5.072.522,1.815.537,1.838,2.058.637,1.705-1.347,3.373-2.741,5.14-4.182.178.627-.179.82-.42,1.068a26.881,26.881,0,0,1-4.8,4.072,3.559,3.559,0,0,0-1.72,3.105c-.2,1.819-.08,3.656-.453,5.476a6.514,6.514,0,0,0,1.018,4.982c.959,1.43,2.174,1.393,3.082-.079a19.37,19.37,0,0,0,1.574-4.1c.958-2.831,1.554-5.946,3.781-8.059a9,9,0,0,0,2.806-8.256c-.033-.259.012-.528-.008-.79-.308-3.875,1.493-6.735,4.548-8.8a8.2,8.2,0,0,0,3.542-5.343c.531-2.393,0-3.326-2.374-3.822a4.536,4.536,0,0,1-3.3-2.424,3.694,3.694,0,0,0-2.3-1.993,2.258,2.258,0,0,1-1.75-2.608,22.145,22.145,0,0,0-.737-7.053c-1.9,1.84-3.319,3.987-5.429,5.572-.265-.737.252-.89.5-1.179,1.348-1.547,2.671-3.118,4.075-4.612a1.725,1.725,0,0,0,.343-1.989c-.715-2.08-1.368-4.181-2.093-6.256a5.678,5.678,0,0,0-.885-1.662c-1.333-1.66-3.26-1.373-4,.553-.169.439-.193.993-.876,1.2-.111-.964.518-1.654.584-2.47.023-.292.461-.648.126-.85-1.607-.972-2.522-2.863-4.518-3.318a26.6,26.6,0,0,0-9.179-.9c-2.512.312-5.108.405-7.461,1.562a1.828,1.828,0,0,0-1.235,1.611c-.313,3.275-.559,6.559-1.16,9.8a5.066,5.066,0,0,0-.131,3.177,64.66,64.66,0,0,1,6.858-7.1c-.127.65-.106.832-.188.92-2.21,2.4-4.334,4.894-6.693,7.141-1.082,1.031-.954,2.206-1.564,3.5,2.081-.658,3.517-1.921,5.354-2.2a16.179,16.179,0,0,1-4.509,2.72c-1.195.567-1.159,1.235-.76,2.244a2.208,2.208,0,0,0,1.892,1.475c2.1.085,4.3.667,6.247-.793,1.125-.843,2.353-1.547,3.525-2.328,1.529-1.018,2.915-2.228,4.4-3.311-1.841,2.928-5.01,4.3-7.507,6.3,3.163,1.513,5.071-1.218,7.546-2.208a22.518,22.518,0,0,1-3.982,3.281,10.2,10.2,0,0,1,2.784,5.806,39.692,39.692,0,0,0,5.917-4.735c.24.793-.244,1.131-.619,1.456a29.476,29.476,0,0,1-4.141,3.386c-1.365.8-1.078,1.4-.361,2.289l3.087-2.346a4.165,4.165,0,0,1-1.905,2.291c-.737.507-1.036,1.1.023,1.615,3.43,1.657,5.027,4.451,5.052,8.324,4.709-2.121,7.643-6.418,11.85-9.021-3.142,3.171-6.041,6.625-9.988,8.828-1.5.839-2.6,1.7-2.326,3.584ZM85.777,119.09c.582.052.91-.421,1.4-.144-.015.118.02.311-.056.38a9.176,9.176,0,0,0-3.079,5.275c-.318,1.638-1.782,2.678-3.068,3.68-2.839,2.213-4.317,4.948-3.487,8.631a6.458,6.458,0,0,1-.222,2.808c-.3,1.391-1.861,2-3.585,1.238-3.085-1.361-6.844-4.547-5.649-9.366a7.916,7.916,0,0,0-1.108-6.37,7.688,7.688,0,0,1-.864-6.055c.284-1.534.576-3.067.94-5a42.152,42.152,0,0,0-4.131,4.556c-.207-1.3.729-1.746,1.152-2.423.412-.66,1.033-1.185,1.515-1.807,1.913-2.464,1.765-4.819-.485-7.23-2.541,2.824-5.274,5.481-7.066,9.386a3.955,3.955,0,0,1,.816-3.065,37.1,37.1,0,0,1,5.142-6.356,1.244,1.244,0,0,0,.225-1.731,20.485,20.485,0,0,1-1.466-3.808,37.335,37.335,0,0,0-3.922-9.408,6.3,6.3,0,0,1-.768-2.055,2.233,2.233,0,0,1,2.407-2.888c3.573.307,5.9-1.248,7.034-4.515,1.012-2.913,3.363-3.549,5.934-3.717,2.466-.162,4.951-.035,7.428-.04a4.988,4.988,0,0,1,2.937.914,5.443,5.443,0,0,0,3.848.99c4.185-.4,6.652,1.892,8.331,5.373a8.951,8.951,0,0,0,1.38,2.281c3.275,3.569,3.469,6.237.9,10.4A8.852,8.852,0,0,1,93.16,102.8c-4.6,1.541-5.534,2.892-5.791,7.735A32.92,32.92,0,0,1,85.777,119.09ZM68.58,110.9c.768-.933,1.328-1.626,1.9-2.307.644-.765,1.282-1.536,1.962-2.267.188-.2.5-.5.82-.2.387.351-.049.529-.223.741s-.384.366-.543.574c-1.867,2.428-4.632,4.344-4.222,8.044a8.616,8.616,0,0,1-.394,2.446c-.538,2.426-.665,4.776.845,7.1a8.308,8.308,0,0,1,.892,6.281c-.935,4.285,1.226,6.043,4.163,7.92.98.626,1.614.2,1.654-.946a22.66,22.66,0,0,0-.048-2.843,8.756,8.756,0,0,1,3.23-7.677,13.2,13.2,0,0,0,4.389-6.816,52.129,52.129,0,0,0,2.2-11.005c.31-5.916,2.506-8.544,6.931-9.536,3-.671,4.526-2.751,5.429-5.54a3.279,3.279,0,0,0-1.1-4.04,8.228,8.228,0,0,1-2.673-3.27,6.065,6.065,0,0,0-6.7-4.066A5.689,5.689,0,0,1,83.142,82.3a3.949,3.949,0,0,0-2.256-1.016,58.765,58.765,0,0,1-6.581-.585c-2.877-.344-4.938,1.322-5.418,4.254a26.418,26.418,0,0,1,2.491-2.009c.842-.531,1.428-1.6,2.8-1.227L63.145,90.561c-.153-.846.649-1,.607-1.662-.956,0-1.894.053-2.826-.007-1.393-.091-1.554.6-1.049,1.629.691,1.415,1.467,2.787,2.2,4.181,1.48,2.81,1.864,6.01,3.163,8.881.269.593.162,1.719,1.462,1.278.27-.092.507.349.18.659-.491.466-.181.851.092,1.233A10.229,10.229,0,0,1,68.58,110.9Zm41.7-96.017c.772.4,1.41-.02,1.933.5-.643.635-1.452.165-2.1.386a29.924,29.924,0,0,1-8.362,1.164c-1.773.082-2.455,1.159-3.149,2.4a16.242,16.242,0,0,1-6.177,6.338c-2,1.146-2.843.817-3.623-1.4-.673-1.916-.673-1.916-2.482-1.739,1.79-.672,2.18-2.332,2.88-3.789.744-1.549,2.276-2.269,3.6-3.177A7.932,7.932,0,0,0,95.873,11.9a8.165,8.165,0,0,1,4.969-4.961,4.08,4.08,0,0,0,1.663-.847c2.391-2.375,5.113-1.829,7.91-.923a20.239,20.239,0,0,1,9.106,5.346c.662.726,1.465.378,2.214.456.333.034.7.042.712.437.008.373-.32.507-.677.462-.847-.107-1.144.137-.864,1.047.3.991-.266,1.467-1.22,1.531a20.821,20.821,0,0,1-4.222-.47A7.917,7.917,0,0,0,110.284,14.882ZM116.89,10.9a21.546,21.546,0,0,0-10.3-4.569,2.481,2.481,0,0,0-2.06.561,8.238,8.238,0,0,1-3.256,1.853c-2.137.745-3.08,2.428-3.876,4.6C103.89,11.736,110.292,11.289,116.89,10.9ZM93.066,17.717c2.641-.54,4.941-.582,6.558-2.651a3.07,3.07,0,0,1,3.34-.748c2.865.778,5.226-.424,7.877-2.121A64.439,64.439,0,0,0,98.506,13.75c-.573.134-1.3-.155-1.73.521C95.929,15.615,94.594,16.459,93.066,17.717Zm3.991,0c-6.094,1.361-6.094,1.361-6.5,2.785.9,0,1.851-.776,2.858.179-.893.179-1.6.366-2.32.451-.51.06-1.006.11-1.017.726-.014.718-.213,1.548.3,2.113.463.505,1-.064,1.4-.312A16.088,16.088,0,0,0,97.057,17.716Zm15.608-5.62c1.392-.25,3.6.629,5.827.471.051-.528-.209-.748-.418-.766C115.958,11.622,113.875,12.247,112.665,12.1Zm-48.63,72.1c5.131-4.82,10.537-9.312,16.105-13.615.672-.519,2.3-1.02,1.858-1.512-.668-.746-1.752.391-2.485.954A161.04,161.04,0,0,0,63.084,84.242a.823.823,0,0,0-.3.9C63.421,85.014,63.68,84.526,64.035,84.193ZM42.4,83.718c.222-.2.8-.44.4-.832-.472-.468-.834.087-1.153.371-3.853,3.427-7.708,6.85-11.529,10.311a4.694,4.694,0,0,0-1.869,2.588Q35.333,89.943,42.4,83.718Zm12.05,53.345c1.615-4.257,4.306-7.677,6.905-11.468C58.889,126.618,54.043,134.744,54.454,137.063ZM39.509,90.627c-3.665,2.911-7.506,5.632-10.287,9.5C32.534,96.846,36.434,94.169,39.509,90.627Zm11.684,43.444c2.265-3.56,4.455-7.169,6.961-10.583A26.029,26.029,0,0,0,51.193,134.071ZM36.2,83.26c-3.013,1.852-5.857,3.884-7.6,7.088C30.839,87.674,33.792,85.758,36.2,83.26Zm20.924,54.108c1.632-2.658,3.718-4.971,5.707-7.67C61.089,130.136,57.227,135.39,57.123,137.368ZM38.558,95.239a60.764,60.764,0,0,0-5.936,7.076l.344.3,6.1-6.893Zm44.18,34.895,6.37-6.731A33.1,33.1,0,0,0,82.738,130.134Zm-34.908-.441c1.667-1.844,2.587-4.213,4.1-6.229C49.7,124.9,48.8,127.319,47.83,129.693Zm44.092-3.932a15.73,15.73,0,0,0-4.414,4.981l.3.272q2.241-2.437,4.483-4.876ZM62.407,105.135a12.536,12.536,0,0,0-4.884,4.587C59.116,108.154,61.123,107.038,62.407,105.135Zm18.969,41.94,1.07-5.817-.4-.08c-1.107,1.786-1.021,3.821-1.194,5.8Zm-20.556-8.7c1.286-1.8,2.466-3.449,3.646-5.1C62.775,133.868,60.829,136.849,60.82,138.371ZM92.654,27.54a7.023,7.023,0,0,0-5.873,1.516ZM37.348,105.664l3.948-4.085-.441-.394a16.2,16.2,0,0,0-3.819,4.221ZM91.165,30.222c.213-.031.526-.178.454-.522a.383.383,0,0,0-.491-.279c-1.417.388-2.973.444-4.041,1.705C88.464,30.833,89.788,30.421,91.165,30.222Zm1.928,100.9a19.608,19.608,0,0,1,2.894-3.657C93.922,128.029,92.848,129.448,93.093,131.12ZM41.009,110.805l2.072-3.349c-1.5.55-1.909,1.847-2.426,3.068ZM37.4,108l3.1-2.765A5.131,5.131,0,0,0,37.4,108Zm47.03,38.588c.147-1.226.668-2.2.388-3.55C83.847,144.663,83.788,145.186,84.434,146.592ZM64.947,66.537a3.134,3.134,0,0,0-3.347,1.78Zm32.064,65.347,1.832-2.278A1.9,1.9,0,0,0,97.011,131.884Zm-.4,6.61c.173-.17.439-.365.154-.641a.394.394,0,0,0-.566.05c-.7.652-1.5,1.236-1.481,2.405C95.346,139.7,95.983,139.106,96.607,138.494Zm2.781-.23a3.722,3.722,0,0,0-1.57,2.726C98.419,140.26,99.4,139.769,99.388,138.264Zm-32.26-1.5c-1.226.135-1.8,1.011-1.556,2.554ZM42.4,112.66c.656-.73,1.1-1.631,1.773-2.372C42.761,110.426,42.441,111.435,42.4,112.66ZM31.892,60.1c5.71-4.607,12-8.341,18.522-12.465C47.515,47.748,32.115,58.354,31.892,60.1ZM34,53.762c3.3-2.53,6.921-4.558,10.617-7.049C42.411,46.747,34.362,52.275,34,53.762Zm-.209,8.79c2.881-1.932,6.005-3.513,8.479-5.99C39.271,58.33,36.157,59.924,33.794,62.552ZM51.665,35.334c-2.6,1.35-5.269,2.587-7.758,4.15l.241.457L51.989,35.9ZM35.455,49.7l6.558-4.468C40.324,45.259,36.5,47.924,35.455,49.7Zm7.108-11.326L49.21,35.2C47.025,35.161,42.936,37.341,42.563,38.376ZM38.636,65.188a7,7,0,0,0-4.029,3.147l4.27-2.781Zm9.385-32.722a8.809,8.809,0,0,0-4.129,2.649C46.345,34.309,47.337,33.663,48.021,32.466ZM35.033,65.53c.914-1.2,2.328-1.615,3.406-2.64C36.7,62.726,34.96,64.061,35.033,65.53Zm1.3,4.282c.887-.775,2.133-1.124,2.609-2.367A4.557,4.557,0,0,0,36.332,69.812Zm99.225,127.716c-13.5,5.586-27.47,7.131-41.857,5.875C100.518,206.606,132.249,202.066,135.557,197.528Zm-47.782,7.525c-3.118-1-6.346-1.026-9.562-1.174C81.342,204.81,84.568,204.829,87.775,205.053Zm1.191-4.488a93.341,93.341,0,0,1-9.919-.464C81.4,201.248,87.6,201.534,88.966,200.565Zm-22.977.181A10.876,10.876,0,0,0,71,202.59C69.378,201.818,67.853,200.819,65.989,200.746Zm64.721-7.058c-1.755-.434-2.905.625-4.088,1.6,1.448-.323,2.975-.456,4.08-1.616Zm-35.44,6.583a.429.429,0,0,0-.578.369c-.03.3.278.435.507.452a10.133,10.133,0,0,0,3.986-.252C97.908,200.364,96.534,200.754,95.27,200.271Zm28.236-8.462c.129-.046.419-.172.282-.458a.4.4,0,0,0-.5-.259c-1.071.471-2.329.6-3.045,1.811C121.332,192.544,122.426,192.2,123.506,191.809Zm-45.958,4.135a8.942,8.942,0,0,0-3.919-.837A5.42,5.42,0,0,0,77.548,195.944Zm40.933.312a4.285,4.285,0,0,0-3.417.891A5.761,5.761,0,0,0,118.481,196.256Zm20.608-165.2-4.353,8.358C136.295,38.668,139.327,32.851,139.089,31.058Zm-4.264,1.595A10.633,10.633,0,0,0,137,26.2C136.3,28.367,135.34,30.438,134.825,32.653ZM147.594,45.2c.712-1.389,1.87-2.544,2.1-4.185l-.364-.2-2.259,4.074Zm-7.72-8.63c1.151-.454,1.748-1.779,1.761-3.954C140.658,33.971,140.528,35.311,139.874,36.566ZM119.986,158.288c-6.827,1.509-13.429,4.129-20.477,4.568-7.134.444-14.268,1.151-21.429.658C92.414,164.811,106.51,163.966,119.986,158.288ZM4.745,96.828a64.032,64.032,0,0,1-.871-21.116C4.621,68.639,5.261,61.5,8.4,54.908,3.824,58.546.606,89.205,4.745,96.828Zm91.12,65.144a124.98,124.98,0,0,1-14.957-.367,115.127,115.127,0,0,1-15.162-2.729C68.794,161.617,92.632,163.991,95.865,161.972ZM33.49,18.067C39.316,12.887,46.082,9.1,52.709,5.109c.448-.27,1.048-.319,1.225-1.014-4.442.585-24.717,15.092-25.3,18.136,1.33-.672,1.883-2.236,3.335-2.6ZM19.317,131.02l.377-.207L7.634,108.745C10.286,116.834,14.938,123.852,19.317,131.02ZM56.69,155.655l-13.654-6.361-.23.5a124.042,124.042,0,0,0,13.686,6.331Zm-15.23-5.58c-3.405-2.7-6.606-5.655-10.136-8.235C34.392,144.947,37.529,148.007,41.46,150.075Zm82.382,6.075c-.208.111-.328.326-.167.494a.6.6,0,0,0,.556.109c1.961-1.075,4.11-1.807,5.888-3.241A26.271,26.271,0,0,0,123.842,156.15ZM41.6,151.941c-2.145-1.347-3.942-3.173-6.184-4.363C37.193,149.441,39.052,151.18,41.6,151.941ZM22.17,29.334A17.251,17.251,0,0,0,26.56,24.2C25.169,25.972,23.139,27.213,22.17,29.334ZM70.455,162.242a5.536,5.536,0,0,0,4.305.714A10.913,10.913,0,0,0,70.455,162.242ZM32.476,20.137a16.582,16.582,0,0,0,1.67-1.388c.274-.23.413-.573.168-.795-.132-.12-.541.065-.824.113l-1.523,1.564C31.923,20.023,31.905,20.5,32.476,20.137ZM26.314,137.41a7.91,7.91,0,0,0,2.872,2.249L26.65,137.21Zm111.317-36.465c.362.912.939.208,1.244.05a30.767,30.767,0,0,0,5.116-3.277,1,1,0,0,0,.472-1.179c-2.171,1.84-4.689,2.877-6.866,4.461ZM122.687,58.586a15.722,15.722,0,0,0-3.615,4.905C120.366,61.939,122.119,60.68,122.687,58.586Zm7.086-2.667-2.518,3.617C129.01,58.636,129.834,57.4,129.773,55.919Zm-.289,9.767a7.684,7.684,0,0,0-2.84,2.929l.332.334,2.816-2.958ZM81.225,112.77c-1.917.012-10.192,9.286-10.449,11.7A132.69,132.69,0,0,1,81.225,112.77Zm-6.151,14.048a75.492,75.492,0,0,1,7.647-10.626C80.77,116.285,75.148,124.04,75.074,126.818ZM63.6,93.252c3.715-3.191,7.56-5.729,11.171-8.577C72.87,84.768,64.362,91.289,63.6,93.252Zm6.337,25.682c3.417-3.055,6.107-6.794,9.3-10.057C75.485,111.614,72.78,115.339,69.936,118.934Zm2.425-28.728c-1.749.275-4.9,2.848-5.7,4.725C68.372,93.258,70.42,91.988,72.361,90.206Zm-1.428,7.827,2.529-2.239A3.575,3.575,0,0,0,70.933,98.033Z" fill="#151611"/>
</svg>
