<svg xmlns="http://www.w3.org/2000/svg" viewBox="0 0 291.211 247.967">
  <path d="M109.748,161.885a2.112,2.112,0,0,0-1.291-.342c-4.787-.2-9.576-.368-14.362-.588-7.673-.352-15.348-.691-23.017-1.124-5.232-.294-10.462-.6-15.7-.8-8.037-.311-16.071-.716-24.1-1.1-5.1-.245-10.2-.444-15.291-.82C10.949,156.737,5.9,156.584.9,155.784c-1.118-.178-.938-.994-.77-1.514a8.833,8.833,0,0,0,.227-2.825Q.369,102.17.366,52.9q0-16.453,0-32.907c0-1.811.411-2.19,2.159-1.86a4.869,4.869,0,0,0,1.845-.1,90.351,90.351,0,0,1,9.39-1c5.3-.444,10.61-.761,15.919-1.085,1.71-.1,3.422-.157,5.134-.277,5.173-.361,10.36-.516,15.532-.888,4.137-.3,8.277-.54,12.413-.826,5.622-.389,11.245-.743,16.87-1.1q6.546-.409,13.093-.823c4.318-.266,8.638-.524,12.954-.82,5.621-.386,11.244-.738,16.866-1.1,5.4-.348,10.789-.794,16.193-1.084,5.762-.309,11.514-.79,17.278-1.1,4.231-.231,8.456-.585,12.689-.821,5.671-.316,11.335-.766,17.007-1.1,4.185-.248,8.367-.561,12.553-.825,5.669-.358,11.342-.678,17.009-1.084,4.183-.3,8.366-.579,12.554-.8,6.078-.323,12.157-.652,18.226-1.109,5.26-.4,10.517-.807,15.785-1.094C267.37.787,272.9.4,278.436.009a4.028,4.028,0,0,1,2.673.939c2.186,1.463,4.154,3.2,6.272,4.735a4.386,4.386,0,0,1,2.081,3.976c-.113,4.834-.243,9.683.009,14.506.412,7.885-.037,15.77.25,23.646.5,13.722-.074,27.45.307,41.165.218,7.84-.1,15.681.261,23.506.349,7.658-.059,15.315.26,22.96.294,7.063.149,14.122.225,21.182,0,.137-.05.3.009.407,1.248,2.222-.518,3.513-1.669,4.772a49.144,49.144,0,0,0-4.786,5.757c-1.344,2.021-3.2,2.212-5.05,2.051-2.25-.2-4.5-.111-6.755-.345-3.272-.34-6.588-.236-9.884-.355-7.631-.275-15.262-.547-22.892-.865-5.464-.228-10.926-.522-16.388-.8-7.537-.382-15.065-.942-22.614-1.118-3.432-.08-6.86-.334-10.29-.494a1.942,1.942,0,0,0-1.218.123c1.325,3.707,3.109,7.208,4.69,10.8q9.145,20.763,18.324,41.514,5.37,12.14,10.786,24.258c.9,2.025.695,1.864-.532,3.56-1.868,2.581-4.269,2.161-6.8,1.839-3.119-.4-6.25-.708-9.376-1.055-1.7-.189-3.4-.349-5.09-.578a1.6,1.6,0,0,1-1.349-1.087c-4.086-9.367-8.649-18.509-12.966-27.767a1.382,1.382,0,0,0-1.4-.923c-6.184-.341-12.368-.707-18.532-1.352-2.067-.217-4.146-.313-6.214-.516-.551-.054-.74.078-.725.624a64.769,64.769,0,0,0,.221,7.1c.266,1.933-1.028,3.116-1.534,4.662-.08.248-.419.3-.717.243-2.917-.532-5.869-.246-8.8-.361-1.155-.045-1.581-.44-1.7-1.69-.325-3.426-.9-6.827-1.314-10.245-.136-1.118-.64-1.465-1.746-1.531-6.538-.389-13.07-.873-19.606-1.3-4.959-.327-9.922-.6-14.879-.951-.786-.056-.984.368-1.248.922-3.416,7.164-7.08,14.22-10.175,21.521-1.642,3.872-4.357,5.332-8.075,5.852a7.987,7.987,0,0,0-3.107.885c-.8.477-1.6.043-2.381-.059-3.8-.5-7.595-1.1-11.344-1.932a4.954,4.954,0,0,1-1.145-.381c-.281-.142-.546-.433-.293-.776,2.163-2.933,3.558-6.295,5.171-9.523q15.061-30.138,29.755-60.459C107.974,165.313,108.873,163.608,109.748,161.885ZM7.92,138.834c-1.325.723-2.729.507-4.1.5-.721,0-1.041.135-1.033.961q.059,6.159,0,12.318c-.007.766.205,1.009.984,1.012,2.3.008,4.607.13,6.9.184,6.825.159,13.637.534,20.453.857,5.868.278,11.739.473,17.6.836,5.185.321,10.372.64,15.563.8,6.008.19,12.007.543,18.01.824,5.823.272,11.647.522,17.469.827,6.905.362,13.821.535,20.726.912,2.123.116,4.246.159,6.367.268,6.318.327,12.631.75,18.951,1.01,5.556.229,11.107.509,16.659.809,8.26.446,16.528.74,24.791,1.145,6.5.318,12.993.743,19.493,1.052,5.374.256,10.752.408,16.128.614,2.4.092,4.79.176,7.182.313,7.308.418,14.613.874,21.921,1.286,3.968.224,7.949.275,11.9.629,1.9.17,3.79.144,5.681.273,3.286.223,6.58.32,9.869.489.626.032.71-.271.758-.815.116-1.334-.277-2.619-.283-3.938-.159-35.484.264-70.968-.24-106.452-.244-17.22.17-34.445-.267-51.666-.024-.972-.264-1.221-1.212-1.159-6.164.407-12.338.694-18.5,1.176-1.579.124-3.155.136-4.73.238-5.531.356-11.062.723-16.593,1.07-2.97.186-5.931.468-8.906.612-4.905.238-9.8.7-14.7,1.02-3.555.231-7.121.322-10.674.586-5.576.415-11.147.87-16.735,1.113-1.573.068-3.152.161-4.727.264-4.991.328-9.977.724-14.968,1.049-3.511.229-7.029.345-10.539.583-6.16.417-12.314.9-18.473,1.33-4.362.3-8.726.565-13.092.815-5.222.3-10.451.5-15.668.884-1.667.121-3.334.153-5,.267-4.762.327-9.52.728-14.284,1.048-3.464.233-6.937.348-10.4.58-4.854.325-9.7.766-14.558,1.05-4.183.244-8.363.568-12.546.789-5.807.308-11.605.717-17.4,1.142-3.954.291-7.908.621-11.869.789-6.445.275-12.874.937-19.334.862-.317,0-.636.017-.951-.006-.47-.036-.54.112-.524.61.144,4.506-.037,9.008-.209,13.511C2.727,36.57,2.8,39.037,2.8,41.5c0,1.98.061,2.084,2.057,1.716A19.715,19.715,0,0,1,9.3,43.055c-.316.7-.832.435-1.235.485-1.519.189-3.04.356-4.561.535-.295.035-.682-.045-.679.444,0,.522.42.375.7.4.947.071,1.911.035,2.841.2.742.13,1.55-.27,2.367.242a12.075,12.075,0,0,1-4.706.349c-.9-.013-1.257.151-1.244,1.165q.084,6.569,0,13.138c-.012.974.321,1.191,1.217,1.264,1.9.155,3.835-.155,5.77.447a2.833,2.833,0,0,1-2.4.339c-1.084-.157-2.17-.077-3.245-.188s-1.347.276-1.34,1.347c.046,7.572.063,15.146-.01,22.719-.013,1.375.309,1.876,1.7,1.715a2.743,2.743,0,0,1,2.264.365,13.587,13.587,0,0,1-3,.151c-.7-.041-.941.162-.939.9q.032,15.534,0,31.068c0,.608.138.919.776.976,1.477.132,2.949.3,4.424.459a3.4,3.4,0,0,1,2.3.613,46,46,0,0,1-6.241-.286c-.692-.135-1.289-.23-1.275.916.062,4.927.044,9.854.009,14.781-.006.813.293.967,1.019.981C5.179,138.6,6.549,138.741,7.92,138.834ZM200.209,240.6c.376.774.658,1.242.839,1.747a3.2,3.2,0,0,0,3.307,2.544c4.134.189,8.275.433,12.409.7,1.052.069.992-.313.617-1.067-5.722-11.5-10.6-23.4-15.951-35.076q-9.963-21.739-19.87-43.5a1.191,1.191,0,0,0-1.265-.873c-3.211.014-6.409-.277-9.612-.492-2.144-.144-4.3.011-6.606-.3.285.616.477,1.065.695,1.5,1.594,3.178,1.584,3.043,5.2,2.7a28.572,28.572,0,0,1,6.561-.309l.039.337-9.95.988a14.374,14.374,0,0,1,.95,2.014c.322,1.121,1,1.333,2.039,1.136a26.255,26.255,0,0,1,4.742-.137c.275,0,.543.036.607.432-2.075.518-4.2.3-6.468.395a20.579,20.579,0,0,1,.991,2.194A1.787,1.787,0,0,0,171.6,176.9c1.974-.1,3.956-.028,5.935-.028l.029.338c-2.251.558-4.675-.189-7,.627.779,1.65,1.537,3.2,2.237,4.767.348.783.6,1.605,1.888,1.563-1.2.363-.777.968-.43,1.427.427.565.177,1.771,1.453,1.576,1.646-.253,3.3-.509,4.952-.66a5.018,5.018,0,0,1,3.054.328c-3.012.347-5.662.515-8.318,1.089.132.313.228.567.343.812,4.149,8.83,8.327,17.647,12.426,26.5.729,1.574,1.382,2.94,3.456,2.458.1-.024.237.081.335.118-.289.454-.591.326-.825.4-.43.143-1.262-.4-1.227.5.028.728.531,1.172,1.409,1.088a4.324,4.324,0,0,1,2.063.127c-.788.685-1.765.309-2.674.592.952,2.042,1.881,3.955,2.729,5.9.252.578.639.535,1.087.535,1.539,0,3.078-.011,4.617.014.458.008,1.012-.184,1.36.474-2.12.181-4.217-.083-6.437.263,1.268,2.714,2.48,5.293,3.673,7.881.234.507.651.374,1.039.408q3.538.312,7.075.63l0,.365c-2.445.382-4.905-.471-7.351-.2,1.21,3.308.906,3.115,4.12,3.316.538.034,1.157-.229,1.828.485ZM93.468,213.166c-1.936,0-3.881.1-5.806-.05-.735-.057-1.058.033-1.35.671-.6,1.321-1.268,2.612-1.892,3.923-.967,2.03-1.921,4.066-2.924,6.191a24.461,24.461,0,0,1,5.68.708,27.986,27.986,0,0,1-4.388.046c-1.8-.191-1.788-.289-2.289,1.657,1.861.443,3.847.2,5.834.932a1.708,1.708,0,0,1-1.489.225,23.89,23.89,0,0,0-4.046-.262,1.068,1.068,0,0,0-1.258.744c-.333.83-.739,1.629-1.148,2.514l6.738.509-.029.372c-2,0-4.013.062-6.014-.028a1.482,1.482,0,0,0-1.682,1.143,32.463,32.463,0,0,1-1.383,3.111c-.435.863-.417,1.216.72,1.266a84.355,84.355,0,0,1,9.709,1.007c.834.134,1.181-.153,1.524-.879,2.055-4.351,4.112-8.7,6.263-13.006q14.808-29.613,29.659-59.2a7.442,7.442,0,0,0,1.022-2.709c-2.97,0-5.816.05-8.659-.021-1.351-.034-2.7-.29-4.057-.227-.628.029-1.7,1.248-1.541,1.879.195.761.9.344,1.355.376,1.943.132,3.891.192,5.929.283-.429.658-.973.468-1.434.474a41.88,41.88,0,0,1-4.885-.028c-1.489-.154-1.98.6-2.282,1.905h10.629c-.434.737-1.051.591-1.6.592-2.852.009-5.7.028-8.556-.013a1.244,1.244,0,0,0-1.318.851c-1.481,3.11-3.036,6.185-4.514,9.3a15.354,15.354,0,0,0-1.5,3.433H110.1a1.746,1.746,0,0,1-1.369.395c-1.947.009-3.894,0-5.84.008-.686,0-1.869,1.258-1.67,1.881.223.7.922.32,1.4.341,2.57.113,5.142.168,7.714.251.155.005.379-.015.344.3-.329.448-.821.222-1.231.226-2.445.024-4.892.072-7.333-.016a1.968,1.968,0,0,0-2.152,1.325c-2.26,4.806-4.611,9.568-6.906,14.357-.224.467-.622.9-.521,1.553a39.294,39.294,0,0,1,4.321.195c1.358.268,2.832-.06,4.08.852a72.347,72.347,0,0,0-7.388-.19c-1.936-.011-2.055.087-2.524,2.3h5.667l0,.441c-1.323,0-2.647,0-3.971,0-1.415,0-2.619.284-3.1,1.894a10.794,10.794,0,0,1-.94,1.962c-.387.715-.419.993.593,1.149a16.877,16.877,0,0,1,3.688.485,7.058,7.058,0,0,1-3.605.189c-1.543-.343-1.992.363-2.2,1.583C89.207,213.013,91.383,212.538,93.468,213.166Zm11.071-4.679c26.887,1.878,53.645,3.876,80.586,4.974-1.109-2.32-2.183-4.516-3.2-6.738a1.267,1.267,0,0,0-1.129-.824c-4.362-.378-8.722-.812-13.091-1.092-4.007-.257-7.99-.755-12.013-.9-4.623-.167-9.2-1.123-13.855-1.069-1.531.017-3.066-.189-4.6-.306-4.456-.339-8.91-.7-13.366-1.024-4.808-.353-9.628-.559-14.406-1.243-.47-.067-.757-.084-.984.388-.6,1.25-1.234,2.484-1.926,3.869a58.862,58.862,0,0,1,9.39.626,4.133,4.133,0,0,1-1.364.195c-2.446.177-4.863-.377-7.3-.277-.476.019-.987-.127-1.273.5C105.557,206.546,105.041,207.5,104.539,208.487Zm12.239-13.3c3.211.291,6.241.562,9.271.841,2.816.259,5.629.548,8.446.783,2.688.224,5.38.4,8.071.583.471.032.952.178.833-.718-.508-3.826-1-7.651-1.635-11.46-1.172-7.081-2.541-14.134-3.109-21.3-.046-.583-.216-.723-.766-.816-1.44-.243-2.89-.118-4.327-.241a1.513,1.513,0,0,0-1.676,1q-5.831,12.048-11.68,24.087C119.067,190.3,117.968,192.674,116.778,195.191Zm61.976,5.18a1.1,1.1,0,0,0,0-.342c-5.436-11.736-11.147-23.343-16.346-35.191-.16-.364-.322-.585-.766-.6a25.278,25.278,0,0,1-2.562-.239c-1.161-.171-1.549.188-1.485,1.453.355,6.917.606,13.839.909,20.758.166,3.776.371,7.551.544,11.327.034.735.088,1.272,1.086,1.307,1.61.057,3.211.325,4.819.474,3,.278,5.995.552,8.995.791C175.545,200.232,177.151,200.285,178.754,200.371ZM150.583,184.63l-.009.41c-2.108,0-4.217,0-6.326,0-.367,0-.739-.1-.721.494.013.421.1.7.586.724.947.052,1.892.16,2.839.186a7.445,7.445,0,0,1,2.641.489,1.544,1.544,0,0,1-1.342.242,19.287,19.287,0,0,0-3.647-.182c-.684-.055-.893.232-.786.869.493,2.958.992,5.915,1.465,8.876.109.683.378.938,1.122.982,2.816.166,5.625.439,8.487.675,0-.839.036-1.655-.007-2.467-.138-2.593-.307-5.185-.46-7.777-.462-7.823-.934-15.646-1.365-23.47-.045-.817-.382-.968-1.089-.967q-1.828,0-3.657-.154c-2.43-.209-4.873-.269-7.311-.367-.26-.011-.686-.186-.727.334-.031.408.279.547.591.623s.622.085.934.129c1.547.218,3.095.439,4.764.676a1.425,1.425,0,0,1-1.511.393c-1.161-.11-2.313-.317-3.472-.464-.331-.042-.844-.252-.937.17a.953.953,0,0,0,.569,1.226,3.928,3.928,0,0,0,.773.182,18.255,18.255,0,0,1,3.212.343c.96.279,2.008-.045,3.065.492a13.274,13.274,0,0,1-5.6-.125c-1.673-.362-1.869-.157-1.509,1.484a.916.916,0,0,0,.969.864c1.216.095,2.429.191,3.648.26,2.108.118,4.208.395,6.312.6a2.365,2.365,0,0,1-2.038.4c-2.386-.162-4.781-.25-7.155-.516-1.42-.159-1.384.514-1.233,1.54.549,3.733,1.111,7.465,1.546,11.213.118,1.022.434,1.255,1.4,1.267C146.6,184.314,148.591,184.506,150.583,184.63Zm135.583-76.964c-.836,1.067-2.079.922-3.155,1.241-1.307.387-.5,1.351-.616,2.022-.138.772.6.527.959.487,1.427-.158,2.849-.375,4.268-.6.675-.106,1.092-.382,1.006-1.242a79.947,79.947,0,0,1-.278-9.131c.008-.54-.037-.826-.75-.661-1.264.29-2.561.43-3.845.63-.3.046-.695.213-.776-.236-.077-.425.3-.471.63-.508,1.207-.136,2.409-.312,3.618-.412.875-.072,1.173-.407,1.147-1.353-.2-6.873.046-13.747-.239-20.628-.338-8.142.138-16.307-.316-24.457-.113-2.033-.016-2.031-1.966-1.924a11.339,11.339,0,0,1-2.034.023c-1.172-.149-1.5.23-1.5,1.466q.071,27.228.034,54.457a4.157,4.157,0,0,1,0,.547c-.09.657.136.913.82.778C284.164,107.969,285.167,107.83,286.166,107.666ZM180.254,203.413c-.218-.668-.235-1.288-1.024-1.367-2.627-.265-5.251-.566-7.881-.81-2.417-.224-4.857-.271-7.257-.61-4.868-.687-9.787-.757-14.657-1.349-1.844-.224-3.724.021-5.511-.359a50.907,50.907,0,0,0-5.315-.678c-2.595-.272-5.21-.348-7.805-.615-5.093-.525-10.183-1.086-15.3-1.3-1-.041-1.19-.259-.745-1.171q3.72-7.639,7.39-15.3,3.928-8.151,7.849-16.306c.156-.324.608-.813-.156-.884-1.035-.1-1.977-.265-2.66,1.1-5.006,10.038-10.125,20.019-15.207,30.019-.727,1.428-1.448,2.86-2.189,4.326C133.382,199.778,156.74,201.938,180.254,203.413Zm4.078-37.918c.165.4.312.774.477,1.144,3.721,8.392,7.417,16.795,11.173,25.171q9.671,21.566,19.39,43.108c1.41,3.144,2.674,6.355,4.053,9.515.112.258.013,1.123.813.649a1.935,1.935,0,0,0,.907-2.825c-.539-1.24-1.052-2.492-1.611-3.723q-8.778-19.312-17.568-38.62-7.453-16.35-14.926-32.69C186.519,166.081,186.15,164.852,184.332,165.5Zm101.446-34.851.133.333a7.971,7.971,0,0,1-2.74,1.194c-1.379.356-.84,1.423-.745,2.1.143,1.015.88.157,1.227.064,1.379-.368,2.7-.94,4.073-1.347.733-.217.928-.589.912-1.334-.052-2.368-.02-4.737-.021-7.106,0-4.146,0-8.291-.023-12.437,0-.344.3-1.075-.557-.863-1.568.387-3.162.6-4.754.833-.457.068-.947.123-.943.873.029,6.013.019,12.027.014,18.04,0,.5.053.765.68.519C283.925,131.162,284.861,130.928,285.778,130.644Zm2.717,2.677c-1.7.612-3.359,1.274-5.059,1.79a1.32,1.32,0,0,0-1.095,1.54c.049,3.192-.018,6.386.036,9.578.025,1.465.229,2.927.35,4.375,1.053.044,1.748-.982,2.839-.737-.9,1.253-3.76.786-2.781,3.506.5-.069.85-.678,1.835-.351-2.061.718-2.167,2.205-2.131,3.878,1.977-.8,3.905-1.607,5.859-2.348.662-.251.536-.734.541-1.21.065-6.514-.068-13.025-.282-19.535A3.206,3.206,0,0,0,288.5,133.321ZM89.423,238.027c1.806-.566,3.388-1.058,4.968-1.558a1.322,1.322,0,0,0,.8-.86c2.377-5.5,5.109-10.827,7.735-16.206,1.382-2.829,2.786-5.648,4.218-8.549-.743-.118-1.33-.176-1.9-.31-1.3-.305-1.962.183-2.533,1.435-1.409,3.094-3.008,6.1-4.561,9.128C95.29,226.677,92.411,232.236,89.423,238.027Zm65.412-18.619-.044.357c-1.678-.1-3.357-.2-5.035-.315-.425-.028-1.069-.532-1.052.405.011.613-.212,1.566.755,1.6,1.935.069,3.839.361,5.753.585.715.083.935-.169.87-.914-.172-1.994-.283-3.994-.376-5.994-.036-.8-.338-1.055-1.152-1.085-1.845-.068-3.683-.293-5.526-.421-.422-.03-1.022-.407-1.207.341-.239.963.314,2.28.967,2.316a33.728,33.728,0,0,0,4.179.3c.285-.02.753-.222.863.523-1.553,0-3.072-.02-4.59.016-.335.008-1.022-.377-.887.522.082.545-.059,1.081.888,1.157A33.19,33.19,0,0,1,154.835,219.408ZM282.357,30.833c.084.932-.489,2.141,1.091,2.286a22.075,22.075,0,0,1,3.173.543c.721.175.947-.151.92-.867-.045-1.23-.011-2.463-.01-3.694,0-2.952,0-2.952-2.835-3.344-2.347-.324-2.24-.318-2.385,2.136-.095,1.6.188,2.6,1.994,2.6.148,0,.449.125.3.516Zm4.039,17.2-.027.378a7.7,7.7,0,0,1-2.77-.127c-.378-.108-.952-.291-1.115.088a2.687,2.687,0,0,0-.072,1.588c.145.6.685.14,1.026.157,1.171.059,2.347-.014,3.519.029.649.023.872-.2.856-.85-.036-1.455-.02-2.911-.007-4.367,0-.5-.043-.79-.694-.874-1.321-.17-2.618-.53-3.933-.763-.478-.084-1.006-.138-1.089.629a27.694,27.694,0,0,0,.31,3.38c0,.454.465.309.755.344C284.235,47.782,285.316,47.908,286.4,48.037Zm1.135-29.361c0-2.907,0-2.907-2.62-3.6-2.562-.682-2.562-.682-2.563,1.954,0,2.688,0,2.688,2.568,3.528C287.531,21.409,287.531,21.409,287.531,18.676Zm.263,22.349c0-2.489,0-2.489-2.451-3.031q-.521-.115-1.046-.206c-1.945-.332-1.946-.331-1.946,1.684,0,2.972,0,2.972,2.867,3.568C287.8,43.576,287.8,43.576,287.794,41.025Zm-.216-29.557a10.53,10.53,0,0,1-.322-3.235.769.769,0,0,0-.293-.717C285.481,6.455,284,5.4,282.354,4.223c0,1.88.014,3.551-.009,5.22-.007.518.2.631.682.746C284.5,10.537,285.938,11,287.578,11.468Zm-5.215,153.677a51.374,51.374,0,0,1,6.053-6.065,3.2,3.2,0,0,0,.5-.635c.2-.274.32-.562.049-.861-.252-.278-.469-.072-.714.042-1.75.81-3.506,1.6-5.26,2.406a.916.916,0,0,0-.643.925C282.38,162.353,282.363,163.749,282.363,165.145Zm-.012-142.626c0,.5.029,1-.008,1.5a.737.737,0,0,0,.677.848c1.268.231,2.546.41,3.819.615.534.086.66-.149.706-.668.226-2.579.152-2.715-2.3-3.439-.3-.088-.6-.174-.892-.28C282.349,20.371,282.35,20.37,282.351,22.519ZM149.041,222.061c.08.519.158.918.2,1.32.107,1.032.488,1.539,1.692,1.452,1.469-.107,2.96.124,4.443.139.349,0,1.118.4,1.028-.33-.084-.682.4-1.85-.812-2C153.467,222.377,151.324,222.255,149.041,222.061ZM283.3,33.738c-.8-.153-.929.143-.964.713-.124,2.048-.149,2.054,1.952,2.571.948.234,1.914.4,2.853.662.5.143.761.015.6-.466a7.839,7.839,0,0,1-.214-2.287c-.011-.31.038-.636-.431-.692C285.764,34.079,284.437,33.89,283.3,33.738ZM155.7,168.324c-.012,10.086.441,20.122,1.14,30.144l.54-.029ZM287.523,13.417c.385-1.155-.449-1.442-1.446-1.63-.608-.115-1.21-.278-1.805-.453-2.054-.606-2.04-.6-1.942,1.577a.814.814,0,0,0,.719.9c.983.268,1.95.594,2.919.913C287.525,15.237,287.523,15.243,287.523,13.417ZM282.462,159.54a54.977,54.977,0,0,1,5.145-2.163c1.381-.433,1.457-1.194,1.167-2.388-1.668.7-3.236,1.483-4.88,2.024C282.579,157.446,282.044,158.13,282.462,159.54ZM158.1,214.667v9.387l.5-.011C158.922,220.9,158.182,217.791,158.1,214.667ZM262.729,86.354c0,13.967.017,30.481-.011,46.995-.008,5.015-.128,10.03-.226,15.044a23.091,23.091,0,0,1-.275,3.261c-.127.784-.42,1.356-1.535,1.224a59.024,59.024,0,0,0-6.488-.359c-4.249-.032-8.494-.254-12.74-.365-5.554-.145-11.11-.3-16.662-.522q-10.7-.425-21.4-.831c-4.513-.17-9.025-.376-13.539-.537-5.055-.181-10.11-.379-15.166-.561-4.331-.156-8.661-.361-12.992-.533-4.783-.189-9.566-.364-14.348-.554-4.6-.183-9.2-.378-13.8-.544-4.691-.169-9.382-.363-14.074-.548-4.555-.18-9.109-.373-13.665-.544q-7.782-.292-15.565-.555c-4.646-.161-9.29-.373-13.936-.541q-7.24-.262-14.479-.556-7.442-.291-14.885-.538c-5.46-.18-10.918-.411-16.381-.551-4.82-.124-9.635-.485-14.449-.8a24.753,24.753,0,0,1-3.723-.578c-.605-.134-1.34-.447-.568-1.29a.738.738,0,0,0,.175-.619c-.562-8.116.04-16.228.105-24.34.1-13,.354-25.994.564-38.991Q12.983,58,13.34,38.37c.025-1.5.022-3.006.029-4.508a1.654,1.654,0,0,1,1.544-1.851,36.08,36.08,0,0,1,4.423-.448c4.89-.4,9.8-.537,14.7-.908,3.994-.3,7.993-.521,11.985-.825,5.206-.4,10.416-.718,15.622-1.095q8.016-.581,16.035-1.1,8.634-.558,17.268-1.1,8.7-.542,17.409-1.094c5.94-.369,11.878-.749,17.82-1.093,4.59-.265,9.184-.5,13.77-.816,5.667-.389,11.337-.714,17-1.092,5.76-.384,11.521-.736,17.282-1.1,4.547-.288,9.1-.508,13.643-.816s9.093-.539,13.639-.822q6.482-.4,12.963-.817c4.728-.3,9.453-.62,14.187-.839,4.232-.2,8.457-.58,12.691-.8,4.772-.253,9.534-.684,14.3-1.029a7.425,7.425,0,0,1,1.22.027c1.808.172,2.395.732,2.389,2.575-.012,3.236-.165,6.472-.18,9.708-.044,9.9.1,19.8-.12,29.7C262.768,66.75,262.911,75.278,262.729,86.354Zm-38.163,58.484c-1.31,0-2.622-.044-3.93.012a13.478,13.478,0,0,0-3.715.568c-.832.278-.97,1-.915,1.776.052.718.431,1.283,1.15,1.292,2.84.033,5.665.693,8.494.4a78.057,78.057,0,0,1,8.118-.194c1.406,0,2.787-.178,4.176-.315a1.726,1.726,0,0,0,1.741-1.732c.037-1.061-.849-1.378-1.637-1.5a29.557,29.557,0,0,0-7.8-.511A54.227,54.227,0,0,1,224.566,144.838Zm-34.824-6a1.518,1.518,0,0,0-1.462.877,1.2,1.2,0,0,0,.545,1.527,5.974,5.974,0,0,0,1.306.717Q197.906,145,205.693,148a3.712,3.712,0,0,0,1.712.363,1.337,1.337,0,0,0,1.225-.933,1.046,1.046,0,0,0-.557-1.269,20.55,20.55,0,0,0-2.382-1.294c-4.721-2.093-9.6-3.771-14.412-5.635A12.935,12.935,0,0,0,189.742,138.836ZM78,33.87a1.606,1.606,0,0,0-1.522-.443c-7.181.2-14.354.582-21.527.995-5.274.3-10.555.5-15.83.853-6.3.421-12.626.571-18.9,1.419-.395.054-1-.064-1,.43,0,.521.611.39,1,.394,2.037.026,4.039-.4,6.062-.515,5.181-.3,10.358-.67,15.534-1.052,6.936-.512,13.888-.8,20.834-1.162,3.833-.2,7.673-.316,11.5-.6C75.335,34.1,76.544,34.018,78,33.87ZM16.842,136.381c.645.733,1.224.5,1.726.506,9.5.017,19-.134,28.5.058,10.043.2,20.08-.074,30.119-.049a4.165,4.165,0,0,0,2.723-.609C59.047,136.622,38.038,135.547,16.842,136.381Zm-.518-10.806a2.153,2.153,0,0,0,1.781.337c3.648-.344,7.307-.376,10.965-.482q13.751-.4,27.5-.856c1.941-.062,3.88-.184,5.82-.27a.831.831,0,0,0,.817-.472C47.536,124.333,31.91,124.255,16.324,125.575Zm208.2,8.825c10.419.543,20.855.678,31.224,1.916.166.02.32-.139.243-.405C245.6,133.7,235.054,134.079,224.52,134.4ZM51.261,59.38a237.2,237.2,0,0,0-29.955.872l.032.759C31.286,60.01,41.276,60.076,51.261,59.38ZM220.224,44.814c9.437-1.2,18.978-1.237,28.389-2.629C245.3,41.515,221.331,43.74,220.224,44.814Zm-203.378,86.7a145.6,145.6,0,0,0,24.3-1.7C33.039,130.295,24.948,130.917,16.846,131.514ZM30.6,69.256l.025.582A170.837,170.837,0,0,0,50.29,68.723l-.023-.393ZM99.149,33.044c-.058-.046-.118-.135-.179-.135q-6.919-.043-13.84-.074a2.466,2.466,0,0,0-.271.018c-.291.032-.534.136-.553.476a.539.539,0,0,0,.558.624,6.521,6.521,0,0,0,.813.041q6.5-.288,12.992-.59C98.893,33.394,99.125,33.356,99.149,33.044ZM244.325,51.859c-3.9.335-7.667.655-11.432.984-.459.04-1.164-.167-1.165.562,0,.744.707.54,1.16.538a50.918,50.918,0,0,0,8.717-1.031C242.525,52.749,243.553,52.788,244.325,51.859Zm1.382-14.337c-3.843,0-7.543-.006-11.243.008-.411,0-1.1-.211-1.117.386s.69.428,1.1.486a43.725,43.725,0,0,0,9.319-.128A2.355,2.355,0,0,0,245.707,37.522ZM19.951,41.269l.054.68c5.671-.213,11.344-.383,16.989-1.074C31.3,40.829,25.622,40.929,19.951,41.269ZM21.1,84.429c1.549.978,12.92.871,14.158,0ZM241.967,129.7a61.54,61.54,0,0,0,13.2,1.127A70.723,70.723,0,0,0,241.967,129.7Zm-225.48-8.612-.015.572c5.059.306,10.105-.195,15.158-.221l-.006-.351Zm4.887-55.56a97.325,97.325,0,0,0,13.8-1.08C30.571,64.753,25.92,64.484,21.374,65.525Zm16.253,7.122.04.488L49.7,72.376l-.029-.4C45.649,72.128,41.6,71.746,37.627,72.647Zm58.54,64.073H86.461l.008.353C89.721,137.893,92.942,137.163,96.167,136.72ZM22.749,91.2c4.142.191,8.288.484,12.373-.482C31,90.978,26.866,90.894,22.749,91.2Zm226.024-43.96a18.8,18.8,0,0,1-3.616.131c-1.442.014-2.885,0-4.327.01-.431,0-1.044-.084-1.01.546.025.461.591.259.91.264a29.93,29.93,0,0,0,4.321-.043C246.3,47.985,247.723,48.313,248.773,47.241Zm-3.554,91.733c3.3.553,6.559.326,9.8.547.419.029,1.122.219,1.158-.324.046-.7-.681-.352-1.048-.366-2.885-.1-5.778.146-8.66-.191A1.414,1.414,0,0,0,245.219,138.974ZM22.466,113.891c3.484-.014,6.984.261,10.426-.569C29.428,113.727,25.9,112.96,22.466,113.891Zm10.462-4.45H22.1l.016.355A81.277,81.277,0,0,0,32.928,109.441ZM66.459,88.379c1.426.885,7.52.783,8.768-.117C72.263,88.864,69.487,87.81,66.459,88.379ZM27.949,44.467c-2.6.63-5.348-.271-7.906.762A21.117,21.117,0,0,0,27.949,44.467Zm-2.034,9.791c-1.277.254-2.6.072-3.83.374-.586.143-1.823-.272-1.7.686.083.647,1.185.014,1.77-.063C23.423,55.087,24.8,55.176,25.915,54.258ZM67.777,93.566c1.994.9,5.171.793,6.536-.355C71.941,93.991,69.849,93.471,67.777,93.566Zm-18.6-53.631c-1.748.288-3.616-.28-5.474.641A12.532,12.532,0,0,0,49.177,39.935ZM54.338,129.8c-1.378.334-2.8-.381-4.174.057A4.609,4.609,0,0,0,54.338,129.8Zm16.8-7.1.024.389c1.032.122,2.078.436,3.107-.389ZM36.853,44.423l.033.4a10.965,10.965,0,0,0,3.1-.3l-.039-.355ZM187.337,155.251c-3.6-.188-7.2-.459-10.811-.533-3.381-.069-6.749-.279-10.121-.515q-9.5-.665-19.014-1.128c-2.968-.143-5.93-.4-8.886-.633-5.117-.4-10.238-.712-15.361-.971-3.567-.18-7.136.04-10.707.165-5.061.178-10.133.047-15.2.05a6.8,6.8,0,0,0-.948.026c-.292.042-.7.088-.649.491.04.339.409.269.674.27.226,0,.453,0,.679.008,7.646.217,15.285-.224,22.928-.276,2.808-.02,5.594.278,8.4.327,2.965.053,5.932.279,8.889.542,4.973.444,9.951.8,14.935,1.108,2.072.128,4.147.12,6.213.27,5.974.432,11.941.978,17.935,1.066,1.669.025,3.332.016,5,.161,2.139.184,4.305.044,6.519.044C187.7,155.256,187.5,155.26,187.337,155.251ZM128.953,18.938a82.282,82.282,0,0,0-9.616.332c-5.217.284-10.412.962-15.629,1.244-6.038.327-12.086.4-18.105,1.106-4.119.48-8.29.33-12.412.846-.393.049-1.018.009-.981.448.049.574.614.274.993.22.4-.057.811-.05,1.206-.127,2.637-.516,5.32-.143,7.976-.451,3.49-.406,7-.683,10.5-.893,3.247-.194,6.509-.142,9.752-.367,1.533-.107,3.068-.117,4.6-.246,5.7-.479,11.4-1.128,17.123-1.346,1.54-.058,3.074-.273,4.611-.416ZM37.406,148.532c1.729.131,3.457.362,5.187.377,11.02.1,22.047-.312,33.053.575a2,2,0,0,0,1.756-.479c-13.3-1.157-26.639-.792-39.975-.9ZM269.64,5.207C266,5.7,262.332,6.061,258.7,6.639c-3.73.594-7.481.954-11.235,1.3-4.575.419-9.161.709-13.732,1.164a4.679,4.679,0,0,0-3.253,1.151c2.491-.416,4.628-.622,6.767-.8,3.182-.269,6.351-.707,9.536-.924s6.366-.514,9.535-.9c3.867-.47,7.729-1,11.575-1.619,1.292-.209,2.771-.015,4.084-1.353C270.988,4.893,270.323,5.116,269.64,5.207ZM6.865,22.464c1.08.015,2.161.144,3.232.179,8,.258,15.993.053,23.979-.46a1.136,1.136,0,0,0,1.09-.681c-9.81.715-19.571.454-29.538.367A1.3,1.3,0,0,0,6.865,22.464ZM32.51,25.181,11.3,25.739l.014.541c7.063.1,14.115-.289,21.168-.625ZM8.174,147.517c4.907.006,9.81.106,14.7.577a2.274,2.274,0,0,0,1.982-.559c-6.2-.221-12.29-.843-18.727-.706A2.41,2.41,0,0,0,8.174,147.517ZM144.145,17.544c1.844,1.151,13.5-.583,15.557-2.311A79,79,0,0,1,144.145,17.544Zm-1.343-2.5c2.123.573,12.915-.754,14.459-1.825C152.244,14.1,147.476,14.184,142.8,15.041ZM25.764,149.878c-5,.53-9.756-.3-14.916-.081C12.923,150.807,24.35,150.843,25.764,149.878ZM43.908,24.547l.024.7c4.74-.488,9.511-.055,14.242-.786C53.424,24.628,48.65,24.12,43.908,24.547ZM265.316,156.355c4.215.216,8.42.988,12.641.286C273.741,156.75,269.532,155.82,265.316,156.355ZM270.6,8.584l-12.5,2.077.1.561c4.173-.65,8.358-1.233,12.472-2.225ZM79.307,152c-1.354.481-2.647-.059-3.974-.044-1.309.016-2.621-.05-3.927.018-1.243.064-2.548-.3-3.714.571H79.306ZM50.342,21.418c3.7-.112,7.415-.011,11.044-.918C57.7,20.781,53.976,20.57,50.342,21.418ZM80.952,19.1c-2.79.028-5.609-.571-8.349.476C75.365,19.2,78.206,19.871,80.952,19.1ZM3.156,90.921a12.074,12.074,0,0,0,6.525-.392H3.2Zm263.243,69.3c2.979.027,5.988.665,8.91-.421C272.351,160.188,269.349,159.682,266.4,160.222ZM277.624,25.648a23.7,23.7,0,0,0-7.093.71A16.77,16.77,0,0,0,277.624,25.648Zm-1.347,126.314h-6.553l0,.36a52.109,52.109,0,0,0,6.564.166ZM266.16,31.052a19.442,19.442,0,0,0,5.771-.992A11.7,11.7,0,0,0,266.16,31.052ZM3.852,34.8c-.23.042-.457.114-.427.4.009.09.177.247.247.234,1.516-.28,3.1-.34,4.417-1.406Zm1.779,24.09c-.23,0-.624-.12-.592.31.023.312.363.427.622.4,1.274-.152,2.579.056,3.846-.443A14.119,14.119,0,0,0,5.631,58.885Zm4.446,60.966a5.426,5.426,0,0,0-3.658-.242A4.127,4.127,0,0,0,10.077,119.851ZM269.952,15.029a10.353,10.353,0,0,0,4.445-.747l-.059-.358-4.428.723ZM8.984,137.669c-1.37-.137-2.7-.7-4.109-.309A5.324,5.324,0,0,0,8.984,137.669ZM4.062,66.005c-.278-.039-.614.04-.606.372a.511.511,0,0,0,.582.428,4.5,4.5,0,0,0,2.6-.389C5.781,66.277,4.923,66.126,4.062,66.005Zm1.31-9.049c1.337.546,2.279-.111,3.275-.33C7.627,56.512,6.553,56.153,5.372,56.956Zm.65,8.02a3.613,3.613,0,0,0,3.356-.5A6.337,6.337,0,0,0,6.022,64.976Zm3.216,53.246a4.491,4.491,0,0,0-2.517-.527A2.658,2.658,0,0,0,9.238,118.222ZM206.18,234.238c-1.487,0-2.975-.006-4.462.006-.213,0-.471.049-.509.328-.011.086.123.275.192.275,1.6.016,3.2.013,4.794.013Zm-26.727-49.9a7.108,7.108,0,0,0,3.942-.771C182.132,184.062,180.634,183.286,179.453,184.343Zm3.225-7.225a4.814,4.814,0,0,0-2.83-.027A3.548,3.548,0,0,0,182.678,177.118Zm28.449,63.193c-.772.147-1.508-.4-2.652.066C209.569,240.84,210.323,241.056,211.127,240.311ZM101.492,186.78c2.116.128,4.239.485,6.326-.262A12.283,12.283,0,0,0,101.492,186.78Zm-9.115,31.725a5.557,5.557,0,0,0-4.132-.216A8.991,8.991,0,0,0,92.377,218.505Zm22.241-49.276c-1.4,0-2.8-.005-4.2.006a.3.3,0,0,0-.321.346.344.344,0,0,0,.394.29c1.375-.057,2.749-.137,4.124-.21Zm-11.946,19.43a.306.306,0,0,0-.367.293.274.274,0,0,0,.348.293c1.009-.2,2.132.23,3.236-.67C104.656,188.234,103.674,188.77,102.672,188.659Zm9.8-16.741c-1.207.2-2.455-.124-3.637.334C110.072,172.394,111.351,172.773,112.473,171.918ZM91.026,219.505l-2.968.155C89.406,220.3,89.974,220.256,91.026,219.505Zm74.586-11.878c-10.422-.205-20.7-.363-30.973-.791C137.43,207.927,164.13,208.539,165.612,207.627Zm-32.815-.842c-4.4-.026-8.693-1.062-13.057-1.318C124.054,206.339,128.355,207.272,132.8,206.785Zm-16.83-4.062c-2.621-.4-5.238-.892-7.905-.286A32.841,32.841,0,0,0,115.967,202.723Zm1.862.261h5.254l0-.274h-5.266Zm28.1-10.169c-.315-.053-.7-.014-.7.421.007.368.375.313.633.326,1.669.085,3.338.185,5.008.238.787.025,1.628.22,2.28-.394C150.777,192.86,148.325,193.224,145.928,192.815Zm-.641-20.045c-.271,0-.562.031-.61.377a.316.316,0,0,0,.309.365c1.469-.068,2.97.222,4.648-.317A11.879,11.879,0,0,0,145.287,172.77Zm1.233,2.485c-.2-.047-.492-.04-.483.279,0,.143.156.388.268.405,1.049.157,2.082.65,3.549.155C148.517,175.754,147.522,175.491,146.52,175.255Z" fill="#151611"/>
</svg>
