<svg xmlns="http://www.w3.org/2000/svg" viewBox="0 0 166.699 219.908">
  <path d="M81.482,49.644C78.3,45.077,76.1,40.074,73,35.553c-1.03.84-2.306,1.376-2.981,2.709-.509,1-1.5.748-2.223.239a9.736,9.736,0,0,1-3.854-5.575,1.388,1.388,0,0,1,.926-1.862,5.938,5.938,0,0,0,2.122-1.348c2.242-1.754,4.495-3.494,6.728-5.261,1.964-1.554,2.378-1.557,4.172.263a9.412,9.412,0,0,1,1.342,1.729c1.612,2.659,1.452,3.313-1.065,5.093-.758.536-1.819,1.016-2.092,1.76-.252.683.707,1.508,1.168,2.241q3.322,5.289,6.732,10.523c.767,1.171,1.075,2.877,2.254,3.464,1.14.566,2.71.276,4.092.348a71.2,71.2,0,0,1,20.747,4.459,68.681,68.681,0,0,1,10.622,4.975,2.708,2.708,0,0,0,.554.114c-1.847-1.634-3.64-2.978-5.406-4.358-4.357-3.407-8.956-6.506-13.067-10.226a16,16,0,0,1-3.2-3.8,2.044,2.044,0,0,1,.137-2.752,29.2,29.2,0,0,1,7.716-7.14,28.73,28.73,0,0,1,11.143-3.776,37.22,37.22,0,0,1,17.371,2.2c.422.149.771.314,1.188-.144a4.691,4.691,0,0,1,5.236-1.531c1.2.4.983-.2.844-.923-.438-2.285-1.947-3.881-3.472-5.469-4.695-4.888-10.922-6.755-17.147-8.517-4.244-1.2-8.554-2.187-12.885-3.057a109.067,109.067,0,0,0-11.7-1.579c-6.318-.571-12.651-.98-18.99-1.116a88.946,88.946,0,0,0-12.279.863,104.267,104.267,0,0,0-21.13,4.689,68.631,68.631,0,0,0-15.08,6.837,30.435,30.435,0,0,0-5.707,4.5A15.071,15.071,0,0,0,22.93,29.38c.618.178,1.08-.24,1.561-.41a3.857,3.857,0,0,1,4.668,1.189c.49.6.873.569,1.536.348a38.258,38.258,0,0,1,14.316-2.214c8.22.467,15.48,3.215,21.165,9.422a21.187,21.187,0,0,1,1.57,2.017c.533.744.62,1.429-.434,1.809a1.264,1.264,0,0,0-.666.5c-2.534,3.762-6.124,6.484-9.4,9.521a62.85,62.85,0,0,1-10.48,8.132c-9.874,5.877-19.607,12-29.8,17.323A76.017,76.017,0,0,1,6.34,81.584c-2.2.75-2.981.446-3.952-1.658A26.335,26.335,0,0,1,.039,67.339C.5,58.2,4.48,50.642,10.347,43.913c.586-.672.837-1.258.4-2.008-1.285-2.207-.235-3.968,1.068-5.657a11,11,0,0,1,3.553-3.122c.536-.281.519-.573.413-1.153-.661-3.633-.169-6.91,2.482-9.83,6.305-6.942,14.316-11.171,22.711-14.9,6.5-2.886,13.443-3.96,20.308-5.453A89.654,89.654,0,0,1,80.682,0a181.9,181.9,0,0,1,22.563,1.73A118.806,118.806,0,0,1,132.38,9.083c5.51,2.2,10.825,4.869,15.158,9.077a15.169,15.169,0,0,1,4.692,7.706,6.892,6.892,0,0,1-1.034,6.043,19.7,19.7,0,0,1,4.771,3.951,5.446,5.446,0,0,1,1.543,4.889,23.831,23.831,0,0,1-.423,2.394,1.48,1.48,0,0,0,.38,1.34A41.884,41.884,0,0,1,166,63.1c.921,5.378,1.262,10.778-1.078,15.948-.324.716-.378,1.648-1.894,1.415a41.7,41.7,0,0,1-11.2-3.657,144.39,144.39,0,0,1-18.694-9.983A2.608,2.608,0,0,0,132,66.39c1.153,1.082,2.262,2.217,3.469,3.235a61.194,61.194,0,0,1,7.709,8.28,74.313,74.313,0,0,1,14.051,26.632,77.134,77.134,0,0,1,2.981,26.895,84.474,84.474,0,0,1-6.2,27.036,81.127,81.127,0,0,1-11.381,19.6q-2.128,2.66-4.44,5.155c-.307.33-.447.535-.158,1.005,4.153,6.756,7.965,13.72,12.45,20.273a1.661,1.661,0,0,0,1.716.879c2.611-.17,5.633,2.471,6.034,5.284.577,4.053-.944,7.232-4.89,8.813a6.5,6.5,0,0,1-8.734-5.85,6.053,6.053,0,0,1,.62-3.431c.411-.666-.152-.869-.457-1.183-3.783-3.883-7.836-7.48-11.835-11.134-1.592-1.456-3.161-2.94-4.685-4.467-.488-.488-.785-.462-1.3-.077a76.237,76.237,0,0,1-33.148,14.117,73.907,73.907,0,0,1-46.941-7.172,67.075,67.075,0,0,1-9.361-5.7,1.02,1.02,0,0,0-1.551.106Q29,200.831,22.022,206.923c-.85.742-1.811,1.355-2.711,2.04-.426.324-.82.664-.624,1.312.952,3.161-1.6,6.167-4.691,6.981-2.707.714-5.762-.24-7.009-2.166-2.663-4.115.592-8.013,3.984-8.815a4.187,4.187,0,0,1,3.2.291c.6.356.673-.087.876-.408,3.042-4.8,6.521-9.322,9.173-14.379a45.112,45.112,0,0,1,3.052-4.693.852.852,0,0,0-.086-1.318,77.118,77.118,0,0,1-14.1-20.613A79,79,0,0,1,5.82,138.764,79.918,79.918,0,0,1,17.3,88.719,78.608,78.608,0,0,1,44.044,61.855c1.005-.613,2.091-1.1,3.081-1.731a65.851,65.851,0,0,1,22.01-8.8,85.609,85.609,0,0,1,11.238-1.56C80.687,49.736,81,49.7,81.482,49.644ZM31.1,189.582l.036.036c-.539-.868-.988-1.219-1.785-.119a5,5,0,0,1-2.244,2.182,22.018,22.018,0,0,1,1.7-2.308c.952-1.186.95-1.187-.334-2.107-1.85,2.864-3.7,5.72-5.339,8.718a102.761,102.761,0,0,1-7.78,11.778c-.205.277-.345.673-.844.486-1.723-.646-3.307,0-4.724.8a3.354,3.354,0,0,0-.094,5.9,5.084,5.084,0,0,0,6.061-.845,3.329,3.329,0,0,0,1-2.542c-.017-.215.105-.541-.254-.577-1.219-.119-.767-.608-.276-1.14,1.3-1.409,2.869-2.518,4.265-3.814,4.807-4.464,9.633-8.9,14.9-13.044a3.837,3.837,0,0,1-1.26-.977c-.6-.548-1.009-.61-1.7.114-1.594,1.678-3.378,3.175-4.729,4.419a68.388,68.388,0,0,1,5.114-5.569ZM152.359,41.655l.012,0a20.889,20.889,0,0,0-3.007-2.849c-7.969-6.737-17.034-10.324-27.6-9.461a28.652,28.652,0,0,0-18.123,8.272c-.512.5-.483.823-.02,1.274a31.564,31.564,0,0,0,3.506,3.3,1.2,1.2,0,0,1-1.368-.443c-.786-.766-1.523-1.586-2.354-2.3-.262-.224-.445-1.14-1.04-.449-.408.473-1.334.783-.574,1.807a23.637,23.637,0,0,0,5.1,4.87c6.232,4.567,12.374,9.255,18.628,13.789A144.444,144.444,0,0,0,153.577,75.6a45.486,45.486,0,0,0,8.3,2.77c.937.2,1.7.244,1.658-1.109a9.075,9.075,0,0,1,.309-1.923,32.485,32.485,0,0,0-.458-14.385c-.106-.408.064-1.124-.807-1.126-.443,0-1.356.3-1.245-.433.106-.7.871-.006,1.339-.072a2.215,2.215,0,0,0,.371-.155c-1-1.872-3.461-1.746-4.75-3.532,1.582.287,2.546,1.394,3.974,1.79a14.13,14.13,0,0,0-1.3-3.231l.024.032a14.081,14.081,0,0,0-1.717-3.437l.04.039a13.033,13.033,0,0,0-1.774-2.761,1.318,1.318,0,0,0-.158-.159A28,28,0,0,0,152.359,41.655Zm6.321,84.717c-.218-3.711-.4-7.4-.973-11.075a77.806,77.806,0,0,0-12.019-31.225,68.586,68.586,0,0,0-13.659-15.129,74.752,74.752,0,0,0-11.822-7.885A72.171,72.171,0,0,0,89.629,52.2a75.7,75.7,0,0,0-29.11,3.866c-3.458,1.166-6.7,2.85-10.23,3.861-1.585.455-2.961,1.658-4.41,2.557a81,81,0,0,0-37.245,83.9,65.642,65.642,0,0,0,1.891,7.558c.771,2.437,1.582,4.859,2.577,7.213q1.514,3.581,3.373,7a69.616,69.616,0,0,0,4.118,6.612c1.467,2.095,3.1,4.06,4.712,6.046,1.586,1.956,3.541,3.531,5.222,5.386a53.614,53.614,0,0,0,8.084,6.764,56.723,56.723,0,0,0,6.184,3.937,73.157,73.157,0,0,0,43.031,9.043,75.421,75.421,0,0,0,33.31-11.327,79.139,79.139,0,0,0,37.544-68.251ZM48.524,30.843a1.981,1.981,0,0,0-2.365.563,8,8,0,0,1-2.185,1.872l-.42-.433,2.8-2.028c-2.5-1.132-3.665.552-5.164,1.831.221-1.109,1.049-1.44,1.311-2.113-1.417-.477-2.239.285-2.867,1.342-.492-.474.279-.78,0-1.164a9.338,9.338,0,0,0-1.351.011A42.183,42.183,0,0,0,23.409,35.78c-8.5,4.868-14.927,11.6-18.7,20.687-3.162,7.617-3.7,15.355-.671,23.183.217.561.282.764.977.525a106.963,106.963,0,0,0,16.863-7.7c4.958-2.741,9.761-5.751,14.732-8.48,6.462-3.549,12.856-7.192,18.275-12.371,3.235-3.09,6.245-6.422,9.689-9.3a12.872,12.872,0,0,0,1.108-1.3c.331-.362.124-.572-.121-.75C61.8,44.215,58.114,48.2,53.2,51.117c.042-.38.022-.5.062-.524A64.4,64.4,0,0,0,64.2,40.756a2.327,2.327,0,0,0,.715-.968.54.54,0,0,0-.268-.626c-.266-.158-.346.113-.452.249a47,47,0,0,1-4.925,4.728,9.755,9.755,0,0,1-3.139,2.351c2.555-2.729,5.469-5.09,7.93-7.863-.6-1.069-.981-.855-1.634.047a41.954,41.954,0,0,1-5.947,6.28c-.063.058-.2.034-.369.058.048-.575.491-.787.782-1.076a55.147,55.147,0,0,0,5.32-5.876c.3-.4.642-.766.038-1.327-.778-.723-1.259-.583-1.792.216a14.011,14.011,0,0,1-3,2.958,38.7,38.7,0,0,1,2.534-3.278c.269-.335,1-.723.353-1.221-.528-.405-1.095-1.33-1.953-.166a5.984,5.984,0,0,1-2.526,2.192c.794-1.153,1.873-2.062,2.593-3.311a14.888,14.888,0,0,1-1.542-.85c-.708-.505-1.094-.231-1.549.385s-.726,1.411-1.467,1.887c-.135-.589.272-.89.43-1.284.235-.59,1.191-1.105.731-1.675-.388-.48-1.317-.529-2.011-.753-.808-.262-.65.929-1.3.911-.31-.464.461-.813.1-1.246-.444-.535-2.61-.475-3.073.069l-1.768,2.076C47.011,32.443,47.971,31.847,48.524,30.843Zm101.613.337a12.752,12.752,0,0,1,.117-1.478,9.659,9.659,0,0,0-2.293-8.626,35.025,35.025,0,0,0-12.848-8.912A111.553,111.553,0,0,0,108.8,4.642c-8.84-1.5-17.676-2.9-26.711-2.706-2.831.061-5.686.1-8.528.043a54.211,54.211,0,0,0-12.054,1.45A81.557,81.557,0,0,0,45.922,7.891c-5.753,2.453-11.711,4.4-17.056,7.774-3.779,2.383-7.376,4.893-10.051,8.583C17.252,26.4,17.269,28.7,17.58,31.116c.062.485.251.775.791.472,1.341-.753,3.177-1.017,3.081-3.183a2.513,2.513,0,0,1,.279-.8c1.48-4.252,4.592-7.189,8.192-9.54C37.915,12.845,46.845,9.86,56.068,7.7A115.454,115.454,0,0,1,68.138,6a72.367,72.367,0,0,1,12.654-.577c3.407.172,6.8.6,10.211.715,5.572.194,11.081.974,16.608,1.59a91.365,91.365,0,0,1,11.68,2.345c8.393,2.067,16.647,4.44,23,10.869,1.781,1.8,4.051,3.5,3.851,6.216-.161,2.189,1,2.663,2.434,3.292C149.05,30.661,149.518,30.891,150.137,31.18ZM133.829,195.192l-.229.2a21.9,21.9,0,0,1-3.131-3.515c-.313-.368-.513-.945-1.192-.319-.757.7.1.8.336,1.05.5.535,1.091.976,1.629,1.474,4.694,4.34,9.072,9.028,14.028,13.075,1.747,1.427,2.33,2.827,1.658,5.01a4.531,4.531,0,0,0,3.062,5.286c2.4.724,5.587-1.463,6.089-4.175.57-3.075-.761-4.887-3.788-5.571-1.23-.279-2.569-.612-3.311-1.968-2.283-4.175-4.833-8.193-7.421-12.185-1.777-2.742-3.6-5.453-5.37-8.13-1.294.591-1.086,1.313-.433,2.215.874,1.206,1.641,2.49,2.454,3.74l-.258.168c-1.155-1.124-1.819-2.622-2.821-3.863-.207-.256-.159-1.12-.826-.511-.394.359-1.186.6-.475,1.507a79.61,79.61,0,0,1,7.419,11.216,5.125,5.125,0,0,1,.848,1.572c-.643-.122-.787-.583-1-.953a100.572,100.572,0,0,0-7.549-11.291c-.267-.339-.367-.967-1.05-.385-.561.478-.759.8-.2,1.446.882,1.013,1.658,2.118,2.478,3.184l-.255.213a26.57,26.57,0,0,1-2.568-2.94c-.231-.261-.331-1.012-1.076-.5s-.233.9.038,1.258C131.86,192.75,132.853,193.964,133.829,195.192ZM75.076,28.918c.677.554,1.366,1.094,2.024,1.669.268.236.462.249.708,0,.379-.387-.056-.462-.236-.608a11.18,11.18,0,0,1-3.332-4.439c-1.042.8-2.045,1.626-3.107,2.368-1.908,1.332-3.34,3.32-5.669,4.079-.509.166-.409.7-.3,1.062A8.66,8.66,0,0,0,68.311,37.4c.276.214.632.465.933.017.245-.364.522-.717.041-1.159a14.12,14.12,0,0,1-1.147-1.375c1.007.079,1.3.97,2.22,1.05a14.81,14.81,0,0,1-2.667-4.274c1.487,1.291,1.839,3.173,3.682,3.972-.471-1.177-1.712-1.526-1.911-2.747,1.119.521,1.486,1.812,2.943,1.979-.959-1.1-1.961-1.9-2.288-3.225a14.114,14.114,0,0,1,2.38,2.337c.154.176.306.376.59.12.3-.272.054-.406-.087-.585a4.076,4.076,0,0,1-1.008-1.535c.989.129,1.226,1.259,2.314,1.378L73.2,31.518c.774,0,1.019.548,1.38.89s.634.072.856-.085c.45-.318-.041-.424-.2-.593-.6-.655-1.217-1.3-1.817-1.96-.326-.357-.8-.657-.634-1.324,1.307,1.055,2.077,2.63,3.782,3.09C76.18,30.6,75.185,30.1,75.076,28.918Zm64.589,1.734a46.875,46.875,0,0,1,15.786,11.4,5.528,5.528,0,0,0-1.695-6.527,14.129,14.129,0,0,0-3.274-2.3c-2.043-.988-4.047-2.055-6.08-3.063C142,28.973,141.755,29.178,139.665,30.652ZM11.955,40.536A26.278,26.278,0,0,1,17.032,36.1c-1.674,1.847-3.615,3.462-4.89,5.639,4.819-4.28,9.976-7.991,16.11-10.31a2.954,2.954,0,0,0-3.6-.96c-1.2.487-2.407.94-3.565,1.5-1.344.657-2.943,1.146-3.884,2.2-1.592,1.778-3.376,3.376-4.877,5.233C12.073,39.713,11.723,39.983,11.955,40.536Zm62.807-6.358c-.839.331-.726.775-.329,1.459,2.585,4.456,5.725,8.577,8.008,13.211a1.16,1.16,0,0,0,1.643.685C80.813,44.505,78.137,39.163,74.762,34.178ZM78.69,28.97a7.179,7.179,0,0,0-2.879-4.261A6.35,6.35,0,0,0,78.69,28.97Zm78.7,18.934c-1.264-.154-2.3-1.034-3.826-1.261a6.874,6.874,0,0,0,3.043,1.594c.357.139.7.26.941-.174A1.318,1.318,0,0,0,157.386,47.9ZM83.765,196.282c-13.94.065-26.036-3.487-36.835-10.914A63.219,63.219,0,0,1,19.7,143.277c-3.415-18.693.446-36.042,11.408-51.62,7.127-10.128,16.6-17.379,27.984-22.364a63.819,63.819,0,0,1,28.522-5.127,57.348,57.348,0,0,1,30.742,10.178C132.548,84.093,141.44,97.5,145.663,114.1a63.013,63.013,0,0,1,1.57,21.666,65.551,65.551,0,0,1-11.787,32.418c-9.986,14.025-23.313,23.2-40.243,26.894-1.627.355-3.289.556-4.94.794C87.839,196.217,85.388,196.174,83.765,196.282ZM145.6,129.335a69.579,69.579,0,0,0-2.389-17.993,59.784,59.784,0,0,0-21.873-32.23A64.223,64.223,0,0,0,88.507,66.441a59.07,59.07,0,0,0-27.15,3.878A60.645,60.645,0,0,0,32.751,93.006C22.345,108.038,18.473,124.689,21.8,142.764c3.04,16.531,11.307,29.948,24.962,39.833,12.794,9.261,27.151,13.066,42.83,11,18.308-2.415,33.058-11.172,43.8-26.207A64.335,64.335,0,0,0,145.6,129.335ZM12.1,149.547c-.311-1-.611-2.007-.83-3.03a77.711,77.711,0,0,1-1.6-11.764,52.366,52.366,0,0,1,.5-10.684c.669-4.592,2.135-9.011,3.136-13.534,1.668-7.534,4.936-14.469,8.247-21.38.169-.352.559-.681.191-1.236a6.472,6.472,0,0,0-.526.724,140.908,140.908,0,0,0-5.835,12.871c-1.944,4.791-2.945,9.868-4.276,14.847a56.967,56.967,0,0,0-2.329,15.193,75.12,75.12,0,0,0,.728,9.822,44.608,44.608,0,0,0,2.532,9.842A2.352,2.352,0,0,0,12.1,149.547ZM141.862,162.18a48.1,48.1,0,0,0,5.792-15.174c1.088-5.345,2-10.727,2.872-16.113.181-1.121.668-2.334.047-3.638a4.856,4.856,0,0,0-.709,2.264c-.92,5.262-1.776,10.534-2.747,15.786a54.631,54.631,0,0,1-5.823,16.5c-.228.414-.567.817-.351,1.432A2.459,2.459,0,0,0,141.862,162.18ZM51.737,61.343c-4.6,3.34-9.208,6.671-13.155,10.8a115.271,115.271,0,0,0-9.488,11.534,118.537,118.537,0,0,0-7.179,10.642,2.287,2.287,0,0,0-.51,2.041c8.312-13.869,17.942-26.192,31.6-35.124C52.233,60.9,51.989,61.16,51.737,61.343ZM31.631,77.434a177.585,177.585,0,0,1,16-15.471,100.875,100.875,0,0,0-15.291,13.67c-5.549,5.983-9.489,12.98-13.016,20.226C23.223,89.563,26.727,83.053,31.631,77.434Zm-13.08,73.654a63.1,63.1,0,0,0,2.76,7.594c2.843,6.207,5.439,12.556,10.2,17.666,2.161,2.322,4.187,4.772,6.548,6.9.248.223.47.7,1.167.238-10.252-9.109-16.289-20.759-20.531-33.642A1.018,1.018,0,0,0,18.551,151.088Zm13.074-66.37A103.153,103.153,0,0,1,58.347,61.564,72.741,72.741,0,0,0,31.625,84.718ZM100.976,196c-3.249.563-6.458,1.513-9.726,1.768a80.945,80.945,0,0,1-15.186-.484,52.427,52.427,0,0,0-6.572-.089c-.064,0-.126.156-.359.463a48.375,48.375,0,0,1,6.707.21c2.46.189,4.914.47,7.376.6a41.513,41.513,0,0,0,8.517-.091c2.506-.388,5.012-.8,7.494-1.316a15.229,15.229,0,0,0,4.477-1.208C102.747,195.441,101.86,195.849,100.976,196ZM108.51,59.9a24.948,24.948,0,0,1,9.39,3.673,104.93,104.93,0,0,1,18.99,15.543c.289.3.507.833,1.232.746A8.684,8.684,0,0,0,136.6,77.88a120.38,120.38,0,0,0-14.014-11.9c-3.92-2.85-7.908-5.489-12.783-6.415a4.277,4.277,0,0,0-1.615-.052C108.211,59.784,108.34,59.873,108.51,59.9ZM42.665,76.164A87.256,87.256,0,0,1,73.72,61.157C68.123,60.575,44.121,72.158,42.665,76.164Zm89.207-4.738c2.973,2.59,5.657,5.473,8.55,8.128-5-6.212-10.555-11.78-17.955-15.133A116.476,116.476,0,0,1,131.872,71.426Zm-26.21-14.135c-2.469-2.755-18.874-4.936-22.206-3.007C90.94,54.672,98.55,54.108,105.662,57.291ZM113,65.1c9.067,3.453,15.88,9.393,21.96,16.311C132.75,76.253,117.316,64.693,113,65.1ZM90.957,200.639c-7.2.273-14.4.056-21.6-.205C76.54,201.677,83.746,201.4,90.957,200.639Zm52.389-36.957c2.641-1.695,8.358-15.964,7.732-19.2C149.263,151.2,147.025,157.723,143.346,163.682Zm-.034-62.666a81.482,81.482,0,0,0-8.83-15.621l-.266.152,8.82,15.573ZM13.141,140.741c-2.168-6.653-1.285-13.079-.828-19.489C10.414,122.516,10.86,138.249,13.141,140.741Zm32.035,46.674a36.594,36.594,0,0,0,13.862,7.555A62.848,62.848,0,0,1,45.5,186.876ZM28.637,88.828c-2.333,3.967-5.259,7.6-6.823,11.963C23.921,96.688,26.8,93.049,28.637,88.828Zm-4.548,81.857a28.936,28.936,0,0,0,5.949,8.079C28.136,176.011,26.094,173.361,24.089,170.685ZM13.136,126.9a36.265,36.265,0,0,0,.394,8.922l-.013-8.93Zm105.553,58.925c1.569.33,6.918-3.471,7.7-5.361C123.924,182.3,121.681,184.429,118.689,185.821ZM125.2,77.168a49,49,0,0,0-7.256-5.344l-.194.262,7.147,5.463ZM97.208,57.65l7.909,2.065.1-.385c-2.516-1.185-5.263-1.484-7.921-2.126Zm39.625,28.044L141,93.1l.33-.189a39.622,39.622,0,0,0-4.188-7.393ZM124.365,74.079l6.322,5.513.265-.317a46.292,46.292,0,0,0-6.373-5.494Zm-9.92,115.8-7,2.8C108.931,193.019,113.768,190.991,114.445,189.883Zm36.4-37.648c-.078.231-.422.547-.013.706.309.12.431-.232.547-.5a30.714,30.714,0,0,0,1.444-4.553,1.936,1.936,0,0,0-.072-1.9A58.317,58.317,0,0,1,150.847,152.235Zm-105.6,39.44a38.274,38.274,0,0,0,5.8,3.767l.223-.335-5.748-3.8Zm1.786-.845c-.1-.068-.318-.18-.428.019-.158.286.04.433.263.566,1.033.617,2.045,1.273,3.1,1.846.6.327,1.081.958,2.131.92A50.579,50.579,0,0,0,47.031,190.83ZM118.677,69.61a14.789,14.789,0,0,0-5.024-2.839A18.252,18.252,0,0,0,118.677,69.61Zm23.431,21.864a9.551,9.551,0,0,0-2.432-5.361C140.575,87.873,141.119,89.777,142.108,91.474ZM101.462,61.931c1.764.171,3.293,1.186,5.226,1.5A6.089,6.089,0,0,0,101.462,61.931ZM150.955,141.3c-.056.311-.161.755.25.814.473.068.373-.409.376-.7.012-1.21,0-2.42,0-3.63,0-.366.013-.735-.53-.882A23.137,23.137,0,0,1,150.955,141.3Zm-41.334,53.106a12.175,12.175,0,0,0,4.173-1.656c.137-.091.229-.254.049-.387a.372.372,0,0,0-.309-.018c-1.348.552-2.692,1.115-4.036,1.675Zm34.43-105.013c-.477-1.632-.856-3.313-2.306-4.45C142.644,86.36,143.018,88.044,144.051,89.393ZM102.943,64.179c1.482.5,2.794,1.493,4.433,1.458C105.938,64.976,104.624,64.01,102.943,64.179Zm-80.557,102.9a10.963,10.963,0,0,0-1.973-3.713A7.237,7.237,0,0,0,22.386,167.081ZM14.775,129.11a15.9,15.9,0,0,0-.066,3.549h.407l-.006-3.549Zm108.854,55.76c.766-.519,1.588-.992,1.713-2.047C124.718,183.46,123.8,183.856,123.629,184.87ZM79.8,59.582a2.4,2.4,0,0,0-2.48.584l2.51-.276ZM7.458,58.128c.647-1.744,2.262-2.784,3.318-4.377-.927.037-1.141.885-2.084,1.224a53.967,53.967,0,0,1,3.653-4.34c.163-.165.619-.315.336-.64-.3-.345-.495.089-.653.257-.8.857-1.589,1.734-2.369,2.614A13.214,13.214,0,0,0,6.82,58.1c-.1.347.227.222.387.272Zm7.7,4.175c2.653-2.266,5.175-4.684,7.95-6.81.168-.128.633-.277.3-.63-.285-.3-.54.072-.708.214-1.984,1.678-3.972,3.352-5.9,5.1a5.686,5.686,0,0,0-2.035,2.363A2.6,2.6,0,0,0,15.153,62.3Zm-2.608,5.932c-2.8,2.483-5.678,4.893-7.433,8.25C7.422,73.561,10.241,71.122,12.545,68.235ZM35.838,56.994a90.353,90.353,0,0,0,6.643-7.49l-.36-.318L35.51,56.7Zm.825-3.817c1.07-1.322,2.062-2.707,3.1-4.055.192-.251.355-.567.1-.748-.329-.235-.447.179-.6.387-.365.485-.73.97-1.085,1.463a46.625,46.625,0,0,0-3.907,5.617A10.375,10.375,0,0,0,36.663,53.177ZM7.246,77.247c1.9-2.451,4.3-4.476,6-7.11A26.566,26.566,0,0,0,7.246,77.247ZM22.079,53.114A29.9,29.9,0,0,0,14.62,59.38C17.046,57.227,19.783,55.426,22.079,53.114ZM11.32,67.021a21.642,21.642,0,0,0-6.278,6.337C6.929,71.072,9.482,69.385,11.32,67.021ZM9.106,52.958A74.044,74.044,0,0,1,14.325,46.6C12.609,47.312,9.168,51.537,9.106,52.958ZM15.8,43.939a15.154,15.154,0,0,0-4.956,4.747C12.515,47.126,14.237,45.616,15.8,43.939Zm-4.764,32.3c1.585-1.7,3-3.22,4.58-4.911C14.288,71.569,11.328,74.741,11.034,76.236ZM31.708,46.359a16.736,16.736,0,0,0-3.479,4.776A16.849,16.849,0,0,0,31.708,46.359ZM10.321,66.041a30.893,30.893,0,0,0-4.67,4.237ZM29.96,52.063c1.1-1.83,2.516-3.258,3.361-5.091C32.056,47.733,29.9,51.015,29.96,52.063Zm3.136-1.67c.449-.846,1.359-1.449,1.307-2.564-1.275,1.5-2.538,3-2.759,5.036C32.131,52.043,32.649,51.237,33.1,50.393ZM5.962,61.244a9.728,9.728,0,0,1,1.624-2.208C8.278,58.41,8.96,57.772,9.792,57c-1.165-.068-1.538.951-2.334,1.124l-.251.241C6.851,59.349,5.733,60,5.962,61.244Zm27.4-7.56,3.2-4.737-.324-.215a18.723,18.723,0,0,0-3.171,4.737Zm-2.906,10.3,3.2-4.51-.3-.212a16.346,16.346,0,0,0-3.172,4.5Zm-6-5.817a13.533,13.533,0,0,0-3.289,4.221A15.144,15.144,0,0,0,24.462,58.167ZM29.2,55.36a11.476,11.476,0,0,0-2.969,4.555l3.3-4.289ZM9.61,64.279a21.22,21.22,0,0,0-3.484,4.1l.252.21Q8.165,66.6,9.953,64.605ZM20.68,51.931a17.612,17.612,0,0,0-4.128,3.344l.2.252,4.168-3.274Zm-.315-.96a10.626,10.626,0,0,0-3.717,2.974A13.045,13.045,0,0,0,20.365,50.971Zm14.767,9.12c.158-.228.257-.443-.03-.61-.316-.185-.4.135-.514.307-.495.742-1,1.48-1.449,2.248-.219.374-.648.734-.307,1.4C33.636,62.264,34.379,61.173,35.132,60.091Zm-5.5-13.632a9.826,9.826,0,0,0-2.884,3.883C27.809,49.121,29.068,48.043,29.631,46.459Zm2.013,13.39c-1.006.147-2.661,2.081-2.913,3.641Zm4.034,2.682c.43-1.125,1.255-1.972,1.484-3.428C35.825,60.391,35.323,61.594,35.678,62.531Zm-18.271,9.41a.317.317,0,0,0-.125-.193c-.23-.172-.375.03-.5.156a5.876,5.876,0,0,0-1.693,2.19A9.8,9.8,0,0,0,17.407,71.941ZM6.333,63.163a8.38,8.38,0,0,0,2.041-2.681A4.781,4.781,0,0,0,6.333,63.163ZM49.067,37.29c.462-.549.93-1.1,1.365-1.666.12-.157.4-.384.086-.6-.265-.179-.446.063-.582.243-.432.57-.838,1.16-1.266,1.733-.161.216-.122.349.15.468A1.184,1.184,0,0,0,49.067,37.29Zm5.4,2.579A8.085,8.085,0,0,0,52.5,41.963,2.761,2.761,0,0,0,54.464,39.869ZM38.726,59.844a.494.494,0,0,0-.067-.446c-.126-.146-.308-.05-.389.1-.324.6-.885,1.138-.582,2.153C38.1,60.939,38.434,60.4,38.726,59.844Zm17.6-17.364c-.692.056-1.056.377-1.426,1.7ZM40.389,58.527a2.024,2.024,0,0,0-.881,2.1l1.2-1.9ZM143.37,66.462c-3.987-2.138-7.908-4.392-11.736-6.8a22.8,22.8,0,0,1-5.055-3.97c-.186-.209-.265-.746-.682-.36-.285.263-.043.575.176.841a11.512,11.512,0,0,0,2.223,2.065,118.582,118.582,0,0,0,14.432,8.458,1.15,1.15,0,0,0,1.1.195A.782.782,0,0,0,143.37,66.462Zm2.035,4.567c4.146,1.967,8.321,3.847,12.887,4.544C153.879,74.356,149.779,72.294,145.405,71.029Zm-13.7-16.371a36.221,36.221,0,0,0,10.5,7.422C138.537,59.827,135.254,57.054,131.709,54.658Zm26.239,18.627q-4.7-1.842-9.4-3.668c-.22-.086-.548-.434-.693.015-.113.351.273.4.536.5,2.546.972,5.085,1.963,7.635,2.924a5.062,5.062,0,0,0,2.072.564C158.188,73.366,158.047,73.324,157.948,73.285ZM123.125,50.818c-2.693-1.341-4.7-3.5-6.991-5.306C116.958,47.534,121.867,51.212,123.125,50.818Zm-9.275-3.781c2.058,2.3,3.932,4.805,6.925,5.942C118.193,51.3,116.236,48.908,113.85,47.037Zm42.763,22.3c-.01-.484-.249-.194-.45-.161a1.984,1.984,0,0,1-1.156-.25q-1.794-.832-3.6-1.635c-.227-.1-.5-.453-.707-.054-.168.327.2.506.416.622a19.752,19.752,0,0,0,1.854.865c1.037.422,2.089.807,2.921,1.126C156.5,69.886,156.621,69.681,156.613,69.339Zm-47.486-27.9c-1.76-1.093-2.9-2.718-4.262-4.132C105.075,39.047,107.728,41.583,109.127,41.44Zm10.953,3.828c.8,1.741,4.02,3.886,5.5,3.768A30.267,30.267,0,0,1,120.08,45.268ZM140.4,57.5c-1.573-.934-3.069-1.99-4.7-2.849A8.471,8.471,0,0,0,140.4,57.5Zm15.233-11.653-4.278-2.38-.176.3a10.48,10.48,0,0,0,4.272,2.365Zm-.562,21.094c.281.046.605.021.544-.418s-.338-.121-.526-.154c-.426-.075-.832-.255-1.255-.352-.843-.2-1.571-.806-2.542-.607A7.605,7.605,0,0,0,155.07,66.939Zm4.247-16.115c-1.634-.131-2.917-1.427-4.6-1.422a13.934,13.934,0,0,0,4.087,1.876c.374.121.479-.169.473-.493Zm-22.57,2.026c.6,1.389,3.1,2.668,4.431,2.323C139.57,54.781,138.323,53.7,136.747,52.85ZM107.516,37.414a5.6,5.6,0,0,0,3.26,3.559C109.476,39.982,108.743,38.47,107.516,37.414ZM161,54.223c-1.519-.322-2.664-1.5-4.263-2,.589,1.111,3.114,2.431,4.066,2.23.073-.016.116-.172.172-.263Zm-5.148,8.589a12.63,12.63,0,0,1-3.776-1.912A3.347,3.347,0,0,0,155.848,62.812ZM127.333,46.9a8.48,8.48,0,0,1-3.485-2.694C124.167,45.928,126.043,47.271,127.333,46.9Zm25.034-5.246-3.553-1.493c-.191-.081-.412-.158-.5.092a.44.44,0,0,0,.183.393c1.261.433,2.39,1.384,3.86,1.008C152.359,41.655,152.371,41.657,152.367,41.655Zm-.28,21.321c-.144-.065-.291-.183-.385.046a.356.356,0,0,0,.19.5,4.418,4.418,0,0,0,3.183.567C154.078,63.7,153.055,63.414,152.087,62.976ZM141.78,52.489a8.87,8.87,0,0,1-3.393-1.863A2.842,2.842,0,0,0,141.78,52.489Zm-30.065-13-2.482-2.533A3.026,3.026,0,0,0,111.715,39.493Zm39.471,17.978a2.936,2.936,0,0,0,3.184,1.71Zm-11.84-10.018c0,1.437,1.117,2.35,2.934,2.461A6.958,6.958,0,0,1,139.346,47.453Zm-10.658-3.18A15.712,15.712,0,0,0,126.239,43C126.693,44.088,127.676,44.2,128.688,44.273Zm-11.345-7.111a7.923,7.923,0,0,0-2.251-2.038A3.248,3.248,0,0,0,117.343,37.162Zm33.238,17.817c.133,1.052.966,1.53,2.1,1.158A10.236,10.236,0,0,1,150.581,54.979ZM113.864,38.692l-2.212-2.081A2.494,2.494,0,0,0,113.864,38.692ZM37.887,12.035c11.482-4.976,23.573-7.477,35.947-8.9C68.711,1.883,40.286,8.97,37.887,12.035ZM114.933,7.1C113.262,5.417,93.99,2.636,89.809,3.586A155.014,155.014,0,0,1,114.933,7.1ZM82.956,2.657c-1.065-.511-5.785-.182-6.305.534C78.722,2.791,80.849,3.271,82.956,2.657ZM18.8,31a42.153,42.153,0,0,1,1.238-6.033C18.887,26.123,18.144,29.907,18.8,31ZM68.315,5.162a29.452,29.452,0,0,0,4.9-.948C71.585,3.88,68.783,4.444,68.315,5.162Zm15.461-1.33-.048-.327c-.99.128-2.075-.39-2.928.668ZM23.024,21.118l-1.945,1.824a2.811,2.811,0,0,0,2.171-1.608ZM26.85,195.065a12.256,12.256,0,0,0-3.6,4.067C24.378,197.715,25.939,196.674,26.85,195.065Zm4.284-5.446a7.259,7.259,0,0,0-2.052,2.638,3.943,3.943,0,0,0,2.016-2.675ZM154.156,38.343l-4.092-3.192-.244.32a17.029,17.029,0,0,0,4.133,3.138ZM87.728,98.848c-.276,2.531-.459,4.944-.825,7.328-.291,1.892-.066,3.792-.365,5.69-.512,3.261-.863,6.552-1.172,9.841a37.119,37.119,0,0,1-.472,5.184c-.072.3.176.415.391.529,1.944,1.024,2.149,2.822,1.95,4.691a4.075,4.075,0,0,1-3.528,3.586c-1.592.167-2.017,1.081-2.649,2.305-1.679,3.254-3.009,6.666-4.669,9.931-.859,1.691-2.282,2.56-3.517,3.716a44.122,44.122,0,0,1-5.6,4.81c-.366.243-.744.523-1.077.264s-.239-.784-.058-1.14c.754-1.486.968-3.148,1.58-4.686.621-1.564,1-3.222,1.511-4.832a10.376,10.376,0,0,1,2.343-3.375c2.376-2.834,4.833-5.6,7.287-8.368a1.443,1.443,0,0,0,.264-1.46c-.683-2.8.175-4.678,2.765-5.814.53-.233.462-.553.487-.944a53.448,53.448,0,0,0-.32-5.837c-.118-2.625-.279-5.24-.224-7.875.048-2.27-.156-4.547-.286-6.819-.116-2.027-.28-4.052-.429-6.078a6.443,6.443,0,0,1,.455-2.587c.8-2.342,1.491-4.719,2.233-7.081a2.832,2.832,0,0,1,.33-.771c.315-.454.673-.5.848.1.68,2.313,1.419,4.614,1.951,6.962C87.155,97.087,88.033,97.876,87.728,98.848ZM83.344,132.1c.45.036.776-.038.77-.689-.007-.722-.274-1.216-.973-1.229-.543-.01-.771.481-.793,1.015C82.32,131.866,82.655,132.15,83.344,132.1Zm-53.229,2.384c.3,2.13,1.743,3.228,3.171,4.212.662.456,1.511.2,1.978-.775a8.838,8.838,0,0,0,.781-2.786,32.591,32.591,0,0,0-.05-7.912,6.95,6.95,0,0,1-4.008,2.146,2.163,2.163,0,0,1-2.1-.65,1.984,1.984,0,0,1-.343-2.27,7.74,7.74,0,0,1,5.138-4.482c1.829-.5,2.847.157,3.2,2.1a36.752,36.752,0,0,1,.586,9.231,14.794,14.794,0,0,1-1.047,5.339c-1.393,2.987-4.182,3.415-6.386.981a6.434,6.434,0,0,1-1.63-2.952A2.043,2.043,0,0,1,30.115,134.485Zm5.221-10.791a8.672,8.672,0,0,0-3.766,2.941c-.137.229-.388.468-.218.774.183.331.494.165.764.142A3.7,3.7,0,0,0,35.336,123.694Zm92.888,15.51a12.75,12.75,0,0,0,7.236,1,4.055,4.055,0,0,0,3.578-4.009,6.925,6.925,0,0,0-2.214-5.6c-.609-.529-.486-.843-.014-1.34a6.714,6.714,0,0,0,1.668-2.916,3.783,3.783,0,0,0-1.207-3.982,4.016,4.016,0,0,0-4.112-.682,2.817,2.817,0,0,0-1.867,2.358.9.9,0,0,0,.526,1.106.792.792,0,0,0,1.017-.441,3.6,3.6,0,0,1,.35-.495,1.985,1.985,0,0,1,2.487-.588c.832.594.647,1.4.368,2.2a3.015,3.015,0,0,1-.547.93,19.442,19.442,0,0,1-2.508,2.655c-.509.427-.952.91-.712,1.668.259.82.906.976,1.644.928a1.961,1.961,0,0,1,1.836.71,2.927,2.927,0,0,1-1.635,4.932,8.509,8.509,0,0,1-1.809.228,10.683,10.683,0,0,0-4.377.9A.388.388,0,0,0,128.224,139.2ZM79.246,185.842a7.992,7.992,0,0,1,3.1-5.442,3.941,3.941,0,0,1,3.29-.932,3.219,3.219,0,0,1,2.4,4.937,8.311,8.311,0,0,1-6.6,3.994,3.616,3.616,0,0,1-2.965-1.009,7.18,7.18,0,0,1-2.332-7.973,13.831,13.831,0,0,1,4.122-6.172,7.639,7.639,0,0,1,2.9-1.5c.369-.1.844-.208,1.006.362.155.545-.325.557-.625.7a11.483,11.483,0,0,0-6.2,7.809C76.761,182.686,77.463,184.371,79.246,185.842Zm7.384-2.921c.051-.525-.242-.791-.669-1.035a1.367,1.367,0,0,0-1.586.1,9,9,0,0,0-3.054,3.971c-.253.584-.02.86.611.745a6.207,6.207,0,0,0,4.432-2.868A1.512,1.512,0,0,0,86.63,182.921ZM87.607,79.4a9.038,9.038,0,0,0,.762-6.348c-.3-1.109-.943-1.989-2.143-2a2.324,2.324,0,0,0-2.339,1.449.977.977,0,0,0,.26,1.215c.481.39.734-.056.954-.381.243-.36.548-.692.97-.6.459.1.531.636.563,1a8.37,8.37,0,0,1-.333,3.94,22.535,22.535,0,0,1-2.657,5.024.982.982,0,0,0-.161,1.23,1,1,0,0,0,1.274.395,13.112,13.112,0,0,1,4.463-.289c1.711.1,3.5.079,4.753-1.688-2.537.547-4.938-.377-7.619-.429C86.825,80.969,87.234,80.191,87.607,79.4Zm-33.4,95.762c-.085.706-.605,1.43.263,1.977.922.581,1.535.011,2.119-.576a5.239,5.239,0,0,0,.909-1.142,1.958,1.958,0,0,1,1.685-1c2.125-.249,4.261-.443,6.365-.814.716-.126,1.639.066,2.355-.959l-9.429,1.349a29.529,29.529,0,0,0,3.844-8.218,29.639,29.639,0,0,0-5.825,6.681c-.852,1.336-1.85,2.288-3.551,2.251a3.027,3.027,0,0,0-.969.327C52.75,175.367,53.476,174.976,54.209,175.157Zm46.506-9.764c1.739,4.219,4.246,8.029,6.427,12.012.355.648.924,1.23,1.79.77s.7-1.282.357-1.922c-1.905-3.5-3.757-7.045-6.686-9.846a4.53,4.53,0,0,0-1.824-1.328C100.742,165.246,100.691,165.335,100.715,165.393Zm-64.78-9.233c-.686.365-1.288.922-.852,1.734a1.319,1.319,0,0,0,2,.442c1.251-.711,2.534-1.368,3.76-2.119,1.67-1.021,3.183-2.376,5.37-2.122a.961.961,0,0,0,1.011-.566,5.271,5.271,0,0,0-2.379.087c.321-.789,1.133-.956,1.755-1.656a10.633,10.633,0,0,0-3.642.918c-1.149.352-2.158,1.1-3.393,1.206a24.5,24.5,0,0,0-3.732.39c-1.081.271-2.4-.123-3.467,1.058a24.262,24.262,0,0,1,5.825-.458C37.437,155.433,36.671,155.769,35.935,156.16Zm81.468-2.887c1.431,1.237,2.8,2.559,4.31,3.689,1.786,1.335,3.685,2.521,5.559,3.735a1.38,1.38,0,0,0,1.974-.237,1.313,1.313,0,0,0-.407-1.922c-.23-.167-.438-.368-.68-.513a51.127,51.127,0,0,0-5.688-3.052c-1.617-.7-3.259-1.348-4.89-2.019Zm4.69-44.529c2.836-.971,5.565-2.2,8.311-3.389.827-.358,1.344-.968.985-1.794-.351-.81-1.144-.75-1.878-.363-1.892,1-3.82,1.931-5.669,3a7.855,7.855,0,0,0-3.466,3.3C120.948,109.245,121.5,108.946,122.093,108.744Zm-67.831-23.9a1.237,1.237,0,0,0-1.854-.472,1.213,1.213,0,0,0-.2,1.836c1.716,2.357,3.385,4.762,5.814,6.476.406.286.78.75,1.42.515A70.039,70.039,0,0,0,54.262,84.844ZM41.9,109.438c-2.171-1.5-4.3-3.053-6.465-4.565-.676-.473-1.451-.728-2.02.089-.623.9.089,1.457.746,1.869a37.657,37.657,0,0,0,6.447,3.409,8.926,8.926,0,0,0,4.051.869C43.735,110.555,42.781,110.048,41.9,109.438ZM78.6,83.969c.682-3.876.84-7.807,1.2-11.717.041-.445-.144-.889-.586-.942-.408-.049-.576.349-.616.759-.028.279-.182.551-.182.826,0,2.361-.376,4.7-.485,7.045a9.645,9.645,0,0,0,.387,4.289C78.5,84.073,78.593,84.028,78.6,83.969Zm31.247,5.24c1.391-1.479,2.719-3.017,4.046-4.554.371-.43.75-.984.2-1.5-.593-.561-1.138-.186-1.557.317-.573.686-1.126,1.39-1.65,2.113a22.242,22.242,0,0,0-3,5.671A8.577,8.577,0,0,0,109.851,89.209ZM31.036,152.631c3.39-.468,6.784-.908,10.167-1.422,2.586-.393,5.2-.6,7.752-1.215.282-.068.644-.11.576-.436-.078-.369-.408-.186-.7-.143-5.248.788-10.5,1.516-15.744,2.353a7.827,7.827,0,0,0-3.133.721C30.351,152.829,30.7,152.678,31.036,152.631ZM31.1,118c5.541-.269,11.1.133,16.635-.385A80.732,80.732,0,0,0,31.1,118Zm22.647,60.85c5.336-1.075,10.686-1.268,15.938-2.206C67.146,176.053,54.691,177.826,53.747,178.846Zm-.659-98.308c3.521-.567,7.074-.77,10.627-1,1.775-.117,3.546-.321,5.318-.491.236-.023.564-.05.538-.346s-.311-.27-.578-.238c-1.123.136-2.247.261-3.374.353-3.225.266-6.46.431-9.671.814-1.106.132-2.339,0-3.585.854A4.139,4.139,0,0,0,53.088,80.538Zm-4.353,75.513c1.514-.2,3.02-.467,4.527-.718.293-.048.578-.212.486-.56-.061-.232-.346-.16-.53-.124-3.351.667-6.757.973-10.123,1.529-.974.162-2.059.139-2.841.953C43.081,156.773,45.911,156.431,48.735,156.051Zm12.428-56.3L45.77,101.514l.047.39c5.151-.417,10.286-.972,15.4-1.711Zm-.32-16.777a45.543,45.543,0,0,0-12.677-.023C52.39,82.556,56.622,83.476,60.843,82.975Zm-27.71,37.576c1.1-.139,2.189-.03,3.275-.171.284-.036.656-.05.659-.392.005-.431-.412-.283-.659-.291a26.349,26.349,0,0,0-3.506.3,10.691,10.691,0,0,0-4.525.989C29.966,120.875,31.557,120.751,33.133,120.551Zm36.24,59.964c.24-.038.677.114.568-.36-.074-.325-.405-.286-.711-.239-1.472.229-2.973.329-4.415.677-1.04.25-2.222.141-3.036,1.108Q65.577,181.11,69.373,180.515ZM48.881,104.9l8.925-1C55.99,103.284,49.645,104.122,48.881,104.9Zm-4.972,55.524c2.618-.536,5.3-.706,7.883-1.431A18.39,18.39,0,0,0,43.909,160.426Zm50.577-1.415c-.222-.042-.464.132-.435.317.052.32.373.365.658.365q3.095,0,6.189-.013c.238,0,.366-.132.434-.414C99.05,159.04,96.75,159.438,94.486,159.011ZM107.664,99.5c-2.536.625-4.724-.039-7.2-.149C101.885,100.443,106.16,100.546,107.664,99.5ZM29.421,147.281l6.206-.593-.038-.345a21.652,21.652,0,0,0-6.206.6Zm21.664,14.862a8.951,8.951,0,0,0-5.583.919C47.33,162.494,49.31,162.958,51.085,162.143Zm-1.68-51.63,4.759-.007A5.1,5.1,0,0,0,49.405,110.513ZM65.68,76.819a9.667,9.667,0,0,0-5.03.611C62.318,77.261,64.059,77.519,65.68,76.819ZM49.1,107.468c1.871.018,3.58-.429,5.321-.394A6.58,6.58,0,0,0,49.1,107.468Zm5,58.4a15.413,15.413,0,0,0-5.26.6A14.754,14.754,0,0,0,54.1,165.864ZM88.167,164.8c-.175-.032-.324.037-.31.251.013.2.158.266.333.271a10.2,10.2,0,0,0,4.583-.586C91.224,164.461,89.711,165.079,88.167,164.8ZM70.5,183.548a3.27,3.27,0,0,0-3.95,1.02A22.378,22.378,0,0,1,70.5,183.548ZM105.5,96.4c-1.576.418-3.134.112-5.024.222C102.04,97.427,104.913,97.229,105.5,96.4ZM32.216,143.607a4.589,4.589,0,0,0-3.758.9C29.667,143.99,31.1,144.408,32.216,143.607Zm56.409,19.319a5.3,5.3,0,0,0,5-.408A26.826,26.826,0,0,1,88.625,162.926ZM47.485,84.968a5.063,5.063,0,0,0-3.731.246A24.549,24.549,0,0,0,47.485,84.968ZM44.632,87.4a2.977,2.977,0,0,0-2.6.292A3.9,3.9,0,0,0,44.632,87.4Z" fill="#151611"/>
</svg>
