<svg xmlns="http://www.w3.org/2000/svg" viewBox="0 0 144.729 209.305">
  <path d="M127.326,82.207a65.852,65.852,0,0,1,1.594,13.924,95.108,95.108,0,0,1-4.061,27.177c-1.977,6.414-3.905,12.848-6.055,19.2a44.539,44.539,0,0,0-1.911,18.06,4.321,4.321,0,0,0,1.013,2.638c1.409,1.612,1.136,3.6.911,5.507-.214,1.823-.692,3.457.965,5.127a4.237,4.237,0,0,1,.408,5,1.737,1.737,0,0,0,.206,2.243,4.918,4.918,0,0,1,.726,5.413c-.148.374-.411.6.067,1.051,2.676,2.5,2.571,6.794-.609,8.552a5.483,5.483,0,0,0-3.033,5.325,4.952,4.952,0,0,1-3.2,4.831A31.153,31.153,0,0,1,100.2,209.3a4.309,4.309,0,0,1-3.8-2.237c-.677-1.081-1.438-2.111-2.072-3.216a1.046,1.046,0,0,0-1.009-.573,21.36,21.36,0,0,1-2.675-.376,5.345,5.345,0,0,1-3.96-7.4c.186-.464.058-.606-.262-.878a4.961,4.961,0,0,1-1.827-5.434,1.357,1.357,0,0,0-.427-1.669,5.466,5.466,0,0,1-1.973-6.544,1.494,1.494,0,0,0-.32-1.625c-1.708-2.343-3.669-4.6-2.769-7.962.381-1.423-.65-2.8-1.193-4.106a40.67,40.67,0,0,0-8.517-13.212c-3.495-3.511-7.02-7.008-10.33-10.679-4.95-5.49-10.26-10.732-14.034-17.182-2.167-3.7-4.013-7.588-5.922-11.438-3.081-6.212-4.462-12.809-5.7-19.5-.579-3.137.351-6.179.6-9.255.314-3.939,1.7-7.66,3.016-11.372,1.562-4.4,4.348-8.035,6.975-11.786,4.82-6.88,11.412-11.538,18.761-15.247,6.708-3.385,13.834-3.97,21.205-3.2a53.641,53.641,0,0,1,12.9,2.958c3.341,1.223,6.356,3.231,9.5,4.921,5.488,2.946,9.545,7.48,13.265,12.25C124.352,70.591,125.194,73.041,127.326,82.207Zm-24.038,85.844c.7-.191.331-.733.186-.977-.2-.337-.553-.027-.832.1a5.892,5.892,0,0,1-3.811.556l3.243-1.354c-2.724.483-5.444.787-8.17,1.135,1.086,2.863.6,2.672,3.361,2.088a20.985,20.985,0,0,0,5.068-1.762c.281-.14.842-.624.991.235-2.377,1.733-5.338,1.941-7.984,2.987,2.63.347,4.986-.533,7.38-1.345C103.83,169.336,103.976,168.915,103.288,168.051ZM58.029,134.672a1.643,1.643,0,0,1,1.033.686,95.527,95.527,0,0,0,8.479,8.464c8.075,7.269,14.391,15.664,16.722,26.586.166.78.646,1,1.362,1.058,2.421.192,4.838.279,7.27.268,1.386-.007,1.269-.311.8-1.28q-8.149-16.965-16.263-33.947c-4.539-9.5-8.947-19.059-13.714-28.444a2.321,2.321,0,0,1-.065-2.157,3.9,3.9,0,0,1,3.723-2.575c1.626.1,2-.755,2.538-1.911,2.08-4.482,4.979-6.039,9.654-5.192.731.132.972-.194,1.243-.66a6.574,6.574,0,0,1,11.14-.266c.626.883,1.156.943,2.063.377,2.644-1.648,5.2-.816,7.672.534a2.037,2.037,0,0,1,1.05,1.88c-.04,6.424.444,12.831.654,19.247.2,6.258.326,12.519.611,18.773.48,10.542.968,21.083,1.15,31.634.016.921.324,1.113,1,.757a85.042,85.042,0,0,0,8.756-5.107c.786-.543.722-1.168.512-1.951-1.187-4.422-.863-8.872-.219-13.32.454-3.13,1.7-5.989,2.758-8.948,2.44-6.86,4-14.015,6.315-20.939,1.334-3.986,1.461-8.3,1.9-12.471a54.656,54.656,0,0,0-.318-15.009c-.781-4.59-.971-9.254-2.575-13.725a38.948,38.948,0,0,0-5.472-10.623,48.048,48.048,0,0,0-11.094-9.994,46.251,46.251,0,0,0-11.432-5.725,45.356,45.356,0,0,0-10.281-2.753c-5.674-.588-11.338-.688-16.777,1.253-7.006,2.5-13.293,6.169-18.2,11.976-1.854,2.2-3.919,4.191-5.62,6.545a67.845,67.845,0,0,0-4.532,8.243,32.291,32.291,0,0,0-3.889,16.173,43.384,43.384,0,0,0,2.552,14.025c1.181,3.162,2.171,6.4,3.419,9.531,2.387,5.994,6.2,11.16,9.685,16.516a8.234,8.234,0,0,0,2.114,2.6,14.123,14.123,0,0,1,3.421,3.317c4.142,5.393,9.1,10,13.842,14.824a35.24,35.24,0,0,1,9.27,15.979c.563,2.157.9,2.43,3.348,2.186a69.421,69.421,0,0,0-2.252-7.156,51.737,51.737,0,0,0-10.985-16.286c-3.889-3.878-8.192-7.338-11.656-11.645C58.443,135.634,57.851,135.366,58.029,134.672Zm38.177,29.206,0-.006c.781-.18,1.564-.346,2.341-.543a9.269,9.269,0,0,0,4.406-2.088c.848-.866.173-2.442.124-3.7q-.561-14.4-1.12-28.805-.39-10.1-.782-20.2c-.124-3.075-.251-6.151-.46-9.221-.036-.537.126-1.46-.752-1.546-1.63-.159-3.263-.29-4.77.706a1.048,1.048,0,0,0-.437,1.586,22.8,22.8,0,0,1,1.853,7.241,5.18,5.18,0,0,1-.722,3.4c-1.533,2.472-4.224,2.532-5.605-.012-1.968-3.623-1.713-7.325-.02-10.985.219-.475.707-.953.389-1.487-.86-1.446-1.873-2.769-3.64-3.161a3.453,3.453,0,0,0-3.517,1.356c-.748.847-.874,1.393.092,2.331a15.918,15.918,0,0,1,5.064,12.362,2.941,2.941,0,0,1-3.92,2.939,6.3,6.3,0,0,1-3.9-2.905,16,16,0,0,1-1.929-11.3c.306-1.623-.026-1.97-1.742-1.836-2.78.217-4.194,2.02-5.213,4.357-.424.974-.55,1.574.64,2.305,3.054,1.878,5.707,4.2,6.274,8.1.325,2.237-.771,3.881-2.744,4.1a4.341,4.341,0,0,1-3.354-1.236,11.346,11.346,0,0,1-4.146-9.182c.016-1.3-.765-1.8-1.948-1.287-1.487.646-1.759,1.37-.985,3.033q3.919,8.427,7.895,16.827,8.858,18.671,17.743,37.327c1.136,2.4,1.1,2.414,3.639,1.822C95.373,164.069,95.79,163.974,96.206,163.878Zm-.664,16.091a4.011,4.011,0,0,1,2.533-.824,44.96,44.96,0,0,0,16.285-5.757,7.261,7.261,0,0,0,2.842-8.744c-.252-.656-.392-1.072-1.149-.4a39.975,39.975,0,0,1-8.834,5.558c-3.191,1.592-6.485,3.061-10.043,3.367a47.467,47.467,0,0,1-16.21-.878c-.762-.2-.762.064-.758.681.006.88.431,1.2,1.222,1.37,1.792.383,3.568.84,5.35,1.267-2.076.627-3.949-.465-6.183-.526,1.174,1.87,3.251.99,4.879,2.262l-3.586-.255c.754,1.258,2.272,1.635,2.5,2.876.164.876.514.893,1.159.971,1.99.24,3.972.541,6.2.853a1.434,1.434,0,0,1-1.408.462c-1.726-.217-3.455-.42-5.189-.561-.365-.029-1.008-.43-1.1.422-.079.721.487.76.925.826a52.943,52.943,0,0,0,12.466.2c2.009-.175,4.015-.384,6.022-.578l.029.492a58.337,58.337,0,0,1-19.334.539,1.754,1.754,0,0,0,1.824,2.141c1.629.158,3.255.353,4.881.532-1.4,1.032-2.941.02-4.38.635,3.472,1.653,7.185,1.117,10.875,1-.167.7-.642.715-1.049.743-2.743.191-5.487.371-8.233.52-.506.027-1.243-.288-1.317.421-.105,1,.878.532,1.318.628,1.2.263,2.5-.093,4.04.493-1.782.64-3.252.246-4.7.281-.347.009-.815-.281-.918.258-.113.6.458.675.844.737,1.212.195,2.434.326,4.014.528-1.551,1.044-2.93-.078-4.343.5a2.732,2.732,0,0,1,1.125,3.068c-.212.71.477.554.791.611a51.733,51.733,0,0,0,6.767.473c.853.043,1.8-.243,2.8.45a3.774,3.774,0,0,1-.784.242,73.436,73.436,0,0,1-8.533-.273c-.387-.039-.962-.374-.976.278-.009.415.012,1.147.8,1.188.311.016.62.072.93.091q2.844.177,5.687.343c-2.089,1.112-4.267.331-6.413.542.144.734.688.747,1.189.915a14.762,14.762,0,0,0,4.4.586c4.184.11,8.448.391,12.438-.877a50.291,50.291,0,0,0,12.286-5.931c1.893-1.239,1.672-2.915,1.326-4.664-.181-.914-.549-1.517-1.729-.749a46.845,46.845,0,0,1-10.885,4.864,38.617,38.617,0,0,1-13.078,1.58c-1.355-.025-2.741.487-4.53-.326,2.213-.269,3.961-.612,5.719-.673,7.793-.271,14.885-2.825,21.645-6.506a4,4,0,0,0,1.391-4.946c-.557-1.04-1.23-1.777-2.439-.7a6.345,6.345,0,0,1-1.264.657c-4.018,2.159-8.538,2.531-12.856,3.619a1.676,1.676,0,0,1-1.292.042,2.592,2.592,0,0,1,1.894-.827,59.052,59.052,0,0,0,11.9-4.041c2.159-.957,2.79-2.748,3.222-4.71a3.609,3.609,0,0,0-1.333-3.452c-.9-.745-1.9.288-2.612.887a18.109,18.109,0,0,1-6.558,3.168A51.384,51.384,0,0,1,95.542,179.969Zm-13.8-79.957a8.853,8.853,0,0,0-.445,4.4,9.874,9.874,0,0,0,3.231,6.943,1.49,1.49,0,0,0,1.456.475c.569-.213.442-.828.455-1.27C86.572,106.325,84.665,103.007,81.746,100.012ZM97.7,204.245c1.1,1-.161,2.38,1.1,2.827a11.008,11.008,0,0,0,2.983.269,8.321,8.321,0,0,0,1.421-.021c.239-.027.642.142.613-.441-.052-1.064.47-.52.635-.134.195.455.41.58.831.44.213-.07.63-.045.343-.459-.238-.343-.178-.7.124-.8.48-.169.607.281.676.645.148.775.653.49,1.1.416.658-.109.5-.555.408-.974a12.389,12.389,0,0,0-.461-1.874c-.235-.586-.267-1.6-1.153-1.437-.861.163.071,1.026-.261,1.5-.05.072-.165.1-.249.146-.629-.23-.1-1.354-1.235-1.356-1.629,0-.683,1.411-1.211,2.017-.583-.536-.446-1.557-1.428-1.686-.456.921,1.158,1.588.3,2.6l-1.549-2.087c-.374.819.885,1.173.328,2.03-.973-.507-1.195-1.717-2.315-2.523.407,1.052,1.054,1.691.794,2.789C98.773,205.6,98.937,204.624,97.7,204.245ZM76.8,112.252a8.333,8.333,0,0,0-3.185-4.4c-.741-.594-1.538-1.94-2.39-1.424-.749.453.051,1.784.229,2.71a8.431,8.431,0,0,0,3.312,5.32,1.441,1.441,0,0,0,1.634.268c.581-.308.464-.929.529-1.433A3.865,3.865,0,0,0,76.8,112.252Zm15.967-10.176c-1.318,2.861-1.122,5.965.362,7.463C94.125,107.785,94.071,106.482,92.768,102.076Zm.484,63.8.126.494a27.636,27.636,0,0,0,9.573-2.069,1.359,1.359,0,0,0,.14-.076.665.665,0,0,0,.208-.976c-.234-.457-.5-.1-.767.021a20.176,20.176,0,0,1-4.5,1.516C96.427,165.105,94.843,165.512,93.252,165.879Zm21.1,34.331c.032.082.217-.331-.29-.335a.565.565,0,0,0-.605.593c-.042.941-.075,1.883-.091,2.825-.007.374-.242.937.467.9.558-.028.619-.515.616-.945C114.441,202.356,114.393,201.463,114.35,200.21ZM112.2,205.2c.073-.085.259-.2.261-.321.016-1.158.014-2.317-.021-3.474a.585.585,0,0,0-.342-.44c-.256-.043-.6.087-.595.386.023,1.208.093,2.417.174,3.623C111.694,205.218,111.916,205.293,112.2,205.2Zm-1.592.638c.506-1.163-.082-2.215.063-3.307.039-.3.134-.961-.605-.827-.578.1-.813.413-.592,1.009C109.859,203.753,110.231,204.8,110.608,205.839Zm-2.376-3.582-.47.12q.422,1.825.843,3.651c.108.47.4.375.723.252.365-.138.435-.245.236-.671C109.056,204.522,108.668,203.378,108.232,202.257ZM73.909,5.7c.415,3.939.215,8.7.352,13.453.166,5.764-.953,11.429-1.192,17.16a1.948,1.948,0,0,1-1.8,2.085q-2.37.324-4.723.767c-.731.137-.956-.363-1.174-.83-3.054-6.568-6.689-12.848-9.515-19.531-1.023-2.42-2.4-4.686-3.3-7.165-1.754-4.794-.569-7.522,3.89-9.887C60.618-.459,65.015-.1,69.413.294,71.6.489,73.31,2.559,73.909,5.7Zm-11.5-.714a23.681,23.681,0,0,0-4.645,1.675c-2.011.857-2.219,1.381-1.4,3.432q4.86,12.192,9.694,24.4c.594,1.508,1.642.077,2.457.477.537.263.482-.431.457-.867a62.593,62.593,0,0,1,.456-8.611c.512-6.514,1-13.035.109-19.567-.114-.847-.193-1.731-1.3-1.577C66.3,4.616,64.312,4.461,62.407,4.989ZM100.428,8.4c3.271-.4,6.229.664,9.054,2.259a27.345,27.345,0,0,1,4.5,2.791c2.051,1.75,2.008,2.887,1,5.3-2.955,7.045-7.331,13.3-10.757,20.078-.81,1.6-1.841,3.268-4.011,3.567-2.213.3-4.58-1.326-4.753-3.445a93.245,93.245,0,0,1,.293-21.2A34.347,34.347,0,0,1,97.3,11.031C97.827,9.582,98.658,8.441,100.428,8.4Zm10.494,8.145c-.271-.191-.511-.376-.767-.538a24.831,24.831,0,0,0-7.424-3.23c-1.282-.316-1.849,0-2.1,1.286a72.806,72.806,0,0,0-1.245,9.562c-.268,4.336-.452,8.678-.727,13.014-.043.668-.263,1.265.633,1.457.938.2,1.19-.388,1.375-1.143a22,22,0,0,1,1.573-4.022c2.376-5.1,5.355-9.879,7.947-14.864C110.43,17.6,110.65,17.11,110.922,16.548ZM29.442,77.533a23.035,23.035,0,0,1-6.318.334c-4.627-.293-9.252-.624-13.878-.939-.053,0-.107,0-.16,0C1.8,76.425-1.67,72.491.78,65.221A30.922,30.922,0,0,1,4.568,57.3c1.133-1.629,3.7-2.162,6.108-1.3a37.487,37.487,0,0,1,6.93,3.694c4.865,3,10.015,5.571,14.155,9.667.99.98,1.439,1.823.729,3.176A16.194,16.194,0,0,0,31.2,75.993C30.932,77.044,30.391,77.558,29.442,77.533ZM7.638,59.888c-.164.168-.315.261-.379.4-1.511,3.145-2.984,6.313-2.85,9.927a2.007,2.007,0,0,0,1.684,1.916,40.88,40.88,0,0,0,4.069.859c5.554.716,11.176.812,16.685,1.958,1.544.322.937-1.2,1.4-1.813.448-.587.243-1.011-.485-1.33-3.4-1.493-6.4-3.685-9.561-5.593S12.1,62.024,8.78,60.37C8.408,60.184,8.012,60.045,7.638,59.888ZM27.3,22.358A3.428,3.428,0,0,1,30.92,23.5a51.217,51.217,0,0,1,6.362,8.655c2.912,4.664,5.821,9.331,8.664,14.038,1.85,3.066,1.758,3.064-.584,5.679-1.174,1.311-2.2,2.76-3.249,4.177a1.124,1.124,0,0,1-1.742.351c-8.406-5.124-17.018-9.937-24.3-16.726-2.312-2.155-2.612-4.359-.945-7.2,2-3.418,5.129-5.638,8.254-7.842A13.21,13.21,0,0,1,27.3,22.358Zm-.122,3.365c-.08.061-.2.159-.331.25a35.767,35.767,0,0,0-8.668,8.375,2.029,2.029,0,0,0,.367,2.98,77.152,77.152,0,0,0,10.2,8.049q5,3.357,10.059,6.621c.339.219.838.968,1.3.138a17.846,17.846,0,0,1,2.3-2.875c.337-.392.5-.666.018-1.189-2.138-2.291-3.389-5.166-4.923-7.851a129,129,0,0,0-9.016-13.764C28.182,26.057,27.942,25.468,27.181,25.723ZM127.705,55.184c-2.145.375-4.042.676-5.923,1.053a1.838,1.838,0,0,1-1.73-.549c-1.474-1.325-2.945-2.657-4.476-3.913a1.147,1.147,0,0,1-.353-1.393,10.229,10.229,0,0,1,2.883-5.11c3.25-3.1,6.316-6.382,9.436-9.611a19.906,19.906,0,0,1,4.295-3.324,4.843,4.843,0,0,1,6.215.435c2.725,2.166,4.155,5.207,5.511,8.308.684,1.563,1.374,3.079,1.107,4.865a4.568,4.568,0,0,1-1.9,3.189,29.76,29.76,0,0,1-7.894,3.72C132.43,53.738,129.932,54.466,127.705,55.184ZM118.823,50.1c1.115.612,1.578,2.345,3.027,1.782,3.881-1.509,7.978-2.3,11.869-3.734a32.107,32.107,0,0,0,6.008-2.52c.688-.428.956-.767.6-1.656a27.971,27.971,0,0,0-3.1-5.4c-2.281-3.333-3-3.393-5.8-.529C127.388,42.157,123.58,46.515,118.823,50.1ZM105.6,62.549c-5.4-3.867-10.967-7.405-17.566-8.887a40.584,40.584,0,0,0-14.451-.446,6.8,6.8,0,0,0-4.33,2c14.371-4.581,26.492.262,37.9,9.357C107.035,63.109,106.138,62.938,105.6,62.549ZM122.34,105.92c-.581,4.748-1.554,9.434-2.189,14.164,2.59-9.364,4.252-18.833,2.923-28.579A95.594,95.594,0,0,1,122.34,105.92ZM43.38,80.994a58.523,58.523,0,0,1,3.336-8.959c.181-.4.639-1.013.167-1.276-.621-.346-.7.5-.851.836a47.262,47.262,0,0,0-3.44,9.765,3.783,3.783,0,0,0,.229,2.816C43.034,82.93,43.125,81.94,43.38,80.994Zm78.426,5.64c.6-2.484-2.27-11.3-3.525-11.956Q120.045,80.663,121.806,86.634ZM105.833,68.725a24.7,24.7,0,0,0-10.454-7.6A84.571,84.571,0,0,1,105.833,68.725ZM43.886,110.582c-.291-3.46-1.705-6.608-2.639-9.889A31.039,31.039,0,0,0,43.886,110.582Zm4.131-29.016A87.219,87.219,0,0,1,50.255,73.1C48.891,74.091,47.386,79.68,48.017,81.566ZM47.6,108.42,45.594,102.8c-.461,2.238.683,3.951,1.538,5.757Zm67.443,17.743a10.488,10.488,0,0,0-1.35,5.431C114.705,129.93,114.81,128.03,115.045,126.163Zm-49.253,12.29a24.376,24.376,0,0,0-4.115-4.3l-.3.279,4.019,4.425Zm51.027-6.409a49.2,49.2,0,0,1,1.089-5.165C116.477,128.735,116.093,130.56,116.819,132.044Zm.236-11.971.943-5.1C116.656,116.845,116.333,118.7,117.055,120.073ZM55.134,130.239a.6.6,0,0,0,.553.16c.328-.151.2-.479.037-.658-.844-.911-1.2-2.209-2.415-2.886A8.74,8.74,0,0,0,55.134,130.239Zm61.971-43.9a15.374,15.374,0,0,0,.51,4.25C118.133,88.625,118.005,87.6,117.105,86.334Zm2.816,1.023c-.227-1.287-.221-2.641-1.319-3.675l.878,3.807ZM51.179,106.112q-.812-1.516-1.624-3.033l-.39.2a4.988,4.988,0,0,0,1.64,3.015Zm5.036,20.376a4.725,4.725,0,0,0,1.844,3.3C57.927,128.169,56.91,127.425,56.215,126.488Zm51.8-57.552,2.2,2.833c.053-1.48-.938-2.229-1.785-3.077ZM52.348,78.193c-.968,1.166-1.037,2.256-.185,3.854C52.232,80.6,52.286,79.484,52.348,78.193Zm60.662,117.28c-3.362.686-6.578,1.666-9.9,2.146C105.324,198.147,112.233,196.548,113.01,195.473Zm-8.25-5.605c-2.87.132-5.611.841-8.864.827C97.627,191.76,103.605,191.04,104.76,189.868ZM92.688,175.923c-1.079-.012-1.905-.581-2.891-.15A2.177,2.177,0,0,0,92.688,175.923Z" fill="#151611"/>
</svg>
