<svg xmlns="http://www.w3.org/2000/svg" viewBox="0 0 194.882 210.108">
  <path d="M150.308,39.5c1.407-1.176,2.947-.429,4.356-.241a4.641,4.641,0,0,0,3.841-.993q3.184-2.661,6.276-5.433a22,22,0,0,1,16.226-6.013,9.329,9.329,0,0,1,7.809,4.826c1.574,2.724,3.4,5.339,4.091,8.508,1.013,4.642,2.186,9.271,1.943,14.068a57.6,57.6,0,0,1-4.485,20.414c-1.364,3.118-2.443,6.365-4.232,9.286a41.329,41.329,0,0,1-11.722,12.609,48.044,48.044,0,0,1-12.9,6.575c-2.3.719-4.5,1.811-6.851,2.446a76.287,76.287,0,0,1-11.017,2.475,21.869,21.869,0,0,1-10.9-1.71,1.886,1.886,0,0,0-.818-.183c-4.776.42-9.621.293-14.291,1.581a40.269,40.269,0,0,0-14.5,7.952c-1.68,1.356-3.6,2.563-4.635,4.535-3.271,6.255-8.28,11.086-13.074,16.079-4.431,4.614-9.4,8.661-14.126,12.962-3.767,3.427-7.251,7.142-10.7,10.892A301.315,301.315,0,0,1,34.278,185.6c-4.147,3.539-8.047,7.365-12.162,10.944-5.214,4.535-10.328,9.224-16.572,12.391A9.538,9.538,0,0,1,2.6,210.072C.77,210.327-.331,209.2.089,207.4c.71-3.049,2.33-5.7,3.872-8.372a214.708,214.708,0,0,1,12.826-19.332c4.3-5.889,8.625-11.753,13.288-17.363,4.17-5.017,7.864-10.4,11.805-15.589a81.327,81.327,0,0,1,8.682-9.415c5.018-4.811,10.33-9.306,15.024-14.466A112.969,112.969,0,0,0,80.034,103.7c3.523-6.069,6.444-12.419,7.381-19.486a25.44,25.44,0,0,0,.023-6.576,3.534,3.534,0,0,0-.935-2.173c-3.485-3.536-4.9-8.064-6.134-12.713a40.925,40.925,0,0,1,1.893-27.518A59.93,59.93,0,0,1,94.027,17.808a26.168,26.168,0,0,1,4.078-3.3c3.96-2.75,7.868-5.587,11.95-8.146a34.453,34.453,0,0,1,11.468-4.63A63.957,63.957,0,0,1,135.6.009c4.868.115,9.917.1,14.16,3.16,3.909,2.821,7.205,6.223,8.527,11a18.979,18.979,0,0,1-1.706,15.177c-1.088,1.872-2.786,3.17-4.138,4.79A8.321,8.321,0,0,0,150.308,39.5ZM134.243,48.2c.154-.042.346-.116.386.113.117.677.24,1.356.3,2.04.043.534.29.669.787.657.568-.014.53-.362.51-.741-.024-.487-.01-.979-.074-1.46-.049-.367.21-.976-.31-1.038s-1.213-.262-1.563.453c-.886.358-1.44,2.085-.881,2.731.166.193.368.116.559.1.34-.035.325-.3.323-.544C134.269,49.737,134.255,48.968,134.243,48.2Zm34.228,46.137c.836.086.674.822.753,1.3a23.736,23.736,0,0,1,.142,2.645c1.784-1.113.453-2.657.873-3.94.831.908.324,2.042.671,2.99,1.586-.433.4-1.817.911-2.627.712.433.143,1.248.595,1.788.317-.207.631-.387.916-.6.452-.343.88-.717,1.328-1.066,7.719-6,12.4-14.042,15.487-23.141A63.885,63.885,0,0,0,192.9,59.956a40.794,40.794,0,0,0,.161-11.986c-.823-5.245-1.973-10.417-4.839-15.059-1.466-2.374-3.227-4.072-6.071-4.514a12.689,12.689,0,0,0-4.8-.03c-4.051.9-7.881,2.3-10.978,5.157-1.558,1.438-3.2,2.765-4.774,4.183-2.669,2.411-5.55,3.883-9.284,2.612a2.6,2.6,0,0,0-2.443.773c-1.637,1.408-2.626,3.284-3.819,5.026a3.376,3.376,0,0,0-.47,2.837,22.711,22.711,0,0,1-.826,12.528,39.046,39.046,0,0,1-5.351,9.645c-3.411,4.627-6.375,9.465-7.906,15.078a23.5,23.5,0,0,0-.906,10.29,18.209,18.209,0,0,0,1.386,4.015c.14.329.365.825-.057,1.08-.279.169-.612-.114-.823-.379a7.831,7.831,0,0,1-1.317-2.034,15.466,15.466,0,0,1-.826-7.06,41.063,41.063,0,0,1,5.566-17.085c.117-.2.49-.365.133-.765-.9,1.177-1.77,2.348-2.678,3.488a91.272,91.272,0,0,1-12.2,12.282,66.548,66.548,0,0,1-17.426,10.54c-.805.344-.781.886-.92,1.5-.063.278-.253.586-.018.784s.516-.021.775-.131c1.742-.741,3.484-1.474,5.291-2.058a21.429,21.429,0,0,0,4.922-1.925,53.336,53.336,0,0,0,8.676-6.986,6.377,6.377,0,0,1,3.073-2.146c-1.735,1.619-3.255,3.015-4.749,4.44a27.821,27.821,0,0,1-9.826,6.47c-2.512.887-4.966,1.9-7.443,2.87a1.7,1.7,0,0,0-1.141,2.184,22.959,22.959,0,0,0,4.509-1.969,1.781,1.781,0,0,1-1.013,1.114,27.375,27.375,0,0,1-2.772,1.171,1.439,1.439,0,0,0-1.1,1.359c-.237,1.8-.507,3.592-.79,5.574.784-.742,1.436-1.343,2.07-1.964a28.348,28.348,0,0,1,12.518-7.236c4.04-1.095,8.264-1.294,12.429-1.7a3.064,3.064,0,0,1,2.909.792,12.306,12.306,0,0,0,8.175,3.741c1.058.119,2.022.173,1.725-1.384-.007-.041.171-.118.274-.185.381,1.669.4,1.585.954,1.7,1.761.363,1.377-1.005,1.472-2.041.544.412.386.855.449,1.231.038.224-.017.465.332.546a1.181,1.181,0,0,0,1.594-1.241c-.015-.448-.069-.9-.05-1.343.026-.611-.256-.739-.817-.708-1.708.1-3.419.172-5.129.2a11.025,11.025,0,0,1-4.058-.568c-.258-.1-.627-.155-.535-.522s.439-.262.721-.222c.161.023.33-.005.487.029,5.1,1.1,10.113.246,15.058-.891a56.062,56.062,0,0,0,14.242-5.751c5.134-2.8,10.218-5.626,14.562-9.615,1.079-.991,2.021-2.1,3.055-3.127.167-.166.329-.623.639-.35s-.082.539-.217.791a.607.607,0,0,1-.169.174c-1.075.822-1.9,1.746-1.165,3.286-.741-.063-.637-.732-.838-.962-1.821.7-.615,1.967-.664,3.227a3.993,3.993,0,0,1-.586-.683c-.148-.317-.088-.909-.59-.782-.6.153-.531.756-.364,1.214a1.918,1.918,0,0,1,.02,1.741c-.234-.633-.38-1.036-.534-1.437-.069-.18.1-.587-.342-.431-.249.088-.314.281-.195.583a5.179,5.179,0,0,1,.359,2.591c-.674-.758-.589-1.7-.963-2.543l-8.142,5.389c-2.575,1.079-4.869,2.682-7.345,3.943-2.611,1.33-2.624,1.305-2.331,4.2a1.381,1.381,0,0,0,.091.218c.692-.3,1.731-.128,1.987-1.009a8.324,8.324,0,0,0-.058-2.485c.683.468.49,1.116.586,1.678.047.273-.193.78.3.765.438-.013.626-.329.513-.87a1.976,1.976,0,0,1,.172-1.9l.552,2.24c1.744-.742,3.443-1.472,5.148-2.185a1.054,1.054,0,0,0,.71-1.24C168.7,96.6,168.59,95.465,168.471,94.335ZM103.994,72.89c-.644.322-1.109.54-1.561.783-.363.2-.807.207-.909.818-.273,1.624-.616,3.239-1.014,4.837a29.169,29.169,0,0,1-1.488,5.246c.257-3.453,1.421-6.752,1.833-10.3-1.773.648-3.365,1.255-4.977,1.8-.542.185-.6.5-.6,1a10.684,10.684,0,0,1-.088,3.531,10.336,10.336,0,0,1-.361-3.287c-.032-.617-.2-.972-.848-.729a10.08,10.08,0,0,1-2.9.334c-.73.055-1.654-.174-2.147.191-.7.521.257,1.385.091,2.13a.835.835,0,0,0,.013.243c.6,6.3-1.217,12.131-3.592,17.815a85.151,85.151,0,0,1-14.665,22.828c-6.238,7.2-12.819,14.1-18.764,21.554-2.738,3.435-5.626,6.752-8.448,10.12q-5.406,6.451-10.5,13.147c-2.466,3.226-4.983,6.413-7.408,9.67-3.049,4.094-6.023,8.243-9.035,12.365q-2.043,2.794-4.1,5.574l.161.138,5.708-4.941.36.37c-5.6,4.43-10.648,9.349-14.2,15.615,4.5-3.619,9.02-7.211,13.7-10.589s8.608-7.668,13.279-11.45c-.059.917-.635,1-.952,1.315a138.258,138.258,0,0,1-16.078,13.745c-3.606,2.6-7.01,5.481-10.581,8.134a4.5,4.5,0,0,0-1.768,2.991,10.353,10.353,0,0,0,2.48-1.014c5.641-2.815,10.263-7.027,14.956-11.105s9.126-8.483,13.828-12.565q11.36-9.859,21.8-20.669c4.722-4.894,9.087-10.13,14.058-14.788,4.752-4.454,9.935-8.445,14.365-13.242,3.966-4.294,8.33-8.252,11.5-13.235.59-.929,1.537-1.6,1.973-2.577a24.428,24.428,0,0,0,1.6-7.785c.357-3.742.724-7.483,1.385-11.183a84.159,84.159,0,0,1,9.487-25.808c4.027-7.317,10.034-13.069,15.469-19.269.78-.889,1.623-1.724,2.437-2.584a1,1,0,0,0-.824.306C123.16,55.66,119.9,59.2,116.725,62.8a36.37,36.37,0,0,1-8.746,7.518,2.442,2.442,0,0,0-1.178,1.573c-.383,1.376-.856,2.727-1.292,4.089-.388-1.549.608-2.838.627-4.308a2.362,2.362,0,0,0-1.859,2.263,17.445,17.445,0,0,1-1.056,4.207c-.066.186,0,.556-.5.363C103.127,76.7,103.54,74.886,103.994,72.89ZM81.482,54.845a36.153,36.153,0,0,0,2.2,11.6A24.277,24.277,0,0,0,88.2,74.441a.975.975,0,0,0,.791.4,14.572,14.572,0,0,0,5.156-.668,37.344,37.344,0,0,0,9.67-5.36A63.159,63.159,0,0,0,117.4,56.636a13.376,13.376,0,0,1,1.534-1.57c3.28-2.957,6.549-5.928,9.871-8.838,2.016-1.765,4.233-3.129,7.1-2.842,1.775.178,3.559.269,5.332.457a2.035,2.035,0,0,0,1.919-.782,25.962,25.962,0,0,1,3.341-3.792c1.675-1.327,1.553-2.752,1.189-4.56-.387-1.918-.9-3.878-.4-5.89a35.218,35.218,0,0,1,2.066-5.586c1.2-2.736,3.006-5.21,3.514-8.242.46-2.751.834-5.513-1.063-7.919a11.231,11.231,0,0,0-4.113-3.338,24.673,24.673,0,0,0-8.349-1.953,54.9,54.9,0,0,0-14.291.816,28.2,28.2,0,0,0-3.119.443,44.452,44.452,0,0,0-7,2.585,60.208,60.208,0,0,0-9.438,5.485A67.172,67.172,0,0,0,90.237,26.251,44.769,44.769,0,0,0,81.482,54.845Zm20.5,44.547c2.134-.674,3.817-1.981,5.7-2.9A33.631,33.631,0,0,0,114,92.852a98.123,98.123,0,0,0,14.956-14.3c2.274-2.759,4.617-5.462,6.725-8.356q3.7-5.08,7.041-10.4c.615-.982,1.6-1.73,1.866-2.932a18.238,18.238,0,0,0,.032-4.61c-.018-.588-.27-.827-.856-.445a3.066,3.066,0,0,1-1.881.389,49.6,49.6,0,0,0-8.221.4c-2.87.335-5.6,1.067-7.743,3.337s-4.108,4.733-6.218,7.05a73.194,73.194,0,0,0-8.312,11.423,77.719,77.719,0,0,0-6.63,14.647A88.075,88.075,0,0,0,101.983,99.392ZM104.1,70.9a.583.583,0,0,0,.624-.045c3.194-1.87,6.432-3.726,8.822-6.619,3.585-4.338,7.85-8.018,11.553-12.244a15.431,15.431,0,0,1,13.071-5.494c1.77.1,1.779.058,1.277-1.5-.131-.406-.27-.512-.648-.5a8.3,8.3,0,0,1-1.463-.029,10.514,10.514,0,0,0-8.35,2.469,99.054,99.054,0,0,0-9.531,9.231c-4.824,5.016-9.527,10.128-15.081,14.367A1.721,1.721,0,0,0,104.1,70.9Zm25.681,33.725c-.49-.716-.491-.7-1.292-.714-2.905-.057-5.735.643-8.61.849A28.841,28.841,0,0,0,110.8,106.9a31.028,31.028,0,0,0-10.958,7.461,1.808,1.808,0,0,0-.333,2.405,41.3,41.3,0,0,1,13.754-9.444C118.5,104.994,124.152,105.025,129.779,104.621Zm28.328-4.843c-.425.143-.847.276-1.262.427a42.083,42.083,0,0,1-9.976,2.461c-1.635.175-1.626.23-1.514,1.849a6.918,6.918,0,0,1,.018.976c-.024.313-.041.58.382.586.39,0,.47-.236.455-.56-.029-.608-.054-1.217-.08-1.825l.39-.031c.088.488.208.972.255,1.463.055.571.3.791.873.657,2.681-.62,5.444-.85,8.064-1.775.761-.268,1.014-.621.911-1.39-.092-.681-.073-1.377-.1-2.067l.368-.014c.334.883.062,1.867.31,2.769C158.326,102.935,158.5,102.275,158.107,99.778Zm-4.6-81.7c-.732,1.775-1.957,3.211-2.629,4.933a1.808,1.808,0,0,0-.266,1.028c.3,1.707.475,3.448.916,5.119.247.936-.045,2.02.63,2.867,1.285-.8,1.685-1.692,1.041-3.127a38.857,38.857,0,0,1-1.42-4.453c1.393,1.56,1.561,3.635,2.551,5.475.745-1.268-.206-2.259-.327-3.319a17.289,17.289,0,0,1-.449-3.19c.854,1.5.839,3.277,1.676,4.911.367-.882.982-1.6.714-2.5C155.169,23.229,154.324,20.656,153.507,18.075ZM8.048,194.8c8.6-11.356,16.707-23.071,25.586-34.214C30.711,162.724,9.067,191.7,8.048,194.8ZM35.135,158.63c5.609-6.784,11.441-13.382,16.8-20.37C48.444,140.957,36.144,155.85,35.135,158.63ZM154.3,10.056c.114,2.127-.061,4.037.844,5.871.823,1.665,1.414,3.445,2.108,5.174C157.349,17.177,157.321,13.314,154.3,10.056ZM156.457,25.1a3.009,3.009,0,0,0,.4-3.1c-.741-1.69-1.338-3.443-1.992-5.171-.188-.495-.218-1.071-.708-1.46a3.021,3.021,0,0,0,0,2.9c.212.606.385,1.225.591,1.833C155.3,21.728,155.856,23.347,156.457,25.1Zm-6.993,2.231c-1.651,2.2-.6,6.328.06,9.238C151.5,33.479,149.3,30.428,149.464,27.331Zm-6.722,19.692c.335-.245,1.217.421,1.326-.486a4.459,4.459,0,0,0-.4-1.742c-.064-.2-.1-.649-.548-.375-.836.511-1.734.159-2.6.179-.281.006-.561-.109-.609.339a1.767,1.767,0,0,0,1.853,2.124C142.045,47.076,142.33,47.041,142.742,47.023Zm-6.923,25.94a38.842,38.842,0,0,0,6.538-9.876A113.759,113.759,0,0,0,135.819,72.963Zm11.665-30.826c.537-.555,1.072-1.1,1.595-1.653.455-.48.463-2-.053-2.166-.7-.229-.674.584-.985.923-.163.178-.314.368-.477.546A1.616,1.616,0,0,0,147.484,42.137ZM138.4,49.931c.1-.557-.3-1.021-.281-1.551.023-.674-.408-.648-.879-.674-.618-.035-.651.324-.6.775.059.563.126,1.126.175,1.691.06.7.461.8,1.082.744C138.655,50.845,138.363,50.319,138.4,49.931ZM150.977,33.3l.506-.068-1.208-8.067-.406.057C149.771,27.973,150.79,30.58,150.977,33.3Zm-6.714,14.4c-.823.488-2.159.035-1.725,1.6.125.453-.063,1.228.709,1.1C144.951,50.115,143.886,48.751,144.263,47.693Zm2.273-6.409c-1.461,1.171-1.735.751-.858,3.505C146.842,43.309,146.842,43.309,146.536,41.284ZM140.1,49.529c-.008-.2-.026-.4-.024-.606,0-.656-.167-1.109-.973-1.018-1,.114-.307.678-.293,1.048a11.579,11.579,0,0,0,.133,1.327c.067.432.345.583.784.553.52-.037.4-.389.4-.7C140.128,49.934,140.114,49.732,140.1,49.529Zm.434-.5c.384.517-.227,1.588.94,1.729.713.086.707-.444.583-.867-.2-.682.188-1.773-1.069-1.81C140.27,48.064,140.666,48.656,140.538,49.033ZM129.8,51.88c3.2-.847,3.2-.847,2.78-2.453A15.335,15.335,0,0,0,129.8,51.88Zm14.818-8.7a2.185,2.185,0,0,0,.377,3.041A5.673,5.673,0,0,0,144.617,43.179ZM86.335,122.652a6.318,6.318,0,0,1-6.676-6.215,7.067,7.067,0,0,1,6.819-7.386,6.073,6.073,0,0,1,6.424,6.213C92.989,119.7,90.223,122.4,86.335,122.652Zm-.337-1.7a5.624,5.624,0,0,0,5.24-5.632,4.725,4.725,0,0,0-5.045-4.623,5.321,5.321,0,0,0-4.977,5.636A4.727,4.727,0,0,0,86,120.953ZM88.45,123.6c-7.389,7.71-14.745,15.155-22.331,22.636C67.886,145.822,88.062,125.392,88.45,123.6Zm-23.9,26.223c-7.435,6.619-13.913,14.207-21.142,21.046C51,164.41,57.636,156.981,64.547,149.824Zm-2.273-2.655a78.944,78.944,0,0,0,5.48-5.691c2.79-3.186,5.683-6.282,8.514-9.432.358-.4.905-.765.714-1.492-5.455,5.325-9.929,11.449-15.523,16.7C62.022,147.5,62.133,147.3,62.274,147.169ZM42.241,168.575a53.927,53.927,0,0,0,9.375-8.686C48.461,162.752,45.285,165.593,42.241,168.575ZM91.035,77.746c.694,3.274.427,6.578.414,9.866C92.143,85.478,92.256,79.051,91.035,77.746ZM64.764,140.408l-5.734,5.2.3.338a45.731,45.731,0,0,0,5.684-5.283ZM43.53,164.681l5.408-5.415L48.672,159a50.2,50.2,0,0,0-5.418,5.407Zm-9.368,15.056a17.336,17.336,0,0,0,4.653-4.826l-4.965,4.527ZM90.6,92.124q-.89,2.906-1.778,5.81l.4.119a46.836,46.836,0,0,0,1.856-5.81ZM22.336,183.735l4.625-4.174-.237-.264a27.859,27.859,0,0,0-4.646,4.151ZM94.7,85.974a16.267,16.267,0,0,0-.783,5.671A18.9,18.9,0,0,0,94.7,85.974Zm-60.96,85.511a17.149,17.149,0,0,0,3.525-3.633C35.78,168.593,33.815,170.659,33.737,171.485Zm1.211,1.208c1.308-.422,1.987-1.576,2.911-2.444A6.512,6.512,0,0,0,34.948,172.693ZM97.09,87.265c.041-.191,0-.348-.144-.414-.27-.125-.379.15-.393.3-.1,1.06-.57,2.081-.095,3.2C96.666,89.323,96.868,88.292,97.09,87.265Zm1.256-1.927L97.7,89.447A4.545,4.545,0,0,0,98.346,85.338ZM153.7,92.306c-2.374.256-4.7.222-6.464-1.642a12.266,12.266,0,0,1-3.81-8.442c-.071-6.626,2.336-12.53,5.216-18.312,3.417-6.858,8.011-12.886,12.938-18.708a74.239,74.239,0,0,1,9.062-9.2c4.381-3.655,9.218-2.058,12.247,1.626A19.556,19.556,0,0,1,187,47.518a43.042,43.042,0,0,1-2.238,20.449c-.475,1.379-.933,2.765-1.453,4.127-1.1,2.888-3.231,5.055-5.266,7.261a45.485,45.485,0,0,1-14.36,10.409A22.972,22.972,0,0,1,153.7,92.306Zm-2.837-9.227a14.727,14.727,0,0,0,.141,2.556c.222.988-.035,2.343.955,2.868,2.622,1.39,5.437,2.251,8.4,1.186a39.328,39.328,0,0,0,13.551-7.879c2.911-2.671,5.737-5.432,7.646-8.96a47.011,47.011,0,0,0,2.162-5.932,26.584,26.584,0,0,0,1.964-8.851,20.318,20.318,0,0,0-3.114-10.549,8.745,8.745,0,0,0-4.181-3.951,3.263,3.263,0,0,0-2.679-.27,16.192,16.192,0,0,0-4.914,3.087,74.541,74.541,0,0,0-7.761,8.921c-2.693,3.714-5.869,7.071-7.859,11.292C152.709,71.835,150.351,77.074,150.865,83.079Zm32.786-41.62a14.611,14.611,0,0,0-2.883-3.958c-2.849-2.827-5.371-2.994-8.568-.622-.2.146-.4.286-.586.439a67.624,67.624,0,0,0-8.948,9.155c-3.847,4.535-7.682,9.058-10.641,14.259-3.29,5.78-6.355,11.616-7.079,18.39-.4,3.757.154,7.18,2.687,10.146a6.272,6.272,0,0,0,6.346,1.925c.217-.07.618-.022.6-.572-4.238-1.125-7.272-3.456-7.653-8.521,1.073,1.664,1.43,3.471,2.889,4.8a6.4,6.4,0,0,0-.033-.7,23.207,23.207,0,0,1-.267-8.114,40.992,40.992,0,0,1,6.2-16.136c2.982-4.455,6.341-8.671,9.732-12.831,2.382-2.923,5.006-5.674,8.671-7.114a4.689,4.689,0,0,1,2.57-.327,8.056,8.056,0,0,1,4.429,2.381,19.193,19.193,0,0,1,4.771,7.569c.029-2.663-1.412-4.645-3-6.554-.415-.5-.876-.961-1.313-1.443-.4-.44-.98-.735-1.116-1.393a19.2,19.2,0,0,1,4.477,4.294c-.823-1.908-2.406-3.289-3.485-5.043,1.231.6,1.813,1.915,3,2.567-1.1-2.682-3.535-4.119-5.563-5.967C180.746,38.622,181.962,40.073,183.651,41.459ZM119.52,97.525a53.876,53.876,0,0,1-6.022,3.624A10.963,10.963,0,0,0,119.52,97.525Zm1.308,2.4c1.042-.639,2.318-.924,3.05-2.022C122.821,98.514,121.366,98.576,120.828,99.927Zm27.144-83.118c.377-.631.571-.957.766-1.282A9.62,9.62,0,0,1,147,20.651a166.059,166.059,0,0,1-14.682,17.916,101.1,101.1,0,0,1-11.826,11.1,105.156,105.156,0,0,1-9.674,6.975c-4.739,2.814-9.953,3.911-15.1,1.8a12.222,12.222,0,0,1-6.966-7.7c-1.525-4.643-1.061-9.226.286-13.726A40.483,40.483,0,0,1,95.1,24.3a28.674,28.674,0,0,1,5.6-5.73,119.529,119.529,0,0,1,18.181-11.1c3.129-1.607,6.627-2.158,10.081-2.632a27.311,27.311,0,0,1,9.189.077,14.23,14.23,0,0,1,8.559,5.411,5.921,5.921,0,0,1,1.114,3.294C147.9,14.553,147.914,15.49,147.972,16.809ZM119.517,8.866a6.56,6.56,0,0,0-3.383,1.931l-2.554,1.4a50.1,50.1,0,0,0-7.315,4.361C102.192,19.621,97.933,22.369,95,26.835a35.2,35.2,0,0,0-6.1,17.076A14.54,14.54,0,0,0,91.632,54.1a8.421,8.421,0,0,0,4.41,3.467,20.318,20.318,0,0,0,8.534.2,20,20,0,0,0,9.778-5.025c-1.913,1.2-3.982,2.114-5.969,3.178a13.154,13.154,0,0,1-9.629,1.326A10.044,10.044,0,0,1,90.9,49.7c-.729-2.643-.513-5.333-.5-8.005a11.758,11.758,0,0,1,1.793-6.5c-.145.818-.4,1.612-.552,2.426a4.647,4.647,0,0,0-.073,2.509,10.36,10.36,0,0,0,1.155-2.078,55.141,55.141,0,0,1,26.743-23.108c4.513-1.863,9.239-2.907,14.179-2.012,5.171.936,8.868,4.782,9.222,9.442.028.365-.462,1.185.33,1.122a1.3,1.3,0,0,0,1.093-1.51A7.523,7.523,0,0,0,144,20.934c-.255-1.018-.942-1.9-.945-3.009.965,1.012,1.272,2.382,1.984,3.746.855-1.4-.5-2.428-.272-3.672.8.59.646,1.6,1.379,2.34.612-2.415-1.1-4.019-1.7-6.211,1.349,1.115,1.5,2.632,2.368,3.679-.818-5.186-4.2-8.083-8.933-9.794,4.126.363,6.506,3.128,8.779,6.524a6.626,6.626,0,0,0-1.557-3.915A13.519,13.519,0,0,0,135.034,6,40.677,40.677,0,0,0,123,7.51c-1.211.36-2.526.5-3.528,1.4Zm9.8,5.931a20.175,20.175,0,0,0-5.519.934c-13.678,4.3-23.832,12.938-30.96,25.251-.666,1.151-1.663,2.268-1.55,3.733a27.292,27.292,0,0,0,.626,4.7,8.238,8.238,0,0,0,4.641,5.9,12.386,12.386,0,0,0,8.334.505,38.042,38.042,0,0,0,10.483-4.985c3.091-2.023,5.627-4.794,8.782-6.74a20.332,20.332,0,0,0,4.254-3.411c3.6-3.873,7.228-7.726,10.447-11.928.8-1.044,1.958-1.968,2.182-3.3a8.464,8.464,0,0,0-2.932-8.323C135.553,14.972,132.474,14.7,129.313,14.8Zm-9.8-5.931a16.259,16.259,0,0,1-3.383,1.931l-2.554,1.4c.048.279-.443.473-.17.748.249.252.5.027.745-.129,1.26-.794,2.53-1.572,3.8-2.349.378-.231.781-.419,1.15-.663s.857-.36,1.066-.922l-.7.03ZM153.633,61.3a35.136,35.136,0,0,0-4.986,12.74A101.55,101.55,0,0,1,153.633,61.3ZM166,45.712c2.767-2.009,5.311-4.309,8.06-6.376A26.8,26.8,0,0,0,166,45.712Zm1.952-3.385q3.009-2.052,6.017-4.106a.275.275,0,0,0,.07-.418c-.128-.176-.292-.087-.424,0-.741.476-1.506.921-2.207,1.451a22.692,22.692,0,0,0-3.671,2.872ZM147.325,73.684q1.4-3.5,2.791-7l-.376-.149a41.191,41.191,0,0,0-2.8,7.011Zm13.324-22.328a20.05,20.05,0,0,0-4.314,5.653l.28.215,4.276-5.689Zm-5.459,5.57a7.88,7.88,0,0,0,2.637-4.221A21.6,21.6,0,0,0,155.19,56.926Zm-8.513,19.625c-.218,1.171-.628,2.328-.077,3.534C146.666,78.908,147.166,77.743,146.677,76.551ZM94.45,33.486c3.054-3.166,5.847-6.576,9.03-9.623.348-.334,1.2-.793.849-1.115-.442-.4-.978.34-1.388.738-2.373,2.294-4.49,4.825-6.7,7.272-.969,1.074-1.93,2.157-3.058,3.419C94.045,34.21,94.192,33.754,94.45,33.486ZM110.4,18.317c4.417-1.736,8.324-4.505,12.712-6.359C118.519,13.319,114.48,15.854,110.4,18.317Zm11.2-7.539a23.9,23.9,0,0,0-8.645,4.278C115.88,13.694,118.713,12.174,121.609,10.778Zm14.247-1.969c-2.428-.336-4.858-.788-7.214.314Zm-1.769-2.154a19.649,19.649,0,0,0-6.762.718A27.682,27.682,0,0,0,134.087,6.655Zm-35.9,20.312,4.826-4.795C101.758,22.312,98.355,25.7,98.185,26.967Zm2.5-4.216c.2-.182.348-.342.259-.6a.219.219,0,0,0-.378-.1,9.878,9.878,0,0,0-3.254,3.835A43.908,43.908,0,0,1,100.688,22.751Zm39.186-8.457c.136.122.321.278.52.073.151-.156.059-.306-.067-.4-.795-.618-1.411-1.493-2.555-1.6C138.471,13.005,139.165,13.657,139.874,14.294Z" fill="#151611"/>
</svg>
