<svg xmlns="http://www.w3.org/2000/svg" viewBox="0 0 152.571 237.942">
  <path d="M52.38,194.658a14.35,14.35,0,0,0-3.208.207,48.778,48.778,0,0,1-10.482-.049,133.008,133.008,0,0,1-19.934-2.628,34.3,34.3,0,0,1-12.927-5.552c-2.395-1.747-3.786-3.858-3.595-7.094.251-4.238,0-8.5-.021-12.758-.046-11.66-.109-23.32-.115-34.98-.011-24.079-.095-48.16.06-72.238.094-14.527.1-29.054.229-43.58a2.737,2.737,0,0,0-.726-2.017A6.25,6.25,0,0,1,.006,9.333c.13-3.285,2.378-4.424,4.857-5.314a42.76,42.76,0,0,1,9.109-1.691c5.118-.656,10.267-1.023,15.4-1.587C33.152.325,36.994.445,40.81.318Q44.745.186,48.677.031C53.136-.146,57.561.5,62,.584s8.732,1.169,13.089,1.788c3.513.5,7.082.92,10.358,2.5a5.336,5.336,0,0,1,1.729,8.51,1.5,1.5,0,0,0-.487,1.26,112.135,112.135,0,0,1,.62,15.362c-.083,2.232.075,4.454.064,6.681,0,.949.274,1.1,1.194.875a45.506,45.506,0,0,1,12.963-1.288,40.375,40.375,0,0,1,13.058,2.345,12.919,12.919,0,0,1,3.691,2.361c1.132.964.978,2.392,1.081,3.65.57,6.908-.333,13.781-.6,20.671-.189,4.852-.349,9.706-.581,14.556q-.732,15.326-1.528,30.649-.411,8.106-.861,16.211c-.213,3.731-.472,7.459-.73,11.188a3.142,3.142,0,0,0,.38,1.826c1.749,3.115,3.3,6.359,5.266,9.33,3.207,4.846,6.028,9.909,8.919,14.935,4.913,8.541,9.827,17.079,14.893,25.534,3.341,5.578,6.234,11.5,7.478,18.054a36.412,36.412,0,0,1,.041,12.628,19.019,19.019,0,0,1-2.743,7.614,15.328,15.328,0,0,1-12.072,7.131c-8.231.822-16.4,2.228-24.659,2.763a168.145,168.145,0,0,1-16.832.014c-3.1-.11-6.2-.1-9.3-.326a123.087,123.087,0,0,1-18.029-2.3A49.17,49.17,0,0,1,54.832,230a7.447,7.447,0,0,1-3.034-3.109c-1.143-2.187-2.184-4.42-3.106-6.708-1.592-3.949-1.062-7.981-.383-12a43.033,43.033,0,0,1,3.946-13.032A2.292,2.292,0,0,0,52.38,194.658ZM87.1,9.937c-.654.338-1.163.644-1.7.874a51.063,51.063,0,0,1-17.659,3.925,7.017,7.017,0,0,0-4.52,1.514c-1.442,1.249-3.054,2.311-4.426,3.629-2.245,2.156-4.8,2.114-7.521,1.389a23.205,23.205,0,0,1-6.886-3.42,10.69,10.69,0,0,0-6.589-1.926,19.263,19.263,0,0,1-2.148-.061c-5.574-.39-11.161-.547-16.726-1.1A72.155,72.155,0,0,1,7.2,12.774c-1.87-.5-3.679-1.193-5.776-1.95.388.641.6,1.018.837,1.374a10.946,10.946,0,0,0,4.6,3.429,30.5,30.5,0,0,0,11.9,3.34c3.685.206,7.39.251,11.087.284,1.951.018,3.883.242,5.826.331a24.44,24.44,0,0,1,4.192.7c.411.092,1.091.074,1.132.807-.627.273-1.184-.083-1.765-.131-5.542-.459-11.1-.62-16.654-.69A41.624,41.624,0,0,1,8.115,17.5c-1.5-.572-2.978-1.192-4.488-1.8.222,27.267.442,54.411.663,81.7a25.8,25.8,0,0,1,2.839-1.8,22.4,22.4,0,0,1,3.127-1.02c.57-.169,1.011-.33.907-1.1-.115-.852-.73-.527-1.176-.617-.354-.073-.966.173-.949-.395s.634-.287.983-.341c.531-.082,1.377.245,1.124-.8-.179-.738.793-2.081-.99-2.077-.386,0-.888-.014-.872-.566s.551-.406.839-.372c.867.1,1.144-.261,1.052-1.073a6.9,6.9,0,0,1-.01-1.194c.064-1.073.058-2.057-1.44-2.076-.257,0-.708-.231-.625-.592.112-.489.562-.3.9-.233.391.079,1,.455,1.1-.064a6.426,6.426,0,0,0-.007-2.606c-.128-.59-.924-.136-1.37-.371a3.017,3.017,0,0,0-.57-.161c-.3-.087-.5-.268-.411-.605s.39-.357.676-.306c.234.042.459.133.693.176.672.123,1.127.077,1.077-.851-.078-1.469-.071-2.947,0-4.417.042-.888-.31-.977-1.045-.825a4.149,4.149,0,0,1-2.352-.034c-.251-.093-.626-.093-.6-.442.024-.314.383-.4.649-.432a9.089,9.089,0,0,1,1.9-.112c1.153.114,1.622-.3,1.42-1.465-.123-.708.437-1.755-.966-1.771-.079,0-.215-.236-.219-.365-.008-.269.254-.3.432-.29.769.019.79-.472.764-1.034a8.121,8.121,0,0,1-.005-1.551c.164-1.1-.137-1.648-1.359-1.449-.406.066-1.017.071-.967-.549.042-.527.616-.33.986-.392.439-.075,1.191.263,1.265-.256a11.679,11.679,0,0,0,.012-3.447c-.117-.733-1.042-.152-1.526-.445a1.278,1.278,0,0,0-.321-.142c-.247-.068-.477-.17-.413-.469.069-.317.367-.224.588-.251.541-.068,1.241.27,1.593-.115.389-.425.045-1.143.114-1.731.028-.236-.014-.479.011-.716.1-.936.03-1.709-1.252-1.516a.483.483,0,0,1-.607-.429.429.429,0,0,1,.524-.493c1.493.278,1.342-.721,1.308-1.638-.089-2.36-.09-2.35-2.431-2.438-.359-.014-1,.188-1-.319-.007-.637.663-.381,1.046-.392,2.307-.062,2.272-.052,2.325-2.446.02-.89-.016-1.5-1.165-1.245a.579.579,0,0,1-.7-.339c.309-1.051,1.709.223,1.836-1.015a6.543,6.543,0,0,0-.044-2.138c-.2-.823-1.339-.055-1.711-.784.33-.444.783-.379,1.213-.392.239-.007.55,0,.555-.3.014-.912.009-1.828-.06-2.737-.036-.469-.489-.286-.774-.31-.454-.038-.96.065-1.237-.653a8.966,8.966,0,0,1,1.2-.062c1.392.119.813-.94.925-1.553.122-.671-.005-1.171-.9-1.1a2,2,0,0,1-1.919-.572A3.23,3.23,0,0,1,10,32.677c.8.049,1.211-.164,1.1-1.036a2.879,2.879,0,0,1,.018-.834c.134-.812-.227-1.043-1-1.006a19.214,19.214,0,0,1-2.5-.065c-.288-.023-.713-.2-.662-.545.058-.395.478-.36.791-.263a12.288,12.288,0,0,0,2.611.152c.627.056.818-.187.832-.807.013-.578-.286-1.247.259-1.759a.749.749,0,0,1,.357.51c.187.663-.336,1.611.356,1.965a5.185,5.185,0,0,0,2.119.084c.438,0,.878-.03,1.313.01.346.032.812-.212,1,.324-.331.414-.784.374-1.218.378-.916.007-1.832,0-2.747.011-.257,0-.673-.111-.7.249a10.064,10.064,0,0,0,.029,2.614c.105.53.881.041,1.263.35.043.035.029.141.03.147-.3.6-1.335-.314-1.356.731-.022,1.061-.467,2.4,1.582,2.44-2.4.271-1.418,1.936-1.589,3.077-.157,1.049.972.6,1.312,1.062-.22.649-1.586-.149-1.31,1.056.236,1.027-.869,2.586,1.311,2.931-1.327-.09-1.349.621-1.333,1.5.041,2.409.012,2.394,2.436,2.476.575.019,1.284-.243,1.748.656-.546.079-1,.148-1.455.21-.886.121-2.092-.631-2.574.1-.442.673-.117,1.847-.142,2.8-.018.67-.162,1.4.929,1.3a.4.4,0,0,1,.425.456c-.05.254-.318.228-.49.2-.822-.136-.915.324-.869.971a8.938,8.938,0,0,1,0,1.552c-.117,1.1-.038,2.039,1.4,2.1.03,0,.056.121.083.185-1.474.9-1.474.9-1.471,2.976a.787.787,0,0,1,0,.119c-.127.864.108,1.357,1.117,1.22.371-.051.942.06.95.46.01.493-.564.4-.94.459s-1.011-.214-1.056.231A11.028,11.028,0,0,0,12,67.857c.125.57,1.146.184,1.721.414.094.037.263,0,.207.258-.232.347-.686.278-1.034.306-.768.061-1.059.322-1.033,1.157.057,1.847,0,1.851,1.8,1.843.6,0,1.2.007,1.789-.042a18.686,18.686,0,0,1,3.471.142c-.137.655-.587.565-.959.661-1.68.432-3.408.081-5.111.337-.871.132-1.017.427-.981,1.18.054,1.112.053,2.23.006,3.343S11.727,79.677,13.2,80c.045.01.049.206.063.277-.367.459-1.276-.3-1.333.617a8.028,8.028,0,0,0,.119,2.6c.152.549,1.052.367,1.535.7.143.1.423.041.393.41-.429.279-.851.044-1.292-.065-.287-.072-.718-.154-.726.328a14.143,14.143,0,0,0,.113,3.2c.107.495,1.067.256,1.56.577.05.033.06.127.09.2-.093.231-.322.215-.5.217-1.06.008-1.152.626-1.256,1.533-.11.952.573,1.817.049,2.827-.27.521.329.557.829.441a115.128,115.128,0,0,1,24.631-2.622,175.793,175.793,0,0,1,26.306,1.375,85.2,85.2,0,0,1,15.273,3.1c1.311.434,2.626.858,3.987,1.3-.187-6.208-.387-12.292-.535-18.377-.021-.87-.242-1.149-1.147-1.106a4,4,0,0,1-2.71-.323,10.776,10.776,0,0,1,2.441-.11c1.05.084,1.388-.319,1.342-1.374-.218-5.048-.408-10.1-.536-15.15-.075-2.979-.013-5.961-.013-8.917-2.657.2-5.2.781-7.831.514.116-.5.451-.422.695-.4a31.3,31.3,0,0,0,4.273-.269c2.863-.109,3.053-.34,2.861-2.781a2.342,2.342,0,0,0-.028-.356c-.381-1.557-.844-1.848-2.481-1.674a1.948,1.948,0,0,1-1.823-.461,20.713,20.713,0,0,0,3.577-.26c-.441-.739.077-1.4.032-2.093-.161-2.477,1.359-3.876,3.278-4.9A1.594,1.594,0,0,0,85.493,37.3c-.084-4.73-.107-9.461-.136-14.191-.016-2.606,0-5.212,0-8.089a17.509,17.509,0,0,1-5.117,2.357c-3.035.822-6.179,1.086-9.224,1.876-3.34.866-6.8,1.213-10.13,2.144a2.452,2.452,0,0,0-1.7,1.488,12.275,12.275,0,0,1-2.368,3.7,4.48,4.48,0,0,1-6.273.518,15.457,15.457,0,0,1-1.981-1.893,23.336,23.336,0,0,0-8.5-5.963c-1.245-.493-2.638-.613-3.79-1.47.6-.435,1.09.076,1.613.063,3.25-.077,5.979,1.284,8.53,3.128,1.813,1.31,3.346,2.938,5.029,4.4,1.749,1.516,2.557,1.467,4.067-.285a25.711,25.711,0,0,0,1.7-2.154,21.664,21.664,0,0,1,5.169-5.058,1.053,1.053,0,0,1,1.043-.268l-2.024,1.914a6.348,6.348,0,0,0,1.052-.056c4.487-1.18,9.119-1.667,13.6-2.827,2.929-.757,5.985-1.224,8.542-3.026C85.842,12.731,87.271,11.944,87.1,9.937ZM57.558,218.229a3.527,3.527,0,0,1-.521-2.007,51.059,51.059,0,0,1,.73-6.958,52.827,52.827,0,0,1,4.46-14.84,90.7,90.7,0,0,1,10.164-15.648c2.875-3.764,5.087-7.936,7.666-11.888-1.98-1-4.753-.667-5.255-3.688-.311.464-.612.875-.875,1.309-2.641,4.355-5.2,8.765-8.08,12.967-3.486,5.083-6.454,10.485-9.768,15.676-3.15,4.934-4.629,10.569-5.454,16.347-.5,3.479-.921,6.966.7,10.309.78,1.61,1.558,3.221,2.319,4.839a11.55,11.55,0,0,0,5.57,5.5c5.75,2.845,12.01,3.618,18.253,4.344,3.347.39,6.737.446,10.111.566a208.122,208.122,0,0,0,25.532-.22c7.8-.682,15.576-1.73,23.374-2.5,4.912-.483,8.616-2.968,11.758-6.539a5.993,5.993,0,0,0,.552-.912c1.159-1.934,1.2-4.149,1.6-6.277a23.853,23.853,0,0,0,.225-7.481c-1.081-8.267-4.744-15.564-8.99-22.6-2.075-3.436-4.342-6.761-6.284-10.268-2.388-4.31-4.8-8.605-7.284-12.86-.366-.627-.6-.76-1.247-.369a13.5,13.5,0,0,1-4.026,1.406c-7.159,1.655-14.463,1.869-21.757,2.09a95.094,95.094,0,0,1-9.629-.4,77.3,77.3,0,0,1-8.681-.97,1.087,1.087,0,0,0-1.251.636c-3.524,5.905-7.6,11.428-11.636,16.986a62.646,62.646,0,0,0-8.2,14.143,58.236,58.236,0,0,0-3.7,15.058A29.859,29.859,0,0,1,57.558,218.229Zm5.208-88.547a1.333,1.333,0,0,1,1.222-.512c1.346-.072,2.7-.066,4.035-.257q7.08-1.02,14.141-2.166c2.045-.335,2.031-.409,1.934-2.446-.023-.477-.051-.955-.045-1.432.006-.543-.129-.662-.7-.48a23.819,23.819,0,0,1-3.093.724c-2.752.478-5.451,1.21-8.234,1.558-3.239.4-6.5.388-9.74.657-.376.031-.829.167-1.163-.183.154-.3.366-.245.553-.27,2.367-.318,4.76-.3,7.135-.418,4.61-.228,9.02-1.449,13.5-2.349,1.86-.374,1.793-.477,1.649-2.425-.055-.743-.377-.873-.973-.778-1.245.2-2.485.423-3.73.611-3.437.518-6.848,1.159-10.341,1.352-2.564.142-5.141.316-7.7.591a7.579,7.579,0,0,1-3.141-.132c.3-.159.387-.249.482-.253,4.438-.189,8.863-.559,13.286-.971,3.808-.355,7.539-1.21,11.325-1.706.5-.066.706-.394.677-.933-.074-1.391-.078-2.785-.146-4.177-.073-1.48-.09-1.477-1.513-1.094-.531.143-1.059.307-1.6.4a11.131,11.131,0,0,1-3.348.41c1.363-.485,2.759-.809,4.141-1.183,2.344-.633,2.341-.646,2.159-3.048a1.339,1.339,0,0,0-.1-.271c-.337.088-.681.164-1.018.268a71.793,71.793,0,0,1-13.106,2.5A160.437,160.437,0,0,1,46.653,112c-11.375-.327-22.673-1.256-33.734-4.136-.279-.073-.69-.516-.806.169-.076.455-.047.89.543,1a8.877,8.877,0,0,1,1.155.232c.233.077.672.033.626.409-.049.395-.468.3-.766.378-.522.129-1.185-.516-1.5.052-.239.426-.058,1.088-.063,1.644a5.4,5.4,0,0,1,0,.6c-.11.9.015,1.57,1.191,1.431.254-.03.674-.045.706.428-1.9.556-1.9.556-1.89,2.634a.788.788,0,0,1,0,.119c-.113.747.156.993.956,1.04a32.261,32.261,0,0,1,5.1.411c.377.083.589.228.585.6,0,.539-.444.353-.708.356a41.1,41.1,0,0,1-5.011-.141c-.3-.033-.83-.27-.867.288a9.58,9.58,0,0,0,.055,2.966c.152.59,1.086.059,1.619.311.053.026.076.115.241.379-1.4-.014-2.138.407-2.013,2.011.133,1.716,1.613.328,2.134,1.3-1.528.057-2.355.6-2.129,2.306.128.969.375,1.225,1.255,1.092a2.227,2.227,0,0,1,1.393.182,2.7,2.7,0,0,1-1.777.556c-.278,0-.693,0-.722.282a10.013,10.013,0,0,0-.039,2.493c.1.628.828.172,1.205.4.265.161.725,0,.877.595-.491.03-.915.049-1.338.082-1.412.111-.616,1.194-.778,1.836-.191.755.306.822.908.776q2.021-.156,4.046-.241c.426-.019,1.088-.06,1.145.375.067.513-.6.452-.995.559-1.435.4-2.937.138-4.383.432-.251.051-.67-.078-.694.29a26.163,26.163,0,0,0-.023,2.744c.029.675.93.113,1.074.753-.785.143-1.1.556-1.141,1.471-.053,1.316,1.328.34,1.571,1.279-1.474-.127-1.572.726-1.563,1.885.008,1.132.993.439,1.483,1.078-2.045,0-1.382,1.413-1.434,2.447-.069,1.373,1.438.5,1.841,1.253-.2.361-.566.228-.844.243-1.347.069-.941,1.045-.992,1.812-.06.913.586.777,1.123.787a25.277,25.277,0,0,1,3.925.24c.382.067.788.129.768.562-.021.474-.5.434-.836.434-1.393,0-2.788,0-4.179-.063-.617-.026-.884.141-.817.788.1,1.031-.478,2.414,1.8,2.347-.557.283-.7.421-.82.406-.785-.1-.958.239-.99,1-.036.851.314,1.127,1.053,1.2.478.05,1.036-.048,1.314.534-.222.321-.541.239-.773.2-1.318-.242-1.811.287-1.569,1.578a1.469,1.469,0,0,1,0,.477c-.145.917.1,1.426,1.169,1.349a5.7,5.7,0,0,1,1.544.353,1.244,1.244,0,0,1-1.366.452c-1.2-.39-1.365.159-1.375,1.207-.009.908.12,1.379,1.157,1.4.336.008.979-.111,1.188.5a1.607,1.607,0,0,1-1.2.112c-.927-.18-1.231.225-1.115,1.1a3.381,3.381,0,0,1,0,.835c-.086.714.2.928.926,1,1.509.156,3.023.082,4.528.213.379.033,1,.049.93.667-.057.491-.566.472-.963.469-1.433-.01-2.868.008-4.3-.06-.773-.037-1.2.064-1.1,1a19.752,19.752,0,0,1-.03,2.382c-.005.372,0,.781-.511.759-.411-.017-.452-.376-.454-.707,0-.637-.045-1.278,0-1.911.08-1.017.061-1.906-1.324-1.9-.379,0-.772-.175-.707-.62s.512-.412.863-.454.727.2,1.035-.035c.425-.333.053-2.561-.455-2.773-.274-.113-.548-.231-.528-.547a.536.536,0,0,1,.4-.348c.728.062.8-.4.7-.9-.112-.566.466-1.414-.628-1.621-.251-.047-.57-.139-.545-.518.028-.429.374-.351.628-.343.406.012.57-.145.559-.553-.022-.756-.015-1.513-.022-2.269a.466.466,0,0,0-.5-.529c-.457-.029-1.179.035-1.085-.584.109-.727.835-.269,1.3-.309.071-.006.143,0,.215,0,.14-1.667.14-1.667-1.382-1.778-.039,0-.08,0-.119-.008-.307-.05-.724-.034-.743-.433-.024-.523.436-.46.785-.468.318-.007.637.011.955.007.227,0,.552.06.559-.266a7.55,7.55,0,0,0-.1-2.363c-.162-.519-.929-.182-1.421-.246-.428-.055-1,.021-1.053-.528-.064-.646.579-.51.964-.586a7.183,7.183,0,0,1,1.071-.054c.249-.011.547-.057.5-.362-.1-.731.624-1.83-.843-2-.22-.026-.507-.121-.464-.434.017-.119.21-.312.312-.306,1.427.093.994-.96,1.03-1.685.029-.578.278-1.355-.816-1.241a.443.443,0,0,1-.455-.463c-.012-.36.294-.4.578-.437.252-.03.538.1.684-.291a1.509,1.509,0,0,0-1.036-2.1c-.341-.082-.689-.145-.632-.538.054-.372.406-.237.682-.219.5.033,1.04.183,1.022-.689-.014-.685-.068-1.172-.916-1.129a4.407,4.407,0,0,1-.828-.09c-.294-.042-.59-.166-.525-.5.057-.294.387-.185.6-.195,1.641-.079,1.641-.076,1.642-1.711a6.568,6.568,0,0,1,.011-.716c.058-.523-.165-.714-.681-.69-.6.027-1.194.007-1.791-.006-.308-.006-.567-.141-.543-.483a.5.5,0,0,1,.5-.431c.476-.033.961.022,1.43-.046.419-.06,1.271.295,1.04-.613-.173-.675.849-1.867-.745-2.01-.253-.022-.485-.085-.581-.335-.086-.22.067-.471.238-.469,1.476.026,1.078-1.045,1.135-1.866.047-.681.079-1.311-.922-1.156a.394.394,0,0,1-.452-.3.34.34,0,0,1,.251-.463c1.514-.079,1.046-1.21,1.13-2.06.066-.68-.01-1.172-.9-1.043-.288.041-.723-.035-.7-.452.023-.372.4-.412.734-.439.29-.024.751.151.8-.285a5.987,5.987,0,0,0-.021-2.129c-.115-.435-.78-.148-1.194-.212-.291-.045-.605-.07-.575-.441.036-.43.421-.226.66-.276.37-.078,1.009.193,1.073-.219a8.4,8.4,0,0,0,.048-2.956c-.148-.706-1.038-.208-1.573-.369-.354-.107-.911.062-.92-.5s.522-.469.9-.5c1.651-.135,1.652-.134,1.674-1.78,0-.239-.013-.479.008-.716.059-.692-.071-1.185-.943-1.084-.307.035-.707.023-.7-.433.012-.418.395-.323.643-.3.693.06,1.167-.187.962-.919-.31-1.106.89-2.586-.765-3.327-.482-.215-1.345-.159-1.238-.782s.884-.1,1.356-.187c.269-.047.712.225.658-.34-.036-.379.3-.9-.313-1.116a30.1,30.1,0,0,1-6.518-3.09c0,4.251,0,8.344,0,12.437-.017,16.517.007,33.034-.08,49.551-.029,5.477.348,10.963-.239,16.433a.971.971,0,0,0,.288.762,17.138,17.138,0,0,0,2.382,2.32,28.373,28.373,0,0,0,8.452,3.787c6.761,2.165,13.846,2.163,20.791,3.055a89.794,89.794,0,0,0,17.156.08,1.089,1.089,0,0,0,1.05-.572c.365-.685.781-1.342,1.2-2.061-7.443,1.182-21.563,1.381-23.217.237a51.277,51.277,0,0,1,6.644.344,43.933,43.933,0,0,0,6.315.018c2.837-.225,5.659-.635,8.5-.859,2.052-.162,2.71-.586,3.312-2.534-4.639.393-9.3.783-14.177.866a1.135,1.135,0,0,1,.9-.5c3.649-.169,7.291-.434,10.935-.677,1.9-.127,3.513-.367,4.139-2.468.039-.131.22-.219.142-.358a150.868,150.868,0,0,1-40.737-2.34,5.748,5.748,0,0,1,1.661-.072c3.553.518,7.1,1.082,10.653,1.6,3.978.584,8,.491,12,.688,4.929.244,9.866-.03,14.8-.233.815-.034,1.838.069,2.382-.782.952-1.489,1.821-3.032,2.786-4.657a84.642,84.642,0,0,1-15.231,1.448c.337-.57.8-.505,1.221-.514a89.691,89.691,0,0,0,11.588-1c1.047-.159,2.321-.1,3.064-.958a34.2,34.2,0,0,0,2.454-3.656,72.933,72.933,0,0,1-11.2,1.3.512.512,0,0,1,.595-.465,65.719,65.719,0,0,0,8.358-.982c1.538-.25,3.232-.338,3.727-2.328a41.794,41.794,0,0,1-11.2,1.375c.124-.487.477-.46.785-.454a52.414,52.414,0,0,0,7.082-.715c2.745-.323,5.028-1.21,5.782-4.3-6.394.964-12.872,1.116-19.315,1.736,1.046-.83,2.339-.64,3.491-.737,5.244-.44,10.5-.744,15.715-1.484.323-.046.681-.033.848-.334A25.49,25.49,0,0,0,72,162.825c-6.707.747-13.319.652-20.241.84a4.255,4.255,0,0,1,2.2-.574c2.028-.028,4.055.039,6.085-.1,3.683-.258,7.391-.046,11.062-.593.595-.088,1.277-.034,1.626-.555a45.621,45.621,0,0,0,3.023-5.107l-8.812,1.225a1.053,1.053,0,0,1,.841-.6c2.185-.305,4.37-.616,6.549-.959.682-.107,1.559.031,1.976-.556a14.8,14.8,0,0,0,1.943-3.434l-12.162.732-.034-.393c1.559-.134,3.117-.285,4.678-.4,2.454-.177,4.91-.331,7.366-.487a1.041,1.041,0,0,0,.878-.525,33.7,33.7,0,0,0,2.842-5.171c-8.551.96-17.075.663-25.705,1a.939.939,0,0,1,1.036-.547c3.147.11,6.284-.256,9.426-.224a125.848,125.848,0,0,0,14.986-.721,1.068,1.068,0,0,0,.948-.585c.719-1.435,1.419-2.881,2.213-4.5l-9.945.656A1.936,1.936,0,0,1,76,140.656c2.093-.181,4.189-.331,6.285-.477,2.463-.171,2.464-.165,2.333-2.662-.008-.159-.02-.317-.034-.476-.031-.36-.174-.4-.547-.341-1.443.23-2.895.427-4.35.56-1.3.119-2.607.137-3.943.2.112-.412.372-.378.6-.4,2.2-.239,4.4-.509,6.6-.707,1.579-.142,1.6-.12,1.573-1.637-.01-.477-.057-.957-.026-1.432.044-.678-.316-.837-.881-.759-.781.108-1.559.243-2.34.355-1.235.176-2.472.341-3.707.511l-.045-.292a17.234,17.234,0,0,1,4.18-.8c2.642-.358,2.648-.312,2.6-2.97,0-.119,0-.239,0-.358-.037-2.063-.037-2.063-2.007-1.718-.078.013-.161,0-.239.013-3.216.606-6.462,1.015-9.693,1.516A67.139,67.139,0,0,1,62.766,129.682Zm62.6,31.254a3.631,3.631,0,0,0-.631-1.47c-2.871-5.4-6.318-10.481-9.024-15.976a16.789,16.789,0,0,1-1.781-4.128,26.975,26.975,0,0,1-.471-6.284q.5-11.688,1.007-23.375c.608-13.435,1.208-26.87,2.03-40.295.387-6.316.572-12.643.876-18.964.035-.727-.025-.931-.794-.577-2.444,1.123-5.112,1.322-7.734,1.786a5.324,5.324,0,0,1,3.106-1.788,13.853,13.853,0,0,0,4.69-2.238,2.4,2.4,0,0,0,1-2.152c-.558.3-1,.557-1.463.778-3.918,1.874-8.171,2.088-12.384,2.371a65.554,65.554,0,0,1-7.344-.414,39.7,39.7,0,0,1-6.566-.9,15.073,15.073,0,0,1-7.208-3.14c-.543,2.762,1.325,4.3,3.224,4.986,4.028,1.455,8.229,1.81,12.445,2.161a9.406,9.406,0,0,1,4.009.725c-3.249.869-6.436.122-9.622-.286a59.8,59.8,0,0,1-9.518-2.287c-.009.18-.03.335-.022.489.221,4.647.741,9.271.887,13.927.473,15.057,1.31,30.1,1.707,45.163.221,8.392.565,16.782.879,25.171a24.38,24.38,0,0,1-1.056,9.122,52.955,52.955,0,0,1-4.5,9.214c-.724,1.227-1.375,2.5-2.1,3.725-1.139,1.929-2.313,3.838-3.636,6.028a17.167,17.167,0,0,1,6.818-2.273,3.685,3.685,0,0,0,3.361-2.44c.842-2.042,1.893-4,2.862-5.987.506-1.037,1.03-2.064,1.546-3.095l.31.136c-.638,3.721-2.316,7.093-3.808,10.65a156.067,156.067,0,0,1,19.571-.8C112.547,158.728,119.014,159.075,125.361,160.936ZM81.212,98.971c.592-.492,1.251.368,1.85-.013a1.491,1.491,0,0,0-1.128-.832A83.929,83.929,0,0,0,68.8,95.285a179.783,179.783,0,0,0-21.5-1.734,169.264,169.264,0,0,0-20.267.621c-.613.059-1.131.046-1.1.969a1.3,1.3,0,0,1-1.181,1.523c-.923.04-1.049-.794-1.12-1.421-.089-.8-.431-.8-1.058-.545a5.2,5.2,0,0,1,.426.846c.238.809.231,1.519-.857,1.674-.559.079-1.33.535-1.571-.173-.207-.606.656-.659,1.1-.808.462-.156.5-.585.2-.579-.855.014-1.375-.881-2.283-.657-1.022.253-2.077.377-3.335.594a13.489,13.489,0,0,0,1.478.345,1.689,1.689,0,0,1,1.282.5c-1.345.8-2.759.371-4.111.457-.943.06-2.147-.628-2.742,0-.624.655,0,1.9-.134,2.88-.088.654.062,1.067.875.99a2.157,2.157,0,0,1,1.577.535,4.3,4.3,0,0,1-1.489.216c-.741-.049-1.02.24-.928.962a3.381,3.381,0,0,1,0,.835c-.089.745.143,1.118.971,1.033.472-.049,1.009-.055,1.261.634l-1.652.155a56.232,56.232,0,0,0,6.209,1.593A152.622,152.622,0,0,0,45.723,109.5a175.152,175.152,0,0,0,19.436-.725,88.136,88.136,0,0,0,14.942-2.4c3.281-.861,3.274-.888,3.209-4.281-.043-2.248-.043-2.248-2.077-2.94C81.218,99.152,81.223,99.085,81.212,98.971ZM4.436,10.566c.431.165.682.284.946.357A106.456,106.456,0,0,0,15.9,13.318a60.738,60.738,0,0,0,9.164,1.094,18.829,18.829,0,0,1,3.094.144c2.827.531,5.653.109,8.423-.173a12.786,12.786,0,0,1,9.421,2.22,27.712,27.712,0,0,0,5.726,3.158c2.226.94,4.37,1.162,6.321-.8,1.314-1.319,2.823-2.444,4.259-3.639A5.846,5.846,0,0,1,65.487,13.8,80.842,80.842,0,0,0,77,12.1a31.859,31.859,0,0,0,5.356-1.615c-2.3-1.579-4.952-1.46-7.3-2.325,2.675.155,5.347.348,7.671,1.85.816.527,1.369-.089,1.717-.436.329-.327-.381-.608-.716-.792a16.83,16.83,0,0,0-4.586-1.453C75.367,6.5,71.526,6.115,67.7,5.593A123.4,123.4,0,0,0,54.94,4.5c-4.726-.149-9.454.179-14.178.432-3.926.211-7.863.258-11.784.539-1.589.114-3.18.086-4.762.23-3.075.28-6.146.6-9.218.916A21.9,21.9,0,0,0,4.436,10.566ZM82.79,165.814a10.981,10.981,0,0,0,3.087.6,114.922,114.922,0,0,0,12.927.706,116.245,116.245,0,0,0,19.6-1.171,24.041,24.041,0,0,0,7.214-1.891c.369-.184.976-.333.865-.833a1.544,1.544,0,0,0-.877-1.061c-.255-.1-.521-.184-.784-.267-5.016-1.575-10.234-1.847-15.41-2.082a162.882,162.882,0,0,0-17.537.194c-1.661.1-3.32.282-4.971.5-.508.067-1.106.046-1.442.652C84.6,162.709,83.7,164.24,82.79,165.814ZM86.64,8.207A3.182,3.182,0,0,0,85.281,6.6,11.794,11.794,0,0,0,82.2,5.421C76.986,4.331,71.751,3.37,66.453,2.759c-3.539-.409-7.078-.843-10.64-.914-8.317-.164-16.628.394-24.946.251-1.264-.021-2.53.209-3.8.309-4.034.315-8.041.862-12.058,1.334A53.032,53.032,0,0,0,5.419,5.38,7,7,0,0,0,1.784,7.511a1.163,1.163,0,0,0-.072,1.7c.779.863,1.865,1.17,2.466.688a18.841,18.841,0,0,1,7.575-3.517,64.6,64.6,0,0,1,8.6-1.007C25.5,4.86,30.644,4.6,35.8,4.457c1.868-.053,3.738-.108,5.6-.262a131.128,131.128,0,0,1,19.53-.174c1.776.118,3.558.242,5.317.5,3.778.56,7.6.842,11.341,1.632,2.714.573,5.58.794,7.772,2.81.263.242.405.121.59,0C86.249,8.782,86.579,8.614,86.64,8.207ZM115.118,44.97a7.474,7.474,0,0,0-2.022-1.1c-2.173-.885-4.5-1.03-6.768-1.458-5.365-1.01-10.738-.641-16.1-.158a7.245,7.245,0,0,0-4.248,1.835c8.709,3.4,17.473,3.271,26.317,1.844l.021-.3-3.19-.7C111.156,44.14,113.017,46.275,115.118,44.97ZM96.653,38.376c-2.692.206-5.636.508-8.581.844a6.47,6.47,0,0,0-3.932,1.948c-.293.284-.688.56-.437,1.1A3.131,3.131,0,0,0,85.176,43.6c.5.273.656-.427,1.03-.6.5-.228.956-.541,1.45-.777,2.208-1.053,4.61-1.073,6.966-1.166a59.283,59.283,0,0,1,13.251.685c2.7.5,5.462.847,7.8,2.481.492.345.766.192,1.093-.156.711-.755.613-1.548-.371-2.167a10.67,10.67,0,0,0-1.937-.9C108.8,38.866,102.844,38.718,96.653,38.376ZM11.169,98.853h-.02c0-.477-.011-.953,0-1.429.013-.434-.168-.575-.577-.438a14.755,14.755,0,0,0-5.037,2.343c-1.027.859-1.051,1.456-.107,2.358a11.329,11.329,0,0,0,4.405,2.5c.705.23,1.406.187,1.351-.963-.077-1.618-.02-1.626-1.713-1.755-.4-.031-.9-.034-.912-.529-.018-.646.555-.366.9-.406a1.073,1.073,0,0,1,.472.04c1.14.42,1.373-.136,1.238-1.121A4.373,4.373,0,0,1,11.169,98.853Zm72.455,62.2a20.25,20.25,0,0,0-6.612,1.824c-.961.521-.959.824-.046,1.332a18.72,18.72,0,0,0,3.441,1.228c.421.136.561-.152.731-.422C81.932,163.75,82.726,162.484,83.624,161.054ZM21.455,28.165c-.064,1.188-.521,2.137.077,3.115.2.324-.2.71-.541.949a.893.893,0,0,1-1.1-.071c-.863-.567-1.568-3.8-.973-4.653a1.465,1.465,0,0,1,1.617-.727A1.232,1.232,0,0,1,21.455,28.165ZM20.379,29.6c.035-.726.289-1.341-.1-1.872-.13-.176-.4.126-.511.334C19.431,28.71,19.706,29.143,20.379,29.6Zm1.494.307c.07-.387.146-.774.21-1.163.108-.645.293-1.413.977-1.462.633-.046,1.031.642,1.341,1.209a3.317,3.317,0,0,1,.346,2.633A1.606,1.606,0,0,1,23.3,32.358c-.669.02-.98-.546-1.169-1.165A5.293,5.293,0,0,1,21.873,29.9Zm1.093-1.055c-.034.374-.071.674-.088.976a1.927,1.927,0,0,0,.393,1.524.631.631,0,0,0,.382-.214,1.649,1.649,0,0,0,.05-1.572C23.6,29.293,23.524,28.945,22.966,28.847Zm2.1,20.251a3.154,3.154,0,0,1-.26,1.413,1.725,1.725,0,0,1-1.525.98c-.727,0-1.083-.592-1.256-1.237A3.64,3.64,0,0,1,22.6,47.2c.447-.671,1.3-.589,1.9.15A2.459,2.459,0,0,1,25.063,49.1Zm-1.646-1.372a2.853,2.853,0,0,0-.508,2.168c.037.254.111.6.424.637a.687.687,0,0,0,.727-.483A1.938,1.938,0,0,0,23.417,47.726Zm1.131,23.343c.024-1.306.569-2.126,1.391-2.1,1.055.04,1.738.944,1.714,2.269-.025,1.383-.541,2.043-1.595,2.04S24.52,72.552,24.548,71.069Zm2.18.018a.9.9,0,0,0-.905-1.044c-.537-.005-.434.645-.43,1.011.006.53,0,1.25.709,1.3C26.751,72.409,26.688,71.77,26.728,71.087Zm-3.476-1.5c.107-.169.172-.387-.013-.536-.223-.179-.431-.071-.624.1a5.273,5.273,0,0,0-.95,4.221c.3.751.761,1.068,1.563.66.573-.291,1-.632.862-1.366-.172-.935-.891-1.051-1.717-1.055A8.733,8.733,0,0,1,23.252,69.587ZM81.211,23.771a91.715,91.715,0,0,1-14.226,2.442C70.627,26.688,80.536,24.939,81.211,23.771ZM21.262,47.523c-.05-1.09-.63-1.436-1.666-1.007-.322.133-.594.282-.514.669s.432.328.664.226c.548-.24.637.027.57.465-.081.539.132,1.215-.7,1.419-.281.069-.4.633-.192.618.882-.063.793.881,1.368,1.216A9.937,9.937,0,0,0,21.262,47.523ZM73.623,30.581c2.723.247,5.145-.869,7.624-1.672C78.634,29.188,76.217,30.261,73.623,30.581Zm5.594,39.567c-1.72.186-3.5-.226-5.16.564C75.77,70.459,77.557,70.921,79.217,70.148Zm-6.991-34.84a26.557,26.557,0,0,0,5.085-.613l-.048-.374-5.044.608Zm4.779-15a12.278,12.278,0,0,0-4.11,1.227A8.617,8.617,0,0,0,77.005,20.307ZM76.593,88.2l-.031-.336c-1.3.067-2.617-.263-4.017.336ZM75.582,37.337h-3.67l.01.231h3.65Zm3.981,35.178a31.969,31.969,0,0,0-3.6-.214A4.66,4.66,0,0,0,79.563,72.515ZM69.269,31.028l-3.538.268A3.178,3.178,0,0,0,69.269,31.028Zm6.121,37.4a4.939,4.939,0,0,0,3.681-.813A8.878,8.878,0,0,0,75.39,68.424Zm7.53-48.992c.165-.08.328-.227.184-.462-.1-.163-.315-.21-.4-.115-.605.684-1.606.462-2.468,1.088A4.128,4.128,0,0,0,82.92,19.432ZM71.084,27.726a4.092,4.092,0,0,0,2.609-.637A3.588,3.588,0,0,0,71.084,27.726Zm2.583,19.161a5.667,5.667,0,0,0-2.762.037A3.116,3.116,0,0,0,73.667,46.887Zm59.855,180.931a84.426,84.426,0,0,1-14.074,1.109c-13.98,0-27.982.813-41.942-.8-4.592-.531-9.11-1.45-13.678-2.085a18.585,18.585,0,0,0-4.01-.551c.055.4.249.407.452.441,3.379.56,6.773,1.042,10.13,1.71a134.459,134.459,0,0,0,16.119,1.824c3.436.261,6.908.133,10.362.074,4.258-.074,8.513.165,12.766.089,5.557-.1,11.118-.107,16.668-.568A61.605,61.605,0,0,0,137.1,227.53c.409-.109,1.055-.028,1.248-.825C136.68,227.1,135.117,227.548,133.522,227.818Zm-19.86-56.768c-4.407.707-8.868,0-13.24.822,8.9.291,17.72-.077,26.084-3.6A92.863,92.863,0,0,1,113.662,171.05Zm6.739,53.178c-2.7-.067-5.4-.26-8.1-.208a2.091,2.091,0,0,0-1.615.475c.893,0,1.676-.037,2.454,0,6.075.329,12.15.131,18.225-.012.5-.012,1.136.213,1.38-.452C128.614,223.841,124.51,224.33,120.4,224.228Zm13.631-22.211c3.852-.194,7.731.283,11.558-.511C141.734,201.588,137.865,201.361,134.032,202.017Zm3.384,16.863c3.749-.464,7.63-.181,11.125-1.906C144.922,218.174,141.046,217.869,137.416,218.88Zm.273-8.518a46.558,46.558,0,0,0,10.991-1.679C145.029,209.291,141.309,209.509,137.689,210.362Zm-15.283-24.043c-.826-.562-10.055-.184-10.816.378C115.2,186.95,118.726,186.373,122.406,186.319Zm-2,27.458a35.494,35.494,0,0,0,10.819.392C127.619,214.132,124.018,213.782,120.408,213.777Zm11.207-22.513c3.155.813,6.28.36,9.391-.133C137.868,191.162,134.74,191.171,131.615,191.264Zm-11.672-18.537c2.823-.019,8.441-1.175,8.962-1.918l-9,1.628Zm12.923,24.355a26.273,26.273,0,0,0,9.18-1.387C138.992,196.2,135.907,196.5,132.866,197.082ZM84.609,220.034c1.8.831,8.8.821,9.588-.085C90.929,220.64,87.888,219.736,84.609,220.034Zm55.61-6.249c2.918-.221,5.881.029,8.745-.763C146.042,213.2,143.084,213.008,140.219,213.785Zm-5.187,5.462c-2.941-.177-5.864-.686-8.814-.29C129.163,219.17,132.08,219.613,135.032,219.247Zm-45.977-7.091q3.09.422,6.183.828c.193.026.441.025.439-.245,0-.308-.305-.351-.516-.362-2.151-.108-4.263-.669-6.5-.358A2.067,2.067,0,0,0,89.055,212.156Zm1.162-35.938a47.828,47.828,0,0,0,7.07.383l.01-.351-7.071-.43ZM60.5,221.768a40.547,40.547,0,0,0,6.665,2.2l.121-.385-6.642-2.157Zm78.661,1.6c2.2-.028,4.408,0,6.436-1.067C143.464,222.778,141.262,222.781,139.158,223.366Zm-3.142-40.588a25.233,25.233,0,0,0-6.273,1.429C131.865,183.875,134.045,183.767,136.016,182.778Zm-3.08-4.861-5.809.88.045.292a20.805,20.805,0,0,0,5.811-.774Zm7.683,28.747,5.584-.988-.071-.357a21.65,21.65,0,0,0-5.612,1.043ZM99.744,224.235a15.524,15.524,0,0,0,5.483.264C103.4,224.347,101.6,223.807,99.744,224.235Zm44.7,1.614c-1.694.277-3.387.547-5.088.864A7.8,7.8,0,0,0,144.44,225.849Zm-78.43-5.265-4.792-1.609a9.174,9.174,0,0,0,4.692,1.914ZM117.648,177.5a13.588,13.588,0,0,0-4.8.428l.031.3,4.79-.41Zm8.272-.961a12.783,12.783,0,0,0,4.837-.588A9.56,9.56,0,0,0,125.92,176.542Zm-9.991-1.5c-1.537.286-3.149-.336-4.64.5C112.828,175.285,114.435,175.83,115.929,175.039Zm18.2,31.523c-1.445.173-2.94-.3-4.691.453h4.71Zm-13.446-23.18-4.129.6.045.33a14.6,14.6,0,0,0,4.107-.544Zm14.3,5.993h4.244C138.472,188.713,135.9,188.712,134.984,189.375ZM96.13,177.9c-1.187-.353-2.3.088-3.443.279A5.33,5.33,0,0,0,96.13,177.9ZM61.961,215.6a3.655,3.655,0,0,0,3.232,1.836Zm32.263,7.743H90.7a6.18,6.18,0,0,0,3.523.337Zm-1.637-8.486.026.308c1.094-.076,2.208.19,3.267-.308Zm-1.963,11.161a3.426,3.426,0,0,0,2.949.006l-2.916-.34Zm35.622-27.915c-1.021-.328-2.043-.672-2.984.227C124.234,197.913,125.28,198.618,126.246,198.107Zm-61.752.477a3.665,3.665,0,0,0,2.307,1.425A3.681,3.681,0,0,0,64.494,198.584Zm28.748,19.171c.815-.089,1.664.278,2.442-.306C94.858,217.381,94.014,217.1,93.242,217.755ZM134,210.306a3.733,3.733,0,0,0-2.841.12A4.562,4.562,0,0,0,134,210.306Zm-68.182-5.589a2.864,2.864,0,0,0-2.28-.587C64.2,204.462,64.78,205.056,65.818,204.717ZM26.671,173.809a2.52,2.52,0,0,1-2.123,2.714,2.077,2.077,0,0,1-1.895-2.276c-.023-1.334.841-2.57,1.787-2.557A2.131,2.131,0,0,1,26.671,173.809Zm-1.158.156a.748.748,0,0,0-.773-.924c-.64.079-.646.765-.671,1.306-.02.455.024,1,.622.925C25.344,175.194,25.537,174.634,25.513,173.965Zm1.43-55.184c-.044,1.243-.893,2.513-1.681,2.514-.891,0-1.486-1.081-1.43-2.6,0-.079,0-.159.006-.237.137-1.521.61-2.219,1.467-2.168C26.276,116.348,26.99,117.434,26.943,118.781Zm-1.628,1.536a2.2,2.2,0,0,0,.647-1.6c-.043-.472-.169-1.139-.618-1.159-.542-.024-.484.666-.539,1.094A1.823,1.823,0,0,0,25.315,120.317Zm27.926,51.606c-6.085.889-12.2.017-18.294.311C41.052,172.534,47.164,173.3,53.241,171.923ZM26.459,136.247c0,1.366-.72,2.513-1.548,2.457-.663-.045-1.3-1.232-1.318-2.438-.014-1.3.417-1.879,1.415-1.893S26.456,134.957,26.459,136.247Zm-1.508,1.475a1.833,1.833,0,0,0,.52-1.788.541.541,0,0,0-.532-.531c-.425-.011-.384.31-.393.575A2.309,2.309,0,0,0,24.951,137.722Zm-4.327-3.086c-.062.274.1.455.406.379,1.064-.258.77.4.5.832-.392.62-.394.955.424.968.388.006.447.21.449.528,0,.382-.262.464-.542.5a6.585,6.585,0,0,0-1.049.057c-.385.109-.669.4-.186.74a1.752,1.752,0,0,0,1.9.127,1.2,1.2,0,0,0,.8-1.424,23.579,23.579,0,0,0-.95-2.709.758.758,0,0,0-.882-.434C21.1,134.171,20.725,134.191,20.624,134.636Zm5.589,20.105a4.148,4.148,0,0,1-.16,1.269,1.308,1.308,0,0,1-1.1.778c-.531.114-.769-.341-.976-.711a3.208,3.208,0,0,1-.329-2.42,1.276,1.276,0,0,1,1.476-.926A1.625,1.625,0,0,1,26.213,154.741Zm-.709.163c-.052-.392.1-.987-.553-1.086a.516.516,0,0,0-.611.664c.141.5.039,1.265.69,1.375C25.533,155.943,25.5,155.354,25.5,154.9ZM23.3,118.433c.078-.21.147-.537-.085-.64-.331-.147-.524.154-.549.43-.042.471-.259.306-.538.248-.384-.08-.418-.217-.268-.553a8.31,8.31,0,0,0,.4-1.218c.1-.376-.043-.651-.458-.6-.469.054-1.423,2.6-1.152,2.991.124.176.285.316.487.273,1.618-.35,1.586.685,1.515,1.773-.009.142.006.321.368.358C23.274,120.478,22.931,119.422,23.3,118.433Zm-.061,38.494c.151-.514-.514-.645-.969-.771-.7-.193-.145-.584-.064-.812a2.136,2.136,0,0,0-.117-2.224c-.254-.323-.6-.433-.9-.07-.26.314-.49.785.1.91s.336.334.246.635a2.659,2.659,0,0,1-.807,1.284c-.261.226-.434.479-.265.819a.759.759,0,0,0,.78.427c.237-.014.475,0,.781,0C22.4,157.021,23.1,157.386,23.236,156.927Zm6.406,21.605c3.732.58,7.494.792,11.253,1.048l.036-.4-11.273-1.015Zm-8.635-4.568c0,.631-.039,1.265.022,1.89.021.215.13.6.484.56a.514.514,0,0,0,.389-.527c.052-1.216.115-2.432.129-3.649,0-.282-.04-.7-.482-.68s-.576.356-.58.749c-.005.552,0,1.105,0,1.657ZM41.342,145.9a24.9,24.9,0,0,0,7.754.176C46.509,146.129,43.937,145.423,41.342,145.9Zm4.53-20.316c2.6-.036,5.216.108,7.816-.065l-.014-.314h-7.81ZM29.215,187.189a49.4,49.4,0,0,1,7.729.761C35.582,186.872,30.366,186.455,29.215,187.189Zm-4.49,2.435c-.783-.869-5.9-2.207-7.09-1.839ZM83,114.929l-6.614,1.426C78.251,116.709,82.37,115.714,83,114.929ZM13.639,149.312a51.057,51.057,0,0,0,5.489.964c.168.022.316.023.356-.183a.264.264,0,0,0-.233-.342q-2.787-.4-5.577-.784Zm51.179-32.067h6.365C70.08,116.492,65.632,116.62,64.818,117.245Zm-12.558,3.6-4.727.266.012.405a24.867,24.867,0,0,0,4.751-.231Zm17.621,20.71a18.356,18.356,0,0,0-5.67.255A16.772,16.772,0,0,0,69.881,141.559ZM54.938,153.418a21.584,21.584,0,0,0,4.93-1.07C58.486,152.118,55.472,152.8,54.938,153.418ZM68.9,133.257a15.912,15.912,0,0,0-4.842.371H68.9ZM32.861,122.212c-1.388-.145-2.755-.611-4.176-.266C30.065,122.211,31.429,122.715,32.861,122.212Zm27.473,35.623c-1.344-.32-2.685-.83-4.013.053C57.661,157.466,59.01,158.3,60.334,157.835Zm-28.279,3.781-3.751.374a5.143,5.143,0,0,0,3.738-.028ZM19.825,146.56c1.273.773,2.608.5,3.936.274C22.457,146.546,21.136,146.733,19.825,146.56Zm50.046-31.2c-1.279.01-2.574-.231-3.812.36h3.826ZM29.723,124.88a6.915,6.915,0,0,0-3.288-.8A5.142,5.142,0,0,0,29.723,124.88Zm40.136,13.111A9.168,9.168,0,0,0,66,137.972,8.351,8.351,0,0,0,69.859,137.991Zm-11.7-8.661a5.5,5.5,0,0,0-3.132.185C56.078,129.541,57.146,129.84,58.161,129.33ZM26.53,115.163H29.6l.016-.223H26.563Zm3.217,74.913a3.246,3.246,0,0,0-2.259-.022A2.47,2.47,0,0,0,29.747,190.076Zm-5.579-44.428c-1.151-.82-1.369-.849-2.752-.383Zm83.469-90.414c-2.884.056-5.774.371-8.635-.1C100.515,56.033,105.752,56.02,107.637,55.234Zm-2.715,2.228.01.309a21.592,21.592,0,0,0,7.42-.309Zm0,58.257a11.24,11.24,0,0,0,5.93.243C108.871,115.9,106.9,115.651,104.918,115.719Zm6.3-28.1h-3.932c1.27.72,2.6.436,3.92.429Zm.089-1.252a20.919,20.919,0,0,0-3.79-.194A5.638,5.638,0,0,0,111.305,86.362Zm-1.4-16.016c1.173.058,2.359.242,3.453-.635l-3.486.294Zm-.145,80.837,3.817-.675-.062-.305a9.76,9.76,0,0,0-3.819.659Zm.111-69.422a3.183,3.183,0,0,0,3.313-.378Zm-.226-19.325a3.172,3.172,0,0,0,3.19,0Zm-.039,55.893-3.53-.33A3.441,3.441,0,0,0,109.607,118.329Zm-3.366-5.129c1.128.8,2.285.334,3.425-.058C108.519,113.092,107.383,113.307,106.241,113.2Zm3.37,36.4a6.884,6.884,0,0,0,2.98-.465A3.349,3.349,0,0,0,109.611,149.6ZM104.84,86.279a6.961,6.961,0,0,0-2.8-.662A2.986,2.986,0,0,0,104.84,86.279Zm5.286-7.958c.9-.016,1.791.708,2.916.111A3.679,3.679,0,0,0,110.126,78.321Zm-.345,31.918c-.054-.049-.108-.137-.163-.137-.817-.009-1.635-.006-2.549-.006A2.481,2.481,0,0,0,109.781,110.239ZM108.3,147.315a7.151,7.151,0,0,0,2.676-.194C109.7,146.713,108.9,146.79,108.3,147.315Zm-2.242-87.869a2.346,2.346,0,0,0,2.219-.158A3.478,3.478,0,0,0,106.058,59.446Zm-35.993,37.5q-5.758-.4-11.522-.721c-5.047-.288-10.1-.282-15.151-.254-.418,0-.879-.066-1.14.529,10.051-.313,20,.477,30.015,1.09A3.335,3.335,0,0,0,70.065,96.943Zm4.348,5.74a44.171,44.171,0,0,0-8.442-.44l-.014.33,8.44.473ZM71.721,105a19.088,19.088,0,0,0-8.4.148C66.115,104.987,68.917,104.963,71.721,105Zm2.448-4.509a30.864,30.864,0,0,1,8.123.73C81.07,100.135,75.8,99.572,74.169,100.486Zm-25.006,3.876c2.523.174,5.033.666,7.576.157C54.211,104.56,51.7,103.79,49.163,104.362Zm5.7-4.134a20.9,20.9,0,0,0,5.934-.5A18.249,18.249,0,0,0,54.866,100.228Zm-.6,1.947a19.934,19.934,0,0,0,5.773-.425C58.106,101.892,56.141,101.441,54.266,102.175Zm-5.408-.387H43.3a18.06,18.06,0,0,0,5.552.323Zm28.917.757,4.878.589.044-.36a18.743,18.743,0,0,0-4.88-.575Zm-26.342,3.821h3.645A3.761,3.761,0,0,0,51.433,106.366Zm14.972-6.408h3.416A3.543,3.543,0,0,0,66.405,99.958Zm-4.844-89.24c3.335.143,6.628-.469,9.954-.487A34.577,34.577,0,0,0,61.561,10.718Zm3.922-2.34h6.976C70.1,7.6,67.79,7.974,65.483,8.378ZM44.7,7.308a33.843,33.843,0,0,0,7.5-.986A30.664,30.664,0,0,0,44.7,7.308Zm5.264,1.7c1.436-.076,2.9.2,4.284-.429H49.972ZM91.508,163.416h19c-6.335-.82-12.66-.116-18.99-.326Zm19.592,1.819c2.388-.265,4.776-.536,7.159-.841a13.982,13.982,0,0,0,3.23-.649c.458-.174.857-.476.486-1.073a1.99,1.99,0,0,0-2.358-.432c.411.115.779.208,1.141.322.279.087.735,0,.727.437-.008.413-.492.408-.746.456-1.276.242-2.563.428-3.852.593-2.177.279-4.357.527-6.664.8A.732.732,0,0,0,111.1,165.235Zm-20.072.284c3.629-.02,7.284.993,10.88-.345C98.3,165.919,94.644,164.951,91.028,165.519Zm5.733-4.826.007.333a27.449,27.449,0,0,0,7-.333Zm13.123,4.4c-1.762-.029-3.534-.25-5.246.485A36.429,36.429,0,0,0,109.884,165.1Zm6.377-2.431-5.111.514C112.414,163.772,115.424,163.438,116.261,162.665Zm-4.347-1.484.015-.4h-4.59C108.843,161.383,110.385,161.111,111.914,161.181Zm5.418.355c-.981-.562-2.05-.222-3.087-.283A5.113,5.113,0,0,0,117.332,161.536ZM103.457,44.842h2.963c-.923-.708-1.936-.438-2.928-.413Z" fill="#151611"/>
</svg>
