<svg xmlns="http://www.w3.org/2000/svg" viewBox="0 0 175.716 214.823">
  <path d="M175.654,15.811c.33,2.358-.723,3.5-1.6,4.648-1.1,1.454-2.3,2.839-3.541,4.178a17.538,17.538,0,0,0-2.39,3.99c-.054.1-.075.245-.158.307-1.9,1.447-2.226,4.186-4.38,5.413-.281.159-.315.4-.408.652a7.161,7.161,0,0,1-3.129,3.746c-.2.116-.493.224-.545.4-.807,2.665-2.969,4.309-4.667,6.289-3.624,4.225-7.158,8.519-10.474,13-2.029,2.74-4.171,5.4-6.285,8.071q-5.913,7.484-11.923,14.889c-2.976,3.671-5.846,7.432-8.781,11.139-3.8,4.8-7.536,9.652-11.357,14.436q-4.394,5.5-8.831,10.963c-3.923,4.8-7.787,9.659-11.661,14.5-2.4,3-4.768,6.012-7.144,9.025-3.742,4.746-7.509,9.474-11.207,14.255Q62.623,161.6,57.964,167.4c-2.863,3.569-5.695,7.164-8.593,10.706-2.01,2.457-3.953,4.974-5.851,7.52-2.5,3.357-6.052,5.358-9.459,7.532C23.724,199.75,13.509,206.533,3.3,213.326c-.611.406-1.259.758-1.864,1.173-.375.258-.752.5-1.149.154a.934.934,0,0,1-.14-1.188,29.893,29.893,0,0,0,1.488-4.032Q5.687,197.219,9.714,185c1.235-3.761,2.484-7.521,3.6-11.319a19.942,19.942,0,0,1,3.553-6.761c6.441-8.186,12.994-16.281,19.557-24.368Q47.256,129.2,57.961,115.74,71.486,98.714,85.3,81.918q9.584-11.586,19.033-23.285c5.469-6.772,10.9-13.578,16.442-20.287,3.568-4.317,7.085-8.677,10.6-13.035,1.093-1.354,1.838-3.041,3.31-4.021,1.14-.758,1.581-1.945,2.359-2.919,1.076-1.347,2.512-2.4,3.064-4.149a1.242,1.242,0,0,1,.448-.53,5.088,5.088,0,0,0,2.245-3,1.1,1.1,0,0,1,.806-.787c1.221-.275,1.8-1.3,2.477-2.152,1.526-1.908,3.016-3.85,4.443-5.834s3.4-2.042,5.5-1.848a18.351,18.351,0,0,1,6.425,2.2c3.144,1.561,6.315,3.118,8.769,5.752A25.056,25.056,0,0,1,175.654,15.811Zm-40.5,51.738a1.723,1.723,0,0,0,.707-1.815c-.192-1.734-.146-1.739.3-2.649.406.945-.109,1.862.295,2.916.541-.67.973-1.252,1.453-1.792,1.578-1.778,2.945-3.6,1.854-6.2a2.852,2.852,0,0,1-.107-1.043c0-.262-.2-.647.356-.7l.7,4.61c.441-.919,1.336-1.216,1.3-2.022-.038-.881-.352-1.746-.464-2.628a6.835,6.835,0,0,1-.274-2.58c.75,1.5.809,3.163,1.2,4.978,1.986-2.461,3.826-4.74,5.662-7.022a.3.3,0,0,0,.036-.4c-.808-1.5-.921-3.216-1.509-4.978-.6.868-1.517,1.411-1.254,2.544.218.939.53,1.855.8,2.782-1.01-.7-.807-1.928-1.462-2.879-1.349,1.484.193,3.045-.137,4.683-.78-1.034-.5-2.223-1.125-3.39-.441.585-.778,1.055-1.137,1.507-2.511,3.157-4.971,6.359-7.555,9.454-3.281,3.931-6.45,7.951-9.643,11.953-3.122,3.911-6.245,7.823-9.445,11.67-4.465,5.37-8.8,10.85-13.179,16.286-2.944,3.653-5.921,7.278-8.822,10.966-3.263,4.149-6.6,8.237-9.964,12.3q-4.743,5.738-9.35,11.585-4.687,5.937-9.5,11.77c-3.5,4.259-7,8.516-10.437,12.821-3.347,4.185-6.825,8.264-10.225,12.406-1.895,2.308-3.749,4.651-5.622,6.978-.167.208-.423.393-.3.7a18.34,18.34,0,0,1,.416,2.767,3.553,3.553,0,0,0,1.443,2.317c.48.325.929.383,1.268-.206a47.858,47.858,0,0,1,3.661-4.659c3.051-4.057,6.258-8,9.413-11.973,2.6-3.28,5.2-6.565,7.834-9.819,3.759-4.643,7.574-9.24,11.308-13.9,1.043-1.3,2.111-2.583,3.149-3.889,3.857-4.853,7.687-9.729,11.537-14.588,1.9-2.4,3.85-4.767,5.74-7.178,4.04-5.152,8.026-10.347,12.092-15.479,2.674-3.375,5.492-6.635,8.156-10.018,1.058-1.343,2.172-2.634,3.236-3.969q6.162-7.729,12.293-15.484,2.668-3.369,5.315-6.756Zm-13.578-18.88c1.157-1.124,2.378-2.2,1.4-4.1a11.226,11.226,0,0,1-.385-1.685,25.935,25.935,0,0,0-1.111-3.947c-2.447,3.1-4.8,6.088-7.163,9.063a1.888,1.888,0,0,0-.369,1.287c0,2.106.018,4.209.21,6.308.019.2.109.492-.4.534-.2-2.265-.395-4.528-.379-6.832-.873.922-1.623,1.858-2.372,2.8q-8.733,10.925-17.461,21.854C87.263,81.85,81.036,89.8,74.726,97.689c-5.218,6.523-10.523,12.976-15.781,19.467-6.969,8.6-13.961,17.19-20.882,25.833-6.239,7.792-12.439,15.616-18.825,23.288-1.508,1.813-1.5,1.805.708,2.847,1.6.759,4.4.064,5.073-.772,2.334-2.886,4.512-5.9,6.833-8.8,4.463-5.572,8.933-11.14,13.5-16.628,4.047-4.867,8.006-9.8,12.04-14.681,5.959-7.2,11.679-14.6,17.556-21.87,3.684-4.556,7.471-9.027,11.12-13.614C89.855,88,93.713,83.285,97.487,78.5c4.111-5.206,8.3-10.346,12.491-15.491,3.234-3.975,6.522-7.906,9.769-11.871.659-.8,1.244-1.673,1.863-2.512Zm17.014,4.992c1.167-1.09,2.142-2.145,1.319-4.017a3.7,3.7,0,0,1-.221-3.066l1.024,4.428c.894-.809,1.681-1.468.95-2.773-.2-.355-.728-1.076-.045-1.657a3.2,3.2,0,0,1,.446,1.486c0,.279.041.614.343.655.15.021.342-.265.514-.412a.913.913,0,0,0,.271-1.1,1.81,1.81,0,0,1,.133-1.8c.4.614.065,1.31.448,1.829,1.113-.953,1.706-2.267,2.679-3.264.324-.332.087-.523-.119-.774-.961-1.173-2.021-2.256-3.015-3.394-.782-.894-1.267-.478-1.671.165a57.445,57.445,0,0,1-4.21,5.25c-3.571,4.447-7.178,8.867-10.78,13.289L115.923,71.676c-3.727,4.574-7.481,9.126-11.19,13.715-2.366,2.927-4.769,5.823-7.118,8.765C93.429,99.4,89.191,104.6,84.977,109.824c-3.069,3.8-6.122,7.62-9.207,11.411-3.942,4.845-7.916,9.664-11.863,14.506-3.309,4.059-6.595,8.138-9.9,12.2q-5.319,6.551-10.653,13.09c-3.4,4.144-6.823,8.265-10.233,12.4-.166.2-.47.365-.379.677.413,1.407.59,2.909,1.513,4.119a2.755,2.755,0,0,0,4.149.191q4.667-5.938,9.367-11.847,6.4-8.056,12.817-16.1c2.929-3.667,5.847-7.342,8.826-10.966,4.362-5.307,8.7-10.63,12.954-16.026,2.639-3.349,5.253-6.722,7.989-9.988,4.685-5.593,9.218-11.308,13.787-16.995,2.7-3.357,5.447-6.671,8.18-10a1.209,1.209,0,0,0,.269-1.128c-.173-1.034-.753-2.056-.2-3.181l.653,3.072a2.325,2.325,0,0,0,1.033-3.014,7.159,7.159,0,0,1-.269-2.2c0-.317-.04-.712.551-.836a16.373,16.373,0,0,0,.4,4.046c.651-.349.8-1.006,1.185-1.475,3.037-3.727,6.036-7.487,9.063-11.222Q130.4,63.919,135.829,57.3a1.994,1.994,0,0,0,.486-1.579c-.152-1.718-.25-3.441-.369-5.161l.36-.045.39,5.628,1.9-2.487ZM127.377,43.427c-2.34,2.739-4.657,5.495-6.886,8.328-2.925,3.716-5.874,7.414-8.891,11.054-3.515,4.241-6.966,8.532-10.416,12.825-3.648,4.54-7.342,9.042-11.041,13.54-3.226,3.924-6.465,7.836-9.589,11.845-3.052,3.917-6.183,7.774-9.351,11.6-4.929,5.946-9.866,11.884-14.639,17.96q-5.209,6.63-10.51,13.187-6.9,8.565-13.866,17.083c-2.088,2.559-4.228,5.073-6.337,7.614a1.609,1.609,0,0,0-.5.766,5.066,5.066,0,0,0,2.482,4.438,5.19,5.19,0,0,0,3.7-.011c.9-.24,1.108-1.11,1.6-1.721q5.907-7.342,11.809-14.688c3.187-3.956,6.347-7.934,9.591-11.843q4.793-5.778,9.426-11.684c3-3.811,6.071-7.569,9.125-11.339,3.542-4.371,7.057-8.766,10.662-13.084,3.708-4.441,7.31-8.968,10.969-13.448q4.971-6.085,9.884-12.219c3.741-4.661,7.551-9.266,11.313-13.909,1.464-1.807,2.884-3.65,4.317-5.482.172-.219.364-.357.192-.784-.724-1.8-.493-3.759-.808-5.634-.026-.152.072-.292.4-.275.449,1.884.09,3.954.958,5.913.348-.436.637-.8.93-1.164.309-.382.69-.677.529-1.311a35.529,35.529,0,0,1-.833-5.173c-.021-.212-.106-.459.351-.612l.91,5.814,2-2.526-.022.024c1.015-.95,1.907-1.882,1.213-3.509-.231-.544-.731-1.288-.139-2.04.571.956.344,2.09,1.017,3.113l7.217-9.093-.035.037c1.326-1.6,2.643-3.212,3.984-4.8a2.144,2.144,0,0,0,.412-2.609,14.328,14.328,0,0,1-.982-3.671A1.6,1.6,0,0,0,136,34.478c.2,1.54.973,2.869.688,4.4l-1.5-5.054c-1.784,1.554.349,3.15-.3,4.9l-.983-3.24c-2.251,2.626-4.464,5.245-6.543,7.976Zm16.252-19.248a.774.774,0,0,1,1.031.058c1.654,1.141,3.392,2.185,4.921,3.479a49.85,49.85,0,0,1,9.2,9.64c.194.284.418.728.784.41,1.211-1.052,2.905-1.708,3.048-3.685.027-.368.365-.58.741-.789,1.687-.936,2.024-2.275,1.193-3.975a25.734,25.734,0,0,0-6.423-8.024,3.552,3.552,0,0,1-1.5-2.03,29.065,29.065,0,0,1,9.159,10.488c1.864-1.252,2.156-2.29,1.28-4.287a21.694,21.694,0,0,0-2.886-4.219c-4.567-6.043-10.813-9.314-18.024-10.921-1.637-.365-2.779.647-2.84,2.408a.519.519,0,0,1-.429.571A3.877,3.877,0,0,0,140,16.174c7.234,1.873,12.428,6.614,17.175,12a78.129,78.129,0,0,0-7.237-5.909,25.859,25.859,0,0,0-9.023-4.576,2.727,2.727,0,0,0-3.4,1.681c-.165.35-.282.725-.466,1.064-.123.226-.17.518-.481.62-1.576.517-2.352,1.911-3.335,3.085-.455.545-.424.785.3.993a24.727,24.727,0,0,1,6.057,2.858c6.361,3.917,11.875,8.757,15.583,15.542a14.243,14.243,0,0,0,3.368-4.575.906.906,0,0,0-.163-.966,22.86,22.86,0,0,0-3.79-4.376C150.983,30.466,147.817,26.808,143.629,24.179ZM40.176,186.873c-2.428-1.072-2.845-3.088-2.859-5.211-.005-.8-.219-1-.9-1.1a4.347,4.347,0,0,1-3.586-2.225,7.974,7.974,0,0,1-.946-2.858c-.047-.58-.163-.742-.76-.458a3.994,3.994,0,0,1-2.476.374,4.794,4.794,0,0,1-4.109-3.872c-.076-.311.236-1.387-.776-.969-2.585,1.067-4.726.29-6.633-1.5a3.4,3.4,0,0,0-1.242,2.17c-2.018,6.408-4.489,12.659-6.484,19.077-.276.886-.1,1.094.726,1.251a14.235,14.235,0,0,1,6.937,3,13.148,13.148,0,0,1,2.978,4.248c.461.912.869,1.056,1.793.413,3.923-2.729,7.917-5.354,11.886-8.017ZM165.751,19.586a1.618,1.618,0,0,1,.748,1.031c.561,1.3,1.144,2.6,1.77,3.87.134.271.206.9.753.6.424-.233.525-.585.29-1.155-.616-1.491-1.083-3.043-1.628-4.565a1.035,1.035,0,0,1,.1-1.225l2.029,5.928a1.5,1.5,0,0,0,.58-2.191,39.961,39.961,0,0,1-1.55-4.342c-.06-.177-.151-.472.286-.589l1.939,5.477c1.053-1.078,1.039-1.072.523-2.281a16.787,16.787,0,0,1-.846-2.265c-.1-.386-.606-.774-.091-1.337.818,1.282.92,2.832,1.719,4.042,1.1-.825,1.081-1.739.379-2.8a19.735,19.735,0,0,1-1.175-2.249c-.136-.279-.329-.616.121-.91.479.985.906,1.925,1.392,2.832.189.354.294,1.007.669.97.521-.051.621-.716.786-1.174a1.286,1.286,0,0,0-.081-1.024A52.026,52.026,0,0,0,171.4,10.4c-1.74-2.525-4.278-4.084-6.914-5.494-2.682-1.435-5.34-2.959-8.408-3.375-1.2-.163-2.516-.378-3.537.567-2.227,2.059-4.043,4.5-6.075,6.742a.32.32,0,0,0-.084.351,34.348,34.348,0,0,1,20.152,13.026C166.4,21.252,165.768,20.581,165.751,19.586Zm-36.84,10.141a2.249,2.249,0,0,0,.4.235,33.183,33.183,0,0,1,12.514,6.705,38.711,38.711,0,0,1,8.851,10.825c.4.685.653.9,1.125.107a12.549,12.549,0,0,1,2.118-2.62c.53-.509.5-.891.116-1.489a46.819,46.819,0,0,0-14.148-14.022,26.854,26.854,0,0,0-7.065-3.4c-.339-.1-.771-.417-1.1.156A33.079,33.079,0,0,1,128.911,29.727ZM123.834,46.02c1.481-1.919,2.8-3.63,4.12-5.346a.647.647,0,0,0,.138-.784,43.742,43.742,0,0,1-1.673-5.877c-.053-.222.005-.514-.255-.6-.344-.119-.448.238-.6.424-1.057,1.292-2.092,2.6-3.141,3.9a1.326,1.326,0,0,0-.318,1.192C122.657,41.208,123.216,43.487,123.834,46.02Zm8.2-11.3a5.341,5.341,0,0,1-1.309-2.421c-.259-.583-.785-.836-2.393-1.1l1.982,6.182,3.613-4.164-2.653-1.1Zm-4.274-3.557c-.821.817-1.43,1.545-.908,2.687a10.348,10.348,0,0,1,.344,1.337,47.177,47.177,0,0,0,1.4,4.832c.395-.509.676-.877.965-1.239.274-.342.593-.587.38-1.173C129.187,35.511,128.512,33.389,127.764,31.158Zm11.495,9.52a13.253,13.253,0,0,0,1.84-2.332c.093-.191.316-.332.039-.572a12.826,12.826,0,0,0-3.233-2.248C138.368,37.289,138.787,38.88,139.259,40.678ZM147.6,45.3a.562.562,0,0,0-.389.742q.546,2.25,1.092,4.5c.046.19.126.372.369.353a5,5,0,0,0,1.511-2.056,8.7,8.7,0,0,0-1.709-2.74c-.031,1.326.658,2.425.615,3.617l-.311.063Zm-13.491,1.719q-.8-2.937-1.6-5.877l-.28.075a20.084,20.084,0,0,0,1.5,5.778c.015.041.269-.008.412-.015Zm-1.8,1.046-1.392-5.529-.377.1a30.132,30.132,0,0,0,1.408,5.489Zm-4.936-4.634A41.2,41.2,0,0,0,129,49.259c.508-.76.088-1.181-.039-1.555-.485-1.431-.447-3.073-1.6-4.245Zm1.965.75a12.137,12.137,0,0,0,1.241,4.863A17.034,17.034,0,0,0,129.34,44.18Zm-4.5,14.328q-.32-2.2-.638-4.4l-.327.045a10.288,10.288,0,0,0,.394,3.42c.1.326-.127.964.593.912ZM30.612,170.138a11.7,11.7,0,0,0-.947-4.447A12.462,12.462,0,0,0,30.612,170.138Zm-1.48,1.741a12.934,12.934,0,0,0-.872-4.3A9.931,9.931,0,0,0,29.132,171.879ZM57.2,135.05a6.008,6.008,0,0,0,.131,4.365C57.17,137.963,57.459,136.5,57.2,135.05Zm77.722-90.486a7.616,7.616,0,0,0-.827-3.32A5.59,5.59,0,0,0,134.922,44.564ZM26.81,169c.352,1.076.28,2.144,1,3.341C27.874,170.654,27.508,169.423,26.81,169Zm32.323-35.988a6.046,6.046,0,0,0,0,3.386C59.559,135.268,59.124,134.139,59.133,133.009Zm-3.916,7.9a5.065,5.065,0,0,0-.6-3.229l.227,3.281Zm62.791-79.339a3.63,3.63,0,0,0,1.011,2.693A6.348,6.348,0,0,0,118.008,61.567Zm20.583-7.906a28.4,28.4,0,0,0-.4-6.087c0-.025-.128-.036-.339-.091.218,2.1-.03,4.188.745,6.177Zm-5.586,4.059-.289-4.174-.175.034.287,4.135ZM118.1,74.876a8.381,8.381,0,0,0-.6-3.8A8.818,8.818,0,0,0,118.1,74.876Zm1.124-1.717c-.39-1.064-.114-2.216-.605-3.254C118.585,71.03,118.273,72.2,119.221,73.159Zm12.894-13.452a18.7,18.7,0,0,1-.027-3.3A2.794,2.794,0,0,0,132.115,59.707Zm1.712-7.629-.312.047c.15,1.085-.1,2.222.557,3.5Zm-12.25-3.41a13.368,13.368,0,0,0-1.527-4.817,16.187,16.187,0,0,0,.828,3.528c.157.415-.082,1.192.732,1.251Zm-9.987,9.751A11.966,11.966,0,0,0,111,54.011,9.861,9.861,0,0,0,111.59,58.419Zm5.7-5.988c-.292-.811.048-1.809-.783-2.452C116.7,50.818,116.514,51.789,117.289,52.431Zm21.473,9.974a5.682,5.682,0,0,0-.407-2.856C138.418,60.5,138.043,61.547,138.762,62.405Zm-3.6,5.14a7.357,7.357,0,0,0-.064-2.668,2.307,2.307,0,0,0,.073,2.653Zm1.6-8.417a3.128,3.128,0,0,0,.254,2.452A4.174,4.174,0,0,0,136.757,59.128Zm9.009-45.895c-.235-.085-.595-.189-.682.154-.082.32.264.4.51.517q4.082,1.875,7.991,4.093a.65.65,0,0,0,.843.025A32.283,32.283,0,0,0,145.766,13.233ZM23.483,189.925a30.269,30.269,0,0,0,2.023,4.775C25.4,193.085,24.26,190.332,23.483,189.925Zm3.235,2.785c.285-1.036-.673-3.6-1.743-4.47C25.605,189.855,26.141,191.228,26.718,192.71ZM14.6,180.148a6.267,6.267,0,0,0,2.886.384A3.86,3.86,0,0,0,14.6,180.148Zm3.291-.823a4.717,4.717,0,0,0-2.513-.642A3.234,3.234,0,0,0,17.894,179.325Zm10.258,11.644a4.1,4.1,0,0,0-1.053-2.137A2.635,2.635,0,0,0,28.152,190.969Zm1.536-.549a3.939,3.939,0,0,0-1.32-2.083A2.89,2.89,0,0,0,29.688,190.42Zm-16.4-.228a2.5,2.5,0,0,0-2.526-.383A6.169,6.169,0,0,0,13.289,190.192ZM167.586,15.07l-2.3-2.961A3.691,3.691,0,0,0,167.586,15.07Zm-1.11.758-2.562-2.552A3.445,3.445,0,0,0,166.476,15.828Zm-2.484,2.2a10.876,10.876,0,0,0-2.224-2.479l-.255.241,2.221,2.5ZM162.433,6.559a4.811,4.811,0,0,0,2.776,1.829l-2.55-2.119ZM167.4,10.61a3.564,3.564,0,0,0,1.773,2.525q-.75-1.311-1.5-2.623Zm-2.561,5.878a12.374,12.374,0,0,1-1.775-1.792c-.086-.121-.2-.084-.281,0-.131.135-.067.256.018.4a7.594,7.594,0,0,0,1.707,1.7c.2.177.335.1.421-.134A.585.585,0,0,0,164.84,16.488Zm-2.3-4.626a4.871,4.871,0,0,0-1.9-2.194A4.072,4.072,0,0,0,162.542,11.862Zm1.571-2.7a4.316,4.316,0,0,0-2.2-1.714A4.669,4.669,0,0,0,164.113,9.158Zm-.713.992a7.183,7.183,0,0,0-2.07-1.5C162.263,9.988,162.59,10.213,163.4,10.15ZM124.943,44.1l-.885-5.213-.357.068a20.369,20.369,0,0,0,.947,5.2Zm.949-1.724a5.251,5.251,0,0,0-.578-3.071A5.347,5.347,0,0,0,125.892,42.379Z" fill="#151611"/>
</svg>
