<svg xmlns="http://www.w3.org/2000/svg" viewBox="0 0 220.51 212.041">
  <path d="M1.564,159.651c-.531-4.2-1.238-7.364-1.541-10.594A3.679,3.679,0,0,1,.8,146.284q5.267-6.9,10.532-13.8c4.632-6.1,9.3-12.165,13.865-18.307,10.152-13.651,20.3-27.305,30.6-40.846C66.365,59.435,76.765,45.409,87.4,31.562c7.083-9.218,14-18.564,21.022-27.829C109.283,2.6,110.348,1.626,111.3.56A1.722,1.722,0,0,1,113.45.219c4.333,1.591,8.542,3.485,12.813,5.226,10.41,4.244,21.027,7.918,31.646,11.6,7.93,2.75,15.779,5.744,23.756,8.352,9.013,2.948,18.052,5.82,27.006,8.943a41,41,0,0,1,8.041,3.667,5.029,5.029,0,0,1,1.574,6.721,51.352,51.352,0,0,1-3.218,4.856,5.6,5.6,0,0,0-1.059,3.6c-.09,3.106-.212,6.211-.345,9.316-.043,1.009.123,1.647,1.4,1.56a17.586,17.586,0,0,1,3.255.222c1.8.218,2.6,1.589,1.987,3.364a26.735,26.735,0,0,1-2.815,5.2q-7.407,12.015-14.86,24c-4,6.448-8.032,12.876-12,19.343-4.158,6.775-8.245,13.594-12.387,20.379q-6.567,10.76-13.178,21.491-7.416,12.087-14.837,24.171-7.226,11.715-14.5,23.4a34.938,34.938,0,0,1-3.69,5.255,2.788,2.788,0,0,1-3.535.866q-7.137-2.642-14.274-5.282c-4.333-1.614-8.637-3.307-12.992-4.86-8.841-3.153-17.737-6.156-26.556-9.37-8.105-2.954-16.2-5.943-24.311-8.876q-8.385-3.03-16.689-6.283c-7.256-2.838-14.574-5.507-21.865-8.249-1.988-.748-3.953-1.556-5.933-2.324a2.886,2.886,0,0,0-1.139-.313c-1.008.069-1.4-.526-1.731-1.323A20.459,20.459,0,0,1,1.564,159.651ZM82.157,50.49l-.181.262A14.829,14.829,0,0,1,78.905,48.8c-.665-.549-1-.442-1.51.229C69.463,59.587,61.48,70.109,53.554,80.674,41.5,96.75,29.064,112.54,17.1,128.685q-6.693,9.03-13.541,17.944c-.787,1.025-.269,1.184.537,1.343a24.243,24.243,0,0,1,5.435,1.486c4.144,1.882,8.291,3.759,12.411,5.693a105.936,105.936,0,0,0,10.277,3.7c4.275,1.5,8.445,3.293,12.661,4.956.156.062.3.111.274.572-13.327-3.708-25.941-9.345-39.2-13.375.089.722.178,1.355.24,1.991a.773.773,0,0,0,.656.75c4.184,1.014,8.126,2.789,12.275,3.912.368.1.815.08,1.045.493-.39.364-.791.076-1.138-.026-2.841-.837-5.663-1.73-8.443-2.755-1.088-.4-2.2-.735-3.313-1.069a.85.85,0,0,0-.68.056c-.257.22.012.522.053.788.067.428.5.4.759.487,2.3.736,4.617,1.393,6.906,2.145,2.593.851,5.161,1.776,7.74,2.669l-.129.416c-5-1.6-9.936-3.445-14.994-4.766-.065,1.774.812,2.621,2.446,3.031,2.363.593,4.689,1.344,7.005,2.1a4.233,4.233,0,0,1,2.141,1.078c-3.595-1.1-7.184-2.186-10.831-3.174a14.885,14.885,0,0,1,.216,1.9c-.01.767.436,1.065,1.045,1.284,8.252,2.961,16.511,5.9,24.751,8.891q30.186,10.962,60.351,21.983c11.032,4.056,22.24,7.624,33.168,11.964.534.212.571,0,.759-.331,1.452-2.589,3.015-5.115,4.507-7.679,5.558-9.547,11.442-18.892,17.358-28.216,5.2-8.2,10.117-16.577,15.343-24.764,4.612-7.225,9.01-14.586,13.475-21.9q8.787-14.4,17.819-28.654c4.564-7.224,9.049-14.5,13.526-21.776.648-1.054,1.572-2.059,1.335-3.674-1.772,2.46-3.454,4.8-5.136,7.134-.179-.355-.153-.567-.045-.72,1.58-2.252,3.155-4.507,4.765-6.737a5.277,5.277,0,0,0,.75-4.176c-4.337,6.987-9.484,13.318-14.209,19.975a1.639,1.639,0,0,1,.361-1.194c1.451-2.046,2.835-4.143,4.363-6.129,3.187-4.14,6.064-8.491,9.007-12.8,1.231-1.8.731-3.642.878-5.506-3.334,4.556-5.521,9.784-8.949,14.419a2.187,2.187,0,0,1,.547-1.658c.44-.724.908-1.431,1.363-2.145,1.973-3.095,3.5-6.444,5.513-9.521,1.986-3.037,1.922-3.079,1.79-5.627-2.664,3.9-5.385,7.615-7.766,11.576-4.482,7.459-9.211,14.768-13.565,22.306q-8.9,15.41-18.9,30.132c-3.759,5.524-7.616,10.982-11.143,16.66-3.987,6.421-7.939,12.865-11.925,19.286-3.838,6.184-7.974,12.177-11.751,18.4q-6,9.882-12.233,19.615a1.477,1.477,0,0,1-1.812.763,31.712,31.712,0,0,1-5.228-1.542,108.668,108.668,0,0,0-11.487-4.224c-3.226-1.083-6.53-2.046-9.78-3.107-4.792-1.563-9.531-3.3-14.265-5.03-6.278-2.3-12.6-4.5-18.769-7.063-4.22-1.75-8.274-3.89-12.745-5-.307-.076-.712-.132-.764-.606a2.127,2.127,0,0,1,1.325.059,88.83,88.83,0,0,1,11.9,3.707c3.346,1.284,6.826,2.213,10.212,3.4,5.336,1.869,10.675,3.736,15.951,5.766,4.2,1.616,8.579,2.651,12.807,4.168a76.773,76.773,0,0,0,11.817,3.6,15.829,15.829,0,0,1,2.991.993c2.1.851,4.174,1.765,6.267,2.634.318.132.632.472.937-.2a88.772,88.772,0,0,1,6.035-10.449c3.214-5.077,6.236-10.269,9.358-15.4,4.369-7.181,8.743-14.36,13.3-21.425,3.2-4.957,6.127-10.088,9.328-15.044,4.24-6.564,8.629-13.031,12.953-19.541,6.541-9.849,11.994-20.353,18.281-30.356,4.783-7.608,9.21-15.437,14.232-22.9q4.379-6.5,8.822-12.96c.487-.706.29-1.021-.344-1.4a38.573,38.573,0,0,0-6.5-2.965c-5.905-2.182-11.931-4.016-17.892-6.037Q166.424,22.621,140.9,13.794a238.127,238.127,0,0,1-26.94-10.707c-1.758-.86-1.752-.866-2.8.875a3.7,3.7,0,0,1-.437.583c-.464.512-.47.775.272,1.1,2.355,1.037,4.666,2.175,6.988,3.288.208.1.608.126.4.627-.561-.219-1.129-.4-1.664-.655-1.748-.826-3.51-1.627-5.215-2.534-1.147-.61-1.9-.545-2.586.685-.372.673-.532.9.328,1.221,1.26.467,2.456,1.108,3.679,1.675A5.833,5.833,0,0,1,109.538,8.9c-1.238-.648-1.888-.341-2.588.771-.515.82-.254,1.061.456,1.376,1.585.706,3.149,1.46,4.73,2.2-.217.366-.386.273-.581.186-1.466-.652-2.971-1.227-4.391-1.966-.866-.451-1.281-.275-1.848.476C99.73,19.351,94.087,26.717,88.489,34.117c-3.153,4.167-6.24,8.385-9.386,12.558-.585.776-.766,1.294.264,1.867A31.219,31.219,0,0,1,82.157,50.49ZM1.208,149.056a138.048,138.048,0,0,0,3.454,14.933A2.282,2.282,0,0,0,6.37,165.7c9.238,3.167,18.495,6.283,27.684,9.589,8.566,3.083,17.2,5.977,25.75,9.106,14.407,5.27,28.861,10.407,43.2,15.861,8.343,3.172,16.833,5.954,25.255,8.917,2.165.762,2.142.76,3.274-1.243,3.34-5.908,6.947-11.653,10.517-17.422,5.274-8.524,10.486-17.086,15.746-25.618q7.922-12.853,15.885-25.68,8.988-14.535,17.968-29.074,5.756-9.325,11.477-18.672,6.072-9.915,12.113-19.848c.957-1.568,1.928-3.128,2.935-4.76a35.5,35.5,0,0,1-3.609-.526c-.885-.22-.906.1-.905.811a6.407,6.407,0,0,1-1,4.021c-3.34,4.927-6.357,10.074-9.48,15.147-3.041,4.938-6.057,9.89-9.093,14.831q-5.127,8.347-10.275,16.681c-2.741,4.415-5.539,8.8-8.292,13.2q-4.065,6.508-8.092,13.041-3.435,5.543-6.862,11.09c-2.74,4.417-5.5,8.821-8.226,13.246-2.659,4.318-5.261,8.671-7.932,12.981q-4.27,6.891-8.629,13.727c-2.234,3.506-4.572,6.946-6.773,10.472-.659,1.056-1.325,1.095-2.394.776-4.55-1.358-8.929-3.174-13.367-4.834-11.009-4.117-22.121-7.95-33.185-11.913q-16.737-5.993-33.452-12.046Q28.335,170.981,10.053,164.4a6.293,6.293,0,0,0-2.508-.795,1.343,1.343,0,0,1-1.535-1.053A36.253,36.253,0,0,1,3.942,151.5c0-1.222-.371-1.773-1.453-2.034C2.145,149.379,1.812,149.249,1.208,149.056Zm133.779,2.95a2.491,2.491,0,0,1-.56,1.381c-5.68,8.339-10.5,17.214-16.076,25.62a1.765,1.765,0,0,0-.3.9c-.08,1.168-.506,1.5-1.626,1.122-1.371-.461-2.7-1.033-4.051-1.562-9.6-3.771-19.219-7.516-28.809-11.323-10.975-4.357-21.947-8.724-32.973-12.951-10.048-3.852-20.064-7.785-30.1-11.673-1.169-.453-2.259-1.056-3.375-1.616-.74-.371-.518-.763-.163-1.212,3.709-4.688,7.23-9.519,10.724-14.367,2.81-3.9,5.548-7.851,8.5-11.652A1.7,1.7,0,0,1,38.606,114c9.309,3.842,18.77,7.3,28.178,10.893q21.844,8.343,43.675,16.721c7.517,2.89,15.013,5.834,22.514,8.767C133.784,150.694,134.714,150.9,134.987,152.006Zm-116.1-11.075c3.968,1.516,7.858,2.963,11.719,4.485,10.914,4.3,21.792,8.7,32.73,12.939,17.291,6.7,34.622,13.3,51.924,19.973.686.264.969.151,1.312-.432,1.163-1.982,2.373-3.935,3.558-5.9,3.969-6.593,8.328-12.945,12.115-19.651.422-.748.355-1.024-.478-1.327-5.183-1.886-10.364-3.778-15.511-5.756-26.088-10.028-52.157-20.1-78.314-29.947-.422-.159-.508-.139-.752.237-1.052,1.615-2.138,3.211-3.271,4.771q-4.806,6.615-9.661,13.2C22.469,135.953,20.927,138.567,18.887,140.931Zm157.14-76.784c-9.762.476-18.973-1.983-28.035-5.262a102.022,102.022,0,0,1-17.637-8.548c-5.282-3.163-10.255-6.746-13.983-11.785a9.648,9.648,0,0,1-2.138-5.821c0-2.61,2.007-4.7,5.449-5.682,4.388-1.256,8.82-.953,13.244-.258,12.372,1.944,23.821,6.449,34.682,12.572,4.97,2.8,9.689,5.931,13.541,10.214a18.908,18.908,0,0,1,3.225,4.964c1.625,3.632.058,7-4.086,8.673A13.547,13.547,0,0,1,176.027,64.147ZM123.282,28.705a14.1,14.1,0,0,0-4.427,1.13,3.563,3.563,0,0,0-2.019,4.615,12.585,12.585,0,0,0,2.734,4.673,51.413,51.413,0,0,0,11.912,9.448,90.238,90.238,0,0,0,14.377,6.979c8,3.141,16.149,5.7,24.785,6.336a22.86,22.86,0,0,0,9.93-1.113A3.242,3.242,0,0,0,182.856,57a8.59,8.59,0,0,0-2.07-4.313c-3.653-4.611-8.392-7.967-13.32-10.979A98.9,98.9,0,0,0,140.34,30.537,51.79,51.79,0,0,0,123.282,28.705Zm-74.661,145.4c3.116,1.4,6.282,2.675,9.519,3.755,8.253,2.754,16.616,5.209,24.762,8.246,13.913,5.186,27.713,10.672,41.862,15.206.208.066.478.426.719.011-.786-.764-75.61-27.4-77.257-27.721C48.143,173.94,48.419,174.018,48.621,174.108Zm-6.384-5.327c6.931,2.29,13.937,4.356,20.847,6.693,7.372,2.493,14.593,5.426,21.9,8.118,7.981,2.941,15.983,5.827,23.979,8.73.449.163.906.53,1.565.006-24-8.5-47.461-18.163-72.113-25.2A18.074,18.074,0,0,0,42.237,168.781Zm97.145,9.961c1.714-3.1,3.391-6.227,5.127-9.317,3.119-5.552,6.206-11.122,9.52-16.563,2.766-4.542,5.44-9.141,8.164-13.71.221-.373.412-.716.183-1.152-8.387,13.608-16.5,27.285-24,41.638A1.394,1.394,0,0,0,139.382,178.742Zm-77.014-6.494c-5.323-1.895-10.85-3.11-16.229-4.813-6.163-1.95-12.047-4.663-18.159-6.759-.336-.115-.654-.513-1.083-.173.123.379.448.442.75.556,6.036,2.269,11.991,4.791,18.126,6.753,7.524,2.405,15.206,4.319,22.6,7.148a.958.958,0,0,0,1.075-.121C67.019,173.949,64.7,173.078,62.368,172.248Zm90.784-12.18c.417-.418,16.849-28.551,16.832-28.817C166.739,135.188,153.312,158.177,153.152,160.068Zm-30.138,34.824-20.28-7.36-.152.42c6.728,2.52,13.456,5.041,20.259,7.353Zm11.947-10.77-8.874,13.637C127.153,197.4,135.183,185.139,134.961,184.122ZM51.206,109.488c4.533,2.357,9.086,4.675,13.508,7.257A56.211,56.211,0,0,0,51.206,109.488ZM180.72,30.541a41.235,41.235,0,0,0,13.665,6.725A114.4,114.4,0,0,1,180.72,30.541ZM133.856,180.809c-2.36,4.582-5.4,8.687-7.575,13.456C127.309,193.68,134.023,181.71,133.856,180.809ZM56.928,107.038c-1.115-.7-2.228-1.407-3.346-2.1-2.357-1.469-4.686-2.988-7.161-4.252a2.156,2.156,0,0,0-2.143-.344c4.562,1.791,8.239,4.851,12.433,6.987ZM35.482,168.747a96.027,96.027,0,0,0-12.459-4.587C23.792,164.921,34.852,168.92,35.482,168.747Zm3.457-61.653c3.7,2.457,7.314,5.073,11.448,6.769C46.555,111.625,42.89,109.11,38.939,107.094ZM200.423,59.2c-3.8-1.786-7.434-3.892-11.068-5.992A34.882,34.882,0,0,0,200.423,59.2ZM31.2,151.847a108.807,108.807,0,0,0-10.9-4.715C20.958,148,30.571,152.077,31.2,151.847ZM84.59,120.392c3.155,2.243,6.758,3.532,10.339,4.866C91.572,123.446,87.993,122.107,84.59,120.392ZM87.869,65.7a104,104,0,0,1-9.476-4.439c-.2-.109-.444-.348-.585,0s.166.426.434.563q4.5,2.3,9.193,4.186c.284.114.574.34.923.016A3.089,3.089,0,0,0,87.869,65.7ZM208.447,45.364a110.017,110.017,0,0,0-9.514-5.858A57.793,57.793,0,0,0,208.447,45.364ZM196.692,84.221l-5.7,9.838.383.22c1.908-3.269,3.958-6.455,5.664-9.841Zm-37.176,44.5a84.2,84.2,0,0,0-8.52-5.1l-.2.329,8.478,5.089Zm-60.187-3.768a33.109,33.109,0,0,0,8.643,4.157C105.166,127.55,102.217,126.317,99.329,124.954Zm45.466,22.164-7.922-4.587C137.6,143.739,143.454,147.1,144.795,147.118ZM203.1,39.718c3.06.763,5.816,2.46,8.946,2.9C209.082,41.532,206.3,39.976,203.1,39.718ZM130.914,193.954l-4.467,7.152.408.248c1.428-2.429,3.214-4.637,4.348-7.247Zm43.9-74.6c-1.317,2.418-2.724,4.79-3.82,7.319l.376.193,3.835-7.34ZM60.68,77.181l7.364,3.891.175-.33a77.438,77.438,0,0,0-7.338-3.94Zm75.78,100.732a52.318,52.318,0,0,0,4.024-7.142l-.319-.18-4.021,7.125ZM7.283,144.033c2.39,1.135,4.571,2.74,7.238,3.252C12.082,146.26,9.921,144.61,7.283,144.033ZM134.819,61.384a40.351,40.351,0,0,0,6.608,3.009l.151-.331-6.592-3Zm11.993,2.437c-.174.54.208.67.584.864,1.636.845,3.256,1.721,4.889,2.571a.7.7,0,0,0,.893-.015c-2.127-1.3-4.269-2.33-6.383-3.405Zm-10.871,3.652-6-3.156C130.914,65.676,134.8,67.647,135.941,67.473ZM91.061,43.065,85.612,39.5l-.219.337a53.487,53.487,0,0,0,5.418,3.571Zm-7.006,18.41a23.64,23.64,0,0,0-5.269-3.39A19.905,19.905,0,0,0,84.055,61.475Zm77.753-37.363,5.6,2.09C166.3,25.039,162.765,23.8,161.808,24.112Zm36.549,62.8a21.2,21.2,0,0,0,3.382-5.053A21.53,21.53,0,0,0,198.357,86.916Zm-68.342-72.8c-.877-.464-1.642-1.207-2.757-1.153,1.743.968,3.259,2.388,5.361,2.57C131.724,15.08,130.881,14.579,130.015,14.12ZM10,142.4a19.849,19.849,0,0,0,5.071,2.6l.143-.275L10.2,142.081ZM168.28,127.6a11.9,11.9,0,0,0,2.507-5C169.984,124.285,168.807,125.786,168.28,127.6Zm-75.514-9.8a23.426,23.426,0,0,0,4.825,2.755l.154-.273-4.772-2.839ZM86.633,37.351a31.131,31.131,0,0,0,4.344,3l.224-.329-4.317-3Zm87.116,70.1c-.373-1.236-3.4-3.157-4.75-3.02A41.573,41.573,0,0,1,173.749,107.449Zm4.777-20.092c1.6.775,2.814,2.212,4.622,2.632C181.682,88.988,180.388,87.662,178.526,87.357ZM60.878,85.685c-1.324-.729-2.647-1.461-3.977-2.182-.155-.084-.347-.27-.524-.027s.013.379.187.47c1.363.709,2.732,1.407,4.1,2.109ZM87.562,46.077a14.282,14.282,0,0,0-4.424-2.718A16.1,16.1,0,0,0,87.562,46.077ZM197.539,55.06a15.277,15.277,0,0,0,4.192,2.487A10.6,10.6,0,0,0,197.539,55.06Zm-58.95,4.557a33.587,33.587,0,0,0-4.828-2.1C134.542,58.406,137.639,59.766,138.589,59.617Zm34.44,49.719a9.854,9.854,0,0,0-4.144-2.419A15.924,15.924,0,0,0,173.029,109.336ZM78.688,54.153a12.947,12.947,0,0,0,4.287,2.54A13.272,13.272,0,0,0,78.688,54.153ZM17.009,148.715c1.3.993,2.546,2.092,4.28,2.255C19.816,150.307,18.621,149.113,17.009,148.715ZM44.29,106l.162-.321c-1.44-.863-2.8-1.887-4.61-2.013Zm45.522,19.982c-1.465-.606-2.806-1.541-4.409-1.783l-.122.319,4.4,1.837ZM105.619,13.075l3.841,2.279.2-.342c-1.273-.774-2.377-1.842-3.876-2.22Zm98.969,39.112-3.8-2.128-.18.333a14.278,14.278,0,0,0,3.806,2.122Zm.655-2.857a13.738,13.738,0,0,0-4.11-2.345l-.178.314,4.14,2.309ZM78.727,178.817a19.124,19.124,0,0,0-4.057-1.362A6.075,6.075,0,0,0,78.727,178.817Zm-16.76-96.1a12.214,12.214,0,0,0-3.947-1.948A9.81,9.81,0,0,0,61.967,82.716ZM183.4,87.252c-1.168-.547-2.134-1.522-3.62-1.394l3.393,1.8ZM121.538,11.076a13.55,13.55,0,0,0,3.74,1.033A4.88,4.88,0,0,0,121.538,11.076ZM48.587,98.79a7.078,7.078,0,0,0,3.445,1.259A5.548,5.548,0,0,0,48.587,98.79Zm108.65,26.882a5.9,5.9,0,0,0-3.453-1.889A11.967,11.967,0,0,0,157.237,125.672ZM89.375,54.556a10.9,10.9,0,0,0-3.232-1.989A5.271,5.271,0,0,0,89.375,54.556ZM66.584,76.226a8.03,8.03,0,0,0-3.478-1.15A7.759,7.759,0,0,0,66.584,76.226Zm125.13-26.345a6.563,6.563,0,0,0-3.141-1.1l-.106.324,3.14,1.06ZM32.267,164.3l-3.03-.988A2.6,2.6,0,0,0,32.267,164.3ZM132.434,62.655a17.672,17.672,0,0,0-3.053-1.355C130.475,62.419,131.433,62.835,132.434,62.655ZM66.358,72.324a3.945,3.945,0,0,0,3.06.866l-2.9-1.166ZM175.1,104.4a6.657,6.657,0,0,0-2.739-1.631C173.391,103.933,174.4,104.5,175.1,104.4ZM48.463,95.693a4.133,4.133,0,0,0,2.885,1.64C49.971,96.227,49.05,95.716,48.463,95.693ZM157.587,22.8c-.97-.218-1.659-1.118-2.825-.98C155.952,22.806,157.033,23.187,157.587,22.8Zm.486,107.276a5.44,5.44,0,0,0-2.673-1.7A4.63,4.63,0,0,0,158.073,130.079Zm36.772-69.053a5.9,5.9,0,0,0,2.949.993A4.782,4.782,0,0,0,194.845,61.026Zm-52.571,81.636a3.114,3.114,0,0,0,2.579,1.263A6.475,6.475,0,0,0,142.274,142.662ZM93.48,121.308a3.611,3.611,0,0,0,2.775.988l-2.61-1.266ZM131.1,67.326a4.136,4.136,0,0,0-2.378-.995C129.446,66.8,130.1,67.461,131.1,67.326ZM97.335,33.813a9.076,9.076,0,0,1-2.644-1.479A2.093,2.093,0,0,0,97.335,33.813ZM68.991,87.24A4.3,4.3,0,0,0,66.677,85.8C67.351,86.414,67.954,87.178,68.991,87.24Zm74.969,63.216a2.3,2.3,0,0,0-2.534-1.07Zm2.831-86.617a6.526,6.526,0,0,0-2.357-1.177c.669.627,1.216,1.492,2.378,1.159ZM93.242,49.116,91.293,47.88A1.717,1.717,0,0,0,93.242,49.116ZM73.576,152.289a.843.843,0,0,0,1.091.286c1.415-.78,2.535-.084,3.694.6a11.072,11.072,0,0,0,2.677,1.1,4.9,4.9,0,0,1,2.212.9,13.615,13.615,0,0,0,4.655,2.485,29.178,29.178,0,0,1,4.557,2.25,30.192,30.192,0,0,0,10.025,4.3,4.315,4.315,0,0,1,3.145,2.41,3.97,3.97,0,0,0,2.581,2.221c2.531.665,5.136.548,7.9.885a4.117,4.117,0,0,0-2.442-1.562q-2.205-.508-4.429-.938a2.883,2.883,0,0,1-2.192-1.537,5.531,5.531,0,0,0-4.267-3.01c-.857-.17-1.731-.272-2.573-.5-1.465-.391-3.178-.436-4.208-1.63a14.832,14.832,0,0,0-4.882-3.277c-2.313-1.182-4.979-1.7-6.859-3.714a3.048,3.048,0,0,0-1.4-.688,26.508,26.508,0,0,1-4.6-1.811c-.562-.274-1.507-.247-1.722-.652a2.217,2.217,0,0,0-1.982-1.113,17.719,17.719,0,0,0-6.472.559,8.986,8.986,0,0,0-1.689.645.56.56,0,0,0,.311,1.075c.6-.093,1.191-.216,1.784-.336a18.929,18.929,0,0,1,5.459-.538C73.71,151.266,73.131,151.679,73.576,152.289Zm47.307,3.732c-2.767-1.21-5.566-2.337-7.928-4.312a7.07,7.07,0,0,0-2.247-1.165,66,66,0,0,0-9.866-2.9c-1.356-.237-2.862-.262-3.967-1.165a8.255,8.255,0,0,0-3.7-1.561c-3.082-.668-6.081-1.513-8.494-3.758a6.123,6.123,0,0,0-2.707-1.29,9.148,9.148,0,0,1-3.127-1.43c-1.451-1.031-3.313-1.1-5.09-1.089a.73.73,0,0,0-.765.656c-.031.5.421.568.756.626.55.1,1.128.043,1.671.163,1,.219,2.257-.254,2.967.612a5.651,5.651,0,0,0,2.684,1.766c3.817,1.3,7.325,3.347,11.143,4.614,1.95.647,3.352,2.217,5.319,2.793,2.937.86,6,1.255,8.869,2.345,3.173,1.2,6.607,1.7,9.554,3.515,2.12,1.305,4.588,1.819,6.8,2.966C122.408,156.54,121.6,156.333,120.883,156.021Zm-70.862-16.4c-2.127-1.353-3.892-3.3-6.482-3.888a.548.548,0,0,1-.3-.2c-.917-1.315-2.377-1.548-3.773-1.906a3.856,3.856,0,0,1-1.605-.809,4.813,4.813,0,0,0-3.269-1.011c-.693-.011-1.544.118-1.441,1.049.086.786.882.7,1.468.6a4.654,4.654,0,0,1,3,.581,49.609,49.609,0,0,1,5.039,2.919c1.96,1.272,4.056,2.433,6.117,3.6,1.407.795,2.955,1.437,4.7.655C52.064,141.185,51.082,140.3,50.021,139.623Zm4.447-11.059a13.809,13.809,0,0,1-4.454-2.346c-1.169-1.083-3.269-1.062-3.641-3.074-.017-.09-.17-.183-.278-.222A14.117,14.117,0,0,0,39.98,122c-.274.025-.622.118-.6.467.021.381.4.331.666.357,1.434.138,2.875.226,4.3.421.879.121,1.785.335,1.772,1.554a.816.816,0,0,0,.646.794,7.325,7.325,0,0,1,2.7,1.751,10.291,10.291,0,0,0,4.592,2.494,5.694,5.694,0,0,1,2.463.886C56.378,129.636,55.961,129.162,54.468,128.564Zm11.972,6.6a.7.7,0,1,0-1.372.259c.092.423.433.52.856.54A.757.757,0,0,0,66.44,135.162Zm-.08-3.138c-.308.057-.636.218-.561.621.069.365.246.709.707.661a.626.626,0,0,0,.627-.707A.62.62,0,0,0,66.36,132.024Zm-6.354,14.021a.58.58,0,0,0,1.13-.251.617.617,0,0,0-.712-.493A.606.606,0,0,0,60.006,146.045Zm2.312-3.247c-.337.034-.659.177-.59.587a.647.647,0,0,0,.65.605.563.563,0,0,0,.595-.59C62.883,143.033,62.721,142.758,62.318,142.8Z" fill="#151611"/>
</svg>
