<svg xmlns="http://www.w3.org/2000/svg" viewBox="0 0 173.646 174.802">
  <path d="M.02,64.646C.309,52.782.093,42.328.129,31.875c.008-2.455.182-4.91.2-7.365.018-2.046,1.553-2.659,3.024-3.166,4.126-1.42,8.38-2.412,12.586-3.568,8.651-2.378,17.287-4.81,25.925-7.236C53.587,7.249,65.351,4.1,76.881.169a2.227,2.227,0,0,1,2.476.516,101.958,101.958,0,0,0,13.009,9.576c1.21.781,2.357,1.662,3.508,2.531a3.358,3.358,0,0,1,1.2,1.584c1.77,5.225,5.82,8.6,9.822,11.971,5.436,4.575,11.658,8.012,17.689,11.7a16.824,16.824,0,0,0,9.869,2.663,3.43,3.43,0,0,1,2.319.947c7.924,5.672,15.068,12.322,22.823,18.2a102.071,102.071,0,0,1,12.858,11.388,4.187,4.187,0,0,1,1.187,3.1c-.043,17.634-.023,35.267-.08,52.9-.008,2.6-.282,5.2-.221,7.8.007.289-.024.581.006.868.268,2.584.3,2.642-2.21,3.786-5.755,2.625-11.547,5.171-17.311,7.78-9.664,4.374-19.2,9.022-28.742,13.648-9.315,4.514-18.66,8.979-28.22,12.964-2.922,1.219-5.613.955-7.95-1.407a54.632,54.632,0,0,0-7.357-6.059c-5.048-3.577-9.434-7.949-14.244-11.81-.188-.151-.343-.373-.556-.457-2.941-1.167-3.873-3.887-5.142-6.421C56.85,138.409,50.6,130.056,41.846,123.8a28.3,28.3,0,0,0-11.576-5.108,4.927,4.927,0,0,0-2-.1c-1.684.428-2.9-.3-4.163-1.258-4.677-3.563-9.113-7.421-13.681-11.117-3.22-2.6-6.424-5.228-9.482-8.026A2.607,2.607,0,0,1,0,96.07C.032,85.125.02,74.18.02,64.646Zm94.055,107.8c1.509-.678,2.776-1.213,4.014-1.809,13.963-6.735,28.008-13.307,41.852-20.279,9.517-4.792,19.206-9.156,29.055-13.182,1.5-.612,2.016-1.233,1.6-2.8a11.876,11.876,0,0,1-.128-2.736c-.159-6.36.139-12.718.144-19.074.008-9.153-.248-18.306.222-27.455a57.094,57.094,0,0,0-.16-10.965c-.132.038-.269.065-.4.116-8.99,3.581-17.994,7.127-26.963,10.757-8.937,3.617-18.089,6.7-26.864,10.707-6.562,3-13.221,5.75-20.016,8.153a2.243,2.243,0,0,0-1.776,2.551c.022,1.923.141,3.841.09,5.773-.143,5.339-.743,10.655-.686,16.006q.2,18.94.286,37.883C94.355,168.148,94.175,170.205,94.075,172.445ZM58.723,92.033a4.878,4.878,0,0,1,.258,2.934c-.343,5.465-.775,10.925-1.05,16.394-.212,4.233-.133,8.482-.388,12.712a60.349,60.349,0,0,1-.457,6.908,4.525,4.525,0,0,0,1.028,3.861c1.483,1.825,2.69,3.873,4.026,5.819a6.034,6.034,0,0,0,1.313,1.82c0-.731.006-1.254,0-1.777-.2-14.606-.271-29.213-.085-43.82a134.764,134.764,0,0,0-.495-18.337,12.177,12.177,0,0,0-2.7-6.178c-.2,4.414-1.047,8.721-1.408,13.092a10.805,10.805,0,0,1-.174-3.716c.318-3.341.942-6.659.789-10.039a1.4,1.4,0,0,0-.328-1.057,49.507,49.507,0,0,0-4.883-4.516V76.759c-.82-.411-.577-1.065-.582-1.595-.025-2.748-.019-5.5-.009-8.245a2.663,2.663,0,0,0-.984-2.256c-2.139-1.8-4.186-3.7-6.3-5.528A13.19,13.19,0,0,0,43.2,56.92c-.241,2.555-.47,4.984-.7,7.413a.9.9,0,0,1-.462-.745c.124-1.868.265-3.735.438-5.6.069-.745.389-1.45-.575-1.96-2.551-1.35-4.98-2.911-7.386-4.505a2.156,2.156,0,0,0-1.484-.548c-.077,2.6.645,5.178.152,7.785-.424-.133-.435-.444-.428-.726.045-1.783-.229-3.552-.256-5.321-.025-1.585-.423-2.407-2.106-2.782-2.881-.64-2.818-.763-2.862,2.211-.3,20.244-.182,40.5-1.19,60.728-.123,2.449-.118,2.36,2.3,2.07,1.128-.135,1.276-.614,1.222-1.557-.217-3.759.713-7.5.05-11.5a2.478,2.478,0,0,1,.8,2.258c-.088,3.175-.2,6.35-.277,9.525-.009.363-.186.944.2,1.051a8.336,8.336,0,0,0,2.826.406c.3-.022.131-1.043.147-1.608.045-1.541.066-3.084.1-4.626.007-.307-.191-.71.367-.793a3.966,3.966,0,0,1,.175,1.527q-.057,2.529-.046,5.06c0,.33-.232.833.344.949,1.786.36,3.328,1.349,5.14,2.071-.061-5.776.164-11.4-.012-17.044a4.65,4.65,0,0,1,.59,2.344c-.022,4.863-.031,9.725-.089,14.588,0,.337.007.51.281.689,1.548,1.011,3.088,2.035,4.7,3.1V110.33a4,4,0,0,1,.3.7c.28,3.452.518,6.907.545,10.372,0,.334-.091.66.218.931,1.607,1.414,3.206,2.838,5.038,4.461a84.068,84.068,0,0,1,1.114-16.723,13.827,13.827,0,0,1,0,3.3,116.959,116.959,0,0,0-.526,13.548,1.149,1.149,0,0,0,.143.689c1.389,1.559,2.806,3.094,4.454,4.9C57.2,118.759,57.374,105.361,58.723,92.033ZM3.513,23.211c.368.4.512.6.689.75,7.1,6.224,13.89,12.78,20.567,19.454.779.779,1.306,1.834,2.311,2.349q2.567,1.317,5.21,2.483A89.864,89.864,0,0,1,51.976,60.722c4.611,3.685,8.313,8.292,12.284,12.617a7.591,7.591,0,0,1,2.362,5.126,1.232,1.232,0,0,0,.544.969c5.793,4.8,10.882,10.378,16.822,15.013a77.985,77.985,0,0,1,6.931,5.9c2.325,2.3,2.336,2.26,5.276.977q22.385-9.768,45.273-18.292c6.8-2.523,13.38-5.561,20.089-8.293a58.1,58.1,0,0,1,8-2.7c-2.728-2.329-5.362-4.508-7.921-6.772a303.574,303.574,0,0,0-26.323-21.425,6.048,6.048,0,0,0-3.129-1.284,18.179,18.179,0,0,1-7.769-2.479c-6.536-3.693-13.111-7.347-18.9-12.179-4.329-3.611-8.461-7.432-10.268-13.048-.191-.591-.714-.756-1.136-1.036-5.02-3.319-9.966-6.745-14.649-10.526a2.186,2.186,0,0,0-2.3-.5c-6.476,1.934-12.987,3.733-19.511,5.5-11.61,3.146-23.038,6.949-34.725,9.841C16.515,19.72,10.261,21.88,3.513,23.211Zm88.823,84.516c.138-.443-.155-1.141.167-1.772.33-.648.026-1.087-.511-1.454a71.976,71.976,0,0,1-5.471-4.716C80,94.3,73.407,88.877,67.122,83.106c-.082-.076-.251-.057-.279-.062,0,1.364.011,2.707,0,4.051-.187,20.485.579,40.971-.013,61.456a3.162,3.162,0,0,0,1.6,3.15,23.535,23.535,0,0,1,2.1,1.525c5.09,3.727,9.276,8.571,14.746,11.842a25.711,25.711,0,0,1,4.92,4.239c.351.355.607.859,1.283,1,0-.431,0-.806,0-1.181-.061-10.986-.157-21.972-.165-32.958,0-3.419.047-6.837-.053-10.256a1.712,1.712,0,0,0-.927-1.73A73.393,73.393,0,0,1,80.187,116.9c-.258-.2-.734-.373-.354-1.034,3.667,2.83,7.126,5.907,11.431,8.085a28.269,28.269,0,0,1,.317-8.068c.471-2.349-.586-3.343-2.225-4.393-.851-.545-1.859-1.019-2.139-2.214l4.351,3.085c1.075-2.484.383-4.25-1.857-5.619-6.146-3.755-11.01-9.179-17.025-13.087.149-.285.378-.325.521-.236C79.969,97.666,85.325,103.744,92.336,107.727Zm-68.852-4.359c0-4.917-.074-9.489.014-14.059q.389-20.238.9-40.473a3.92,3.92,0,0,0-1.115-3.12c-2.1-2.125-4.092-4.351-6.163-6.5C13.2,35.148,8.625,31.806,4.571,27.889c-.7-.68-1.431-1.337-2.178-2.033-.518,1.738.482,2.615,1.551,3.5a33.033,33.033,0,0,1,3.992,3.52l-.268.3L2.362,28.816c0,1.416,0,2.6,0,3.783a.724.724,0,0,0,.409.663,23.384,23.384,0,0,1,4.117,4.009c2.413,2.7,5.389,4.78,8.114,7.137a12.855,12.855,0,0,1,3.11,3.15c-2.741-2.074-5.287-4.38-8.029-6.424-2.815-2.1-4.578-5.28-7.7-7.334,0,2.127.012,4.04-.008,5.952a1.087,1.087,0,0,0,.459.991,34.913,34.913,0,0,1,4.893,4.241c2.111,2.126,4.08,4.393,5.7,6.153-3.4-2.869-6.722-6.79-10.907-9.825-.4,1.755-.131,3.067,1.335,4.117a7.509,7.509,0,0,1,2.727,3.305c-1.395-1.15-2.489-2.626-4.048-3.666,0,3.825-.013,7.515,0,11.205q.051,12.218.127,24.435a2.066,2.066,0,0,0,.576,1.824c2.949,2.543,5.886,5.1,8.768,7.721a13.07,13.07,0,0,1,3.4,3.8L2.771,82.945a18.484,18.484,0,0,1-.016,2.385c-.277,1.92.485,3.162,2.015,4.373,2.56,2.026,4.878,4.36,7.271,6.592.341.318.971.58.621,1.337-1.614-1.478-3.228-2.908-4.787-4.4-1.539-1.47-3.142-2.852-4.924-4.254-.313,1.67,1.522,1.905,1.7,3.192-.789-.046-.99-.977-1.734-.961,0,1.669.064,3.306-.028,4.935a1.706,1.706,0,0,0,.862,1.634q6.055,4.55,12.067,9.159c2.469,1.884,4.925,3.786,7.561,5.815,0-1.364-.094-2.464.021-3.541a3.945,3.945,0,0,0-2.069-4.057c-1.461-.95-2.752-2.162-4.118-3.258l.227-.3c2.148,1.04,3.729,2.934,5.767,4.21.35-1.307.179-2.175-1.12-2.758a18.2,18.2,0,0,1-2.7-1.877c-.281-.2-.423-.372-.08-.765Zm132.662,10.6c-1.282,14.62-7.67,25.944-21.322,32.447a17.886,17.886,0,0,1-13.01,1.323c-6.079-1.788-9.482-6.152-10.936-12.105-1.8-7.344-.309-14.342,2.7-21.083,2.484-5.562,6.449-9.869,11.079-13.835a25.638,25.638,0,0,1,10.055-5.486c11.345-3.124,19.134,3.985,20.955,13.649A39.205,39.205,0,0,1,156.146,113.965Zm-33.384,31.229-.043-.038c.6.64,1.473,0,2.112.516-1.15-1.512-2.852-2.468-3.7-4.2a16.044,16.044,0,0,1,3.063,2.695c1.75,2.109,3.786,1.606,6.051.906l-5.856-6.305a2.221,2.221,0,0,1,1.315.667c.891.876,1.757,1.778,2.625,2.677.769.8,1.495,1.636,2.3,2.4.858.809,1.754.114,2.323-.338.521-.413-.352-.807-.663-1.118a17.673,17.673,0,0,0-1.754-1.4l.421-.429c1.074.316,1.645,1.3,2.413,2.006,1.284,1.183,2.055-.165,2.831-.667.921-.595-.262-.915-.512-1.329a18.738,18.738,0,0,0-1.354-1.761c.564-.136.747.211.969.428,2.309,2.25,2.433,2.253,4.722-.052a1,1,0,0,0,.135-.251l-.045.045c1.732-1.107,1.736-1.112.286-2.407a22.462,22.462,0,0,1-1.847-1.61c-.747-.836-1.889-1.311-2.514-2.357.539-.269.654,0,.817.144,1.531,1.314,3.077,2.611,4.579,3.958.9.8,1.208-.041,1.712-.491.567-.507.581-.874-.082-1.328-.921-.632-1.785-1.346-3-2.271a6.737,6.737,0,0,1,3.291,1.75c.506.364.892.83,1.35.03.327-.571,1.379-1,.338-1.865-.979-.811-1.9-1.688-2.852-2.535,1.622.368,2.623,1.6,3.869,2.594a36.465,36.465,0,0,0,4.674-8.465c1.291-3.281,1.295-3.28-1.308-5.645a1.018,1.018,0,0,0-.256-.126c-.836,1.843-.821,1.828.546,3.261.346.363,1.067.612.631,1.477-1.831-1.965-3.936-3.6-5.3-5.909.738.093.937.759,1.4,1.132.514.412.842,1.043,1.49,1.316,1.332-3.078,1.473-3.923.789-5.119.528.067,1.166.125,1.122-.544-.064-.972-1.055-1-1.679-1.568-.288.782-.489,1.411-.751,2.015-.252.583-.3,1.292-1.049,1.82.017-1.381.81-2.36,1-3.5.059-.359.418-.709-.063-1.007a23.406,23.406,0,0,0-3.041-2.111c-.522.778-.188,2.065-1.48,2.324,1.118-3.112,1.417-2.8-1.131-4.267-1.065,2.84-1.138,2.318,1.008,4.019a.794.794,0,0,1,.141.244c.284.151.6.28.586.736a2.674,2.674,0,0,1-1.925-1.113c-.893-.963-1.121-.458-1.432.425a3.041,3.041,0,0,1-1.081,1.808,3.511,3.511,0,0,1,.546-1.9c.528-1.038.573-1.86-.57-2.576a24.083,24.083,0,0,1-2.2-1.851c-.216-.175-.407-.726-.77-.324-.3.329-.652.8-.454,1.276.132.322.5.558.8.8a10.5,10.5,0,0,1,2.6,2.746c-1.407-.565-1.924-1.513-2.74-2.095-.631-.451-1.254-1.095-1.909.391.836-1.776-.4-2.089-1.281-2.637l-.683,1.212c.75-2.359-1.455-2.557-2.453-3.6-.571.968-.762,2.106-1.72,2.777a15.131,15.131,0,0,1,1.015-2.749c.262-.555-.063-.769-.437-1.032-.541-.38-.62.1-.823.4-1.294,1.894-2.561,3.808-3.912,5.661-.469.645-.894,1.489-2.106,1.507a48.151,48.151,0,0,0,7.418-11.4c-1.576.739-3.12,1.3-3.781,3.195a20.526,20.526,0,0,1-2.436,3.933l-.328-.187c.573-1.6,1.758-2.894,2.391-4.476a32.959,32.959,0,0,0-5.534,6.188c-4.506,6.421-7.481,13.347-7,21.4a17.415,17.415,0,0,0,2.435,8.357A11.676,11.676,0,0,0,122.762,145.194ZM143.3,98.759c.427.695.2,1.321.255,1.905.069.719,1.63,2.047,2.055,1.755.488-.335.468-2.967-.05-3.247-2.424-1.313-7.5-2.136-10.466-.651,1.349.673,1.337.667.654,2.107a5.983,5.983,0,0,0-.455,1.344c-.215,1.066.908.9,1.37,1.31.394.347.46-.354.578-.666a10.825,10.825,0,0,0,1.125-3.791c0-.225-.026-.534.336-.486.3.04.336.318.308.557a5.666,5.666,0,0,1-.233,1.412c-.263.674.241.954.615,1.092.518.191.551-.441.64-.731.134-.433.141-.891.633-1.213.446.731-.057,1.245-.216,1.783-.351,1.186.747,1.26,1.29,1.763.31.287.767.3.807-.068.063-.567.759-1.269-.152-1.752-.2-.108-.3-.406-.212-.413C143.514,100.659,142.649,99.431,143.3,98.759Zm8.172,7.15a10.958,10.958,0,0,0-4.591-5.932c-.358,1.579-.687,3.051-1.029,4.521-.112.486-.49,1.023.243,1.325.331.138.586.674.98.4.454-.321.187-.895.231-1.356.059-.623.063-1.251.105-1.876.038-.559-.253-1.2.595-1.885C147.7,103.965,150.212,104.429,151.474,105.909Zm-5.969.519c-1.259,2.551-1.234,2.69.89,4.4.441.354.912.67,1.4,1.025C148.712,108,149.235,109.373,145.505,106.428Zm-7.239.876c-.314-.441-.084-.677.014-.934a1.092,1.092,0,0,0-.845-1.524c-.672-.193-.469.632-.725.957-.555.7-.294,1.267.354,1.778.9.709,1.788,1.434,2.634,2.2.508.462.692.2.9-.251.728-1.6.458-2.205-1.485-3.358C138.617,106.363,138.813,107.059,138.266,107.3Zm14.508,3.87a5.743,5.743,0,0,0-3.077-5.726c-.083,1.589-1.03,3.366,1.289,4.156.188-.364.164-.9.786-1.232C151.844,109.47,151.211,110.7,152.774,111.174ZM141.408,106.9a21.409,21.409,0,0,0,.673-2.223c.233-1.213-1.071-1.125-1.577-1.725-.2-.239-.4-.1-.573.107a2.2,2.2,0,0,0,.276,3.018C140.579,106.37,140.99,106.615,141.408,106.9Zm1.361-2.365c-.148.547-.283,1.095-.443,1.636a1.882,1.882,0,0,0,1.221,2.462c.229.073.387.141.572-.143C145.254,106.748,144.825,105.447,142.769,104.534Zm7.3,8.939c1.1-2.911,1.041-3.169-.933-4.054C148.162,112.828,148.092,112.2,150.065,113.473Zm1.916,7.139c1.234-1.873-.25-2.51-1.263-3.324-.248-.2-.626-.758-.905-.26-.226.4-.773.983-.213,1.517C150.346,119.259,151.158,119.9,151.981,120.612Zm-.542-9.273c-.159.586-.282,1.131-.456,1.659-.163.5-.48.987.262,1.3.512.215.96.936,1.463.7.537-.258.26-1.033.306-1.589C153.1,112.285,152.35,111.81,151.439,111.339Zm-20.609-7.606c-.284-.038-.227.216-.317.357-.984,1.537.587,1.808,1.27,2.475.218.213.645.645.94.387a2.024,2.024,0,0,0,.414-1.164C133.2,105.381,131.238,103.688,130.83,103.733Zm4.842,2.583a3.288,3.288,0,0,0,.785-1.656c.266-.916-.579-1.235-1.172-1.483-.632-.265-.534.47-.74.8C133.691,105.36,134.764,105.782,135.672,106.316Zm-2.079-1.591a19.146,19.146,0,0,0,.685-1.822c.172-.629,1.04-1.5-.173-1.844-1.119-.317-.72.877-.968,1.385C132.746,103.244,132.034,104.2,133.593,104.725Zm19.228,12.047c.1-1.32-1.252-1.233-1.86-1.867-.277-.289-.537.041-.649.292-.467,1.045.515,1.265,1.029,1.75.139.131.278.264.409.4.242.257.553.5.876.341C152.982,117.519,152.743,117.09,152.821,116.772Zm-19.786-16.218c.061-.4-.392-.468-.693-.655-.319-.2-.453.077-.521.277-.274.811-.537,1.629-.753,2.458-.128.49.292.67.644.81.246.1.447-.006.533-.305C132.484,102.316,132.745,101.5,133.035,100.554Zm12.361,2.981c-.192-.561-.857-.745-1.325-1.124-.168-.136-.45-.446-.579-.2-.231.437-.548,1.116-.368,1.421a2.513,2.513,0,0,0,1.821,1.149C145.386,104.824,145.217,104.066,145.4,103.535Zm3.29,4.255c.2-1.292.991-2.582-.746-3.957C148.312,105.35,146.708,106.653,148.686,107.79Zm-9.209-5.334c.054-.527-.529-.555-.837-.77-.389-.272-.4.262-.5.431a8.127,8.127,0,0,0-.576,1.45c-.21.677.4.781.789.968.511.246.488-.216.583-.526C139.093,103.51,139.28,103.021,139.477,102.456Zm-5.619,3.46c-.559.971-.914,1.857.491,2.484.434.194.519.137.723-.194C136,106.7,134.484,106.545,133.858,105.916Zm1.2-5.154c.223-.652.641-1.316-.413-1.7-.362-.133-.513-.135-.622.215C133.727,100.212,134.294,100.556,135.055,100.762Zm-4.894,2.547c.057-.227-.272-.465-.544-.5-.661-.1-.611.594-.8.944-.237.428.19.8.537.8C129.978,104.562,129.849,103.886,130.161,103.309Zm.936-2.676c-.025-.3.024-.658-.333-.521-.733.282-.641,1.111-.962,1.67-.177.309.3.643.423.569C130.882,101.961,130.668,101.1,131.1,100.633Zm37.746-23.222-14.815,5.894.171.439c5.029-1.715,9.914-3.8,14.824-5.822Zm-60.228,78.064c-4.1,1.154-8.18,2.348-12.151,3.89l.141.443,12.155-3.869Zm3.022-51.217c-3.4,1.433-6.964,2.475-10.308,4.061l.179.457,10.353-3.97Zm55.512-20.327L158,87.249l.132.357a48.2,48.2,0,0,0,9.173-3.266Zm-16.075,51.8c1.2.554,6.209-.655,7.392-1.8Zm-48.953,29.243c-2.2.241-4.141,1.276-6.152,2.089A16.023,16.023,0,0,0,102.121,164.974Zm60.969-37.24-5.372,1.941C159.491,129.907,162.386,128.745,163.09,127.734ZM154,133.4a7.363,7.363,0,0,0,4.132-1.151A9.8,9.8,0,0,0,154,133.4Zm8.834-51.052a4.368,4.368,0,0,0,3.926-1.725Zm-52.981,19.966-3.658,1.139A3.475,3.475,0,0,0,109.855,102.313Zm-3.543,56.712a14.9,14.9,0,0,0-4.1,1.359A5.162,5.162,0,0,0,106.312,159.025Zm51.469-74.381a4.022,4.022,0,0,0,3.232-1.046C159.994,83.914,158.824,83.72,157.781,84.644ZM110.15,107.018l-2.692,1.083C109.092,108.315,109.758,108.005,110.15,107.018ZM100.3,155.885c-.892.309-1.893.222-2.675.972C98.6,156.843,99.629,156.924,100.3,155.885ZM46.777,99.006A8.862,8.862,0,0,0,46.836,98c.2-5.327,0-10.654.583-15.987.7-6.463.368-12.985.361-19.483,0-.352.051-.765-.57-.793,0,3.058,0,6.09,0,9.122,0,2.119.068,4.244-.051,6.357-.233,4.116-.844,8.207-.825,12.343a48.238,48.238,0,0,1-.223,6.346,10.874,10.874,0,0,0,.268,3.937A4.59,4.59,0,0,0,46.777,99.006Zm-16.948-.5c1.18-9.463,1.169-18.973,1.218-28.473C30.429,79.515,30.331,89.015,29.829,98.5ZM40.788,94.5c.558-3.718.681-7.473.944-11.216l-.51-.042-.91,11.219ZM35.154,67.273a44.354,44.354,0,0,0-.232,9.071C35.661,74.665,35.711,67.856,35.154,67.273Zm18.137,33.255-.43-5.654c-.666,1.936-.309,3.806-.019,5.68ZM53.108,90.9c.149-1.2.74-2.368.1-3.6C53.36,88.509,52.325,89.689,53.108,90.9ZM76.814,6.813c.505-.048.789.276,1.126.563C82.856,11.555,87.811,15.69,92.7,19.9c5.419,4.67,11.036,9.095,16.582,13.608,7.3,5.937,14.323,12.193,21.693,18.047C137.1,56.419,143,61.564,149.008,66.574c2.062,1.72,4.144,3.416,6.229,5.108,1.265,1.027,1.076,1.912-.609,2.553-3.943,1.5-7.912,2.932-11.84,4.47-9.139,3.58-18.248,7.233-27.39,10.8-5.487,2.143-11.021,4.164-16.51,6.3-.727.283-1.045-.022-1.492-.407C89.369,88.487,81.3,81.618,73.31,74.66,59.289,62.449,45.188,50.334,30.782,38.577A181.155,181.155,0,0,1,17.035,26.425c-1.3-1.3-1.125-1.969.646-2.449,14.925-4.048,29.706-8.585,44.5-13.095C66.7,9.5,71.279,8.305,75.833,7.029,76.155,6.939,76.487,6.884,76.814,6.813Zm-.926,27.842-.054-.054a1.123,1.123,0,0,1-.406,1.133c-1.137.882-2.174,1.906-3.365,2.7-.834.558-.588.828-.035,1.344,1.9,1.773,3.756,3.6,5.655,5.378q11.5,10.76,23.007,21.517c.81.762,1.4.922,2.283.175a31.621,31.621,0,0,1,2.612-1.815c-.654,1.487-2.117,2.009-3.2,2.969,2.087,2.092,1.448,1.8,3.405.206a4.437,4.437,0,0,1,.768-.651c.816-.392,1.178-1.454,2.378-1.638A8.518,8.518,0,0,1,106.5,68.39c-1.971,1.668-1.962,1.678-.081,3.365,2.3,2.062,2.286,2.045,4.624-.1a3.948,3.948,0,0,1,2.484-1.41L109.1,74.178a10.978,10.978,0,0,1,1.055,1.026c.693.878,1.258,1.066,2.189.15a4.244,4.244,0,0,1,2.5-1.641c-.8,1.383-2.248,1.881-3.1,3.048a42.725,42.725,0,0,1,3.152,2.972c.993,1.132,1.724,1.359,2.8.072a21.27,21.27,0,0,1,2.777-2.391l.255.317a16.093,16.093,0,0,1-3.206,3.016c-1.141.939-.11,1.312.338,1.88.582.738.956.382,1.412-.174,1.036-1.264,2.085-2.522,3.209-3.706.521-.548.534-.82-.015-1.365-4.376-4.348-9.043-8.37-13.717-12.386a18.577,18.577,0,0,1-4.184-4.188,3.885,3.885,0,0,1,1.982,1.221,36.042,36.042,0,0,0,2.97,2.5c3.409,2.732,7.16,5.017,10.2,8.239,2.773,2.938,5.805,5.632,8.731,8.425a1.54,1.54,0,0,0,1.8.488c7.672-3.09,15.354-6.154,23.108-9.254a16.555,16.555,0,0,0-1.215-1.241c-3.524-2.883-7.09-5.715-10.588-8.63-6.157-5.13-12.23-10.362-18.42-15.452-7.3-6-14.673-11.922-21.86-18.071C94.535,23.266,87.5,17.84,80.728,12.108a4.715,4.715,0,0,0-5.489-.951c-3.686,1.481-7.23,3.345-11.113,4.327-1.16.294-2.3.666-3.447,1.013-.892.269-1.364.592-.527,1.56,1.009,1.165,2.026,2.316,3.132,3.386a2.148,2.148,0,0,1,.83,2.083c-1.693-1.757-3.148-3.206-4.526-4.724-.679-.748-1.227-.994-2.142-.312-1.347,1-2.784,1.892-4.215,2.778-.589.365-.719.615-.153,1.135.69.636,1.293.948,2.042.09.174-.2.354-.6.788-.44.127.9-1.14.956-1.139,2.111L60,20.6a1.805,1.805,0,0,1-.946,1.35c-.934.668-1.875,1.327-2.8,2.011-.254.189-.885.252-.473.784a.774.774,0,0,0,1.142.187c.238-.156.413-.591.947-.315-1.336,1.023-.516,1.628.363,2.317a27.051,27.051,0,0,1,2.226,2.061c2.1,2.06,2.063,2.036,4.175-.069.624-.622,1.056-1.562,2.257-1.785A28.276,28.276,0,0,1,63.564,30.8c-.208.209-.673.417-.339.8.363.421.675.063.968-.192.541-.472,1.09-.935,1.822-1.56a1.953,1.953,0,0,1-.959,1.619c-1.092.675-.794,1.22.011,1.9,1.211,1.029,2.388,2.1,3.51,3.227.551.552.9.57,1.508.068a11.785,11.785,0,0,1,3.4-2.453c-.842,1-1.836,1.835-2.744,2.756-.259.262-1.225.252-.573,1.093.537.692.958.345,1.425-.023Zm24.181,58.657-9.464-8.7a1.752,1.752,0,0,1,1.68.767c2.656,2.368,5.327,4.722,7.939,7.139a1.338,1.338,0,0,0,1.623.279c2.24-.915,4.471-1.852,6.721-2.741.887-.351.8-.68.174-1.253Q101.827,82.45,94.95,76.061c-2.4-2.225-4.772-4.476-7.157-6.715,1.6.389,2.646,1.566,3.758,2.6Q100.6,80.342,109.6,88.8c.256.239.417.643.943.418,1.333-.568,2.69-1.081,4.119-1.648a5.935,5.935,0,0,0-.487-.538c-11.2-9.366-21.753-19.457-32.486-29.345-6.8-6.266-13.471-12.677-20.443-18.758a1.386,1.386,0,0,0-1.653-.287c-3.245,1.235-6.523,2.373-9.876,3.291-.591.162-1.155.394-1.593-.106A19.692,19.692,0,0,0,45.723,40C39.879,35.043,34.371,29.715,28.75,24.515a3.47,3.47,0,0,0-4-.817c-1.806.6-3.626,1.152-5.616,1.78,1.682,1.341,3.176,2.477,4.611,3.684,8.406,7.074,16.3,14.721,24.614,21.9Q72.741,72.129,97.072,93.251A2.045,2.045,0,0,0,100.069,93.312ZM29.888,22.282c2.647,2.367,5.131,4.567,7.592,6.793,3.782,3.422,7.889,6.5,11.215,10.406.461.541.853.223,1.268.083,2.935-.993,5.918-1.815,8.911-2.612,1.69-.45,2.821-.554,4.422,1.007,7.134,6.958,14.545,13.635,21.951,20.309,10.234,9.223,20.471,18.44,30.159,28.244.963.975,1.817.3,2.377-.145.758-.6-.3-1-.634-1.313-4.2-3.9-8.527-7.664-12.644-11.647-9.835-9.515-19.921-18.757-30-28-8.093-7.424-16.218-14.814-24.065-22.5-.661-.648-.888-1.064-.058-1.683,3.576-2.665,7.095-5.412,11.478-6.708,4.913-1.453,9.572-3.695,14.618-4.744.247-.052.547-.1.527-.364-.015-.185-.284-.353-.442-.525-.37-.4-.75-.025-1.046.071-12.176,3.96-24.6,7.046-36.876,10.667C35.776,20.457,32.929,21.352,29.888,22.282ZM120.965,84.9a2.559,2.559,0,0,1,.947-1.845c.822-.879,1.635-1.77,2.507-2.6.651-.62.231-.938-.2-1.393-.5-.527-.838-.461-1.274.049-1.094,1.28-2.236,2.519-3.311,3.814-.191.229-.81.609-.32.9.654.388.8,1.648,1.783,1.305,2.346-.817,4.644-1.774,7.113-2.734a14.68,14.68,0,0,1-1.713-1.375c-.687-.754-1.155-.677-1.817.073C123.577,82.346,122.354,83.492,120.965,84.9ZM10.928,24.569A120.07,120.07,0,0,0,27.2,40.671C21.829,35.249,16.2,30.09,10.928,24.569Zm67.749,60.4,15.06,13.493.38-.429c-5-4.514-9.923-9.121-15.1-13.438ZM126.9,45.615c4.667,3.573,9.026,6.915,13.272,10.4C138.785,53.813,128.791,45.988,126.9,45.615ZM156.351,69.66c-3.668-3.452-7.538-6.67-11.424-9.869l-.329.378L156,70.024ZM18.038,35.057,10.7,27.4C11.273,29.005,17.507,34.956,18.038,35.057ZM146.322,58.479a17.452,17.452,0,0,0,4.642,3.565A14.328,14.328,0,0,0,146.322,58.479ZM92.276,99.3c-1.093-1.025-1.984-2.3-3.595-2.672C89.913,97.46,90.67,98.947,92.276,99.3Zm.478-4.369c.8.917,1.553,1.9,2.9,2.087A5.761,5.761,0,0,0,92.754,94.927Zm39.239-49.32a3.4,3.4,0,0,0,2.136,1.6A3.03,3.03,0,0,0,131.993,45.607ZM90.828,166.52c-4.406-4.053-8.71-8.225-13.727-11.56C81.712,158.772,85.961,163.009,90.828,166.52Zm-.484-48.546c-3.626-2.444-7.052-5.151-10.534-7.805C82,112.828,88.7,117.775,90.344,117.974ZM79.1,108.927l-10.269-7.389-.229.32A80.78,80.78,0,0,0,78.839,109.3Zm.178-5.9a33.655,33.655,0,0,0-5.824-4.548l-.232.3,5.783,4.6Zm5.682,33.408a38.826,38.826,0,0,0,5.676,3.92C89.949,139.1,86.048,136.422,84.963,136.437Zm1.743,19.419c-.155-.1-.332-.226-.487,0-.2.285.037.42.221.555a16.816,16.816,0,0,0,1.967,1.4c.9.477,1.39,1.532,2.833,1.9A17.872,17.872,0,0,0,86.706,155.856Zm2.88,6.478-3.925-4.165-.367.334a38.366,38.366,0,0,0,3.9,4.175ZM82.3,139.9,79,137.028l-.283.325a23.034,23.034,0,0,0,3.258,2.914Zm4.171-14.016,3.634,2.283a7.83,7.83,0,0,0-3.3-2.737Zm1.339,21.807a6.3,6.3,0,0,0-3.636-2.092l3.394,2.424Zm-6.454-25.331,3.245,2.308.246-.345a11.308,11.308,0,0,0-3.29-2.336Zm3.062,19.408a7.357,7.357,0,0,0,2.9,2.669A8.931,8.931,0,0,0,84.414,141.763Zm-4.7,11.7a4.755,4.755,0,0,0,2.5,1.636A3.438,3.438,0,0,0,79.716,153.467Zm-63.147-49.7c-1.544-1.929-3.664-3.166-5.568-4.662l-.321.386,5.652,4.559Zm5.415-43.3a20.851,20.851,0,0,0-5.052-4.3A19.505,19.505,0,0,0,21.984,60.475ZM18.766,54.4a11.469,11.469,0,0,0,3.37,2.751l.261-.313-3.348-2.751Zm123.976,68.4c-1.384-.7-2.027.247-2.708,1.188-.458.632-.832,1.405-2.046,1.548,1.095-.988.592-1.538-.164-2.168-1.4-1.17-2.749-2.411-4.072-3.672-.679-.647-1.127-.795-1.525.241a1.978,1.978,0,0,1-.982,1.18c-.35-.662.219-1.017.487-1.4.6-.858.59-1.526-.306-2.16-.664-.471-1.274-1.019-1.918-1.54a6.637,6.637,0,0,1-1.4,1.6c-.268-.224-.164-.441-.014-.625.792-.967,1.192-1.818-.555-2.121-.382-.066-.278-.381-.177-.558a52.95,52.95,0,0,1,2.987-4.769c-.09,1.447-1.094,2.447-1.687,3.64-.266.536-.874.986-.022,1.544.879.575.973-.25,1.341-.667.52-.592.722-1.451,1.624-1.944a4.6,4.6,0,0,1-1.271,2.562c-.45.642-.344.99.191,1.412.714.562,1.409,1.149,2.181,1.781.474-.782.967-1.562,1.423-2.363.254-.445.527-.74.986-.281q3.8,3.8,7.579,7.619Zm-8.056-7.033c-.361.617-.7,1.284-1.126,1.9-.349.508-.215.807.209,1.188,1.68,1.511,3.35,3.033,4.974,4.6.672.65.941.063,1.21-.319.324-.46,1.314-.82.589-1.567C138.639,119.605,136.661,117.713,134.686,115.766Zm10.571,9.106c-1.038.26-.9,2.3-2.37,1.73-.1,2.523-2.946,3.423-3.458,5.7a33.5,33.5,0,0,0,3.453-3.724c.635-.813.987-.632,1.61-.01.824.821,1.5,1.878,2.775,2.162a10.337,10.337,0,0,0-2.011-2.2c-1.011-.82-1.421-1.61-.277-2.625.325-.288.263-.695.23-1.078Zm-15.3,5a28.243,28.243,0,0,0,4.6-5.053l-.317-.292q-2.3,2.527-4.6,5.054Zm12.787-7.075c-.942,1.775-2.582,3.07-3.548,4.989.308-.019.511.027.566-.043,1.184-1.488,2.4-2.952,3.492-4.507.351-.5-.433-.151-.552-.394Zm-12.661,2.465c1.968-.943,2.774-2.848,3.759-4.609C132.336,121.987,131.468,123.832,130.08,125.266Zm-7.361,19.89c.188-.018.46.039.55-.064.294-.336-.107-.522-.281-.633a18.684,18.684,0,0,1-2.854-2.63c-.2-.2-.4-.608-.754-.322a17.064,17.064,0,0,0,3.382,3.687ZM145.949,112a7.848,7.848,0,0,0-1.282,4.1A8.342,8.342,0,0,0,145.949,112Zm-1.541,8.018a7.768,7.768,0,0,0-3.325-2.8A10.455,10.455,0,0,0,144.408,120.017Zm.8,4.807c1.238.5,1.883,1.92,3.659,2.323a14.187,14.187,0,0,0-3.256-2.725c-.29-.186-.289.249-.357.45Zm-6.36,2.761a6.291,6.291,0,0,0-2.825-2.474A6.944,6.944,0,0,0,138.851,127.585Zm1.255,12.056a3.828,3.828,0,0,0-2.515-2.24c.846.738,1.189,2.085,2.562,2.193Zm-21-3.91c.584.808,1.047,1.732,2.074,2.049A4.394,4.394,0,0,0,119.105,135.731Zm6.465,7.513c-.051.121-.176.321-.144.35a5.276,5.276,0,0,0,2.312,1.524c.026.006.069-.059.329-.3ZM99.7,47.377c-3.944,0-7.625-2.283-8.717-5.619-1.572-4.8.812-8.478,5.631-9.619a9.269,9.269,0,0,1,8.869,2.5,6.936,6.936,0,0,1,1.977,7.833,8.279,8.279,0,0,1-7.183,4.9C100.081,47.378,99.888,47.377,99.7,47.377ZM98.4,33.51a8.547,8.547,0,0,0-5.011,2.3,2.421,2.421,0,0,0-.474,3.32,8.034,8.034,0,0,0,12.3,1.886c1.718-1.413,1.729-2.151.5-4.034C104.081,34.488,101.658,33.623,98.4,33.51Zm-5.716,8.322c.649,2.369,3.925,4.4,6.847,4.378,3.519-.027,6.12-1.73,6.879-4.578C101.891,44.553,97.371,46.3,92.687,41.832ZM75.833,34.6A33.534,33.534,0,0,1,78.5,37.207c3.727,3.449,6.853,7.577,11.36,10.148.575.328,1.393,1.161,1.777.629.479-.663-.576-1.2-1.07-1.623-6-5.19-12.03-10.347-17.561-16.056A6.283,6.283,0,0,0,69.417,28.1l6.471,6.557Zm25.76,23.589c.211.207.518.373.752.143.278-.272-.014-.512-.2-.719a2.843,2.843,0,0,0-.415-.4,48.956,48.956,0,0,1-5.87-5.3c-.285-.288-.526-.711-1.278-.492C96.723,54.028,99.313,55.951,101.593,58.19ZM69.474,28.183c-.765-1.715-2.885-3.717-4.159-3.891C66.771,25.576,67.728,27.089,69.474,28.183Zm15.143,38.01c-7.843-7.941-16.29-15.249-24.261-23.036A327.109,327.109,0,0,0,84.617,66.193Zm-.6,9.384-.255.287c.533,1.01,16.639,15.4,17.807,15.431ZM23.357,24.74A54.331,54.331,0,0,0,35.974,35.4C31.829,31.778,27.338,28.559,23.357,24.74ZM58.87,54.622A81.764,81.764,0,0,0,51.9,47.879c-.162-.132-.314-.227-.484-.035-.266.3.045.406.2.552,1.429,1.349,2.889,2.666,4.284,4.05.865.857,1.633,1.813,2.444,2.725Zm47.892,35.619a17.5,17.5,0,0,0-4.449-3.847A12.335,12.335,0,0,0,106.762,90.241ZM72.194,63.978a19.4,19.4,0,0,0,3.967,4.369A13.1,13.1,0,0,0,72.194,63.978ZM54.314,46.853c1.21,1.229,2.184,2.7,3.774,3.524C56.981,49.043,56,47.569,54.314,46.853Zm37.033,32.47C90.269,78,89.5,76.379,87.692,75.777,89.037,76.815,89.679,78.6,91.347,79.323ZM75.252,62.953l3.506,3.3.354-.384a23.791,23.791,0,0,0-3.539-3.262ZM56.715,45.475c.682.845,1.242,1.82,2.432,2.142C58.491,46.753,57.916,45.742,56.715,45.475Zm37.774-8.76c-.277,0-.6.119-.565.469.026.26.306.319.56.352a23.375,23.375,0,0,1,3.393.5,38.056,38.056,0,0,0,6.321.938c.368.042.91.127,1-.323.1-.5-.415-.679-.83-.8-2.191-.628-4.311-1.673-6.329-1.147C96.61,36.707,95.549,36.694,94.489,36.715Z" fill="#151611"/>
</svg>
